<?xml version="1.0" encoding="utf-8"?>
<!-- Generator: Adobe Illustrator 23.0.1, SVG Export Plug-In . SVG Version: 6.00 Build 0)  -->
<svg version="1.1" id="Layer_1" xmlns="http://www.w3.org/2000/svg" xmlns:xlink="http://www.w3.org/1999/xlink" x="0px" y="0px"
	 width="1781.3px" height="176.4px" viewBox="0 0 1781.3 176.4" style="enable-background:new 0 0 1781.3 176.4;"
	 xml:space="preserve">
<style type="text/css">
	.st0{enable-background:new    ;}
</style>
<g class="st0">
	<path d="M138.4,144.3c-14.4,4.2-28.1,6-45.4,6c-36.4,0-65.6-19.1-65.6-58.2c0-36.7,30.4-55.1,65.6-55.1c20.6,0,30.4,1.6,41,4.1
		v29.5c-6-3.5-17.1-6.3-28.9-6.3c-20.9,0-34.7,10.5-34.7,30.4c0,15.1,6.1,28.3,22.9,28.3c3,0,6.4,0,8.9-0.9V92.8h36.1V144.3z"/>
	<path d="M153,38.8h95v26.4h-53.8v15.5h51.5v26.4h-51.5V122H249v26.4H153V38.8z"/>
	<path d="M317.8,150.2c-38.3,0-60.7-19.3-60.7-56.7c0-36.7,22.4-56.7,60.7-56.7c38.3,0,61.2,19.9,61.2,56.7
		C379,130.9,356.1,150.2,317.8,150.2z M317.8,123.9c16.6,0,17.1-18.5,17.3-30.3c-0.2-10.2-1.3-30.3-17.3-30.3
		c-15.5,0-16.8,20.1-16.8,30.3C301,105.3,302.7,123.9,317.8,123.9z"/>
	<path d="M495.9,144.3c-14.4,4.2-28.1,6-45.4,6c-36.4,0-65.6-19.1-65.6-58.2c0-36.7,30.4-55.1,65.6-55.1c20.6,0,30.4,1.6,41,4.1
		v29.5c-6-3.5-17.1-6.3-28.9-6.3c-20.9,0-34.7,10.5-34.7,30.4c0,15.1,6.1,28.3,22.9,28.3c3,0,6.4,0,8.9-0.9V92.8h36.1V144.3z"/>
	<path d="M510.5,38.8h68c26.2,0,42.4,8.2,42.4,29.2c0,16.8-10.5,25.3-26.2,29v0.3c9.1,1.6,14.6,6,18.5,11.8
		c6.4,11.6,6,28.6,10.4,39.2h-43.8c-1.9-7.8-2.4-25-5.8-31.5c-2.5-5-6.7-5.7-11.9-5.7h-9.4v37.2h-42.1V38.8z M550.7,86.7h11
		c8.6,0,17.1-0.9,17.1-12.1c0-9.9-8-11.3-16.5-11.3h-11.6V86.7z"/>
	<path d="M662.3,38.8h57.9l39.1,109.6h-44.1l-7.2-23.7h-35.5l-6.7,23.7h-41.9L662.3,38.8z M678.3,98.3h24.3l-11.9-35.9h-0.3
		L678.3,98.3z"/>
	<path d="M764.8,38.8h72.4c17.1,0,40.2,8.2,40.2,37.7c0,28.6-18.4,40.3-40.3,40.3h-30.1v31.5h-42.1V38.8z M805.7,91.4h9.3
		c10,0,20.2-1.9,20.2-14.1c0-11.6-10.2-13-20.4-13h-9.1V91.4z"/>
	<path d="M959.8,38.8h42.1v109.6h-42.1V109h-28.1v39.4h-42.1V38.8h42.1v37.8h28.1V38.8z"/>
	<path d="M1090.1,114.8v33.6H1048v-33.6l-40.7-76h45.7l17.1,45.8h0.3l17.3-45.8h43.5L1090.1,114.8z"/>
	<path d="M1267.3,114.8v33.6h-42.1v-33.6l-40.7-76h45.7l17.1,45.8h0.3l17.3-45.8h43.5L1267.3,114.8z"/>
</g>
<g class="st0">
	<path d="M1352.4,38.8l-18,47.9h-25l9.7-47.9H1352.4z"/>
</g>
<g class="st0">
	<path d="M1387.8,38.8h57.9l39.1,109.6h-44.1l-7.2-23.7H1398l-6.7,23.7h-41.9L1387.8,38.8z M1403.8,98.3h24.3l-11.9-35.9h-0.3
		L1403.8,98.3z"/>
	<path d="M1490.3,38.8h42.1V116h51.6v32.3h-93.7V38.8z"/>
	<path d="M1595,38.8h42.1V116h51.6v32.3H1595V38.8z"/>
	<path d="M1746.3,38.8l-6.1,69.1h-29.8l-6.1-69.1H1746.3z M1742.4,119.2v29.2h-34.2v-29.2H1742.4z"/>
</g>
</svg>
