<?xml version="1.0" encoding="utf-8"?>
<!-- Generator: Adobe Illustrator 25.2.1, SVG Export Plug-In . SVG Version: 6.00 Build 0)  -->
<svg version="1.1" id="Layer_1" xmlns="http://www.w3.org/2000/svg" xmlns:xlink="http://www.w3.org/1999/xlink" x="0px" y="0px"
	 width="445px" height="228px" viewBox="0 0 445 228" enable-background="new 0 0 445 228" xml:space="preserve">
<g>
	<g>
		<g>
			<g>
				<polygon points="286.0486,18.5298 286.0486,24.6606 286.0486,30.7914 286.0486,36.9222 298.3102,36.9222 298.3102,30.7914 
					330.6369,30.7914 290.0121,105.2303 304.3793,105.2303 347.1106,27.0757 347.1106,18.5298 				"/>
			</g>
			<g>
				<path d="M337.4501,90.3868c-2.4625,0-4.8868,0.159-7.2757,0.436l9.2896-16.9907h35.2913v6.5904h12.2616V68.161h-0.0022v-6.467
					h-55.2406l-23.8127,43.5363h0.0201h14.3156h0.0962c4.7582-1.4857,9.8156-2.287,15.0569-2.287
					c27.9063,0,50.6103,22.704,50.6103,50.6103s-22.704,50.6103-50.6103,50.6103c-19.2511,0-36.0227-10.8062-44.577-26.6689
					l-11.114,5.8338c10.6589,19.8558,31.6209,33.3915,55.691,33.3915c34.8304,0,63.1667-28.3363,63.1667-63.1667
					S372.2805,90.3868,337.4501,90.3868z"/>
			</g>
			<g>
				<g>
					<path d="M329.4377,180.5744c-0.1811-0.1358-1.3886,0.4378-1.5396,0.8453c-0.151,0.4076,0.1962,1.4944,0.483,1.6
						c0.2868,0.1057,1.1623-0.0905,1.3585-0.2113C329.9359,182.6876,329.6189,180.7104,329.4377,180.5744z"/>
				</g>
				<g>
					<path d="M327.3547,179.3367c-0.2867-0.1056-1.6905,0.1812-2.0226,0.4226c-0.3321,0.2415-1.2679,1.2679-1.2679,1.449
						c0,0.1812,0.951,0.8302,1.2679,1.2679c0.317,0.4378,1.2075,3.0792,1.4189,3.2905c0.2113,0.2113,0.9207,0.1509,1.1471,0
						c0.2264-0.151-0.0365-1.117-0.1811-1.3283c-0.1446-0.2113-0.5283-0.4075-0.6943-0.634
						c-0.1661-0.2264-0.1812-1.0415-0.0906-1.6301C327.0227,181.5858,327.6416,179.4424,327.3547,179.3367z"/>
				</g>
				<g>
					<path d="M332.8189,190.8083c0.4482-0.1509,1.1082-0.791,1.2679-0.7245s0.5434,0.3773,0.7245,0.3019
						c0.1811-0.0755,0.3471-0.7095,0.1811-1.0566c-0.166-0.3472-0.9811-1.0264-1.3886-1.0264c-0.4076,0-1.917,1.3283-2.0528,1.5396
						C331.4151,190.0536,332.3707,190.9593,332.8189,190.8083z"/>
				</g>
				<g>
					<path d="M332.8189,198.9592c0.2868,0.5434,3.7282,1.6604,4.981,1.8717c1.2528,0.2113,4.6189-0.4126,5.4641-0.5434
						c0.8453-0.1308,5.8767-1.5397,6.7924-2.0528c0.9157-0.5132,1.6906-1.1622,1.2075-1.2377
						c-0.483-0.0755-3.8188-1.7509-4.2565-2.8377c-0.4377-1.0868-0.3321-1.2528-0.1208-1.7207
						c0.2114-0.4679,1.6604-1.2226,1.7811-1.6301c0.1207-0.4076-0.6943-1.9773-0.9358-2.3547
						c-0.2415-0.3773-0.9962-1.8264-1.3887-1.9019c-0.3925-0.0754-1.0623,0.0302-1.3887,0.634
						c-0.3264,0.6038-1.0566,2.3698-1.8717,2.9585s-7.4414,2.5509-8.1509,3.0792
						C334.2226,193.7517,332.532,198.4158,332.8189,198.9592z"/>
				</g>
				<g>
					<path d="M307.2699,189.6105c0.248-0.2064,0.7691-0.6845,1.1671-0.7246c0.398-0.0401,1.1715,0.5034,1.4491,0.8047
						c0.2762,0.3029,1.1018,0.7409,0.7647,0.876c-0.337,0.1366-1.605,0.0297-2.0133,0c-0.4069-0.0297-1.4432,0.9518-1.1671,1.1775
						c0.2776,0.2272,1.8115,0.6043,1.8115,0.6043s4.196,1.3274,4.8701,1.3274c0.6741,0,3.1151-0.7439,3.6229-0.8849
						c0.5078-0.1411,1.9273-0.9265,2.2138-1.2888c0.2866-0.3623,0.3875-1.0408,0.8047-1.5694
						c0.4187-0.5286,2.3222-1.3422,2.6978-2.1129c0.1781-0.3668,0-1.1477,0-1.6303c0-0.4826-0.2272-1.4937-0.6948-1.6007
						c-0.4677-0.1054-1.5694,0.9963-2.0372,0.8761c-0.4692-0.1203-1.1626-0.8761-1.1626-0.8761s-1.3734-0.9057-1.6006-0.8448
						c-0.2257,0.0609-0.9502,2.2792-0.9354,2.6266c0.0148,0.3475,0.5583,1.222,0.5434,1.4492
						c-0.0148,0.2257-0.2405,0.4677-0.7543,0.9962c-0.5152,0.5272-1.5249,1.5992-1.8723,1.7506
						c-0.3475,0.1515-0.634,0.1203-0.7543,0c-0.1218-0.1202,0.4068-1.4343,0.6933-1.8411c0.2881-0.4083,0.2881-1.6763,0.0906-1.902
						c-0.196-0.2272-2.5345,0.1202-2.5345,0.1202s2.3237-1.3882,2.4439-1.7208c0.1218-0.3311,0.0164-0.5731,0.0609-0.9058
						c0.046-0.3311,1.6451-2.3697,2.5969-2.3533c0.9502,0.0148,2.7765,0.1811,2.9577,0.588
						c0.1811,0.4068-0.0297,1.3882,0.1514,1.5249c0.1812,0.1351,0.6341,0,0.8746-0.1812c0.242-0.1812,0.288-0.4083,0.3029-0.634
						c0.0148-0.2272-0.5746-1.2977-0.5746-1.2977s1.6466,0.0148,1.9926-0.1663c0.3475-0.1812,2.2658-3.1091,2.5063-3.3066
						c0.2405-0.1959,1.7877-0.4365,1.9317-0.634c0.1441-0.196-0.8255-0.8626-0.876-1.2368c-0.049-0.3757-0.346-1.3141-0.2109-1.5694
						c0.1367-0.2569,1.2398,0.1499,1.7208,0c0.4811-0.1515,2.0536-0.8909,2.3252-1.2993c0.2717-0.4068,0.3355-1.5872,0.2405-2.2331
						c-0.0935-0.6474-0.0757-1.3734-0.2108-1.4491c-0.1366-0.0758-0.7691,0.0594-1.0869,0
						c-0.3163-0.0609-0.7691-1.0424-1.0572-1.0869c-0.2866-0.046-1.4937,0.2108-1.7802,0.392
						c-0.2866,0.1811-0.3772,0.3177-0.5137,0.6949c-0.1366,0.3771-0.4217,1.856-0.8449,2.3236
						c-0.4231,0.4677-1.2234,0.6801-1.5397,0.9058c-0.3177,0.2272-0.3919,0.7557-0.6043,0.9369
						c-0.2108,0.1812-2.0371,0.8152-2.6563,0.5731c-0.6191-0.242-1.2962-0.9745-1.6273-1.3516
						c-0.3326-0.3771-1.0394-0.73-1.4094-1.3219c-0.3701-0.5919-0.1412-1.1626-0.1412-1.1626s0.0084-0.1945-0.2188-0.1634
						c-0.2257,0.0297-0.3835,0.5568-0.3835,0.5568s-0.0855,0.3196-0.0866,0.6434c-0.0009,0.2642,0.0511,0.5371,0.1113,0.6557
						c0.0434,0.0856-0.5754-0.6962-0.5444-0.334c0.0297,0.3481,0.8457,1.1797,1.0393,1.4724c0.339,0.5124,0.484,1.066,0.484,1.066
						s-0.3029,0.0743-0.6948-0.0905c-0.392-0.1663-1.6451-1.0869-1.8114-1.51c-0.1663-0.4232-0.2109-1.5249-0.3014-1.8411
						c-0.0906-0.3178-0.3935-0.6801-0.6043-1.0276c-0.2108-0.3459-0.8909-0.83-1.026-0.8448
						c-0.1366-0.0148-0.1708,1.2606-0.242,1.5694c-0.0713,0.3104-0.0757,0.8315-0.2405,1.0572
						c-0.1663,0.2257-0.6191,0.3327-0.9058,0.3015c-0.2881-0.0297-1.948-2.6414-2.4157-2.8984
						c-0.4677-0.2553-2.2182-0.3311-2.6563-0.392c-0.438-0.0609-1.5857-0.6933-1.7209-1.1165
						c-0.1366-0.4232,1.5085-2.1737,2.0223-2.3549c0.5137-0.1812,2.098-0.4232,3.0498-0.2108
						c0.9503,0.2108,2.3549,1.0557,2.7766,1.1165c0.4231,0.0609,1.464-0.0609,1.7817-0.2108
						c0.3163-0.1514,1.0557-1.3585,1.0557-1.3585s2.5969,3.2442,3.4729,3.562c0.8746,0.3162,1.176,0.438,2.5345,0.4529
						c1.3586,0.0148,2.8107-0.0669,3.3512-0.2421c0.5405-0.1752,2.5969-0.6934,3.2606-1.0556
						c0.6637-0.3623,3.0185-3.0201,3.5323-3.5026c0.5136-0.4826,1.2383-1.6912,1.5694-2.294c0.3326-0.6044,1.902-4.499,1.902-4.8612
						s-0.4826-0.6176-0.5731-0.9963c-0.0906-0.3771,0.1051-0.5683,0.3014-0.9042c0.1962-0.336,1.0869-1.1195,1.0869-1.6318
						s-1.0408-3.2903-1.6912-4.4366c-0.6488-1.1477-1.5739-2.4261-2.4142-3.1997c-0.8404-0.7751-2.0683-2.0535-2.3252-2.144
						c-0.2554-0.0906-1.6347,0.8092-1.9614,1.0869s-0.2717,0.3623-0.6044,0.5137c-0.3325,0.1499-0.9814-0.4841-1.3882-0.4529
						c-0.4083,0.0297-1.2679,0.6191-1.7817,0.6637c-0.5122,0.0446-0.4825-0.1351-0.8745-0.3013
						c-0.3934-0.1663-2.0534,0.0297-2.5211-0.1812c-0.4677-0.2123-1.1165-0.7854-1.2829-1.3289
						c-0.1663-0.5435,0.6488-2.2332,0.4826-2.8983c-0.1663-0.6637-1.2977-1.7506-1.5085-2.2332
						c-0.2123-0.4841,0.1202-2.732,0-3.5026c-0.1218-0.7691-1.1477-1.5991-1.2383-2.1425
						c-0.0905-0.5435,0.7097-1.6154,0.9058-2.2643c0.1959-0.6489,0.2168-3.6823,0-4.438l-0.876-3.0497
						c0,0-1.375-3.6808-1.418-4.2866c-0.0445-0.6043-0.1515-2.0831-0.1515-2.0831s0.1203-1.8264-0.0905-2.0817
						c-0.2108-0.2569-0.5523-0.1114-0.8151,0c-0.2628,0.1098-1.7105,0.8864-2.4454,1.0259c-0.735,0.1396-1.856,0.1663-2.3846,0.4529
						c-0.5286,0.2866-3.4714,3.1849-3.6229,3.6229c-0.15,0.4366,0.1515,1.1017,0,1.5086c-0.15,0.4083-1.7357,1.7357-1.8114,2.0222
						c-0.0757,0.288,0.484,2.4767,0.3623,2.8835c-0.1203,0.4083-2.536,1.9778-2.536,1.9778s-1.418,0.9651-1.418,1.2977
						c0,0.3326,0.2866,1.1329,0.4529,1.9926c0.1663,0.8597,0.3311,5.3125,0.0594,6.2792c-0.2717,0.9666-1.5233,3.3363-1.9317,3.9555
						c-0.4069,0.6176-1.706,1.6897-2.0223,2.1128c-0.3177,0.4217-1.902,4.3772-1.902,5.0705c0,0.6949-0.1054,1.3438,0,1.4492
						c0.1055,0.1069,2.7321-0.4351,3.17-0.4217c0.438,0.0119,1.4937-0.1366,2.052,0.0594c0.5598,0.1976,3.0037,7.2918,3.3512,7.8501
						c0.3474,0.5583,1.0423,0.8448,1.3897,1.418c0.3459,0.5746,0.6786,2.974,0.6637,3.2606c-0.0149,0.2866-0.2108,0.438-0.392,0.392
						c-0.1812-0.0445-1.2532-1.2516-2.0832-2.1425c-0.83-0.8909-2.0386-4.6192-2.536-5.4032
						c-0.4988-0.7854-1.268-1.2843-1.4491-1.7818c-0.1812-0.4989,0.6191-1.3883,0.4826-1.7208
						c-0.1352-0.3326-0.9206-1.7506-1.2977-1.7506c-0.3772,0-1.6363,1.7729-2.3846,2.2643
						c-0.7498,0.4914-2.2643,1.3734-2.8983,1.902c-0.634,0.5271-1.4952,0.9963-1.66,1.9614c-0.1663,0.9666-0.1069,1.6303,0,2.1129
						c0.1055,0.484,0.6934,1.8723,0.9963,1.8723c0.3014,0,1.1165-0.8612,1.4789-0.7097c0.3622,0.1514,1.1165,0.8151,1.5085,0.9517
						c0.3934,0.1352,1.1923,0.5435,1.4194,0.8448c0.2257,0.3015-0.0163,2.8092-0.1202,2.7172
						c-0.1055-0.092-1.5398-1.5709-2.0238-1.7818c-0.4826-0.2108-1.7506-0.2257-2.1425-0.3311
						c-0.392-0.1069-2.0832-2.0832-2.2643-2.0832c-0.1776,0-1.625,1.5279-1.6815,1.5875
						c1.9266,11.8105,8.0649,22.2012,16.827,29.5849C306.072,191.0413,307.0293,189.8099,307.2699,189.6105z"/>
				</g>
				<g>
					<path d="M351.7167,191.1404c0.2101,0.0609,1.7711,0.493,2.0528,0.8151c0.2817,0.322,0.483,1.5899,0.8453,1.8415
						c0.3622,0.2516,3.3005,0.3119,3.532,0.4528c0.2314,0.1409,0.2918,0.7849,0.5937,0.8855
						c0.3019,0.1007,1.0365,0.0403,1.3685-0.2516c0.3321-0.2918,0.634-1.5396,0.634-1.5396s0.7748,1.9019,0.9057,1.9019
						c0.1309,0,0.2012-0.2415,0.3321-0.5132c0.1308-0.2717-0.2415-1.8113-0.1208-2.3849c0.1208-0.5735,1.1975-0.9056,1.4189-1.2377
						c0.2214-0.3321,0.9463-2.1511,0.8958-2.3062c-0.0505-0.1551-0.5134-0.1277-0.765-0.1391
						c-0.2516-0.0114-0.7044-0.0503-0.9459,0.0604c-0.2415,0.1107-0.4025,1.8616-0.9359,2.2641
						c-0.5333,0.4026-2.3245,1.6704-2.6566,1.6604c-0.3321-0.01-1.2277-0.3119-1.9622-0.7245
						c-0.7346-0.4126-3.1698-2.3044-3.3207-2.3547c-0.151-0.0503-1.0164,0.3183-1.3585,0.644
						C351.8878,190.5405,351.5067,191.0796,351.7167,191.1404z"/>
				</g>
				<g>
					<path d="M350.0564,199.1705c0,0.1711,0.2214,0.9358,0.6642,1.117c0.4428,0.1811,2.1836-0.1912,2.4905-0.3019
						s0.649-1.1471,0.9509-1.2981c0.3019-0.151,1.2176,0.01,1.6604,0c0.4428-0.0101,2.3648-0.9157,2.5962-1.1472
						c0.2314-0.2314,0.4528-0.4226,0.4528-0.5434s-1.9019-0.5434-2.1736-0.3924c-0.2717,0.1509-0.3824,0.4729-0.6944,0.6339
						c-0.3119,0.161-1.9622,0.2617-2.3245,0.3925C353.3167,197.7617,350.0564,198.9995,350.0564,199.1705z"/>
				</g>
				<g>
					<path d="M353.9507,179.1556c0.4226-0.1812,0-2.2037-0.4528-2.6868c-0.4529-0.483-1.2679,1.31-1.0264,1.8113
						C352.713,178.7815,353.5281,179.3367,353.9507,179.1556z"/>
				</g>
				<g>
					<path d="M358.5393,189.4197c0-0.2516-1.3282-0.9559-1.7358-1.117c-0.4076-0.161-1.4642-0.1308-1.5849,0
						c-0.1207,0.1308-0.2113,1.1673,0,1.4189c0.2114,0.2516,1.5698,0.7447,1.8717,0.8151
						C357.3922,190.607,358.5393,189.6712,358.5393,189.4197z"/>
				</g>
				<g>
					<path d="M384.8736,154.0292c-0.9859-0.735-2.6058-2.0728-3.7431-2.2539s-2.8478-0.1485-3.663-0.8463
						c-0.8152-0.6979-0.876-1.3586-1.8515-2.3341c-0.9755-0.9755-1.9228-1.761-2.6162-1.801
						c-0.6949-0.0401-0.9354,0.242-1.4091,0.1915c-0.4722-0.0505-1.2072-0.6044-1.2072-0.6044s1.0156-3.5427,1.4492-4.1455
						c0.432-0.6044,1.0764-0.8761,0.9859-1.4195c-0.0906-0.5434-0.2718-0.784-0.2212-1.1566
						c0.0504-0.3727,0.8849-1.8322,0.8047-3.0587c-0.0802-1.2279-2.003-4.7201-3.0988-6.0787
						c-1.0973-1.3586-4.7305-4.2866-4.9919-5.0319c-0.2613-0.7439,0.533-3.4209,0.3459-4.5479
						c-0.1871-1.127-0.9591-1.4091-1.271-2.3742c-0.3084-0.9515,1.2192-5.1255,1.2669-5.2554
						c-2.0066-1.4001-4.1203-2.6556-6.3305-3.7481c-0.0294,0.0217-0.5892,0.4384-0.6528,0.7912
						c-0.0654,0.3623,0.2613,0.7409,0.1202,1.0868c-0.141,0.3475-1.2324,0.9518-1.4491,1.4091
						c-0.2153,0.4588-0.0995,1.1418-0.5628,1.4491c-0.4632,0.3074-1.847,0.6147-2.2538,0.8865
						c-0.4084,0.2717-1.8575,4.0148-1.8916,4.4276c-0.0357,0.4112,0.5939,0.9754,0.4825,1.4476
						c-0.1114,0.4737-0.6444,1.6704-1.127,1.9733c-0.4825,0.3014-2.3697,0.2569-2.778,0.5627
						c-0.4069,0.3073-1.4641,2.6518-1.5694,3.3007c-0.1055,0.6488,0.6191,3.0942,0.2821,4.1469
						c-0.3371,1.0512-1.8589,2.7023-2.2139,3.219c-0.3548,0.5167-0.6488,2.2792-0.2019,3.0186
						c0.4484,0.7409,8.4276,3.8188,8.977,4.5494c0.5479,0.729,0.7186,2.4707,1.5294,2.9785
						c0.8092,0.5078,2.0876,0.1708,2.6964,0.7246s1.1121,3.5367,1.5694,3.8634c0.4588,0.3281,3.3155-0.4024,3.7446-0.2821
						c0.4276,0.1217,2.5598,2.2197,2.8968,2.2138c0.337-0.0045,3.4224-2.4395,3.5026-2.7766c0.0802-0.337,0-0.7245,0-0.7245
						s2.3653,0.8196,2.8582,1.0869c0.493,0.2673,0.7587,1.2428,1.0453,2.2138c0.288,0.9711,0.2272,1.6704,0.4232,1.9124
						c0.196,0.2405,1.1017,0.4365,1.2532,0.6637c0.1514,0.2257,0.0757,3.5472,0.2167,3.7431c0.1396,0.196,0.689,0.1055,0.925-0.0802
						c0.2361-0.1871,1.4491-1.5694,1.4491-1.5694s0.7454-0.6444,1.4091-0.5642c0.6636,0.0802,1.2531,0.493,1.5293,0.7647
						c0.2761,0.2717,0.5226,4.1663,0,5.0319c-0.5226,0.8656-2.0282,1.8055-2.6964,2.0119c-0.6696,0.2063-2.1693,0.0505-2.3757,0.242
						c-0.2063,0.1915-0.0045,0.7899-0.3222,0.925c-0.3163,0.1366-2.3089-0.1202-2.7766-0.3623
						c-0.4677-0.2405-1.7817-2.8523-2.0133-2.4945c-0.2302,0.3563-0.2361,3.6422-0.4425,3.9035s-3.0838,2.4558-3.5412,3.1804
						c-0.4588,0.7246-0.9622,2.5212-1.2888,2.8582c-0.3266,0.337-2.0431,0.6281-2.536,1.2472
						c-0.493,0.6191-1.0156,1.902-1.3675,2.0936c-0.3533,0.19-3.1656,0.3519-3.5026,0.6028
						c-0.3371,0.2524-1.519,2.1336-1.2873,2.3356c0.2301,0.2005,4.4469,0.4023,4.4469,0.4023s-2.3697,1.1775-2.9577,1.2472
						c-0.5895,0.0712-1.6467,0-2.1336,0c-0.4885,0-3.1805,1.167-3.1805,1.167l-0.2405,1.127l0.8448,0.9265
						c0,0,0.8835,0.9235,0.9651,1.5085c0.0802,0.5835,0.8615,1.1868,1.2075,1.3441c0.3474,0.1559,1.4469,0.5452,1.5821,0.6046
						c0.1366,0.0609,0.0182,0.6779,0.1489,0.9021c0.1307,0.2242,0.553,0.6389,1.6708,1.0097
						c1.1178,0.3707,2.4718-2.2317,2.6826-2.5762c0.2094-0.3459,0.0045-1.314,0.2554-1.51c0.2524-0.196,1.2829-0.5583,1.7119-0.9205
						c0.4276-0.3623,1.3675-2.738,1.3675-2.738s0.242,2.1336,0.6043,2.496c0.3623,0.3623,2.9577,1.0259,3.421,1.4892
						c0.4633,0.4633,0.6236,1.7254,0.5642,1.9318c-0.0609,0.2064-4.2984,2.5018-4.4276,2.5761
						c-0.1292,0.0757-2.049,1.7461-2.2138,2.1336c-0.1663,0.3875-0.1218,1.7565,0,2.0534c0.1202,0.297,0.4528,0.6385,0.8448,0.79
						c0.3737,0.1431,1.1264,0.2406,1.5143,0.0268c0.0327-0.0233,0.0655-0.0463,0.0981-0.0697
						c0.3378-0.3495,0.4802-2.0457,0.7618-2.217c0.2885-0.1728,2.068-0.0053,2.1164-0.0006
						c10.1006-8.431,16.7573-20.8426,17.5639-34.8262C386.3628,155.9585,385.6677,154.621,384.8736,154.0292z"/>
				</g>
			</g>
		</g>
		<g>
			<g>
				<path d="M385.5552,90.8419h16.2624V74.5802h10.784v16.2617h16.2617v10.7847h-16.2617v16.2617h-10.784v-16.2617h-16.2624V90.8419
					z"/>
			</g>
		</g>
	</g>
	<g>
		<g>
			<path d="M20.9291,59.2504V42.6707h3.4792c1.668,0,2.9852,0.1646,3.9516,0.494c1.038,0.3221,1.9794,0.8698,2.8241,1.6429
				c1.7109,1.5606,2.5664,3.6116,2.5664,6.153c0,2.5485-0.8913,4.6103-2.6738,6.1852c-0.8948,0.7875-1.8326,1.3351-2.8134,1.6429
				c-0.9163,0.3078-2.2156,0.4617-3.898,0.4617H20.9291z M23.4311,56.8987h1.1275c1.1239,0,2.0581-0.1181,2.8027-0.3544
				c0.7445-0.2506,1.4174-0.6479,2.0188-1.1919c1.2313-1.1239,1.847-2.5879,1.847-4.3919c0-1.8183-0.6085-3.293-1.8255-4.4241
				c-1.0953-1.0094-2.7096-1.5141-4.8429-1.5141h-1.1275V56.8987z"/>
			<path d="M46.0457,45.0223h-6.6469v3.9839h6.4536v2.3517h-6.4536v5.5409h6.6469v2.3517h-9.1489V42.6707h9.1489V45.0223z"/>
			<path d="M51.8335,52.5175v6.7328h-2.502V42.6707h2.8349c1.3888,0,2.4376,0.0966,3.1463,0.2899
				c0.7159,0.1933,1.3458,0.5584,1.8899,1.0953c0.9521,0.9306,1.4282,2.1047,1.4282,3.5221c0,1.5177-0.5083,2.7203-1.5248,3.608
				c-1.0165,0.8877-2.3875,1.3315-4.1127,1.3315H51.8335z M51.8335,50.1981h0.9342c2.298,0,3.4469-0.8841,3.4469-2.6523
				c0-1.7109-1.1848-2.5664-3.5543-2.5664h-0.8268V50.1981z"/>
			<path d="M69.734,55.2236h-7.0979l-1.847,4.0268h-2.6953l8.204-17.6213l7.914,17.6213h-2.7382L69.734,55.2236z M68.7139,52.8719
				l-2.459-5.6375l-2.5772,5.6375H68.7139z"/>
			<path d="M81.9004,52.1847l5.1328,7.0657h-3.0604l-4.7355-6.7865h-0.451v6.7865h-2.502V42.6707h2.9315
				c2.1906,0,3.7727,0.4116,4.7463,1.2349c1.0738,0.9163,1.6107,2.1262,1.6107,3.6295c0,1.174-0.3365,2.1834-1.0094,3.0282
				C83.8905,51.4079,83.0028,51.9484,81.9004,52.1847z M78.7863,50.284h0.7946c2.3696,0,3.5543-0.9056,3.5543-2.7168
				c0-1.6966-1.1526-2.5449-3.4577-2.5449h-0.8913V50.284z"/>
			<path d="M93.9057,45.0223v14.2281h-2.502V45.0223h-3.812v-2.3517H97.707v2.3517H93.9057z"/>
			<path d="M99.3606,59.2504l3.4899-17.8254l5.6912,12.8858l5.8952-12.8858l3.1355,17.8254h-2.5664l-1.6-10.008l-4.9073,10.7704
				l-4.7677-10.7811l-1.7825,10.0187H99.3606z"/>
			<path d="M130.2329,45.0223h-6.6469v3.9839h6.4536v2.3517h-6.4536v5.5409h6.6469v2.3517h-9.1489V42.6707h9.1489V45.0223z"/>
			<path d="M133.5187,59.2504V41.5431l12.0912,12.6496V42.6707h2.502v17.5891l-12.0912-12.6173v11.608H133.5187z"/>
			<path d="M156.6595,45.0223v14.2281h-2.502V45.0223h-3.8121v-2.3517h10.1154v2.3517H156.6595z"/>
			<path d="M168.654,50.8853c0-2.3338,0.8555-4.3382,2.5664-6.0134c1.7038-1.6752,3.7512-2.5127,6.1422-2.5127
				c2.3624,0,4.3883,0.8447,6.0778,2.5342c1.6966,1.6895,2.5449,3.719,2.5449,6.0885c0,2.3839-0.8519,4.4062-2.5557,6.0671
				c-1.711,1.668-3.7763,2.502-6.1959,2.502c-2.1405,0-4.0626-0.7409-5.7664-2.2228
				C169.5918,55.6889,168.654,53.5413,168.654,50.8853z M171.1775,50.9176c0,1.8326,0.6156,3.3396,1.847,4.5208
				c1.2242,1.1812,2.638,1.7718,4.2416,1.7718c1.7396,0,3.2071-0.6013,4.4026-1.804c1.1955-1.217,1.7933-2.6989,1.7933-4.4456
				c0-1.7682-0.5906-3.2501-1.7718-4.4456c-1.174-1.2027-2.6273-1.804-4.3597-1.804c-1.7253,0-3.1821,0.6013-4.3704,1.804
				C171.7717,47.7033,171.1775,49.1708,171.1775,50.9176z"/>
			<path d="M197.4108,45.0223h-5.7771v3.9839h5.5731v2.3517h-5.5731v7.8926h-2.502V42.6707h8.2791V45.0223z"/>
		</g>
		<g>
			<path d="M36.0761,86.3966h13.0488v1.0431c0,2.3724-0.2796,4.4727-0.8382,6.2999c-0.5459,1.6904-1.4662,3.272-2.7616,4.7449
				c-2.9317,3.3001-6.6609,4.9498-11.1876,4.9498c-4.4179,0-8.2018-1.5957-11.351-4.7863
				c-3.1499-3.2039-4.7249-7.0493-4.7249-11.5353c0-4.5814,1.6023-8.4674,4.8063-11.6581c3.2039-3.2047,7.104-4.807,11.6995-4.807
				c2.4679,0,4.7723,0.5053,6.9132,1.5136c2.0447,1.0098,4.0562,2.6454,6.0336,4.9091l-3.3955,3.252
				c-2.5907-3.4495-5.7473-5.1747-9.4698-5.1747c-3.3408,0-6.1431,1.1526-8.406,3.4562c-2.2637,2.2637-3.3948,5.1-3.3948,8.5088
				c0,3.5176,1.2606,6.4153,3.7832,8.6923c2.3591,2.1135,4.9158,3.1707,7.6699,3.1707c2.3451,0,4.4519-0.7908,6.3199-2.3732
				c1.8679-1.5949,2.911-3.5036,3.13-5.7266h-7.8749V86.3966z"/>
			<path d="M72.5439,75.7409H59.8834v7.5878h12.292v4.4793h-12.292v10.5536h12.6604v4.4793h-17.426V71.2616h17.426V75.7409z"/>
			<path d="M77.2274,86.9077c0-4.4445,1.629-8.2625,4.8884-11.4531c3.2446-3.1906,7.1447-4.7863,11.6987-4.7863
				c4.5,0,8.3587,1.609,11.5767,4.827c3.2313,3.218,4.847,7.084,4.847,11.5966c0,4.5407-1.6223,8.3927-4.8677,11.556
				c-3.2587,3.1773-7.1928,4.7656-11.8008,4.7656c-4.0776,0-7.7387-1.4115-10.9834-4.2337
				C79.0132,96.0572,77.2274,91.967,77.2274,86.9077z M82.0337,86.9691c0,3.491,1.1725,6.3613,3.5184,8.6109
				c2.331,2.2496,5.0238,3.3748,8.0783,3.3748c3.3134,0,6.109-1.1452,8.386-3.4362c2.277-2.3177,3.4155-5.1407,3.4155-8.4674
				c0-3.3674-1.1245-6.1904-3.3748-8.4674c-2.2363-2.2911-5.0038-3.4362-8.3039-3.4362c-3.2861,0-6.0609,1.1452-8.3239,3.4362
				C83.1655,80.8475,82.0337,83.6424,82.0337,86.9691z"/>
			<path d="M132.4705,86.3966h13.0488v1.0431c0,2.3724-0.2796,4.4727-0.8382,6.2999c-0.5459,1.6904-1.4662,3.272-2.7616,4.7449
				c-2.9317,3.3001-6.6609,4.9498-11.1876,4.9498c-4.4179,0-8.2018-1.5957-11.3511-4.7863
				c-3.1499-3.2039-4.7249-7.0493-4.7249-11.5353c0-4.5814,1.6023-8.4674,4.8063-11.6581c3.2039-3.2047,7.104-4.807,11.6995-4.807
				c2.4679,0,4.7723,0.5053,6.9131,1.5136c2.0447,1.0098,4.0562,2.6454,6.0336,4.9091l-3.3956,3.252
				c-2.5907-3.4495-5.7473-5.1747-9.4698-5.1747c-3.3408,0-6.1431,1.1526-8.406,3.4562c-2.2637,2.2637-3.3948,5.1-3.3948,8.5088
				c0,3.5176,1.2606,6.4153,3.7832,8.6923c2.3591,2.1135,4.9158,3.1707,7.6699,3.1707c2.3451,0,4.452-0.7908,6.3199-2.3732
				c1.8679-1.5949,2.911-3.5036,3.13-5.7266h-7.8749V86.3966z"/>
			<path d="M162.2093,89.383l9.7761,13.4579h-5.8287l-9.02-12.926h-0.8589v12.926h-4.7656V71.2616h5.5838
				c4.1723,0,7.1854,0.7842,9.04,2.3517c2.0455,1.7459,3.0678,4.0502,3.0678,6.9132c0,2.2363-0.6406,4.159-1.9227,5.768
				C165.9999,87.9035,164.3088,88.9332,162.2093,89.383z M156.2778,85.7626h1.5136c4.5126,0,6.7696-1.7244,6.7696-5.1747
				c0-3.2313-2.1956-4.847-6.5854-4.847h-1.6978V85.7626z"/>
			<path d="M195.2815,95.171h-13.5193l-3.5176,7.6699h-5.134l15.6262-33.5634l15.0736,33.5634h-5.2154L195.2815,95.171z
				 M193.3389,90.6917l-4.6842-10.7378l-4.9084,10.7378H193.3389z"/>
			<path d="M212.5241,90.017v12.8239h-4.7656V71.2616h5.3996c2.6447,0,4.6428,0.1842,5.9929,0.5519
				c1.3634,0.3684,2.5633,1.0638,3.5997,2.0862c1.8132,1.7732,2.7201,4.0088,2.7201,6.709c0,2.891-0.9684,5.1814-2.9043,6.8725
				c-1.9367,1.6904-4.5474,2.5359-7.8334,2.5359H212.5241z M212.5241,85.5991h1.7792c4.3772,0,6.5655-1.6837,6.5655-5.0519
				c0-3.2587-2.257-4.8884-6.7696-4.8884h-1.575V85.5991z"/>
			<path d="M235.1448,83.615h13.6214V71.2616h4.7656v31.5793h-4.7656V88.0943h-13.6214v14.7466h-4.7656V71.2616h4.7656V83.615z"/>
			<path d="M267.481,89.1988l-10.3087-17.9372h5.4817l7.2202,12.6198l7.2416-12.6198h5.4802l-10.3494,17.9372v13.6421h-4.7656
				V89.1988z"/>
		</g>
	</g>
	<g>
		<path d="M22.5095,162.3667h9.8642v2.2199h-7.3414v5.146h6.6853v2.2205h-6.6853v5.8021h7.3414v2.2205h-9.8642V162.3667z"/>
		<path d="M44.4052,165.0156c-1.2865-0.5049-1.9928-0.7314-3.305-0.7314c-1.4126,0-3.0773,0.5043-3.0773,2.3459
			c0,3.3803,7.5679,2.5981,7.5679,8.4002c0,3.7591-2.9011,5.2476-6.4331,5.2476c-1.2363,0-2.4469-0.3531-3.6074-0.7314
			l0.2522-2.3459c0.8581,0.3526,2.3716,0.8575,3.6581,0.8575c1.4377,0,3.4562-0.8073,3.4562-2.876
			c0-3.9354-7.5684-2.8509-7.5684-8.3249c0-3.1287,2.4726-4.7935,5.6515-4.7935c1.1604,0,2.5473,0.202,3.7585,0.6304
			L44.4052,165.0156z"/>
		<path d="M52.527,164.5865h-5.4747v-2.2199h13.4715v2.2199h-5.4741v15.3891H52.527V164.5865z"/>
		<path d="M67.2342,162.3667h2.6489l7.4424,17.6089H74.575l-1.7908-4.4403h-8.6279l-1.7914,4.4403H59.716L67.2342,162.3667z
			 M68.4705,164.7383l-3.507,8.7283h7.0133L68.4705,164.7383z"/>
		<path d="M79.7187,162.3667h4.7678c3.6581,0,6.181,1.1855,6.181,4.4403c0,2.4212-1.4126,3.6324-3.6325,4.1876v0.0502
			c2.3967,0.202,4.0866,1.7663,4.0866,4.2383c0,3.7842-3.1281,4.6925-6.7104,4.6925h-4.6925V162.3667z M82.2415,169.8843h1.3875
			c2.4475,0,4.5156-0.2271,4.5156-2.8252c0-2.0944-1.7914-2.6238-3.2542-2.6238h-2.6489V169.8843z M82.2415,177.9069h1.8924
			c2.2701,0,4.3136-0.4798,4.3136-2.8508c0-2.7248-2.3967-3.103-4.5658-3.103h-1.6402V177.9069z"/>
		<path d="M95.2572,162.3667h2.5222v15.3885h7.3665v2.2205h-9.8887V162.3667z"/>
		<path d="M107.894,162.3667h2.5228v17.6089h-2.5228V162.3667z"/>
		<path d="M122.9031,165.0156c-1.2865-0.5049-1.9928-0.7314-3.305-0.7314c-1.4126,0-3.0773,0.5043-3.0773,2.3459
			c0,3.3803,7.5684,2.5981,7.5684,8.4002c0,3.7591-2.9011,5.2476-6.4331,5.2476c-1.2363,0-2.4475-0.3531-3.6079-0.7314
			l0.2522-2.3459c0.8581,0.3526,2.3722,0.8575,3.6587,0.8575c1.4377,0,3.4556-0.8073,3.4556-2.876
			c0-3.9354-7.5679-2.8509-7.5679-8.3249c0-3.1287,2.472-4.7935,5.6509-4.7935c1.1604,0,2.5479,0.202,3.7591,0.6304
			L122.9031,165.0156z"/>
		<path d="M127.644,162.3667h2.5228v7.3659h8.4265v-7.3659h2.5228v17.6089h-2.5228v-8.0226h-8.4265v8.0226h-2.5228V162.3667z"/>
		<path d="M145.8559,162.3667h9.8636v2.2199h-7.3408v5.146h6.6847v2.2205h-6.6847v5.8021h7.3408v2.2205h-9.8636V162.3667z"/>
		<path d="M159.6023,162.3667h5.1974c5.2219,0,9.3844,3.2291,9.3844,8.653c0,5.9031-3.5822,8.9559-9.3844,8.9559h-5.1974V162.3667z
			 M162.1252,177.7551h2.6489c4.3393,0,6.7361-2.0938,6.7361-6.6345c0-4.1123-2.8007-6.5341-6.4331-6.5341h-2.9518V177.7551z"/>
		<path d="M189.5189,165.2677l-2.6997,2.3208l-1.3373-1.6898l4.3136-3.5321h2.2456v17.6089h-2.5222V165.2677z"/>
		<path d="M197.1608,177.4779c0.9083,0.4792,1.9928,0.7314,3.1281,0.7314c3.2799,0,4.8688-3.0271,4.919-6.408l-0.0502,0.0257
			c-1.1855,1.1604-2.3967,1.6145-3.8595,1.6145c-3.4054,0-5.2978-2.3967-5.2978-5.55c0-3.633,2.4469-5.8278,5.6509-5.8278
			c4.919,0,5.9288,4.4397,5.9288,8.451c0,4.7684-1.5643,9.7632-7.14,9.7632c-1.2106,0-3.0015-0.2778-3.6325-0.5545
			L197.1608,177.4779z M201.6263,171.3728c2.0938,0,3.2793-1.5644,3.2793-3.5315c0-1.6653-1.0343-3.7089-3.103-3.7089
			c-2.1189,0-3.1281,1.8165-3.1281,3.7089C198.6744,169.4804,199.6335,171.3728,201.6263,171.3728z"/>
		<path d="M217.8197,175.9643h-8.1989v-2.0687l7.1143-11.5289h3.6073v11.5289h2.2205v2.0687h-2.2205v4.0113h-2.5228V175.9643z
			 M217.8197,164.4354h-0.0502l-5.4998,9.4603h5.55V164.4354z"/>
		<path d="M231.8451,175.9643h-8.1994v-2.0687l7.1143-11.5289h3.6073v11.5289h2.2199v2.0687h-2.2199v4.0113h-2.5222V175.9643z
			 M231.8451,164.4354h-0.0508l-5.4998,9.4603h5.5505V164.4354z"/>
	</g>
</g>
</svg>
