<?xml version="1.0" encoding="utf-8"?>
<!-- Generator: Adobe Illustrator 23.0.6, SVG Export Plug-In . SVG Version: 6.00 Build 0)  -->
<svg version="1.1" id="Layer_1" xmlns="http://www.w3.org/2000/svg" xmlns:xlink="http://www.w3.org/1999/xlink" x="0px" y="0px"
	 width="1920px" height="1080px" viewBox="0 0 1920 1080" enable-background="new 0 0 1920 1080" xml:space="preserve">
<g>
	<g>
		<g>
			
				<path fill="none" stroke="#FFD700" stroke-width="4" stroke-linecap="round" stroke-linejoin="round" stroke-dasharray="36.6792,13.7547,1.1462,6.8773,1.1462,13.7547" d="
				M108.62,875.97c6.43,19.4-25.32,18.82-22.5,0.24C87.97,863.93,105.31,865.64,108.62,875.97z"/>
		</g>
		<g>
			<g>
				<path fill="none" stroke="#FFD700" stroke-width="4" stroke-linecap="round" stroke-linejoin="round" d="M1124.01,255.49
					c3.21,1.09,6.81,2.45,8.16,1.43c3.64-2.75-0.87-4.24,0.53-6.7c-1.67,2.94,1.79-13.08,1.52-11.12c0.71-5.16,8.02-4.64,3.27-11.43
					c-0.51-0.73-1.18-1.21-1.96-1.51"/>
				
					<path fill="none" stroke="#FFD700" stroke-width="4" stroke-linecap="round" stroke-linejoin="round" stroke-dasharray="1.1271,6.7624,1.1271,13.5248" d="
					M1122.48,224.7c-5.82-5.9-0.93-8.72,2.95-12.94"/>
				
					<path fill="none" stroke="#FFD700" stroke-width="4" stroke-linecap="round" stroke-linejoin="round" stroke-dasharray="36.066,13.5248,1.1271,6.7624,1.1271,13.5248" d="
					M1128.8,205.99c0.12-0.56,0.2-1.14,0.22-1.75c0.33-10.69-16.49-15.49-13.62-25.49c1.57-5.46,17.69-11.9,22.15-14.86
					c6.27-4.16,3.53-10.09,12.45-7.52c3.84,1.11,9.98,9.94,13.15,12.16c14.9,10.44,30.63-4.96,42-5.56"/>
				<path fill="none" stroke="#FFD700" stroke-width="4" stroke-linecap="round" stroke-linejoin="round" d="M1211.52,164.78
					c0.66,0.5,1.29,1.12,1.9,1.86c1.54,1.9,1.56,10.33,2.75,12.98c-0.08-0.07-0.98-0.58-1.05-0.76c4.74,2.77,10.23,2.76,15.37,4.17"
					/>
				
					<path fill="none" stroke="#FFD700" stroke-width="4" stroke-linecap="round" stroke-linejoin="round" stroke-dasharray="0.999,5.9939,0.999,11.9879" d="
					M1240.34,189.45c2.76,3.61,4.32,8.13,5.94,12.6"/>
				
					<path fill="none" stroke="#FFD700" stroke-width="4" stroke-linecap="round" stroke-linejoin="round" stroke-dasharray="31.9677,11.9879,0.999,5.9939,0.999,11.9879" d="
					M1248.46,207.64c0.46,1.03,0.95,2.04,1.5,3c2.16,3.81,6.43,7.28,7.95,11.4c7.92,21.41-0.84,23.22,25.13,29.84
					c12.7,3.24,19.2-1.04,31.86-1.35c4.79-0.12,16.36,2.99,20.34,5.52c5.52,3.5,5.32,6.85,9.59,10.37c1.68,1.38,8.92,4.74,9.73,5.79
					c2.24,2.88,4.08,11,6.43,13.04c1.77,1.54,22.99,8.19,25.11,7.17c5.13-2.49,2.81-10.79,6.78-14.74c2.11-2.1,6.97-2.52,9.94-3.58
					c13.41-4.82,14.88-0.11,26.65,4.17c8.24,3,18.43,0.53,26.36,7.34c8.01,6.88,2.08,10.33,12.77,9.52
					c1.52-0.12,1.85-4.19,3.24-4.46c4.82-0.97,8.68,1.68,13.27,1.06c10.22-1.38,9.27-2.79,16.07-8.99
					c3.11-2.83,8.82-8.61,12.33-12.1c6.26-6.23,8.25-9.18,13.85-12.16c2.2-1.17,10.56-4.46,14.38-5.58
					c8.41-2.47,9.86-4.5,13.85,3.52c3.41,6.86,1.54,21.96,4.5,30.02c3.2,8.7,5.42,14.09,14.96,17.03
					c6.75,2.08,12.26-1.08,18.65,2.82c3.92,2.39,4.34,6.16,7.6,9.16c6.57,6.07,12.56,9.38,16.19,17.09
					c3.94,8.38,4.11,23.93,5.44,31.89c2.39,14.33-0.55,20.8-3.33,31.37c-0.42,1.6,0.69,9.98-0.64,14.33
					c-1.86,6.05-6.83-1.67-4.31,9.23c1.18,5.1,14.58,16.52,17.83,20.59c1.95,2.44,7.59,7.78,12.22,13.42"/>
				<path fill="none" stroke="#FFD700" stroke-width="4" stroke-linecap="round" stroke-linejoin="round" d="M1648.29,458.14
					c3.81,5.78,5.15,11.11-1.09,13.17c0.1-0.33,3.75,6.34-0.16,4.4c-0.29-0.14,6.61,7.2,6.05,7.63c3.83-2.95,5.45-3,11.01,4.09
					c3.2,4.08,0.95,7.97,0.22,6.26c4.49,10.51,5.22,9.27,9.24,12.66"/>
				
					<path fill="none" stroke="#FFD700" stroke-width="4" stroke-linecap="round" stroke-linejoin="round" stroke-dasharray="0.9098,5.4586,0.9098,10.9173" d="
					M1681.82,513.49c3.48,2.87,6.55,5.64,8,9.2c0.05,0.13,0.11,0.27,0.15,0.4"/>
				
					<path fill="none" stroke="#FFD700" stroke-width="4" stroke-linecap="round" stroke-linejoin="round" stroke-dasharray="29.1127,10.9173,0.9098,5.4586,0.9098,10.9173" d="
					M1690.87,528.45c0.14,5.5-1.22,11.32,2.5,16.06c4.49,5.72,15.83,6.28,22,9.71c5.02,2.79,7.01,3.01,10.15,5.96"/>
				<path fill="none" stroke="#FFD700" stroke-width="4" stroke-linecap="round" stroke-linejoin="round" d="M1729.19,564.21
					c0.7,0.86,1.48,1.84,2.33,2.96c5.1,6.67-5.32-0.09,5.42,9.04c-0.58-0.49,14.59,6.15,15.63,6.42c-1.18-10.39,1.52-2.72,8.71-2.7
					c-0.25,0,1.59-2.06,1.58-2.06c-0.02,0.06,0,0.08,0.06,0.06c-2.26,0.65,5.07,1.52,3.8-0.23c-0.23-0.32,2.85-2.1,3.04-0.35
					c0.16,1.43-1.04,3.4-2.92,5.6"/>
				
					<path fill="none" stroke="#FFD700" stroke-width="4" stroke-linecap="round" stroke-linejoin="round" stroke-dasharray="0.9372,5.6232,0.9372,11.2465" d="
					M1758.74,590.74c-3.8,3.29-7.52,6.25-9.14,7.87c-0.25,0.25-0.5,0.49-0.75,0.74"/>
				
					<path fill="none" stroke="#FFD700" stroke-width="4" stroke-linecap="round" stroke-linejoin="round" stroke-dasharray="29.9906,11.2465,0.9372,5.6232,0.9372,11.2465" d="
					M1744.87,603.32c-12.29,12.35-25.84,26.5-38.23,38.64"/>
				<path fill="none" stroke="#FFD700" stroke-width="4" stroke-linecap="round" stroke-linejoin="round" d="M1702.6,645.89
					c-3.02,2.91-5.96,5.67-8.76,8.22c-1.12,1.02-2.76,0.74-3.8,0.76c-0.53,4.36-2.99,3.95-7.48,6.17c-1.58,0.78-3.39,1.38-5.26,1.93
					"/>
				
					<path fill="none" stroke="#FFD700" stroke-width="4" stroke-linecap="round" stroke-linejoin="round" stroke-dasharray="0.9601,5.7607,0.9601,11.5214" d="
					M1666.42,666.74c-1.6,0.75-3.25,1.57-4.71,2.35c-3.24,1.72-4.15,2.84-6.84,4.48"/>
				
					<path fill="none" stroke="#FFD700" stroke-width="4" stroke-linecap="round" stroke-linejoin="round" stroke-dasharray="30.7237,11.5214,0.9601,5.7607,0.9601,11.5214" d="
					M1649.85,676.38c-0.98,0.57-1.96,1.2-3.36,2.17c-1.79,1.24-7.65,5.11-10.58,7.2c-4.02,2.86-9.29,6.22-12.63,8.43
					c-2.94,1.95-8.63,4.12-11.28,7.11c-4.19,4.7-3,6.06-2.41,9.38"/>
				<path fill="none" stroke="#FFD700" stroke-width="4" stroke-linecap="round" stroke-linejoin="round" d="M1609.57,716.4
					c-0.79,4.54-3.06,6.2-5.05,9.37c-0.82,1.3-0.44,3.63-1.23,5.05c-2.93,0.54-11.02,3.55-14.12,5.43c-0.16,0.1-0.4,0.25-0.7,0.46"
					/>
				
					<path fill="none" stroke="#FFD700" stroke-width="4" stroke-linecap="round" stroke-linejoin="round" stroke-dasharray="0.1253,0.7517,0.1253,1.5035" d="
					M1587.25,737.57c-0.44,0.31-0.91,0.67-1.41,1.04"/>
				<path fill="none" stroke="#FFD700" stroke-width="4" stroke-linecap="round" stroke-linejoin="round" d="M1585.24,739.08
					c-2.12,1.66-4.4,3.67-5.09,5.08c-1.37,2.79-4.62,3.38,0.53,6.87c0.33,6.72-0.99,11.31-3.91,15.16"/>
				
					<path fill="none" stroke="#FFD700" stroke-width="4" stroke-linecap="round" stroke-linejoin="round" stroke-dasharray="0.9802,5.8815,0.9802,11.763" d="
					M1567.92,773.85c-3.44,1.98-8.23,3.84-12.69,5.17"/>
				<path fill="none" stroke="#FFD700" stroke-width="4" stroke-linecap="round" stroke-linejoin="round" d="M1549.53,780.46
					c-0.05,0.01-0.1,0.02-0.15,0.03c-4.44,0.86-9.94-0.33-15.81,0.38c-1.94,2.52-6.03,8.23-9.04,13.2"/>
				
					<path fill="none" stroke="#FFD700" stroke-width="4" stroke-linecap="round" stroke-linejoin="round" stroke-dasharray="1.0091,6.0543,1.0091,12.1087" d="
					M1520.73,805.29c0.63,3.18,2.95,3.63-3.65,7.41c-1.07,0.61-2.45,1.15-4.02,1.64"/>
				
					<path fill="none" stroke="#FFD700" stroke-width="4" stroke-linecap="round" stroke-linejoin="round" stroke-dasharray="32.2898,12.1087,1.0091,6.0543,1.0091,12.1087" d="
					M1507.19,815.88c-4,0.92-8.24,1.77-11.39,2.81c-9.54,3.14-20.09,6.63-28.58,10.87c-9.43,4.7-16.91,4.38-27.88,6.58
					c-6.08,1.22-10.73,5.13-16.19,8.22c-4.65,2.63-12.25,4.84-16.31,8.05c-2.51,1.99-5.4,7.71-7.8,8.84
					c-10.6,4.98-35.49,0.96-47.64,0.91c-18.52-0.08-37.01,0.05-55.53,0.41c-34.57,0.67-69.23,1.31-103.8,0.69
					c-50.99-0.91-103.31-6.87-154.06-3.75c-48.78,3.01-96.94,3.2-145.87,1.16c-118.13-4.9-222.83-4.05-344.39-2.37
					c-18.61,0.26-37.27,0.18-55.91,0.58"/>
				<path fill="none" stroke="#FFD700" stroke-width="4" stroke-linecap="round" stroke-linejoin="round" d="M485.78,859.04
					c-5.33,0.15-10.66,0.34-15.99,0.59c0.94-2.61-0.04-5.9,0.88-8.52c-5.31-0.42-10.61-1.05-15.91-1.7"/>
				
					<path fill="none" stroke="#FFD700" stroke-width="4" stroke-linecap="round" stroke-linejoin="round" stroke-dasharray="0.5453,3.2718,0.5453,6.5436" d="
					M448.27,848.61c-2.53-0.31-5.05-0.61-7.58-0.87"/>
				<path fill="none" stroke="#FFD700" stroke-width="4" stroke-linecap="round" stroke-linejoin="round" d="M437.43,847.41
					c-5.31-0.5-10.63-0.83-15.97-0.81c0.87,4.79,2.67,10.03,4.37,15.39"/>
				
					<path fill="none" stroke="#FFD700" stroke-width="4" stroke-linecap="round" stroke-linejoin="round" stroke-dasharray="0.9201,5.5206,0.9201,11.0412" d="
					M428.74,872.63c0.82,4,1.21,7.94,0.72,11.68c-0.05,0.39-0.11,0.76-0.17,1.12"/>
				
					<path fill="none" stroke="#FFD700" stroke-width="4" stroke-linecap="round" stroke-linejoin="round" stroke-dasharray="29.4431,11.0412,0.9201,5.5206,0.9201,11.0412" d="
					M427.7,890.69c-5.41,11.17-20.55,5.6-34.98,5.21c-50.14-1.36-100.28-2.39-150.43-3.17c-33.55-0.52-67.27-0.72-100.77-1.33"/>
				<path fill="none" stroke="#FFD700" stroke-width="4" stroke-linecap="round" stroke-linejoin="round" d="M136.01,891.3
					c-5.34-0.11-10.67-0.22-16-0.36c1.04-2.71,2.39-9.09,3.98-15.49"/>
				
					<path fill="none" stroke="#FFD700" stroke-width="4" stroke-linecap="round" stroke-linejoin="round" stroke-dasharray="0.7943,4.7656,0.7943,9.5312" d="
					M126.58,866.28c1.07-3.24,2.22-5.85,3.44-7.11c0.82-0.85,1.59-1.56,2.32-2.16"/>
				
					<path fill="none" stroke="#FFD700" stroke-width="4" stroke-linecap="round" stroke-linejoin="round" stroke-dasharray="25.4166,9.5312,0.7943,4.7656,0.7943,9.5312" d="
					M136.46,854.67c10.6-2.89,11.56,24.33,26.23,17.83c2.72-1.21,4.76-4.45,6.6-8.36"/>
				<path fill="none" stroke="#FFD700" stroke-width="4" stroke-linecap="round" stroke-linejoin="round" d="M171.2,859.77
					c2.22-5.31,4.41-10.89,7.56-14c-0.49-1.06-2.26-1.09-2.81-1.76c0.98-6.27-5.64-8.8-6.19-14.3"/>
				
					<path fill="none" stroke="#FFD700" stroke-width="4" stroke-linecap="round" stroke-linejoin="round" stroke-dasharray="0.8578,5.1469,0.8578,10.2938" d="
					M174.2,821.26c2.7-0.49,5.92,1.49,8.31-0.27c0.73-0.54,2.11-0.51,3.42-0.66"/>
				
					<path fill="none" stroke="#FFD700" stroke-width="4" stroke-linecap="round" stroke-linejoin="round" stroke-dasharray="27.45,10.2938,0.8578,5.1469,0.8578,10.2938" d="
					M188.98,817.08c-0.08-0.83-0.34-1.88-0.86-3.2c-1.77-4.52-9.61-0.6-12.28-6.81c-4.09-9.55,9.7-14.46,13.21-21.73
					c1.24-2.57,5.41-14.75,4.68-18.5c-2.16-11.03-12.92-8.21-16.78-18.85c-1.98-5.46-1.09-9.83,1.15-13.61"/>
				<path fill="none" stroke="#FFD700" stroke-width="4" stroke-linecap="round" stroke-linejoin="round" d="M181.18,730.25
					c3.57-3.99,8.19-7.44,11.44-11.18c0.06,0.35-1.34,1.36-1.4,2c3.12-4.83,4.96-9.43,7.93-13.89"/>
				
					<path fill="none" stroke="#FFD700" stroke-width="4" stroke-linecap="round" stroke-linejoin="round" stroke-dasharray="0.5207,3.124,0.5207,6.2479" d="
					M203.01,702.28c1.42-1.5,3.41-3.26,5.41-4.89"/>
				<path fill="none" stroke="#FFD700" stroke-width="4" stroke-linecap="round" stroke-linejoin="round" d="M210.88,695.47
					c1.95-1.46,3.69-2.62,4.65-3.07c2.33-0.72,4.25-2.14,7.07-2.35c0.03,0-2.39,1.43-2.51,1.53c1.76-1.09,2.96-1.16,4.85-1.64
					c-0.05-0.04-0.04,0.14,0.06,0.12c-0.13-0.08-1.47,0.18-1.52,0.29c2.67,0.49,6.14,0.56,8.88,1.12c-0.01-0.01-2.11-1.05-2.1-1.06
					c5.47,1.33,10.38,3.23,15.02,5.45"/>
				
					<path fill="none" stroke="#FFD700" stroke-width="4" stroke-linecap="round" stroke-linejoin="round" stroke-dasharray="0.9084,5.4501,0.9084,10.9003" d="
					M254.88,701c3.64,2.11,7.23,4.32,10.93,6.49"/>
				
					<path fill="none" stroke="#FFD700" stroke-width="4" stroke-linecap="round" stroke-linejoin="round" stroke-dasharray="29.0674,10.9003,0.9084,5.4501,0.9084,10.9003" d="
					M270.56,710.18c8.93,4.75,15.43,6.15,25.22,11.07c7.24,3.64,13.09,6.28,17.18,13.45c8.96,3.28,25.92,6.01,27.82-9.05
					c3.11-10.8,1.71-17.32-2.93-25.71"/>
				<path fill="none" stroke="#FFD700" stroke-width="4" stroke-linecap="round" stroke-linejoin="round" d="M335.08,695.25
					c-0.91-1.45-1.89-2.98-2.94-4.61c-1.91-2.96-4.01-6.02-6.55-8.22c-0.04,0.76,1.61,0.29,1.87-0.23
					c-2.03-2.46-1.54-8.88-0.02-15.64"/>
				
					<path fill="none" stroke="#FFD700" stroke-width="4" stroke-linecap="round" stroke-linejoin="round" stroke-dasharray="0.9293,5.5761,0.9293,11.1521" d="
					M330.57,655.85c1.22-3.39,2.52-6.27,3.62-8.02c0.85-1.36,1.66-2.49,2.43-3.42"/>
				
					<path fill="none" stroke="#FFD700" stroke-width="4" stroke-linecap="round" stroke-linejoin="round" stroke-dasharray="29.739,11.1521,0.9293,5.5761,0.9293,11.1521" d="
					M340.85,640.85c4.26-1.94,8,1.15,14.2,0.52c2.53-0.26,2.3,2.21,6.78,1.17c2.15-0.5,5.64-6.67,8.12-8.16
					c11.94-7.17,56.96-2.19,55.82-18.68c-0.57-8.3-14.53-19-17.65-27.78c-5.76-16.23,0.76-21.73,11.34-32.19
					c4.19-4.15,9.31-14.4,12.51-17.03c8.84-7.29,6.19,1.01,14.91,1.06c7.87,0.04,14.71-4.52,13.44-16.8
					c-0.5-4.85-7.27-5.44-6.55-11.98c0.54-4.85,7.96-11.71,12.51-11.04c6.87,1,6.96,12.5,14.03,14.21c2.47,0.6,6.25-0.03,10.18-1.03
					"/>
				<path fill="none" stroke="#FFD700" stroke-width="4" stroke-linecap="round" stroke-linejoin="round" d="M495.87,511.59
					c2.94-0.89,5.65-1.75,7.6-2.21c2.1-0.49,6.16-1.89,7.66-2.58c5.69,4.54,0.35,9.73-0.57,14.59"/>
				
					<path fill="none" stroke="#FFD700" stroke-width="4" stroke-linecap="round" stroke-linejoin="round" stroke-dasharray="1.1094,6.6564,1.1094,13.3129" d="
					M518.92,529.61c4.88-0.11,8.63-5.15,10.43-10.3"/>
				<path fill="none" stroke="#FFD700" stroke-width="4" stroke-linecap="round" stroke-linejoin="round" d="M530.5,512.79
					c-0.01-0.52-0.06-1.01-0.15-1.47c-0.87-4.67-7.26-5.48-7.89-11.75c0.71-0.22,2.18-2.88,1.23-1.94
					c6.24-11.01,8.19-10.18,10.19-6.08"/>
				
					<path fill="none" stroke="#FFD700" stroke-width="4" stroke-linecap="round" stroke-linejoin="round" stroke-dasharray="1.0151,6.0905,1.0151,12.181" d="
					M539.76,502.15c2.28,2.37,5.47,3.93,10.23,3.36c1.05-0.13,2-0.43,2.88-0.86"/>
				
					<path fill="none" stroke="#FFD700" stroke-width="4" stroke-linecap="round" stroke-linejoin="round" stroke-dasharray="32.4827,12.181,1.0151,6.0905,1.0151,12.181" d="
					M557.74,501.02c3.16-2.88,6.39-5.96,12-5.44c6.27,0.58,8.3,5.06,12.74,7.58c10.4,5.89,20.56,14.02,31.51,19.97
					c2.94,1.6,8.26-0.12,10.52,1.73c2.94,2.4,3.28,8.35,5.79,10.25c5.07,3.85,6.23,9.4,14.73,0c12.91-14.29-2.42-29.56,22.39-36.24
					c14.78,2.8,20.22-21.17,33.26-18.15c9.5,2.2,7.26,19.65,14.91,25.02c9.97,7,4.55-3.12,13.5-1.41
					c12.28,2.34,3.57,1.34,6.93,10.01c1.92,4.97-5.85,10.9,4.41,9.25c13.33-2.15,3.07-15.01,9.24-20.91
					c4.1-3.92,10.59,3.17,15.05-0.59c5.58-4.71,0.29-10.05-0.61-17.21c-2.13-16.95,1.47-10.98,10.35-17.56
					c3.87-2.88,8.96-0.93,10.11-7.87c0.59-3.54-4.48-4.66-4.44-5.17c0.55-7.1-5.97-4.57,4.09-9.46c1.17-0.57,5.95,5.86,7.37,5.82
					c1.85-0.06,0.93-5.21,2.57-5.46c29.25-4.45-0.34-6.3,1.75-16.92c1.8-9.12,19.31,5.91,21.07,9.25
					c4.22,8.02-1.66,14.95,2.08,23.41c4.61,10.44,14.33,11.7,23.49,12.73"/>
				<path fill="none" stroke="#FFD700" stroke-width="4" stroke-linecap="round" stroke-linejoin="round" d="M848.57,474.42
					c0.97,0.15,1.91,0.33,2.83,0.54c4.55,1.06,8.34,2.03,11.54,5.7c0-0.08-0.71-0.5-0.76-0.59c3.51,13.6,5.67,9.67,7.64,5.52"/>
				
					<path fill="none" stroke="#FFD700" stroke-width="4" stroke-linecap="round" stroke-linejoin="round" stroke-dasharray="1.024,6.1441,1.024,12.2883" d="
					M879.41,479.22c4.47-0.93,9.03-1.3,13.05-3.08c0.21-0.22,0.42-0.44,0.61-0.66"/>
				
					<path fill="none" stroke="#FFD700" stroke-width="4" stroke-linecap="round" stroke-linejoin="round" stroke-dasharray="32.7688,12.2883,1.024,6.1441,1.024,12.2883" d="
					M896.43,470.35c5.47-11.98-1.38-27.29,3.22-39.91c2.65-7.27,9.23-9.82,12.74-15.92c2.48-4.31-0.1-10.2,4.27-13.72
					c7.13-5.74,11.09,1.46,13.09,1.38c10.92-0.43,20.01-5.22,25.13-18.27c6.59-16.78,0.56-23.73,18.62-32.1
					c10.52-4.88,29.83-16.32,30.89-29.63c0.98-12.24-16.88-37.96-5.55-46.93c5.3-4.2,15.49-2.15,22.09-2.56
					c10.4-0.63,12.37-1.81,21.86,4.49c10.04,6.67,9.32,10.89,22.91,3.05c17.95-10.34,30.94-22.9,52.31-25.7"/>
			</g>
		</g>
	</g>
</g>
</svg>
