<svg id="Layer_1" data-name="Layer 1" xmlns="http://www.w3.org/2000/svg" viewBox="0 0 1451.35 378.54"><defs><style>.cls-1{fill:#fff;}</style></defs><title>title</title><path class="cls-1" d="M395.44,479.27H336.26l-38.35-74.18-15.53,9.29v64.89H229.7v-194h52.68v84.26q4-7.83,16.06-24.81l40.74-59.45h57.33l-61.18,86.92Z" transform="translate(-229.7 -282.47)"/><path class="cls-1" d="M531.6,479.27H416.41v-194H531.6v42.06H468.83v30.52H527v42.07H468.83v36.63H531.6Z" transform="translate(-229.7 -282.47)"/><path class="cls-1" d="M750.29,479.27H681.55L610.69,342.58h-1.2Q612,374.83,612,391.82v87.45H565.57v-194H634l70.6,134.82h.79q-1.86-29.32-1.85-47.11V285.26h46.71Z" transform="translate(-229.7 -282.47)"/><path class="cls-1" d="M877.81,479.27H825.39V328.12H778V285.26h147v42.86H877.81Z" transform="translate(-229.7 -282.47)"/><path class="cls-1" d="M1117.74,285.26V402q0,38.1-21.57,59T1034,481.92q-39.68,0-61-20.3t-21.29-58.39v-118h52.68V399.11q0,20.58,7.7,29.86t22.69,9.29q16,0,23.29-9.22t7.23-30.19V285.26Z" transform="translate(-229.7 -282.47)"/><path class="cls-1" d="M1244.86,325.47q-18.7,0-29.19,15.32t-10.48,42.27q0,56,42.59,56a87.22,87.22,0,0,0,25-3.59,247.8,247.8,0,0,0,24.28-8.62v44.32q-24.29,10.75-54.93,10.75-43.93,0-67.35-25.48t-23.42-73.65q0-30.12,11.34-53a81.22,81.22,0,0,1,32.65-35.09q21.3-12.28,50.09-12.28a138.05,138.05,0,0,1,60.12,13.67l-16.06,41.27a180.81,180.81,0,0,0-21.5-8.49A75.1,75.1,0,0,0,1244.86,325.47Z" transform="translate(-229.7 -282.47)"/><path class="cls-1" d="M1500.58,479.27h-59.19L1403,405.09l-15.52,9.29v64.89h-52.69v-194h52.69v84.26q4-7.83,16-24.81l40.74-59.45h57.33l-61.18,86.92Z" transform="translate(-229.7 -282.47)"/><path class="cls-1" d="M1590.81,357.18l33.44-71.92h56.8l-63.83,118.23v75.78h-52.81V405.09l-63.83-119.83h57.06Z" transform="translate(-229.7 -282.47)"/><path class="cls-1" d="M292.35,578.42q0,13.59-8,21t-22.77,7.4h-6.15v26.9H233.5V552.63h28.06q15.38,0,23.08,6.71T292.35,578.42ZM255.41,589h4a10.91,10.91,0,0,0,7.85-2.77,10.08,10.08,0,0,0,2.91-7.66q0-8.21-9.09-8.21h-5.66Z" transform="translate(-229.7 -282.47)"/><path class="cls-1" d="M364,602.16q0,15.42-8.29,24.05t-23.21,8.62q-14.31,0-22.77-8.82t-8.46-23.85q0-15.36,8.29-23.88t23.27-8.51a33.12,33.12,0,0,1,16.36,3.94,26.8,26.8,0,0,1,11,11.28A36.47,36.47,0,0,1,364,602.16Zm-40.71,0q0,8.1,2.16,12.34a7.53,7.53,0,0,0,7.27,4.25,7.32,7.32,0,0,0,7.13-4.25q2.07-4.25,2.08-12.34T339.83,590q-2.11-4.1-7.21-4.1a7.48,7.48,0,0,0-7.16,4.08Q323.3,594.06,323.3,602.16Z" transform="translate(-229.7 -282.47)"/><path class="cls-1" d="M414.1,634.83a22,22,0,0,1-8.54-1.58,21.56,21.56,0,0,1-7.49-5.69h-1a78.74,78.74,0,0,1,1,8.21V661H376.38V570.88H394l3.05,8h1q6-9.09,16.69-9.09a18.8,18.8,0,0,1,16.37,8.65q5.92,8.66,5.93,23.74t-6.18,23.93A19.51,19.51,0,0,1,414.1,634.83Zm-7.27-48c-3.18,0-5.41,1.13-6.68,3.41s-2,5.65-2.08,10.12v1.72q0,8.1,2.16,11.7a7.37,7.37,0,0,0,6.82,3.61,6.35,6.35,0,0,0,6.05-3.58q1.89-3.57,1.89-11.84,0-8.1-1.89-11.62A6.55,6.55,0,0,0,406.83,586.8Z" transform="translate(-229.7 -282.47)"/><path class="cls-1" d="M494.19,633.72l-2.72-7.82H490.2a17.73,17.73,0,0,1-7.57,6.63,26.45,26.45,0,0,1-11.4,2.3q-10.38,0-16.14-6t-5.77-17V570.88H471v34.33c0,4.11.58,7.21,1.74,9.32a6.06,6.06,0,0,0,5.75,3.16q5.6,0,8-4.41t2.39-14.89V570.88h21.68v62.84Z" transform="translate(-229.7 -282.47)"/><path class="cls-1" d="M547.22,633.72H525.53v-86.3h21.69Z" transform="translate(-229.7 -282.47)"/><path class="cls-1" d="M603.24,633.72l-4.16-8.32h-.44q-4.39,5.45-8.93,7.43a29.57,29.57,0,0,1-11.76,2q-8.88,0-14-5.33t-5.1-15q0-10,7-14.95t20.25-5.52l10.48-.33v-.89q0-7.76-7.65-7.76-6.88,0-17.47,4.66l-6.27-14.32q11-5.65,27.73-5.65,12.09,0,18.72,6t6.63,16.75v41.21Zm-16.09-14.2a9.77,9.77,0,0,0,6.74-2.49,8.29,8.29,0,0,0,2.8-6.49v-4.89l-5,.23q-10.71.39-10.7,7.87Q581,619.53,587.15,619.52Z" transform="translate(-229.7 -282.47)"/><path class="cls-1" d="M663.81,617.69a32.3,32.3,0,0,0,10.48-2.16v15.81a43.3,43.3,0,0,1-8.35,2.69,47.7,47.7,0,0,1-9.29.8q-10.92,0-15.75-5.35T636.08,613v-25.9h-7.6v-8.82l9.65-6.82,5.6-13.2h14.2v12.59h15.42v16.25H657.93v24.46Q657.93,617.69,663.81,617.69Z" transform="translate(-229.7 -282.47)"/><path class="cls-1" d="M684.83,555.24q0-4.89,2.72-7.27t8.76-2.39c4,0,7,.82,8.82,2.44s2.77,4,2.77,7.22q0,9.54-11.59,9.54T684.83,555.24Zm22.24,78.48H685.39V570.88h21.68Z" transform="translate(-229.7 -282.47)"/><path class="cls-1" d="M782.23,602.16q0,15.42-8.29,24.05t-23.21,8.62q-14.33,0-22.77-8.82t-8.46-23.85q0-15.36,8.29-23.88t23.27-8.51a33.12,33.12,0,0,1,16.36,3.94,26.92,26.92,0,0,1,11,11.28A36.59,36.59,0,0,1,782.23,602.16Zm-40.71,0q0,8.1,2.16,12.34a7.52,7.52,0,0,0,7.27,4.25,7.3,7.3,0,0,0,7.12-4.25q2.08-4.25,2.08-12.34T758.05,590q-2.12-4.1-7.21-4.1a7.48,7.48,0,0,0-7.16,4.08Q741.52,594.06,741.52,602.16Z" transform="translate(-229.7 -282.47)"/><path class="cls-1" d="M834.26,633.72V599.44q0-6.27-1.81-9.45a6.15,6.15,0,0,0-5.79-3.19q-5.49,0-7.93,4.38t-2.44,15v27.51H794.6V570.88H811l2.72,7.76H815a17.07,17.07,0,0,1,7.68-6.65,27.1,27.1,0,0,1,11.28-2.22q10.44,0,16.23,6t5.79,17v40.88Z" transform="translate(-229.7 -282.47)"/><path class="cls-1" d="M919.73,634.83A18.83,18.83,0,0,1,908,631q-5-3.82-7.77-11.26a50,50,0,0,1-2.74-17.36q0-15.3,6.16-24a19.63,19.63,0,0,1,16.91-8.65,19.35,19.35,0,0,1,9.24,2.11A20.45,20.45,0,0,1,937,579h.44a104.66,104.66,0,0,1-1.05-14.76v-16.8h21.85v86.3H941.92l-4.66-7.93h-.83Q930.82,634.84,919.73,634.83Zm8.88-17.14q5.21,0,7.35-3.27t2.3-10.1V602.6q0-8.31-2.39-11.84c-1.59-2.35-4.08-3.52-7.49-3.52a7.33,7.33,0,0,0-6.62,4q-2.37,4-2.36,11.45t2.38,11.15A7.58,7.58,0,0,0,928.61,617.69Z" transform="translate(-229.7 -282.47)"/><path class="cls-1" d="M1003.6,634.83q-15.71,0-24.38-8.35t-8.68-23.77q0-15.91,8-24.43t23-8.51q14.21,0,21.94,7.4t7.74,21.33v9.65H992.45a10.79,10.79,0,0,0,3.85,8.27q3.63,3,9.9,3a47.8,47.8,0,0,0,10.51-1.08,51.75,51.75,0,0,0,10.4-3.69v15.59a38.29,38.29,0,0,1-10.53,3.6A72.63,72.63,0,0,1,1003.6,634.83Zm-1.28-50.31a9,9,0,0,0-6.4,2.41q-2.58,2.42-3,7.58h18.64a10.86,10.86,0,0,0-2.58-7.27A8.54,8.54,0,0,0,1002.32,584.52Z" transform="translate(-229.7 -282.47)"/><path class="cls-1" d="M1083.14,633.72V599.44q0-6.27-1.81-9.45a6.15,6.15,0,0,0-5.79-3.19q-5.49,0-7.93,4.38t-2.44,15v27.51h-21.69V570.88h16.36l2.72,7.76h1.27a17.15,17.15,0,0,1,7.69-6.65,27.1,27.1,0,0,1,11.28-2.22q10.44,0,16.23,6t5.79,17v40.88Z" transform="translate(-229.7 -282.47)"/><path class="cls-1" d="M1168.11,614.42q0,10.1-6.88,15.25t-19.74,5.16a85.67,85.67,0,0,1-12.15-.75,51.75,51.75,0,0,1-10.54-2.74V614a65.91,65.91,0,0,0,11.07,3.67,46.69,46.69,0,0,0,10.73,1.44q7,0,7-3.22a3.63,3.63,0,0,0-2-3q-2-1.3-11.45-5.07-8.65-3.55-12.09-8.07a18.41,18.41,0,0,1-3.44-11.46,15.86,15.86,0,0,1,6.77-13.64q6.76-4.87,19.13-4.88a48.08,48.08,0,0,1,11.68,1.36,68.69,68.69,0,0,1,11.34,4l-5.88,14a66.78,66.78,0,0,0-9.15-3.3,30.29,30.29,0,0,0-7.88-1.36q-5.33,0-5.32,2.61a3.23,3.23,0,0,0,1.86,2.74,97.28,97.28,0,0,0,10.73,4.63,41.63,41.63,0,0,1,9.85,5.33,16,16,0,0,1,4.77,6.13A21.65,21.65,0,0,1,1168.11,614.42Z" transform="translate(-229.7 -282.47)"/><path class="cls-1" d="M1179.7,555.24q0-4.89,2.72-7.27t8.76-2.39c4,0,7,.82,8.82,2.44s2.78,4,2.78,7.22q0,9.54-11.6,9.54T1179.7,555.24ZM1202,633.72h-21.69V570.88H1202Z" transform="translate(-229.7 -282.47)"/><path class="cls-1" d="M1247.87,617.69a32.35,32.35,0,0,0,10.49-2.16v15.81A43.74,43.74,0,0,1,1250,634a47.77,47.77,0,0,1-9.29.8q-10.93,0-15.76-5.35T1220.14,613v-25.9h-7.6v-8.82l9.65-6.82,5.6-13.2H1242v12.59h15.42v16.25H1242v24.46Q1242,617.69,1247.87,617.69Z" transform="translate(-229.7 -282.47)"/><path class="cls-1" d="M1261.74,570.88h22.85l10.65,36a34.9,34.9,0,0,1,1,6.82h.45a37.36,37.36,0,0,1,1.33-6.71L1309,570.88h22.13l-24.85,66.83q-4.77,12.76-11.73,18T1276.38,661a43.53,43.53,0,0,1-8.87-.94V643a30.71,30.71,0,0,0,6.71.67,11.08,11.08,0,0,0,5-1.11,11.61,11.61,0,0,0,3.77-3.14,27.63,27.63,0,0,0,3.44-6.63Z" transform="translate(-229.7 -282.47)"/><path class="cls-1" d="M1358.75,617.14l.78,1.27q-5.38,21.14-9.77,31.12h-15.47q1.61-7.65,3.24-17.17t2.25-15.22Z" transform="translate(-229.7 -282.47)"/><path class="cls-1" d="M1458,633.72h-58.85V619.3l19.8-20q8.49-8.88,11.09-12.12a27.05,27.05,0,0,0,3.64-5.58,12,12,0,0,0,1-4.88,6.33,6.33,0,0,0-2-5,8.38,8.38,0,0,0-5.77-1.83,15.77,15.77,0,0,0-7.74,2.19,55.51,55.51,0,0,0-8.84,6.46l-12-14.09a65.15,65.15,0,0,1,10.54-8,37.55,37.55,0,0,1,9.29-3.69,45.94,45.94,0,0,1,11.29-1.28,34,34,0,0,1,14.06,2.78,22.07,22.07,0,0,1,9.6,7.9,20.36,20.36,0,0,1,3.41,11.51,29.78,29.78,0,0,1-4.88,16.78,55.89,55.89,0,0,1-6.63,8.24q-4.14,4.32-17.61,16.41v.56H1458Z" transform="translate(-229.7 -282.47)"/><path class="cls-1" d="M1524.87,593.29q0,21.51-7.21,31.53t-22.07,10q-14.53,0-21.91-10.45t-7.38-31.09q0-21.64,7.21-31.73t22.08-10.1q14.48,0,21.88,10.51T1524.87,593.29Zm-36.77,0q0,13.76,1.72,18.91c1.14,3.44,3.07,5.16,5.77,5.16s4.66-1.78,5.79-5.33,1.69-9.8,1.69-18.74-.57-15.29-1.71-18.89-3.07-5.41-5.77-5.41-4.63,1.74-5.77,5.22S1488.1,584,1488.1,593.29Z" transform="translate(-229.7 -282.47)"/><path class="cls-1" d="M1581.12,633.72h-22.25V590.79q0-7.81.34-14.31a47.46,47.46,0,0,1-5.11,5.21l-9.2,7.6-11.37-14,27.84-22.68h19.75Z" transform="translate(-229.7 -282.47)"/><path class="cls-1" d="M1658,593.29q0,21.51-7.21,31.53t-22.07,10q-14.54,0-21.91-10.45t-7.38-31.09q0-21.64,7.21-31.73t22.08-10.1q14.47,0,21.88,10.51T1658,593.29Zm-36.77,0q0,13.76,1.72,18.91c1.14,3.44,3.07,5.16,5.77,5.16s4.66-1.78,5.79-5.33,1.69-9.8,1.69-18.74-.57-15.29-1.72-18.89-3.07-5.41-5.76-5.41-4.63,1.74-5.77,5.22S1621.22,584,1621.22,593.29Z" transform="translate(-229.7 -282.47)"/></svg>