<svg id="Layer_1" data-name="Layer 1" xmlns="http://www.w3.org/2000/svg" viewBox="0 0 82.5 37.4"><defs><style>.cls-1{fill:none;stroke:#000;stroke-linejoin:round;stroke-width:0.5px;}</style></defs><g id="Layer_2" data-name="Layer 2"><path class="cls-1" d="M1.9,34.6c.4.9-1.1.9-1.1,0,0-.5,1.1-.5,1.1,0"/><path class="cls-1" d="M50.57,3.46A3.89,3.89,0,0,1,50.3,1.4c1.4-1.3,1.1-.4,2.5,0S53.9.3,55,1.6c0,.2,1.3.2,1.3.9.2.7.9,2.3,1.4,2.5,1.4.4,3.2-.4,4,1.4.7,1.6,2-.7,3.1-.2s2.5,1.4,3.6.7c.2-.2,2-2.5,2.7-1.6.5.5-.2,2,.9,2.3.7.4,2.2.5,2.3,1.6,0,.7.7,2.9,0,3.4s1.6,2.2,1.8,2.5c0,.2-.4.7-.4.7.5.4,1.1,1.8,2,2.2.5.2.2,2,1.6,1.6.4,0,.5,1.1.7,1.1.2.2,1.8.2,1.8,0,0,.7-3.4,3.6-4.2,4-1.4.5-3.8,1.6-3.8,3.2-1.1-.4-1.4,2.2-2.7,2.3-1.1.2-1.1,1.3-2.2,1.6-1.3.5-3.2.7-4.3,1.6-1.1.7-2.2.5-3.4.5-2.7,0-5.4.2-7.9,0-4.7-.2-9.4,0-14.1-.2-2.9-.2-5.6-.2-8.5-.2H23.5a19.4,19.4,0,0,0-3.4.2c.4-.9-1.8-.5-2.3-.5,0,.9,1.1,2.5-.5,2.5-1.3,0-2.5-.2-3.8-.2-3.4,0-6.7,0-10.1-.2.2-.4.4-2,.9-1.8.2,0,.9,1.6,1.3.7.5-1.3,0-1.8,1.1-2.2,0,0-.7-.9-.2-1.3,1.4-1.3-1.3-2,.4-3.6-.7-.9.5-1.8.5-1.8.4.2.5.2.4,0,.9.2,3.6,1.4,4,2.2,2.7.4.4-2.2.7-3.1.7-2.2,2.3-1.4,4.3-2.2.9-.4-.5-1.4-.5-2-.2-.5,1.4-2.7,2-2s.4-.9.4-1.1c-.4-1.1,2-.4,2.7-.5.4.2-.2.9.2,1.1,1.1.7.2-1.8.7-2,.2,0,.5.7.5.7.5.4,1.3-.4,2.2.2.7.4,2.5,2.2,2.9,1.1.2-.7,2.2-3.1,2.9-2,.2.4.4,1.3.9.7.7-.5.4.7.4.9-.2-.2,1.4-.9,1.4-1.1.4-.4-.7-1.3.2-1.4,1.1-.4.2-.5.2-1.1,0,0,1.6.2,1.4-.4,0-.2-.5-.2-.5-.5s1.1.2,1.1,1.1c-.2,1.4,2,.7,2.2,1.4a.66.66,0,0,0,.4.5c-.5.4.9-.1.7-.1"/><path class="cls-1" d="M39.2,15.7c.2-.2.9-4.7,1.8-3.6"/></g><path d="M5.19,11c-.08,0-.13.11-.21.16s-.17,0-.23.08-.15.12-.24.13a.52.52,0,0,1-.23.08,1.83,1.83,0,0,1-.25.08,1.38,1.38,0,0,0-.26,0,1.4,1.4,0,0,1-.24.06H3.27c-.09,0-.19,0-.29,0l-.27,0c-.1,0-.17-.08-.27-.12s-.18,0-.26-.09-.1-.17-.17-.22a2.19,2.19,0,0,1-.13-.27.72.72,0,0,1,0-.26.62.62,0,0,1,.06-.26.74.74,0,0,1,.1-.22c.07-.08.09-.17.17-.23s.16-.09.22-.15.17-.05.27-.09a.92.92,0,0,1,.24-.13l.27,0a1.18,1.18,0,0,1,.27,0H4l.27,0,.26.06a1.84,1.84,0,0,1,.25.09.69.69,0,0,0,.62-.21l.14-.19L5.69,9a1.29,1.29,0,0,0,.17-.21A1.07,1.07,0,0,0,6,8.58c0-.08.11-.13.17-.21l.15-.22a2.11,2.11,0,0,1,.14-.22l.16-.24c.06-.1.1-.09.18-.18L7,7.29c.08-.11,0-.15.12-.24a.83.83,0,0,1,.14-.22c.08-.12.13-.08.2-.2a2.09,2.09,0,0,0,.16-.22,1.35,1.35,0,0,1,.14-.22c.08-.11,0-.11.13-.23A1.34,1.34,0,0,0,8,5.73c.08-.12.12-.11.2-.2s.06-.13.14-.24a2.53,2.53,0,0,0,.13-.22c.08-.11.1-.09.17-.21s.07-.1.15-.22a2.11,2.11,0,0,1,.17-.22c.08-.12.08-.09.17-.21A1.54,1.54,0,0,0,9.21,4c.07-.08.16-.13.2-.21a1.64,1.64,0,0,0,.14-.22c.06-.08.08-.17.13-.25a1.54,1.54,0,0,1,.14-.23,2.6,2.6,0,0,0,.1-.25c0-.09.12-.16.16-.24a.82.82,0,0,0,.06-.26.61.61,0,0,0,0-.26.49.49,0,0,0-.1-.32.59.59,0,0,0-.34-.09l-.26,0a1.76,1.76,0,0,0-.27,0L9,1.79l-.26.09A1.36,1.36,0,0,0,8.47,2a1.58,1.58,0,0,0-.23.11c-.09,0-.14.12-.22.16a.86.86,0,0,0-.25.13c-.06,0-.16,0-.23.09s-.13.13-.21.18-.15.08-.22.13L6.91,3l-.2.16c-.06.07-.14.12-.2.2a1.51,1.51,0,0,0-.2.17c-.06.06-.1.17-.15.22S6,3.82,6,3.88a1,1,0,0,0-.16.22c-.05.07-.09.16-.13.23s-.12.14-.14.23-.11.16-.14.23-.06.17-.07.26a.76.76,0,0,0,0,.26.76.76,0,0,0,0,.26.46.46,0,0,0,.14.22.48.48,0,0,0,.2.17.76.76,0,0,0,.19.12c.49,0,.44.38.14.5a.6.6,0,0,1-.24,0,.7.7,0,0,1-.25,0,.78.78,0,0,1-.26,0A.84.84,0,0,1,5,6.53a2.06,2.06,0,0,1-.26-.12,2.11,2.11,0,0,1-.17-.22L4.47,6c0-.08,0-.17,0-.26a.78.78,0,0,1,0-.26.94.94,0,0,1,0-.29,1.29,1.29,0,0,1,0-.25.84.84,0,0,1,.09-.25.89.89,0,0,1,.09-.26,2.14,2.14,0,0,1,.13-.22,1.7,1.7,0,0,1,.17-.23c0-.07.13-.11.16-.18s.1-.17.15-.22.15-.12.2-.2.12-.13.2-.18A1,1,0,0,1,5.82,3c.08-.06.12-.13.19-.18l.22-.16a1.57,1.57,0,0,0,.21-.17c.07,0,.14-.1.22-.14a1.59,1.59,0,0,1,.22-.13C7,2.13,7,2.05,7.11,2s.17,0,.24-.09a1.71,1.71,0,0,1,.23-.13.78.78,0,0,1,.22-.15c.09,0,.18,0,.26-.08a1.74,1.74,0,0,1,.25-.11l.25-.1.25-.06c.09,0,.18,0,.27,0a.76.76,0,0,1,.27-.05c.09,0,.16,0,.26,0a2.38,2.38,0,0,1,.26-.05h.25c.09,0,.17.08.23.09l.25.11a1.29,1.29,0,0,1,.17.16,1.21,1.21,0,0,1,.15.22A1.58,1.58,0,0,1,11,2c0,.06,0,.17,0,.23a1.5,1.5,0,0,1-.06.29,2.35,2.35,0,0,1,0,.26c0,.09,0,.18-.08.28s0,.17-.07.26l-.12.25c0,.09-.1.14-.14.23s-.09.15-.13.25-.07.16-.12.25l-.13.25a.91.91,0,0,1-.21.18c0,.08-.05.2-.09.27s-.15.13-.2.2a1.34,1.34,0,0,0-.12.24,2.09,2.09,0,0,1-.16.22l-.15.21C9.12,6,9.11,5.92,9,6s0,.13-.12.24-.1.08-.18.18-.05.13-.13.24a2.09,2.09,0,0,0-.16.22c-.08.09-.06.11-.13.22a.92.92,0,0,0-.17.21L8,7.53c-.08.11,0,.13-.12.24s-.1.09-.18.2-.06.13-.13.23l-.15.21c-.06.07-.08.17-.13.22s-.15.11-.21.19A1.27,1.27,0,0,1,6.92,9a1.73,1.73,0,0,0-.14.2.51.51,0,0,0-.13.22,2.61,2.61,0,0,0-.17.2,1.34,1.34,0,0,0-.12.24.49.49,0,0,0,.12.57c.06,0,.17.06.23.1s.13.13.21.19a1.49,1.49,0,0,1,.25.13,1.64,1.64,0,0,0,.22.14.52.52,0,0,0,.24.13,1,1,0,0,0,.25.12c.09.05.14.12.23.16l.23.16.24.11a1.42,1.42,0,0,0,.27.09,1.16,1.16,0,0,0,.22.13l.26.1c.09,0,.15.11.24.13s.19,0,.26.08a1.09,1.09,0,0,1,.26,0,2.56,2.56,0,0,1,.26.09h.53a.76.76,0,0,1,.26,0c.09,0,.14-.11.25-.12a.85.85,0,0,0,.22-.08.63.63,0,0,0,.24-.09,2.17,2.17,0,0,1,.24-.07.21.21,0,0,1,.29.28.45.45,0,0,1-.14.22c-.05.05-.13.09-.21.16s-.13.1-.18.16a1.51,1.51,0,0,0-.2.17c-.08,0-.17.05-.25.09a1.21,1.21,0,0,1-.25.08,1.23,1.23,0,0,0-.23.09c-.1,0-.19,0-.27,0h-.53c-.11,0-.17-.08-.27-.1a1.72,1.72,0,0,1-.26,0,1.39,1.39,0,0,1-.26-.1L9.07,13l-.25-.11a.74.74,0,0,0-.22-.14c-.09,0-.19,0-.28-.08s-.14-.09-.22-.16-.13-.13-.22-.18l-.25-.12c-.08-.05-.13-.13-.21-.18l-.24-.13c-.07-.06-.17-.07-.23-.13s-.13-.13-.21-.16a1.75,1.75,0,0,0-.25-.16,1.73,1.73,0,0,0-.24-.13A.9.9,0,0,0,6,11.14c-.08-.07-.17-.08-.25-.14A.44.44,0,0,0,5.19,11Zm-.94-.91s0,0-.07,0A1.29,1.29,0,0,1,3.94,10H3.4a.53.53,0,0,0-.26.13.55.55,0,0,0-.27.1c-.09.07-.18.11-.23.16a.44.44,0,0,0-.08.27.49.49,0,0,0,0,.27c0,.07.13.1.21.14a.53.53,0,0,0,.26,0h.27L3.61,11l.22-.13c.07-.06.16-.09.24-.15a1.41,1.41,0,0,0,.18-.17s0,0,0,0A.23.23,0,0,0,4.25,10.09Z"/><path d="M15.88,8.24c-.07.1-.16.18-.21.27s-.12.21-.18.28-.17.17-.25.26a2.9,2.9,0,0,1-.19.29c-.09.09-.18.14-.27.22a1.18,1.18,0,0,1-.24.26,1.37,1.37,0,0,1-.29.2,3,3,0,0,1-.26.21l-.27.21a2.67,2.67,0,0,0-.3.17c-.12.05-.21.13-.31.18a2,2,0,0,1-.31.13,2.19,2.19,0,0,1-.34.1,2.22,2.22,0,0,0-.31.13,2.09,2.09,0,0,0-.36,0h-.65a.79.79,0,0,1-.32-.08,2.09,2.09,0,0,1-.3-.11.83.83,0,0,1-.26-.17,1.08,1.08,0,0,1-.26-.18,2.4,2.4,0,0,1-.19-.29,3,3,0,0,1-.13-.3c0-.09,0-.2,0-.31a1.64,1.64,0,0,1-.05-.32,2,2,0,0,1,0-.34c0-.11,0-.22,0-.33s.07-.21.11-.31a2.08,2.08,0,0,1,.12-.3,1.78,1.78,0,0,1,.17-.3.88.88,0,0,1,.13-.3c.05-.1.14-.15.22-.24A1.6,1.6,0,0,1,10.58,7c.07-.08.13-.17.2-.26L11,6.54a1.37,1.37,0,0,1,.26-.2,2.11,2.11,0,0,1,.24-.21,1.7,1.7,0,0,1,.28-.21,2.09,2.09,0,0,0,.28-.17c.09,0,.17-.13.26-.18l.3-.15A3,3,0,0,1,13,5.31a1.75,1.75,0,0,1,.32,0c.12,0,.21-.09.32-.11a1.71,1.71,0,0,1,.32,0,2.75,2.75,0,0,1,.34,0,1.24,1.24,0,0,1,.29.1,1,1,0,0,1,.28.18,1.57,1.57,0,0,1,.14.29.75.75,0,0,1,0,.31,1.1,1.1,0,0,1,0,.36c0,.09-.09.2-.13.31s-.08.22-.13.33-.2.14-.26.23-.1.23-.17.3-.21.11-.3.2-.17.16-.27.21a1.14,1.14,0,0,1-.3.18,2.22,2.22,0,0,1-.27.21,2.33,2.33,0,0,1-.36.08l-.31.13a2.05,2.05,0,0,1-.34.07c-.12,0-.22.08-.33.09a1.37,1.37,0,0,1-.35,0h-.34a1.55,1.55,0,0,0-.21,0,.4.4,0,0,0-.3.34v0a1.51,1.51,0,0,0,0,.3.62.62,0,0,0,.13.27A.67.67,0,0,0,11,10a.85.85,0,0,0,.25.21l.29.13a1.06,1.06,0,0,0,.32,0,1.39,1.39,0,0,0,.33-.07l.34-.05a2,2,0,0,0,.33-.08l.32-.1c.11-.07.19-.14.29-.19a2.08,2.08,0,0,0,.29-.19c.09-.06.21-.1.3-.16s.16-.17.24-.25a1.41,1.41,0,0,0,.27-.18,2.05,2.05,0,0,0,.25-.27A2.77,2.77,0,0,0,15,8.61c.07-.07.11-.19.18-.28a1.49,1.49,0,0,0,.2-.29c.08-.09.12-.19.2-.29C15.81,7.49,16.08,7.86,15.88,8.24ZM13.61,5.68a1.17,1.17,0,0,0-.35.06,2.22,2.22,0,0,0-.31.13c-.12,0-.17.17-.28.22l-.29.19a2.1,2.1,0,0,0-.27.2l-.28.23c-.08.09-.13.18-.21.27s-.14.2-.22.29a1.6,1.6,0,0,0-.21.26.26.26,0,0,1-.08.11.28.28,0,0,0,.29.44h.11a1.39,1.39,0,0,1,.35,0,1.33,1.33,0,0,0,.34,0,2.61,2.61,0,0,0,.35-.08,1.24,1.24,0,0,0,.3-.17,1.57,1.57,0,0,0,.32-.15,1.34,1.34,0,0,0,.31-.17,1.09,1.09,0,0,0,.26-.22A2.21,2.21,0,0,0,14,7a1.79,1.79,0,0,0,.2-.28.86.86,0,0,0,.18-.3.63.63,0,0,0,.07-.34.44.44,0,0,0-.17-.34.74.74,0,0,0-.36,0A2,2,0,0,0,13.61,5.68Z"/><path d="M21.25,6l-.18.19a1.3,1.3,0,0,0-.21.18c-.09.1-.12.07-.22.17s-.1.1-.19.19-.11.06-.21.17a1.63,1.63,0,0,1-.2.17,1.8,1.8,0,0,0-.19.2c-.1.09-.08.11-.18.2s-.12.08-.21.17l-.21.19a.77.77,0,0,0-.24.52c0,.09,0,.17,0,.24a2.08,2.08,0,0,0,0,.25v.26c0,.09,0,.18,0,.27s0,.2,0,.29,0,.2,0,.28a1.27,1.27,0,0,0,.11.26.27.27,0,0,0,.25.14.74.74,0,0,0,.27,0,.86.86,0,0,0,.25-.13c.08,0,.13-.12.21-.17l.22-.17a1.74,1.74,0,0,0,.22-.18,1.7,1.7,0,0,0,.19-.19A.61.61,0,0,0,21,9.26a1,1,0,0,0,.2-.21c.06-.05.12-.13.18-.19s.13-.14.18-.21.11-.15.17-.23.15-.1.2-.18S22,8.07,22,8a1.6,1.6,0,0,0,.16-.23c.21-.27.42.13.26.47a.71.71,0,0,1-.15.22,1.7,1.7,0,0,0-.15.22c-.05.07-.12.12-.17.2s-.12.13-.17.21a1.42,1.42,0,0,0-.13.22c-.05.08-.13.12-.18.19s-.14.13-.19.19a1.53,1.53,0,0,1-.18.18,1.8,1.8,0,0,1-.2.19,1.12,1.12,0,0,1-.17.21,1.51,1.51,0,0,0-.2.17l-.22.13a1.16,1.16,0,0,0-.21.16c-.09.06-.14.13-.21.17l-.23.11a1.25,1.25,0,0,1-.26.07,1.21,1.21,0,0,1-.25.08l-.25,0a2.26,2.26,0,0,1-.29,0,.65.65,0,0,1-.28-.08,1.21,1.21,0,0,1-.19-.2,1.57,1.57,0,0,1-.14-.25,1.38,1.38,0,0,1-.08-.27,1.42,1.42,0,0,1,0-.29,2.51,2.51,0,0,1,0-.27c0-.11,0-.2,0-.3s-.13-.23-.22-.14a.92.92,0,0,1-.21.17c-.09.1-.08.1-.17.19l-.19.19c-.09.09-.11.06-.2.15a1.62,1.62,0,0,0-.19.18,1.18,1.18,0,0,0-.17.2c-.09.06-.09.09-.18.16s-.13.06-.22.15-.08.09-.17.19l-.12.09a.22.22,0,0,1-.35-.08.35.35,0,0,1-.06-.18.58.58,0,0,1,.23-.4c.09-.09.07-.1.18-.21s.12-.06.21-.16.09-.11.18-.2.09-.1.2-.19.13,0,.23-.14.06-.13.17-.24.13-.05.23-.14l.2-.17c.11-.09.07-.13.19-.22s.1-.06.22-.15.09-.12.19-.18a.83.83,0,0,0,.31-.57,1.27,1.27,0,0,1,.06-.28c0-.09,0-.19,0-.28A2.56,2.56,0,0,0,18.28,7c0-.11,0-.2,0-.29a1.51,1.51,0,0,0,0-.3,1.31,1.31,0,0,0,0-.28,1.58,1.58,0,0,0,0-.31.26.26,0,0,0-.26-.17.33.33,0,0,0-.24.09.76.76,0,0,0-.2.17,1,1,0,0,0-.17.18c-.07.08-.09.16-.16.23s-.13.13-.18.21a1.73,1.73,0,0,0-.15.2c-.06.07-.11.15-.17.23a1.27,1.27,0,0,0-.14.21c-.07.06-.08.16-.13.23s-.12.13-.16.21-.09.16-.14.22a1.6,1.6,0,0,0-.16.23,2,2,0,0,0-.14.22c-.19.26-.4-.18-.27-.47,0-.09.1-.15.13-.22A1.5,1.5,0,0,0,16,7.32a1.84,1.84,0,0,0,.17-.22c0-.08.09-.14.13-.22s.12-.13.17-.21.12-.13.17-.21.08-.16.13-.24.15-.1.18-.17.1-.17.15-.23.16-.11.21-.17a2.25,2.25,0,0,0,.17-.21l.25-.13a.8.8,0,0,1,.22-.13,1.23,1.23,0,0,1,.27,0,.9.9,0,0,1,.27.07.65.65,0,0,1,.21.16.76.76,0,0,1,.14.22c0,.08.12.14.13.25a1.33,1.33,0,0,1,0,.26c0,.09,0,.18,0,.27s0,.17,0,.27a.2.2,0,0,1,0,.15.19.19,0,0,0,.32.16.64.64,0,0,0,.15-.12c.11-.09.11-.06.2-.16s.09-.1.2-.19.13-.07.22-.16.09-.1.18-.19.1-.1.19-.16.13-.08.22-.17a1.29,1.29,0,0,1,.17-.21c.09-.09.12-.08.22-.17s.07-.05.08-.09a.22.22,0,0,1,.37.14v0a.37.37,0,0,1-.09.3C21.34,5.91,21.37,5.92,21.25,6Z"/><path d="M25.35,8.21a1.77,1.77,0,0,1-.17.24,2.11,2.11,0,0,0-.14.22,1.63,1.63,0,0,0-.17.2l-.17.22a.89.89,0,0,0-.16.21c-.07.08-.1.17-.16.25a2.61,2.61,0,0,1-.17.2,1.53,1.53,0,0,1-.18.18c-.08.08-.15.12-.21.19a1.57,1.57,0,0,0-.18.19l-.19.21a1.63,1.63,0,0,0-.22.17l-.22.14c-.08.05-.16.13-.24.17s-.18,0-.25.07-.17.06-.26.08a2,2,0,0,1-.26,0,.54.54,0,0,1-.26-.09.89.89,0,0,1-.29-.09,1.94,1.94,0,0,1-.15-.24,2.46,2.46,0,0,1-.07-.29,1.22,1.22,0,0,1,0-.27c0-.1,0-.2,0-.29l.06-.25a1.53,1.53,0,0,1,.07-.29,1.53,1.53,0,0,1,.08-.26c0-.09.11-.15.15-.24s0-.19.05-.26.12-.17.16-.25a2.38,2.38,0,0,1,.14-.23,1.71,1.71,0,0,1,.13-.23.84.84,0,0,1,.16-.24.77.77,0,0,1,.12-.24,2.11,2.11,0,0,1,.17-.22A1.58,1.58,0,0,1,22.65,7c.07-.1.11-.06.19-.18s0-.13.1-.24.09-.1.17-.19.09-.09.17-.2A.87.87,0,0,0,23.43,6l.15-.21c.07-.1.06-.13.13-.22s0,0,0,0a.27.27,0,0,1,.45-.06s0,.06.05.09a1,1,0,0,1,0,.24,2.17,2.17,0,0,1,0,.25.63.63,0,0,1,0,.24,1,1,0,0,1-.05.24,1.07,1.07,0,0,1-.13.21,1,1,0,0,0-.14.24c-.08.12-.14.08-.21.18s-.06.13-.13.25a1.86,1.86,0,0,0-.19.22c-.08.11-.05.13-.14.24s-.07.12-.16.25-.09.13-.14.21a.73.73,0,0,0-.13.23,2.44,2.44,0,0,0-.16.23c0,.08,0,.17-.09.24a2.35,2.35,0,0,0-.11.24,1.19,1.19,0,0,0-.13.25,1.17,1.17,0,0,0,0,.26,1.23,1.23,0,0,0,0,.26c0,.1,0,.15,0,.2s.05.16.15.16a.72.72,0,0,0,.25-.08.94.94,0,0,0,.24-.13A.6.6,0,0,0,23.2,10a.56.56,0,0,0,.21-.16c.08-.06.15-.1.23-.17s.11-.13.17-.18A.71.71,0,0,1,24,9.25c.05-.08.13-.13.18-.21a1.93,1.93,0,0,0,.17-.21c.05-.07.11-.13.17-.2s.07-.15.13-.22a1.28,1.28,0,0,1,.16-.21c0-.08.13-.13.19-.21a1,1,0,0,1,.13-.22C25.3,7.55,25.56,7.88,25.35,8.21Zm.79-4.66a2.89,2.89,0,0,1,0,.29,2.73,2.73,0,0,1-.17.24,1.17,1.17,0,0,1-.19.2c-.07.06-.13.15-.19.19a.84.84,0,0,1-.29,0,.36.36,0,0,1-.3-.13.39.39,0,0,1-.09-.31.66.66,0,0,1,0-.28l.1-.25a1.57,1.57,0,0,1,.24-.21.69.69,0,0,1,.22-.14.44.44,0,0,1,.26-.08.33.33,0,0,1,.29.12A.4.4,0,0,1,26.14,3.55Z"/><path d="M31.8,8.23c0,.07-.11.15-.16.22l-.15.23c0,.08-.15.11-.2.19s-.09.16-.14.24S31,9.22,31,9.3s-.09.16-.16.22-.13.14-.18.21a1.51,1.51,0,0,0-.17.2,1.84,1.84,0,0,1-.22.17,1.84,1.84,0,0,1-.19.2,1.92,1.92,0,0,0-.18.22c-.07.05-.17.06-.25.11s-.13.15-.19.2l-.25.13a1.34,1.34,0,0,1-.26.09,2.58,2.58,0,0,1-.26.08,2.44,2.44,0,0,1-.26.06,1,1,0,0,1-.3,0,1.94,1.94,0,0,1-.24-.15.6.6,0,0,1-.21-.21.73.73,0,0,1-.15-.25.92.92,0,0,1,0-.29,2.36,2.36,0,0,1,0-.28,1.31,1.31,0,0,1,.06-.27c0-.08,0-.17.08-.26a1.83,1.83,0,0,1,.13-.24c0-.08.09-.16.14-.24s.15-.11.2-.19.06-.18.11-.25.15-.13.2-.19.1-.16.15-.23a1.89,1.89,0,0,0,.2-.2c.06-.06.11-.14.17-.21s.11-.15.16-.22a1.84,1.84,0,0,0,.2-.19,1.81,1.81,0,0,0,.18-.21c.06-.07.08-.16.14-.24s.13-.13.17-.21l.14-.23a1.42,1.42,0,0,0,.12-.25.66.66,0,0,0,.06-.27A.34.34,0,0,0,30,5.66a.3.3,0,0,0-.2,0,.87.87,0,0,0-.26,0,1.36,1.36,0,0,0-.27,0c-.08,0-.16.06-.25.11s-.13.12-.22.17a1.74,1.74,0,0,0-.25.11c-.07,0-.11.14-.19.19s-.17.08-.25.14l-.2.16a1.81,1.81,0,0,1-.21.18c-.07.06-.12.14-.18.19s-.16.11-.22.17-.12.14-.18.21l-.2.18c-.06.07-.11.14-.18.21s-.15.1-.22.17l-.18.19c-.06.06-.1.16-.17.22a2.65,2.65,0,0,1-.17.22,1.62,1.62,0,0,1-.19.18,1.57,1.57,0,0,1-.17.21l-.15.22a1.63,1.63,0,0,0-.17.22,1.57,1.57,0,0,0-.18.19c-.06.08-.13.13-.19.21a1.77,1.77,0,0,0-.16.22c-.06.06-.08.17-.13.23s-.12.15-.17.22-.14.12-.2.2-.07.17-.13.23a.29.29,0,0,1-.53,0,.94.94,0,0,1-.1-.23c0-.08,0-.17,0-.25a.6.6,0,0,1,0-.23,1.86,1.86,0,0,1,.2-.43c.08-.1,0-.13.12-.24s.09-.1.17-.21.09-.11.17-.21.06-.12.14-.23.09-.11.17-.21.05-.13.13-.23a1.21,1.21,0,0,1,.15-.22L25,7.93a1.7,1.7,0,0,1,.15-.22l.16-.22c.08-.11.1-.09.18-.21a2.11,2.11,0,0,0,.14-.22c.08-.1.05-.13.13-.23a2.09,2.09,0,0,1,.16-.22,1.2,1.2,0,0,1,.17-.21,2.42,2.42,0,0,1,.12-.23c.08-.12.11-.11.19-.21a1.26,1.26,0,0,1,.13-.23,1.21,1.21,0,0,1,.15-.22c.25-.26.47-.2.58,0a.81.81,0,0,1,0,.31c0,.1,0,.19-.05.3s.16.28.45,0c.07-.06.16-.11.22-.17l.22-.18.25-.14.25-.14.23-.14a1.83,1.83,0,0,1,.26-.11l.27-.09.27-.06a.84.84,0,0,1,.27,0,1,1,0,0,1,.26.06.8.8,0,0,1,.25.11.47.47,0,0,1,.18.19.84.84,0,0,1,.12.23,1.18,1.18,0,0,1,0,.28,2.51,2.51,0,0,1,0,.27c0,.09,0,.18,0,.26a1.36,1.36,0,0,1-.13.24,2.72,2.72,0,0,1-.11.25c0,.08-.09.15-.12.23s-.07.17-.11.25a1.8,1.8,0,0,1-.18.2c-.05.08-.06.17-.12.25s-.15.12-.2.18-.08.17-.13.25l-.18.19c-.06.08-.11.14-.16.22s-.06.18-.1.25-.14.13-.18.21-.06.18-.09.25-.12.16-.15.24a1.22,1.22,0,0,0,0,.27.47.47,0,0,0,0,.21c0,.06.1.07.18.07a.8.8,0,0,0,.26,0l.24-.12.24-.13a1.77,1.77,0,0,1,.2-.17c.07-.06.12-.13.18-.19s.11-.15.17-.22.16-.09.22-.17L30.58,9l.17-.21c.05-.06.09-.15.14-.22l.16-.22a1.56,1.56,0,0,0,.16-.2c.06-.08.1-.16.15-.24a2.65,2.65,0,0,1,.17-.22C31.69,7.58,32,7.88,31.8,8.23Z"/><path d="M30.37,14.05c-.1,0-.17-.13-.23-.19a.78.78,0,0,1-.09-.3.79.79,0,0,1,.08-.29.6.6,0,0,1,.12-.22,2.5,2.5,0,0,1,.16-.24c.05-.05.1-.13.18-.21l.21-.17c.08,0,.14-.11.22-.17s.13-.11.21-.16l.25-.13c.08,0,.17-.05.25-.09s.14-.12.25-.16.16-.05.26-.09.13-.09.2-.13.05,0,.07-.05.1-.12.17-.23a.9.9,0,0,0,.15-.19.11.11,0,0,0-.13-.16c-.09.05-.19.07-.28.11a1.45,1.45,0,0,1-.26.11,1.5,1.5,0,0,1-.3,0,1,1,0,0,1-.25-.06.64.64,0,0,1-.23,0,1.45,1.45,0,0,1-.17-.19.66.66,0,0,1-.15-.21,1.14,1.14,0,0,1-.12-.22.74.74,0,0,1-.05-.24V9.6c0-.09,0-.18,0-.29s.08-.17.12-.26,0-.18,0-.26a2.72,2.72,0,0,0,.11-.25c0-.08.07-.16.11-.25s.06-.17.1-.26l.14-.22a1.57,1.57,0,0,0,.17-.21c0-.07.08-.19.13-.25s.16-.12.21-.2a2.18,2.18,0,0,0,.17-.21c0-.06.13-.13.18-.18a.91.91,0,0,1,.21-.18c.06-.08.09-.15.16-.23A2.11,2.11,0,0,0,33,6.21L33.18,6a1,1,0,0,1,.25-.13c.07-.07.17-.09.24-.16s.15-.1.22-.14l.25-.12a1.33,1.33,0,0,0,.24-.11,1.45,1.45,0,0,1,.26-.11c.07,0,.19,0,.26,0s.18-.07.27-.09l.28,0a1.1,1.1,0,0,1,.27,0,1.26,1.26,0,0,1,.28.07,2.1,2.1,0,0,1,.26.13l0,0c.09.1.22.17.31.1s.38-.19.55,0a.64.64,0,0,1,.11.27c0,.09,0,.17,0,.23a.73.73,0,0,1,0,.25.62.62,0,0,1-.1.22c0,.08,0,.15-.08.23L37,6.93c-.07.12-.09.09-.17.21s-.09.09-.18.21l-.16.22c-.06.11,0,.12-.1.24s-.12.09-.19.21L36,8.24l-.16.22c-.08.12-.06.12-.13.22a1.94,1.94,0,0,0-.2.21,2,2,0,0,1-.14.23l-.17.22c-.08.12,0,.13-.12.25l-.14.22-.15.21c-.08.12-.11.08-.18.2a.72.72,0,0,0-.17.22c-.16.25-.08.43.24.31.07,0,.17-.05.24-.09a2.6,2.6,0,0,0,.24-.13,1.18,1.18,0,0,0,.22-.14c.08,0,.17-.07.25-.12s.13-.13.21-.17l.21-.15a.91.91,0,0,0,.23-.17,1.06,1.06,0,0,0,.2-.17,1.27,1.27,0,0,0,.21-.15,2.09,2.09,0,0,1,.19-.21A1.24,1.24,0,0,1,37.05,9c.05-.06.11-.11.17-.19s.14-.11.19-.18a2.61,2.61,0,0,0,.17-.2,1.49,1.49,0,0,0,.13-.25A1.57,1.57,0,0,0,37.88,8l.17-.2c.19-.22.45.2.27.45-.06.08-.12.14-.17.22a1,1,0,0,0-.13.22,2.25,2.25,0,0,0-.17.21c-.06.07-.1.16-.15.23s-.16.1-.21.18a.71.71,0,0,1-.17.21,1.08,1.08,0,0,1-.16.2L37,9.9a1.66,1.66,0,0,0-.18.19,2.09,2.09,0,0,0-.22.16c-.08.06-.13.11-.21.16a.48.48,0,0,1-.21.17l-.2.17a1.12,1.12,0,0,0-.22.16.85.85,0,0,0-.26.11l-.24.11-.23.13a1.41,1.41,0,0,1-.28,0,1.92,1.92,0,0,1-.25.12,1.08,1.08,0,0,0-.26.08,1.43,1.43,0,0,0-.25.1,1.08,1.08,0,0,0-.53.29,1.2,1.2,0,0,0-.15.24c0,.07-.13.14-.18.2s-.11.17-.17.23a1.12,1.12,0,0,0-.17.21c-.08.06-.15.13-.23.18a.91.91,0,0,1-.18.21.89.89,0,0,0-.22.16l-.21.17c-.08.08-.16.13-.21.18s-.15.13-.22.17a2.06,2.06,0,0,1-.26.12,1.42,1.42,0,0,1-.27.09,2.34,2.34,0,0,1-.26,0A.8.8,0,0,1,30.37,14.05Zm.93-1.4a.52.52,0,0,1-.24.13,1.54,1.54,0,0,0-.17.24c-.08.07-.17.1-.21.18a.55.55,0,0,0,0,.28c0,.08,0,.09.11.09a.54.54,0,0,0,.26-.13c0-.07.14-.13.22-.22a2.14,2.14,0,0,0,.16-.27C31.61,12.65,31.38,12.61,31.3,12.65Zm1.31-2.46a.81.81,0,0,0,.26-.09,1.63,1.63,0,0,0,.22-.17,1,1,0,0,0,.26-.11,1.13,1.13,0,0,0,.23-.17,1.42,1.42,0,0,0,.18-.22A1,1,0,0,0,34,9.26a1.39,1.39,0,0,0,.21-.21,1.4,1.4,0,0,0,.14-.22l.19-.2.17-.22.15-.25c.07-.09.05-.12.15-.22s.1-.08.18-.19.05-.13.13-.24.09-.1.17-.2a1.28,1.28,0,0,1,.17-.22c.08-.12,0-.15.13-.25s.09-.09.17-.21.09-.09.16-.2.06-.13.09-.22a.25.25,0,0,0,0-.34.39.39,0,0,0-.1-.08,1,1,0,0,0-.25-.14,1,1,0,0,0-.3,0c-.08,0-.17,0-.26,0s-.17,0-.26,0l-.25.11-.24.09L34.24,6c-.06,0-.13.13-.19.17l-.21.16a1.93,1.93,0,0,1-.21.17,1.06,1.06,0,0,1-.16.21c-.06.06-.16.09-.21.17s-.09.14-.14.22-.12.14-.2.22l-.13.17c0,.07-.11.15-.17.24a1.59,1.59,0,0,1-.13.22c-.05.08-.12.13-.16.21s0,.18-.08.26-.09.15-.13.22S32,8.85,32,9s0,.17,0,.26a1.29,1.29,0,0,0-.08.26c0,.09,0,.17,0,.26s0,.17,0,.24a.63.63,0,0,0,.09.22.57.57,0,0,0,.26,0A.79.79,0,0,0,32.61,10.19Z"/><path d="M37.85,11.19a.91.91,0,0,1-.26-.06,1,1,0,0,1-.25-.11,1,1,0,0,1-.16-.24.93.93,0,0,1,0-.29.84.84,0,0,1,0-.27c0-.09,0-.2,0-.29a1.38,1.38,0,0,1,.05-.25.89.89,0,0,1,.09-.26,2.93,2.93,0,0,1,.05-.29,1.79,1.79,0,0,1,.12-.24c0-.1.09-.15.13-.24s0-.19.09-.26a1.24,1.24,0,0,0,.17-.23,1.82,1.82,0,0,0,.15-.23l.13-.25c0-.08.13-.13.17-.21s.09-.16.14-.24.08-.17.14-.25l.15-.19c.07-.1.09-.1.16-.2a2.33,2.33,0,0,1,.16-.2c.06-.09,0-.11.1-.22s.12-.08.17-.18,0-.12.13-.24a.08.08,0,0,0-.08-.13.19.19,0,0,0-.09,0C39,5.58,39,5.4,39,5.36a.29.29,0,0,1,0-.14s.1-.1.14-.1h.26c.13,0,.13,0,.23,0h0a.31.31,0,0,0,.22-.11c0-.1.09-.07.16-.19s.06-.1.16-.22a.51.51,0,0,1,.17-.22,1.09,1.09,0,0,1,.14-.23c.08-.11,0-.13.13-.24s.12-.1.19-.2a.18.18,0,0,1,.06-.08.26.26,0,0,1,.46,0s0,0,0,0a1.09,1.09,0,0,1,0,.24.57.57,0,0,1,0,.22.69.69,0,0,1,0,.25.75.75,0,0,1,0,.26c-.14.24-.19.44.11.46a.27.27,0,0,1,.22.15.22.22,0,0,1-.16.32h-.63a.61.61,0,0,0-.31.13l-.09.13-.16.24a.72.72,0,0,0-.14.2,1.41,1.41,0,0,0-.13.24c-.08.1-.12.07-.19.19s-.06.13-.13.22l-.15.22a1.28,1.28,0,0,1-.14.23.65.65,0,0,1-.17.22l-.15.21c-.08.09-.11.09-.17.21a2.3,2.3,0,0,0-.12.23c0,.08-.11.13-.15.21a1.16,1.16,0,0,0-.14.24c0,.08-.08.15-.12.25s0,.17-.08.23-.1.16-.14.25a.83.83,0,0,0,0,.26c0,.09-.05.19-.05.26a.41.41,0,0,0,0,.23.17.17,0,0,0,.18.13,1.57,1.57,0,0,0,.27,0l.26-.12c.08,0,.14-.12.22-.17a1.57,1.57,0,0,0,.21-.17,1.18,1.18,0,0,0,.21-.18,1.75,1.75,0,0,0,.2-.19l.18-.21a.88.88,0,0,0,.21-.18c0-.05.08-.16.14-.22s.15-.12.21-.19.09-.15.16-.22.13-.13.18-.21A1.65,1.65,0,0,1,41,8l.15-.2c.15-.22.45.14.25.45,0,.08-.12.13-.18.21a1.66,1.66,0,0,1-.11.24c-.06.07-.13.1-.18.18s-.08.16-.13.22-.12.13-.17.21a1.66,1.66,0,0,1-.18.19,1.21,1.21,0,0,0-.2.19c-.08.05-.11.14-.17.2s-.13.11-.2.17a.77.77,0,0,1-.18.18.92.92,0,0,1-.17.21.58.58,0,0,1-.21.17c-.08.05-.13.11-.21.17s-.17.05-.24.09a1,1,0,0,1-.22.16l-.25.1-.26,0A.8.8,0,0,1,37.85,11.19Z"/><path d="M41.75,11.15h-.29a1.79,1.79,0,0,1-.24-.12,1.19,1.19,0,0,1-.26-.11,1.93,1.93,0,0,1-.17-.21c0-.07-.13-.13-.17-.2a.63.63,0,0,1-.06-.27,1.29,1.29,0,0,1-.08-.26c0-.09,0-.18,0-.27V9.43a1.29,1.29,0,0,0,.08-.26c0-.09,0-.18,0-.26a2,2,0,0,1,.08-.26,1.34,1.34,0,0,1,.12-.24,2.72,2.72,0,0,0,.11-.25A2.4,2.4,0,0,1,41,7.93c0-.08.13-.16.17-.24a1.21,1.21,0,0,0,.15-.22s.07-.14.13-.22A1.63,1.63,0,0,1,41.62,7a1.66,1.66,0,0,0,.18-.19A.62.62,0,0,0,42,6.62a.92.92,0,0,1,.21-.17.81.81,0,0,1,.18-.19,1.75,1.75,0,0,1,.19-.2l.22-.15A.92.92,0,0,1,43,5.74a1.36,1.36,0,0,1,.24-.13c.07-.05.17-.08.24-.12s.15-.1.23-.14A1.38,1.38,0,0,1,44,5.29l.26-.11a1.1,1.1,0,0,1,.26,0,1.14,1.14,0,0,1,.26,0H45c.06,0,.14.08.22.12a1.07,1.07,0,0,1,.22.1c.05.07.13.12.17.2a.5.5,0,0,1,.13.21c0,.06,0,.15,0,.25s0,.17,0,.24v.28c0,.09-.07.18-.09.29s0,.18,0,.27a1.61,1.61,0,0,1-.09.26,1.71,1.71,0,0,0-.09.27,2.56,2.56,0,0,0-.09.26,2.5,2.5,0,0,0-.16.24c0,.07-.05.16-.09.24s-.08.19-.12.26a1.76,1.76,0,0,0-.14.23,1.53,1.53,0,0,1-.17.23c-.06.08-.09.16-.15.24a1.35,1.35,0,0,1-.21.2l-.14.22c-.13.18,0,.34.17.26a1.73,1.73,0,0,1,.24-.13c.07-.05.15-.09.22-.15a1.09,1.09,0,0,0,.22-.17l.21-.16a2.09,2.09,0,0,0,.22-.16A1,1,0,0,0,45.7,9a2.59,2.59,0,0,0,.21-.18l.19-.19c0-.07.06-.17.14-.24s.13-.13.18-.2A.87.87,0,0,0,46.59,8c.07-.08.1-.16.16-.22.2-.23.46.14.26.47,0,0-.11.1-.17.18s-.09.15-.15.22a1.75,1.75,0,0,1-.16.2.89.89,0,0,1-.16.21.71.71,0,0,1-.17.21,1.68,1.68,0,0,0-.18.21c-.06,0-.15.09-.21.14s-.13.11-.2.19-.13.11-.21.17l-.18.17-.25.13-.22.13-.22.13a1.76,1.76,0,0,1-.23.14l-.25.1a1.23,1.23,0,0,1-.23.09c-.09,0-.17,0-.26.08a1.68,1.68,0,0,0-.24.07l-.26.1h-.27l-.26.05h-.78Zm2.63-5.53c-.08,0-.13.11-.22.15a.68.68,0,0,0-.24.12,1.39,1.39,0,0,1-.19.15.85.85,0,0,0-.19.19,1.4,1.4,0,0,0-.22.14,2.18,2.18,0,0,1-.17.21c0,.08-.12.13-.17.21a1.29,1.29,0,0,0-.17.21l-.17.19c0,.06-.09.14-.15.21a1.09,1.09,0,0,0-.14.23,1.16,1.16,0,0,0-.13.22c0,.08-.09.14-.13.22a1.4,1.4,0,0,1-.16.22,1.73,1.73,0,0,0-.08.27c0,.07-.09.14-.1.22s-.09.17-.12.25,0,.18,0,.27-.05.17-.06.25,0,.18,0,.26a2.4,2.4,0,0,0,0,.24.69.69,0,0,0,.13.21.39.39,0,0,0,.25.08.63.63,0,0,0,.27,0l.25-.12.22-.14a1.24,1.24,0,0,1,.23-.17,1.29,1.29,0,0,1,.21-.19l.18-.19.22-.16a1.8,1.8,0,0,1,.19-.21,1.28,1.28,0,0,1,.17-.22c0-.07.09-.16.14-.23s.13-.13.2-.21l.16-.2A1.94,1.94,0,0,0,44.51,8a1.36,1.36,0,0,1,.11-.25,2.6,2.6,0,0,1,.13-.24l.11-.24c0-.1.1-.16.11-.26A1,1,0,0,0,45,6.76a.63.63,0,0,0,0-.27.84.84,0,0,0,.07-.26,2.91,2.91,0,0,0,0-.31.45.45,0,0,0-.17-.23.34.34,0,0,0-.28-.09Z"/><path d="M53.44,8.23a1.53,1.53,0,0,1-.16.22l-.15.23c-.05.08-.14.11-.2.19s-.09.16-.14.24-.14.11-.19.19-.09.16-.16.22-.13.14-.18.21-.12.14-.17.2a1.84,1.84,0,0,1-.22.17,1.84,1.84,0,0,1-.19.2,1.92,1.92,0,0,0-.18.22c-.07.05-.17.06-.25.11s-.13.15-.19.2l-.25.13a1.34,1.34,0,0,1-.26.09,2.58,2.58,0,0,1-.26.08,2.44,2.44,0,0,1-.26.06.92.92,0,0,1-.29,0,2.07,2.07,0,0,1-.25-.15.6.6,0,0,1-.21-.21.73.73,0,0,1-.15-.25.92.92,0,0,1,0-.29,2.36,2.36,0,0,1,0-.28,2.68,2.68,0,0,1,.07-.27,1.45,1.45,0,0,1,.07-.26,1.83,1.83,0,0,1,.13-.24A1.58,1.58,0,0,1,49.56,9c0-.07.14-.11.19-.19a1.92,1.92,0,0,1,.12-.25l.19-.19c.06-.08.1-.16.16-.23s.14-.13.19-.2a1.73,1.73,0,0,0,.17-.21l.17-.22c.06-.07.14-.12.19-.19a1.18,1.18,0,0,0,.18-.21c.07-.07.08-.16.14-.24a1.57,1.57,0,0,0,.17-.21,2,2,0,0,0,.14-.23.72.72,0,0,0,.12-.25.68.68,0,0,0,.07-.27.41.41,0,0,0-.09-.21.35.35,0,0,0-.21,0,.87.87,0,0,0-.26,0,1.36,1.36,0,0,0-.27,0c-.08,0-.16.06-.25.11s-.13.12-.22.17-.17,0-.24.11-.12.14-.2.19-.17.08-.25.14l-.2.16a1.81,1.81,0,0,1-.21.18c-.06.06-.12.14-.18.19s-.16.11-.22.17-.12.14-.18.21l-.2.18c-.06.07-.11.14-.18.21s-.15.1-.22.17a1.57,1.57,0,0,1-.18.19c-.06.06-.1.16-.17.22a2.65,2.65,0,0,1-.17.22,1.09,1.09,0,0,1-.19.18,1.57,1.57,0,0,1-.17.21l-.15.22a1.63,1.63,0,0,0-.17.22,1.57,1.57,0,0,0-.18.19c0,.08-.13.13-.18.21a1.18,1.18,0,0,0-.17.22c-.05.06-.08.17-.13.23s-.12.15-.17.22-.14.12-.19.2-.08.17-.13.23c-.15.21-.39.25-.53,0a1,1,0,0,1-.11-.23,1.06,1.06,0,0,1,0-.25.6.6,0,0,1,0-.23,1.56,1.56,0,0,1,.21-.43c.07-.1,0-.13.11-.24s.09-.1.17-.21.09-.11.17-.21.06-.12.14-.23.09-.11.17-.21.05-.13.13-.23l.15-.22a2.09,2.09,0,0,1,.16-.22,1.7,1.7,0,0,1,.15-.22l.16-.22c.08-.11.1-.09.18-.21a1.18,1.18,0,0,0,.14-.22c.08-.1.05-.13.13-.23a2.09,2.09,0,0,1,.16-.22,1.93,1.93,0,0,1,.17-.21,1.26,1.26,0,0,1,.13-.23c.07-.12.1-.11.18-.21a1.26,1.26,0,0,1,.13-.23,1.21,1.21,0,0,1,.15-.22c.25-.26.47-.2.58,0a.81.81,0,0,1,0,.31,1.71,1.71,0,0,1,0,.3c0,.23.16.28.46,0,.06-.06.15-.11.22-.17a1.92,1.92,0,0,1,.22-.18L50,5.7l.25-.14.23-.14a1.83,1.83,0,0,1,.26-.11L51,5.22l.27-.06a.86.86,0,0,1,.28,0,.92.92,0,0,1,.25.06.71.71,0,0,1,.25.11.47.47,0,0,1,.18.19.63.63,0,0,1,.12.23,1.18,1.18,0,0,1,0,.28,2.51,2.51,0,0,1,0,.27,1.09,1.09,0,0,1,0,.26,1.36,1.36,0,0,1-.13.24,2.6,2.6,0,0,1-.1.25l-.13.23c0,.08-.07.17-.11.25a1.8,1.8,0,0,1-.18.2c0,.08-.06.17-.11.25s-.16.12-.21.18-.08.17-.13.25L51,8.56c-.05.08-.11.14-.16.22s-.06.18-.1.25-.14.13-.18.21,0,.18-.09.25-.12.16-.15.24a1.22,1.22,0,0,0,0,.27.47.47,0,0,0,0,.21.19.19,0,0,0,.18.07.8.8,0,0,0,.26,0,1.79,1.79,0,0,0,.24-.12l.24-.13.2-.17.19-.19c.06-.07.1-.15.16-.22s.16-.09.22-.17L52.22,9l.17-.21c0-.06.09-.15.14-.22a2.09,2.09,0,0,0,.16-.22c.06-.06.11-.13.17-.2L53,8a2.65,2.65,0,0,1,.17-.22C53.34,7.58,53.61,7.88,53.44,8.23Z"/><circle cx="54.54" cy="15.08" r="1.21"/></svg>