<?xml version="1.0" encoding="utf-8"?>
<!-- Generator: Adobe Illustrator 21.1.0, SVG Export Plug-In . SVG Version: 6.00 Build 0)  -->
<!DOCTYPE svg PUBLIC "-//W3C//DTD SVG 1.1//EN" "http://www.w3.org/Graphics/SVG/1.1/DTD/svg11.dtd">
<svg version="1.1" id="Layer_1" xmlns="http://www.w3.org/2000/svg" xmlns:xlink="http://www.w3.org/1999/xlink" x="0px" y="0px"
	 viewBox="0 0 40 40" style="enable-background:new 0 0 40 40;" xml:space="preserve">
<style type="text/css">
	.st0{fill:#231F20;}
	.st1{fill:#EAE0D7;}
	.st2{fill:url(#SVGID_1_);}
	.st3{fill:#231F20;stroke:#231F20;stroke-width:0.5155;stroke-miterlimit:10;}
	.st4{fill:url(#SVGID_2_);}
</style>
<g>
	<g>
		<g>
			<g>
				<path class="st0" d="M38.2,1.6c-0.7-0.7-1.7-1.1-2.7-1.1H4.3c-1.1,0-2,0.4-2.8,1.2C0.8,2.4,0.4,3.3,0.4,4.4v31.2
					c0,1.1,0.4,2,1.2,2.8c0.7,0.7,1.7,1.1,2.7,1.1h31.2c1.1,0,2-0.4,2.8-1.2c0.7-0.7,1.1-1.7,1.1-2.7V4.4C39.4,3.3,39,2.4,38.2,1.6z
					"/>
			</g>
		</g>
		<path class="st1" d="M36,3.9c-0.6-0.6-1.5-1-2.4-1H6.2c-0.9,0-1.8,0.3-2.4,1c-0.6,0.6-1,1.5-1,2.4v27.4c0,0.9,0.3,1.8,1,2.4
			c0.6,0.6,1.5,1,2.4,1h27.4c0.9,0,1.8-0.3,2.4-1c0.6-0.6,1-1.5,1-2.4V6.3C37,5.4,36.7,4.5,36,3.9z"/>
	</g>
</g>
<g>
	<linearGradient id="SVGID_1_" gradientUnits="userSpaceOnUse" x1="7.523" y1="29.1033" x2="13.9156" y2="29.1033">
		<stop  offset="4.969952e-02" style="stop-color:#9E611C"/>
		<stop  offset="0.3478" style="stop-color:#D1B594"/>
		<stop  offset="0.3756" style="stop-color:#CBAB86"/>
		<stop  offset="0.4475" style="stop-color:#BD9465"/>
		<stop  offset="0.5254" style="stop-color:#B2814A"/>
		<stop  offset="0.6101" style="stop-color:#A97336"/>
		<stop  offset="0.7051" style="stop-color:#A36927"/>
		<stop  offset="0.8187" style="stop-color:#9F631F"/>
		<stop  offset="1" style="stop-color:#9E611C"/>
	</linearGradient>
	<polygon class="st2" points="7.5,25.9 13.9,25.9 12.9,32.4 8.3,32.4 	"/>
	<path class="st3" d="M14.2,24.5c-0.3,0-0.3,0.1-0.3,0.1l-1.1,7c0,0.1-0.2,0.2-0.3,0.2H9c-0.2,0-0.3-0.1-0.3-0.2l-1.1-7
		c0,0-0.1-0.1-0.3-0.1s-0.5,0.2-0.4,0.3l1.4,7.7c0,0.2,0.2,0.3,0.4,0.3H13c0.2,0,0.4-0.1,0.4-0.3l1.4-7.7
		C14.7,24.7,14.5,24.5,14.2,24.5z"/>
</g>
<g>
	<linearGradient id="SVGID_2_" gradientUnits="userSpaceOnUse" x1="17.6623" y1="21.0058" x2="32.5052" y2="21.0058">
		<stop  offset="4.969952e-02" style="stop-color:#9E611C"/>
		<stop  offset="0.3478" style="stop-color:#D1B594"/>
		<stop  offset="0.3756" style="stop-color:#CBAB86"/>
		<stop  offset="0.4475" style="stop-color:#BD9465"/>
		<stop  offset="0.5254" style="stop-color:#B2814A"/>
		<stop  offset="0.6101" style="stop-color:#A97336"/>
		<stop  offset="0.7051" style="stop-color:#A36927"/>
		<stop  offset="0.8187" style="stop-color:#9F631F"/>
		<stop  offset="1" style="stop-color:#9E611C"/>
	</linearGradient>
	<path class="st4" d="M31.9,16.3H18.3c-0.1,0.3-0.2,0.6-0.3,0.9c-1.1,3.9,0.3,6.9,3.7,8.2c0.2,0.1,1.2,0.2,2.8,0.2l3,0
		c0.2,0,0.5,0,0.7-0.1c3.5-1.3,5-4.1,4-8C32.1,17.1,32,16.7,31.9,16.3z"/>
	<path d="M28.2,25.8c4.2-1.3,6.1-4.3,4.9-8.5c-0.6-2.3-1.7-4.5-2.6-6.8c-0.1-0.1-0.4-0.2-0.6-0.2c-0.1,0-0.3,0.1-0.3,0.2
		c0.7,2.1,1.6,4,2.1,6.1c0.9,3.9-0.5,6.7-3.7,8c-0.2,0.1-0.4,0.1-0.7,0.1l-2.8,0c-1.4,0-2.4-0.2-2.5-0.2c-3.1-1.4-4.4-4.4-3.4-8.2
		c0.5-2.1,1.3-3.8,2-5.8c0-0.1-0.2-0.2-0.3-0.2c-0.2,0-0.6,0.1-0.6,0.3c-0.9,2.1-1.8,4.2-2.5,6.4c-1.2,4,0.4,7.2,4.1,8.6
		c0.7,0.3,1.3,0.5,1.9,1.2c1.3,1.5,1,3.8-0.7,4.7c-0.5,0.3-1.1,0.4-1.7,0.6c-0.2,0.1-0.3,0.2-0.4,0.4c0.2,0.1,0.3,0.2,0.5,0.2
		c2.8,0,5.7,0,8.5,0c0.1,0,0.3-0.2,0.4-0.3c-0.1-0.1-0.2-0.3-0.4-0.3c-0.6-0.2-1.3-0.4-1.9-0.7c-1.1-0.5-1.5-1.4-1.4-2.7
		C26.4,27.3,27.3,26.1,28.2,25.8z"/>
</g>
</svg>
