<?xml version="1.0" encoding="utf-8"?>
<!-- Generator: Adobe Illustrator 22.1.0, SVG Export Plug-In . SVG Version: 6.00 Build 0)  -->
<!DOCTYPE svg PUBLIC "-//W3C//DTD SVG 1.1//EN" "http://www.w3.org/Graphics/SVG/1.1/DTD/svg11.dtd">
<svg version="1.1" id="Layer_1" xmlns="http://www.w3.org/2000/svg" xmlns:xlink="http://www.w3.org/1999/xlink" x="0px" y="0px"
	 width="40px" height="40px" viewBox="0 0 40 40" style="enable-background:new 0 0 40 40;" xml:space="preserve">
<style type="text/css">
	.st0{fill:#231F20;}
	.st1{fill:url(#SVGID_1_);}
	.st2{fill:url(#SVGID_2_);}
</style>
<g>
	<g>
		<g>
			<g>
				<path class="st0" d="M38.2,1.6c-0.7-0.7-1.7-1.1-2.7-1.1H4.3c-1.1,0-2,0.4-2.8,1.2C0.8,2.4,0.4,3.3,0.4,4.4v31.2
					c0,1.1,0.4,2,1.2,2.8c0.7,0.7,1.7,1.1,2.7,1.1h31.2c1.1,0,2-0.4,2.8-1.2c0.7-0.7,1.1-1.7,1.1-2.7V4.4C39.4,3.3,39,2.4,38.2,1.6z
					"/>
			</g>
		</g>
		
			<linearGradient id="SVGID_1_" gradientUnits="userSpaceOnUse" x1="19.9" y1="4.9" x2="19.9" y2="39.1" gradientTransform="matrix(1 0 0 -1 0 42)">
			<stop  offset="0" style="stop-color:#FFFFFF"/>
			<stop  offset="1" style="stop-color:#6E809C"/>
		</linearGradient>
		<path class="st1" d="M36,3.9c-0.6-0.6-1.5-1-2.4-1H6.2c-0.9,0-1.8,0.3-2.4,1c-0.6,0.6-1,1.5-1,2.4v27.4c0,0.9,0.3,1.8,1,2.4
			c0.6,0.6,1.5,1,2.4,1h27.4c0.9,0,1.8-0.3,2.4-1c0.6-0.6,1-1.5,1-2.4V6.3C37,5.4,36.7,4.5,36,3.9z"/>
	</g>
</g>
<linearGradient id="SVGID_2_" gradientUnits="userSpaceOnUse" x1="11.9061" y1="266.9" x2="28.3674" y2="266.9" gradientTransform="matrix(1 0 0 1 0 -246)">
	<stop  offset="4.969952e-02" style="stop-color:#D67100"/>
	<stop  offset="0.3478" style="stop-color:#D1B594"/>
	<stop  offset="0.3756" style="stop-color:#CBAB86"/>
	<stop  offset="0.4475" style="stop-color:#BD9465"/>
	<stop  offset="0.5254" style="stop-color:#B2814A"/>
	<stop  offset="0.6101" style="stop-color:#A97336"/>
	<stop  offset="0.7051" style="stop-color:#A36927"/>
	<stop  offset="0.8187" style="stop-color:#9F631F"/>
	<stop  offset="1" style="stop-color:#CF7918"/>
</linearGradient>
<path class="st2" d="M27.7,15.7h-15c-0.1,0.3-0.2,0.7-0.3,1c-1.2,4.3,0.4,7.6,4.1,9.1c0.2,0.1,1.3,0.2,3.1,0.3h3.3
	c0.3,0,0.6,0,0.8-0.1c3.8-1.5,5.5-4.6,4.4-8.9C27.9,16.6,27.8,16.2,27.7,15.7z"/>
<path d="M23.6,26.2c4.7-1.4,6.7-4.8,5.5-9.5c-0.7-2.6-1.9-5-2.8-7.5C26.2,9.1,25.8,9,25.6,9c-0.1,0-0.3,0.1-0.3,0.3
	c0.8,2.3,1.7,4.4,2.3,6.8c1,4.3-0.5,7.5-4.1,8.9c-0.2,0.1-0.5,0.1-0.7,0.1h-3.1c-1.6,0-2.6-0.2-2.8-0.3c-3.4-1.5-4.9-4.8-3.8-9.1
	c0.6-2.3,1.5-4.2,2.2-6.5C15.3,9.1,15.1,9,15,9c-0.2,0-0.6,0.2-0.7,0.3c-0.9,2.3-2,4.7-2.7,7.1c-1.3,4.5,0.4,7.9,4.6,9.5
	c0.8,0.3,1.5,0.6,2.1,1.3c1.5,1.6,1.1,4.2-0.8,5.2c-0.6,0.3-1.2,0.4-1.9,0.7c-0.2,0.1-0.3,0.3-0.5,0.4c0.2,0.1,0.3,0.3,0.5,0.3
	c3.2,0,6.3,0,9.5,0c0.2,0,0.3-0.2,0.5-0.3c-0.1-0.1-0.3-0.3-0.4-0.4c-0.7-0.3-1.4-0.5-2.1-0.8c-1.2-0.6-1.7-1.5-1.6-3
	C21.6,27.9,22.6,26.5,23.6,26.2z"/>
</svg>
