<?xml version="1.0" encoding="utf-8"?>
<!-- Generator: Adobe Illustrator 22.1.0, SVG Export Plug-In . SVG Version: 6.00 Build 0)  -->
<!DOCTYPE svg PUBLIC "-//W3C//DTD SVG 1.1//EN" "http://www.w3.org/Graphics/SVG/1.1/DTD/svg11.dtd">
<svg version="1.1" id="Layer_1" xmlns="http://www.w3.org/2000/svg" xmlns:xlink="http://www.w3.org/1999/xlink" x="0px" y="0px"
	 width="40px" height="29.3px" viewBox="0 0 40 29.3" style="enable-background:new 0 0 40 29.3;" xml:space="preserve">
<style type="text/css">
	.st0{fill:#593000;}
</style>
<path class="st0" d="M31.1,12.8c-0.8,0-1.6,0.2-2.4,0.5c-0.1-0.2-0.1-0.5-0.2-0.7c-0.3-1-0.6-2-0.8-2.8c-0.2-0.8-0.5-1.3-0.5-1.7
	c-0.1-0.3,0.3-0.3,0.7-0.6c0.3-0.2,0.5-0.6,0.6-1c0.1-0.4,0-0.7-0.2-1c-0.6-0.9-1.1-0.9-1.9-0.9c-1,0-2.6,0-2.6,0l0,1.6l2.5,0
	c0.3,0,0.4,0.4-0.1,0.6c-0.3,0.1-0.5,0.4-0.6,0.7c-0.1,0.4,0,0.7,0.1,1.1c0,0.1,0.1,0.3,0.2,0.7L14.6,9.4l-0.7-1.6
	c0.7-0.2,2.5-0.6,2.7-0.8c0.3-0.3,0-0.6-0.2-0.6h-5.9c0.1,1.3,1.1,1.6,1.6,1.7l0.6,1.6c-0.1,0.1-0.1,0.1-0.2,0.2l-2,3.6
	C10,13.1,9.2,13,8.4,13c-3.4,0-6.2,2.8-6.2,6.2s2.8,6.2,6.2,6.2c3.2,0,5.9-2.5,6.2-5.6h0.6c0.2,0.6,0.7,1.2,1.3,1.4l-0.3,0.7l-1.1,0
	c-0.2,0-0.4,0.2-0.4,0.4c0,0.2,0.2,0.4,0.4,0.4c0,0,0,0,0,0l2.5,0c0.2,0,0.4-0.2,0.4-0.4c0-0.2-0.2-0.4-0.4-0.4l-0.7,0l0.2-0.5
	c0.2,0,0.4,0.1,0.6,0.1c1.4,0,2.6-1.1,2.6-2.4c0-0.3,0-0.5-0.1-0.8l7-4.7c0.1,0.2,0.1,0.4,0.2,0.7c-1.4,1.1-2.3,2.9-2.3,4.8
	c0,3.4,2.8,6.2,6.2,6.2c3.4,0,6.2-2.8,6.2-6.2C37.3,15.6,34.5,12.8,31.1,12.8L31.1,12.8z M26.2,10.7c0.1,0.4,0.3,0.9,0.4,1.4l-7.4,5
	C19.1,17.1,19,17,18.9,17l0.3-0.7l1.1,0c0.2,0,0.4-0.2,0.4-0.4c0-0.2-0.2-0.4-0.4-0.4c0,0,0,0,0,0l-2.5,0c-0.2,0-0.4,0.2-0.4,0.4
	c0,0.2,0.2,0.4,0.4,0.4c0,0,0,0,0,0l0.7,0l-0.2,0.5c-0.2-0.1-0.5-0.1-0.7-0.1c0,0,0,0-0.1,0l-2.4-5.9L26.2,10.7z M13.5,11.2l2.5,6.1
	c-0.4,0.3-0.6,0.7-0.8,1.1h-0.6c-0.2-1.8-1.2-3.3-2.6-4.3L13.5,11.2z M12.7,18.3H9.6l1.4-2.7C11.9,16.3,12.5,17.3,12.7,18.3
	L12.7,18.3z M8.4,23.5c-2.4,0-4.4-2-4.4-4.4s2-4.4,4.4-4.4c0.5,0,1,0.1,1.5,0.2l-2,3.7c-0.1,0.2-0.1,0.5,0,0.7s0.4,0.3,0.6,0.3h4.3
	C12.4,21.9,10.6,23.5,8.4,23.5L8.4,23.5z M31.1,23.4c-2.4,0-4.4-2-4.4-4.4c0-1.1,0.4-2.1,1.1-2.9c0.1,0.2,0.1,0.5,0.2,0.6
	c0.1,0.3,0.1,0.4,0.2,0.6l0,0.1l0,0.1c0,0,0.3,0.8,1.1,1.5l0,0l0,0c0.5,0.5,1,0.6,1.3,0.7c0.3,0.1,0.7,0,1-0.3
	c0.2-0.2,0-0.7-0.3-0.9c-0.1-0.1-0.5-0.4-0.9-0.7c-0.4-0.3-0.4-0.6-0.7-1c0,0-0.1-0.2-0.1-0.4c-0.1-0.2-0.2-0.6-0.3-1
	c0-0.1-0.1-0.2-0.1-0.3c0.6-0.3,1.2-0.4,1.9-0.4c2.4,0,4.4,2,4.4,4.4C35.5,21.5,33.5,23.4,31.1,23.4L31.1,23.4z"/>
</svg>
