<?xml version="1.0" encoding="utf-8"?>
<!-- Generator: Adobe Illustrator 21.1.0, SVG Export Plug-In . SVG Version: 6.00 Build 0)  -->
<!DOCTYPE svg PUBLIC "-//W3C//DTD SVG 1.1//EN" "http://www.w3.org/Graphics/SVG/1.1/DTD/svg11.dtd">
<svg version="1.1" id="Layer_1" xmlns="http://www.w3.org/2000/svg" xmlns:xlink="http://www.w3.org/1999/xlink" x="0px" y="0px"
	 viewBox="0 0 40 40" style="enable-background:new 0 0 40 40;" xml:space="preserve">
<style type="text/css">
	.st0{fill:#231F20;}
	.st1{fill:#FFF64C;}
	.st2{fill:#FAB461;}
	.st3{fill:#FDDFBB;}
	.st4{fill:#0D0D0D;}
	.st5{fill:#CCEDDC;}
	.st6{fill:#CCEFFC;}
	.st7{fill:#EC1C24;stroke:#231F20;stroke-width:4.0987;stroke-linecap:round;stroke-linejoin:round;}
	.st8{fill:#FFFFFF;}
	.st9{fill:#231F20;stroke:#231F20;stroke-width:0.65;}
	.st10{fill:#FFFFFF;stroke:#231F20;stroke-width:1.4622;stroke-linecap:round;stroke-linejoin:round;}
	.st11{fill:#FFFBD4;}
	.st12{opacity:0.7;}
	.st13{fill:#808080;stroke:#1A1A1A;stroke-width:3;stroke-linecap:round;stroke-linejoin:round;}
	.st14{fill:#FFCACA;}
	.st15{fill:#231F20;stroke:#1A1A1A;}
	.st16{fill:#EAE0D7;}
</style>
<g>
	<g>
		<g>
			<g>
				<path class="st0" d="M38.4,1.6c-0.7-0.7-1.7-1.1-2.7-1.1H4.5c-1.1,0-2,0.4-2.8,1.2C1,2.4,0.6,3.3,0.6,4.3v31.2
					c0,1.1,0.4,2,1.2,2.8c0.7,0.7,1.6,1.1,2.7,1.1h31.2c1.1,0,2-0.4,2.8-1.2c0.7-0.7,1.1-1.7,1.1-2.7V4.3
					C39.6,3.3,39.2,2.4,38.4,1.6z"/>
				<path class="st1" d="M37.2,33.6V6.3c0-0.9-0.3-1.7-1-2.4c-0.6-0.6-1.5-1-2.4-1H6.4c-0.9,0-1.7,0.3-2.4,1C3.3,4.5,3,5.3,3,6.3
					v27.4c0,0.9,0.3,1.7,1,2.4c0.6,0.6,1.5,1,2.4,1h27.4c0.9,0,1.7-0.3,2.4-1C36.9,35.4,37.2,34.6,37.2,33.6z"/>
			</g>
		</g>
	</g>
	<path class="st0" d="M27,12.2L24.2,10V5.6C23,6.1,21.1,8,21.6,10.7c0.1,0.8,0.7,2.8,0.4,3.9c-0.3,1.5-0.5,1.5-2.6,4.1L9,31.3
		c-0.7,0.8-0.6,2,0.2,2.7c0.8,0.7,2,0.6,2.7-0.2l13.1-16.1c0.8-1,2.3-1.9,3.7-2.3c2.3-0.7,3.9-2.8,3.9-5.3c0-2-1.2-3.9-2.7-4.7
		l0,4.4L27,12.2z"/>
</g>
</svg>
