<?xml version="1.0" encoding="utf-8"?>
<!-- Generator: Adobe Illustrator 21.1.0, SVG Export Plug-In . SVG Version: 6.00 Build 0)  -->
<!DOCTYPE svg PUBLIC "-//W3C//DTD SVG 1.1//EN" "http://www.w3.org/Graphics/SVG/1.1/DTD/svg11.dtd">
<svg version="1.1" id="Layer_1" xmlns="http://www.w3.org/2000/svg" xmlns:xlink="http://www.w3.org/1999/xlink" x="0px" y="0px"
	 viewBox="0 0 40 40" style="enable-background:new 0 0 40 40;" xml:space="preserve">
<style type="text/css">
	.st0{fill:#231F20;}
	.st1{fill:#EAE0D7;}
	.st2{fill:#DDC18A;}
	.st3{fill:#E8DBC1;}
</style>
<g>
	<g>
		<g>
			<g>
				<path class="st0" d="M38.2,1.6c-0.7-0.7-1.7-1.1-2.7-1.1H4.3c-1.1,0-2,0.4-2.8,1.2C0.8,2.4,0.4,3.3,0.4,4.4v31.2
					c0,1.1,0.4,2,1.2,2.8c0.7,0.7,1.7,1.1,2.7,1.1h31.2c1.1,0,2-0.4,2.8-1.2c0.7-0.7,1.1-1.7,1.1-2.7V4.4C39.4,3.3,39,2.4,38.2,1.6z
					"/>
			</g>
		</g>
		<path class="st1" d="M36,3.9c-0.6-0.6-1.5-1-2.4-1H6.2c-0.9,0-1.8,0.3-2.4,1c-0.6,0.6-1,1.5-1,2.4v27.4c0,0.9,0.3,1.8,1,2.4
			c0.6,0.6,1.5,1,2.4,1h27.4c0.9,0,1.8-0.3,2.4-1c0.6-0.6,1-1.5,1-2.4V6.3C37,5.4,36.7,4.5,36,3.9z"/>
	</g>
</g>
<g>
	<polygon class="st2" points="11.4,10.7 25.1,10.7 25.5,29.2 11.1,29.2 	"/>
	<path class="st0" d="M31.8,12.1h-4.4c-0.6,0-1-0.4-1-1V9.2c0-0.6-0.4-1-1-1h0c-0.6,0-1,0.4-1,1v18.6c0,0.6-0.4,1-1,1H13.2
		c-0.6,0-1-0.4-1-1V9.2c0-0.6-0.4-1-1-1h0c-0.6,0-1,0.4-1,1v22.3c0,0.6,0.4,1,1,1h14.2c0.6,0,1-0.4,1-1v-3.7c0-0.6,0.4-1,1-1h4.4
		c0.6,0,1-0.4,1-1V13.1C32.8,12.5,32.3,12.1,31.8,12.1z M29.8,24.8h-3.4V14.1h3.4c0.6,0,1,0.4,1,1v8.8
		C30.8,24.4,30.3,24.8,29.8,24.8z"/>
	<circle class="st3" cx="16.1" cy="14.1" r="1.2"/>
	<circle class="st3" cx="18.8" cy="16.9" r="0.7"/>
	<circle class="st3" cx="17.1" cy="20.2" r="0.5"/>
	<circle class="st3" cx="18.5" cy="22.8" r="0.3"/>
	<circle class="st3" cx="17.4" cy="26.3" r="0.1"/>
	<circle class="st3" cx="18" cy="24.9" r="0.2"/>
</g>
</svg>
