<?xml version="1.0" encoding="utf-8"?>
<!-- Generator: Adobe Illustrator 21.1.0, SVG Export Plug-In . SVG Version: 6.00 Build 0)  -->
<!DOCTYPE svg PUBLIC "-//W3C//DTD SVG 1.1//EN" "http://www.w3.org/Graphics/SVG/1.1/DTD/svg11.dtd">
<svg version="1.1" id="Layer_1" xmlns="http://www.w3.org/2000/svg" xmlns:xlink="http://www.w3.org/1999/xlink" x="0px" y="0px"
	 viewBox="0 0 40 40" style="enable-background:new 0 0 40 40;" xml:space="preserve">
<style type="text/css">
	.st0{fill:#231F20;}
	.st1{fill:#EAE0D7;}
	.st2{fill:#41D000;}
	.st3{fill:#FF5477;}
	.st4{fill:#9A4D00;}
	.st5{fill:#DDC18A;}
	.st6{fill:#E8DBC1;}
</style>
<g>
	<g>
		<g>
			<g>
				<path class="st0" d="M38.4,1.6c-0.7-0.7-1.7-1.1-2.7-1.1H4.5c-1.1,0-2,0.4-2.8,1.2C1,2.4,0.6,3.3,0.6,4.4v31.2
					c0,1.1,0.4,2,1.2,2.8c0.7,0.7,1.7,1.1,2.7,1.1h31.2c1.1,0,2-0.4,2.8-1.2c0.7-0.7,1.1-1.7,1.1-2.7V4.4
					C39.6,3.3,39.2,2.4,38.4,1.6z"/>
			</g>
		</g>
		<path class="st1" d="M36.1,3.8c-0.6-0.6-1.5-1-2.4-1H6.4c-0.9,0-1.8,0.3-2.4,1C3.3,4.5,3,5.3,3,6.3v27.4c0,0.9,0.3,1.8,1,2.4
			c0.6,0.6,1.5,1,2.4,1h27.4c0.9,0,1.8-0.3,2.4-1c0.6-0.6,1-1.5,1-2.4V6.3C37.2,5.3,36.8,4.5,36.1,3.8z"/>
	</g>
	<g>
		<rect x="5.3" y="24.2" class="st2" width="11.4" height="2"/>
		<rect x="5.4" y="28.2" class="st3" width="11.4" height="2"/>
		<path class="st0" d="M16.9,24.4c0,0,0.2-2.9-3.1-2.9H8.4c-3.4,0-3.1,2.9-3.1,2.9H16.9z"/>
		<path class="st0" d="M5.4,29.8c0,0-0.2,2.9,3.1,2.9h5.3c3.4,0,3.1-2.9,3.1-2.9S5.4,29.8,5.4,29.8z"/>
		<path class="st4" d="M16.4,28.4c0.6,0,1-0.6,1-1.3c0-0.7-0.5-1.3-1-1.3H5.8c-0.6,0-1,0.6-1,1.3c0,0.7,0.5,1.3,1,1.3H16.4z"/>
		<g>
			<polygon class="st5" points="19.4,12.6 33,12.6 30.7,31.1 21.3,31.1 			"/>
			<path class="st0" d="M33.7,8.8C33,8.7,33,9.1,33,9.1L30.6,29c0,0.4-0.4,0.7-0.7,0.7h-7.4c-0.4,0-0.7-0.3-0.7-0.7L19.4,9.1
				c0,0-0.2-0.4-0.7-0.3c-0.5,0.1-1,0.5-0.9,1l3,22c0.1,0.5,0.4,0.8,0.9,0.8h9.1c0.5,0,0.8-0.3,0.9-0.8l3-22
				C34.6,9.3,34.2,8.9,33.7,8.8z"/>
			<circle class="st6" cx="24.1" cy="15.9" r="1.2"/>
			<circle class="st6" cx="26.8" cy="18.7" r="0.7"/>
			<circle class="st6" cx="25" cy="22.1" r="0.5"/>
			<circle class="st6" cx="26.5" cy="24.6" r="0.3"/>
			<circle class="st6" cx="25.3" cy="28.2" r="0.1"/>
			<circle class="st6" cx="25.9" cy="26.8" r="0.2"/>
		</g>
	</g>
</g>
</svg>
