<?xml version="1.0" encoding="utf-8"?>
<!-- Generator: Adobe Illustrator 22.1.0, SVG Export Plug-In . SVG Version: 6.00 Build 0)  -->
<!DOCTYPE svg PUBLIC "-//W3C//DTD SVG 1.1//EN" "http://www.w3.org/Graphics/SVG/1.1/DTD/svg11.dtd">
<svg version="1.1" id="Layer_1" xmlns="http://www.w3.org/2000/svg" xmlns:xlink="http://www.w3.org/1999/xlink" x="0px" y="0px"
	 width="40px" height="40px" viewBox="0 0 40 40" style="enable-background:new 0 0 40 40;" xml:space="preserve">
<style type="text/css">
	.st0{fill:#231F20;}
	.st1{fill:#EAE0D7;}
	.st2{fill:#DDC18A;}
	.st3{fill:#E8DBC1;}
	.st4{fill:#5C3C13;}
	.st5{opacity:0.33;fill:#FF8800;enable-background:new    ;}
</style>
<g>
	<g>
		<g>
			<g>
				<path class="st0" d="M38.2,1.6c-0.7-0.7-1.7-1.1-2.7-1.1H4.3c-1.1,0-2,0.4-2.8,1.2C0.8,2.4,0.4,3.3,0.4,4.4v31.2
					c0,1.1,0.4,2,1.2,2.8c0.7,0.7,1.7,1.1,2.7,1.1h31.2c1.1,0,2-0.4,2.8-1.2c0.7-0.7,1.1-1.7,1.1-2.7V4.4C39.4,3.3,39,2.4,38.2,1.6z
					"/>
			</g>
		</g>
		<path class="st1" d="M36,3.9c-0.6-0.6-1.5-1-2.4-1H6.2c-0.9,0-1.8,0.3-2.4,1c-0.6,0.6-1,1.5-1,2.4v27.4c0,0.9,0.3,1.8,1,2.4
			c0.6,0.6,1.5,1,2.4,1h27.4c0.9,0,1.8-0.3,2.4-1c0.6-0.6,1-1.5,1-2.4V6.3C37,5.4,36.7,4.5,36,3.9z"/>
	</g>
</g>
<g>
	<polygon class="st2" points="14.2,10.7 27.9,10.7 28.3,29.2 13.9,29.2 	"/>
	<path class="st0" d="M34.6,12.1h-4.4c-0.6,0-1-0.4-1-1V9.2c0-0.6-0.4-1-1-1l0,0c-0.6,0-1,0.4-1,1v18.6c0,0.6-0.4,1-1,1H16
		c-0.6,0-1-0.4-1-1V9.2c0-0.6-0.4-1-1-1l0,0c-0.6,0-1,0.4-1,1v22.3c0,0.6,0.4,1,1,1h14.2c0.6,0,1-0.4,1-1v-3.7c0-0.6,0.4-1,1-1h4.4
		c0.6,0,1-0.4,1-1V13.1C35.6,12.5,35.1,12.1,34.6,12.1z M32.6,24.8h-3.4V14.1h3.4c0.6,0,1,0.4,1,1v8.8
		C33.6,24.4,33.1,24.8,32.6,24.8z"/>
	<circle class="st3" cx="18.9" cy="14.1" r="1.2"/>
	<circle class="st3" cx="21.6" cy="16.9" r="0.7"/>
	<circle class="st3" cx="19.9" cy="20.2" r="0.5"/>
	<circle class="st3" cx="21.3" cy="22.8" r="0.3"/>
	<circle class="st3" cx="20.2" cy="26.3" r="0.1"/>
	<circle class="st3" cx="20.8" cy="24.9" r="0.2"/>
</g>
<path class="st4" d="M8.4,20c-0.7,0-1.5,0.2-2.1,0.5c0,0,0,0,0,0c0,0,0,0,0,0v0c-2.8,1.3-3.6,4.9-2.3,7.5c1.8,3.8,6.5,5.1,10.3,3.9
	c3.4-1,6.3-4.3,5.6-8.2c0,0,0,0,0-0.1h0c-0.4-2.7-3.1-4.3-5.6-3.6c-0.9,0.2-1.7,0.6-2.4,1.1C10.8,20.5,9.6,20,8.4,20L8.4,20z
	 M15.4,20.7c0.1,0,0.2,0.1,0.2,0.1l0.2,0.7c0,0,0,0,0,0c0,0.1,0,0.2-0.1,0.2c-0.1,0-0.2,0-0.2-0.1L15.2,21
	C15.2,20.9,15.2,20.8,15.4,20.7C15.3,20.7,15.4,20.7,15.4,20.7L15.4,20.7z M9.8,21.2c0.1,0,0.2,0.1,0.2,0.2c0,0.1-0.1,0.2-0.2,0.2
	l-0.7,0.1c-0.1,0-0.2-0.1-0.2-0.2c0-0.1,0.1-0.2,0.2-0.2L9.8,21.2C9.8,21.2,9.8,21.2,9.8,21.2L9.8,21.2z M6.2,21.5
	C6.2,21.5,6.2,21.5,6.2,21.5L7,21.7c0,0,0,0,0,0c0.1,0,0.2,0.1,0.1,0.2c0,0.1-0.1,0.2-0.2,0.1l-0.7-0.2c-0.1,0-0.2-0.1-0.1-0.2
	C6,21.6,6.1,21.5,6.2,21.5L6.2,21.5z M13,21.7c0.1,0,0.1,0,0.2,0.1c0.1,0.1,0,0.2-0.1,0.3l-0.6,0.4c-0.1,0.1-0.2,0-0.3,0
	c-0.1-0.1,0-0.2,0-0.3l0.6-0.4c0,0,0,0,0,0C12.9,21.8,13,21.7,13,21.7L13,21.7z M18.3,22.2c0.1,0,0.2,0.1,0.2,0.2
	c0,0.1-0.1,0.2-0.2,0.2l-0.7,0.1c-0.1,0-0.2-0.1-0.2-0.2c0-0.1,0.1-0.2,0.2-0.2L18.3,22.2C18.3,22.2,18.3,22.2,18.3,22.2L18.3,22.2z
	 M8.5,22.4c0.5,0,1,0.2,1.4,0.4c-1.2,1.3-2.2,3.1-2.8,4.6c-0.2,0.4-0.1,0.8,0.1,1.2c0.2,0.3,0.7,0.5,1.1,0.5c0.4,0,0.8-0.3,1-0.7
	c0.6-1.3,1.5-2.9,2.4-4c0.9,0.9,1.8,2.4,2.2,3.6c0.1,0.4,0.5,0.7,0.9,0.8s0.8-0.1,1.1-0.4c0.3-0.3,0.4-0.8,0.2-1.2
	c-0.5-1.5-1.6-3.2-2.6-4.3c0.4-0.2,0.8-0.4,1.2-0.5c0.2,0,0.3-0.1,0.5-0.1c1.1,0,2.2,0.7,2.3,1.8l0,0l0,0c0.5,2.4-1.6,4.9-4,5.5l0,0
	l0,0c-2.7,0.9-6.2-0.2-7.4-2.7l0,0l0,0c-0.8-1.5-0.2-3.7,1.3-4.4l0,0l0,0C7.7,22.5,8.1,22.4,8.5,22.4L8.5,22.4z M5,23.7
	c0.1,0,0.1,0,0.2,0.1c0.1,0.1,0,0.2-0.1,0.3l-0.6,0.4c-0.1,0.1-0.2,0-0.3,0c-0.1-0.1,0-0.2,0-0.3l0.6-0.4c0,0,0,0,0,0
	C4.9,23.7,5,23.7,5,23.7C5,23.7,5,23.7,5,23.7z M13.9,24.3c0.1,0,0.2,0.1,0.2,0.1c0,0.1,0,0.2-0.1,0.2l-0.7,0.2
	c-0.1,0-0.2,0-0.2-0.1c0-0.1,0-0.2,0.1-0.2L13.9,24.3C13.8,24.3,13.8,24.3,13.9,24.3C13.8,24.3,13.9,24.3,13.9,24.3L13.9,24.3z
	 M10.3,24.4c0.1,0,0.2,0.1,0.2,0.2c0,0.1-0.1,0.2-0.2,0.2l-0.7,0.1c-0.1,0-0.2-0.1-0.2-0.2c0-0.1,0.1-0.2,0.2-0.2L10.3,24.4
	C10.3,24.4,10.3,24.4,10.3,24.4L10.3,24.4z M18.4,24.5c0,0,0.1,0,0.1,0l0.6,0.4c0,0,0,0,0,0c0.1,0.1,0.1,0.2,0,0.3
	c-0.1,0.1-0.2,0.1-0.3,0l-0.6-0.4c-0.1-0.1-0.1-0.2-0.1-0.3C18.3,24.5,18.4,24.5,18.4,24.5z M14.4,26.5
	C14.4,26.5,14.4,26.5,14.4,26.5l0.8,0.2c0,0,0,0,0,0c0.1,0,0.2,0.1,0.1,0.2c0,0.1-0.1,0.2-0.2,0.1l-0.7-0.2c-0.1,0-0.2-0.1-0.1-0.2
	C14.2,26.5,14.3,26.5,14.4,26.5L14.4,26.5z M8.3,26.6c0,0,0.1,0,0.1,0L9,27.1c0,0,0,0,0,0c0.1,0.1,0.1,0.2,0,0.3
	c-0.1,0.1-0.2,0.1-0.3,0L8.2,27c-0.1-0.1-0.1-0.2-0.1-0.3C8.1,26.7,8.2,26.6,8.3,26.6z M5,26.7c0.1,0,0.2,0.1,0.2,0.2
	c0,0.1-0.1,0.2-0.2,0.2l-0.7,0.1c-0.1,0-0.2-0.1-0.2-0.2c0-0.1,0.1-0.2,0.2-0.2L5,26.7C5,26.7,5,26.7,5,26.7L5,26.7z M18.4,27.2
	c0.1,0,0.1,0,0.2,0.1c0.1,0.1,0,0.2-0.1,0.3L17.9,28c-0.1,0.1-0.2,0-0.3,0c-0.1-0.1,0-0.2,0-0.3l0.6-0.4c0,0,0,0,0,0
	C18.3,27.2,18.3,27.2,18.4,27.2L18.4,27.2z M5.8,28.5c0.1,0,0.2,0.1,0.2,0.1l0.2,0.7c0,0,0,0,0,0c0,0.1,0,0.2-0.1,0.2
	s-0.2,0-0.2-0.1l-0.2-0.7C5.6,28.6,5.6,28.5,5.8,28.5C5.8,28.5,5.8,28.5,5.8,28.5z M16.5,28.9c0.1,0,0.2,0.1,0.2,0.2l0,0.7
	c0,0,0,0,0,0c0,0.1-0.1,0.2-0.2,0.2s-0.2-0.1-0.2-0.2l0-0.7C16.3,29,16.4,28.9,16.5,28.9L16.5,28.9z M7.7,30.4
	C7.7,30.4,7.7,30.4,7.7,30.4l0.8,0.2c0,0,0,0,0,0c0.1,0,0.2,0.1,0.1,0.2c0,0.1-0.1,0.2-0.2,0.1l-0.7-0.2c-0.1,0-0.2-0.1-0.1-0.2
	C7.5,30.4,7.6,30.4,7.7,30.4L7.7,30.4z M14.5,30.7c0.1,0,0.2,0.1,0.2,0.2c0,0.1-0.1,0.2-0.2,0.2l-0.7,0.1c-0.1,0-0.2-0.1-0.2-0.2
	c0-0.1,0.1-0.2,0.2-0.2L14.5,30.7C14.4,30.7,14.4,30.7,14.5,30.7L14.5,30.7z M10.6,30.9c0,0,0.1,0,0.1,0l0.6,0.4c0,0,0,0,0,0
	c0.1,0.1,0.1,0.2,0,0.3c-0.1,0.1-0.2,0.1-0.3,0l-0.6-0.4c-0.1-0.1-0.1-0.2-0.1-0.3C10.5,30.9,10.5,30.9,10.6,30.9L10.6,30.9z"/>
<path class="st5" d="M8.4,20.1c-0.7,0-1.5,0.2-2.1,0.5c0,0,0,0,0,0c0,0,0,0,0,0v0c-2.8,1.3-3.6,4.9-2.3,7.5
	c1.8,3.8,6.5,5.1,10.3,3.9c3.4-1,6.3-4.3,5.6-8.2c0,0,0,0,0-0.1h0c-0.4-2.7-3.1-4.3-5.6-3.6c-0.9,0.2-1.7,0.6-2.4,1.1
	C10.8,20.5,9.6,20,8.4,20.1L8.4,20.1z M15.1,22.4c1.1,0,2.2,0.7,2.3,1.8l0,0l0,0c0.5,2.4-1.6,4.9-4,5.5l0,0l0,0
	c-2.7,0.9-6.2-0.2-7.4-2.7l0,0l0,0c-0.8-1.5-0.2-3.7,1.3-4.4l0,0l0,0c0.8-0.4,1.8-0.3,2.6,0.2c-1.2,1.3-2,2.9-2.7,4.3
	c-0.2,0.4-0.1,0.8,0.1,1.2c0.2,0.3,0.7,0.5,1.1,0.5c0.4,0,0.8-0.3,1-0.7c0.6-1.3,1.4-2.7,2.3-3.7c0.9,0.9,1.6,2,2,3.2
	c0.1,0.4,0.5,0.7,0.9,0.8s0.8-0.1,1.1-0.4c0.3-0.3,0.4-0.8,0.2-1.2c-0.5-1.5-1.3-2.8-2.3-3.9c0.4-0.2,0.8-0.4,1.2-0.5
	C14.8,22.4,15,22.4,15.1,22.4L15.1,22.4z"/>
</svg>
