<?xml version="1.0" encoding="utf-8"?>
<!-- Generator: Adobe Illustrator 22.1.0, SVG Export Plug-In . SVG Version: 6.00 Build 0)  -->
<!DOCTYPE svg PUBLIC "-//W3C//DTD SVG 1.1//EN" "http://www.w3.org/Graphics/SVG/1.1/DTD/svg11.dtd">
<svg version="1.1" xmlns="http://www.w3.org/2000/svg" xmlns:xlink="http://www.w3.org/1999/xlink" x="0px" y="0px" width="45.3px"
	 height="21.9px" viewBox="0 0 45.3 21.9" style="enable-background:new 0 0 45.3 21.9;" xml:space="preserve">
<style type="text/css">
	.st0{filter:url(#Adobe_OpacityMaskFilter);}
	.st1{fill:none;stroke:#000000;stroke-width:0.25;stroke-linecap:round;stroke-linejoin:round;stroke-miterlimit:10;}
</style>
<g id="Layer_1">
	<defs>
		<filter id="Adobe_OpacityMaskFilter" filterUnits="userSpaceOnUse" x="0.3" y="-4.5" width="45.2" height="29.2">
			
				<feColorMatrix  type="matrix" values="-1 0 0 0 1  0 -1 0 0 1  0 0 -1 0 1  0 0 0 1 0" color-interpolation-filters="sRGB" result="source"/>
		</filter>
	</defs>
	<mask maskUnits="userSpaceOnUse" x="0.3" y="-4.5" width="45.2" height="29.2" id="SVGID_1_">
		<g class="st0">
			<g>
				<g>
					<g>
						<path d="M1,19.6c0.2,0.5-0.6,0.5-0.6,0C0.4,19.3,1,19.3,1,19.6"/>
						<path d="M21.7,9.1c0.1-0.1,0.5-2.6,1-2c0.3,0.3,0.7-0.6,0.7-0.7c0.1-0.7,0.7-0.4,0.9-0.9c0.1-0.2,0.5-0.3,0.4-0.6
							c-0.3-0.7-0.3-1.1,0.4-1.2c0.5-0.1,0.8,0.4,1.2,0.2c0.2-0.2,1.8-0.7,1.9-0.7c0.1-0.1,0-0.7-0.1-0.7c-0.2,0-0.4-1.2-0.3-1.3
							c0.8-0.7,0.6-0.2,1.4,0c0.7,0.2,0.6-0.6,1.2,0.1c0,0.1,0.7,0.1,0.7,0.5c0.1,0.4,0.5,1.3,0.8,1.4C32.7,3.4,33.7,3,34.1,4
							c0.4,0.9,1.1-0.4,1.7-0.1c0.6,0.3,1.4,0.8,2,0.4c0.1-0.1,1.1-1.4,1.5-0.9c0.3,0.3-0.1,1.1,0.5,1.3C40.2,4.9,41,5,41.1,5.6
							c0,0.4,0.4,1.6,0,1.9s0.9,1.2,1,1.4c0,0.1-0.2,0.4-0.2,0.4c0.3,0.2,0.6,1,1.1,1.2c0.3,0.1,0.1,1.1,0.9,0.9
							c0.2,0,0.3,0.6,0.4,0.6c0.1,0.1,1,0.1,1,0c0,0.4-1.9,2-2.3,2.2c-0.8,0.3-2.1,0.9-2.1,1.8c-0.6-0.2-0.8,1.2-1.5,1.3
							c-0.6,0.1-0.6,0.7-1.2,0.9c-0.7,0.3-1.8,0.4-2.4,0.9c-0.6,0.4-1.2,0.3-1.9,0.3c-1.5,0-3,0.1-4.4,0c-2.6-0.1-5.2,0-7.8-0.1
							c-1.6-0.1-3.1-0.1-4.7-0.1c-1.3,0-2.7,0-4,0c-0.6,0-1.3,0-1.9,0.1c0.2-0.5-1-0.3-1.3-0.3c0,0.5,0.6,1.4-0.3,1.4
							c-0.7,0-1.4-0.1-2.1-0.1c-1.9,0-3.7,0-5.6-0.1c0.1-0.2,0.2-1.1,0.5-1c0.1,0,0.5,0.9,0.7,0.4c0.3-0.7,0-1,0.6-1.2
							c0,0-0.4-0.5-0.1-0.7c0.8-0.7-0.7-1.1,0.2-2c-0.4-0.5,0.3-1,0.3-1c0.2,0.1,0.3,0.1,0.2,0c0.5,0.1,2,0.8,2.2,1.2
							c1.5,0.2,0.2-1.2,0.4-1.7C7.2,13,8.1,13.4,9.2,13c0.5-0.2-0.3-0.8-0.3-1.1c-0.1-0.3,0.8-1.5,1.1-1.1c0.4,0.4,0.2-0.5,0.2-0.6
							C10,9.6,11.3,10,11.7,9.9c0.2,0.1-0.1,0.5,0.1,0.6c0.6,0.4,0.1-1,0.4-1.1c0.1,0,0.3,0.4,0.3,0.4c0.3,0.2,0.7-0.2,1.2,0.1
							c0.4,0.2,1.4,1.2,1.6,0.6c0.1-0.4,1.2-1.7,1.6-1.1c0.1,0.2,0.2,0.7,0.5,0.4c0.4-0.3,0.2,0.4,0.2,0.5c-0.1-0.1,0.8-0.5,0.8-0.6
							C18.6,9.5,18,9,18.5,8.9c0.6-0.2,0.1-0.3,0.1-0.6c0,0,0.9,0.1,0.8-0.2c0-0.1-0.3-0.1-0.3-0.3c0-0.1,0.6,0.1,0.6,0.6
							c-0.1,0.8,1.1,0.4,1.2,0.8c0,0.1,0.1,0.2,0.2,0.3C21,9.4,21.8,9.1,21.7,9.1"/>
					</g>
				</g>
			</g>
		</g>
	</mask>
	<g style="mask:url(#SVGID_1_);">
		
			<image style="overflow:visible;" width="1000" height="662" xlink:href="_IMG4171.jpg"  transform="matrix(4.516667e-02 0 0 4.404292e-02 0.3333 -4.4975)">
		</image>
	</g>
</g>
<g id="Layer_2">
	<g>
		<g>
			<g>
				<path class="st1" d="M1,19.6c0.2,0.5-0.6,0.5-0.6,0C0.4,19.3,1,19.3,1,19.6"/>
				<path class="st1" d="M21.7,9.1c0.1-0.1,0.5-2.6,1-2c0.3,0.3,0.7-0.6,0.7-0.7c0.1-0.7,0.7-0.4,0.9-0.9c0.1-0.2,0.5-0.3,0.4-0.6
					c-0.3-0.7-0.3-1.1,0.4-1.2c0.5-0.1,0.8,0.4,1.2,0.2c0.2-0.2,1.8-0.7,1.9-0.7c0.1-0.1,0-0.7-0.1-0.7c-0.2,0-0.4-1.2-0.3-1.3
					c0.8-0.7,0.6-0.2,1.4,0c0.7,0.2,0.6-0.6,1.2,0.1c0,0.1,0.7,0.1,0.7,0.5c0.1,0.4,0.5,1.3,0.8,1.4C32.7,3.4,33.7,3,34.1,4
					c0.4,0.9,1.1-0.4,1.7-0.1c0.6,0.3,1.4,0.8,2,0.4c0.1-0.1,1.1-1.4,1.5-0.9c0.3,0.3-0.1,1.1,0.5,1.3C40.2,4.9,41,5,41.1,5.6
					c0,0.4,0.4,1.6,0,1.9s0.9,1.2,1,1.4c0,0.1-0.2,0.4-0.2,0.4c0.3,0.2,0.6,1,1.1,1.2c0.3,0.1,0.1,1.1,0.9,0.9
					c0.2,0,0.3,0.6,0.4,0.6c0.1,0.1,1,0.1,1,0c0,0.4-1.9,2-2.3,2.2c-0.8,0.3-2.1,0.9-2.1,1.8c-0.6-0.2-0.8,1.2-1.5,1.3
					c-0.6,0.1-0.6,0.7-1.2,0.9c-0.7,0.3-1.8,0.4-2.4,0.9c-0.6,0.4-1.2,0.3-1.9,0.3c-1.5,0-3,0.1-4.4,0c-2.6-0.1-5.2,0-7.8-0.1
					c-1.6-0.1-3.1-0.1-4.7-0.1c-1.3,0-2.7,0-4,0c-0.6,0-1.3,0-1.9,0.1c0.2-0.5-1-0.3-1.3-0.3c0,0.5,0.6,1.4-0.3,1.4
					c-0.7,0-1.4-0.1-2.1-0.1c-1.9,0-3.7,0-5.6-0.1c0.1-0.2,0.2-1.1,0.5-1c0.1,0,0.5,0.9,0.7,0.4c0.3-0.7,0-1,0.6-1.2
					c0,0-0.4-0.5-0.1-0.7c0.8-0.7-0.7-1.1,0.2-2c-0.4-0.5,0.3-1,0.3-1c0.2,0.1,0.3,0.1,0.2,0c0.5,0.1,2,0.8,2.2,1.2
					c1.5,0.2,0.2-1.2,0.4-1.7C7.2,13,8.1,13.4,9.2,13c0.5-0.2-0.3-0.8-0.3-1.1c-0.1-0.3,0.8-1.5,1.1-1.1c0.4,0.4,0.2-0.5,0.2-0.6
					C10,9.6,11.3,10,11.7,9.9c0.2,0.1-0.1,0.5,0.1,0.6c0.6,0.4,0.1-1,0.4-1.1c0.1,0,0.3,0.4,0.3,0.4c0.3,0.2,0.7-0.2,1.2,0.1
					c0.4,0.2,1.4,1.2,1.6,0.6c0.1-0.4,1.2-1.7,1.6-1.1c0.1,0.2,0.2,0.7,0.5,0.4c0.4-0.3,0.2,0.4,0.2,0.5c-0.1-0.1,0.8-0.5,0.8-0.6
					C18.6,9.5,18,9,18.5,8.9c0.6-0.2,0.1-0.3,0.1-0.6c0,0,0.9,0.1,0.8-0.2c0-0.1-0.3-0.1-0.3-0.3c0-0.1,0.6,0.1,0.6,0.6
					c-0.1,0.8,1.1,0.4,1.2,0.8c0,0.1,0.1,0.2,0.2,0.3C21,9.4,21.8,9.1,21.7,9.1"/>
			</g>
		</g>
	</g>
</g>
</svg>
