<?xml version="1.0" encoding="utf-8"?>
<!-- Generator: Adobe Illustrator 21.1.0, SVG Export Plug-In . SVG Version: 6.00 Build 0)  -->
<!DOCTYPE svg PUBLIC "-//W3C//DTD SVG 1.1//EN" "http://www.w3.org/Graphics/SVG/1.1/DTD/svg11.dtd">
<svg version="1.1" id="Layer_1" xmlns="http://www.w3.org/2000/svg" xmlns:xlink="http://www.w3.org/1999/xlink" x="0px" y="0px"
	 viewBox="0 0 612 282.5" style="enable-background:new 0 0 612 282.5;" xml:space="preserve">
<style type="text/css">
	.st0{fill:none;stroke:#000000;stroke-width:3;stroke-linecap:round;stroke-linejoin:round;}
</style>
<path d="M414.7,116c0,7-5.7,12.7-12.7,12.7s-12.7-5.7-12.7-12.7s5.7-12.7,12.7-12.7S414.7,109,414.7,116z"/>
<path d="M136.7,93.8c-2,0.1-2.3-0.1-3.3-1c0.1-2.1,0.6-4.6,1.2-6.7c3-11.1,7.7-25.5,10.4-35.7c1.8-0.4,4.5-0.8,6.8-0.8
	c1.1,0,2.2,0.1,2,1.1c-2.5,9.9-7.6,24.9-10.4,35.2c4.4-0.1,9.2-0.1,12.5,0.4c0.1,1.8-0.7,5.7-1.4,7.2
	C149,93.6,142.5,93.6,136.7,93.8z"/>
<path d="M159.7,94c-0.3-3.3-0.1-5,0.9-9.1c2.4-9.4,5-18.5,8.3-27.9c0.1-1.7,0.3-4.2,0.7-6.2c3.6-1.4,18.5-2.2,23.2-0.6
	c-0.5,1.8-2.2,5.6-3,6.6c-3.5-0.6-8.5-1-12.4,0c-1,2.4-3.3,9.9-4,12.5c3-0.1,10.3-0.5,12.9,0.4c-0.6,2.2-1.7,5.1-2.9,6.7
	c-3.6-0.4-8.2-0.3-12,0.1c-0.7,2.7-2,6.7-2.3,9.5c3.1-0.1,11.4-0.2,13.2,0.1c0.2,2-0.5,4.8-1.1,7.3C174.3,93.4,166.6,93.7,159.7,94z
	"/>
<path d="M202.8,77.7c-3.4,4.3-8.6,12.5-11.3,16.2c-2.8,0-5.3-0.5-6.9-1.5c2.6-4.8,8.7-13.6,14.7-21.8c-1.5-7.2-2.6-15.5-2.7-20.6
	c2.4-1.2,6.2-1.7,8.8-1.3c0,2.1,0.4,11,1.2,15.4c3.8-5.4,7.7-10.8,11.4-15.4c2.8,0,5.7,0.8,7.3,1.8c-3.4,4.5-7.9,9.9-15.1,20
	c1.1,5.9,2.4,11,5,21.1c-2.1,0.9-5.1,1.4-7.8,1.4C206.3,92.3,203.9,85.5,202.8,77.7z"/>
<path d="M230,50.2c1.8-0.6,4.3-0.8,6.7-0.8c1,0,2.2,0,1.9,1c-4.4,13.9-9,27.7-12.4,42.5c-1.9,0.6-5.9,0.8-8.2,0.3
	C220.3,80.4,226.7,63.1,230,50.2z"/>
<path d="M232.3,93.4c1.9-11.3,10.4-40.2,12.2-43.2c1.8-0.5,5.4-0.8,7.4-0.4c0.8,8.3,1.8,14.5,4.3,24c1.2-5.7,5-18.7,7.2-23.8
	c2.5-0.6,5.9-0.6,8.2-0.4c-4,12.9-8.7,28-11.8,43.5c-1.5,0.5-3.8,0.8-5.8,0.8c-2.2-3.4-6.4-14.6-7.3-24.5
	c-2.4,7.6-4.3,15.1-5.8,23.5C238.9,93.5,234.7,93.8,232.3,93.4z"/>
<path d="M290.4,57.7c-5,0-10.1,7.5-13,18.1c-1.7,6.2-1.4,11.4,2.7,11.4c2.4,0,5.9-0.9,7.6-3.7c0.9-1.5,1.6-4.5,1.3-5.9
	c-0.3-1.3-4.9-1.2-5.8-1.1c0.3-1.6,0.7-3.3,1.3-4.9c4.5-1.5,12.9-1.8,14.2-0.4c-1.1,6.1-3.8,15.9-6.5,22.5c-1.1,0.4-5.4,0.4-5.8,0.1
	c-0.1-0.3,0-1.4,0-1.8c-2.9,2-6.2,2.7-8.8,2.7c-6.5,0-9.7-4.4-9.9-10.8c-0.1-2.9,0.4-6.2,1.3-9.3c1.8-6.6,4.4-13.5,9.6-19.1
	c3.7-3.8,8.3-6.4,13.8-6.4c2.7,0,8.8,1.2,8.7,8.5c0.2,0.4-2.9,3.1-6.5,5.9C294.2,59.6,292,57.7,290.4,57.7z"/>
<path d="M321,56.7c-3.9,12.4-6.8,24.1-9.4,36.1c-2.5,1-6.6,1-9,0.5c2.6-12.5,7.3-26.3,9.8-36.5c-2.7,0-4.9,0.1-8.1,0.3
	c0.3-1.7,1.7-5.7,2.4-7.3c5.1-0.6,18.1-0.6,24.4-0.1c-0.1,1.8-0.9,5-1.5,7.1C327.3,56.8,323.7,56.5,321,56.7z"/>
<path d="M357.8,69.6c-3.5,13.2-12,24.8-23.4,24.8c-10.9,0-12.3-10.6-9.4-21.7c3.4-12.9,12-24.1,22.9-24.3c0.3,0.3,0.4,0.8,0.5,1.2
	C357.9,49.6,360.9,57.9,357.8,69.6z M334,73.3c-2,7.6-1.8,13.6,2.9,13.7c4.9-0.1,9.4-8,11.8-17c2.1-7.8,1.8-12.5-2.8-12.6
	C340.6,58,335.8,66.3,334,73.3z"/>
<path d="M356.3,93.4c1.9-11.3,10.4-40.2,12.2-43.2c1.8-0.5,5.4-0.8,7.4-0.4c0.8,8.3,1.8,14.5,4.3,24c1.2-5.7,5-18.7,7.2-23.8
	c2.5-0.6,5.9-0.6,8.2-0.4c-4,12.9-8.7,28-11.8,43.5c-1.5,0.5-3.8,0.8-5.8,0.8c-2.2-3.4-6.4-14.6-7.3-24.5
	c-2.4,7.6-4.3,15.1-5.8,23.5C362.9,93.5,358.7,93.8,356.3,93.4z"/>
<path class="st0" d="M41.3,251.4c2.3,6-7.7,6.6-7.4,0.2C34.1,247.5,40.8,248,41.3,251.4"/>
<path class="st0" d="M378.6,40.1c-0.3-0.9-0.6-1.5-1.1-1.5c-2-0.2-5.3-15.3-3.9-16.6c9.9-8.6,7.9-2.5,17.5-0.3
	c9.3,2.1,7.9-8,14.5,1.7c0.1,1,8.4,1.7,9.2,6.4c0.8,4.6,5.8,15.9,10.2,17c9.9,2.4,22.7-2.4,27.6,9.4c4.5,10.8,13.6-5.3,21.1-1.7
	c7,3.3,16.9,9.8,24.4,4.7c1.9-1.3,13.9-17.8,18.7-11.8c3.4,4.3-1.4,13.2,5.7,16.1c5.5,2.3,15.1,3.7,15.8,11.6
	c0.4,4.5,4.9,20.3-0.4,23.5c-5.4,3.2,11.4,15.3,11.9,17c0.2,0.6-2.9,4.5-2.3,4.9c4.3,3.1,7.8,12.5,13.1,14.6
	c4,1.6,1.6,13.3,10.6,10.6c2.1-0.6,4,7.3,4.6,7.9c0.8,0.6,12.1,1.2,12.1,0.4c0,5.3-23.6,25.3-28.2,27c-10.5,3.9-26,10.7-26.6,22.9
	c-7.6-2.5-10.2,15.4-18.8,16.8c-7.6,1.2-7.1,8.8-15.2,11.6c-9,3.1-22.8,5.3-30.5,11.2c-7,5.4-15.2,3.5-24.1,3.7
	c-18.4,0.2-36.8,0.9-55.2,0.4c-32.5-0.9-65.1,0.4-97.6-1.1c-19.8-0.9-38.7-1.6-58.3-1.2c-16.5,0.3-33,0.3-49.5,0.4
	c-8,0.1-16,0.2-24,0.6c2.3-5.9-13-4.2-15.9-4.3c-0.3,5.9,7.5,16.9-3.7,16.9c-8.6,0-17.3-1-26-1.2c-23.1-0.5-46.5,0.1-69.6-1.2
	c0.8-2.4,2.3-13.4,6.8-12c1.9,0.6,5.7,10.9,8.7,4.4c4.1-9-0.4-12,7-15.2c-0.3,0.1-5.3-5.8-1.4-9.2c10.4-9.1-9.1-14.1,2.9-24.3
	c1.4-2.9,9.8-9.2,10.1-9.4c3.1,0.7,3.8,0.7,2.3,0c5.8,1.1,24.3,9.5,27.2,14.5c19.1,2.7,2.7-14.5,4.7-21c4.5-15.3,16.5-9.7,29.9-14.9
	c6.3-2.5-3.3-10.6-4-14.1c-0.8-4,9.9-18.1,13.6-14.1c4.4,4.7,3-6.3,2.7-7.2c-2.2-7.3,13.6-2.1,18.4-3.3c2.2,1.1-1.2,5.9,0.9,7.2
	c7.2,4.7,1.6-12.2,4.8-13.6c1.2-0.5,3.8,4.5,4.3,4.8c3.5,2.5,9.3-2.1,15,1.1c4.6,2.7,17.8,15,19.9,7.6c1.3-4.5,15.1-20.8,19.5-13.1
	c1.4,2.4,2.7,8.1,6.3,5.5c5.5-4,2.2,5.1,3,5.8c-0.9-0.8,9.8-6.6,10.4-7.3c2.6-3.2-4.7-8.9,1.6-10.8c7.5-2.3,1.6-3.3,1.7-7
	c0-0.5,10.9,1.2,10.4-2.5c-0.2-1.7-3.4-0.7-4-3.3c-0.3-1.3,7.5,1.3,7,7.3c-0.9,9.9,13.6,5.4,14.8,9.3c0.4,1.3,1.1,2.5,2.1,3.4
	c-1.8-0.2,8.2-4.8,8-4.6"/>
<path class="st0" d="M299.3,120.5c0.5-0.4,2.1-10,4.7-17.3"/>
</svg>
