<?xml version="1.0" encoding="utf-8"?>
<!-- Generator: Adobe Illustrator 22.1.0, SVG Export Plug-In . SVG Version: 6.00 Build 0)  -->
<!DOCTYPE svg PUBLIC "-//W3C//DTD SVG 1.1//EN" "http://www.w3.org/Graphics/SVG/1.1/DTD/svg11.dtd">
<svg version="1.1"
	 id="svg3025" inkscape:version="0.48.3.1 r9886" sodipodi:docname="map_marker_font_awesome.svg" xmlns:cc="http://creativecommons.org/ns#" xmlns:dc="http://purl.org/dc/elements/1.1/" xmlns:inkscape="http://www.inkscape.org/namespaces/inkscape" xmlns:rdf="http://www.w3.org/1999/02/22-rdf-syntax-ns#" xmlns:sodipodi="http://sodipodi.sourceforge.net/DTD/sodipodi-0.dtd" xmlns:svg="http://www.w3.org/2000/svg"
	 xmlns="http://www.w3.org/2000/svg" xmlns:xlink="http://www.w3.org/1999/xlink" x="0px" y="0px" width="40px" height="40px"
	 viewBox="0 0 40 40" style="enable-background:new 0 0 40 40;" xml:space="preserve">
<style type="text/css">
	.st0{fill:#FFFFFF;stroke:#000000;stroke-width:0.35;stroke-miterlimit:10;}
</style>
<g>
	<g>
		<path class="st0" d="M37.8,2.2c-0.7-0.7-1.7-1.1-2.7-1.1H4.8c-1,0-2,0.3-2.7,1.1C1.4,2.9,1,3.9,1,4.9v30.4c0,1,0.3,2,1.1,2.7
			C2.8,38.6,3.8,39,4.8,39h30.4c1,0,2-0.3,2.7-1.1c0.7-0.7,1.1-1.7,1.1-2.7V4.9C38.9,3.9,38.6,2.9,37.8,2.2z"/>
	</g>
</g>
<sodipodi:namedview  bordercolor="#666666" borderopacity="1" gridtolerance="10" guidetolerance="10" id="namedview3031" inkscape:current-layer="svg3025" inkscape:cx="896" inkscape:cy="896" inkscape:pageopacity="0" inkscape:pageshadow="2" inkscape:window-height="480" inkscape:window-maximized="0" inkscape:window-width="640" inkscape:window-x="0" inkscape:window-y="25" inkscape:zoom="0.13169643" objecttolerance="10" pagecolor="#ffffff" showgrid="false">
	</sodipodi:namedview>
<g id="g3027" transform="matrix(1,0,0,-1,364.47458,1270.2373)">
	<path id="path3029" inkscape:connector-curvature="0" d="M-339.6,1254.5c0,1.2-0.4,2.3-1.3,3.2c-0.9,0.9-1.9,1.3-3.2,1.3
		s-2.3-0.4-3.2-1.3c-0.9-0.9-1.3-1.9-1.3-3.2s0.4-2.3,1.3-3.2c0.9-0.9,1.9-1.3,3.2-1.3s2.3,0.4,3.2,1.3
		C-340,1252.2-339.6,1253.3-339.6,1254.5z M-335.1,1254.5c0-1.3-0.2-2.3-0.6-3.2l-6.4-13.7c-0.2-0.4-0.5-0.7-0.8-0.9
		c-0.4-0.2-0.8-0.3-1.2-0.3s-0.8,0.1-1.2,0.3c-0.4,0.2-0.6,0.5-0.8,0.9l-6.4,13.7c-0.4,0.8-0.6,1.9-0.6,3.2c0,2.5,0.9,4.6,2.6,6.4
		c1.8,1.8,3.9,2.6,6.4,2.6s4.6-0.9,6.4-2.6C-336,1259.2-335.1,1257-335.1,1254.5z"/>
</g>
</svg>
