<?xml version="1.0" encoding="utf-8"?>
<!-- Generator: Adobe Illustrator 22.1.0, SVG Export Plug-In . SVG Version: 6.00 Build 0)  -->
<!DOCTYPE svg PUBLIC "-//W3C//DTD SVG 1.1//EN" "http://www.w3.org/Graphics/SVG/1.1/DTD/svg11.dtd">
<svg version="1.1" id="Layer_2" xmlns="http://www.w3.org/2000/svg" xmlns:xlink="http://www.w3.org/1999/xlink" x="0px" y="0px"
	 width="47.7px" height="47.7px" viewBox="0 0 47.7 47.7" style="enable-background:new 0 0 47.7 47.7;" xml:space="preserve">
<style type="text/css">
	.st0{fill:#EEF8FD;stroke:#00B2EF;stroke-width:0.2804;stroke-linecap:round;stroke-linejoin:round;}
	.st1{fill:none;stroke:#00B2EF;stroke-width:0.2466;stroke-linecap:round;stroke-linejoin:round;}
	.st2{fill:#FFFFFF;stroke:#00B2EF;stroke-width:0.2804;stroke-linecap:round;stroke-linejoin:round;}
	.st3{fill:none;}
	.st4{fill:#96D9F7;stroke:#00B2EF;stroke-width:0.3095;stroke-linecap:round;stroke-linejoin:round;}
	.st5{fill:none;stroke:#00B2EF;stroke-width:0.1727;stroke-linecap:round;stroke-linejoin:round;}
	.st6{fill:#C6E9FA;stroke:#00B2EF;stroke-width:0.3642;stroke-linecap:round;stroke-linejoin:round;}
	.st7{fill:none;stroke:#00B2EF;stroke-width:0.2033;stroke-linecap:round;stroke-linejoin:round;}
	.st8{fill:#E3F4FC;stroke:#00B2EF;stroke-width:0.2474;stroke-linecap:round;stroke-linejoin:round;}
	.st9{fill:none;stroke:#00B2EF;stroke-width:0.1381;stroke-linecap:round;stroke-linejoin:round;}
	.st10{fill:#CEECFB;stroke:#00B2EF;stroke-width:0.2734;stroke-linecap:round;stroke-linejoin:round;}
	.st11{fill:none;stroke:#00B2EF;stroke-width:0.1525;stroke-linecap:round;stroke-linejoin:round;}
	.st12{clip-path:url(#SVGID_2_);}
	.st13{fill:#F44336;}
	.st14{clip-path:url(#SVGID_4_);}
	.st15{fill:#FF9800;}
	.st16{clip-path:url(#SVGID_6_);}
	.st17{fill:#FFEB3B;}
	.st18{clip-path:url(#SVGID_8_);}
	.st19{fill:#8BC34A;}
	.st20{clip-path:url(#SVGID_10_);}
	.st21{fill:#2196F3;}
	.st22{clip-path:url(#SVGID_12_);}
	.st23{fill:#673AB7;}
	.st24{opacity:0.2;clip-path:url(#SVGID_14_);}
	.st25{fill:#424242;}
	.st26{opacity:0.2;clip-path:url(#SVGID_16_);}
	.st27{clip-path:url(#SVGID_18_);}
	.st28{fill:url(#SVGID_19_);}
	.st29{fill:url(#SVGID_20_);}
	.st30{fill:url(#SVGID_21_);}
	.st31{opacity:0.2;}
</style>
<symbol  id="New_Symbol_80" viewBox="-4.4 -6.8 8.7 13.6">
	<g id="New_Symbol_80_2_">
		<g>
			<g>
				<g>
					<path class="st0" d="M1.8,6c0-0.2,0-0.2,0-0.3c0-0.1,0-0.1,0-0.3c0-0.1-0.1-0.1-0.1-0.3c0-0.2,0.1-0.2,0.1-0.3
						c0-0.2,0.1-0.2,0.1-0.3c0-0.1,0-0.1,0-0.3C1.9,4,1.7,4,1.7,3.9c0-0.2,0.1-0.2,0.1-0.3c0-0.2,0.1-0.2,0.1-0.3
						c0-0.2-0.1-0.2-0.1-0.3c0-0.1-0.1-0.1-0.1-0.3c0-0.2,0.1-0.2,0.1-0.3c0-0.2,0-0.2,0-0.3c0-0.1,0-0.1,0-0.3
						c0-0.1,0.2-0.1,0.2-0.3c0-0.2,0-0.2,0-0.3C1.9,1,1.6,1,1.6,0.8c0-0.1,0.3-0.1,0.3-0.3c0-0.1-0.2-0.1-0.2-0.3c0-0.2,0-0.2,0-0.3
						c0-0.1,0.2-0.1,0.2-0.3c0-0.1-0.3-0.1-0.3-0.3c0-0.2,0.3-0.2,0.3-0.3c0-0.1,0-0.1,0-0.3c0-0.1-0.1-0.1-0.1-0.3
						c0-0.2-0.1-0.2-0.1-0.3C1.7-2,1.8-2,1.8-2.1c0-0.2,0-0.2,0-0.3c0-0.1,0.1-0.1,0.1-0.3c0-0.2,0-0.2,0-0.3c0-0.1-0.3-0.1-0.3-0.3
						c0-0.1,0.2-0.1,0.2-0.3c0-0.1-0.1-0.1-0.1-0.3c0-0.1,0-0.1,0-0.2c0-0.1,0-0.1,0-0.3c0-0.1,0.1-0.1,0.1-0.2c0-0.1,0-0.1,0-0.1
						l-3.6,0.5C-1.8-4-1.6-4-1.6-3.8c0,0.1,0.1,0.1,0.1,0.3c0,0.2-0.1,0.2-0.1,0.3C-1.7-3-1.5-3-1.5-2.9c0,0.2,0,0.2,0,0.3
						c0,0.2,0,0.2-0.1,0.3c0,0.1,0,0.1,0,0.3c0,0.2-0.2,0.2-0.2,0.3c0,0.2-0.1,0.2-0.1,0.3c0,0.2,0,0.2,0,0.3c0,0.1,0.2,0.1,0.2,0.3
						c0,0.1-0.2,0.1-0.3,0.3c0,0.2,0.3,0.2,0.3,0.3C-1.5,0-1.8,0-1.8,0.2c0,0.2,0.2,0.2,0.1,0.3c0,0.1,0.1,0.1,0.1,0.3
						c0,0.2-0.3,0.2-0.3,0.3c0,0.2,0,0.2,0,0.3c0,0.2,0.2,0.2,0.2,0.3c0,0.1-0.1,0.1-0.1,0.3c0,0.2-0.2,0.2-0.2,0.3
						c0,0.2,0.2,0.2,0.2,0.3c0,0.1,0.1,0.1,0.1,0.3C-1.5,3-1.9,3-1.9,3.2c0,0.2,0,0.2,0,0.3c0,0.2,0.1,0.2,0.1,0.3
						C-1.8,4-1.9,4-1.9,4.1c0,0.1,0.3,0.1,0.3,0.3c0,0.2-0.2,0.2-0.2,0.3c0,0.1,0.3,0.1,0.3,0.3c0,0.1-0.3,0.1-0.3,0.3
						c0,0.2,0.4,0.2,0.4,0.3c0,0.1,0,0.1,0,0.3C-1.6,6-1.7,6-1.7,6.2"/>
					<path class="st1" d="M-0.5-4.2c0,0.2,0.2,0.2,0.2,0.3c0,0.2-0.1,0.2-0.1,0.3c0,0.2-0.1,0.2-0.2,0.3c0,0.2,0,0.2,0,0.3
						c0,0.2,0,0.2,0,0.3c0,0.1,0.3,0.1,0.3,0.3c0,0.2-0.1,0.2-0.1,0.3c0,0.1-0.2,0.1-0.2,0.3c0,0.1,0,0.1-0.1,0.3
						c0,0.1-0.1,0.1-0.1,0.2c0,0.1,0.1,0.1,0.1,0.2c0,0.2,0.2,0.2,0.2,0.3c0,0.1,0,0.1,0,0.3c0,0.2-0.2,0.2-0.2,0.3
						C-0.8,0-0.7,0-0.7,0.2c0,0.2,0,0.2,0,0.3c0,0.1,0,0.1-0.1,0.3c0,0.2,0.2,0.2,0.2,0.3c0,0.2-0.2,0.2-0.2,0.3
						c0,0.2,0.1,0.2,0.1,0.3c0,0.1,0.1,0.1,0.1,0.3c0,0.2-0.1,0.2-0.1,0.3c0,0.2,0.2,0.2,0.2,0.3c0,0.1,0,0.1,0,0.3
						c0,0.1,0,0.1,0,0.3c0,0.2,0,0.2,0,0.3c0,0.2-0.2,0.2-0.2,0.3C-0.8,4-0.9,4-0.9,4.1c0,0.1,0,0.1,0,0.3c0,0.2,0.2,0.2,0.2,0.3
						c0,0.1-0.2,0.1-0.2,0.3c0,0.1,0.3,0.1,0.3,0.3c0,0.2-0.2,0.2-0.2,0.3c0,0.1,0.2,0.1,0.2,0.3C-0.6,6-0.5,6-0.5,6.2"/>
					<path class="st1" d="M0.6,6c0-0.2,0.3-0.2,0.3-0.3c0-0.1-0.1-0.1-0.1-0.3c0-0.1-0.2-0.1-0.2-0.3c0-0.2-0.1-0.2-0.1-0.3
						c0-0.2,0-0.2,0-0.3c0-0.1,0-0.1,0-0.3C0.6,4,0.8,4,0.8,3.8c0-0.2,0-0.2,0-0.3c0-0.1-0.2-0.1-0.2-0.3C0.7,3,0.6,3,0.6,2.9
						c0-0.1,0.2-0.1,0.2-0.3c0-0.1-0.1-0.1-0.1-0.3c0-0.2,0.2-0.2,0.2-0.3c0-0.1,0-0.1,0-0.3c0-0.2,0.1-0.2,0.1-0.3
						c0-0.1-0.2-0.1-0.2-0.3c0-0.1,0-0.1,0-0.3c0-0.2,0.2-0.2,0.2-0.3c0-0.1-0.2-0.1-0.2-0.3c0-0.1,0-0.1,0-0.3c0-0.1,0-0.1,0-0.3
						c0-0.1-0.1-0.1-0.1-0.3c0-0.1,0.1-0.1,0.1-0.2c0,0,0.1,0,0.1-0.1c0-0.2,0-0.1,0-0.3c0-0.1-0.2-0.2-0.2-0.3
						c0-0.1,0.1-0.2,0.1-0.3l0-0.3c0-0.1-0.1-0.2-0.2-0.3L0.5-2.8l0-0.3l0-0.3l0-0.2c0-0.1,0.2-0.2,0.2-0.2l0-0.2"/>
				</g>
				<path class="st0" d="M-1.7,6.1c0,0.1,0,0.3,0.1,0.4c0.1,0.1,0.3,0.1,0.4,0.1c0.4,0.1,0.8,0,1.1,0c0.4,0,0.8,0.1,1.2,0.1
					c0.2,0,0.4-0.1,0.5-0.2c0.1,0,0.1-0.1,0.1-0.2c0-0.1,0.1-0.2,0-0.3"/>
				<path class="st2" d="M-0.6,6c0,0,0.1,0.1,0.1,0.1c0,0.1,0,0.1,0,0.2c0,0,0,0.1,0.1,0.2c0,0,0,0.1,0,0.1c0,0,0,0,0.1,0.1"/>
				<path class="st2" d="M0.7,6c-0.1,0-0.3,0.2-0.3,0.3c0,0.1,0,0.1,0,0.2c0,0.1,0,0.1,0,0.2"/>
			</g>
			<g>
				<path class="st3" d="M0.9-2.7c0.6,0.6,1.5,0.6,2.1,0c0.6-0.6,0.6-1.5,0-2.1c-0.6-0.6-1.5-0.6-2.1,0C0.3-4.2,0.3-3.3,0.9-2.7z"/>
				<g>
					<g>
						<path class="st4" d="M0.3-2c0.1,0.1,0.2,0,0.3,0.1c0.1,0.1,0.1,0,0.2,0.1c0.1,0.1,0,0.2,0.1,0.2C1-1.6,1-1.6,1.1-1.6
							c0.1,0,0.1,0.1,0.2,0.1c0.1,0,0.1,0,0.3,0c0.1,0,0.1,0.1,0.3,0.1C2-1.3,2-1.4,2.1-1.4c0.1,0,0.1,0,0.2,0c0.1,0,0.1,0.1,0.3,0
							c0.1,0,0.1-0.1,0.2-0.1C2.9-1.6,2.9-1.6,3-1.7c0.1-0.1,0.1-0.1,0.2-0.1C3.3-1.9,3.3-1.9,3.4-2c0.1-0.1,0.1,0,0.2-0.1
							c0.1-0.1,0.1-0.1,0.2-0.2c0.1-0.1,0.1-0.1,0.1-0.2c0.1-0.1,0-0.1,0-0.2C4-2.8,4.1-2.8,4.1-2.9C4.1-3,4.2-3,4.2-3.1
							c0-0.1,0-0.1,0-0.3c0-0.1,0-0.1,0-0.2c0-0.1,0-0.1,0-0.2c0-0.1,0-0.1,0-0.2c0-0.1,0-0.1,0-0.2c0-0.1,0.1-0.1,0-0.3
							c0-0.1-0.1-0.1-0.1-0.2C4-4.9,3.8-4.8,3.8-4.9c-0.1-0.1,0-0.2,0-0.3c-0.1-0.1-0.1,0-0.2-0.1C3.5-5.4,3.4-5.4,3.4-5.5
							c-0.1-0.1,0-0.1-0.1-0.2C3.1-5.7,3-5.6,3-5.7c-0.1-0.1,0-0.2-0.2-0.2C2.7-6,2.7-6,2.6-6C2.5-6,2.5-6,2.3-6C2.2-6,2.2-6,2.1-6
							C2-6,2-6.1,1.9-6.1c-0.1,0-0.1,0-0.2,0c-0.1,0-0.1,0-0.2,0C1.3-6,1.3-6,1.2-6C1.1-6,1.1-5.9,1-5.8c-0.1,0.1-0.1,0-0.2,0
							C0.7-5.7,0.7-5.7,0.6-5.6c-0.1,0-0.1,0-0.1,0.1C0.4-5.5,0.4-5.4,0.3-5.4c-0.1,0.1-0.1,0-0.2,0.1c0,0,0,0-0.1,0.1
							C0.1-5.1,0.2-5,0.2-4.9c0,0.1-0.2,0.1-0.2,0.1c0,0.1,0,0.2,0,0.2c0,0.1,0.1,0.2,0.1,0.3l0,0.2C0.1-4-0.1-3.9,0-3.9
							c0,0.1,0,0,0,0.1c0,0.1,0.2,0.1,0.2,0.2c0,0.1-0.1,0.1-0.1,0.2c0.1,0.1,0.2,0.1,0.3,0.1c0.1,0.1,0,0.1,0,0.2
							C0.5-3,0.5-3,0.5-3c0.1,0.1,0.2,0,0.2,0.1c0,0,0,0.1,0.1,0.1c0,0,0.1,0.1,0.1,0c0-0.1,0-0.1,0-0.2c0-0.1,0-0.1,0-0.1
							c0-0.1-0.2,0-0.2-0.1c0-0.1,0.1-0.1,0.1-0.2c0-0.1,0.1-0.1,0.1-0.1c0-0.1,0-0.1,0.1-0.1L1-3.7c0,0-0.1,0,0,0
							c0,0-0.1-0.1,0-0.1C1-3.9,1-3.9,1-4c0,0,0.2,0,0.2,0c0,0,0,0,0.1-0.1l0.1,0l0.1,0c0,0,0-0.1,0-0.1c0,0,0.1,0,0.1,0
							c0,0,0-0.1,0-0.1c0,0,0-0.1,0-0.1c0,0,0.1,0,0.1,0c0,0,0-0.1,0-0.1l0.1,0l0.1,0c0,0,0,0,0.1,0c0,0,0,0.1,0.1,0.1l0,0.1l0.1,0
							c0,0,0.1-0.1,0.1-0.1c0,0,0,0.1,0,0.1c0,0,0.1-0.1,0.1-0.1c0,0,0,0.1,0,0.1c0,0,0.1,0,0.1,0c0,0,0,0,0.1,0
							c0,0-0.1,0.1-0.1,0.1l0.1,0c0,0,0.1,0,0.1,0c0,0,0,0,0,0.1c0,0-0.1,0-0.1,0.1c0,0,0.1,0,0.1,0.1c0,0,0,0,0,0.1
							c0,0-0.2,0-0.2,0l0,0.1c0,0,0,0,0,0.1l-0.1,0c0,0,0.1,0.1,0.1,0.1c0,0-0.1,0-0.1,0c0,0,0.1,0.1,0,0.1c0,0-0.1-0.1-0.2-0.1
							c0,0,0.1,0.2,0,0.2l0,0.1c0,0-0.1,0-0.1,0c0,0-0.1-0.1-0.1-0.1c0,0,0,0.1,0,0.1l-0.1,0c0,0,0-0.1,0-0.1c0,0,0,0-0.1,0l-0.1,0
							c0,0-0.1,0.1-0.1,0.1c0,0,0-0.1,0-0.1l0,0c0,0,0,0-0.1,0c0,0,0-0.1,0-0.1c0,0,0.1-0.1,0-0.1"/>
					</g>
					<g>
						<path class="st5" d="M0.6-2.4c0.1,0.1,0.2-0.1,0.3,0c0.1,0,0,0.1,0.1,0.2c0.1,0.1,0.1,0,0.2,0c0.1,0,0,0.1,0.1,0.1
							C1.4-2,1.4-2,1.5-1.9c0.1,0,0.1,0,0.2,0c0.1,0,0.1-0.1,0.2,0C2-2,2-2,2.1-2c0.1,0,0.1,0.1,0.2,0.1C2.4-1.9,2.3-2,2.4-2
							c0.1,0,0.1-0.1,0.2-0.1c0.1,0,0.1,0.1,0.2,0C2.9-2.1,2.9-2.2,3-2.2c0.1-0.1,0-0.1,0.1-0.2c0.1-0.1,0.1-0.1,0.1-0.2
							c0.1-0.1,0-0.1,0.1-0.2c0-0.1,0-0.1,0.1-0.2c0-0.1,0.2,0,0.2-0.1C3.7-3,3.7-3,3.7-3.1c0-0.1-0.1-0.1-0.1-0.2
							c0-0.1,0-0.1,0-0.2c0-0.1,0.1-0.1,0.1-0.2c0-0.1,0-0.1,0-0.2c0-0.1,0.1-0.1,0-0.2c0-0.1,0-0.1-0.1-0.2c0-0.1,0-0.1,0-0.2
							c0-0.1-0.1,0-0.2-0.1c0-0.1,0-0.1-0.1-0.2c-0.1-0.1,0-0.1-0.1-0.2C3.3-5,3.3-4.9,3.2-5c-0.1-0.1-0.1,0-0.1-0.1
							C3-5.2,3-5.1,2.9-5.2c-0.1,0-0.1,0-0.2-0.1c-0.1,0,0-0.1-0.1-0.1c0,0,0-0.1,0-0.1c-0.1,0-0.1,0-0.2-0.1
							c-0.1,0-0.1,0.1-0.2,0.1c-0.1,0-0.1-0.1-0.2-0.1c-0.1,0-0.1-0.1-0.2,0c-0.1,0-0.1,0.1-0.2,0.1L1.5-5.3l-0.2,0
							c-0.1,0-0.1,0.1-0.2,0.1L1.1-5.1c0,0-0.1,0-0.2,0L0.8-5c0,0,0,0.2,0,0.2c0,0.1-0.1,0-0.2,0c0,0.1,0,0.1,0,0.2
							c0,0.1,0,0.1-0.1,0.2c0,0.1-0.1,0-0.2,0.1c0,0.1,0.1,0.1,0.1,0.2c0,0.1-0.1,0.1-0.2,0.1c0,0.1,0,0.1,0,0.2c0,0.1,0,0.1,0,0.2
							c0,0.1,0.1,0.1,0.1,0.1c0,0.1,0,0.1,0,0.2c0,0.1,0,0.1,0,0.1c0,0.1,0,0.1,0,0.2c0,0.1,0,0.1,0.1,0.1c0,0.1,0.2,0,0.2,0
							c0,0,0,0.1,0,0.1c0,0,0.1,0,0.1,0c0-0.1,0-0.1-0.1-0.1C0.8-3,0.8-3,0.7-3c0-0.1,0-0.1,0-0.2c0-0.1,0-0.1,0-0.1
							c0-0.1-0.2,0-0.2-0.1c0-0.1,0.2-0.1,0.2-0.2c0-0.1-0.1-0.1-0.1-0.1c0-0.1-0.1-0.1-0.1-0.1c0-0.1,0-0.1,0-0.1
							c0-0.1,0.2,0,0.2-0.1c0-0.1,0-0.1,0.1-0.1c0,0-0.1-0.1-0.1-0.2c0,0,0.2,0,0.2,0c0,0-0.1-0.1-0.1-0.2c0,0,0.1,0,0.1,0
							c0,0,0.1,0,0.1,0c0.1,0,0-0.1,0.1-0.1c0.1,0,0.1,0,0.2,0c0.1,0,0.1,0,0.1,0c0.1,0,0.1,0,0.1,0c0.1,0,0.1,0,0.1,0
							c0.1,0,0-0.2,0.1-0.2c0.1,0,0.1,0,0.1,0.1C2-4.9,2-4.8,2.1-4.8c0,0,0,0,0.1,0c0,0,0,0.1,0.1,0.1c0,0,0.1-0.1,0.1,0
							c0.1,0,0.1-0.1,0.2-0.1c0,0,0,0,0.1,0.1c0.1,0,0,0.1,0,0.2c0,0,0.1,0,0.1,0c0.1,0,0,0.1,0.1,0.1c0,0,0,0.1,0,0.1
							c0,0,0.1,0,0.1,0.1c0,0,0,0.1,0,0.1C2.9-4.1,3-4.1,3-4C3-4,3-4,3-3.9C3-3.9,3-3.9,3-3.8c0,0.1,0.1,0.1,0.1,0.1
							c0,0.1,0,0.1,0,0.1c0,0.1,0,0.1,0,0.1c0,0.1,0,0.1,0,0.1c0,0.1-0.1,0-0.1,0.1c0,0-0.1,0-0.1,0.1c0,0,0,0.1,0,0.1
							c0,0,0.1,0.1,0,0.2c0,0-0.1,0-0.2,0c0,0,0.1,0.1,0,0.2c-0.1,0-0.1-0.1-0.2,0c0,0,0,0.1,0,0.1c0,0,0,0.1-0.1,0.1
							c-0.1,0-0.1-0.1-0.2-0.1c0,0,0,0-0.1,0C2-2.7,2-2.6,1.9-2.6c-0.1,0-0.1-0.1-0.1-0.1c-0.1,0,0-0.1-0.1-0.1c0,0-0.1,0.1-0.1,0.1
							c-0.1,0-0.1,0-0.1,0c-0.1,0,0-0.2,0-0.2L1.4-2.9c0,0-0.1,0-0.1,0c0,0,0-0.1,0-0.1c0,0-0.1,0.1-0.2,0.1"/>
					</g>
				</g>
			</g>
			<g>
				<path class="st3" d="M0.3-2.6C1-3.2,1.1-4.3,0.5-5c-0.6-0.7-1.7-0.8-2.4-0.2c-0.7,0.6-0.8,1.7-0.2,2.4C-1.5-2.1-0.5-2,0.3-2.6z"
					/>
				<g>
					<g>
						<path class="st6" d="M1-1.8C1.1-1.9,1-2,1.1-2.1c0.1-0.1,0.1-0.1,0.1-0.3c0.1-0.1,0.2,0,0.3-0.1c0.1-0.1,0.1-0.1,0.1-0.3
							c0-0.1,0.1-0.1,0.2-0.2c0-0.1,0-0.2,0.1-0.3C1.9-3.4,2-3.4,2-3.5c0-0.1-0.1-0.1-0.1-0.3c0-0.1,0-0.1,0-0.3
							C1.9-4.2,2-4.3,2-4.4c0-0.2-0.1-0.1-0.1-0.3C1.8-4.8,1.8-4.8,1.7-4.9C1.6-5.1,1.6-5.1,1.5-5.2C1.5-5.3,1.4-5.3,1.4-5.4
							c-0.1-0.1,0-0.2-0.1-0.3C1.1-5.7,1.2-5.8,1.1-5.9C1-6,1-6,0.9-6.1c-0.1-0.1-0.2,0-0.3-0.1C0.5-6.2,0.5-6.3,0.4-6.4
							c-0.1,0-0.1-0.1-0.3-0.1c-0.1,0-0.2,0-0.3,0c-0.1,0-0.1,0-0.3,0c-0.1,0-0.1-0.1-0.3-0.1c-0.1,0-0.1,0-0.3,0
							c-0.1,0-0.1,0-0.3,0c-0.1,0-0.2-0.1-0.3-0.1c-0.1,0-0.1,0.1-0.3,0.1C-2-6.4-1.9-6.3-2-6.2c-0.1,0.1-0.2-0.1-0.3,0
							C-2.5-6.1-2.4-6-2.5-6c-0.1,0.1-0.1,0.1-0.2,0.2c-0.1,0.1-0.2,0-0.2,0.1c-0.1,0.1,0,0.2,0,0.3c-0.1,0.1-0.2,0-0.3,0.2
							c0,0.1-0.1,0.1-0.1,0.2c0,0.1,0,0.2,0,0.3c0,0.1,0,0.2,0,0.3c0,0.1-0.1,0.1-0.1,0.2c0,0.1,0,0.1,0,0.3c0,0.1,0,0.1,0,0.3
							c0,0.1,0,0.1,0,0.3c0,0.1,0.2,0.1,0.2,0.2c0.1,0.1-0.1,0.2,0,0.3c0.1,0.1,0.1,0.1,0.2,0.2c0,0.1,0,0.1,0.1,0.2
							C-3-2.3-3-2.3-2.9-2.2c0.1,0.1,0,0.1,0.1,0.2c0,0,0,0.1,0.1,0.1C-2.6-1.9-2.5-2-2.4-2c0.1,0,0,0.2,0.1,0.3c0.1,0,0.2,0,0.3,0
							c0.1,0,0.2-0.1,0.3-0.1l0.3,0c0.1,0,0.1,0.2,0.2,0.2c0.1,0,0.1,0,0.1,0c0.1,0,0.1-0.2,0.3-0.3c0.1,0,0.1,0.1,0.2,0.1
							C-0.5-1.8-0.5-2-0.4-2.1c0.1-0.1,0.1,0.1,0.2,0c0.1-0.1,0.1,0,0.2-0.1C0-2.3,0-2.4,0-2.4c0-0.1,0.1,0,0.1-0.1
							c0,0,0.1-0.1,0-0.1c-0.1,0-0.1,0-0.2,0c-0.1,0-0.1,0-0.2,0c-0.1,0,0,0.2-0.1,0.2c-0.1,0-0.1-0.1-0.2-0.1
							c-0.1,0-0.1-0.1-0.2-0.1c-0.1,0-0.1,0-0.1-0.1c0,0,0-0.1-0.1-0.1c0,0,0,0.1-0.1,0C-1-2.8-1-2.7-1.1-2.7
							c-0.1-0.1-0.1-0.1-0.1-0.1c0-0.1,0-0.2,0-0.2c0,0,0,0-0.1-0.1l0-0.1c0,0,0-0.1,0-0.1c0,0-0.1,0-0.1,0c0,0,0.1-0.1,0-0.1
							c0,0-0.1,0-0.1,0c0,0-0.1,0-0.1,0c0,0,0-0.1,0-0.1c0,0-0.1,0-0.1-0.1c0,0,0,0,0-0.1c0,0,0,0,0-0.1c0,0,0,0,0-0.1
							c0,0,0.1,0,0.2,0c0,0,0.1,0,0.1,0l0-0.1c0,0-0.1-0.1-0.1-0.1c0,0,0.1,0.1,0.2,0c0,0-0.1-0.1-0.1-0.2c0,0,0.1,0.1,0.1,0
							c0,0,0-0.1,0-0.1c0,0,0-0.1,0-0.1c0,0,0.1,0.1,0.1,0.1l0-0.1c0,0,0-0.1,0.1-0.1c0,0,0,0.1,0.1,0.1c0,0,0,0.1,0.1,0.1
							c0,0,0-0.1,0.1-0.1c0,0,0,0,0.1,0c0,0,0,0.2,0,0.2l0.1,0c0,0,0.1,0,0.1,0c0,0,0,0.1,0,0.1c0,0,0.1-0.1,0.2-0.1
							c0,0-0.1,0.1,0,0.1c0,0,0.1-0.1,0.2,0c0,0-0.2,0.1-0.1,0.2c0,0,0.2-0.1,0.2,0l0.1,0.1c0,0-0.1,0.1-0.1,0.1C-0.1-4-0.3-4-0.3-4
							c0,0,0.2,0,0.2,0l0,0.1c0,0-0.1,0-0.1,0c0,0,0,0,0,0.1l0,0.1c0,0,0.1,0.1,0.1,0.1c0,0-0.1,0-0.1,0l0,0c0,0,0,0.1,0,0.1
							c0,0-0.1,0-0.1,0c0,0-0.1-0.1-0.1-0.1"/>
					</g>
					<g>
						<path class="st7" d="M0.6-2.2c0.1-0.1-0.1-0.3,0-0.3c0.1-0.1,0.2,0,0.2-0.1c0.1-0.1,0-0.1,0-0.2C1-2.9,1-2.9,1.1-3
							c0-0.1,0.1-0.1,0.2-0.2c0-0.1,0-0.1,0-0.2c0-0.1-0.1-0.1,0-0.2c0-0.1,0-0.1,0-0.2C1.2-4,1.4-4,1.4-4.1c0-0.1-0.1-0.1-0.2-0.2
							c0-0.1-0.1-0.1-0.1-0.2c0-0.1,0.1-0.2,0.1-0.3c0-0.1-0.1-0.1-0.1-0.2C1-5,0.9-5,0.9-5.1C0.8-5.2,0.8-5.2,0.7-5.2
							C0.6-5.3,0.6-5.3,0.5-5.4c-0.1-0.1-0.1,0-0.2-0.1c-0.1-0.1,0-0.2-0.1-0.3C0.2-5.8,0.2-5.8,0.1-5.9c-0.1,0-0.1,0.1-0.2,0
							c-0.1,0-0.1,0-0.2,0C-0.5-5.9-0.5-6-0.6-6c-0.1,0-0.1,0-0.2,0C-0.9-6-0.9-6.1-1-6.1c-0.1,0-0.1,0-0.2,0c-0.1,0-0.1,0-0.2,0
							c-0.1,0-0.1,0.1-0.1,0.2c-0.1,0-0.1,0-0.2,0.1c-0.1,0.1-0.2,0-0.3,0c-0.1,0.1,0,0.1-0.1,0.2c-0.1,0.1-0.1,0.1-0.1,0.1
							c-0.1,0.1-0.1,0.1-0.1,0.2c-0.1,0.1,0,0.1-0.1,0.2C-2.5-5-2.6-5-2.6-5c0,0-0.1,0-0.1,0c-0.1,0.1,0,0.1-0.1,0.2
							c0,0.1,0.1,0.2,0.1,0.3c0,0.1-0.1,0.1-0.1,0.2c0,0.1-0.1,0.2-0.1,0.2c0,0.1,0.1,0.1,0.1,0.2c0,0.1,0.1,0.1,0.1,0.2l0,0.2
							c0,0.1,0.1,0.1,0.1,0.2l0.1,0.1c0,0,0,0.1,0,0.2l0.1,0.1c0,0,0.2,0,0.2,0c0.1,0.1-0.1,0.1,0,0.2c0.1,0.1,0.2,0,0.2,0
							c0.1,0.1,0.1,0.1,0.2,0.1c0.1,0.1,0,0.1,0.1,0.2c0.1,0,0.2-0.1,0.2-0.1c0.1,0,0,0.2,0.1,0.2c0.1,0,0.1,0,0.2,0.1
							C-1-2-1-2-0.9-2.1c0.1,0,0.1-0.1,0.2-0.1c0.1,0,0.1,0,0.2,0c0.1,0,0.1,0,0.2,0c0.1,0,0.1,0,0.2,0c0.1,0,0.1,0,0.2-0.1
							C0-2.3,0-2.4,0-2.5c0.1,0,0.1,0.1,0.2,0c0,0,0.1-0.1,0-0.1c-0.1,0-0.1,0-0.2,0.1C0-2.5,0-2.5-0.1-2.4c-0.1,0-0.1,0-0.2,0
							c-0.1,0-0.1,0-0.2,0c-0.1,0-0.1,0.2-0.2,0.2c-0.1,0-0.1-0.2-0.2-0.2c-0.1,0-0.1,0.1-0.2,0.1c-0.1,0-0.1,0.1-0.2,0.1
							c-0.1,0-0.1,0-0.2-0.1c-0.1,0,0-0.2-0.1-0.2c-0.1,0-0.1,0-0.1-0.1c0-0.1-0.1,0.1-0.2,0c-0.1-0.1,0.1-0.2,0-0.2
							c0,0-0.2,0.1-0.2,0.1c0,0,0-0.1,0-0.1C-2-2.9-1.9-3-1.9-3c0-0.1-0.1,0-0.2-0.1c0-0.1,0-0.1,0-0.2c0-0.1,0-0.1,0-0.2
							c0-0.1,0-0.1,0-0.2c0-0.1,0-0.1,0-0.1c0-0.1-0.2-0.1-0.2-0.1C-2.3-4-2.2-4-2.2-4.1c0-0.1,0.1-0.1,0.1-0.1c0-0.1,0,0,0.1-0.1
							c0,0,0.1,0,0.1-0.1c0,0-0.1-0.1,0-0.1c0-0.1-0.1-0.1-0.1-0.2c0-0.1,0.1,0,0.1-0.1c0-0.1,0.2,0,0.2,0c0-0.1,0-0.1,0.1-0.1
							c0-0.1,0.1,0,0.1-0.1c0.1,0,0.1,0,0.1,0c0.1,0,0-0.1,0.1-0.1c0.1,0,0.1,0.1,0.1,0c0.1,0,0.1-0.1,0.1-0.1C-1-5.2-1-5.2-0.9-5.2
							c0.1,0,0.1,0.1,0.1,0.1c0.1,0,0.1-0.2,0.2-0.1c0.1,0,0.1,0,0.1,0c0.1,0,0.1,0,0.1,0.1c0.1,0,0.1,0,0.1,0c0.1,0,0,0.1,0.1,0.2
							c0,0,0,0.1,0.1,0.1c0,0,0.1,0,0.1,0.1c0.1,0,0.1-0.1,0.2,0c0.1,0-0.1,0.1,0,0.2c0,0.1,0.2,0,0.2,0c0,0.1-0.1,0.1-0.1,0.2
							c0,0.1,0.1,0,0.1,0.1c0,0.1,0.1,0,0.1,0.1c0,0.1-0.1,0.1-0.1,0.2c0,0.1,0,0.1,0,0.1c0,0.1,0.1,0.1,0.1,0.1
							c0,0.1-0.1,0.1-0.1,0.1c0,0.1-0.1,0-0.1,0.1c0,0,0.1,0.1,0.1,0.1c0,0.1,0,0.1,0,0.1c0,0.1-0.2,0-0.2,0c0,0,0,0-0.1,0.1
							c0,0,0,0.1,0,0.1c0,0-0.1,0-0.1,0c0,0,0.1,0.2,0.1,0.2"/>
					</g>
				</g>
			</g>
			<g>
				<path class="st3" d="M-1.6-1.2c0.5-0.4,0.6-1.1,0.2-1.6C-1.9-3.3-2.6-3.4-3.1-3c-0.5,0.4-0.6,1.1-0.2,1.6
					C-2.9-0.8-2.1-0.8-1.6-1.2z"/>
				<g>
					<g>
						<path class="st8" d="M-1.1-0.6c0.1-0.1,0-0.1,0.1-0.2C-1-0.9-1-0.9-1-1c0.1-0.1,0.1,0,0.2-0.1c0.1-0.1,0-0.1,0.1-0.2
							c0-0.1,0.1-0.1,0.1-0.2c0-0.1,0-0.1,0-0.2c0-0.1,0.1-0.1,0.1-0.2c0-0.1-0.1-0.1-0.1-0.2c0-0.1,0-0.1,0-0.2
							c0-0.1,0.1-0.1,0-0.2c0-0.1-0.1-0.1-0.1-0.2c0-0.1,0-0.1-0.1-0.2c0-0.1-0.1-0.1-0.1-0.2C-0.8-3-0.9-3-0.9-3.1
							c-0.1-0.1,0-0.1-0.1-0.2c-0.1-0.1,0-0.1-0.1-0.2c-0.1-0.1-0.1-0.1-0.1-0.1c-0.1-0.1-0.1,0-0.2-0.1c-0.1-0.1,0-0.1-0.1-0.1
							c-0.1,0-0.1-0.1-0.2-0.1c-0.1,0-0.1,0-0.2,0c-0.1,0-0.1,0-0.2,0c-0.1,0-0.1,0-0.2,0c-0.1,0-0.1,0-0.2,0c-0.1,0-0.1,0-0.2,0
							c-0.1,0-0.1-0.1-0.2,0c-0.1,0-0.1,0-0.2,0.1c-0.1,0,0,0.2-0.1,0.2c-0.1,0-0.1,0-0.2,0c-0.1,0,0,0.1-0.1,0.2
							c-0.1,0.1-0.1,0.1-0.1,0.1c-0.1,0.1-0.1,0-0.2,0.1c-0.1,0.1,0,0.1,0,0.2C-3.9-3-4-3-4.1-2.9c0,0.1,0,0.1-0.1,0.2
							c0,0.1,0,0.1,0,0.2c0,0.1,0,0.1,0,0.2c0,0.1-0.1,0.1-0.1,0.2c0,0.1,0,0.1,0,0.2c0,0.1,0,0.1,0,0.2c0,0.1,0,0.1,0,0.2
							c0,0.1,0.1,0.1,0.1,0.1c0,0.1,0,0.1,0,0.2C-4-1.2-4-1.3-4-1.2c0,0.1,0,0.1,0.1,0.1C-3.9-1-3.9-1-3.8-0.9c0,0.1,0,0.1,0.1,0.1
							c0,0,0,0,0,0.1c0.1,0.1,0.2-0.1,0.3,0c0,0,0,0.2,0.1,0.2l0.2,0c0.1,0,0.2-0.1,0.2-0.1l0.2,0c0.1,0,0.1,0.1,0.1,0.1
							c0,0,0,0,0.1,0c0.1,0,0.1-0.1,0.2-0.2c0.1,0,0.1,0.1,0.2,0.1c0.1,0,0.1-0.2,0.1-0.2c0.1,0,0.1,0,0.1,0c0,0,0.1,0,0.1,0
							C-1.8-1-1.8-1-1.8-1.1c0,0,0.1,0,0.1,0c0,0,0.1-0.1,0-0.1c-0.1,0-0.1,0-0.1,0c-0.1,0-0.1,0-0.1,0C-2-1.2-2-1.1-2-1.1
							c-0.1,0-0.1-0.1-0.1-0.1c-0.1,0-0.1-0.1-0.1-0.1c-0.1,0-0.1,0-0.1-0.1l-0.1-0.1c0,0,0,0.1,0,0c0,0-0.1,0.1-0.1,0
							c0,0,0-0.1-0.1-0.1c0,0,0-0.1,0-0.2c0,0,0,0,0-0.1l0-0.1l0-0.1c0,0-0.1,0-0.1,0c0,0,0-0.1,0-0.1c0,0,0,0-0.1,0l-0.1,0
							c0,0,0,0,0-0.1c0,0-0.1,0-0.1,0l0-0.1l0-0.1c0,0,0,0,0-0.1c0,0,0.1,0,0.1,0l0,0l0-0.1c0,0-0.1-0.1-0.1-0.1c0,0,0.1,0,0.1,0
							c0,0-0.1-0.1-0.1-0.1c0,0,0.1,0,0.1,0c0,0,0-0.1,0-0.1c0,0,0,0,0-0.1c0,0,0.1,0.1,0.1,0.1l0,0c0,0,0-0.1,0-0.1c0,0,0,0,0.1,0
							c0,0,0,0.1,0,0.1c0,0,0-0.1,0.1-0.1c0,0,0,0,0.1,0c0,0,0,0.1,0,0.1l0,0c0,0,0,0,0,0l0,0.1c0,0,0.1-0.1,0.1-0.1
							c0,0,0,0.1,0,0.1c0,0,0.1-0.1,0.1,0c0,0-0.1,0.1-0.1,0.1c0,0,0.1,0,0.1,0l0,0c0,0,0,0,0,0.1c0,0-0.1,0-0.1,0.1
							c0,0,0.1,0,0.1,0l0,0.1C-1.9-2-2-2-2-2l0,0l0,0c0,0,0.1,0.1,0.1,0.1c0,0-0.1,0-0.1,0l0,0l0,0.1c0,0,0,0-0.1,0c0,0,0,0,0,0"/>
					</g>
					<g>
						<path class="st9" d="M-1.4-0.9c0.1-0.1-0.1-0.2,0-0.2c0-0.1,0.1,0,0.2-0.1c0-0.1,0-0.1,0-0.2c0-0.1,0.1,0,0.1-0.1
							c0-0.1,0.1,0,0.1-0.1c0-0.1,0-0.1,0-0.2c0-0.1,0-0.1,0-0.2C-1-2-1-2-1-2.1c0-0.1,0.1-0.1,0.1-0.1C-0.9-2.3-1-2.3-1-2.3
							c0-0.1,0-0.1-0.1-0.1c0-0.1,0.1-0.1,0-0.2c0-0.1-0.1-0.1-0.1-0.1c0-0.1-0.1,0-0.1-0.1c0-0.1-0.1-0.1-0.1-0.1
							C-1.4-3-1.4-3-1.5-3.1c-0.1,0-0.1,0-0.1-0.1c-0.1,0,0-0.1-0.1-0.2c-0.1-0.1-0.1-0.1-0.1-0.1c-0.1,0-0.1,0-0.2,0
							c-0.1,0-0.1,0-0.2,0c-0.1,0,0-0.1-0.1-0.1c-0.1,0-0.1,0-0.1,0c-0.1,0-0.1-0.1-0.2-0.1c-0.1,0-0.1,0-0.1,0c-0.1,0-0.1,0-0.2,0
							c-0.1,0,0,0.1-0.1,0.1C-3-3.4-3-3.4-3-3.3c-0.1,0-0.1,0-0.2,0c-0.1,0,0,0.1-0.1,0.1c0,0,0,0-0.1,0.1C-3.4-3-3.4-3-3.5-3
							c0,0.1,0,0.1-0.1,0.1c0,0-0.1,0-0.1,0.1l-0.1,0c0,0.1,0,0.1-0.1,0.2c0,0,0,0.1,0,0.2c0,0-0.1,0.1-0.1,0.1c0,0.1-0.1,0.1,0,0.2
							c0,0,0.1,0.1,0.1,0.1l0.1,0.1l0,0.1c0,0.1,0,0.1,0.1,0.1l0.1,0.1c0,0,0,0.1,0,0.1l0.1,0.1c0,0,0.1,0,0.1,0c0,0,0,0.1,0,0.1
							c0.1,0,0.1,0,0.2,0c0.1,0,0.1,0,0.1,0.1C-3-1-3.1-1-3-0.9C-2.9-0.9-2.9-1-2.8-1c0.1,0,0,0.1,0.1,0.1c0.1,0,0.1,0,0.1,0
							c0.1,0,0.1,0,0.1,0c0.1,0,0.1,0,0.1-0.1c0.1,0,0.1,0,0.1,0c0.1,0,0.1,0,0.1,0c0.1,0,0.1,0,0.1,0c0.1,0,0.1,0,0.1-0.1
							c0,0,0-0.1,0-0.2c0,0,0.1,0,0.1,0c0,0,0-0.1,0-0.1c-0.1,0-0.1,0-0.1,0c-0.1,0-0.1,0-0.1,0.1C-2-1-2-1.1-2-1.1c0,0-0.1,0-0.1,0
							c-0.1,0,0,0.1-0.1,0.1c-0.1,0-0.1-0.1-0.1-0.1c-0.1,0-0.1,0-0.1,0c0,0-0.1,0.1-0.1,0.1C-2.7-1-2.7-1-2.7-1c-0.1,0,0-0.1,0-0.2
							c0,0,0,0-0.1-0.1c0,0-0.1,0.1-0.1,0c0,0,0-0.1,0-0.2c0,0-0.1,0.1-0.2,0.1c0,0,0-0.1,0-0.1c0,0,0-0.1,0-0.1c0,0-0.1,0-0.1-0.1
							c0-0.1,0-0.1,0-0.1c0,0,0-0.1,0-0.1c0,0,0-0.1,0-0.1c0,0,0,0,0-0.1c0,0-0.1,0-0.1-0.1c0-0.1,0-0.1,0.1-0.1c0,0,0.1,0,0.1-0.1
							l0-0.1l0.1,0c0,0,0,0,0-0.1c0,0-0.1-0.1,0-0.1l0.1-0.1c0,0,0.1,0,0.1,0c0,0,0-0.1,0-0.1c0,0,0.1,0,0.1,0l0.1,0
							c0,0,0-0.1,0-0.1c0,0,0.1,0,0.1,0c0,0,0,0,0.1,0c0,0,0,0,0.1,0c0,0,0,0,0.1,0c0,0,0.1-0.1,0.1-0.1l0.1,0c0,0,0,0,0.1,0
							c0,0,0,0,0.1,0c0.1,0,0,0.1,0,0.1c0,0,0,0.1,0,0.1l0.1,0c0,0,0.1,0,0.1,0c0,0,0,0.1,0,0.1c0,0,0.1,0,0.1,0c0,0-0.1,0.1,0,0.1
							c0,0,0.1,0,0.1,0c0,0,0.1,0,0.1,0.1c0,0.1-0.1,0.1-0.1,0.1l0,0.1c0,0,0.1,0,0.1,0.1c0,0-0.1,0-0.1,0.1c0,0-0.1,0-0.1,0.1
							c0,0,0.1,0.1,0.1,0.1l0,0.1c0,0-0.1,0-0.2,0l0,0.1l0,0.1c0,0,0,0-0.1,0c0,0,0.1,0.1,0.1,0.1"/>
					</g>
				</g>
			</g>
			<g>
				<path class="st3" d="M1.9-0.3C2.2-0.5,2.3-1,2-1.3C1.8-1.6,1.3-1.6,1-1.4c-0.3,0.2-0.3,0.7-0.1,1C1.2-0.1,1.6,0,1.9-0.3z"/>
				<g>
					<g>
						<path class="st10" d="M2.5,0.4c0.1-0.1,0-0.1,0-0.2c0.1-0.1,0-0.1,0.1-0.1C2.6,0,2.7,0,2.8,0c0-0.1,0-0.1,0-0.1
							c0-0.1,0.1,0,0.1-0.1c0-0.1,0-0.1,0-0.2C3-0.5,3-0.5,3-0.6C3.1-0.7,3-0.7,3-0.8c0-0.1,0-0.1,0-0.2C2.9-1,3-1,3-1.1
							c0-0.1-0.1-0.1-0.1-0.1c0-0.1,0-0.1-0.1-0.1c0-0.1,0-0.1-0.1-0.1c0-0.1-0.1,0-0.1-0.1c0-0.1,0-0.1-0.1-0.1
							c-0.1-0.1,0-0.1-0.1-0.1c-0.1,0,0-0.1-0.1-0.1C2.3-2,2.3-2,2.2-2c-0.1,0,0-0.1-0.1-0.1C2.1-2.2,2.1-2.2,2-2.2
							c-0.1,0-0.1,0-0.2,0c-0.1,0-0.1,0-0.1,0c-0.1,0-0.1,0-0.1,0c-0.1,0-0.1,0-0.2,0c-0.1,0-0.1,0-0.1,0c-0.1,0-0.1-0.1-0.2-0.1
							C1-2.3,1-2.2,0.9-2.2c-0.1,0,0,0.2-0.1,0.2c-0.1,0-0.1-0.1-0.2,0C0.6-2,0.6-2,0.6-1.9C0.5-1.9,0.5-1.9,0.5-1.8
							c0,0.1-0.1,0-0.1,0.1c0,0.1,0,0.1,0,0.2c0,0.1-0.2,0-0.2,0.1c0,0.1,0,0.1-0.1,0.1c0,0.1,0,0.1,0,0.2c0,0.1,0,0.1,0,0.2
							C0.1-1,0-1,0-0.9c0,0.1,0,0.1,0,0.2c0,0.1,0,0.1,0,0.1c0,0.1,0,0.1,0,0.2c0,0.1,0.1,0,0.1,0.1c0,0.1-0.1,0.1,0,0.2
							c0,0.1,0.1,0,0.1,0.1c0,0,0,0.1,0,0.1c0,0.1,0,0,0.1,0.1c0,0,0,0.1,0,0.1c0,0,0,0,0,0c0.1,0,0.2-0.1,0.2-0.1
							c0,0,0,0.2,0.1,0.2c0,0,0.1,0,0.2,0c0.1,0,0.1-0.1,0.2-0.1l0.1,0c0,0,0.1,0.1,0.1,0.1c0,0,0,0,0.1,0c0.1,0,0.1-0.2,0.1-0.2
							c0,0,0.1,0.1,0.1,0.1c0.1,0,0-0.2,0.1-0.2c0,0,0.1,0,0.1,0c0,0,0,0,0.1,0c0,0,0-0.1,0-0.2c0,0,0,0,0.1,0c0,0,0-0.1,0-0.1
							c-0.1,0-0.1,0-0.1,0c0,0,0,0-0.1,0c0,0,0,0.1,0,0.1c0,0-0.1-0.1-0.1-0.1c0,0,0-0.1-0.1-0.1l0-0.1l0-0.1c0,0,0,0.1,0,0
							c0,0,0,0.1,0,0l0-0.1c0,0,0-0.1,0-0.2c0,0,0,0,0,0l0-0.1l0,0c0,0,0,0.1-0.1,0.1c0,0,0.1,0,0.1,0c0,0,0,0,0,0c0,0,0,0,0,0
							c0,0,0.1,0,0,0c0,0-0.1,0-0.1,0l0,0l0,0l0,0c0,0,0.1,0,0.1,0l0,0l0,0c0,0-0.1,0-0.1,0c0,0,0.1,0.1,0.1,0.1
							c0,0-0.1-0.1-0.1-0.1c0,0,0.1,0.1,0.1,0.1c0,0,0,0,0,0c0,0,0,0,0,0c0,0,0.1,0.1,0,0.1l0,0c0,0,0-0.1,0-0.1c0,0,0,0.1,0,0.1
							c0,0,0,0.1,0,0.1c0,0,0-0.1,0-0.1c0,0,0,0,0,0c0,0,0,0.2,0,0.1l0,0c0,0,0,0,0,0l0,0c0,0,0.1-0.1,0.1-0.1c0,0-0.1,0.1-0.1,0.1
							c0,0,0.1-0.1,0.1-0.1c0,0-0.1,0.1-0.1,0.1c0,0,0.1-0.1,0.1-0.1l0,0c0,0,0,0-0.1,0c0,0-0.1,0-0.1,0c0,0,0.1,0,0.1,0v0
							c0,0-0.1,0-0.1,0l0,0l0,0c0,0,0.1,0,0.1,0c0,0-0.1,0-0.1,0l0,0l0,0c0,0,0,0,0,0c0,0,0-0.1,0-0.1"/>
					</g>
					<g>
						<path class="st11" d="M2.2,0c0,0-0.1-0.2-0.1-0.2c0,0,0.1,0,0.1,0c0,0,0-0.1,0-0.1c0,0,0.1,0,0.1-0.1c0-0.1,0.1,0,0.1-0.1
							c0-0.1,0-0.1,0-0.1c0-0.1,0-0.1,0-0.1c0-0.1,0-0.1,0-0.1c0,0,0.1-0.1,0.1-0.1c0-0.1-0.1,0-0.1-0.1c0-0.1,0,0-0.1-0.1
							c0,0,0.1-0.1,0.1-0.1c0,0,0,0-0.1-0.1c0,0-0.1,0-0.1-0.1c0,0-0.1,0-0.1-0.1c0,0,0,0-0.1-0.1c0,0,0,0-0.1,0c0,0,0-0.1,0-0.2
							c0,0,0,0-0.1-0.1c-0.1,0-0.1,0.1-0.1,0c-0.1,0-0.1,0-0.1,0c0,0,0-0.1-0.1-0.1c0,0-0.1,0-0.1,0c-0.1,0-0.1-0.1-0.1-0.1
							c-0.1,0,0,0-0.1,0c-0.1,0-0.1,0-0.1,0c0,0,0,0.1-0.1,0.1c0,0,0,0-0.1,0c0,0-0.1,0-0.1,0c0,0,0,0.1,0,0.1c0,0,0,0-0.1,0.1
							c0,0,0,0.1-0.1,0.1c0,0,0,0.1,0,0.1c0,0-0.1,0-0.1,0c0,0-0.1,0-0.1,0c0,0.1,0,0,0,0.1c0,0,0.1,0.1,0.1,0.1C0.6-1,0.5-1,0.5-1
							c0,0,0,0.1,0,0.1c0,0,0.1,0.1,0.1,0.1l0.1,0.1l0,0.1l0,0.1l0,0.1c0,0,0,0.1,0,0.1l0,0.1c0,0,0.1,0,0.1,0c0,0-0.1,0.1,0,0.1
							c0,0,0.1,0,0.1,0l0.1,0c0,0,0,0.1,0,0.1c0,0,0.1-0.1,0.1-0.1c0,0,0,0.1,0,0.1c0,0,0,0,0.1,0c0,0,0.1,0,0.1,0c0,0,0,0,0.1-0.1
							c0,0,0,0,0.1,0h0.1c0,0,0.1,0,0.1,0c0,0,0,0,0.1,0c0,0,0-0.1,0-0.1c0,0,0.1,0.1,0.1,0c0,0,0-0.1,0-0.1c0,0,0,0-0.1,0
							c0,0,0,0-0.1,0c0,0-0.1,0-0.1,0c0,0,0,0-0.1,0c0,0,0,0.1,0,0.1c0,0,0-0.2-0.1-0.2c0,0,0,0-0.1,0c0,0,0,0.1-0.1,0.1l-0.1,0
							c0,0,0-0.1,0-0.2l0,0c0,0-0.1,0.1-0.1,0.1c0,0,0.1-0.1,0.1-0.2c0,0-0.1,0.1-0.1,0.1c0,0,0-0.1,0-0.1c0,0,0-0.1,0-0.1
							c0,0-0.1,0-0.1,0c0,0,0-0.1,0-0.1c0,0,0,0,0-0.1l0-0.1l0,0c0,0-0.1,0-0.1,0c0,0,0,0,0.1-0.1c0,0,0.1,0,0.1,0l0,0l0.1,0
							c0,0,0,0,0,0c0,0-0.1-0.1-0.1-0.1l0,0c0,0,0.1,0.1,0.1,0l0-0.1c0,0,0,0,0,0l0,0c0,0,0-0.1,0-0.1c0,0,0,0.1,0.1,0c0,0,0,0,0,0
							c0,0,0,0,0,0c0,0,0,0.1,0,0.1c0,0,0-0.1,0.1-0.1l0,0l0,0l0,0c0,0,0,0.1,0,0.1l0,0.1l0,0c0,0,0.1-0.1,0.1,0
							c0,0-0.1,0.1-0.1,0.1c0,0,0.1-0.1,0.1,0C1.9-1,1.8-1,1.8-1c0,0,0.1,0,0.1,0c0,0,0,0,0,0c0,0-0.1,0-0.1,0.1l0,0
							c0,0,0.1,0,0.1,0c0,0-0.1,0-0.1,0c0,0-0.1,0-0.1,0c0,0,0.1,0,0.1,0.1l0,0.1c0,0-0.1-0.1-0.2,0l0,0l0,0l0,0
							c0,0,0.1,0.1,0.1,0.1"/>
					</g>
				</g>
			</g>
		</g>
	</g>
</symbol>
<g id="图层_3">
	<g>
		<g>
			<defs>
				<rect id="SVGID_1_" x="1.6" y="1.5" width="44.5" height="44.5"/>
			</defs>
			<clipPath id="SVGID_2_">
				<use xlink:href="#SVGID_1_"  style="overflow:visible;"/>
			</clipPath>
			<g class="st12">
				<path class="st13" d="M46.1,1.6C21.5,1.6,1.6,21.5,1.6,46.1s19.9,44.5,44.5,44.5s44.5-19.9,44.5-44.5S70.7,1.6,46.1,1.6z
					 M46.1,57.2c-6.1,0-11.1-5-11.1-11.1S40,35,46.1,35s11.1,5,11.1,11.1S52.3,57.2,46.1,57.2z"/>
			</g>
		</g>
		<g>
			<defs>
				<rect id="SVGID_3_" x="1.6" y="1.5" width="44.5" height="44.5"/>
			</defs>
			<clipPath id="SVGID_4_">
				<use xlink:href="#SVGID_3_"  style="overflow:visible;"/>
			</clipPath>
			<g class="st14">
				<path class="st15" d="M45.7,7.1c-21.5,0-39,17.4-39,39s17.4,39,39,39s39-17.4,39-39S67.3,7.1,45.7,7.1z M46.1,57.2
					c-6.1,0-11.1-5-11.1-11.1S40,35,46.1,35s11.1,5,11.1,11.1S52.3,57.2,46.1,57.2z"/>
			</g>
		</g>
		<g>
			<defs>
				<rect id="SVGID_5_" x="1.6" y="1.5" width="44.5" height="44.5"/>
			</defs>
			<clipPath id="SVGID_6_">
				<use xlink:href="#SVGID_5_"  style="overflow:visible;"/>
			</clipPath>
			<g class="st16">
				<path class="st17" d="M46.1,12.7c-18.4,0-33.4,15-33.4,33.4s15,33.4,33.4,33.4s33.4-15,33.4-33.4S64.6,12.7,46.1,12.7z
					 M46.1,57.2c-6.1,0-11.1-5-11.1-11.1S40,35,46.1,35s11.1,5,11.1,11.1S52.3,57.2,46.1,57.2z"/>
			</g>
		</g>
		<g>
			<defs>
				<rect id="SVGID_7_" x="1.6" y="1.5" width="44.5" height="44.5"/>
			</defs>
			<clipPath id="SVGID_8_">
				<use xlink:href="#SVGID_7_"  style="overflow:visible;"/>
			</clipPath>
			<g class="st18">
				<path class="st19" d="M46.1,18.3c-15.4,0-27.8,12.5-27.8,27.8s12.5,27.8,27.8,27.8s27.8-12.5,27.8-27.8S61.5,18.3,46.1,18.3z
					 M46.1,57.2c-6.1,0-11.1-5-11.1-11.1S40,35,46.1,35s11.1,5,11.1,11.1S52.3,57.2,46.1,57.2z"/>
			</g>
		</g>
		<g>
			<defs>
				<rect id="SVGID_9_" x="1.6" y="1.5" width="44.5" height="44.5"/>
			</defs>
			<clipPath id="SVGID_10_">
				<use xlink:href="#SVGID_9_"  style="overflow:visible;"/>
			</clipPath>
			<g class="st20">
				<path class="st21" d="M46.1,23.8c-12.3,0-22.3,10-22.3,22.3s10,22.3,22.3,22.3s22.3-10,22.3-22.3S58.4,23.8,46.1,23.8z
					 M46.1,57.2c-6.1,0-11.1-5-11.1-11.1S40,35,46.1,35s11.1,5,11.1,11.1S52.3,57.2,46.1,57.2z"/>
			</g>
		</g>
		<g>
			<defs>
				<rect id="SVGID_11_" x="1.6" y="1.5" width="44.5" height="44.5"/>
			</defs>
			<clipPath id="SVGID_12_">
				<use xlink:href="#SVGID_11_"  style="overflow:visible;"/>
			</clipPath>
			<g class="st22">
				<path class="st23" d="M46.1,29.4c-9.2,0-16.7,7.5-16.7,16.7s7.5,16.7,16.7,16.7s16.7-7.5,16.7-16.7S55.3,29.4,46.1,29.4z
					 M46.1,57.2c-6.1,0-11.1-5-11.1-11.1S40,35,46.1,35s11.1,5,11.1,11.1S52.3,57.2,46.1,57.2z"/>
			</g>
		</g>
		<g>
			<defs>
				<rect id="SVGID_13_" x="1.6" y="1.5" width="44.5" height="44.5"/>
			</defs>
			<clipPath id="SVGID_14_">
				<use xlink:href="#SVGID_13_"  style="overflow:visible;"/>
			</clipPath>
			<g class="st24">
				<path class="st25" d="M46.1,3.1c11.5,0,22.3,4.5,30.4,12.6s12.6,18.9,12.6,30.4s-4.5,22.3-12.6,30.4S57.6,89.2,46.1,89.2
					s-22.3-4.5-30.4-12.6S3.1,57.6,3.1,46.1s4.5-22.3,12.6-30.4C23.8,7.5,34.6,3.1,46.1,3.1 M46.1,1.6C21.5,1.6,1.6,21.5,1.6,46.1
					s19.9,44.5,44.5,44.5s44.5-19.9,44.5-44.5S70.7,1.6,46.1,1.6L46.1,1.6z"/>
			</g>
		</g>
		<g>
			<defs>
				<rect id="SVGID_15_" x="1.6" y="1.5" width="44.5" height="44.5"/>
			</defs>
			<clipPath id="SVGID_16_">
				<use xlink:href="#SVGID_15_"  style="overflow:visible;"/>
			</clipPath>
			<g class="st26">
				<path class="st25" d="M46.1,35.4c5.9,0,10.7,4.8,10.7,10.7S52,56.9,46.1,56.9S35.4,52,35.4,46.1S40.2,35.4,46.1,35.4 M46.1,33.9
					c-6.8,0-12.2,5.5-12.2,12.2s5.5,12.2,12.2,12.2s12.2-5.5,12.2-12.2S52.9,33.9,46.1,33.9L46.1,33.9z"/>
			</g>
		</g>
		<g>
			<defs>
				<rect id="SVGID_17_" x="1.6" y="1.5" width="44.5" height="44.5"/>
			</defs>
			<clipPath id="SVGID_18_">
				<use xlink:href="#SVGID_17_"  style="overflow:visible;"/>
			</clipPath>
			<g class="st27">
				
					<radialGradient id="SVGID_19_" cx="-26.3966" cy="-32.013" r="13.9308" gradientTransform="matrix(1.0458 7.061141e-04 -7.061141e-04 -0.9524 41.659 37.8101)" gradientUnits="userSpaceOnUse">
					<stop  offset="0" style="stop-color:#BBDEFB"/>
					<stop  offset="1" style="stop-color:#64B5F6"/>
				</radialGradient>
				<path class="st28" d="M21.4,68.2c0,3.8-3.5,6.9-7.7,6.9c-4.2,0-7.6-3.2-7.6-7s3.5-6.9,7.7-6.9C18.1,61.2,21.5,64.4,21.4,68.2z"
					/>
				
					<radialGradient id="SVGID_20_" cx="68.4196" cy="-31.8536" r="11.0968" gradientTransform="matrix(0.9524 0 0 -0.9524 -40.0013 37.1936)" gradientUnits="userSpaceOnUse">
					<stop  offset="0" style="stop-color:#BBDEFB"/>
					<stop  offset="1" style="stop-color:#64B5F6"/>
				</radialGradient>
				<circle class="st29" cx="24.7" cy="67.7" r="5.9"/>
				
					<radialGradient id="SVGID_21_" cx="14.885" cy="-3.6356" r="39.27" gradientTransform="matrix(1 0 0 -1 0 42)" gradientUnits="userSpaceOnUse">
					<stop  offset="0.4209" style="stop-color:#E3F2FD"/>
					<stop  offset="0.8707" style="stop-color:#90CAF9"/>
				</radialGradient>
				<path class="st30" d="M32,59.6c-0.2,0-0.4,0-0.6,0c0.2-0.5,0.3-1.1,0.3-1.7c0-3.3-2.7-6-6-6c-1.4,0-2.7,0.5-3.7,1.3
					c-1.4-2.6-4.1-4.4-7.3-4.4c-4.6,0-8.3,3.7-8.3,8.3c0,0.2,0,0.3,0,0.5c-3.4,0.4-6.1,3.3-6.1,6.9c0,3.8,3.1,7,7,7
					c3.2,0,5.9-2.2,6.7-5.2c1.2,2.5,3.8,4.2,6.7,4.2c2.7,0,5.1-1.4,6.4-3.6c0.8,2,2.7,3.5,5,3.5c2.9,0,5.3-2.4,5.3-5.3
					C37.3,62,34.9,59.6,32,59.6z"/>
				<g class="st31">
					<path class="st25" d="M14.5,49.5c2.8,0,5.3,1.5,6.6,4c0.1,0.2,0.3,0.3,0.5,0.4c0.1,0,0.1,0,0.2,0c0.2,0,0.3-0.1,0.5-0.2
						c0.9-0.7,2.1-1.1,3.3-1.1c2.9,0,5.3,2.4,5.3,5.3c0,0.5-0.1,1-0.2,1.5c-0.1,0.2,0,0.5,0.1,0.7c0.1,0.2,0.3,0.3,0.6,0.3
						c0,0,0.1,0,0.1,0c0.2,0,0.4,0,0.5,0c2.5,0,4.6,2.1,4.6,4.6c0,2.5-2.1,4.6-4.6,4.6c-0.5,0-1-0.1-1.6-0.3c-0.1,0-0.2,0-0.3,0
						c-0.3,0-0.6,0.2-0.7,0.5c-0.8,1.9-2.7,3.2-4.8,3.2c-1.4,0-2.8-0.6-3.8-1.7c-0.1-0.2-0.3-0.2-0.5-0.2c0,0,0,0-0.1,0
						c-0.2,0-0.4,0.1-0.6,0.3c-1.2,1.9-3.5,3-5.9,3h-0.1c-2.6,0-4.9-1.2-6.1-3.3c-0.1-0.2-0.4-0.3-0.6-0.3C3.7,70.5,1,67.8,1,64.4
						c0-3.1,2.3-5.8,5.4-6.1c0.4,0,0.7-0.4,0.6-0.8c0-0.2,0-0.3,0-0.4C7,52.9,10.4,49.5,14.5,49.5 M14.5,48.8
						c-4.6,0-8.3,3.7-8.3,8.3c0,0.2,0,0.3,0,0.5c-3.4,0.4-6.1,3.3-6.1,6.9c0,3.8,3,6.8,6.8,6.9c1.3,2.2,3.8,3.6,6.7,3.6
						c0,0,0,0,0.1,0c2.8,0,5.2-1.3,6.6-3.3c1.1,1.2,2.6,2,4.3,2c2.5,0,4.6-1.5,5.5-3.6c0.6,0.2,1.2,0.3,1.8,0.3
						c2.9,0,5.3-2.4,5.3-5.3c0-3-2.4-5.3-5.3-5.3c-0.2,0-0.4,0-0.6,0c0.2-0.5,0.3-1.1,0.3-1.7c0-3.3-2.7-6-6-6
						c-1.4,0-2.7,0.5-3.7,1.3C20.5,50.6,17.7,48.8,14.5,48.8L14.5,48.8z"/>
				</g>
			</g>
		</g>
	</g>
</g>
</svg>
