<?xml version="1.0" encoding="utf-8"?>
<!-- Generator: Adobe Illustrator 22.1.0, SVG Export Plug-In . SVG Version: 6.00 Build 0)  -->
<!DOCTYPE svg PUBLIC "-//W3C//DTD SVG 1.1//EN" "http://www.w3.org/Graphics/SVG/1.1/DTD/svg11.dtd">
<svg version="1.1" id="Layer_2" xmlns="http://www.w3.org/2000/svg" xmlns:xlink="http://www.w3.org/1999/xlink" x="0px" y="0px"
	 width="40px" height="40px" viewBox="0 0 40 40" style="enable-background:new 0 0 40 40;" xml:space="preserve">
<style type="text/css">
	.st0{fill:#EEF8FD;stroke:#00B2EF;stroke-width:0.2804;stroke-linecap:round;stroke-linejoin:round;}
	.st1{fill:none;stroke:#00B2EF;stroke-width:0.2466;stroke-linecap:round;stroke-linejoin:round;}
	.st2{fill:#FFFFFF;stroke:#00B2EF;stroke-width:0.2804;stroke-linecap:round;stroke-linejoin:round;}
	.st3{fill:none;}
	.st4{fill:#96D9F7;stroke:#00B2EF;stroke-width:0.3095;stroke-linecap:round;stroke-linejoin:round;}
	.st5{fill:none;stroke:#00B2EF;stroke-width:0.1727;stroke-linecap:round;stroke-linejoin:round;}
	.st6{fill:#C6E9FA;stroke:#00B2EF;stroke-width:0.3642;stroke-linecap:round;stroke-linejoin:round;}
	.st7{fill:none;stroke:#00B2EF;stroke-width:0.2033;stroke-linecap:round;stroke-linejoin:round;}
	.st8{fill:#E3F4FC;stroke:#00B2EF;stroke-width:0.2474;stroke-linecap:round;stroke-linejoin:round;}
	.st9{fill:none;stroke:#00B2EF;stroke-width:0.1381;stroke-linecap:round;stroke-linejoin:round;}
	.st10{fill:#CEECFB;stroke:#00B2EF;stroke-width:0.2734;stroke-linecap:round;stroke-linejoin:round;}
	.st11{fill:none;stroke:#00B2EF;stroke-width:0.1525;stroke-linecap:round;stroke-linejoin:round;}
</style>
<symbol  id="New_Symbol_80" viewBox="-4.4 -6.8 8.7 13.6">
	<g id="New_Symbol_80_2_">
		<g>
			<g>
				<g>
					<path class="st0" d="M1.8,6c0-0.2,0-0.2,0-0.3c0-0.1,0-0.1,0-0.3c0-0.1-0.1-0.1-0.1-0.3c0-0.2,0.1-0.2,0.1-0.3
						c0-0.2,0.1-0.2,0.1-0.3c0-0.1,0-0.1,0-0.3C1.9,4,1.7,4,1.7,3.9c0-0.2,0.1-0.2,0.1-0.3c0-0.2,0.1-0.2,0.1-0.3
						c0-0.2-0.1-0.2-0.1-0.3c0-0.1-0.1-0.1-0.1-0.3c0-0.2,0.1-0.2,0.1-0.3c0-0.2,0-0.2,0-0.3c0-0.1,0-0.1,0-0.3
						c0-0.1,0.2-0.1,0.2-0.3c0-0.2,0-0.2,0-0.3C1.9,1,1.6,1,1.6,0.8c0-0.1,0.3-0.1,0.3-0.3c0-0.1-0.2-0.1-0.2-0.3c0-0.2,0-0.2,0-0.3
						c0-0.1,0.2-0.1,0.2-0.3c0-0.1-0.3-0.1-0.3-0.3c0-0.2,0.3-0.2,0.3-0.3c0-0.1,0-0.1,0-0.3c0-0.1-0.1-0.1-0.1-0.3
						c0-0.2-0.1-0.2-0.1-0.3C1.7-2,1.8-2,1.8-2.1c0-0.2,0-0.2,0-0.3c0-0.1,0.1-0.1,0.1-0.3c0-0.2,0-0.2,0-0.3c0-0.1-0.3-0.1-0.3-0.3
						c0-0.1,0.2-0.1,0.2-0.3c0-0.1-0.1-0.1-0.1-0.3c0-0.1,0-0.1,0-0.2c0-0.1,0-0.1,0-0.3c0-0.1,0.1-0.1,0.1-0.2c0-0.1,0-0.1,0-0.1
						l-3.6,0.5C-1.8-4-1.6-4-1.6-3.8c0,0.1,0.1,0.1,0.1,0.3c0,0.2-0.1,0.2-0.1,0.3C-1.7-3-1.5-3-1.5-2.9c0,0.2,0,0.2,0,0.3
						c0,0.2,0,0.2-0.1,0.3c0,0.1,0,0.1,0,0.3c0,0.2-0.2,0.2-0.2,0.3c0,0.2-0.1,0.2-0.1,0.3c0,0.2,0,0.2,0,0.3c0,0.1,0.2,0.1,0.2,0.3
						c0,0.1-0.2,0.1-0.3,0.3c0,0.2,0.3,0.2,0.3,0.3C-1.5,0-1.8,0-1.8,0.2c0,0.2,0.2,0.2,0.1,0.3c0,0.1,0.1,0.1,0.1,0.3
						c0,0.2-0.3,0.2-0.3,0.3c0,0.2,0,0.2,0,0.3c0,0.2,0.2,0.2,0.2,0.3c0,0.1-0.1,0.1-0.1,0.3c0,0.2-0.2,0.2-0.2,0.3
						c0,0.2,0.2,0.2,0.2,0.3c0,0.1,0.1,0.1,0.1,0.3C-1.5,3-1.9,3-1.9,3.2c0,0.2,0,0.2,0,0.3c0,0.2,0.1,0.2,0.1,0.3
						C-1.8,4-1.9,4-1.9,4.1c0,0.1,0.3,0.1,0.3,0.3c0,0.2-0.2,0.2-0.2,0.3c0,0.1,0.3,0.1,0.3,0.3c0,0.1-0.3,0.1-0.3,0.3
						c0,0.2,0.4,0.2,0.4,0.3c0,0.1,0,0.1,0,0.3C-1.6,6-1.7,6-1.7,6.2"/>
					<path class="st1" d="M-0.5-4.2c0,0.2,0.2,0.2,0.2,0.3c0,0.2-0.1,0.2-0.1,0.3c0,0.2-0.1,0.2-0.2,0.3c0,0.2,0,0.2,0,0.3
						c0,0.2,0,0.2,0,0.3c0,0.1,0.3,0.1,0.3,0.3c0,0.2-0.1,0.2-0.1,0.3c0,0.1-0.2,0.1-0.2,0.3c0,0.1,0,0.1-0.1,0.3
						c0,0.1-0.1,0.1-0.1,0.2c0,0.1,0.1,0.1,0.1,0.2c0,0.2,0.2,0.2,0.2,0.3c0,0.1,0,0.1,0,0.3c0,0.2-0.2,0.2-0.2,0.3
						C-0.8,0-0.7,0-0.7,0.2c0,0.2,0,0.2,0,0.3c0,0.1,0,0.1-0.1,0.3c0,0.2,0.2,0.2,0.2,0.3c0,0.2-0.2,0.2-0.2,0.3
						c0,0.2,0.1,0.2,0.1,0.3c0,0.1,0.1,0.1,0.1,0.3c0,0.2-0.1,0.2-0.1,0.3c0,0.2,0.2,0.2,0.2,0.3c0,0.1,0,0.1,0,0.3
						c0,0.1,0,0.1,0,0.3c0,0.2,0,0.2,0,0.3c0,0.2-0.2,0.2-0.2,0.3C-0.8,4-0.9,4-0.9,4.1c0,0.1,0,0.1,0,0.3c0,0.2,0.2,0.2,0.2,0.3
						c0,0.1-0.2,0.1-0.2,0.3c0,0.1,0.3,0.1,0.3,0.3c0,0.2-0.2,0.2-0.2,0.3c0,0.1,0.2,0.1,0.2,0.3C-0.6,6-0.5,6-0.5,6.2"/>
					<path class="st1" d="M0.6,6c0-0.2,0.3-0.2,0.3-0.3c0-0.1-0.1-0.1-0.1-0.3c0-0.1-0.2-0.1-0.2-0.3c0-0.2-0.1-0.2-0.1-0.3
						c0-0.2,0-0.2,0-0.3c0-0.1,0-0.1,0-0.3C0.6,4,0.8,4,0.8,3.8c0-0.2,0-0.2,0-0.3c0-0.1-0.2-0.1-0.2-0.3C0.7,3,0.6,3,0.6,2.9
						c0-0.1,0.2-0.1,0.2-0.3c0-0.1-0.1-0.1-0.1-0.3c0-0.2,0.2-0.2,0.2-0.3c0-0.1,0-0.1,0-0.3c0-0.2,0.1-0.2,0.1-0.3
						c0-0.1-0.2-0.1-0.2-0.3c0-0.1,0-0.1,0-0.3c0-0.2,0.2-0.2,0.2-0.3c0-0.1-0.2-0.1-0.2-0.3c0-0.1,0-0.1,0-0.3c0-0.1,0-0.1,0-0.3
						c0-0.1-0.1-0.1-0.1-0.3c0-0.1,0.1-0.1,0.1-0.2c0,0,0.1,0,0.1-0.1c0-0.2,0-0.1,0-0.3c0-0.1-0.2-0.2-0.2-0.3
						c0-0.1,0.1-0.2,0.1-0.3l0-0.3c0-0.1-0.1-0.2-0.2-0.3L0.5-2.8l0-0.3l0-0.3l0-0.2c0-0.1,0.2-0.2,0.2-0.2l0-0.2"/>
				</g>
				<path class="st0" d="M-1.7,6.1c0,0.1,0,0.3,0.1,0.4c0.1,0.1,0.3,0.1,0.4,0.1c0.4,0.1,0.8,0,1.1,0c0.4,0,0.8,0.1,1.2,0.1
					c0.2,0,0.4-0.1,0.5-0.2c0.1,0,0.1-0.1,0.1-0.2c0-0.1,0.1-0.2,0-0.3"/>
				<path class="st2" d="M-0.6,6c0,0,0.1,0.1,0.1,0.1c0,0.1,0,0.1,0,0.2c0,0,0,0.1,0.1,0.2c0,0,0,0.1,0,0.1c0,0,0,0,0.1,0.1"/>
				<path class="st2" d="M0.7,6c-0.1,0-0.3,0.2-0.3,0.3c0,0.1,0,0.1,0,0.2c0,0.1,0,0.1,0,0.2"/>
			</g>
			<g>
				<path class="st3" d="M0.9-2.7c0.6,0.6,1.5,0.6,2.1,0c0.6-0.6,0.6-1.5,0-2.1c-0.6-0.6-1.5-0.6-2.1,0C0.3-4.2,0.3-3.3,0.9-2.7z"/>
				<g>
					<g>
						<path class="st4" d="M0.3-2c0.1,0.1,0.2,0,0.3,0.1c0.1,0.1,0.1,0,0.2,0.1c0.1,0.1,0,0.2,0.1,0.2C1-1.6,1-1.6,1.1-1.6
							c0.1,0,0.1,0.1,0.2,0.1c0.1,0,0.1,0,0.3,0c0.1,0,0.1,0.1,0.3,0.1C2-1.3,2-1.4,2.1-1.4c0.1,0,0.1,0,0.2,0c0.1,0,0.1,0.1,0.3,0
							c0.1,0,0.1-0.1,0.2-0.1C2.9-1.6,2.9-1.6,3-1.7c0.1-0.1,0.1-0.1,0.2-0.1C3.3-1.9,3.3-1.9,3.4-2c0.1-0.1,0.1,0,0.2-0.1
							c0.1-0.1,0.1-0.1,0.2-0.2c0.1-0.1,0.1-0.1,0.1-0.2c0.1-0.1,0-0.1,0-0.2C4-2.8,4.1-2.8,4.1-2.9C4.1-3,4.2-3,4.2-3.1
							c0-0.1,0-0.1,0-0.3c0-0.1,0-0.1,0-0.2c0-0.1,0-0.1,0-0.2c0-0.1,0-0.1,0-0.2c0-0.1,0-0.1,0-0.2c0-0.1,0.1-0.1,0-0.3
							c0-0.1-0.1-0.1-0.1-0.2C4-4.9,3.8-4.8,3.8-4.9c-0.1-0.1,0-0.2,0-0.3c-0.1-0.1-0.1,0-0.2-0.1C3.5-5.4,3.4-5.4,3.4-5.5
							c-0.1-0.1,0-0.1-0.1-0.2C3.1-5.7,3-5.6,3-5.7c-0.1-0.1,0-0.2-0.2-0.2C2.7-6,2.7-6,2.6-6C2.5-6,2.5-6,2.3-6C2.2-6,2.2-6,2.1-6
							C2-6,2-6.1,1.9-6.1c-0.1,0-0.1,0-0.2,0c-0.1,0-0.1,0-0.2,0C1.3-6,1.3-6,1.2-6C1.1-6,1.1-5.9,1-5.8c-0.1,0.1-0.1,0-0.2,0
							C0.7-5.7,0.7-5.7,0.6-5.6c-0.1,0-0.1,0-0.1,0.1C0.4-5.5,0.4-5.4,0.3-5.4c-0.1,0.1-0.1,0-0.2,0.1c0,0,0,0-0.1,0.1
							C0.1-5.1,0.2-5,0.2-4.9c0,0.1-0.2,0.1-0.2,0.1c0,0.1,0,0.2,0,0.2c0,0.1,0.1,0.2,0.1,0.3l0,0.2C0.1-4-0.1-3.9,0-3.9
							c0,0.1,0,0,0,0.1c0,0.1,0.2,0.1,0.2,0.2c0,0.1-0.1,0.1-0.1,0.2c0.1,0.1,0.2,0.1,0.3,0.1c0.1,0.1,0,0.1,0,0.2
							C0.5-3,0.5-3,0.5-3c0.1,0.1,0.2,0,0.2,0.1c0,0,0,0.1,0.1,0.1c0,0,0.1,0.1,0.1,0c0-0.1,0-0.1,0-0.2c0-0.1,0-0.1,0-0.1
							c0-0.1-0.2,0-0.2-0.1c0-0.1,0.1-0.1,0.1-0.2c0-0.1,0.1-0.1,0.1-0.1c0-0.1,0-0.1,0.1-0.1L1-3.7c0,0-0.1,0,0,0
							c0,0-0.1-0.1,0-0.1C1-3.9,1-3.9,1-4c0,0,0.2,0,0.2,0c0,0,0,0,0.1-0.1l0.1,0l0.1,0c0,0,0-0.1,0-0.1c0,0,0.1,0,0.1,0
							c0,0,0-0.1,0-0.1c0,0,0-0.1,0-0.1c0,0,0.1,0,0.1,0c0,0,0-0.1,0-0.1l0.1,0l0.1,0c0,0,0,0,0.1,0c0,0,0,0.1,0.1,0.1l0,0.1l0.1,0
							c0,0,0.1-0.1,0.1-0.1c0,0,0,0.1,0,0.1c0,0,0.1-0.1,0.1-0.1c0,0,0,0.1,0,0.1c0,0,0.1,0,0.1,0c0,0,0,0,0.1,0
							c0,0-0.1,0.1-0.1,0.1l0.1,0c0,0,0.1,0,0.1,0c0,0,0,0,0,0.1c0,0-0.1,0-0.1,0.1c0,0,0.1,0,0.1,0.1c0,0,0,0,0,0.1
							c0,0-0.2,0-0.2,0l0,0.1c0,0,0,0,0,0.1l-0.1,0c0,0,0.1,0.1,0.1,0.1c0,0-0.1,0-0.1,0c0,0,0.1,0.1,0,0.1c0,0-0.1-0.1-0.2-0.1
							c0,0,0.1,0.2,0,0.2l0,0.1c0,0-0.1,0-0.1,0c0,0-0.1-0.1-0.1-0.1c0,0,0,0.1,0,0.1l-0.1,0c0,0,0-0.1,0-0.1c0,0,0,0-0.1,0l-0.1,0
							c0,0-0.1,0.1-0.1,0.1c0,0,0-0.1,0-0.1l0,0c0,0,0,0-0.1,0c0,0,0-0.1,0-0.1c0,0,0.1-0.1,0-0.1"/>
					</g>
					<g>
						<path class="st5" d="M0.6-2.4c0.1,0.1,0.2-0.1,0.3,0c0.1,0,0,0.1,0.1,0.2c0.1,0.1,0.1,0,0.2,0c0.1,0,0,0.1,0.1,0.1
							C1.4-2,1.4-2,1.5-1.9c0.1,0,0.1,0,0.2,0c0.1,0,0.1-0.1,0.2,0C2-2,2-2,2.1-2c0.1,0,0.1,0.1,0.2,0.1C2.4-1.9,2.3-2,2.4-2
							c0.1,0,0.1-0.1,0.2-0.1c0.1,0,0.1,0.1,0.2,0C2.9-2.1,2.9-2.2,3-2.2c0.1-0.1,0-0.1,0.1-0.2c0.1-0.1,0.1-0.1,0.1-0.2
							c0.1-0.1,0-0.1,0.1-0.2c0-0.1,0-0.1,0.1-0.2c0-0.1,0.2,0,0.2-0.1C3.7-3,3.7-3,3.7-3.1c0-0.1-0.1-0.1-0.1-0.2
							c0-0.1,0-0.1,0-0.2c0-0.1,0.1-0.1,0.1-0.2c0-0.1,0-0.1,0-0.2c0-0.1,0.1-0.1,0-0.2c0-0.1,0-0.1-0.1-0.2c0-0.1,0-0.1,0-0.2
							c0-0.1-0.1,0-0.2-0.1c0-0.1,0-0.1-0.1-0.2c-0.1-0.1,0-0.1-0.1-0.2C3.3-5,3.3-4.9,3.2-5c-0.1-0.1-0.1,0-0.1-0.1
							C3-5.2,3-5.1,2.9-5.2c-0.1,0-0.1,0-0.2-0.1c-0.1,0,0-0.1-0.1-0.1c0,0,0-0.1,0-0.1c-0.1,0-0.1,0-0.2-0.1
							c-0.1,0-0.1,0.1-0.2,0.1c-0.1,0-0.1-0.1-0.2-0.1c-0.1,0-0.1-0.1-0.2,0c-0.1,0-0.1,0.1-0.2,0.1L1.5-5.3l-0.2,0
							c-0.1,0-0.1,0.1-0.2,0.1L1.1-5.1c0,0-0.1,0-0.2,0L0.8-5c0,0,0,0.2,0,0.2c0,0.1-0.1,0-0.2,0c0,0.1,0,0.1,0,0.2
							c0,0.1,0,0.1-0.1,0.2c0,0.1-0.1,0-0.2,0.1c0,0.1,0.1,0.1,0.1,0.2c0,0.1-0.1,0.1-0.2,0.1c0,0.1,0,0.1,0,0.2c0,0.1,0,0.1,0,0.2
							c0,0.1,0.1,0.1,0.1,0.1c0,0.1,0,0.1,0,0.2c0,0.1,0,0.1,0,0.1c0,0.1,0,0.1,0,0.2c0,0.1,0,0.1,0.1,0.1c0,0.1,0.2,0,0.2,0
							c0,0,0,0.1,0,0.1c0,0,0.1,0,0.1,0c0-0.1,0-0.1-0.1-0.1C0.8-3,0.8-3,0.7-3c0-0.1,0-0.1,0-0.2c0-0.1,0-0.1,0-0.1
							c0-0.1-0.2,0-0.2-0.1c0-0.1,0.2-0.1,0.2-0.2c0-0.1-0.1-0.1-0.1-0.1c0-0.1-0.1-0.1-0.1-0.1c0-0.1,0-0.1,0-0.1
							c0-0.1,0.2,0,0.2-0.1c0-0.1,0-0.1,0.1-0.1c0,0-0.1-0.1-0.1-0.2c0,0,0.2,0,0.2,0c0,0-0.1-0.1-0.1-0.2c0,0,0.1,0,0.1,0
							c0,0,0.1,0,0.1,0c0.1,0,0-0.1,0.1-0.1c0.1,0,0.1,0,0.2,0c0.1,0,0.1,0,0.1,0c0.1,0,0.1,0,0.1,0c0.1,0,0.1,0,0.1,0
							c0.1,0,0-0.2,0.1-0.2c0.1,0,0.1,0,0.1,0.1C2-4.9,2-4.8,2.1-4.8c0,0,0,0,0.1,0c0,0,0,0.1,0.1,0.1c0,0,0.1-0.1,0.1,0
							c0.1,0,0.1-0.1,0.2-0.1c0,0,0,0,0.1,0.1c0.1,0,0,0.1,0,0.2c0,0,0.1,0,0.1,0c0.1,0,0,0.1,0.1,0.1c0,0,0,0.1,0,0.1
							c0,0,0.1,0,0.1,0.1c0,0,0,0.1,0,0.1C2.9-4.1,3-4.1,3-4C3-4,3-4,3-3.9C3-3.9,3-3.9,3-3.8c0,0.1,0.1,0.1,0.1,0.1
							c0,0.1,0,0.1,0,0.1c0,0.1,0,0.1,0,0.1c0,0.1,0,0.1,0,0.1c0,0.1-0.1,0-0.1,0.1c0,0-0.1,0-0.1,0.1c0,0,0,0.1,0,0.1
							c0,0,0.1,0.1,0,0.2c0,0-0.1,0-0.2,0c0,0,0.1,0.1,0,0.2c-0.1,0-0.1-0.1-0.2,0c0,0,0,0.1,0,0.1c0,0,0,0.1-0.1,0.1
							c-0.1,0-0.1-0.1-0.2-0.1c0,0,0,0-0.1,0C2-2.7,2-2.6,1.9-2.6c-0.1,0-0.1-0.1-0.1-0.1c-0.1,0,0-0.1-0.1-0.1c0,0-0.1,0.1-0.1,0.1
							c-0.1,0-0.1,0-0.1,0c-0.1,0,0-0.2,0-0.2L1.4-2.9c0,0-0.1,0-0.1,0c0,0,0-0.1,0-0.1c0,0-0.1,0.1-0.2,0.1"/>
					</g>
				</g>
			</g>
			<g>
				<path class="st3" d="M0.3-2.6C1-3.2,1.1-4.3,0.5-5c-0.6-0.7-1.7-0.8-2.4-0.2c-0.7,0.6-0.8,1.7-0.2,2.4C-1.5-2.1-0.5-2,0.3-2.6z"
					/>
				<g>
					<g>
						<path class="st6" d="M1-1.8C1.1-1.9,1-2,1.1-2.1c0.1-0.1,0.1-0.1,0.1-0.3c0.1-0.1,0.2,0,0.3-0.1c0.1-0.1,0.1-0.1,0.1-0.3
							c0-0.1,0.1-0.1,0.2-0.2c0-0.1,0-0.2,0.1-0.3C1.9-3.4,2-3.4,2-3.5c0-0.1-0.1-0.1-0.1-0.3c0-0.1,0-0.1,0-0.3
							C1.9-4.2,2-4.3,2-4.4c0-0.2-0.1-0.1-0.1-0.3C1.8-4.8,1.8-4.8,1.7-4.9C1.6-5.1,1.6-5.1,1.5-5.2C1.5-5.3,1.4-5.3,1.4-5.4
							c-0.1-0.1,0-0.2-0.1-0.3C1.1-5.7,1.2-5.8,1.1-5.9C1-6,1-6,0.9-6.1c-0.1-0.1-0.2,0-0.3-0.1C0.5-6.2,0.5-6.3,0.4-6.4
							c-0.1,0-0.1-0.1-0.3-0.1c-0.1,0-0.2,0-0.3,0c-0.1,0-0.1,0-0.3,0c-0.1,0-0.1-0.1-0.3-0.1c-0.1,0-0.1,0-0.3,0
							c-0.1,0-0.1,0-0.3,0c-0.1,0-0.2-0.1-0.3-0.1c-0.1,0-0.1,0.1-0.3,0.1C-2-6.4-1.9-6.3-2-6.2c-0.1,0.1-0.2-0.1-0.3,0
							C-2.5-6.1-2.4-6-2.5-6c-0.1,0.1-0.1,0.1-0.2,0.2c-0.1,0.1-0.2,0-0.2,0.1c-0.1,0.1,0,0.2,0,0.3c-0.1,0.1-0.2,0-0.3,0.2
							c0,0.1-0.1,0.1-0.1,0.2c0,0.1,0,0.2,0,0.3c0,0.1,0,0.2,0,0.3c0,0.1-0.1,0.1-0.1,0.2c0,0.1,0,0.1,0,0.3c0,0.1,0,0.1,0,0.3
							c0,0.1,0,0.1,0,0.3c0,0.1,0.2,0.1,0.2,0.2c0.1,0.1-0.1,0.2,0,0.3c0.1,0.1,0.1,0.1,0.2,0.2c0,0.1,0,0.1,0.1,0.2
							C-3-2.3-3-2.3-2.9-2.2c0.1,0.1,0,0.1,0.1,0.2c0,0,0,0.1,0.1,0.1C-2.6-1.9-2.5-2-2.4-2c0.1,0,0,0.2,0.1,0.3c0.1,0,0.2,0,0.3,0
							c0.1,0,0.2-0.1,0.3-0.1l0.3,0c0.1,0,0.1,0.2,0.2,0.2c0.1,0,0.1,0,0.1,0c0.1,0,0.1-0.2,0.3-0.3c0.1,0,0.1,0.1,0.2,0.1
							C-0.5-1.8-0.5-2-0.4-2.1c0.1-0.1,0.1,0.1,0.2,0c0.1-0.1,0.1,0,0.2-0.1C0-2.3,0-2.4,0-2.4c0-0.1,0.1,0,0.1-0.1
							c0,0,0.1-0.1,0-0.1c-0.1,0-0.1,0-0.2,0c-0.1,0-0.1,0-0.2,0c-0.1,0,0,0.2-0.1,0.2c-0.1,0-0.1-0.1-0.2-0.1
							c-0.1,0-0.1-0.1-0.2-0.1c-0.1,0-0.1,0-0.1-0.1c0,0,0-0.1-0.1-0.1c0,0,0,0.1-0.1,0C-1-2.8-1-2.7-1.1-2.7
							c-0.1-0.1-0.1-0.1-0.1-0.1c0-0.1,0-0.2,0-0.2c0,0,0,0-0.1-0.1l0-0.1c0,0,0-0.1,0-0.1c0,0-0.1,0-0.1,0c0,0,0.1-0.1,0-0.1
							c0,0-0.1,0-0.1,0c0,0-0.1,0-0.1,0c0,0,0-0.1,0-0.1c0,0-0.1,0-0.1-0.1c0,0,0,0,0-0.1c0,0,0,0,0-0.1c0,0,0,0,0-0.1
							c0,0,0.1,0,0.2,0c0,0,0.1,0,0.1,0l0-0.1c0,0-0.1-0.1-0.1-0.1c0,0,0.1,0.1,0.2,0c0,0-0.1-0.1-0.1-0.2c0,0,0.1,0.1,0.1,0
							c0,0,0-0.1,0-0.1c0,0,0-0.1,0-0.1c0,0,0.1,0.1,0.1,0.1l0-0.1c0,0,0-0.1,0.1-0.1c0,0,0,0.1,0.1,0.1c0,0,0,0.1,0.1,0.1
							c0,0,0-0.1,0.1-0.1c0,0,0,0,0.1,0c0,0,0,0.2,0,0.2l0.1,0c0,0,0.1,0,0.1,0c0,0,0,0.1,0,0.1c0,0,0.1-0.1,0.2-0.1
							c0,0-0.1,0.1,0,0.1c0,0,0.1-0.1,0.2,0c0,0-0.2,0.1-0.1,0.2c0,0,0.2-0.1,0.2,0l0.1,0.1c0,0-0.1,0.1-0.1,0.1C-0.1-4-0.3-4-0.3-4
							c0,0,0.2,0,0.2,0l0,0.1c0,0-0.1,0-0.1,0c0,0,0,0,0,0.1l0,0.1c0,0,0.1,0.1,0.1,0.1c0,0-0.1,0-0.1,0l0,0c0,0,0,0.1,0,0.1
							c0,0-0.1,0-0.1,0c0,0-0.1-0.1-0.1-0.1"/>
					</g>
					<g>
						<path class="st7" d="M0.6-2.2c0.1-0.1-0.1-0.3,0-0.3c0.1-0.1,0.2,0,0.2-0.1c0.1-0.1,0-0.1,0-0.2C1-2.9,1-2.9,1.1-3
							c0-0.1,0.1-0.1,0.2-0.2c0-0.1,0-0.1,0-0.2c0-0.1-0.1-0.1,0-0.2c0-0.1,0-0.1,0-0.2C1.2-4,1.4-4,1.4-4.1c0-0.1-0.1-0.1-0.2-0.2
							c0-0.1-0.1-0.1-0.1-0.2c0-0.1,0.1-0.2,0.1-0.3c0-0.1-0.1-0.1-0.1-0.2C1-5,0.9-5,0.9-5.1C0.8-5.2,0.8-5.2,0.7-5.2
							C0.6-5.3,0.6-5.3,0.5-5.4c-0.1-0.1-0.1,0-0.2-0.1c-0.1-0.1,0-0.2-0.1-0.3C0.2-5.8,0.2-5.8,0.1-5.9c-0.1,0-0.1,0.1-0.2,0
							c-0.1,0-0.1,0-0.2,0C-0.5-5.9-0.5-6-0.6-6c-0.1,0-0.1,0-0.2,0C-0.9-6-0.9-6.1-1-6.1c-0.1,0-0.1,0-0.2,0c-0.1,0-0.1,0-0.2,0
							c-0.1,0-0.1,0.1-0.1,0.2c-0.1,0-0.1,0-0.2,0.1c-0.1,0.1-0.2,0-0.3,0c-0.1,0.1,0,0.1-0.1,0.2c-0.1,0.1-0.1,0.1-0.1,0.1
							c-0.1,0.1-0.1,0.1-0.1,0.2c-0.1,0.1,0,0.1-0.1,0.2C-2.5-5-2.6-5-2.6-5c0,0-0.1,0-0.1,0c-0.1,0.1,0,0.1-0.1,0.2
							c0,0.1,0.1,0.2,0.1,0.3c0,0.1-0.1,0.1-0.1,0.2c0,0.1-0.1,0.2-0.1,0.2c0,0.1,0.1,0.1,0.1,0.2c0,0.1,0.1,0.1,0.1,0.2l0,0.2
							c0,0.1,0.1,0.1,0.1,0.2l0.1,0.1c0,0,0,0.1,0,0.2l0.1,0.1c0,0,0.2,0,0.2,0c0.1,0.1-0.1,0.1,0,0.2c0.1,0.1,0.2,0,0.2,0
							c0.1,0.1,0.1,0.1,0.2,0.1c0.1,0.1,0,0.1,0.1,0.2c0.1,0,0.2-0.1,0.2-0.1c0.1,0,0,0.2,0.1,0.2c0.1,0,0.1,0,0.2,0.1
							C-1-2-1-2-0.9-2.1c0.1,0,0.1-0.1,0.2-0.1c0.1,0,0.1,0,0.2,0c0.1,0,0.1,0,0.2,0c0.1,0,0.1,0,0.2,0c0.1,0,0.1,0,0.2-0.1
							C0-2.3,0-2.4,0-2.5c0.1,0,0.1,0.1,0.2,0c0,0,0.1-0.1,0-0.1c-0.1,0-0.1,0-0.2,0.1C0-2.5,0-2.5-0.1-2.4c-0.1,0-0.1,0-0.2,0
							c-0.1,0-0.1,0-0.2,0c-0.1,0-0.1,0.2-0.2,0.2c-0.1,0-0.1-0.2-0.2-0.2c-0.1,0-0.1,0.1-0.2,0.1c-0.1,0-0.1,0.1-0.2,0.1
							c-0.1,0-0.1,0-0.2-0.1c-0.1,0,0-0.2-0.1-0.2c-0.1,0-0.1,0-0.1-0.1c0-0.1-0.1,0.1-0.2,0c-0.1-0.1,0.1-0.2,0-0.2
							c0,0-0.2,0.1-0.2,0.1c0,0,0-0.1,0-0.1C-2-2.9-1.9-3-1.9-3c0-0.1-0.1,0-0.2-0.1c0-0.1,0-0.1,0-0.2c0-0.1,0-0.1,0-0.2
							c0-0.1,0-0.1,0-0.2c0-0.1,0-0.1,0-0.1c0-0.1-0.2-0.1-0.2-0.1C-2.3-4-2.2-4-2.2-4.1c0-0.1,0.1-0.1,0.1-0.1c0-0.1,0,0,0.1-0.1
							c0,0,0.1,0,0.1-0.1c0,0-0.1-0.1,0-0.1c0-0.1-0.1-0.1-0.1-0.2c0-0.1,0.1,0,0.1-0.1c0-0.1,0.2,0,0.2,0c0-0.1,0-0.1,0.1-0.1
							c0-0.1,0.1,0,0.1-0.1c0.1,0,0.1,0,0.1,0c0.1,0,0-0.1,0.1-0.1c0.1,0,0.1,0.1,0.1,0c0.1,0,0.1-0.1,0.1-0.1C-1-5.2-1-5.2-0.9-5.2
							c0.1,0,0.1,0.1,0.1,0.1c0.1,0,0.1-0.2,0.2-0.1c0.1,0,0.1,0,0.1,0c0.1,0,0.1,0,0.1,0.1c0.1,0,0.1,0,0.1,0c0.1,0,0,0.1,0.1,0.2
							c0,0,0,0.1,0.1,0.1c0,0,0.1,0,0.1,0.1c0.1,0,0.1-0.1,0.2,0c0.1,0-0.1,0.1,0,0.2c0,0.1,0.2,0,0.2,0c0,0.1-0.1,0.1-0.1,0.2
							c0,0.1,0.1,0,0.1,0.1c0,0.1,0.1,0,0.1,0.1c0,0.1-0.1,0.1-0.1,0.2c0,0.1,0,0.1,0,0.1c0,0.1,0.1,0.1,0.1,0.1
							c0,0.1-0.1,0.1-0.1,0.1c0,0.1-0.1,0-0.1,0.1c0,0,0.1,0.1,0.1,0.1c0,0.1,0,0.1,0,0.1c0,0.1-0.2,0-0.2,0c0,0,0,0-0.1,0.1
							c0,0,0,0.1,0,0.1c0,0-0.1,0-0.1,0c0,0,0.1,0.2,0.1,0.2"/>
					</g>
				</g>
			</g>
			<g>
				<path class="st3" d="M-1.6-1.2c0.5-0.4,0.6-1.1,0.2-1.6C-1.9-3.3-2.6-3.4-3.1-3c-0.5,0.4-0.6,1.1-0.2,1.6
					C-2.9-0.8-2.1-0.8-1.6-1.2z"/>
				<g>
					<g>
						<path class="st8" d="M-1.1-0.6c0.1-0.1,0-0.1,0.1-0.2C-1-0.9-1-0.9-1-1c0.1-0.1,0.1,0,0.2-0.1c0.1-0.1,0-0.1,0.1-0.2
							c0-0.1,0.1-0.1,0.1-0.2c0-0.1,0-0.1,0-0.2c0-0.1,0.1-0.1,0.1-0.2c0-0.1-0.1-0.1-0.1-0.2c0-0.1,0-0.1,0-0.2
							c0-0.1,0.1-0.1,0-0.2c0-0.1-0.1-0.1-0.1-0.2c0-0.1,0-0.1-0.1-0.2c0-0.1-0.1-0.1-0.1-0.2C-0.8-3-0.9-3-0.9-3.1
							c-0.1-0.1,0-0.1-0.1-0.2c-0.1-0.1,0-0.1-0.1-0.2c-0.1-0.1-0.1-0.1-0.1-0.1c-0.1-0.1-0.1,0-0.2-0.1c-0.1-0.1,0-0.1-0.1-0.1
							c-0.1,0-0.1-0.1-0.2-0.1c-0.1,0-0.1,0-0.2,0c-0.1,0-0.1,0-0.2,0c-0.1,0-0.1,0-0.2,0c-0.1,0-0.1,0-0.2,0c-0.1,0-0.1,0-0.2,0
							c-0.1,0-0.1-0.1-0.2,0c-0.1,0-0.1,0-0.2,0.1c-0.1,0,0,0.2-0.1,0.2c-0.1,0-0.1,0-0.2,0c-0.1,0,0,0.1-0.1,0.2
							c-0.1,0.1-0.1,0.1-0.1,0.1c-0.1,0.1-0.1,0-0.2,0.1c-0.1,0.1,0,0.1,0,0.2C-3.9-3-4-3-4.1-2.9c0,0.1,0,0.1-0.1,0.2
							c0,0.1,0,0.1,0,0.2c0,0.1,0,0.1,0,0.2c0,0.1-0.1,0.1-0.1,0.2c0,0.1,0,0.1,0,0.2c0,0.1,0,0.1,0,0.2c0,0.1,0,0.1,0,0.2
							c0,0.1,0.1,0.1,0.1,0.1c0,0.1,0,0.1,0,0.2C-4-1.2-4-1.3-4-1.2c0,0.1,0,0.1,0.1,0.1C-3.9-1-3.9-1-3.8-0.9c0,0.1,0,0.1,0.1,0.1
							c0,0,0,0,0,0.1c0.1,0.1,0.2-0.1,0.3,0c0,0,0,0.2,0.1,0.2l0.2,0c0.1,0,0.2-0.1,0.2-0.1l0.2,0c0.1,0,0.1,0.1,0.1,0.1
							c0,0,0,0,0.1,0c0.1,0,0.1-0.1,0.2-0.2c0.1,0,0.1,0.1,0.2,0.1c0.1,0,0.1-0.2,0.1-0.2c0.1,0,0.1,0,0.1,0c0,0,0.1,0,0.1,0
							C-1.8-1-1.8-1-1.8-1.1c0,0,0.1,0,0.1,0c0,0,0.1-0.1,0-0.1c-0.1,0-0.1,0-0.1,0c-0.1,0-0.1,0-0.1,0C-2-1.2-2-1.1-2-1.1
							c-0.1,0-0.1-0.1-0.1-0.1c-0.1,0-0.1-0.1-0.1-0.1c-0.1,0-0.1,0-0.1-0.1l-0.1-0.1c0,0,0,0.1,0,0c0,0-0.1,0.1-0.1,0
							c0,0,0-0.1-0.1-0.1c0,0,0-0.1,0-0.2c0,0,0,0,0-0.1l0-0.1l0-0.1c0,0-0.1,0-0.1,0c0,0,0-0.1,0-0.1c0,0,0,0-0.1,0l-0.1,0
							c0,0,0,0,0-0.1c0,0-0.1,0-0.1,0l0-0.1l0-0.1c0,0,0,0,0-0.1c0,0,0.1,0,0.1,0l0,0l0-0.1c0,0-0.1-0.1-0.1-0.1c0,0,0.1,0,0.1,0
							c0,0-0.1-0.1-0.1-0.1c0,0,0.1,0,0.1,0c0,0,0-0.1,0-0.1c0,0,0,0,0-0.1c0,0,0.1,0.1,0.1,0.1l0,0c0,0,0-0.1,0-0.1c0,0,0,0,0.1,0
							c0,0,0,0.1,0,0.1c0,0,0-0.1,0.1-0.1c0,0,0,0,0.1,0c0,0,0,0.1,0,0.1l0,0c0,0,0,0,0,0l0,0.1c0,0,0.1-0.1,0.1-0.1
							c0,0,0,0.1,0,0.1c0,0,0.1-0.1,0.1,0c0,0-0.1,0.1-0.1,0.1c0,0,0.1,0,0.1,0l0,0c0,0,0,0,0,0.1c0,0-0.1,0-0.1,0.1
							c0,0,0.1,0,0.1,0l0,0.1C-1.9-2-2-2-2-2l0,0l0,0c0,0,0.1,0.1,0.1,0.1c0,0-0.1,0-0.1,0l0,0l0,0.1c0,0,0,0-0.1,0c0,0,0,0,0,0"/>
					</g>
					<g>
						<path class="st9" d="M-1.4-0.9c0.1-0.1-0.1-0.2,0-0.2c0-0.1,0.1,0,0.2-0.1c0-0.1,0-0.1,0-0.2c0-0.1,0.1,0,0.1-0.1
							c0-0.1,0.1,0,0.1-0.1c0-0.1,0-0.1,0-0.2c0-0.1,0-0.1,0-0.2C-1-2-1-2-1-2.1c0-0.1,0.1-0.1,0.1-0.1C-0.9-2.3-1-2.3-1-2.3
							c0-0.1,0-0.1-0.1-0.1c0-0.1,0.1-0.1,0-0.2c0-0.1-0.1-0.1-0.1-0.1c0-0.1-0.1,0-0.1-0.1c0-0.1-0.1-0.1-0.1-0.1
							C-1.4-3-1.4-3-1.5-3.1c-0.1,0-0.1,0-0.1-0.1c-0.1,0,0-0.1-0.1-0.2c-0.1-0.1-0.1-0.1-0.1-0.1c-0.1,0-0.1,0-0.2,0
							c-0.1,0-0.1,0-0.2,0c-0.1,0,0-0.1-0.1-0.1c-0.1,0-0.1,0-0.1,0c-0.1,0-0.1-0.1-0.2-0.1c-0.1,0-0.1,0-0.1,0c-0.1,0-0.1,0-0.2,0
							c-0.1,0,0,0.1-0.1,0.1C-3-3.4-3-3.4-3-3.3c-0.1,0-0.1,0-0.2,0c-0.1,0,0,0.1-0.1,0.1c0,0,0,0-0.1,0.1C-3.4-3-3.4-3-3.5-3
							c0,0.1,0,0.1-0.1,0.1c0,0-0.1,0-0.1,0.1l-0.1,0c0,0.1,0,0.1-0.1,0.2c0,0,0,0.1,0,0.2c0,0-0.1,0.1-0.1,0.1c0,0.1-0.1,0.1,0,0.2
							c0,0,0.1,0.1,0.1,0.1l0.1,0.1l0,0.1c0,0.1,0,0.1,0.1,0.1l0.1,0.1c0,0,0,0.1,0,0.1l0.1,0.1c0,0,0.1,0,0.1,0c0,0,0,0.1,0,0.1
							c0.1,0,0.1,0,0.2,0c0.1,0,0.1,0,0.1,0.1C-3-1-3.1-1-3-0.9C-2.9-0.9-2.9-1-2.8-1c0.1,0,0,0.1,0.1,0.1c0.1,0,0.1,0,0.1,0
							c0.1,0,0.1,0,0.1,0c0.1,0,0.1,0,0.1-0.1c0.1,0,0.1,0,0.1,0c0.1,0,0.1,0,0.1,0c0.1,0,0.1,0,0.1,0c0.1,0,0.1,0,0.1-0.1
							c0,0,0-0.1,0-0.2c0,0,0.1,0,0.1,0c0,0,0-0.1,0-0.1c-0.1,0-0.1,0-0.1,0c-0.1,0-0.1,0-0.1,0.1C-2-1-2-1.1-2-1.1c0,0-0.1,0-0.1,0
							c-0.1,0,0,0.1-0.1,0.1c-0.1,0-0.1-0.1-0.1-0.1c-0.1,0-0.1,0-0.1,0c0,0-0.1,0.1-0.1,0.1C-2.7-1-2.7-1-2.7-1c-0.1,0,0-0.1,0-0.2
							c0,0,0,0-0.1-0.1c0,0-0.1,0.1-0.1,0c0,0,0-0.1,0-0.2c0,0-0.1,0.1-0.2,0.1c0,0,0-0.1,0-0.1c0,0,0-0.1,0-0.1c0,0-0.1,0-0.1-0.1
							c0-0.1,0-0.1,0-0.1c0,0,0-0.1,0-0.1c0,0,0-0.1,0-0.1c0,0,0,0,0-0.1c0,0-0.1,0-0.1-0.1c0-0.1,0-0.1,0.1-0.1c0,0,0.1,0,0.1-0.1
							l0-0.1l0.1,0c0,0,0,0,0-0.1c0,0-0.1-0.1,0-0.1l0.1-0.1c0,0,0.1,0,0.1,0c0,0,0-0.1,0-0.1c0,0,0.1,0,0.1,0l0.1,0
							c0,0,0-0.1,0-0.1c0,0,0.1,0,0.1,0c0,0,0,0,0.1,0c0,0,0,0,0.1,0c0,0,0,0,0.1,0c0,0,0.1-0.1,0.1-0.1l0.1,0c0,0,0,0,0.1,0
							c0,0,0,0,0.1,0c0.1,0,0,0.1,0,0.1c0,0,0,0.1,0,0.1l0.1,0c0,0,0.1,0,0.1,0c0,0,0,0.1,0,0.1c0,0,0.1,0,0.1,0c0,0-0.1,0.1,0,0.1
							c0,0,0.1,0,0.1,0c0,0,0.1,0,0.1,0.1c0,0.1-0.1,0.1-0.1,0.1l0,0.1c0,0,0.1,0,0.1,0.1c0,0-0.1,0-0.1,0.1c0,0-0.1,0-0.1,0.1
							c0,0,0.1,0.1,0.1,0.1l0,0.1c0,0-0.1,0-0.2,0l0,0.1l0,0.1c0,0,0,0-0.1,0c0,0,0.1,0.1,0.1,0.1"/>
					</g>
				</g>
			</g>
			<g>
				<path class="st3" d="M1.9-0.3C2.2-0.5,2.3-1,2-1.3C1.8-1.6,1.3-1.6,1-1.4c-0.3,0.2-0.3,0.7-0.1,1C1.2-0.1,1.6,0,1.9-0.3z"/>
				<g>
					<g>
						<path class="st10" d="M2.5,0.4c0.1-0.1,0-0.1,0-0.2c0.1-0.1,0-0.1,0.1-0.1C2.6,0,2.7,0,2.8,0c0-0.1,0-0.1,0-0.1
							c0-0.1,0.1,0,0.1-0.1c0-0.1,0-0.1,0-0.2C3-0.5,3-0.5,3-0.6C3.1-0.7,3-0.7,3-0.8c0-0.1,0-0.1,0-0.2C2.9-1,3-1,3-1.1
							c0-0.1-0.1-0.1-0.1-0.1c0-0.1,0-0.1-0.1-0.1c0-0.1,0-0.1-0.1-0.1c0-0.1-0.1,0-0.1-0.1c0-0.1,0-0.1-0.1-0.1
							c-0.1-0.1,0-0.1-0.1-0.1c-0.1,0,0-0.1-0.1-0.1C2.3-2,2.3-2,2.2-2c-0.1,0,0-0.1-0.1-0.1C2.1-2.2,2.1-2.2,2-2.2
							c-0.1,0-0.1,0-0.2,0c-0.1,0-0.1,0-0.1,0c-0.1,0-0.1,0-0.1,0c-0.1,0-0.1,0-0.2,0c-0.1,0-0.1,0-0.1,0c-0.1,0-0.1-0.1-0.2-0.1
							C1-2.3,1-2.2,0.9-2.2c-0.1,0,0,0.2-0.1,0.2c-0.1,0-0.1-0.1-0.2,0C0.6-2,0.6-2,0.6-1.9C0.5-1.9,0.5-1.9,0.5-1.8
							c0,0.1-0.1,0-0.1,0.1c0,0.1,0,0.1,0,0.2c0,0.1-0.2,0-0.2,0.1c0,0.1,0,0.1-0.1,0.1c0,0.1,0,0.1,0,0.2c0,0.1,0,0.1,0,0.2
							C0.1-1,0-1,0-0.9c0,0.1,0,0.1,0,0.2c0,0.1,0,0.1,0,0.1c0,0.1,0,0.1,0,0.2c0,0.1,0.1,0,0.1,0.1c0,0.1-0.1,0.1,0,0.2
							c0,0.1,0.1,0,0.1,0.1c0,0,0,0.1,0,0.1c0,0.1,0,0,0.1,0.1c0,0,0,0.1,0,0.1c0,0,0,0,0,0c0.1,0,0.2-0.1,0.2-0.1
							c0,0,0,0.2,0.1,0.2c0,0,0.1,0,0.2,0c0.1,0,0.1-0.1,0.2-0.1l0.1,0c0,0,0.1,0.1,0.1,0.1c0,0,0,0,0.1,0c0.1,0,0.1-0.2,0.1-0.2
							c0,0,0.1,0.1,0.1,0.1c0.1,0,0-0.2,0.1-0.2c0,0,0.1,0,0.1,0c0,0,0,0,0.1,0c0,0,0-0.1,0-0.2c0,0,0,0,0.1,0c0,0,0-0.1,0-0.1
							c-0.1,0-0.1,0-0.1,0c0,0,0,0-0.1,0c0,0,0,0.1,0,0.1c0,0-0.1-0.1-0.1-0.1c0,0,0-0.1-0.1-0.1l0-0.1l0-0.1c0,0,0,0.1,0,0
							c0,0,0,0.1,0,0l0-0.1c0,0,0-0.1,0-0.2c0,0,0,0,0,0l0-0.1l0,0c0,0,0,0.1-0.1,0.1c0,0,0.1,0,0.1,0c0,0,0,0,0,0c0,0,0,0,0,0
							c0,0,0.1,0,0,0c0,0-0.1,0-0.1,0l0,0l0,0l0,0c0,0,0.1,0,0.1,0l0,0l0,0c0,0-0.1,0-0.1,0c0,0,0.1,0.1,0.1,0.1
							c0,0-0.1-0.1-0.1-0.1c0,0,0.1,0.1,0.1,0.1c0,0,0,0,0,0c0,0,0,0,0,0c0,0,0.1,0.1,0,0.1l0,0c0,0,0-0.1,0-0.1c0,0,0,0.1,0,0.1
							c0,0,0,0.1,0,0.1c0,0,0-0.1,0-0.1c0,0,0,0,0,0c0,0,0,0.2,0,0.1l0,0c0,0,0,0,0,0l0,0c0,0,0.1-0.1,0.1-0.1c0,0-0.1,0.1-0.1,0.1
							c0,0,0.1-0.1,0.1-0.1c0,0-0.1,0.1-0.1,0.1c0,0,0.1-0.1,0.1-0.1l0,0c0,0,0,0-0.1,0c0,0-0.1,0-0.1,0c0,0,0.1,0,0.1,0v0
							c0,0-0.1,0-0.1,0l0,0l0,0c0,0,0.1,0,0.1,0c0,0-0.1,0-0.1,0l0,0l0,0c0,0,0,0,0,0c0,0,0-0.1,0-0.1"/>
					</g>
					<g>
						<path class="st11" d="M2.2,0c0,0-0.1-0.2-0.1-0.2c0,0,0.1,0,0.1,0c0,0,0-0.1,0-0.1c0,0,0.1,0,0.1-0.1c0-0.1,0.1,0,0.1-0.1
							c0-0.1,0-0.1,0-0.1c0-0.1,0-0.1,0-0.1c0-0.1,0-0.1,0-0.1c0,0,0.1-0.1,0.1-0.1c0-0.1-0.1,0-0.1-0.1c0-0.1,0,0-0.1-0.1
							c0,0,0.1-0.1,0.1-0.1c0,0,0,0-0.1-0.1c0,0-0.1,0-0.1-0.1c0,0-0.1,0-0.1-0.1c0,0,0,0-0.1-0.1c0,0,0,0-0.1,0c0,0,0-0.1,0-0.2
							c0,0,0,0-0.1-0.1c-0.1,0-0.1,0.1-0.1,0c-0.1,0-0.1,0-0.1,0c0,0,0-0.1-0.1-0.1c0,0-0.1,0-0.1,0c-0.1,0-0.1-0.1-0.1-0.1
							c-0.1,0,0,0-0.1,0c-0.1,0-0.1,0-0.1,0c0,0,0,0.1-0.1,0.1c0,0,0,0-0.1,0c0,0-0.1,0-0.1,0c0,0,0,0.1,0,0.1c0,0,0,0-0.1,0.1
							c0,0,0,0.1-0.1,0.1c0,0,0,0.1,0,0.1c0,0-0.1,0-0.1,0c0,0-0.1,0-0.1,0c0,0.1,0,0,0,0.1c0,0,0.1,0.1,0.1,0.1C0.6-1,0.5-1,0.5-1
							c0,0,0,0.1,0,0.1c0,0,0.1,0.1,0.1,0.1l0.1,0.1l0,0.1l0,0.1l0,0.1c0,0,0,0.1,0,0.1l0,0.1c0,0,0.1,0,0.1,0c0,0-0.1,0.1,0,0.1
							c0,0,0.1,0,0.1,0l0.1,0c0,0,0,0.1,0,0.1c0,0,0.1-0.1,0.1-0.1c0,0,0,0.1,0,0.1c0,0,0,0,0.1,0c0,0,0.1,0,0.1,0c0,0,0,0,0.1-0.1
							c0,0,0,0,0.1,0h0.1c0,0,0.1,0,0.1,0c0,0,0,0,0.1,0c0,0,0-0.1,0-0.1c0,0,0.1,0.1,0.1,0c0,0,0-0.1,0-0.1c0,0,0,0-0.1,0
							c0,0,0,0-0.1,0c0,0-0.1,0-0.1,0c0,0,0,0-0.1,0c0,0,0,0.1,0,0.1c0,0,0-0.2-0.1-0.2c0,0,0,0-0.1,0c0,0,0,0.1-0.1,0.1l-0.1,0
							c0,0,0-0.1,0-0.2l0,0c0,0-0.1,0.1-0.1,0.1c0,0,0.1-0.1,0.1-0.2c0,0-0.1,0.1-0.1,0.1c0,0,0-0.1,0-0.1c0,0,0-0.1,0-0.1
							c0,0-0.1,0-0.1,0c0,0,0-0.1,0-0.1c0,0,0,0,0-0.1l0-0.1l0,0c0,0-0.1,0-0.1,0c0,0,0,0,0.1-0.1c0,0,0.1,0,0.1,0l0,0l0.1,0
							c0,0,0,0,0,0c0,0-0.1-0.1-0.1-0.1l0,0c0,0,0.1,0.1,0.1,0l0-0.1c0,0,0,0,0,0l0,0c0,0,0-0.1,0-0.1c0,0,0,0.1,0.1,0c0,0,0,0,0,0
							c0,0,0,0,0,0c0,0,0,0.1,0,0.1c0,0,0-0.1,0.1-0.1l0,0l0,0l0,0c0,0,0,0.1,0,0.1l0,0.1l0,0c0,0,0.1-0.1,0.1,0
							c0,0-0.1,0.1-0.1,0.1c0,0,0.1-0.1,0.1,0C1.9-1,1.8-1,1.8-1c0,0,0.1,0,0.1,0c0,0,0,0,0,0c0,0-0.1,0-0.1,0.1l0,0
							c0,0,0.1,0,0.1,0c0,0-0.1,0-0.1,0c0,0-0.1,0-0.1,0c0,0,0.1,0,0.1,0.1l0,0.1c0,0-0.1-0.1-0.2,0l0,0l0,0l0,0
							c0,0,0.1,0.1,0.1,0.1"/>
					</g>
				</g>
			</g>
		</g>
	</g>
</symbol>
<symbol  id="Waterfall" viewBox="-4.4 -5.4 7.9 12.2">
	
		<use xlink:href="#New_Symbol_80"  width="8.7" height="13.6" x="-4.4" y="-6.8" transform="matrix(0.8992 0 0 0.8992 -0.4402 0.6836)" style="overflow:visible;"/>
</symbol>
<use xlink:href="#Waterfall"  width="7.9" height="12.2" id="XMLID_4_" x="-4.4" y="-5.4" transform="matrix(-3.1217 0 0 2.8148 18.8913 18.3116)" style="overflow:visible;"/>
</svg>
