<?xml version="1.0" encoding="utf-8"?>
<!-- Generator: Adobe Illustrator 26.0.0, SVG Export Plug-In . SVG Version: 6.00 Build 0)  -->
<svg version="1.1" id="Layer_1" xmlns="http://www.w3.org/2000/svg" xmlns:xlink="http://www.w3.org/1999/xlink" x="0px" y="0px"
	 width="1265.9897px" height="135.9761px" viewBox="0 0 1265.9897 135.9761" enable-background="new 0 0 1265.9897 135.9761"
	 xml:space="preserve">
<g>
	<path fill="#FFCC33" d="M0,62.8052C0,53.188,1.6973,44.502,5.0923,36.7495c3.3945-7.75,8.0625-14.3433,14.0039-19.7754
		c5.9409-5.4316,12.9854-9.6167,21.1328-12.561C48.377,1.4717,57.2036,0,66.7095,0c9.5054,0,18.332,1.4717,26.48,4.4131
		c8.1475,2.9443,15.2188,7.1294,21.2178,12.561c5.9971,5.4321,10.6943,12.0254,14.0889,19.7754
		c3.395,7.7524,5.0923,16.4385,5.0923,26.0557c0,9.6196-1.6973,18.3906-5.0923,26.3105
		c-3.3945,7.9224-8.0918,14.6826-14.0889,20.2842c-5.999,5.6016-13.0703,9.9302-21.2178,12.9858
		c-8.1479,3.0552-16.9746,4.583-26.48,4.583c-9.5059,0-18.3325-1.5278-26.4805-4.583c-8.1475-3.0557-15.1919-7.3843-21.1328-12.9858
		c-5.9414-5.6016-10.6094-12.3618-14.0039-20.2842C1.6973,81.1958,0,72.4248,0,62.8052z M42.9453,62.8052
		c0,3.9624,0.5938,7.583,1.7822,10.8638c1.188,3.2837,2.8271,6.1108,4.9224,8.4873c2.0928,2.3765,4.6099,4.2168,7.5537,5.5166
		c2.9414,1.3022,6.1108,1.9521,9.5059,1.9521c3.3945,0,6.5352-0.6499,9.4209-1.9521c2.8853-1.2998,5.4023-3.1401,7.5532-5.5166
		c2.1484-2.3765,3.8193-5.2036,5.0078-8.4873c1.188-3.2808,1.7822-6.9014,1.7822-10.8638c0-3.8457-0.5942-7.3838-1.7822-10.6089
		c-1.1885-3.2251-2.8594-5.9409-5.0078-8.1479c-2.1509-2.2065-4.668-3.9307-7.5532-5.1772
		c-2.8857-1.2437-6.0264-1.8672-9.4209-1.8672c-3.395,0-6.5645,0.6235-9.5059,1.8672c-2.9438,1.2466-5.4609,2.9707-7.5537,5.1772
		c-2.0952,2.207-3.7344,4.9229-4.9224,8.1479C43.5391,55.4214,42.9453,58.9595,42.9453,62.8052z"/>
	<path fill="#FFCC33" d="M204.541,126.9688c-9.394,0-17.5684-1.3022-24.5278-3.9043s-12.7603-6.1665-17.3989-10.6938
		c-4.6416-4.5249-8.0918-9.8716-10.3545-16.041c-2.2646-6.1665-3.3945-12.8154-3.3945-19.9448V3.395h40.3989v68.5767
		c0,5.771,1.3843,10.2695,4.1587,13.4946c2.7715,3.2251,6.7051,4.8374,11.7974,4.8374s9.0229-1.6123,11.7974-4.8374
		c2.7715-3.2251,4.1587-7.7236,4.1587-13.4946V3.395h40.229v72.9897c0,7.1294-1.2173,13.7783-3.6494,19.9448
		c-2.4346,6.1694-6.0259,11.5161-10.7788,16.041c-4.7524,4.5273-10.667,8.0918-17.7383,10.6938
		C222.1655,125.6665,213.9326,126.9688,204.541,126.9688z"/>
	<path fill="#FFCC33" d="M282.1133,3.395h51.772c5.8828,0,11.7388,0.5938,17.5684,1.7822
		c5.8271,1.188,11.0337,3.2832,15.6167,6.2803c4.583,3,8.2881,7.0181,11.1182,12.0518c2.8271,5.0366,4.2437,11.3467,4.2437,18.9268
		c0,7.3574-1.8062,13.834-5.4185,19.4355s-8.8027,9.9302-15.5713,12.9854l30.4956,48.7168h-46.4067l-23.0215-42.9453h-1.1855
		v42.9453h-39.2109V3.395z M320.9849,54.1484h7.917c1.3472,0,2.835-0.1113,4.4634-0.3398c1.6289-0.2251,3.1431-0.7051,4.5464-1.4424
		c1.4028-0.7349,2.583-1.7534,3.5381-3.0557c0.9546-1.2993,1.4321-3.0264,1.4321-5.1772c0-2.1484-0.3955-3.8457-1.1802-5.0923
		c-0.7852-1.2437-1.7959-2.1772-3.0317-2.8008c-1.2358-0.6206-2.5835-1.0186-4.042-1.188c-1.459-0.1699-2.8062-0.2549-4.042-0.2549
		h-9.6011V54.1484z"/>
	<path fill="#FFCC33" d="M440.313,63.4844c0-9.6172,1.6973-18.3325,5.0923-26.1406c3.3945-7.8081,8.0337-14.4839,13.9189-20.0298
		c5.8828-5.5435,12.8154-9.8159,20.7935-12.8159C488.0957,1.501,496.6094,0,505.6646,0c9.2773,0,18.0483,1.501,26.3101,4.498
		c8.2593,3,15.1631,7.0444,20.709,12.1367l-24.7827,29.875c-2.2651-2.9414-5.0923-5.1772-8.4873-6.7051
		c-3.395-1.5273-7.1875-2.2915-11.3726-2.2915c-3.395,0-6.5645,0.5942-9.5059,1.7827c-2.9438,1.188-5.5166,2.9146-7.7236,5.1768
		c-2.2065,2.2651-3.9331,5.0078-5.1768,8.2329c-1.2466,3.2251-1.8672,6.8188-1.8672,10.7788c0,3.9624,0.6494,7.4976,1.9517,10.6089
		c1.2998,3.1138,3.0557,5.8003,5.2622,8.063c2.2065,2.2651,4.7793,3.9888,7.7236,5.1772c2.9409,1.188,6.0522,1.7822,9.3359,1.7822
		c4.6387,0,8.6274-0.96,11.9668-2.8857c3.3364-1.9229,5.9673-4.1851,7.8931-6.7896l24.7827,29.7051
		c-5.4321,5.4316-12.1104,9.7603-20.0298,12.9854c-7.9224,3.2251-16.9189,4.8379-26.9893,4.8379
		c-9.0552,0-17.5688-1.5278-25.5469-4.583c-7.978-3.0557-14.9106-7.3843-20.7935-12.9858
		c-5.8853-5.6016-10.5244-12.2773-13.9189-20.0298C442.0103,81.6206,440.313,72.9897,440.313,63.4844z"/>
	<path fill="#FFCC33" d="M556.4189,62.8052c0-9.6172,1.6973-18.3032,5.0923-26.0557c3.3945-7.75,8.0625-14.3433,14.0039-19.7754
		c5.9409-5.4316,12.9854-9.6167,21.1328-12.561C604.7959,1.4717,613.6226,0,623.1284,0c9.5054,0,18.332,1.4717,26.48,4.4131
		c8.1475,2.9443,15.2188,7.1294,21.2178,12.561c5.9971,5.4321,10.6943,12.0254,14.0889,19.7754
		c3.395,7.7524,5.0923,16.4385,5.0923,26.0557c0,9.6196-1.6973,18.3906-5.0923,26.3105
		c-3.3945,7.9224-8.0918,14.6826-14.0889,20.2842c-5.999,5.6016-13.0703,9.9302-21.2178,12.9858
		c-8.1479,3.0552-16.9746,4.583-26.48,4.583c-9.5059,0-18.3325-1.5278-26.4805-4.583c-8.1475-3.0557-15.1919-7.3843-21.1328-12.9858
		c-5.9414-5.6016-10.6094-12.3618-14.0039-20.2842C558.1162,81.1958,556.4189,72.4248,556.4189,62.8052z M599.3643,62.8052
		c0,3.9624,0.5938,7.583,1.7822,10.8638c1.188,3.2837,2.8271,6.1108,4.9224,8.4873c2.0928,2.3765,4.6099,4.2168,7.5537,5.5166
		c2.9414,1.3022,6.1108,1.9521,9.5059,1.9521c3.3945,0,6.5352-0.6499,9.4209-1.9521c2.8853-1.2998,5.4023-3.1401,7.5532-5.5166
		c2.1484-2.3765,3.8193-5.2036,5.0078-8.4873c1.188-3.2808,1.7822-6.9014,1.7822-10.8638c0-3.8457-0.5942-7.3838-1.7822-10.6089
		c-1.1885-3.2251-2.8594-5.9409-5.0078-8.1479c-2.1509-2.2065-4.668-3.9307-7.5532-5.1772
		c-2.8857-1.2437-6.0264-1.8672-9.4209-1.8672c-3.395,0-6.5645,0.6235-9.5059,1.8672c-2.9438,1.2466-5.4609,2.9707-7.5537,5.1772
		c-2.0952,2.207-3.7344,4.9229-4.9224,8.1479C599.958,55.4214,599.3643,58.9595,599.3643,62.8052z"/>
	<path fill="#FFCC33" d="M760.96,126.9688c-9.394,0-17.5684-1.3022-24.5278-3.9043s-12.7603-6.1665-17.3989-10.6938
		c-4.6416-4.5249-8.0918-9.8716-10.3545-16.041c-2.2646-6.1665-3.3945-12.8154-3.3945-19.9448V3.395h40.3989v68.5767
		c0,5.771,1.3843,10.2695,4.1587,13.4946c2.7715,3.2251,6.7051,4.8374,11.7974,4.8374s9.0229-1.6123,11.7974-4.8374
		c2.7715-3.2251,4.1587-7.7236,4.1587-13.4946V3.395h40.2285v72.9897c0,7.1294-1.2168,13.7783-3.6494,19.9448
		c-2.4346,6.1694-6.0254,11.5161-10.7783,16.041c-4.7524,4.5273-10.667,8.0918-17.7383,10.6938
		C778.5845,125.6665,770.3516,126.9688,760.96,126.9688z"/>
	<path fill="#FFCC33" d="M838.5317,3.395h51.7725c5.8828,0,11.7383,0.5938,17.5684,1.7822
		c5.8271,1.188,11.0332,3.2832,15.6162,6.2803c4.583,3,8.2881,7.0181,11.1182,12.0518c2.8271,5.0366,4.2441,11.3467,4.2441,18.9268
		c0,7.3574-1.8066,13.834-5.4189,19.4355s-8.8027,9.9302-15.5713,12.9854l30.4951,48.7168h-46.4062l-23.0215-42.9453h-1.1855
		v42.9453h-39.2109V3.395z M877.4038,54.1484h7.917c1.3467,0,2.835-0.1113,4.4629-0.3398c1.6289-0.2251,3.1436-0.7051,4.5469-1.4424
		c1.4023-0.7349,2.583-1.7534,3.5381-3.0557c0.9541-1.2993,1.4316-3.0264,1.4316-5.1772c0-2.1484-0.3955-3.8457-1.1797-5.0923
		c-0.7852-1.2437-1.7959-2.1772-3.0322-2.8008c-1.2354-0.6206-2.583-1.0186-4.042-1.188c-1.459-0.1699-2.8057-0.2549-4.042-0.2549
		h-9.6006V54.1484z"/>
	<path fill="#FFCC33" d="M999.1079,126.9688c-4.8672,0-9.6494-0.4238-14.3438-1.2651c-4.6973-0.8462-9.2246-2.085-13.5791-3.7158
		c-4.3584-1.6338-8.4609-3.5464-12.3066-5.7422c-3.8486-2.1963-7.2988-4.644-10.3545-7.3467l24.6133-26.7427
		c2.8271,3.0552,6.5908,5.771,11.2881,8.1475c4.6943,2.3765,9.5322,3.5649,14.5127,3.5649c2.2627,0,4.3281-0.3955,6.1953-1.1909
		c1.8672-0.793,2.8008-2.2676,2.8008-4.4214c0-1.1323-0.3125-2.0952-0.9336-2.8911c-0.623-0.793-1.7266-1.6152-3.3096-2.4639
		c-1.5859-0.8486-3.7637-1.7852-6.5352-2.8062c-2.7744-1.0186-6.2539-2.209-10.4395-3.5723
		c-4.0742-1.3584-7.9775-2.9736-11.7119-4.8457c-3.7344-1.8701-7.0449-4.167-9.9307-6.8882s-5.1768-5.978-6.874-9.7759
		c-1.6982-3.7983-2.5469-8.3604-2.5469-13.6914c0-7.479,1.5283-13.8286,4.583-19.043c3.0557-5.2144,6.9863-9.4951,11.7979-12.8394
		c4.8086-3.3447,10.2109-5.7529,16.21-7.2275C994.2407,0.7373,1000.1821,0,1006.0669,0c7.9199,0,15.9824,1.5278,24.1885,4.583
		c8.2041,3.0552,15.418,7.4688,21.6426,13.2402l-25.1221,25.6313c-2.7158-3.395-6.0547-5.9678-10.0146-7.7236
		c-3.9629-1.7529-7.5273-2.6309-10.6943-2.6309c-2.9434,0-5.3203,0.4243-7.1289,1.2729c-1.8115,0.8486-2.7158,2.2358-2.7158,4.1587
		c0,1.8115,0.9336,3.1694,2.8008,4.0737c1.8672,0.9072,4.8936,2.0371,9.0811,3.395c4.2998,1.3579,8.8271,2.9443,13.5801,4.7529
		c4.7529,1.8115,9.1367,4.1587,13.1553,7.0444c4.0146,2.8857,7.3252,6.4238,9.9297,10.6089
		c2.6016,4.188,3.9043,9.3945,3.9043,15.6167c0,7.2432-1.4434,13.5527-4.3291,18.9263c-2.8857,5.376-6.6777,9.8452-11.3721,13.4097
		c-4.6973,3.5649-9.9893,6.2251-15.8711,7.978C1011.2153,126.0908,1005.2183,126.9688,999.1079,126.9688z"/>
	<path fill="#FFCC33" d="M1064.4575,3.395h82.665v33.6089H1102.48v10.3545h41.9268v31.4028H1102.48v11.2031h47.5283v33.6094
		h-85.5508V3.395z"/>
	<path fill="#FFCC33" d="M1206.1938,126.9688c-4.8672,0-9.6494-0.4238-14.3438-1.2651c-4.6973-0.8462-9.2246-2.085-13.5791-3.7158
		c-4.3584-1.6338-8.4609-3.5464-12.3066-5.7422c-3.8486-2.1963-7.2988-4.644-10.3545-7.3467l24.6133-26.7427
		c2.8271,3.0552,6.5908,5.771,11.2881,8.1475c4.6943,2.3765,9.5322,3.5649,14.5127,3.5649c2.2627,0,4.3281-0.3955,6.1953-1.1909
		c1.8672-0.793,2.8008-2.2676,2.8008-4.4214c0-1.1323-0.3125-2.0952-0.9336-2.8911c-0.623-0.793-1.7266-1.6152-3.3096-2.4639
		c-1.5859-0.8486-3.7637-1.7852-6.5352-2.8062c-2.7744-1.0186-6.2539-2.209-10.4395-3.5723
		c-4.0742-1.3584-7.9775-2.9736-11.7119-4.8457c-3.7344-1.8701-7.0449-4.167-9.9307-6.8882s-5.1768-5.978-6.874-9.7759
		c-1.6982-3.7983-2.5469-8.3604-2.5469-13.6914c0-7.479,1.5283-13.8286,4.583-19.043c3.0557-5.2144,6.9863-9.4951,11.7979-12.8394
		c4.8086-3.3447,10.2109-5.7529,16.21-7.2275C1201.3267,0.7373,1207.2681,0,1213.1528,0c7.9199,0,15.9824,1.5278,24.1885,4.583
		c8.2041,3.0552,15.418,7.4688,21.6426,13.2402l-25.1221,25.6313c-2.7158-3.395-6.0547-5.9678-10.0146-7.7236
		c-3.9629-1.7529-7.5273-2.6309-10.6943-2.6309c-2.9434,0-5.3203,0.4243-7.1289,1.2729c-1.8115,0.8486-2.7158,2.2358-2.7158,4.1587
		c0,1.8115,0.9336,3.1694,2.8008,4.0737c1.8672,0.9072,4.8936,2.0371,9.0811,3.395c4.2998,1.3579,8.8271,2.9443,13.5801,4.7529
		c4.7529,1.8115,9.1367,4.1587,13.1553,7.0444c4.0146,2.8857,7.3252,6.4238,9.9297,10.6089
		c2.6016,4.188,3.9043,9.3945,3.9043,15.6167c0,7.2432-1.4434,13.5527-4.3291,18.9263c-2.8857,5.376-6.6777,9.8452-11.3721,13.4097
		c-4.6973,3.5649-9.9893,6.2251-15.8711,7.978C1218.3013,126.0908,1212.3042,126.9688,1206.1938,126.9688z"/>
</g>
<g>
	<path d="M7.0054,71.8125c0-9.6172,1.6973-18.3032,5.0923-26.0557c3.3945-7.75,8.0625-14.3433,14.0039-19.7754
		c5.9409-5.4316,12.9854-9.6167,21.1328-12.561c8.1479-2.9414,16.9746-4.4131,26.4805-4.4131c9.5054,0,18.332,1.4717,26.48,4.4131
		c8.1475,2.9443,15.2188,7.1294,21.2178,12.561c5.9971,5.4321,10.6943,12.0254,14.0889,19.7754
		c3.395,7.7524,5.0923,16.4385,5.0923,26.0557c0,9.6196-1.6973,18.3906-5.0923,26.3105
		c-3.3945,7.9224-8.0918,14.6826-14.0889,20.2842c-5.999,5.6016-13.0703,9.9302-21.2178,12.9858
		c-8.1479,3.0552-16.9746,4.583-26.48,4.583c-9.5059,0-18.3325-1.5278-26.4805-4.583c-8.1475-3.0557-15.1919-7.3843-21.1328-12.9858
		c-5.9414-5.6016-10.6094-12.3618-14.0039-20.2842C8.7026,90.2031,7.0054,81.4321,7.0054,71.8125z M49.9507,71.8125
		c0,3.9624,0.5938,7.583,1.7822,10.8638c1.188,3.2837,2.8271,6.1108,4.9224,8.4873c2.0928,2.3765,4.6099,4.2168,7.5537,5.5166
		c2.9414,1.3022,6.1108,1.9521,9.5059,1.9521c3.3945,0,6.5352-0.6499,9.4209-1.9521c2.8853-1.2998,5.4023-3.1401,7.5532-5.5166
		c2.1484-2.3765,3.8193-5.2036,5.0078-8.4873c1.188-3.2808,1.7822-6.9014,1.7822-10.8638c0-3.8457-0.5942-7.3838-1.7822-10.6089
		c-1.1885-3.2251-2.8594-5.9409-5.0078-8.1479c-2.1509-2.2065-4.668-3.9307-7.5532-5.1772
		c-2.8857-1.2437-6.0264-1.8672-9.4209-1.8672c-3.395,0-6.5645,0.6235-9.5059,1.8672c-2.9438,1.2466-5.4609,2.9707-7.5537,5.1772
		c-2.0952,2.207-3.7344,4.9229-4.9224,8.1479C50.5444,64.4287,49.9507,67.9668,49.9507,71.8125z"/>
	<path d="M211.5464,135.9761c-9.394,0-17.5684-1.3022-24.5278-3.9043s-12.7603-6.1665-17.3989-10.6938
		c-4.6416-4.5249-8.0918-9.8716-10.3545-16.041c-2.2646-6.1665-3.3945-12.8154-3.3945-19.9448V12.4023h40.3989V80.979
		c0,5.771,1.3843,10.2695,4.1587,13.4946c2.7715,3.2251,6.7051,4.8374,11.7974,4.8374s9.0229-1.6123,11.7974-4.8374
		c2.7715-3.2251,4.1587-7.7236,4.1587-13.4946V12.4023h40.229v72.9897c0,7.1294-1.2173,13.7783-3.6494,19.9448
		c-2.4346,6.1694-6.0259,11.5161-10.7788,16.041c-4.7524,4.5273-10.667,8.0918-17.7383,10.6938
		C229.1709,134.6738,220.938,135.9761,211.5464,135.9761z"/>
	<path d="M289.1187,12.4023h51.772c5.8828,0,11.7388,0.5938,17.5684,1.7822c5.8271,1.188,11.0337,3.2832,15.6167,6.2803
		c4.583,3,8.2881,7.0181,11.1182,12.0518c2.8271,5.0366,4.2437,11.3467,4.2437,18.9268c0,7.3574-1.8062,13.834-5.4185,19.4355
		s-8.8027,9.9302-15.5713,12.9854l30.4956,48.7168h-46.4067l-23.0215-42.9453h-1.1855v42.9453h-39.2109V12.4023z M327.9902,63.1558
		h7.917c1.3472,0,2.835-0.1113,4.4634-0.3398c1.6289-0.2251,3.1431-0.7051,4.5464-1.4424c1.4028-0.7349,2.583-1.7534,3.5381-3.0557
		c0.9546-1.2993,1.4321-3.0264,1.4321-5.1772c0-2.1484-0.3955-3.8457-1.1802-5.0923c-0.7852-1.2437-1.7959-2.1772-3.0317-2.8008
		c-1.2358-0.6206-2.5835-1.0186-4.042-1.188c-1.459-0.1699-2.8062-0.2549-4.042-0.2549h-9.6011V63.1558z"/>
	<path d="M447.3184,72.4917c0-9.6172,1.6973-18.3325,5.0923-26.1406c3.3945-7.8081,8.0337-14.4839,13.9189-20.0298
		c5.8828-5.5435,12.8154-9.8159,20.7935-12.8159c7.978-2.9971,16.4917-4.498,25.5469-4.498c9.2773,0,18.0483,1.501,26.3101,4.498
		c8.2593,3,15.1631,7.0444,20.709,12.1367l-24.7827,29.875c-2.2651-2.9414-5.0923-5.1772-8.4873-6.7051
		c-3.395-1.5273-7.1875-2.2915-11.3726-2.2915c-3.395,0-6.5645,0.5942-9.5059,1.7827c-2.9438,1.188-5.5166,2.9146-7.7236,5.1768
		c-2.2065,2.2651-3.9331,5.0078-5.1768,8.2329c-1.2466,3.2251-1.8672,6.8188-1.8672,10.7788c0,3.9624,0.6494,7.4976,1.9517,10.6089
		c1.2998,3.1138,3.0557,5.8003,5.2622,8.063c2.2065,2.2651,4.7793,3.9888,7.7236,5.1772c2.9409,1.188,6.0522,1.7822,9.3359,1.7822
		c4.6387,0,8.6274-0.96,11.9668-2.8857c3.3364-1.9229,5.9673-4.1851,7.8931-6.7896l24.7827,29.7051
		c-5.4321,5.4316-12.1104,9.7603-20.0298,12.9854c-7.9224,3.2251-16.9189,4.8379-26.9893,4.8379
		c-9.0552,0-17.5688-1.5278-25.5469-4.583c-7.978-3.0557-14.9106-7.3843-20.7935-12.9858
		c-5.8853-5.6016-10.5244-12.2773-13.9189-20.0298C449.0156,90.6279,447.3184,81.9971,447.3184,72.4917z"/>
	<path d="M563.4243,71.8125c0-9.6172,1.6973-18.3032,5.0923-26.0557c3.3945-7.75,8.0625-14.3433,14.0039-19.7754
		c5.9409-5.4316,12.9854-9.6167,21.1328-12.561c8.1479-2.9414,16.9746-4.4131,26.4805-4.4131c9.5054,0,18.332,1.4717,26.48,4.4131
		c8.1475,2.9443,15.2188,7.1294,21.2178,12.561c5.9971,5.4321,10.6943,12.0254,14.0889,19.7754
		c3.395,7.7524,5.0923,16.4385,5.0923,26.0557c0,9.6196-1.6973,18.3906-5.0923,26.3105
		c-3.3945,7.9224-8.0918,14.6826-14.0889,20.2842c-5.999,5.6016-13.0703,9.9302-21.2178,12.9858
		c-8.1479,3.0552-16.9746,4.583-26.48,4.583c-9.5059,0-18.3325-1.5278-26.4805-4.583c-8.1475-3.0557-15.1919-7.3843-21.1328-12.9858
		c-5.9414-5.6016-10.6094-12.3618-14.0039-20.2842C565.1216,90.2031,563.4243,81.4321,563.4243,71.8125z M606.3696,71.8125
		c0,3.9624,0.5938,7.583,1.7822,10.8638c1.188,3.2837,2.8271,6.1108,4.9224,8.4873c2.0928,2.3765,4.6099,4.2168,7.5537,5.5166
		c2.9414,1.3022,6.1108,1.9521,9.5059,1.9521c3.3945,0,6.5352-0.6499,9.4209-1.9521c2.8853-1.2998,5.4023-3.1401,7.5532-5.5166
		c2.1484-2.3765,3.8193-5.2036,5.0078-8.4873c1.188-3.2808,1.7822-6.9014,1.7822-10.8638c0-3.8457-0.5942-7.3838-1.7822-10.6089
		c-1.1885-3.2251-2.8594-5.9409-5.0078-8.1479c-2.1509-2.2065-4.668-3.9307-7.5532-5.1772
		c-2.8857-1.2437-6.0264-1.8672-9.4209-1.8672c-3.395,0-6.5645,0.6235-9.5059,1.8672c-2.9438,1.2466-5.4609,2.9707-7.5537,5.1772
		c-2.0952,2.207-3.7344,4.9229-4.9224,8.1479C606.9634,64.4287,606.3696,67.9668,606.3696,71.8125z"/>
	<path d="M767.9653,135.9761c-9.394,0-17.5684-1.3022-24.5278-3.9043s-12.7603-6.1665-17.3989-10.6938
		c-4.6416-4.5249-8.0918-9.8716-10.3545-16.041c-2.2646-6.1665-3.3945-12.8154-3.3945-19.9448V12.4023h40.3989V80.979
		c0,5.771,1.3843,10.2695,4.1587,13.4946c2.7715,3.2251,6.7051,4.8374,11.7974,4.8374s9.0229-1.6123,11.7974-4.8374
		c2.7715-3.2251,4.1587-7.7236,4.1587-13.4946V12.4023h40.229v72.9897c0,7.1294-1.2178,13.7783-3.6494,19.9448
		c-2.4346,6.1694-6.0264,11.5161-10.7788,16.041c-4.7524,4.5273-10.667,8.0918-17.7383,10.6938
		C785.5898,134.6738,777.3569,135.9761,767.9653,135.9761z"/>
	<path d="M845.5376,12.4023h51.7715c5.8828,0,11.7393,0.5938,17.5684,1.7822c5.8271,1.188,11.0342,3.2832,15.6172,6.2803
		c4.583,3,8.2881,7.0181,11.1182,12.0518c2.8271,5.0366,4.2441,11.3467,4.2441,18.9268c0,7.3574-1.8066,13.834-5.4189,19.4355
		s-8.8027,9.9302-15.5713,12.9854l30.4951,48.7168h-46.4062l-23.0215-42.9453h-1.1855v42.9453h-39.2109V12.4023z M884.4087,63.1558
		h7.917c1.3477,0,2.835-0.1113,4.4639-0.3398c1.6289-0.2251,3.1426-0.7051,4.5459-1.4424c1.4033-0.7349,2.583-1.7534,3.5381-3.0557
		c0.9551-1.2993,1.4326-3.0264,1.4326-5.1772c0-2.1484-0.3955-3.8457-1.1807-5.0923c-0.7852-1.2437-1.7959-2.1772-3.0312-2.8008
		c-1.2363-0.6206-2.584-1.0186-4.042-1.188c-1.459-0.1699-2.8066-0.2549-4.042-0.2549h-9.6016V63.1558z"/>
	<path d="M1006.1138,135.9761c-4.8672,0-9.6494-0.4238-14.3438-1.2651c-4.6973-0.8462-9.2246-2.085-13.5791-3.7158
		c-4.3584-1.6338-8.4609-3.5464-12.3066-5.7422c-3.8486-2.1963-7.2988-4.644-10.3545-7.3467l24.6133-26.7427
		c2.8271,3.0552,6.5908,5.771,11.2881,8.1475c4.6943,2.3765,9.5322,3.5649,14.5127,3.5649c2.2627,0,4.3281-0.3955,6.1953-1.1909
		c1.8672-0.793,2.8008-2.2676,2.8008-4.4214c0-1.1323-0.3125-2.0952-0.9336-2.8911c-0.623-0.793-1.7266-1.6152-3.3096-2.4639
		c-1.5859-0.8486-3.7637-1.7852-6.5352-2.8062c-2.7744-1.0186-6.2539-2.209-10.4395-3.5723
		c-4.0742-1.3584-7.9775-2.9736-11.7119-4.8457c-3.7344-1.8701-7.0449-4.167-9.9307-6.8882s-5.1768-5.978-6.874-9.7759
		c-1.6982-3.7983-2.5469-8.3604-2.5469-13.6914c0-7.479,1.5283-13.8286,4.583-19.043c3.0557-5.2144,6.9863-9.4951,11.7979-12.8394
		c4.8086-3.3447,10.2109-5.7529,16.21-7.2275c5.9971-1.4746,11.9385-2.2119,17.8232-2.2119c7.9199,0,15.9824,1.5278,24.1885,4.583
		c8.2041,3.0552,15.418,7.4688,21.6426,13.2402l-25.1221,25.6313c-2.7158-3.395-6.0547-5.9678-10.0146-7.7236
		c-3.9629-1.7529-7.5273-2.6309-10.6943-2.6309c-2.9434,0-5.3203,0.4243-7.1289,1.2729c-1.8115,0.8486-2.7158,2.2358-2.7158,4.1587
		c0,1.8115,0.9336,3.1694,2.8008,4.0737c1.8672,0.9072,4.8936,2.0371,9.0811,3.395c4.2998,1.3579,8.8271,2.9443,13.5801,4.7529
		c4.7529,1.8115,9.1367,4.1587,13.1553,7.0444c4.0146,2.8857,7.3252,6.4238,9.9297,10.6089
		c2.6016,4.188,3.9043,9.3945,3.9043,15.6167c0,7.2432-1.4434,13.5527-4.3291,18.9263c-2.8857,5.376-6.6777,9.8452-11.3721,13.4097
		c-4.6973,3.5649-9.9893,6.2251-15.8711,7.978C1018.2212,135.0981,1012.2241,135.9761,1006.1138,135.9761z"/>
	<path d="M1071.4634,12.4023h82.665v33.6089h-44.6426v10.3545h41.9268v31.4028h-41.9268v11.2031h47.5283v33.6094h-85.5508V12.4023z"
		/>
	<path d="M1213.1997,135.9761c-4.8672,0-9.6494-0.4238-14.3438-1.2651c-4.6973-0.8462-9.2246-2.085-13.5791-3.7158
		c-4.3584-1.6338-8.4609-3.5464-12.3066-5.7422c-3.8486-2.1963-7.2988-4.644-10.3545-7.3467l24.6133-26.7427
		c2.8271,3.0552,6.5908,5.771,11.2881,8.1475c4.6943,2.3765,9.5322,3.5649,14.5127,3.5649c2.2627,0,4.3281-0.3955,6.1953-1.1909
		c1.8672-0.793,2.8008-2.2676,2.8008-4.4214c0-1.1323-0.3125-2.0952-0.9336-2.8911c-0.623-0.793-1.7266-1.6152-3.3096-2.4639
		c-1.5859-0.8486-3.7637-1.7852-6.5352-2.8062c-2.7744-1.0186-6.2539-2.209-10.4395-3.5723
		c-4.0742-1.3584-7.9775-2.9736-11.7119-4.8457c-3.7344-1.8701-7.0449-4.167-9.9307-6.8882s-5.1768-5.978-6.874-9.7759
		c-1.6982-3.7983-2.5469-8.3604-2.5469-13.6914c0-7.479,1.5283-13.8286,4.583-19.043c3.0557-5.2144,6.9863-9.4951,11.7979-12.8394
		c4.8086-3.3447,10.2109-5.7529,16.21-7.2275c5.9971-1.4746,11.9385-2.2119,17.8232-2.2119c7.9199,0,15.9824,1.5278,24.1885,4.583
		c8.2041,3.0552,15.418,7.4688,21.6426,13.2402l-25.1221,25.6313c-2.7158-3.395-6.0547-5.9678-10.0146-7.7236
		c-3.9629-1.7529-7.5273-2.6309-10.6943-2.6309c-2.9434,0-5.3203,0.4243-7.1289,1.2729c-1.8115,0.8486-2.7158,2.2358-2.7158,4.1587
		c0,1.8115,0.9336,3.1694,2.8008,4.0737c1.8672,0.9072,4.8936,2.0371,9.0811,3.395c4.2998,1.3579,8.8271,2.9443,13.5801,4.7529
		c4.7529,1.8115,9.1367,4.1587,13.1553,7.0444c4.0146,2.8857,7.3252,6.4238,9.9297,10.6089
		c2.6016,4.188,3.9043,9.3945,3.9043,15.6167c0,7.2432-1.4434,13.5527-4.3291,18.9263c-2.8857,5.376-6.6777,9.8452-11.3721,13.4097
		c-4.6973,3.5649-9.9893,6.2251-15.8711,7.978C1225.3071,135.0981,1219.3101,135.9761,1213.1997,135.9761z"/>
</g>
</svg>
