<?xml version="1.0" encoding="utf-8"?>
<!-- Generator: Adobe Illustrator 26.0.1, SVG Export Plug-In . SVG Version: 6.00 Build 0)  -->
<svg version="1.1" id="Layer_1" xmlns="http://www.w3.org/2000/svg" xmlns:xlink="http://www.w3.org/1999/xlink" x="0px" y="0px"
	 width="1977.2085px" height="135.9766px" viewBox="0 0 1977.2085 135.9766" enable-background="new 0 0 1977.2085 135.9766"
	 xml:space="preserve">
<g>
	<path fill="#FFBB00" d="M0,62.8052C0,53.188,1.6973,44.502,5.0923,36.7495c3.3945-7.75,8.0625-14.3433,14.0039-19.7754
		c5.9409-5.4316,12.9854-9.6167,21.1328-12.561C48.377,1.4717,57.2036,0,66.7095,0c9.5054,0,18.332,1.4717,26.48,4.4131
		c8.1475,2.9443,15.2188,7.1294,21.2178,12.561c5.9971,5.4321,10.6943,12.0254,14.0889,19.7754
		c3.395,7.7524,5.0923,16.4385,5.0923,26.0557c0,9.6196-1.6973,18.3901-5.0923,26.3101
		c-3.3945,7.9229-8.0918,14.6826-14.0889,20.2842c-5.999,5.6016-13.0703,9.9307-21.2178,12.9863
		c-8.1479,3.0547-16.9746,4.583-26.48,4.583c-9.5059,0-18.3325-1.5283-26.4805-4.583c-8.1475-3.0557-15.1919-7.3848-21.1328-12.9863
		c-5.9414-5.6016-10.6094-12.3613-14.0039-20.2842C1.6973,81.1953,0,72.4248,0,62.8052z M42.9453,62.8052
		c0,3.9624,0.5938,7.583,1.7822,10.8638c1.188,3.2837,2.8271,6.1104,4.9224,8.4873c2.0928,2.376,4.6099,4.2168,7.5537,5.5166
		c2.9414,1.3018,6.1108,1.9521,9.5059,1.9521c3.3945,0,6.5352-0.6504,9.4209-1.9521c2.8853-1.2998,5.4023-3.1406,7.5532-5.5166
		c2.1484-2.377,3.8193-5.2036,5.0078-8.4873c1.188-3.2808,1.7822-6.9014,1.7822-10.8638c0-3.8457-0.5942-7.3838-1.7822-10.6089
		c-1.1885-3.2251-2.8594-5.9409-5.0078-8.1479c-2.1509-2.2065-4.668-3.9307-7.5532-5.1772
		c-2.8857-1.2437-6.0264-1.8672-9.4209-1.8672c-3.395,0-6.5645,0.6235-9.5059,1.8672c-2.9438,1.2466-5.4609,2.9707-7.5537,5.1772
		c-2.0952,2.207-3.7344,4.9229-4.9224,8.1479C43.5391,55.4214,42.9453,58.9595,42.9453,62.8052z"/>
	<path fill="#FFBB00" d="M204.541,126.9688c-9.394,0-17.5684-1.3027-24.5278-3.9043c-6.9595-2.6025-12.7603-6.167-17.3989-10.6943
		c-4.6416-4.5244-8.0918-9.8711-10.3545-16.041c-2.2646-6.166-3.3945-12.8154-3.3945-19.9443V3.395h40.3989v68.5767
		c0,5.771,1.3843,10.2695,4.1587,13.4941c2.7715,3.2256,6.7051,4.8379,11.7974,4.8379s9.0229-1.6123,11.7974-4.8379
		c2.7715-3.2246,4.1587-7.7231,4.1587-13.4941V3.395h40.229v72.9897c0,7.1289-1.2173,13.7783-3.6494,19.9443
		c-2.4346,6.1699-6.0259,11.5166-10.7788,16.041c-4.7524,4.5273-10.667,8.0918-17.7383,10.6943
		C222.1655,125.666,213.9326,126.9688,204.541,126.9688z"/>
	<path fill="#FFBB00" d="M282.1133,3.395h51.772c5.8828,0,11.7388,0.5938,17.5684,1.7822
		c5.8271,1.188,11.0337,3.2832,15.6167,6.2803c4.583,3,8.2881,7.0181,11.1182,12.0518c2.8271,5.0366,4.2437,11.3467,4.2437,18.9268
		c0,7.3574-1.8062,13.834-5.4185,19.4355s-8.8027,9.9302-15.5713,12.9854l30.4956,48.7163h-46.4067l-23.0215-42.9453h-1.1855
		v42.9453h-39.2109V3.395z M320.9849,54.1484h7.917c1.3472,0,2.835-0.1113,4.4634-0.3398c1.6289-0.2251,3.1431-0.7051,4.5464-1.4424
		c1.4028-0.7349,2.583-1.7534,3.5381-3.0557c0.9546-1.2993,1.4321-3.0264,1.4321-5.1772c0-2.1484-0.3955-3.8457-1.1802-5.0923
		c-0.7852-1.2437-1.7959-2.1772-3.0317-2.8008c-1.2358-0.6206-2.5835-1.0186-4.042-1.188c-1.459-0.1699-2.8062-0.2549-4.042-0.2549
		h-9.6011V54.1484z"/>
	<path fill="#FFBB00" d="M485.1255,126.9688c-4.8672,0-9.6489-0.4238-14.3438-1.2656c-4.6968-0.8457-9.2246-2.085-13.5796-3.7158
		c-4.3574-1.6338-8.4604-3.5459-12.3062-5.7422c-3.8486-2.1963-7.2993-4.6436-10.3545-7.3467l24.6128-26.7422
		c2.8276,3.0547,6.5908,5.7705,11.2881,8.1475c4.6943,2.376,9.5322,3.5645,14.5132,3.5645c2.2622,0,4.3286-0.3955,6.1958-1.1904
		c1.8672-0.793,2.8008-2.2676,2.8008-4.4219c0-1.1318-0.313-2.0947-0.9336-2.8906c-0.6235-0.793-1.7266-1.6152-3.3101-2.4639
		c-1.5859-0.8486-3.7637-1.7852-6.5352-2.8066c-2.7744-1.0186-6.2539-2.2085-10.4395-3.5718
		c-4.0737-1.3584-7.978-2.9736-11.7124-4.8457c-3.7344-1.8701-7.0444-4.167-9.9297-6.8882c-2.8857-2.7212-5.1772-5.978-6.875-9.7759
		c-1.6973-3.7983-2.5459-8.3604-2.5459-13.6914c0-7.479,1.5273-13.8286,4.583-19.043c3.0552-5.2144,6.9858-9.4951,11.7974-12.8394
		c4.8086-3.3447,10.2109-5.7529,16.2104-7.2275C480.2583,0.7373,486.1997,0,492.085,0c7.9194,0,15.9824,1.5278,24.1885,4.583
		c8.2031,3.0552,15.4175,7.4688,21.6421,13.2402l-25.1221,25.6313c-2.7158-3.395-6.0552-5.9678-10.0146-7.7236
		c-3.9624-1.7529-7.5273-2.6309-10.6938-2.6309c-2.9443,0-5.3208,0.4243-7.1294,1.2729c-1.8115,0.8486-2.7158,2.2358-2.7158,4.1587
		c0,1.8115,0.9336,3.1694,2.8008,4.0737c1.8672,0.9072,4.8936,2.0371,9.0811,3.395c4.2993,1.3579,8.8267,2.9443,13.5796,4.7529
		c4.7529,1.8115,9.1372,4.1587,13.1553,7.0444c4.0156,2.8857,7.3257,6.4238,9.9302,10.6089
		c2.6016,4.188,3.9038,9.3945,3.9038,15.6167c0,7.2432-1.4429,13.5527-4.3281,18.9258c-2.8857,5.376-6.6787,9.8457-11.373,13.4102
		c-4.6973,3.5645-9.9883,6.2246-15.8711,7.9775C497.2329,126.0908,491.2363,126.9688,485.1255,126.9688z"/>
	<path fill="#FFBB00" d="M590.7046,84.8721v38.7012h-40.2295V3.395h51.6021c6.1108,0,12.1079,0.6523,17.9932,1.9517
		c5.8828,1.3022,11.1445,3.5093,15.7861,6.6201c4.6387,3.1138,8.373,7.2432,11.2031,12.3916
		c2.8271,5.1504,4.2437,11.6274,4.2437,19.4355c0,7.4688-1.3872,13.8076-4.1587,19.0112
		c-2.7744,5.2065-6.4502,9.4502-11.0337,12.731c-4.583,3.2832-9.8447,5.6592-15.7861,7.1289
		c-5.9409,1.4717-12.0254,2.207-18.2476,2.207H590.7046z M590.7046,34.7974v19.3511h8.4873c3.0552,0,5.856-0.7642,8.4023-2.2915
		c2.5459-1.5278,3.8188-4.1006,3.8188-7.7236c0-1.9229-0.3394-3.4795-1.0181-4.668c-0.6792-1.188-1.6128-2.1216-2.8008-2.8008
		c-1.1885-0.6787-2.52-1.1587-3.9893-1.4429c-1.4722-0.2808-2.9438-0.4243-4.4131-0.4243H590.7046z"/>
	<path fill="#FFBB00" d="M666.5786,3.395h51.772c5.8828,0,11.7388,0.5938,17.5684,1.7822
		c5.8271,1.188,11.0337,3.2832,15.6167,6.2803c4.583,3,8.2881,7.0181,11.1182,12.0518c2.8271,5.0366,4.2437,11.3467,4.2437,18.9268
		c0,7.3574-1.8062,13.834-5.4185,19.4355s-8.8027,9.9302-15.5713,12.9854l30.4956,48.7163h-46.4067l-23.0215-42.9453h-1.1855
		v42.9453h-39.2109V3.395z M705.4502,54.1484h7.917c1.3472,0,2.835-0.1113,4.4634-0.3398c1.6289-0.2251,3.1431-0.7051,4.5464-1.4424
		c1.4028-0.7349,2.583-1.7534,3.5381-3.0557c0.9546-1.2993,1.4321-3.0264,1.4321-5.1772c0-2.1484-0.3955-3.8457-1.1802-5.0923
		c-0.7852-1.2437-1.7959-2.1772-3.0317-2.8008c-1.2358-0.6206-2.5835-1.0186-4.042-1.188c-1.459-0.1699-2.8062-0.2549-4.042-0.2549
		h-9.6011V54.1484z"/>
	<path fill="#FFBB00" d="M787.7744,3.395h40.7388v120.1782h-40.7388V3.395z"/>
	<path fill="#FFBB00" d="M850.918,3.395h40.2295l34.2881,60.938h0.6787L924.417,3.395h38.3623v120.1782h-41.248l-33.2695-57.373
		h-0.6792l1.6978,57.373H850.918V3.395z"/>
	<path fill="#FFBB00" d="M1046.2925,126.6289c-9.5059,0-18.3066-1.4717-26.396-4.4131
		c-8.0918-2.9414-15.1074-7.1562-21.0488-12.6465c-5.9404-5.4873-10.6084-12.1367-14.0039-19.9443
		c-3.3945-7.8086-5.0918-16.521-5.0918-26.1406c0-9.6172,1.6973-18.3325,5.0918-26.1406
		c3.3955-7.8081,8.0342-14.4839,13.9189-20.0298c5.8828-5.5435,12.7871-9.8159,20.709-12.8159
		C1027.3921,1.501,1035.8794,0,1044.9341,0c9.3916,0,18.3027,1.5278,26.7344,4.583c8.4297,3.0552,15.3037,7.2432,20.624,12.561
		l-23.5938,28.3472c-2.4912-2.9414-5.4326-5.2886-8.8271-7.0444c-3.3945-1.7529-7.583-2.6309-12.5615-2.6309
		c-3.2832,0-6.4795,0.6523-9.5898,1.9521c-3.1143,1.3022-5.8564,3.1694-8.2324,5.6016c-2.377,2.4346-4.3032,5.3467-5.772,8.7417
		c-1.4727,3.395-2.207,7.1875-2.207,11.373c0,8.3755,2.1777,15.1914,6.5356,20.4541c4.3555,5.2617,11.3438,7.8926,20.9639,7.8926
		c1.6973,0,3.4502-0.1406,5.2617-0.4238c1.8086-0.2812,3.2256-0.7061,4.2432-1.2734v-9.166h-19.3506V49.2256h55.167v65.6914
		c-2.8301,1.6973-6.084,3.2539-9.7598,4.668c-3.6787,1.416-7.583,2.6309-11.7129,3.6494
		c-4.1318,1.0186-8.4609,1.8379-12.9854,2.4609C1055.3442,126.3164,1050.8169,126.6289,1046.2925,126.6289z"/>
	<path fill="#FFBB00" d="M1151.5317,63.4844c0-9.6172,1.6973-18.3325,5.0918-26.1406c3.3955-7.8081,8.0342-14.4839,13.9189-20.0298
		c5.8828-5.5435,12.8164-9.8159,20.7939-12.8159C1199.3149,1.501,1207.8286,0,1216.8833,0c9.2773,0,18.0488,1.501,26.3105,4.498
		c8.2588,3,15.1621,7.0444,20.708,12.1367l-24.7822,29.875c-2.2646-2.9414-5.0928-5.1772-8.4873-6.7051
		c-3.3945-1.5273-7.1875-2.2915-11.373-2.2915c-3.3945,0-6.5645,0.5942-9.5059,1.7827c-2.9434,1.188-5.5166,2.9146-7.7227,5.1768
		c-2.207,2.2651-3.9336,5.0078-5.1777,8.2329c-1.2461,3.2251-1.8672,6.8188-1.8672,10.7788c0,3.9624,0.6504,7.4976,1.9521,10.6089
		c1.2998,3.1138,3.0557,5.8003,5.2627,8.063c2.2061,2.2646,4.7793,3.9883,7.7227,5.1768c2.9414,1.1885,6.0527,1.7822,9.3359,1.7822
		c4.6387,0,8.6279-0.96,11.9668-2.8857c3.3369-1.9229,5.9678-4.1846,7.8936-6.7891l24.7822,29.7051
		c-5.4316,5.4316-12.1094,9.7598-20.0293,12.9854c-7.9229,3.2246-16.9189,4.8379-26.9893,4.8379
		c-9.0547,0-17.5684-1.5283-25.5469-4.583c-7.9775-3.0557-14.9111-7.3848-20.7939-12.9863
		c-5.8848-5.6016-10.5234-12.2773-13.9189-20.0293C1153.229,81.6201,1151.5317,72.9897,1151.5317,63.4844z"/>
	<path fill="#FFBB00" d="M1267.6382,62.8052c0-9.6172,1.6973-18.3032,5.0918-26.0557c3.3955-7.75,8.0635-14.3433,14.0039-19.7754
		c5.9414-5.4316,12.9854-9.6167,21.1338-12.561C1316.0151,1.4717,1324.8423,0,1334.3472,0c9.5059,0,18.333,1.4717,26.4805,4.4131
		c8.1475,2.9443,15.2188,7.1294,21.2178,12.561c5.9971,5.4321,10.6943,12.0254,14.0889,19.7754
		c3.3955,7.7524,5.0928,16.4385,5.0928,26.0557c0,9.6196-1.6973,18.3901-5.0928,26.3101
		c-3.3945,7.9229-8.0918,14.6826-14.0889,20.2842c-5.999,5.6016-13.0703,9.9307-21.2178,12.9863
		c-8.1475,3.0547-16.9746,4.583-26.4805,4.583c-9.5049,0-18.332-1.5283-26.4795-4.583
		c-8.1484-3.0557-15.1924-7.3848-21.1338-12.9863c-5.9404-5.6016-10.6084-12.3613-14.0039-20.2842
		C1269.3354,81.1953,1267.6382,72.4248,1267.6382,62.8052z M1310.5835,62.8052c0,3.9624,0.5938,7.583,1.7822,10.8638
		c1.1885,3.2837,2.8271,6.1104,4.9229,8.4873c2.0918,2.376,4.6094,4.2168,7.5537,5.5166c2.9404,1.3018,6.1104,1.9521,9.5049,1.9521
		c3.3955,0,6.5352-0.6504,9.4209-1.9521c2.8857-1.2998,5.4033-3.1406,7.5537-5.5166c2.1484-2.377,3.8193-5.2036,5.0078-8.4873
		c1.1885-3.2808,1.7822-6.9014,1.7822-10.8638c0-3.8457-0.5938-7.3838-1.7822-10.6089s-2.8594-5.9409-5.0078-8.1479
		c-2.1504-2.2065-4.668-3.9307-7.5537-5.1772c-2.8857-1.2437-6.0254-1.8672-9.4209-1.8672c-3.3945,0-6.5645,0.6235-9.5049,1.8672
		c-2.9443,1.2466-5.4619,2.9707-7.5537,5.1772c-2.0957,2.207-3.7344,4.9229-4.9229,8.1479S1310.5835,58.9595,1310.5835,62.8052z"/>
	<path fill="#FFBB00" d="M1472.1792,126.9688c-9.3945,0-17.5684-1.3027-24.5283-3.9043c-6.959-2.6025-12.7598-6.167-17.3984-10.6943
		c-4.6416-4.5244-8.0918-9.8711-10.3545-16.041c-2.2646-6.166-3.3945-12.8154-3.3945-19.9443V3.395h40.3994v68.5767
		c0,5.771,1.3838,10.2695,4.1582,13.4941c2.7715,3.2256,6.7051,4.8379,11.7969,4.8379c5.0928,0,9.0234-1.6123,11.7979-4.8379
		c2.7715-3.2246,4.1582-7.7231,4.1582-13.4941V3.395h40.2295v72.9897c0,7.1289-1.2168,13.7783-3.6494,19.9443
		c-2.4346,6.1699-6.0254,11.5166-10.7783,16.041c-4.7529,4.5273-10.668,8.0918-17.7383,10.6943
		C1489.8032,125.666,1481.5708,126.9688,1472.1792,126.9688z"/>
	<path fill="#FFBB00" d="M1549.7515,3.395h51.7725c5.8818,0,11.7383,0.5938,17.5684,1.7822
		c5.8271,1.188,11.0332,3.2832,15.6162,6.2803c4.583,3,8.2881,7.0181,11.1182,12.0518c2.8271,5.0366,4.2441,11.3467,4.2441,18.9268
		c0,7.3574-1.8066,13.834-5.4189,19.4355s-8.8027,9.9302-15.5713,12.9854l30.4951,48.7163h-46.4062l-23.0215-42.9453h-1.1855
		v42.9453h-39.2109V3.395z M1588.6226,54.1484h7.917c1.3477,0,2.8359-0.1113,4.4639-0.3398
		c1.6289-0.2251,3.1436-0.7051,4.5459-1.4424c1.4033-0.7349,2.584-1.7534,3.5381-3.0557c0.9551-1.2993,1.4326-3.0264,1.4326-5.1772
		c0-2.1484-0.3955-3.8457-1.1807-5.0923c-0.7852-1.2437-1.7949-2.1772-3.0312-2.8008c-1.2363-0.6206-2.583-1.0186-4.042-1.188
		c-1.459-0.1699-2.8057-0.2549-4.042-0.2549h-9.6016V54.1484z"/>
	<path fill="#FFBB00" d="M1710.3276,126.9688c-4.8672,0-9.6494-0.4238-14.3438-1.2656c-4.6973-0.8457-9.2246-2.085-13.5791-3.7158
		c-4.3584-1.6338-8.4609-3.5459-12.3066-5.7422c-3.8486-2.1963-7.2988-4.6436-10.3545-7.3467l24.6133-26.7422
		c2.8271,3.0547,6.5908,5.7705,11.2881,8.1475c4.6943,2.376,9.5322,3.5645,14.5127,3.5645c2.2627,0,4.3281-0.3955,6.1953-1.1904
		c1.8672-0.793,2.8008-2.2676,2.8008-4.4219c0-1.1318-0.3125-2.0947-0.9336-2.8906c-0.623-0.793-1.7266-1.6152-3.3096-2.4639
		c-1.5859-0.8486-3.7637-1.7852-6.5352-2.8066c-2.7744-1.0186-6.2539-2.2085-10.4395-3.5718
		c-4.0742-1.3584-7.9775-2.9736-11.7119-4.8457c-3.7344-1.8701-7.0449-4.167-9.9307-6.8882s-5.1768-5.978-6.874-9.7759
		c-1.6982-3.7983-2.5469-8.3604-2.5469-13.6914c0-7.479,1.5283-13.8286,4.583-19.043c3.0557-5.2144,6.9863-9.4951,11.7979-12.8394
		c4.8086-3.3447,10.2109-5.7529,16.21-7.2275C1705.4604,0.7373,1711.4019,0,1717.2866,0c7.9199,0,15.9824,1.5278,24.1885,4.583
		c8.2041,3.0552,15.418,7.4688,21.6426,13.2402l-25.1221,25.6313c-2.7158-3.395-6.0547-5.9678-10.0146-7.7236
		c-3.9629-1.7529-7.5273-2.6309-10.6943-2.6309c-2.9434,0-5.3203,0.4243-7.1289,1.2729c-1.8115,0.8486-2.7158,2.2358-2.7158,4.1587
		c0,1.8115,0.9336,3.1694,2.8008,4.0737c1.8672,0.9072,4.8936,2.0371,9.0811,3.395c4.2998,1.3579,8.8271,2.9443,13.5801,4.7529
		c4.7529,1.8115,9.1367,4.1587,13.1553,7.0444c4.0146,2.8857,7.3252,6.4238,9.9297,10.6089
		c2.6016,4.188,3.9043,9.3945,3.9043,15.6167c0,7.2432-1.4434,13.5527-4.3291,18.9258c-2.8857,5.376-6.6777,9.8457-11.3721,13.4102
		c-4.6973,3.5645-9.9893,6.2246-15.8711,7.9775C1722.4351,126.0908,1716.438,126.9688,1710.3276,126.9688z"/>
	<path fill="#FFBB00" d="M1775.6772,3.395h82.665v33.6089h-44.6426v10.3545h41.9268v31.4023h-41.9268v11.2031h47.5283v33.6094
		h-85.5508V3.395z"/>
	<path fill="#FFBB00" d="M1917.4136,126.9688c-4.8672,0-9.6494-0.4238-14.3438-1.2656c-4.6973-0.8457-9.2246-2.085-13.5791-3.7158
		c-4.3584-1.6338-8.4609-3.5459-12.3066-5.7422c-3.8486-2.1963-7.2988-4.6436-10.3545-7.3467l24.6133-26.7422
		c2.8271,3.0547,6.5908,5.7705,11.2881,8.1475c4.6943,2.376,9.5322,3.5645,14.5127,3.5645c2.2627,0,4.3281-0.3955,6.1953-1.1904
		c1.8672-0.793,2.8008-2.2676,2.8008-4.4219c0-1.1318-0.3125-2.0947-0.9336-2.8906c-0.623-0.793-1.7266-1.6152-3.3096-2.4639
		c-1.5859-0.8486-3.7637-1.7852-6.5352-2.8066c-2.7744-1.0186-6.2539-2.2085-10.4395-3.5718
		c-4.0742-1.3584-7.9775-2.9736-11.7119-4.8457c-3.7344-1.8701-7.0449-4.167-9.9307-6.8882s-5.1768-5.978-6.874-9.7759
		c-1.6982-3.7983-2.5469-8.3604-2.5469-13.6914c0-7.479,1.5283-13.8286,4.583-19.043c3.0557-5.2144,6.9863-9.4951,11.7979-12.8394
		c4.8086-3.3447,10.2109-5.7529,16.21-7.2275C1912.5464,0.7373,1918.4878,0,1924.3726,0c7.9199,0,15.9824,1.5278,24.1885,4.583
		c8.2041,3.0552,15.418,7.4688,21.6426,13.2402l-25.1221,25.6313c-2.7158-3.395-6.0547-5.9678-10.0146-7.7236
		c-3.9629-1.7529-7.5273-2.6309-10.6943-2.6309c-2.9434,0-5.3203,0.4243-7.1289,1.2729c-1.8115,0.8486-2.7158,2.2358-2.7158,4.1587
		c0,1.8115,0.9336,3.1694,2.8008,4.0737c1.8672,0.9072,4.8936,2.0371,9.0811,3.395c4.2998,1.3579,8.8271,2.9443,13.5801,4.7529
		c4.7529,1.8115,9.1367,4.1587,13.1553,7.0444c4.0146,2.8857,7.3252,6.4238,9.9297,10.6089
		c2.6016,4.188,3.9043,9.3945,3.9043,15.6167c0,7.2432-1.4434,13.5527-4.3291,18.9258c-2.8857,5.376-6.6777,9.8457-11.3721,13.4102
		c-4.6973,3.5645-9.9893,6.2246-15.8711,7.9775C1929.521,126.0908,1923.5239,126.9688,1917.4136,126.9688z"/>
</g>
<g>
	<path d="M7.0054,71.8125c0-9.6172,1.6973-18.3032,5.0923-26.0557c3.3945-7.75,8.0625-14.3433,14.0039-19.7754
		c5.9409-5.4316,12.9854-9.6167,21.1328-12.561c8.1479-2.9414,16.9746-4.4131,26.4805-4.4131c9.5054,0,18.332,1.4717,26.48,4.4131
		c8.1475,2.9443,15.2188,7.1294,21.2178,12.561c5.9971,5.4321,10.6943,12.0254,14.0889,19.7754
		c3.395,7.7524,5.0923,16.4385,5.0923,26.0557c0,9.6201-1.6973,18.3906-5.0923,26.3105
		c-3.3945,7.9229-8.0918,14.6826-14.0889,20.2842c-5.999,5.6016-13.0703,9.9307-21.2178,12.9863
		c-8.1479,3.0547-16.9746,4.583-26.48,4.583c-9.5059,0-18.3325-1.5283-26.4805-4.583c-8.1475-3.0557-15.1919-7.3848-21.1328-12.9863
		c-5.9414-5.6016-10.6094-12.3613-14.0039-20.2842C8.7026,90.2031,7.0054,81.4326,7.0054,71.8125z M49.9507,71.8125
		c0,3.9624,0.5938,7.583,1.7822,10.8643c1.188,3.2832,2.8271,6.1104,4.9224,8.4873c2.0928,2.376,4.6099,4.2168,7.5537,5.5166
		c2.9414,1.3018,6.1108,1.9521,9.5059,1.9521c3.3945,0,6.5352-0.6504,9.4209-1.9521c2.8853-1.2998,5.4023-3.1406,7.5532-5.5166
		c2.1484-2.377,3.8193-5.2041,5.0078-8.4873c1.188-3.2812,1.7822-6.9019,1.7822-10.8643c0-3.8457-0.5942-7.3838-1.7822-10.6089
		c-1.1885-3.2251-2.8594-5.9409-5.0078-8.1479c-2.1509-2.2065-4.668-3.9307-7.5532-5.1772
		c-2.8857-1.2437-6.0264-1.8672-9.4209-1.8672c-3.395,0-6.5645,0.6235-9.5059,1.8672c-2.9438,1.2466-5.4609,2.9707-7.5537,5.1772
		c-2.0952,2.207-3.7344,4.9229-4.9224,8.1479C50.5444,64.4287,49.9507,67.9668,49.9507,71.8125z"/>
	<path d="M211.5464,135.9766c-9.394,0-17.5684-1.3027-24.5278-3.9043c-6.9595-2.6025-12.7603-6.167-17.3989-10.6943
		c-4.6416-4.5244-8.0918-9.8711-10.3545-16.041c-2.2646-6.166-3.3945-12.8154-3.3945-19.9443V12.4023h40.3989v68.5771
		c0,5.7705,1.3843,10.2695,4.1587,13.4941c2.7715,3.2256,6.7051,4.8379,11.7974,4.8379s9.0229-1.6123,11.7974-4.8379
		c2.7715-3.2246,4.1587-7.7236,4.1587-13.4941V12.4023h40.229v72.9902c0,7.1289-1.2173,13.7783-3.6494,19.9443
		c-2.4346,6.1699-6.0259,11.5166-10.7788,16.041c-4.7524,4.5273-10.667,8.0918-17.7383,10.6943
		C229.1709,134.6738,220.938,135.9766,211.5464,135.9766z"/>
	<path d="M289.1187,12.4023h51.772c5.8828,0,11.7388,0.5938,17.5684,1.7822c5.8271,1.188,11.0337,3.2832,15.6167,6.2803
		c4.583,3,8.2881,7.0181,11.1182,12.0518c2.8271,5.0366,4.2437,11.3467,4.2437,18.9268c0,7.3574-1.8062,13.834-5.4185,19.4355
		s-8.8027,9.9307-15.5713,12.9854l30.4956,48.7168h-46.4067l-23.0215-42.9453h-1.1855v42.9453h-39.2109V12.4023z M327.9902,63.1558
		h7.917c1.3472,0,2.835-0.1113,4.4634-0.3398c1.6289-0.2251,3.1431-0.7051,4.5464-1.4424c1.4028-0.7349,2.583-1.7534,3.5381-3.0557
		c0.9546-1.2993,1.4321-3.0264,1.4321-5.1772c0-2.1484-0.3955-3.8457-1.1802-5.0923c-0.7852-1.2437-1.7959-2.1772-3.0317-2.8008
		c-1.2358-0.6206-2.5835-1.0186-4.042-1.188c-1.459-0.1699-2.8062-0.2549-4.042-0.2549h-9.6011V63.1558z"/>
	<path d="M492.1309,135.9766c-4.8672,0-9.6489-0.4238-14.3438-1.2656c-4.6968-0.8457-9.2246-2.085-13.5796-3.7158
		c-4.3574-1.6338-8.4604-3.5459-12.3062-5.7422c-3.8486-2.1963-7.2993-4.6436-10.3545-7.3467l24.6128-26.7422
		c2.8276,3.0547,6.5908,5.7705,11.2881,8.1475c4.6943,2.376,9.5322,3.5645,14.5132,3.5645c2.2622,0,4.3286-0.3955,6.1958-1.1904
		c1.8672-0.793,2.8008-2.2676,2.8008-4.4219c0-1.1318-0.313-2.0947-0.9336-2.8906c-0.6235-0.793-1.7266-1.6152-3.3101-2.4639
		c-1.5859-0.8486-3.7637-1.7852-6.5352-2.8066c-2.7744-1.0186-6.2539-2.209-10.4395-3.5723
		c-4.0737-1.3584-7.978-2.9736-11.7124-4.8457c-3.7344-1.8701-7.0444-4.167-9.9297-6.8882c-2.8857-2.7212-5.1772-5.978-6.875-9.7759
		c-1.6973-3.7983-2.5459-8.3604-2.5459-13.6914c0-7.479,1.5273-13.8286,4.583-19.043c3.0552-5.2144,6.9858-9.4951,11.7974-12.8394
		c4.8086-3.3447,10.2109-5.7529,16.2104-7.2275c5.9966-1.4746,11.938-2.2119,17.8232-2.2119c7.9194,0,15.9824,1.5278,24.1885,4.583
		c8.2031,3.0552,15.4175,7.4688,21.6421,13.2402l-25.1221,25.6313c-2.7158-3.395-6.0552-5.9678-10.0146-7.7236
		c-3.9624-1.7529-7.5273-2.6309-10.6938-2.6309c-2.9443,0-5.3208,0.4243-7.1294,1.2729c-1.8115,0.8486-2.7158,2.2358-2.7158,4.1587
		c0,1.8115,0.9336,3.1694,2.8008,4.0737c1.8672,0.9072,4.8936,2.0371,9.0811,3.395c4.2993,1.3579,8.8267,2.9443,13.5796,4.7529
		c4.7529,1.8115,9.1372,4.1587,13.1553,7.0444c4.0156,2.8857,7.3257,6.4238,9.9302,10.6089
		c2.6016,4.1885,3.9038,9.3945,3.9038,15.6172c0,7.2432-1.4429,13.5527-4.3281,18.9258c-2.8857,5.376-6.6787,9.8457-11.373,13.4102
		c-4.6973,3.5645-9.9883,6.2246-15.8711,7.9775C504.2383,135.0986,498.2417,135.9766,492.1309,135.9766z"/>
	<path d="M597.71,93.8799v38.7012h-40.2295V12.4023h51.6021c6.1108,0,12.1079,0.6523,17.9932,1.9517
		c5.8828,1.3022,11.1445,3.5093,15.7861,6.6201c4.6387,3.1138,8.373,7.2432,11.2031,12.3916
		c2.8271,5.1504,4.2437,11.6274,4.2437,19.4355c0,7.4688-1.3872,13.8076-4.1587,19.0112
		c-2.7744,5.2065-6.4502,9.4502-11.0337,12.7314c-4.583,3.2832-9.8447,5.6592-15.7861,7.1289
		c-5.9409,1.4717-12.0254,2.207-18.2476,2.207H597.71z M597.71,43.8047v19.3511h8.4873c3.0552,0,5.856-0.7642,8.4023-2.2915
		c2.5459-1.5278,3.8188-4.1006,3.8188-7.7236c0-1.9229-0.3394-3.4795-1.0181-4.668c-0.6792-1.188-1.6128-2.1216-2.8008-2.8008
		c-1.1885-0.6787-2.52-1.1587-3.9893-1.4429c-1.4722-0.2808-2.9438-0.4243-4.4131-0.4243H597.71z"/>
	<path d="M673.584,12.4023h51.772c5.8828,0,11.7388,0.5938,17.5684,1.7822c5.8271,1.188,11.0337,3.2832,15.6167,6.2803
		c4.583,3,8.2881,7.0181,11.1182,12.0518c2.8271,5.0366,4.2437,11.3467,4.2437,18.9268c0,7.3574-1.8062,13.834-5.4185,19.4355
		s-8.8027,9.9307-15.5713,12.9854l30.4956,48.7168H737.002l-23.0215-42.9453h-1.1855v42.9453H673.584V12.4023z M712.4556,63.1558
		h7.917c1.3472,0,2.835-0.1113,4.4634-0.3398c1.6289-0.2251,3.1431-0.7051,4.5464-1.4424c1.4028-0.7349,2.583-1.7534,3.5381-3.0557
		c0.9546-1.2993,1.4321-3.0264,1.4321-5.1772c0-2.1484-0.3955-3.8457-1.1802-5.0923c-0.7852-1.2437-1.7959-2.1772-3.0317-2.8008
		c-1.2358-0.6206-2.5835-1.0186-4.042-1.188c-1.459-0.1699-2.8062-0.2549-4.042-0.2549h-9.6011V63.1558z"/>
	<path d="M794.7798,12.4023h40.7388v120.1787h-40.7388V12.4023z"/>
	<path d="M857.9233,12.4023h40.2295l34.2881,60.938h0.6787l-1.6973-60.938h38.3623v120.1787h-41.248l-33.2695-57.3735h-0.6792
		l1.6978,57.3735h-38.3623V12.4023z"/>
	<path d="M1053.2974,135.6367c-9.5059,0-18.3066-1.4717-26.3955-4.4131c-8.0918-2.9414-15.1074-7.1562-21.0488-12.6465
		c-5.9404-5.4873-10.6084-12.1367-14.0039-19.9443c-3.3945-7.8086-5.0918-16.5215-5.0918-26.1411
		c0-9.6172,1.6973-18.3325,5.0918-26.1406c3.3955-7.8081,8.0342-14.4839,13.9189-20.0298
		c5.8828-5.5435,12.7871-9.8159,20.709-12.8159c7.9199-2.9971,16.4072-4.498,25.4619-4.498c9.3916,0,18.3027,1.5278,26.7344,4.583
		c8.4297,3.0552,15.3037,7.2432,20.624,12.561l-23.5938,28.3472c-2.4912-2.9414-5.4326-5.2886-8.8271-7.0444
		c-3.3945-1.7529-7.583-2.6309-12.5615-2.6309c-3.2832,0-6.4795,0.6523-9.5898,1.9521c-3.1143,1.3022-5.8564,3.1694-8.2324,5.6016
		c-2.377,2.4346-4.3027,5.3467-5.7715,8.7417c-1.4727,3.395-2.207,7.1875-2.207,11.373c0,8.3755,2.1777,15.1919,6.5352,20.4546
		c4.3555,5.2617,11.3438,7.8926,20.9639,7.8926c1.6973,0,3.4502-0.1406,5.2617-0.4238c1.8086-0.2812,3.2256-0.7061,4.2432-1.2734
		v-9.166h-19.3506V58.2329h55.167v65.6919c-2.8301,1.6973-6.084,3.2539-9.7598,4.668c-3.6787,1.416-7.583,2.6309-11.7129,3.6494
		c-4.1318,1.0186-8.4609,1.8379-12.9854,2.4609C1062.3491,135.3242,1057.8218,135.6367,1053.2974,135.6367z"/>
	<path d="M1158.5366,72.4917c0-9.6172,1.6973-18.3325,5.0918-26.1406c3.3955-7.8081,8.0342-14.4839,13.9189-20.0298
		c5.8828-5.5435,12.8164-9.8159,20.7939-12.8159c7.9785-2.9971,16.4922-4.498,25.5469-4.498c9.2773,0,18.0488,1.501,26.3105,4.498
		c8.2588,3,15.1621,7.0444,20.708,12.1367l-24.7822,29.875c-2.2646-2.9414-5.0928-5.1772-8.4873-6.7051
		c-3.3945-1.5273-7.1875-2.2915-11.373-2.2915c-3.3945,0-6.5645,0.5942-9.5059,1.7827c-2.9434,1.188-5.5166,2.9146-7.7227,5.1768
		c-2.207,2.2651-3.9336,5.0078-5.1777,8.2329c-1.2461,3.2251-1.8672,6.8188-1.8672,10.7788c0,3.9624,0.6504,7.4976,1.9521,10.6089
		c1.2998,3.1143,3.0557,5.8008,5.2627,8.0635c2.2061,2.2646,4.7793,3.9883,7.7227,5.1768c2.9414,1.1885,6.0527,1.7822,9.3359,1.7822
		c4.6387,0,8.6279-0.96,11.9668-2.8857c3.3369-1.9229,5.9678-4.1846,7.8936-6.7891l24.7822,29.7051
		c-5.4316,5.4316-12.1094,9.7598-20.0293,12.9854c-7.9229,3.2246-16.9189,4.8379-26.9893,4.8379
		c-9.0547,0-17.5684-1.5283-25.5469-4.583c-7.9775-3.0557-14.9111-7.3848-20.7939-12.9863
		c-5.8848-5.6016-10.5234-12.2773-13.9189-20.0293C1160.2339,90.6279,1158.5366,81.9971,1158.5366,72.4917z"/>
	<path d="M1274.6431,71.8125c0-9.6172,1.6973-18.3032,5.0918-26.0557c3.3955-7.75,8.0635-14.3433,14.0039-19.7754
		c5.9414-5.4316,12.9854-9.6167,21.1338-12.561c8.1475-2.9414,16.9746-4.4131,26.4795-4.4131c9.5059,0,18.333,1.4717,26.4805,4.4131
		c8.1475,2.9443,15.2188,7.1294,21.2178,12.561c5.9971,5.4321,10.6943,12.0254,14.0889,19.7754
		c3.3955,7.7524,5.0928,16.4385,5.0928,26.0557c0,9.6201-1.6973,18.3906-5.0928,26.3105
		c-3.3945,7.9229-8.0918,14.6826-14.0889,20.2842c-5.999,5.6016-13.0703,9.9307-21.2178,12.9863
		c-8.1475,3.0547-16.9746,4.583-26.4805,4.583c-9.5049,0-18.332-1.5283-26.4795-4.583
		c-8.1484-3.0557-15.1924-7.3848-21.1338-12.9863c-5.9404-5.6016-10.6084-12.3613-14.0039-20.2842
		C1276.3403,90.2031,1274.6431,81.4326,1274.6431,71.8125z M1317.5884,71.8125c0,3.9624,0.5938,7.583,1.7822,10.8643
		c1.1885,3.2832,2.8271,6.1104,4.9229,8.4873c2.0918,2.376,4.6094,4.2168,7.5537,5.5166c2.9404,1.3018,6.1104,1.9521,9.5049,1.9521
		c3.3955,0,6.5352-0.6504,9.4209-1.9521c2.8857-1.2998,5.4033-3.1406,7.5537-5.5166c2.1484-2.377,3.8193-5.2041,5.0078-8.4873
		c1.1885-3.2812,1.7822-6.9019,1.7822-10.8643c0-3.8457-0.5938-7.3838-1.7822-10.6089s-2.8594-5.9409-5.0078-8.1479
		c-2.1504-2.2065-4.668-3.9307-7.5537-5.1772c-2.8857-1.2437-6.0254-1.8672-9.4209-1.8672c-3.3945,0-6.5645,0.6235-9.5049,1.8672
		c-2.9443,1.2466-5.4619,2.9707-7.5537,5.1772c-2.0957,2.207-3.7344,4.9229-4.9229,8.1479S1317.5884,67.9668,1317.5884,71.8125z"/>
	<path d="M1479.1841,135.9766c-9.3945,0-17.5684-1.3027-24.5283-3.9043c-6.959-2.6025-12.7598-6.167-17.3984-10.6943
		c-4.6416-4.5244-8.0918-9.8711-10.3545-16.041c-2.2646-6.166-3.3945-12.8154-3.3945-19.9443V12.4023h40.3994v68.5771
		c0,5.7705,1.3838,10.2695,4.1582,13.4941c2.7715,3.2256,6.7051,4.8379,11.7969,4.8379c5.0928,0,9.0234-1.6123,11.7979-4.8379
		c2.7715-3.2246,4.1582-7.7236,4.1582-13.4941V12.4023h40.2295v72.9902c0,7.1289-1.2168,13.7783-3.6494,19.9443
		c-2.4346,6.1699-6.0254,11.5166-10.7783,16.041c-4.7529,4.5273-10.668,8.0918-17.7383,10.6943
		C1496.8081,134.6738,1488.5757,135.9766,1479.1841,135.9766z"/>
	<path d="M1556.7563,12.4023h51.7725c5.8818,0,11.7383,0.5938,17.5684,1.7822c5.8271,1.188,11.0332,3.2832,15.6162,6.2803
		c4.583,3,8.2881,7.0181,11.1182,12.0518c2.8271,5.0366,4.2441,11.3467,4.2441,18.9268c0,7.3574-1.8066,13.834-5.4189,19.4355
		s-8.8027,9.9307-15.5713,12.9854l30.4951,48.7168h-46.4062l-23.0215-42.9453h-1.1855v42.9453h-39.2109V12.4023z M1595.6274,63.1558
		h7.917c1.3477,0,2.8359-0.1113,4.4639-0.3398c1.6289-0.2251,3.1436-0.7051,4.5459-1.4424c1.4033-0.7349,2.584-1.7534,3.5381-3.0557
		c0.9551-1.2993,1.4326-3.0264,1.4326-5.1772c0-2.1484-0.3955-3.8457-1.1807-5.0923c-0.7852-1.2437-1.7949-2.1772-3.0312-2.8008
		c-1.2363-0.6206-2.583-1.0186-4.042-1.188c-1.459-0.1699-2.8057-0.2549-4.042-0.2549h-9.6016V63.1558z"/>
	<path d="M1717.3325,135.9766c-4.8672,0-9.6494-0.4238-14.3438-1.2656c-4.6973-0.8457-9.2246-2.085-13.5791-3.7158
		c-4.3584-1.6338-8.4609-3.5459-12.3066-5.7422c-3.8486-2.1963-7.2988-4.6436-10.3545-7.3467l24.6133-26.7422
		c2.8271,3.0547,6.5908,5.7705,11.2881,8.1475c4.6943,2.376,9.5322,3.5645,14.5127,3.5645c2.2627,0,4.3281-0.3955,6.1953-1.1904
		c1.8672-0.793,2.8008-2.2676,2.8008-4.4219c0-1.1318-0.3125-2.0947-0.9336-2.8906c-0.623-0.793-1.7266-1.6152-3.3096-2.4639
		c-1.5859-0.8486-3.7637-1.7852-6.5352-2.8066c-2.7744-1.0186-6.2539-2.209-10.4395-3.5723
		c-4.0742-1.3584-7.9775-2.9736-11.7119-4.8457c-3.7344-1.8701-7.0449-4.167-9.9307-6.8882s-5.1768-5.978-6.874-9.7759
		c-1.6982-3.7983-2.5469-8.3604-2.5469-13.6914c0-7.479,1.5283-13.8286,4.583-19.043c3.0557-5.2144,6.9863-9.4951,11.7979-12.8394
		c4.8086-3.3447,10.2109-5.7529,16.21-7.2275c5.9971-1.4746,11.9385-2.2119,17.8232-2.2119c7.9199,0,15.9824,1.5278,24.1885,4.583
		c8.2041,3.0552,15.418,7.4688,21.6426,13.2402l-25.1221,25.6313c-2.7158-3.395-6.0547-5.9678-10.0146-7.7236
		c-3.9629-1.7529-7.5273-2.6309-10.6943-2.6309c-2.9434,0-5.3203,0.4243-7.1289,1.2729c-1.8115,0.8486-2.7158,2.2358-2.7158,4.1587
		c0,1.8115,0.9336,3.1694,2.8008,4.0737c1.8672,0.9072,4.8936,2.0371,9.0811,3.395c4.2998,1.3579,8.8271,2.9443,13.5801,4.7529
		c4.7529,1.8115,9.1367,4.1587,13.1553,7.0444c4.0146,2.8857,7.3252,6.4238,9.9297,10.6089
		c2.6016,4.1885,3.9043,9.3945,3.9043,15.6172c0,7.2432-1.4434,13.5527-4.3291,18.9258c-2.8857,5.376-6.6777,9.8457-11.3721,13.4102
		c-4.6973,3.5645-9.9893,6.2246-15.8711,7.9775C1729.4399,135.0986,1723.4429,135.9766,1717.3325,135.9766z"/>
	<path d="M1782.6821,12.4023h82.665v33.6089h-44.6426v10.3545h41.9268v31.4028h-41.9268v11.2031h47.5283v33.6094h-85.5508V12.4023z"
		/>
	<path d="M1924.4185,135.9766c-4.8672,0-9.6494-0.4238-14.3438-1.2656c-4.6973-0.8457-9.2246-2.085-13.5791-3.7158
		c-4.3584-1.6338-8.4609-3.5459-12.3066-5.7422c-3.8486-2.1963-7.2988-4.6436-10.3545-7.3467l24.6133-26.7422
		c2.8271,3.0547,6.5908,5.7705,11.2881,8.1475c4.6943,2.376,9.5322,3.5645,14.5127,3.5645c2.2627,0,4.3281-0.3955,6.1953-1.1904
		c1.8672-0.793,2.8008-2.2676,2.8008-4.4219c0-1.1318-0.3125-2.0947-0.9336-2.8906c-0.623-0.793-1.7266-1.6152-3.3096-2.4639
		c-1.5859-0.8486-3.7637-1.7852-6.5352-2.8066c-2.7744-1.0186-6.2539-2.209-10.4395-3.5723
		c-4.0742-1.3584-7.9775-2.9736-11.7119-4.8457c-3.7344-1.8701-7.0449-4.167-9.9307-6.8882s-5.1768-5.978-6.874-9.7759
		c-1.6982-3.7983-2.5469-8.3604-2.5469-13.6914c0-7.479,1.5283-13.8286,4.583-19.043c3.0557-5.2144,6.9863-9.4951,11.7979-12.8394
		c4.8086-3.3447,10.2109-5.7529,16.21-7.2275c5.9971-1.4746,11.9385-2.2119,17.8232-2.2119c7.9199,0,15.9824,1.5278,24.1885,4.583
		c8.2041,3.0552,15.418,7.4688,21.6426,13.2402l-25.1221,25.6313c-2.7158-3.395-6.0547-5.9678-10.0146-7.7236
		c-3.9629-1.7529-7.5273-2.6309-10.6943-2.6309c-2.9434,0-5.3203,0.4243-7.1289,1.2729c-1.8115,0.8486-2.7158,2.2358-2.7158,4.1587
		c0,1.8115,0.9336,3.1694,2.8008,4.0737c1.8672,0.9072,4.8936,2.0371,9.0811,3.395c4.2998,1.3579,8.8271,2.9443,13.5801,4.7529
		c4.7529,1.8115,9.1367,4.1587,13.1553,7.0444c4.0146,2.8857,7.3252,6.4238,9.9297,10.6089
		c2.6016,4.1885,3.9043,9.3945,3.9043,15.6172c0,7.2432-1.4434,13.5527-4.3291,18.9258c-2.8857,5.376-6.6777,9.8457-11.3721,13.4102
		c-4.6973,3.5645-9.9893,6.2246-15.8711,7.9775C1936.5259,135.0986,1930.5288,135.9766,1924.4185,135.9766z"/>
</g>
</svg>
