<?xml version="1.0" encoding="utf-8"?>
<!-- Generator: Adobe Illustrator 26.0.0, SVG Export Plug-In . SVG Version: 6.00 Build 0)  -->
<svg version="1.1" id="Layer_1" xmlns="http://www.w3.org/2000/svg" xmlns:xlink="http://www.w3.org/1999/xlink" x="0px" y="0px"
	 width="1512.7925px" height="134.9751px" viewBox="0 0 1512.7925 134.9751" enable-background="new 0 0 1512.7925 134.9751"
	 xml:space="preserve">
<g>
	<path fill="#009BDA" d="M0,123.5737V3.395h44.8125c9.5059,0,18.5869,0.9336,27.2441,2.8008
		c8.6567,1.8672,16.2954,5.0923,22.915,9.6753c6.6201,4.583,11.9087,10.6675,15.8711,18.2476
		c3.96,7.5825,5.9414,17.144,5.9414,28.6865c0,10.5244-1.8965,19.6348-5.6865,27.3291c-3.793,7.6968-8.856,14.0039-15.1924,18.9263
		c-6.3389,4.9229-13.6377,8.5723-21.897,10.9487c-8.2617,2.3765-16.8628,3.5645-25.8008,3.5645H0z M38.8716,37.6831v51.0933h7.4688
		c9.5054,0,16.8047-2.0586,21.897-6.1748s7.6382-10.8555,7.6382-20.2178c0-7.7817-2.5459-13.8423-7.6382-18.1865
		c-5.0923-4.3418-11.8823-6.5142-20.3696-6.5142H38.8716z"/>
	<path fill="#009BDA" d="M128.3257,62.8052c0-9.6172,1.6973-18.3032,5.0923-26.0557c3.3945-7.75,8.0625-14.3433,14.0039-19.7754
		c5.9409-5.4316,12.9854-9.6167,21.1328-12.561C176.7026,1.4717,185.5293,0,195.0352,0c9.5054,0,18.332,1.4717,26.48,4.4131
		c8.1475,2.9443,15.2188,7.1294,21.2178,12.561c5.9971,5.4321,10.6943,12.0254,14.0889,19.7754
		c3.395,7.7524,5.0923,16.4385,5.0923,26.0557c0,9.6196-1.6973,18.3906-5.0923,26.3105
		c-3.3945,7.9224-8.0918,14.6826-14.0889,20.2842c-5.999,5.6016-13.0703,9.9302-21.2178,12.9858
		c-8.1479,3.0552-16.9746,4.583-26.48,4.583c-9.5059,0-18.3325-1.5278-26.4805-4.583c-8.1475-3.0557-15.1919-7.3843-21.1328-12.9858
		c-5.9414-5.6016-10.6094-12.3618-14.0039-20.2842C130.0229,81.1958,128.3257,72.4248,128.3257,62.8052z M171.271,62.8052
		c0,3.9624,0.5938,7.583,1.7822,10.8638c1.188,3.2837,2.8271,6.1108,4.9224,8.4873c2.0928,2.3765,4.6099,4.2168,7.5537,5.5166
		c2.9414,1.3022,6.1108,1.9521,9.5059,1.9521c3.3945,0,6.5352-0.6499,9.4209-1.9521c2.8853-1.2998,5.4023-3.1401,7.5532-5.5166
		c2.1484-2.3765,3.8193-5.2036,5.0078-8.4873c1.188-3.2808,1.7822-6.9014,1.7822-10.8638c0-3.8457-0.5942-7.3838-1.7822-10.6089
		c-1.1885-3.2251-2.8594-5.9409-5.0078-8.1479c-2.1509-2.2065-4.668-3.9307-7.5532-5.1772
		c-2.8857-1.2437-6.0264-1.8672-9.4209-1.8672c-3.395,0-6.5645,0.6235-9.5059,1.8672c-2.9438,1.2466-5.4609,2.9707-7.5537,5.1772
		c-2.0952,2.207-3.7344,4.9229-4.9224,8.1479C171.8647,55.4214,171.271,58.9595,171.271,62.8052z"/>
	<path fill="#009BDA" d="M382.4321,126.6289c-9.5059,0-18.3057-1.4717-26.395-4.4131c-8.0923-2.9414-15.1074-7.1558-21.0483-12.646
		c-5.9414-5.4873-10.6094-12.1367-14.0039-19.9448c-3.395-7.8086-5.0923-16.521-5.0923-26.1406
		c0-9.6172,1.6973-18.3325,5.0923-26.1406c3.3945-7.8081,8.0337-14.4839,13.9189-20.0298
		c5.8828-5.5435,12.7866-9.8159,20.709-12.8159C363.5322,1.501,372.0195,0,381.0742,0c9.3916,0,18.3032,1.5278,26.7349,4.583
		c8.4287,3.0552,15.3032,7.2432,20.6235,12.561l-23.5942,28.3472c-2.4902-2.9414-5.4316-5.2886-8.8267-7.0444
		c-3.395-1.7529-7.583-2.6309-12.561-2.6309c-3.2837,0-6.4795,0.6523-9.5908,1.9521c-3.1138,1.3022-5.856,3.1694-8.2324,5.6016
		c-2.3765,2.4346-4.3018,5.3467-5.7715,8.7417c-1.4717,3.395-2.2065,7.1875-2.2065,11.373c0,8.3755,2.1777,15.1919,6.5352,20.4541
		c4.355,5.2622,11.3438,7.8931,20.9634,7.8931c1.6978,0,3.4507-0.1406,5.2622-0.4243c1.8086-0.2812,3.2251-0.7056,4.2437-1.2729
		v-9.1665h-19.3511V49.2256h55.167v65.6914c-2.8301,1.6973-6.084,3.2539-9.7603,4.668c-3.6787,1.416-7.583,2.6309-11.7124,3.6494
		c-4.1323,1.0186-8.4604,1.8379-12.9854,2.4609C391.4844,126.3164,386.957,126.6289,382.4321,126.6289z"/>
	<path fill="#009BDA" d="M450.6685,3.395h82.6655v33.6089h-44.6426v10.3545h41.9268v31.4028h-41.9268v11.2031h47.5283v33.6094
		h-85.5513V3.395z"/>
	<path fill="#009BDA" d="M547.5913,62.8052c0-9.6172,1.6973-18.3032,5.0928-26.0557c3.3945-7.75,8.0625-14.3433,14.0039-19.7754
		c5.9404-5.4316,12.9854-9.6167,21.1328-12.561C595.9683,1.4717,604.7954,0,614.3013,0c9.5049,0,18.332,1.4717,26.4795,4.4131
		c8.1475,2.9443,15.2188,7.1294,21.2178,12.561c5.9971,5.4321,10.6943,12.0254,14.0889,19.7754
		c3.3955,7.7524,5.0928,16.4385,5.0928,26.0557c0,9.6196-1.6973,18.3906-5.0928,26.3105
		c-3.3945,7.9224-8.0918,14.6826-14.0889,20.2842c-5.999,5.6016-13.0703,9.9302-21.2178,12.9858
		c-8.1475,3.0552-16.9746,4.583-26.4795,4.583c-9.5059,0-18.333-1.5278-26.4805-4.583
		c-8.1475-3.0557-15.1924-7.3843-21.1328-12.9858c-5.9414-5.6016-10.6094-12.3618-14.0039-20.2842
		C549.2886,81.1958,547.5913,72.4248,547.5913,62.8052z M590.5366,62.8052c0,3.9624,0.5938,7.583,1.7822,10.8638
		c1.1885,3.2837,2.8271,6.1108,4.9229,8.4873c2.0928,2.3765,4.6094,4.2168,7.5537,5.5166c2.9414,1.3022,6.1104,1.9521,9.5059,1.9521
		c3.3945,0,6.5352-0.6499,9.4209-1.9521c2.8848-1.2998,5.4023-3.1401,7.5527-5.5166c2.1484-2.3765,3.8193-5.2036,5.0078-8.4873
		c1.1885-3.2808,1.7822-6.9014,1.7822-10.8638c0-3.8457-0.5938-7.3838-1.7822-10.6089s-2.8594-5.9409-5.0078-8.1479
		c-2.1504-2.2065-4.668-3.9307-7.5527-5.1772c-2.8857-1.2437-6.0264-1.8672-9.4209-1.8672c-3.3955,0-6.5645,0.6235-9.5059,1.8672
		c-2.9443,1.2466-5.4609,2.9707-7.5537,5.1772c-2.0957,2.207-3.7344,4.9229-4.9229,8.1479S590.5366,58.9595,590.5366,62.8052z"/>
	<path fill="#009BDA" d="M759.2622,126.6289c-9.5059,0-18.3057-1.4717-26.3955-4.4131c-8.0918-2.9414-15.1074-7.1558-21.0479-12.646
		c-5.9414-5.4873-10.6094-12.1367-14.0039-19.9448c-3.3955-7.8086-5.0928-16.521-5.0928-26.1406
		c0-9.6172,1.6973-18.3325,5.0928-26.1406c3.3945-7.8081,8.0332-14.4839,13.9189-20.0298
		c5.8828-5.5435,12.7861-9.8159,20.709-12.8159C740.3618,1.501,748.8491,0,757.9038,0c9.3916,0,18.3037,1.5278,26.7354,4.583
		c8.4287,3.0552,15.3027,7.2432,20.623,12.561l-23.5938,28.3472c-2.4902-2.9414-5.4316-5.2886-8.8271-7.0444
		c-3.3945-1.7529-7.583-2.6309-12.5605-2.6309c-3.2842,0-6.4795,0.6523-9.5908,1.9521c-3.1143,1.3022-5.8564,3.1694-8.2324,5.6016
		c-2.377,2.4346-4.3018,5.3467-5.7715,8.7417c-1.4717,3.395-2.207,7.1875-2.207,11.373c0,8.3755,2.1777,15.1919,6.5352,20.4541
		c4.3555,5.2622,11.3438,7.8931,20.9639,7.8931c1.6973,0,3.4502-0.1406,5.2617-0.4243c1.8086-0.2812,3.2256-0.7056,4.2441-1.2729
		v-9.1665h-19.3516V49.2256h55.167v65.6914c-2.8301,1.6973-6.084,3.2539-9.7598,4.668c-3.6787,1.416-7.583,2.6309-11.7129,3.6494
		c-4.1318,1.0186-8.46,1.8379-12.9854,2.4609C768.314,126.3164,763.7866,126.6289,759.2622,126.6289z"/>
	<path fill="#009BDA" d="M827.4976,3.395H879.27c5.8828,0,11.7383,0.5938,17.5684,1.7822
		c5.8271,1.188,11.0332,3.2832,15.6162,6.2803c4.583,3,8.2881,7.0181,11.1182,12.0518c2.8271,5.0366,4.2441,11.3467,4.2441,18.9268
		c0,7.3574-1.8066,13.834-5.4189,19.4355s-8.8027,9.9302-15.5713,12.9854l30.4951,48.7168h-46.4062L867.894,80.6284h-1.1855v42.9453
		h-39.2109V3.395z M866.3696,54.1484h7.917c1.3467,0,2.835-0.1113,4.4629-0.3398c1.6289-0.2251,3.1436-0.7051,4.5469-1.4424
		c1.4023-0.7349,2.583-1.7534,3.5381-3.0557c0.9541-1.2993,1.4316-3.0264,1.4316-5.1772c0-2.1484-0.3955-3.8457-1.1797-5.0923
		c-0.7852-1.2437-1.7959-2.1772-3.0322-2.8008c-1.2354-0.6206-2.583-1.0186-4.042-1.188c-1.459-0.1699-2.8057-0.2549-4.042-0.2549
		h-9.6006V54.1484z"/>
	<path fill="#009BDA" d="M982.1323,3.395h42.9453l46.8496,120.1787h-43.9639l-6.2803-17.6533h-38.1924l-5.9414,17.6533h-42.7754
		L982.1323,3.395z M1003.0112,45.3218l-9.8457,29.7051h19.5205L1003.0112,45.3218z"/>
	<path fill="#009BDA" d="M1120.6421,84.8721v38.7017h-40.2295V3.395h51.6025c6.1104,0,12.1074,0.6523,17.9922,1.9517
		c5.8828,1.3022,11.1455,3.5093,15.7871,6.6201c4.6387,3.1138,8.373,7.2432,11.2031,12.3916
		c2.8271,5.1504,4.2432,11.6274,4.2432,19.4355c0,7.4688-1.3867,13.8076-4.1592,19.0112
		c-2.7734,5.2065-6.4502,9.4502-11.0332,12.731c-4.583,3.2837-9.8447,5.6597-15.7861,7.1294
		c-5.9404,1.4717-12.0254,2.2065-18.2471,2.2065H1120.6421z M1120.6421,34.7974v19.3511h8.4873
		c3.0557,0,5.8564-0.7642,8.4023-2.2915c2.5459-1.5278,3.8193-4.1006,3.8193-7.7236c0-1.9229-0.3398-3.4795-1.0186-4.668
		c-0.6787-1.188-1.6123-2.1216-2.8008-2.8008c-1.1885-0.6787-2.5195-1.1587-3.9893-1.4429
		c-1.4717-0.2808-2.9443-0.4243-4.4131-0.4243H1120.6421z"/>
	<path fill="#009BDA" d="M1269.8452,77.9126h-32.9297v45.6611h-40.3994V3.395h40.2295v40.7383h32.9307V3.395h40.5684v120.1787
		h-40.3994V77.9126z"/>
	<path fill="#009BDA" d="M1403.0933,123.5737h-40.3994V74.3477L1317.3716,3.395h48.7168l19.0117,35.3066l18.1621-35.3066h47.5283
		l-47.6973,70.9526V123.5737z"/>
	<path fill="#009BDA" d="M1484.7378,126.2891c-2.9434,0-5.6865-0.5376-8.2324-1.6118c-2.5459-1.0771-4.7822-2.5171-6.7051-4.3286
		c-1.9248-1.8091-3.4238-3.96-4.498-6.4502c-1.0771-2.4878-1.6123-5.2036-1.6123-8.1479c0-2.8271,0.5352-5.4873,1.6123-7.978
		c1.0742-2.4878,2.5732-4.668,4.498-6.5352c1.9229-1.8672,4.1592-3.3364,6.7051-4.4131c2.5459-1.0742,5.2891-1.6128,8.2324-1.6128
		c2.9414,0,5.6865,0.5386,8.2324,1.6128c2.5469,1.0767,4.7803,2.5459,6.7051,4.4131c1.9229,1.8672,3.4219,4.0474,4.498,6.5352
		c1.0742,2.4907,1.6133,5.1509,1.6133,7.978c0,2.9443-0.5391,5.6602-1.6133,8.1479c-1.0762,2.4902-2.5752,4.6411-4.498,6.4502
		c-1.9248,1.8115-4.1582,3.2515-6.7051,4.3286C1490.4243,125.7515,1487.6792,126.2891,1484.7378,126.2891z M1464.3687,3.395h40.7383
		v76.0454h-40.7383V3.395z"/>
</g>
<g>
	<path d="M7.0054,131.5801V11.4014h44.8125c9.5059,0,18.5869,0.9336,27.2441,2.8008c8.6567,1.8672,16.2954,5.0923,22.915,9.6753
		c6.6201,4.583,11.9087,10.6675,15.8711,18.2476c3.96,7.5825,5.9414,17.144,5.9414,28.6865c0,10.5244-1.8965,19.6348-5.6865,27.3291
		c-3.793,7.6968-8.856,14.0039-15.1924,18.9263c-6.3389,4.9229-13.6377,8.5723-21.897,10.9487
		c-8.2617,2.3765-16.8628,3.5645-25.8008,3.5645H7.0054z M45.877,45.6895v51.0933h7.4688c9.5054,0,16.8047-2.0586,21.897-6.1748
		s7.6382-10.8555,7.6382-20.2178c0-7.7817-2.5459-13.8423-7.6382-18.1865c-5.0923-4.3418-11.8823-6.5142-20.3696-6.5142H45.877z"/>
	<path d="M135.3311,70.8115c0-9.6172,1.6973-18.3032,5.0923-26.0557c3.3945-7.75,8.0625-14.3433,14.0039-19.7754
		c5.9409-5.4316,12.9854-9.6167,21.1328-12.561c8.1479-2.9414,16.9746-4.4131,26.4805-4.4131c9.5054,0,18.332,1.4717,26.48,4.4131
		c8.1475,2.9443,15.2188,7.1294,21.2178,12.561c5.9971,5.4321,10.6943,12.0254,14.0889,19.7754
		c3.395,7.7524,5.0923,16.4385,5.0923,26.0557c0,9.6196-1.6973,18.3906-5.0923,26.3105
		c-3.3945,7.9224-8.0918,14.6826-14.0889,20.2842c-5.999,5.6016-13.0703,9.9302-21.2178,12.9858
		c-8.1479,3.0552-16.9746,4.583-26.48,4.583c-9.5059,0-18.3325-1.5278-26.4805-4.583c-8.1475-3.0557-15.1919-7.3843-21.1328-12.9858
		c-5.9414-5.6016-10.6094-12.3618-14.0039-20.2842C137.0283,89.2021,135.3311,80.4312,135.3311,70.8115z M178.2764,70.8115
		c0,3.9624,0.5938,7.583,1.7822,10.8638c1.188,3.2837,2.8271,6.1108,4.9224,8.4873c2.0928,2.3765,4.6099,4.2168,7.5537,5.5166
		c2.9414,1.3022,6.1108,1.9521,9.5059,1.9521c3.3945,0,6.5352-0.6499,9.4209-1.9521c2.8853-1.2998,5.4023-3.1401,7.5532-5.5166
		c2.1484-2.3765,3.8193-5.2036,5.0078-8.4873c1.188-3.2808,1.7822-6.9014,1.7822-10.8638c0-3.8457-0.5942-7.3838-1.7822-10.6089
		c-1.1885-3.2251-2.8594-5.9409-5.0078-8.1479c-2.1509-2.2065-4.668-3.9307-7.5532-5.1772
		c-2.8857-1.2437-6.0264-1.8672-9.4209-1.8672c-3.395,0-6.5645,0.6235-9.5059,1.8672c-2.9438,1.2466-5.4609,2.9707-7.5537,5.1772
		c-2.0952,2.207-3.7344,4.9229-4.9224,8.1479C178.8701,63.4277,178.2764,66.9658,178.2764,70.8115z"/>
	<path d="M389.4375,134.6353c-9.5059,0-18.3057-1.4717-26.395-4.4131c-8.0923-2.9414-15.1074-7.1558-21.0483-12.646
		c-5.9414-5.4873-10.6094-12.1367-14.0039-19.9448c-3.395-7.8086-5.0923-16.521-5.0923-26.1406
		c0-9.6172,1.6973-18.3325,5.0923-26.1406c3.3945-7.8081,8.0337-14.4839,13.9189-20.0298
		c5.8828-5.5435,12.7866-9.8159,20.709-12.8159c7.9194-2.9971,16.4067-4.498,25.4614-4.498c9.3916,0,18.3032,1.5278,26.7349,4.583
		c8.4287,3.0552,15.3032,7.2432,20.6235,12.561l-23.5942,28.3472c-2.4902-2.9414-5.4316-5.2886-8.8267-7.0444
		c-3.395-1.7529-7.583-2.6309-12.561-2.6309c-3.2837,0-6.4795,0.6523-9.5908,1.9521c-3.1138,1.3022-5.856,3.1694-8.2324,5.6016
		c-2.3765,2.4346-4.3018,5.3467-5.7715,8.7417c-1.4717,3.395-2.2065,7.1875-2.2065,11.373c0,8.3755,2.1777,15.1919,6.5352,20.4541
		c4.355,5.2622,11.3438,7.8931,20.9634,7.8931c1.6978,0,3.4507-0.1406,5.2622-0.4243c1.8086-0.2812,3.2251-0.7056,4.2437-1.2729
		v-9.1665h-19.3511V57.2319h55.167v65.6914c-2.8301,1.6973-6.084,3.2539-9.7603,4.668c-3.6787,1.416-7.583,2.6309-11.7124,3.6494
		c-4.1323,1.0186-8.4604,1.8379-12.9854,2.4609C398.4897,134.3228,393.9624,134.6353,389.4375,134.6353z"/>
	<path d="M457.6738,11.4014h82.6655v33.6089h-44.6426v10.3545h41.9268v31.4028h-41.9268v11.2031h47.5283v33.6094h-85.5513V11.4014z"
		/>
	<path d="M554.5972,70.8115c0-9.6172,1.6973-18.3032,5.0928-26.0557c3.3945-7.75,8.0625-14.3433,14.0039-19.7754
		c5.9404-5.4316,12.9854-9.6167,21.1328-12.561c8.1475-2.9414,16.9746-4.4131,26.4805-4.4131c9.5049,0,18.332,1.4717,26.4795,4.4131
		c8.1475,2.9443,15.2188,7.1294,21.2178,12.561c5.9971,5.4321,10.6943,12.0254,14.0889,19.7754
		c3.3955,7.7524,5.0928,16.4385,5.0928,26.0557c0,9.6196-1.6973,18.3906-5.0928,26.3105
		c-3.3945,7.9224-8.0918,14.6826-14.0889,20.2842c-5.999,5.6016-13.0703,9.9302-21.2178,12.9858
		c-8.1475,3.0552-16.9746,4.583-26.4795,4.583c-9.5059,0-18.333-1.5278-26.4805-4.583
		c-8.1475-3.0557-15.1924-7.3843-21.1328-12.9858c-5.9414-5.6016-10.6094-12.3618-14.0039-20.2842
		C556.2944,89.2021,554.5972,80.4312,554.5972,70.8115z M597.5425,70.8115c0,3.9624,0.5938,7.583,1.7822,10.8638
		c1.1885,3.2837,2.8271,6.1108,4.9229,8.4873c2.0928,2.3765,4.6094,4.2168,7.5537,5.5166c2.9414,1.3022,6.1104,1.9521,9.5059,1.9521
		c3.3945,0,6.5352-0.6499,9.4209-1.9521c2.8848-1.2998,5.4023-3.1401,7.5527-5.5166c2.1484-2.3765,3.8193-5.2036,5.0078-8.4873
		c1.1885-3.2808,1.7822-6.9014,1.7822-10.8638c0-3.8457-0.5938-7.3838-1.7822-10.6089s-2.8594-5.9409-5.0078-8.1479
		c-2.1504-2.2065-4.668-3.9307-7.5527-5.1772c-2.8857-1.2437-6.0264-1.8672-9.4209-1.8672c-3.3955,0-6.5645,0.6235-9.5059,1.8672
		c-2.9443,1.2466-5.4609,2.9707-7.5537,5.1772c-2.0957,2.207-3.7344,4.9229-4.9229,8.1479S597.5425,66.9658,597.5425,70.8115z"/>
	<path d="M766.2681,134.6353c-9.5059,0-18.3057-1.4717-26.3955-4.4131c-8.0918-2.9414-15.1074-7.1558-21.0479-12.646
		c-5.9414-5.4873-10.6094-12.1367-14.0039-19.9448c-3.3955-7.8086-5.0928-16.521-5.0928-26.1406
		c0-9.6172,1.6973-18.3325,5.0928-26.1406c3.3945-7.8081,8.0332-14.4839,13.9189-20.0298
		c5.8828-5.5435,12.7861-9.8159,20.709-12.8159c7.9189-2.9971,16.4062-4.498,25.4609-4.498c9.3916,0,18.3037,1.5278,26.7354,4.583
		c8.4287,3.0552,15.3027,7.2432,20.623,12.561l-23.5938,28.3472c-2.4902-2.9414-5.4316-5.2886-8.8271-7.0444
		c-3.3945-1.7529-7.583-2.6309-12.5605-2.6309c-3.2842,0-6.4795,0.6523-9.5908,1.9521c-3.1143,1.3022-5.8564,3.1694-8.2324,5.6016
		c-2.377,2.4346-4.3018,5.3467-5.7715,8.7417c-1.4717,3.395-2.207,7.1875-2.207,11.373c0,8.3755,2.1777,15.1919,6.5352,20.4541
		c4.3555,5.2622,11.3438,7.8931,20.9639,7.8931c1.6973,0,3.4502-0.1406,5.2617-0.4243c1.8086-0.2812,3.2256-0.7056,4.2441-1.2729
		v-9.1665h-19.3516V57.2319h55.167v65.6914c-2.8301,1.6973-6.084,3.2539-9.7598,4.668c-3.6787,1.416-7.583,2.6309-11.7129,3.6494
		c-4.1318,1.0186-8.46,1.8379-12.9854,2.4609C775.3198,134.3228,770.7925,134.6353,766.2681,134.6353z"/>
	<path d="M834.5034,11.4014h51.7725c5.8828,0,11.7383,0.5938,17.5684,1.7822c5.8271,1.188,11.0332,3.2832,15.6162,6.2803
		c4.583,3,8.2881,7.0181,11.1182,12.0518c2.8271,5.0366,4.2441,11.3467,4.2441,18.9268c0,7.3574-1.8066,13.834-5.4189,19.4355
		s-8.8027,9.9302-15.5713,12.9854l30.4951,48.7168h-46.4062l-23.0215-42.9453h-1.1855v42.9453h-39.2109V11.4014z M873.3755,62.1548
		h7.917c1.3467,0,2.835-0.1113,4.4629-0.3398c1.6289-0.2251,3.1436-0.7051,4.5469-1.4424c1.4023-0.7349,2.583-1.7534,3.5381-3.0557
		c0.9541-1.2993,1.4316-3.0264,1.4316-5.1772c0-2.1484-0.3955-3.8457-1.1797-5.0923c-0.7852-1.2437-1.7959-2.1772-3.0322-2.8008
		c-1.2354-0.6206-2.583-1.0186-4.042-1.188c-1.459-0.1699-2.8057-0.2549-4.042-0.2549h-9.6006V62.1548z"/>
	<path d="M989.1382,11.4014h42.9453l46.8496,120.1787h-43.9639l-6.2803-17.6533h-38.1924l-5.9414,17.6533h-42.7754L989.1382,11.4014
		z M1010.0171,53.3281l-9.8457,29.7051h19.5205L1010.0171,53.3281z"/>
	<path d="M1127.6479,92.8784v38.7017h-40.2295V11.4014h51.6025c6.1104,0,12.1074,0.6523,17.9922,1.9517
		c5.8828,1.3022,11.1455,3.5093,15.7871,6.6201c4.6387,3.1138,8.373,7.2432,11.2031,12.3916
		c2.8271,5.1504,4.2432,11.6274,4.2432,19.4355c0,7.4688-1.3867,13.8076-4.1592,19.0112
		c-2.7734,5.2065-6.4502,9.4502-11.0332,12.731c-4.583,3.2837-9.8447,5.6597-15.7861,7.1294
		c-5.9404,1.4717-12.0254,2.2065-18.2471,2.2065H1127.6479z M1127.6479,42.8037v19.3511h8.4873
		c3.0557,0,5.8564-0.7642,8.4023-2.2915c2.5459-1.5278,3.8193-4.1006,3.8193-7.7236c0-1.9229-0.3398-3.4795-1.0186-4.668
		c-0.6787-1.188-1.6123-2.1216-2.8008-2.8008c-1.1885-0.6787-2.5195-1.1587-3.9893-1.4429
		c-1.4717-0.2808-2.9443-0.4243-4.4131-0.4243H1127.6479z"/>
	<path d="M1276.8511,85.9189h-32.9297v45.6611h-40.3994V11.4014h40.2295v40.7383h32.9307V11.4014h40.5684v120.1787h-40.3994V85.9189
		z"/>
	<path d="M1410.0991,131.5801h-40.3994V82.354l-45.3223-70.9526h48.7168l19.0117,35.3066l18.1621-35.3066h47.5283l-47.6973,70.9526
		V131.5801z"/>
	<path d="M1491.7437,134.2954c-2.9434,0-5.6865-0.5376-8.2324-1.6118c-2.5459-1.0771-4.7822-2.5171-6.7051-4.3286
		c-1.9248-1.8091-3.4238-3.96-4.498-6.4502c-1.0771-2.4878-1.6123-5.2036-1.6123-8.1479c0-2.8271,0.5352-5.4873,1.6123-7.978
		c1.0742-2.4878,2.5732-4.668,4.498-6.5352c1.9229-1.8672,4.1592-3.3364,6.7051-4.4131c2.5459-1.0742,5.2891-1.6128,8.2324-1.6128
		c2.9414,0,5.6865,0.5386,8.2324,1.6128c2.5469,1.0767,4.7803,2.5459,6.7051,4.4131c1.9229,1.8672,3.4219,4.0474,4.498,6.5352
		c1.0742,2.4907,1.6133,5.1509,1.6133,7.978c0,2.9443-0.5391,5.6602-1.6133,8.1479c-1.0762,2.4902-2.5752,4.6411-4.498,6.4502
		c-1.9248,1.8115-4.1582,3.2515-6.7051,4.3286C1497.4302,133.7578,1494.6851,134.2954,1491.7437,134.2954z M1471.3745,11.4014
		h40.7383v76.0454h-40.7383V11.4014z"/>
</g>
</svg>
