<?xml version="1.0" encoding="utf-8"?>
<!-- Generator: Adobe Illustrator 26.0.0, SVG Export Plug-In . SVG Version: 6.00 Build 0)  -->
<svg version="1.1" id="Layer_1" xmlns="http://www.w3.org/2000/svg" xmlns:xlink="http://www.w3.org/1999/xlink" x="0px" y="0px"
	 width="1456.9487px" height="134.9746px" viewBox="0 0 1456.9487 134.9746" enable-background="new 0 0 1456.9487 134.9746"
	 xml:space="preserve">
<g>
	<path fill="#DA0083" d="M69.9351,123.5732H29.5356V37.5127H0V3.3945h99.4702v34.1182H69.9351V123.5732z"/>
	<path fill="#DA0083" d="M111.8604,3.3945h51.772c5.8828,0,11.7388,0.5938,17.5684,1.7822
		c5.8271,1.1885,11.0337,3.2832,15.6167,6.2803c4.583,3,8.2881,7.0186,11.1182,12.0518c2.8271,5.0371,4.2437,11.3467,4.2437,18.9268
		c0,7.3574-1.8062,13.834-5.4185,19.4355s-8.8027,9.9307-15.5713,12.9854l30.4956,48.7168h-46.4067l-23.0215-42.9453h-1.1855
		v42.9453h-39.2109V3.3945z M150.7319,54.1484h7.917c1.3472,0,2.835-0.1113,4.4634-0.3398
		c1.6289-0.2256,3.1431-0.7051,4.5464-1.4424c1.4028-0.7354,2.583-1.7539,3.5381-3.0557c0.9546-1.2998,1.4321-3.0264,1.4321-5.1777
		c0-2.1484-0.3955-3.8457-1.1802-5.0918c-0.7852-1.2441-1.7959-2.1777-3.0317-2.8008c-1.2358-0.6211-2.5835-1.0186-4.042-1.1885
		c-1.459-0.1699-2.8062-0.2549-4.042-0.2549h-9.6011V54.1484z"/>
	<path fill="#DA0083" d="M233.0557,3.3945h40.7388v120.1787h-40.7388V3.3945z"/>
	<path fill="#DA0083" d="M282.2808,3.3945h45.6611l19.8599,74.3477h0.6792l19.0112-74.3477h45.6611l-43.4541,120.1787h-44.8125
		L282.2808,3.3945z"/>
	<path fill="#DA0083" d="M421.6401,3.3945h40.7388v120.1787h-40.7388V3.3945z"/>
	<path fill="#DA0083" d="M518.2236,3.3945h42.9453l46.8496,120.1787h-43.9639l-6.2803-17.6533h-38.1929l-5.9409,17.6533h-42.7754
		L518.2236,3.3945z M539.1025,45.3213l-9.8452,29.7051h19.5205L539.1025,45.3213z"/>
	<path fill="#DA0083" d="M732.9497,114.917c-3.623,3.1689-8.2324,5.7998-13.834,7.8926s-12.3066,3.1406-20.1147,3.1406
		c-5.7715,0-11.4873-0.6797-17.1445-2.0371c-5.6597-1.3584-10.7227-3.5068-15.1919-6.4502
		c-4.4717-2.9414-8.1211-6.79-10.9487-11.543c-2.8296-4.7529-4.2437-10.4658-4.2437-17.1436c0-3.8467,0.6206-7.4404,1.8672-10.7793
		c1.2441-3.3369,2.9126-6.3359,5.0078-8.9961c2.0923-2.6582,4.583-5.0342,7.4688-7.1299c2.8857-2.0918,5.9673-3.8193,9.251-5.1768
		c-3.2837-2.9414-6.0552-6.4766-8.3174-10.6094c-2.2651-4.1289-3.395-8.7969-3.395-14.0039c0-5.8828,1.3286-10.8633,3.9888-14.9375
		c2.6577-4.0732,6.082-7.3838,10.2695-9.9297c4.1855-2.5459,8.8271-4.3838,13.9194-5.5166C696.6245,0.5674,701.6025,0,706.4697,0
		c4.978,0,9.9297,0.5938,14.8525,1.7822c4.9224,1.1875,9.3623,3.084,13.3247,5.6865c3.96,2.6045,7.1851,5.9697,9.6753,10.0996
		c2.4883,4.1318,3.7344,9.1396,3.7344,15.0225c0,3.7344-0.623,7.1025-1.8672,10.0996c-1.2461,3-2.9438,5.7158-5.0923,8.1475
		c-2.1509,2.4346-4.6123,4.6416-7.3838,6.6201c-2.7739,1.9814-5.7446,3.8193-8.9116,5.5166l8.3179,7.8086l9.3354-13.4102h42.2666
		l-28.8564,35.1377l32.5908,31.0625h-47.189L732.9497,114.917z M696.2847,77.2334c-1.5859,0.5674-3.0845,1.5859-4.498,3.0557
		c-1.4165,1.4717-2.1216,3.5645-2.1216,6.2803c0,1.6973,0.3394,3.1133,1.0181,4.2432c0.6792,1.1328,1.5835,2.0957,2.7163,2.8857
		c1.1299,0.793,2.3765,1.3584,3.7344,1.6973c1.3579,0.3398,2.6572,0.5098,3.9038,0.5098c2.1484,0,4.1587-0.3398,6.0259-1.0186
		s3.252-1.5273,4.1587-2.5459L696.2847,77.2334z M706.8091,25.9707c-2.6045,0-4.5566,0.793-5.8564,2.376
		c-1.3022,1.5859-1.9517,3.3955-1.9517,5.4316c0,1.9258,0.5649,3.7344,1.6973,5.4326c1.1299,1.6973,2.6577,3.2832,4.583,4.7529
		c2.6021-1.0186,4.7529-2.4033,6.4502-4.1592c1.6978-1.7529,2.5464-3.7607,2.5464-6.0264c0-2.2617-0.6235-4.1289-1.8672-5.6016
		C711.1641,26.708,709.2969,25.9707,706.8091,25.9707z"/>
	<path fill="#DA0083" d="M881.1353,84.8721v38.7012h-40.2295V3.3945h51.6025c6.1104,0,12.1074,0.6523,17.9932,1.9521
		c5.8828,1.3018,11.1445,3.5088,15.7871,6.6201c4.6387,3.1133,8.373,7.2432,11.2031,12.3916
		c2.8262,5.1504,4.2422,11.627,4.2422,19.4355c0,7.4688-1.3867,13.8076-4.1582,19.0107c-2.7734,5.207-6.4512,9.4502-11.0332,12.7314
		c-4.584,3.2832-9.8457,5.6592-15.7871,7.1289c-5.9404,1.4717-12.0254,2.207-18.2471,2.207H881.1353z M881.1353,34.7969v19.3516
		h8.4873c3.0557,0,5.8564-0.7646,8.4023-2.292s3.8193-4.1006,3.8193-7.7236c0-1.9229-0.3398-3.4795-1.0186-4.668
		c-0.6787-1.1875-1.6123-2.1211-2.8008-2.8008c-1.1885-0.6787-2.5195-1.1582-3.9893-1.4424
		c-1.4717-0.2812-2.9434-0.4248-4.4131-0.4248H881.1353z"/>
	<path fill="#DA0083" d="M957.0093,3.3945h51.7725c5.8818,0,11.7383,0.5938,17.5684,1.7822
		c5.8271,1.1885,11.0332,3.2832,15.6162,6.2803c4.583,3,8.2881,7.0186,11.1182,12.0518c2.8271,5.0371,4.2441,11.3467,4.2441,18.9268
		c0,7.3574-1.8066,13.834-5.4189,19.4355s-8.8027,9.9307-15.5713,12.9854l30.4951,48.7168h-46.4062l-23.0215-42.9453h-1.1855
		v42.9453h-39.2109V3.3945z M995.8804,54.1484h7.917c1.3477,0,2.8359-0.1113,4.4639-0.3398
		c1.6289-0.2256,3.1436-0.7051,4.5459-1.4424c1.4033-0.7354,2.584-1.7539,3.5381-3.0557c0.9551-1.2998,1.4326-3.0264,1.4326-5.1777
		c0-2.1484-0.3955-3.8457-1.1807-5.0918c-0.7852-1.2441-1.7949-2.1777-3.0312-2.8008c-1.2363-0.6211-2.583-1.0186-4.042-1.1885
		s-2.8057-0.2549-4.042-0.2549h-9.6016V54.1484z"/>
	<path fill="#DA0083" d="M1078.2056,3.3945h40.7383v120.1787h-40.7383V3.3945z"/>
	<path fill="#DA0083" d="M1137.6147,89.7939l44.9824-52.96h-43.1152V3.3945h95.9053v29.1963L1187.52,89.1152h49.2256v34.458
		h-99.1309V89.7939z"/>
	<path fill="#DA0083" d="M1255.4165,3.3945h82.665v33.6094h-44.6426v10.3545h41.9268v31.4023h-41.9268v11.2031h47.5283v33.6094
		h-85.5508V3.3945z"/>
	<path fill="#DA0083" d="M1397.1528,126.9688c-4.8672,0-9.6494-0.4238-14.3438-1.2656c-4.6973-0.8457-9.2246-2.085-13.5791-3.7158
		c-4.3584-1.6338-8.4609-3.5459-12.3066-5.7422c-3.8486-2.1963-7.2988-4.6436-10.3545-7.3467l24.6133-26.7422
		c2.8271,3.0547,6.5908,5.7705,11.2881,8.1475c4.6943,2.376,9.5322,3.5645,14.5127,3.5645c2.2627,0,4.3281-0.3955,6.1953-1.1904
		c1.8672-0.793,2.8008-2.2676,2.8008-4.4219c0-1.1318-0.3125-2.0947-0.9336-2.8906c-0.623-0.793-1.7266-1.6152-3.3096-2.4639
		c-1.5859-0.8486-3.7637-1.7852-6.5352-2.8066c-2.7744-1.0186-6.2539-2.209-10.4395-3.5723
		c-4.0742-1.3584-7.9775-2.9736-11.7119-4.8457c-3.7344-1.8701-7.0449-4.167-9.9307-6.8877
		c-2.8857-2.7217-5.1768-5.9785-6.874-9.7764c-1.6982-3.7979-2.5469-8.3604-2.5469-13.6914c0-7.4785,1.5283-13.8281,4.583-19.043
		c3.0557-5.2139,6.9863-9.4951,11.7979-12.8389c4.8086-3.3447,10.2109-5.7529,16.21-7.2275
		C1392.2856,0.7373,1398.2271,0,1404.1118,0c7.9199,0,15.9824,1.5273,24.1885,4.583c8.2041,3.0547,15.418,7.4688,21.6426,13.2402
		l-25.1221,25.6309c-2.7158-3.3945-6.0547-5.9678-10.0146-7.7236c-3.9629-1.7529-7.5273-2.6309-10.6943-2.6309
		c-2.9434,0-5.3203,0.4248-7.1289,1.2734c-1.8115,0.8486-2.7158,2.2354-2.7158,4.1582c0,1.8115,0.9336,3.1699,2.8008,4.0742
		c1.8672,0.9072,4.8936,2.0371,9.0811,3.3945c4.2998,1.3584,8.8271,2.9443,13.5801,4.7529
		c4.7529,1.8115,9.1367,4.1592,13.1553,7.0449c4.0146,2.8857,7.3252,6.4238,9.9297,10.6084
		c2.6016,4.1885,3.9043,9.3945,3.9043,15.6172c0,7.2432-1.4434,13.5527-4.3291,18.9258c-2.8857,5.376-6.6777,9.8457-11.3721,13.4102
		c-4.6973,3.5645-9.9893,6.2246-15.8711,7.9775C1409.2603,126.0908,1403.2632,126.9688,1397.1528,126.9688z"/>
</g>
<g>
	<path d="M76.9404,131.5801H36.541V45.5195H7.0054V11.4014h99.4702v34.1182H76.9404V131.5801z"/>
	<path d="M118.8657,11.4014h51.772c5.8828,0,11.7388,0.5938,17.5684,1.7822c5.8271,1.1875,11.0337,3.2832,15.6167,6.2803
		c4.583,3,8.2881,7.0176,11.1182,12.0518c2.8271,5.0361,4.2437,11.3467,4.2437,18.9268c0,7.3574-1.8062,13.834-5.4185,19.4355
		s-8.8027,9.9297-15.5713,12.9854l30.4956,48.7168h-46.4067l-23.0215-42.9453h-1.1855v42.9453h-39.2109V11.4014z M157.7373,62.1543
		h7.917c1.3472,0,2.835-0.1113,4.4634-0.3398c1.6289-0.2246,3.1431-0.7051,4.5464-1.4424c1.4028-0.7344,2.583-1.7529,3.5381-3.0557
		c0.9546-1.2988,1.4321-3.0264,1.4321-5.1768c0-2.1484-0.3955-3.8457-1.1802-5.0928c-0.7852-1.2432-1.7959-2.1768-3.0317-2.8008
		c-1.2358-0.6201-2.5835-1.0186-4.042-1.1875c-1.459-0.1699-2.8062-0.2549-4.042-0.2549h-9.6011V62.1543z"/>
	<path d="M240.061,11.4014h40.7388v120.1787H240.061V11.4014z"/>
	<path d="M289.2861,11.4014h45.6611l19.8599,74.3477h0.6792l19.0112-74.3477h45.6611l-43.4541,120.1787h-44.8125L289.2861,11.4014z"
		/>
	<path d="M428.6455,11.4014h40.7388v120.1787h-40.7388V11.4014z"/>
	<path d="M525.229,11.4014h42.9453l46.8496,120.1787h-43.9639l-6.2803-17.6533h-38.1929l-5.9409,17.6533h-42.7754L525.229,11.4014z
		 M546.1079,53.3281l-9.8452,29.7051h19.5205L546.1079,53.3281z"/>
	<path d="M739.9551,122.9229c-3.623,3.1699-8.2324,5.8008-13.834,7.8936c-5.6016,2.0918-12.3066,3.1396-20.1147,3.1396
		c-5.7715,0-11.4873-0.6787-17.1445-2.0371c-5.6597-1.3574-10.7227-3.5059-15.1919-6.4502
		c-4.4717-2.9414-8.1211-6.7891-10.9487-11.542c-2.8296-4.7529-4.2437-10.4658-4.2437-17.1445
		c0-3.8457,0.6206-7.4395,1.8672-10.7783c1.2441-3.3369,2.9126-6.3369,5.0078-8.9971c2.0923-2.6572,4.583-5.0342,7.4688-7.1289
		c2.8857-2.0928,5.9673-3.8193,9.251-5.1777c-3.2837-2.9414-6.0552-6.4766-8.3174-10.6084
		c-2.2651-4.1299-3.395-8.7979-3.395-14.0039c0-5.8828,1.3286-10.8643,3.9888-14.9375c2.6577-4.0742,6.082-7.3838,10.2695-9.9307
		c4.1855-2.5459,8.8271-4.3838,13.9194-5.5166c5.0923-1.1299,10.0703-1.6973,14.9375-1.6973c4.978,0,9.9297,0.5947,14.8525,1.7822
		c4.9224,1.1885,9.3623,3.085,13.3247,5.6865c3.96,2.6045,7.1851,5.9707,9.6753,10.0996c2.4883,4.1328,3.7344,9.1396,3.7344,15.0225
		c0,3.7344-0.623,7.1025-1.8672,10.0996c-1.2461,3-2.9438,5.7158-5.0923,8.1484c-2.1509,2.4346-4.6123,4.6416-7.3838,6.6201
		c-2.7739,1.9805-5.7446,3.8184-8.9116,5.5166l8.3179,7.8076l9.3354-13.4092h42.2666l-28.8564,35.1367l32.5908,31.0635h-47.189
		L739.9551,122.9229z M703.29,85.2393c-1.5859,0.5684-3.0845,1.5869-4.498,3.0557c-1.4165,1.4717-2.1216,3.5645-2.1216,6.2803
		c0,1.6982,0.3394,3.1143,1.0181,4.2441c0.6792,1.1328,1.5835,2.0947,2.7163,2.8857c1.1299,0.793,2.3765,1.3574,3.7344,1.6973
		s2.6572,0.5088,3.9038,0.5088c2.1484,0,4.1587-0.3389,6.0259-1.0186c1.8672-0.6787,3.252-1.5273,4.1587-2.5459L703.29,85.2393z
		 M713.8145,33.9766c-2.6045,0-4.5566,0.793-5.8564,2.377c-1.3022,1.5859-1.9517,3.3945-1.9517,5.4316
		c0,1.9258,0.5649,3.7344,1.6973,5.4316c1.1299,1.6973,2.6577,3.2832,4.583,4.7529c2.6021-1.0186,4.7529-2.4033,6.4502-4.1592
		c1.6978-1.7529,2.5464-3.7607,2.5464-6.0254c0-2.2627-0.6235-4.1299-1.8672-5.6016
		C718.1694,34.7139,716.3022,33.9766,713.8145,33.9766z"/>
	<path d="M888.1411,92.8779v38.7021h-40.2295V11.4014h51.6025c6.1104,0,12.1074,0.6523,17.9932,1.9512
		c5.8828,1.3027,11.1445,3.5098,15.7871,6.6201c4.6387,3.1143,8.373,7.2432,11.2031,12.3916
		c2.8262,5.1504,4.2422,11.6279,4.2422,19.4355c0,7.4688-1.3867,13.8076-4.1582,19.0117
		c-2.7734,5.2061-6.4512,9.4502-11.0332,12.7305c-4.584,3.2842-9.8457,5.6602-15.7871,7.1299
		c-5.9404,1.4717-12.0254,2.2061-18.2471,2.2061H888.1411z M888.1411,42.8037v19.3506h8.4873c3.0557,0,5.8564-0.7637,8.4023-2.291
		c2.5459-1.5283,3.8193-4.1006,3.8193-7.7236c0-1.9229-0.3398-3.4795-1.0186-4.668s-1.6123-2.1221-2.8008-2.8008
		s-2.5195-1.1592-3.9893-1.4434c-1.4717-0.2803-2.9434-0.4238-4.4131-0.4238H888.1411z"/>
	<path d="M964.0151,11.4014h51.7725c5.8818,0,11.7383,0.5938,17.5684,1.7822c5.8271,1.1875,11.0332,3.2832,15.6162,6.2803
		c4.583,3,8.2881,7.0176,11.1182,12.0518c2.8271,5.0361,4.2441,11.3467,4.2441,18.9268c0,7.3574-1.8066,13.834-5.4189,19.4355
		s-8.8027,9.9297-15.5713,12.9854l30.4951,48.7168h-46.4062l-23.0215-42.9453h-1.1855v42.9453h-39.2109V11.4014z M1002.8862,62.1543
		h7.917c1.3477,0,2.8359-0.1113,4.4639-0.3398c1.6289-0.2246,3.1436-0.7051,4.5459-1.4424c1.4033-0.7344,2.584-1.7529,3.5381-3.0557
		c0.9551-1.2988,1.4326-3.0264,1.4326-5.1768c0-2.1484-0.3955-3.8457-1.1807-5.0928c-0.7852-1.2432-1.7949-2.1768-3.0312-2.8008
		c-1.2363-0.6201-2.583-1.0186-4.042-1.1875c-1.459-0.1699-2.8057-0.2549-4.042-0.2549h-9.6016V62.1543z"/>
	<path d="M1085.2114,11.4014h40.7383v120.1787h-40.7383V11.4014z"/>
	<path d="M1144.6206,97.8008l44.9824-52.96h-43.1152V11.4014h95.9053v29.1953l-47.8672,56.5254h49.2256v34.458h-99.1309V97.8008z"/>
	<path d="M1262.4224,11.4014h82.665v33.6084h-44.6426v10.3545h41.9268v31.4033h-41.9268v11.2031h47.5283v33.6094h-85.5508V11.4014z"
		/>
	<path d="M1404.1587,134.9746c-4.8672,0-9.6494-0.4238-14.3438-1.2646c-4.6973-0.8467-9.2246-2.085-13.5791-3.7158
		c-4.3584-1.6338-8.4609-3.5469-12.3066-5.7422c-3.8486-2.1963-7.2988-4.6445-10.3545-7.3467l24.6133-26.7432
		c2.8271,3.0557,6.5908,5.7715,11.2881,8.1475c4.6943,2.377,9.5322,3.5654,14.5127,3.5654c2.2627,0,4.3281-0.3955,6.1953-1.1914
		c1.8672-0.793,2.8008-2.2676,2.8008-4.4209c0-1.1328-0.3125-2.0957-0.9336-2.8916c-0.623-0.793-1.7266-1.6152-3.3096-2.4639
		c-1.5859-0.8486-3.7637-1.7852-6.5352-2.8057c-2.7744-1.0186-6.2539-2.209-10.4395-3.5723
		c-4.0742-1.3584-7.9775-2.9736-11.7119-4.8457c-3.7344-1.8701-7.0449-4.167-9.9307-6.8887
		c-2.8857-2.7207-5.1768-5.9775-6.874-9.7754c-1.6982-3.7988-2.5469-8.3604-2.5469-13.6914c0-7.4795,1.5283-13.8291,4.583-19.043
		c3.0557-5.2148,6.9863-9.4951,11.7979-12.8398c4.8086-3.3447,10.2109-5.7529,16.21-7.2275
		c5.9971-1.4746,11.9385-2.2119,17.8232-2.2119c7.9199,0,15.9824,1.5283,24.1885,4.583c8.2041,3.0557,15.418,7.4688,21.6426,13.2402
		l-25.1221,25.6318c-2.7158-3.3955-6.0547-5.9678-10.0146-7.7236c-3.9629-1.7529-7.5273-2.6309-10.6943-2.6309
		c-2.9434,0-5.3203,0.4238-7.1289,1.2725c-1.8115,0.8486-2.7158,2.2363-2.7158,4.1592c0,1.8115,0.9336,3.1689,2.8008,4.0732
		c1.8672,0.9072,4.8936,2.0371,9.0811,3.3955c4.2998,1.3574,8.8271,2.9443,13.5801,4.7529
		c4.7529,1.8115,9.1367,4.1582,13.1553,7.0439c4.0146,2.8857,7.3252,6.4238,9.9297,10.6094
		c2.6016,4.1875,3.9043,9.3945,3.9043,15.6162c0,7.2432-1.4434,13.5527-4.3291,18.9268c-2.8857,5.376-6.6777,9.8447-11.3721,13.4092
		c-4.6973,3.5654-9.9893,6.2256-15.8711,7.9785C1416.2661,134.0967,1410.269,134.9746,1404.1587,134.9746z"/>
</g>
</svg>
