<?xml version="1.0" encoding="utf-8"?>
<!-- Generator: Adobe Illustrator 26.0.0, SVG Export Plug-In . SVG Version: 6.00 Build 0)  -->
<svg version="1.1" id="Layer_1" xmlns="http://www.w3.org/2000/svg" xmlns:xlink="http://www.w3.org/1999/xlink" x="0px" y="0px"
	 width="1611.7549px" height="134.9746px" viewBox="0 0 1611.7549 134.9746" enable-background="new 0 0 1611.7549 134.9746"
	 xml:space="preserve">
<g>
	<path fill="#009BDA" d="M66.5396,126.6289c-9.5059,0-18.3057-1.4717-26.395-4.4131c-8.0923-2.9414-15.1074-7.1558-21.0483-12.646
		C13.1548,104.0825,8.4868,97.4331,5.0923,89.625C1.6973,81.8164,0,73.104,0,63.4844c0-9.6172,1.6973-18.3325,5.0923-26.1406
		c3.3945-7.8081,8.0337-14.4839,13.9189-20.0298C24.894,11.7705,31.7979,7.498,39.7202,4.498C47.6396,1.501,56.127,0,65.1816,0
		c9.3916,0,18.3032,1.5278,26.7349,4.583c8.4287,3.0552,15.3032,7.2432,20.6235,12.561L88.9458,45.4912
		c-2.4902-2.9414-5.4316-5.2886-8.8267-7.0444c-3.395-1.7529-7.583-2.6309-12.561-2.6309c-3.2837,0-6.4795,0.6523-9.5908,1.9521
		c-3.1138,1.3022-5.856,3.1694-8.2324,5.6016c-2.3765,2.4346-4.3018,5.3467-5.7715,8.7417
		c-1.4717,3.395-2.2065,7.1875-2.2065,11.373c0,8.3755,2.1777,15.1919,6.5352,20.4541c4.355,5.2622,11.3438,7.8931,20.9634,7.8931
		c1.6978,0,3.4507-0.1406,5.2622-0.4243c1.8086-0.2812,3.2251-0.7056,4.2437-1.2729v-9.1665H59.4102V49.2256h55.167v65.6914
		c-2.8301,1.6973-6.084,3.2539-9.7603,4.668c-3.6787,1.416-7.583,2.6309-11.7124,3.6494
		c-4.1323,1.0186-8.4604,1.8379-12.9854,2.4609C75.5918,126.3164,71.0645,126.6289,66.5396,126.6289z"/>
	<path fill="#009BDA" d="M134.7759,3.395h82.6655v33.6089h-44.6426v10.3545h41.9268v31.4028h-41.9268v11.2031h47.5283v33.6094
		h-85.5513V3.395z"/>
	<path fill="#009BDA" d="M231.6992,62.8052c0-9.6172,1.6973-18.3032,5.0923-26.0557c3.3945-7.75,8.0625-14.3433,14.0039-19.7754
		c5.9409-5.4316,12.9854-9.6167,21.1328-12.561C280.0762,1.4717,288.9028,0,298.4087,0c9.5054,0,18.332,1.4717,26.48,4.4131
		c8.1475,2.9443,15.2188,7.1294,21.2178,12.561c5.9971,5.4321,10.6943,12.0254,14.0889,19.7754
		c3.395,7.7524,5.0923,16.4385,5.0923,26.0557c0,9.6196-1.6973,18.3906-5.0923,26.3105
		c-3.3945,7.9224-8.0918,14.6826-14.0889,20.2842c-5.999,5.6016-13.0703,9.9302-21.2178,12.9858
		c-8.1479,3.0552-16.9746,4.583-26.48,4.583c-9.5059,0-18.3325-1.5278-26.4805-4.583c-8.1475-3.0557-15.1919-7.3843-21.1328-12.9858
		c-5.9414-5.6016-10.6094-12.3618-14.0039-20.2842C233.3965,81.1958,231.6992,72.4248,231.6992,62.8052z M274.6445,62.8052
		c0,3.9624,0.5938,7.583,1.7822,10.8638c1.188,3.2837,2.8271,6.1108,4.9224,8.4873c2.0928,2.3765,4.6099,4.2168,7.5537,5.5166
		c2.9414,1.3022,6.1108,1.9521,9.5059,1.9521c3.3945,0,6.5352-0.6499,9.4209-1.9521c2.8853-1.2998,5.4023-3.1401,7.5532-5.5166
		c2.1484-2.3765,3.8193-5.2036,5.0078-8.4873c1.188-3.2808,1.7822-6.9014,1.7822-10.8638c0-3.8457-0.5942-7.3838-1.7822-10.6089
		c-1.1885-3.2251-2.8594-5.9409-5.0078-8.1479c-2.1509-2.2065-4.668-3.9307-7.5532-5.1772
		c-2.8857-1.2437-6.0264-1.8672-9.4209-1.8672c-3.395,0-6.5645,0.6235-9.5059,1.8672c-2.9438,1.2466-5.4609,2.9707-7.5537,5.1772
		c-2.0952,2.207-3.7344,4.9229-4.9224,8.1479C275.2383,55.4214,274.6445,58.9595,274.6445,62.8052z"/>
	<path fill="#009BDA" d="M443.3696,126.6289c-9.5059,0-18.3057-1.4717-26.395-4.4131c-8.0923-2.9414-15.1074-7.1558-21.0483-12.646
		c-5.9414-5.4873-10.6094-12.1367-14.0039-19.9448c-3.395-7.8086-5.0923-16.521-5.0923-26.1406
		c0-9.6172,1.6973-18.3325,5.0923-26.1406c3.3945-7.8081,8.0337-14.4839,13.9189-20.0298
		c5.8828-5.5435,12.7866-9.8159,20.709-12.8159C424.4697,1.501,432.957,0,442.0117,0c9.3916,0,18.3032,1.5278,26.7349,4.583
		c8.4287,3.0552,15.3032,7.2432,20.6235,12.561l-23.5942,28.3472c-2.4902-2.9414-5.4316-5.2886-8.8267-7.0444
		c-3.395-1.7529-7.583-2.6309-12.561-2.6309c-3.2837,0-6.4795,0.6523-9.5908,1.9521c-3.1138,1.3022-5.856,3.1694-8.2324,5.6016
		c-2.3765,2.4346-4.3018,5.3467-5.7715,8.7417c-1.4717,3.395-2.2065,7.1875-2.2065,11.373c0,8.3755,2.1777,15.1919,6.5352,20.4541
		c4.355,5.2622,11.3438,7.8931,20.9634,7.8931c1.6978,0,3.4507-0.1406,5.2622-0.4243c1.8086-0.2812,3.2251-0.7056,4.2437-1.2729
		v-9.1665h-19.3511V49.2256h55.167v65.6914c-2.8301,1.6973-6.084,3.2539-9.7603,4.668c-3.6787,1.416-7.583,2.6309-11.7124,3.6494
		c-4.1323,1.0186-8.4604,1.8379-12.9854,2.4609C452.4219,126.3164,447.8945,126.6289,443.3696,126.6289z"/>
	<path fill="#009BDA" d="M511.6055,3.395h51.772c5.8828,0,11.7388,0.5938,17.5684,1.7822
		c5.8271,1.188,11.0337,3.2832,15.6167,6.2803c4.583,3,8.2881,7.0181,11.1182,12.0518c2.8271,5.0366,4.2437,11.3467,4.2437,18.9268
		c0,7.3574-1.8062,13.834-5.4185,19.4355s-8.8027,9.9302-15.5713,12.9854l30.4956,48.7168h-46.4067L552.002,80.6284h-1.1855v42.9453
		h-39.2109V3.395z M550.4771,54.1484h7.917c1.3472,0,2.835-0.1113,4.4634-0.3398c1.6289-0.2251,3.1431-0.7051,4.5464-1.4424
		c1.4028-0.7349,2.583-1.7534,3.5381-3.0557c0.9546-1.2993,1.4321-3.0264,1.4321-5.1772c0-2.1484-0.3955-3.8457-1.1802-5.0923
		c-0.7852-1.2437-1.7959-2.1772-3.0317-2.8008c-1.2358-0.6206-2.5835-1.0186-4.042-1.188c-1.459-0.1699-2.8062-0.2549-4.042-0.2549
		h-9.6011V54.1484z"/>
	<path fill="#009BDA" d="M666.2407,3.395h42.9453l46.8496,120.1787h-43.9639l-6.2803-17.6533h-38.1929l-5.9409,17.6533h-42.7754
		L666.2407,3.395z M687.1196,45.3218l-9.8452,29.7051h19.5205L687.1196,45.3218z"/>
	<path fill="#009BDA" d="M804.75,84.8721v38.7017h-40.2295V3.395h51.6021c6.1108,0,12.1079,0.6523,17.9927,1.9517
		c5.8828,1.3022,11.1445,3.5093,15.7861,6.6201c4.6387,3.1138,8.373,7.2432,11.2031,12.3916
		c2.8271,5.1504,4.2441,11.6274,4.2441,19.4355c0,7.4688-1.3877,13.8076-4.1592,19.0112
		c-2.7744,5.2065-6.4502,9.4502-11.0332,12.731c-4.583,3.2837-9.8447,5.6597-15.7861,7.1294
		c-5.9414,1.4717-12.0254,2.2065-18.2476,2.2065H804.75z M804.75,34.7974v19.3511h8.4873c3.0552,0,5.856-0.7642,8.4023-2.2915
		c2.5459-1.5278,3.8184-4.1006,3.8184-7.7236c0-1.9229-0.3389-3.4795-1.0176-4.668c-0.6797-1.188-1.6128-2.1216-2.8008-2.8008
		c-1.1885-0.6787-2.52-1.1587-3.9893-1.4429c-1.4722-0.2808-2.9438-0.4243-4.4131-0.4243H804.75z"/>
	<path fill="#009BDA" d="M953.9531,77.9126h-32.9297v45.6611H880.623V3.395h40.2305v40.7383h32.9297V3.395h40.5684v120.1787
		h-40.3984V77.9126z"/>
	<path fill="#009BDA" d="M1087.2002,123.5737h-40.3994V74.3477L1001.4785,3.395h48.7168l19.0117,35.3066l18.1621-35.3066h47.5283
		l-47.6973,70.9526V123.5737z"/>
	<path fill="#009BDA" d="M1180.3906,123.5737V3.395h44.8125c9.5059,0,18.5869,0.9336,27.2441,2.8008s16.2949,5.0923,22.915,9.6753
		s11.9092,10.6675,15.8711,18.2476c3.96,7.5825,5.9414,17.144,5.9414,28.6865c0,10.5244-1.8965,19.6348-5.6865,27.3291
		c-3.793,7.6968-8.8555,14.0039-15.1924,18.9263c-6.3389,4.9229-13.6377,8.5723-21.8965,10.9487
		c-8.2617,2.3765-16.8633,3.5645-25.8018,3.5645H1180.3906z M1219.2617,37.6831v51.0933h7.4688
		c9.5059,0,16.8047-2.0586,21.8975-6.1748c5.0918-4.1162,7.6387-10.8555,7.6387-20.2178c0-7.7817-2.5469-13.8423-7.6387-18.1865
		c-5.0928-4.3418-11.8818-6.5142-20.3691-6.5142H1219.2617z"/>
	<path fill="#009BDA" d="M1343.5156,3.395h42.9453l46.8496,120.1787h-43.9639l-6.2803-17.6533h-38.1924l-5.9414,17.6533h-42.7754
		L1343.5156,3.395z M1364.3945,45.3218l-9.8457,29.7051h19.5205L1364.3945,45.3218z"/>
	<path fill="#009BDA" d="M1502.0557,123.5737h-40.3994V74.3477L1416.334,3.395h48.7168l19.0117,35.3066l18.1621-35.3066h47.5283
		l-47.6973,70.9526V123.5737z"/>
	<path fill="#009BDA" d="M1583.7002,126.2891c-2.9434,0-5.6865-0.5376-8.2324-1.6118c-2.5459-1.0771-4.7822-2.5171-6.7051-4.3286
		c-1.9248-1.8091-3.4238-3.96-4.498-6.4502c-1.0771-2.4878-1.6123-5.2036-1.6123-8.1479c0-2.8271,0.5352-5.4873,1.6123-7.978
		c1.0742-2.4878,2.5732-4.668,4.498-6.5352c1.9229-1.8672,4.1592-3.3364,6.7051-4.4131c2.5459-1.0742,5.2891-1.6128,8.2324-1.6128
		c2.9414,0,5.6865,0.5386,8.2324,1.6128c2.5469,1.0767,4.7803,2.5459,6.7051,4.4131c1.9229,1.8672,3.4219,4.0474,4.498,6.5352
		c1.0742,2.4907,1.6133,5.1509,1.6133,7.978c0,2.9443-0.5391,5.6602-1.6133,8.1479c-1.0762,2.4902-2.5752,4.6411-4.498,6.4502
		c-1.9248,1.8115-4.1582,3.2515-6.7051,4.3286C1589.3867,125.7515,1586.6416,126.2891,1583.7002,126.2891z M1563.3311,3.395h40.7383
		v76.0454h-40.7383V3.395z"/>
</g>
<g>
	<path d="M73.5449,134.6348c-9.5059,0-18.3057-1.4717-26.395-4.4131c-8.0923-2.9414-15.1074-7.1558-21.0483-12.646
		c-5.9414-5.4873-10.6094-12.1367-14.0039-19.9448c-3.395-7.8086-5.0923-16.521-5.0923-26.1406
		c0-9.6172,1.6973-18.3325,5.0923-26.1406c3.3945-7.8081,8.0337-14.4839,13.9189-20.0298
		c5.8828-5.5435,12.7866-9.8159,20.709-12.8159c7.9194-2.9971,16.4067-4.498,25.4614-4.498c9.3916,0,18.3032,1.5278,26.7349,4.583
		c8.4287,3.0552,15.3032,7.2432,20.6235,12.561L95.9512,53.4971c-2.4902-2.9414-5.4316-5.2886-8.8267-7.0444
		c-3.395-1.7529-7.583-2.6309-12.561-2.6309c-3.2837,0-6.4795,0.6523-9.5908,1.9521c-3.1138,1.3022-5.856,3.1694-8.2324,5.6016
		c-2.3765,2.4346-4.3018,5.3467-5.7715,8.7417c-1.4717,3.395-2.2065,7.1875-2.2065,11.373c0,8.3755,2.1777,15.1919,6.5352,20.4541
		c4.355,5.2622,11.3438,7.8931,20.9634,7.8931c1.6978,0,3.4507-0.1406,5.2622-0.4243c1.8086-0.2812,3.2251-0.7056,4.2437-1.2729
		v-9.1665H66.4155V57.2314h55.167v65.6914c-2.8301,1.6973-6.084,3.2539-9.7603,4.668c-3.6787,1.416-7.583,2.6309-11.7124,3.6494
		c-4.1323,1.0186-8.4604,1.8379-12.9854,2.4609C82.5972,134.3223,78.0698,134.6348,73.5449,134.6348z"/>
	<path d="M141.7812,11.4009h82.6655v33.6089h-44.6426v10.3545h41.9268v31.4028h-41.9268v11.2031h47.5283v33.6094h-85.5513V11.4009z"
		/>
	<path d="M238.7046,70.811c0-9.6172,1.6973-18.3032,5.0923-26.0557c3.3945-7.75,8.0625-14.3433,14.0039-19.7754
		c5.9409-5.4316,12.9854-9.6167,21.1328-12.561c8.1479-2.9414,16.9746-4.4131,26.4805-4.4131c9.5054,0,18.332,1.4717,26.48,4.4131
		c8.1475,2.9443,15.2188,7.1294,21.2178,12.561c5.9971,5.4321,10.6943,12.0254,14.0889,19.7754
		c3.395,7.7524,5.0923,16.4385,5.0923,26.0557c0,9.6196-1.6973,18.3906-5.0923,26.3105
		c-3.3945,7.9224-8.0918,14.6826-14.0889,20.2842c-5.999,5.6016-13.0703,9.9302-21.2178,12.9858
		c-8.1479,3.0552-16.9746,4.583-26.48,4.583c-9.5059,0-18.3325-1.5278-26.4805-4.583c-8.1475-3.0557-15.1919-7.3843-21.1328-12.9858
		c-5.9414-5.6016-10.6094-12.3618-14.0039-20.2842C240.4019,89.2017,238.7046,80.4307,238.7046,70.811z M281.6499,70.811
		c0,3.9624,0.5938,7.583,1.7822,10.8638c1.188,3.2837,2.8271,6.1108,4.9224,8.4873c2.0928,2.3765,4.6099,4.2168,7.5537,5.5166
		c2.9414,1.3022,6.1108,1.9521,9.5059,1.9521c3.3945,0,6.5352-0.6499,9.4209-1.9521c2.8853-1.2998,5.4023-3.1401,7.5532-5.5166
		c2.1484-2.3765,3.8193-5.2036,5.0078-8.4873c1.188-3.2808,1.7822-6.9014,1.7822-10.8638c0-3.8457-0.5942-7.3838-1.7822-10.6089
		c-1.1885-3.2251-2.8594-5.9409-5.0078-8.1479c-2.1509-2.2065-4.668-3.9307-7.5532-5.1772
		c-2.8857-1.2437-6.0264-1.8672-9.4209-1.8672c-3.395,0-6.5645,0.6235-9.5059,1.8672c-2.9438,1.2466-5.4609,2.9707-7.5537,5.1772
		c-2.0952,2.207-3.7344,4.9229-4.9224,8.1479C282.2437,63.4272,281.6499,66.9653,281.6499,70.811z"/>
	<path d="M450.375,134.6348c-9.5059,0-18.3057-1.4717-26.395-4.4131c-8.0923-2.9414-15.1074-7.1558-21.0483-12.646
		c-5.9414-5.4873-10.6094-12.1367-14.0039-19.9448c-3.395-7.8086-5.0923-16.521-5.0923-26.1406
		c0-9.6172,1.6973-18.3325,5.0923-26.1406c3.3945-7.8081,8.0337-14.4839,13.9189-20.0298
		c5.8828-5.5435,12.7866-9.8159,20.709-12.8159c7.9194-2.9971,16.4067-4.498,25.4614-4.498c9.3916,0,18.3032,1.5278,26.7349,4.583
		c8.4287,3.0552,15.3032,7.2432,20.6235,12.561l-23.5942,28.3472c-2.4902-2.9414-5.4316-5.2886-8.8267-7.0444
		c-3.395-1.7529-7.583-2.6309-12.561-2.6309c-3.2837,0-6.4795,0.6523-9.5908,1.9521c-3.1138,1.3022-5.856,3.1694-8.2324,5.6016
		c-2.3765,2.4346-4.3018,5.3467-5.7715,8.7417c-1.4717,3.395-2.2065,7.1875-2.2065,11.373c0,8.3755,2.1777,15.1919,6.5352,20.4541
		c4.355,5.2622,11.3438,7.8931,20.9634,7.8931c1.6978,0,3.4507-0.1406,5.2622-0.4243c1.8086-0.2812,3.2251-0.7056,4.2437-1.2729
		v-9.1665h-19.3511V57.2314h55.167v65.6914c-2.8301,1.6973-6.084,3.2539-9.7603,4.668c-3.6787,1.416-7.583,2.6309-11.7124,3.6494
		c-4.1323,1.0186-8.4604,1.8379-12.9854,2.4609C459.4272,134.3223,454.8999,134.6348,450.375,134.6348z"/>
	<path d="M518.6108,11.4009h51.772c5.8828,0,11.7388,0.5938,17.5684,1.7822c5.8271,1.188,11.0337,3.2832,15.6167,6.2803
		c4.583,3,8.2881,7.0181,11.1182,12.0518c2.8271,5.0366,4.2437,11.3467,4.2437,18.9268c0,7.3574-1.8062,13.834-5.4185,19.4355
		s-8.8027,9.9302-15.5713,12.9854l30.4956,48.7168h-46.4067l-23.0215-42.9453h-1.1855v42.9453h-39.2109V11.4009z M557.4824,62.1543
		h7.917c1.3472,0,2.835-0.1113,4.4634-0.3398c1.6289-0.2251,3.1431-0.7051,4.5464-1.4424c1.4028-0.7349,2.583-1.7534,3.5381-3.0557
		c0.9546-1.2993,1.4321-3.0264,1.4321-5.1772c0-2.1484-0.3955-3.8457-1.1802-5.0923c-0.7852-1.2437-1.7959-2.1772-3.0317-2.8008
		c-1.2358-0.6206-2.5835-1.0186-4.042-1.188c-1.459-0.1699-2.8062-0.2549-4.042-0.2549h-9.6011V62.1543z"/>
	<path d="M673.2461,11.4009h42.9453l46.8496,120.1787h-43.9639l-6.2803-17.6533H674.604l-5.9409,17.6533h-42.7754L673.2461,11.4009z
		 M694.125,53.3276l-9.8452,29.7051h19.5205L694.125,53.3276z"/>
	<path d="M811.7554,92.8779v38.7017h-40.2295V11.4009h51.6021c6.1113,0,12.1074,0.6523,17.9932,1.9517
		c5.8828,1.3022,11.1445,3.5093,15.7861,6.6201c4.6387,3.1138,8.373,7.2432,11.2031,12.3916
		c2.8271,5.1504,4.2441,11.6274,4.2441,19.4355c0,7.4688-1.3877,13.8076-4.1592,19.0112
		c-2.7744,5.2065-6.4502,9.4502-11.0342,12.731c-4.582,3.2837-9.8438,5.6597-15.7852,7.1294
		c-5.9414,1.4717-12.0254,2.2065-18.248,2.2065H811.7554z M811.7554,42.8032v19.3511h8.4873c3.0552,0,5.856-0.7642,8.4028-2.2915
		c2.5449-1.5278,3.8184-4.1006,3.8184-7.7236c0-1.9229-0.3398-3.4795-1.0176-4.668c-0.6797-1.188-1.6133-2.1216-2.8008-2.8008
		c-1.1895-0.6787-2.5205-1.1587-3.9902-1.4429c-1.4717-0.2808-2.9434-0.4243-4.4126-0.4243H811.7554z"/>
	<path d="M960.958,85.9185h-32.9297v45.6611h-40.3994V11.4009h40.2295v40.7383h32.9297V11.4009h40.5684v120.1787H960.958V85.9185z"
		/>
	<path d="M1094.2061,131.5796h-40.4004V82.3535l-45.3223-70.9526h48.7168l19.0117,35.3066l18.1621-35.3066h47.5293l-47.6973,70.9526
		V131.5796z"/>
	<path d="M1187.3955,131.5796V11.4009h44.8125c9.5059,0,18.5879,0.9336,27.2441,2.8008c8.6582,1.8672,16.2949,5.0923,22.916,9.6753
		c6.6191,4.583,11.9082,10.6675,15.8711,18.2476c3.959,7.5825,5.9414,17.144,5.9414,28.6865
		c0,10.5244-1.8965,19.6348-5.6875,27.3291c-3.793,7.6968-8.8555,14.0039-15.1914,18.9263
		c-6.3398,4.9229-13.6387,8.5723-21.8965,10.9487c-8.2617,2.3765-16.8633,3.5645-25.8027,3.5645H1187.3955z M1226.2666,45.689
		v51.0933h7.4688c9.5059,0,16.8047-2.0586,21.8984-6.1748c5.0918-4.1162,7.6387-10.8555,7.6387-20.2178
		c0-7.7817-2.5469-13.8423-7.6387-18.1865c-5.0938-4.3418-11.8828-6.5142-20.3691-6.5142H1226.2666z"/>
	<path d="M1350.5205,11.4009h42.9453l46.8496,120.1787h-43.9629l-6.2812-17.6533h-38.1914l-5.9414,17.6533h-42.7754
		L1350.5205,11.4009z M1371.3994,53.3276l-9.8457,29.7051h19.5215L1371.3994,53.3276z"/>
	<path d="M1509.0615,131.5796h-40.4004V82.3535l-45.3223-70.9526h48.7168l19.0117,35.3066l18.1621-35.3066h47.5293l-47.6973,70.9526
		V131.5796z"/>
	<path d="M1590.7061,134.2949c-2.9434,0-5.6875-0.5376-8.2324-1.6118c-2.5469-1.0771-4.7832-2.5171-6.7051-4.3286
		c-1.9258-1.8091-3.4238-3.96-4.498-6.4502c-1.0781-2.4878-1.6133-5.2036-1.6133-8.1479c0-2.8271,0.5352-5.4873,1.6133-7.978
		c1.0742-2.4878,2.5723-4.668,4.498-6.5352c1.9219-1.8672,4.1582-3.3364,6.7051-4.4131c2.5449-1.0742,5.2891-1.6128,8.2324-1.6128
		c2.9414,0,5.6855,0.5386,8.2324,1.6128c2.5469,1.0767,4.7793,2.5459,6.7051,4.4131c1.9219,1.8672,3.4219,4.0474,4.498,6.5352
		c1.0742,2.4907,1.6133,5.1509,1.6133,7.978c0,2.9443-0.5391,5.6602-1.6133,8.1479c-1.0762,2.4902-2.5762,4.6411-4.498,6.4502
		c-1.9258,1.8115-4.1582,3.2515-6.7051,4.3286C1596.3916,133.7573,1593.6475,134.2949,1590.7061,134.2949z M1570.3369,11.4009
		h40.7383v76.0454h-40.7383V11.4009z"/>
</g>
</svg>
