<?xml version="1.0" encoding="utf-8"?>
<!-- Generator: Adobe Illustrator 23.0.2, SVG Export Plug-In . SVG Version: 6.00 Build 0)  -->
<svg version="1.1" id="Layer_1" xmlns="http://www.w3.org/2000/svg" xmlns:xlink="http://www.w3.org/1999/xlink" x="0px" y="0px"
	 viewBox="0 0 99 43" style="enable-background:new 0 0 99 43;" xml:space="preserve">
<style type="text/css">
	.st0{fill:#1AAAAC;}
	.st1{fill:none;stroke:#000100;stroke-width:0.5;stroke-linecap:round;stroke-linejoin:round;stroke-miterlimit:10;}
	.st2{fill:#FFFFFF;stroke:#FFFFFF;stroke-width:0.3944;stroke-linecap:round;stroke-linejoin:round;stroke-miterlimit:10;}
</style>
<g>
	<path class="st0" d="M23.677,33.004c-0.033,0.16,0.037,0.309,0.186,0.365c0.057,0.02,0.117,0.028,0.184,0.021
		c0.056-0.005,0.111-0.022,0.163-0.046l-0.005-0.756l0,0.018c-0.018,0-0.032-0.008-0.051-0.006
		C23.932,32.618,23.722,32.797,23.677,33.004z"/>
	<path class="st0" d="M24.095,31.078c-0.029,0.132,0.012,0.253,0.101,0.33l-0.004-0.521C24.146,30.944,24.109,31.007,24.095,31.078z
		"/>
	<path class="st0" d="M24.086,35.597c-0.032,0.137,0.024,0.256,0.142,0.314l0.001,0.189l-0.001-0.189l-0.004-0.538l-0.009-1.28
		l0.009,1.281C24.158,35.439,24.106,35.515,24.086,35.597z"/>
	<path class="st0" d="M23.883,36.454c-0.037,0.144,0.031,0.27,0.162,0.324c0.057,0.021,0.121,0.027,0.189,0.019l0,0.016
		l-0.005-0.713C24.06,36.165,23.917,36.303,23.883,36.454z"/>
	<path class="st0" d="M23.885,32.05c-0.037,0.165,0.041,0.315,0.191,0.374c0.039,0.015,0.083,0.016,0.127,0.018l-0.005-0.751
		C24.044,31.757,23.917,31.893,23.885,32.05z"/>
	<path class="st0" d="M23.469,33.936c-0.037,0.157,0.039,0.3,0.179,0.356c0.057,0.022,0.122,0.029,0.19,0.019
		c0.147-0.017,0.284-0.105,0.377-0.219l-0.004-0.488c-0.024-0.019-0.05-0.037-0.081-0.048c-0.053-0.022-0.116-0.029-0.187-0.021
		C23.723,33.558,23.515,33.734,23.469,33.936z"/>
	<path class="st0" d="M23.647,29.414c0.037,0.014,0.083,0.022,0.126,0.022c0.178,0.003,0.344-0.126,0.406-0.293l-0.002-0.279
		c-0.034-0.075-0.093-0.137-0.173-0.169c-0.041-0.014-0.082-0.022-0.123-0.024c-0.211-0.004-0.406,0.159-0.443,0.371
		C23.414,29.206,23.495,29.357,23.647,29.414z"/>
	<path class="st0" d="M24.017,5.191c-0.001,0.034-0.01,0.065-0.01,0.099v0.003C24.007,5.258,24.016,5.225,24.017,5.191z"/>
	<path class="st0" d="M23.25,39.94c0.038,0.016,0.084,0.018,0.131,0.019c0.088-0.074,0.175-0.15,0.251-0.237l0.113-0.13
		c0.05-0.057,0.086-0.125,0.13-0.186c-0.029-0.036-0.063-0.07-0.112-0.088c-0.06-0.023-0.13-0.032-0.206-0.023
		c-0.221,0.024-0.43,0.173-0.474,0.342C23.047,39.766,23.115,39.889,23.25,39.94z"/>
	<path class="st0" d="M23.642,38.41c0.062,0.026,0.132,0.032,0.209,0.022c0.158-0.02,0.305-0.112,0.393-0.227l-0.003-0.406
		c-0.025-0.021-0.054-0.038-0.087-0.05c-0.06-0.023-0.13-0.031-0.205-0.022c-0.219,0.032-0.424,0.195-0.471,0.374
		C23.445,38.237,23.508,38.36,23.642,38.41z"/>
	<path class="st0" d="M23.681,37.288c-0.032,0.143,0.029,0.266,0.163,0.318c0.059,0.023,0.131,0.031,0.207,0.022
		c0.066-0.01,0.129-0.036,0.189-0.068l-0.005-0.657c-0.029-0.001-0.057-0.002-0.088,0.003
		C23.929,36.938,23.725,37.108,23.681,37.288z"/>
	<path class="st0" d="M24.032,39.138c-0.022,0.049-0.045,0.097-0.07,0.145c0.012-0.021,0.031-0.038,0.042-0.06
		C24.017,39.197,24.02,39.165,24.032,39.138z"/>
	<path class="st0" d="M13.683,39.643l0.433,0.13c0,0,0,0,0,0c0.128-0.038,0.226-0.121,0.24-0.218
		c0.016-0.13-0.121-0.233-0.311-0.227c-0.191,0.002-0.36,0.115-0.374,0.245C13.668,39.598,13.675,39.62,13.683,39.643
		c-0.27-0.086-0.539-0.177-0.807-0.276C13.144,39.466,13.413,39.556,13.683,39.643z"/>
	<path class="st0" d="M16.272,40.336c0.072-0.04,0.124-0.093,0.135-0.153c0.025-0.113-0.104-0.204-0.289-0.197
		c-0.19,0.008-0.36,0.111-0.376,0.223L16.272,40.336L16.272,40.336z"/>
	<path class="st0" d="M19.169,40.458c-0.148,0.01-0.282,0.076-0.348,0.154l0.62,0.007C19.464,40.516,19.346,40.445,19.169,40.458z"
		/>
	<path class="st0" d="M21.592,40.501c0.026-0.096-0.024-0.185-0.129-0.226c-0.053-0.022-0.119-0.031-0.192-0.023
		c-0.205,0.015-0.395,0.13-0.433,0.263c-0.007,0.027-0.007,0.052-0.003,0.076l0.733-0.049
		C21.576,40.529,21.588,40.515,21.592,40.501z"/>
	<path class="st0" d="M20.504,40.563c0.022-0.073-0.02-0.139-0.103-0.173c-0.051-0.02-0.112-0.028-0.179-0.023
		c-0.189,0.014-0.366,0.117-0.395,0.229c-0.003,0.01-0.003,0.019-0.003,0.029l0.652-0.018
		C20.486,40.592,20.499,40.578,20.504,40.563z"/>
	<path class="st0" d="M23.306,40.03c-0.121,0.083-0.245,0.165-0.393,0.223c0.002-0.001,0.004-0.002,0.006-0.002
		C23.057,40.196,23.187,40.12,23.306,40.03z"/>
	<path class="st0" d="M22.2,40.033c0.059,0.023,0.133,0.033,0.209,0.024c0.226-0.018,0.43-0.159,0.476-0.328
		c0.038-0.13-0.028-0.253-0.164-0.302c-0.061-0.024-0.131-0.033-0.21-0.025c-0.221,0.023-0.429,0.169-0.475,0.334
		C22.003,39.863,22.064,39.982,22.2,40.033z"/>
	<path class="st0" d="M21.163,40.075c0.05,0.022,0.118,0.03,0.193,0.022c0.2-0.015,0.394-0.144,0.432-0.283
		c0.026-0.1-0.022-0.192-0.13-0.234c-0.054-0.021-0.12-0.027-0.19-0.021c-0.203,0.02-0.394,0.145-0.435,0.288
		C21.005,39.945,21.055,40.035,21.163,40.075z"/>
	<path class="st0" d="M20.116,40.127c0.049,0.02,0.11,0.027,0.18,0.023c0.188-0.018,0.366-0.127,0.399-0.25
		c0.022-0.079-0.021-0.148-0.107-0.182c-0.049-0.019-0.11-0.025-0.177-0.019c-0.186,0.018-0.365,0.132-0.397,0.252
		C19.991,40.03,20.029,40.094,20.116,40.127z"/>
	<path class="st0" d="M19.237,40.223c0.182-0.015,0.355-0.118,0.385-0.231c0.035-0.117-0.09-0.197-0.271-0.182
		c-0.185,0.018-0.357,0.127-0.388,0.238C18.932,40.161,19.053,40.237,19.237,40.223z"/>
	<path class="st0" d="M18.174,40.302c0.182-0.008,0.355-0.108,0.385-0.217c0.031-0.114-0.093-0.193-0.279-0.186
		c-0.185,0.007-0.358,0.107-0.387,0.22C17.864,40.231,17.989,40.311,18.174,40.302z"/>
	<path class="st0" d="M17.102,40.352c0.189-0.01,0.359-0.104,0.385-0.216c0.025-0.113-0.102-0.202-0.289-0.193
		c-0.184,0.007-0.357,0.107-0.381,0.222C16.793,40.279,16.921,40.361,17.102,40.352z"/>
	<path class="st0" d="M23.445,39.19c0.06,0.023,0.132,0.031,0.208,0.022c0.224-0.027,0.429-0.179,0.471-0.357
		c0.036-0.134-0.032-0.259-0.162-0.311c-0.061-0.024-0.134-0.028-0.208-0.02c-0.222,0.029-0.428,0.184-0.475,0.358
		C23.248,39.015,23.312,39.138,23.445,39.19z"/>
	<path class="st0" d="M23.087,38.981c0.031-0.132-0.03-0.255-0.164-0.308c-0.063-0.022-0.132-0.031-0.212-0.021
		c-0.22,0.026-0.432,0.179-0.476,0.352c-0.033,0.129,0.031,0.25,0.162,0.3c0.061,0.026,0.136,0.032,0.213,0.024
		C22.836,39.304,23.044,39.154,23.087,38.981z"/>
	<path class="st0" d="M21.987,39.086c0.029-0.104-0.018-0.201-0.131-0.24c-0.053-0.023-0.118-0.027-0.191-0.019
		c-0.205,0.023-0.393,0.157-0.432,0.304c-0.029,0.104,0.022,0.197,0.13,0.239c0.053,0.021,0.118,0.028,0.19,0.02
		C21.756,39.368,21.946,39.236,21.987,39.086z"/>
	<path class="st0" d="M20.891,39.191c0.022-0.083-0.019-0.156-0.107-0.191c-0.054-0.019-0.112-0.026-0.176-0.018
		c-0.19,0.021-0.371,0.141-0.407,0.273c-0.021,0.083,0.02,0.153,0.111,0.186c0.048,0.019,0.111,0.027,0.174,0.021
		C20.68,39.442,20.857,39.321,20.891,39.191z"/>
	<path class="st0" d="M19.813,39.3c0.032-0.125-0.093-0.211-0.278-0.191c-0.183,0.018-0.36,0.136-0.391,0.258
		c-0.03,0.123,0.092,0.206,0.276,0.187C19.603,39.536,19.778,39.424,19.813,39.3z"/>
	<path class="st0" d="M18.737,39.407c0.029-0.122-0.097-0.208-0.281-0.204c-0.189,0.007-0.367,0.116-0.397,0.236
		c-0.028,0.124,0.1,0.213,0.287,0.207C18.532,39.639,18.708,39.528,18.737,39.407z"/>
	<path class="st0" d="M17.645,39.454c0.031-0.12-0.099-0.217-0.291-0.214c-0.19,0.006-0.364,0.116-0.387,0.238
		c-0.027,0.123,0.102,0.213,0.289,0.207C17.446,39.679,17.616,39.577,17.645,39.454z"/>
	<path class="st0" d="M16.167,39.726c0.19-0.008,0.361-0.11,0.387-0.235c0.022-0.124-0.111-0.223-0.298-0.219
		c-0.191,0.006-0.362,0.113-0.388,0.239C15.845,39.636,15.979,39.731,16.167,39.726z"/>
	<path class="st0" d="M15.077,39.761c0.187-0.007,0.353-0.111,0.378-0.238c0.019-0.126-0.113-0.227-0.304-0.223
		c-0.193,0.005-0.36,0.114-0.381,0.243C14.751,39.671,14.888,39.766,15.077,39.761z"/>
	<path class="st0" d="M23.285,38.202c0.036-0.137-0.03-0.262-0.162-0.314c-0.06-0.023-0.133-0.03-0.211-0.019
		c-0.22,0.028-0.429,0.189-0.475,0.365c-0.034,0.136,0.029,0.258,0.163,0.312c0.061,0.021,0.133,0.028,0.212,0.019
		C23.034,38.537,23.238,38.381,23.285,38.202z"/>
	<path class="st0" d="M22.185,38.322c0.032-0.11-0.02-0.208-0.127-0.252c-0.056-0.02-0.123-0.025-0.193-0.016
		c-0.204,0.025-0.397,0.166-0.434,0.322c-0.03,0.109,0.023,0.205,0.134,0.247c0.048,0.02,0.115,0.029,0.186,0.02
		C21.958,38.618,22.149,38.476,22.185,38.322z"/>
	<path class="st0" d="M21.089,38.438c0.023-0.09-0.019-0.169-0.111-0.203c-0.049-0.02-0.108-0.025-0.172-0.019
		c-0.19,0.023-0.375,0.154-0.41,0.292c-0.02,0.089,0.021,0.165,0.113,0.199c0.047,0.02,0.107,0.024,0.172,0.018
		C20.874,38.704,21.055,38.579,21.089,38.438z"/>
	<path class="st0" d="M20.001,38.558c0.035-0.134-0.088-0.226-0.276-0.206c-0.187,0.022-0.366,0.147-0.397,0.277
		c-0.03,0.131,0.092,0.222,0.28,0.201C19.791,38.81,19.969,38.69,20.001,38.558z"/>
	<path class="st0" d="M18.918,38.673c0.033-0.13-0.094-0.226-0.283-0.222c-0.193,0.007-0.374,0.121-0.403,0.253
		c-0.03,0.133,0.1,0.232,0.291,0.227C18.71,38.923,18.888,38.804,18.918,38.673z"/>
	<path class="st0" d="M17.813,38.714c0.028-0.132-0.103-0.238-0.296-0.233c-0.188,0.003-0.368,0.117-0.394,0.249
		c-0.029,0.135,0.106,0.234,0.295,0.23C17.604,38.955,17.782,38.848,17.813,38.714z"/>
	<path class="st0" d="M16.699,38.742c0.028-0.136-0.11-0.244-0.303-0.24c-0.192,0.004-0.365,0.117-0.391,0.253
		c-0.024,0.135,0.11,0.241,0.302,0.235C16.496,38.984,16.673,38.875,16.699,38.742z"/>
	<path class="st0" d="M12.97,39.05c0.191-0.003,0.358-0.115,0.374-0.257c0.018-0.141-0.126-0.257-0.318-0.256
		c-0.193,0.001-0.359,0.119-0.378,0.262C12.633,38.942,12.778,39.052,12.97,39.05z"/>
	<path class="st0" d="M23.326,37.074c-0.059-0.024-0.133-0.03-0.21-0.02c-0.219,0.029-0.429,0.196-0.473,0.377
		c-0.037,0.141,0.028,0.265,0.164,0.319c0.059,0.022,0.133,0.03,0.212,0.018c0.22-0.029,0.428-0.193,0.472-0.374
		C23.524,37.254,23.457,37.126,23.326,37.074z"/>
	<path class="st0" d="M21.765,37.838c0.057,0.02,0.12,0.026,0.19,0.017c0.203-0.025,0.398-0.173,0.436-0.335
		c0.027-0.112-0.025-0.215-0.135-0.26c-0.055-0.02-0.117-0.027-0.185-0.016c-0.205,0.025-0.4,0.174-0.44,0.335
		C21.605,37.693,21.657,37.794,21.765,37.838z"/>
	<path class="st0" d="M20.708,37.929c0.05,0.018,0.108,0.025,0.174,0.016c0.19-0.022,0.372-0.157,0.408-0.302
		c0.024-0.096-0.021-0.179-0.116-0.216c-0.049-0.017-0.109-0.024-0.172-0.017c-0.191,0.025-0.376,0.161-0.411,0.306
		C20.57,37.811,20.617,37.889,20.708,37.929z"/>
	<path class="st0" d="M19.517,37.84c-0.032,0.14,0.09,0.238,0.278,0.216c0.19-0.021,0.368-0.148,0.401-0.29
		c0.033-0.141-0.092-0.239-0.28-0.218C19.73,37.567,19.55,37.7,19.517,37.84z"/>
	<path class="st0" d="M19.103,37.886c0.029-0.14-0.097-0.243-0.289-0.239c-0.194,0.003-0.373,0.124-0.407,0.264
		c-0.03,0.141,0.103,0.25,0.293,0.246C18.889,38.151,19.072,38.025,19.103,37.886z"/>
	<path class="st0" d="M17.983,37.919c0.03-0.143-0.103-0.257-0.296-0.254c-0.196,0.001-0.378,0.121-0.404,0.266
		c-0.031,0.142,0.104,0.255,0.296,0.248C17.771,38.176,17.953,38.06,17.983,37.919z"/>
	<path class="st0" d="M13.123,37.672c-0.195-0.001-0.37,0.123-0.382,0.275c-0.023,0.152,0.126,0.273,0.322,0.273
		c0.19,0.002,0.365-0.12,0.379-0.27C13.463,37.798,13.318,37.675,13.123,37.672z"/>
	<path class="st0" d="M11.985,37.662c-0.194-0.004-0.365,0.124-0.377,0.275c-0.018,0.156,0.133,0.279,0.322,0.282
		c0.196,0,0.365-0.122,0.38-0.275C12.324,37.792,12.18,37.664,11.985,37.662z"/>
	<path class="st0" d="M23.693,36.559c0.036-0.144-0.034-0.276-0.166-0.328c-0.061-0.023-0.13-0.03-0.206-0.019
		c-0.223,0.029-0.431,0.199-0.472,0.387c-0.035,0.143,0.028,0.272,0.165,0.325c0.062,0.022,0.133,0.029,0.209,0.019
		C23.442,36.913,23.65,36.742,23.693,36.559z"/>
	<path class="st0" d="M22.599,36.688c0.028-0.12-0.027-0.225-0.143-0.269c-0.05-0.02-0.111-0.028-0.178-0.021
		c-0.21,0.028-0.403,0.179-0.442,0.348c-0.03,0.118,0.027,0.223,0.139,0.267c0.055,0.02,0.118,0.027,0.185,0.018
		C22.368,37.006,22.555,36.856,22.599,36.688z"/>
	<path class="st0" d="M21.493,36.811c0.021-0.102-0.023-0.191-0.124-0.227c-0.044-0.02-0.105-0.024-0.166-0.018
		c-0.19,0.023-0.375,0.164-0.411,0.317c-0.022,0.099,0.023,0.187,0.121,0.227c0.048,0.015,0.106,0.022,0.17,0.013
		C21.273,37.102,21.457,36.961,21.493,36.811z"/>
	<path class="st0" d="M20.393,36.931c0.031-0.148-0.091-0.254-0.281-0.234c-0.191,0.02-0.372,0.157-0.403,0.306
		c-0.035,0.15,0.093,0.251,0.28,0.229C20.179,37.212,20.358,37.079,20.393,36.931z"/>
	<path class="st0" d="M18.588,37.066c-0.031,0.153,0.098,0.269,0.293,0.264c0.194-0.001,0.373-0.137,0.407-0.284
		c0.033-0.15-0.099-0.257-0.293-0.256C18.8,36.792,18.615,36.918,18.588,37.066z"/>
	<path class="st0" d="M17.445,37.076c-0.027,0.151,0.108,0.27,0.302,0.268c0.196-0.001,0.377-0.123,0.408-0.273
		c0.032-0.15-0.102-0.274-0.301-0.273C17.656,36.8,17.477,36.924,17.445,37.076z"/>
	<path class="st0" d="M17.013,37.077c0.03-0.153-0.11-0.277-0.308-0.278c-0.198-0.001-0.383,0.126-0.407,0.279
		c-0.026,0.153,0.112,0.277,0.31,0.274C16.8,37.351,16.987,37.229,17.013,37.077z"/>
	<path class="st0" d="M15.86,37.076c0.025-0.153-0.114-0.283-0.312-0.284c-0.2-0.002-0.382,0.127-0.405,0.281
		c-0.022,0.156,0.119,0.279,0.318,0.28C15.655,37.355,15.834,37.232,15.86,37.076z"/>
	<path class="st0" d="M14.308,37.348c0.199,0.002,0.376-0.124,0.397-0.279c0.025-0.158-0.12-0.288-0.317-0.292
		c-0.199-0.002-0.38,0.126-0.399,0.283C13.969,37.219,14.11,37.348,14.308,37.348z"/>
	<path class="st0" d="M13.23,36.758c-0.201-0.003-0.376,0.124-0.393,0.285c-0.017,0.159,0.127,0.29,0.323,0.293
		c0.198,0.002,0.375-0.124,0.391-0.281C13.573,36.896,13.429,36.762,13.23,36.758z"/>
	<path class="st0" d="M12.076,36.731c-0.199-0.006-0.37,0.124-0.387,0.288c-0.016,0.163,0.132,0.295,0.328,0.3
		c0.195,0.004,0.368-0.123,0.386-0.283C12.42,36.872,12.27,36.735,12.076,36.731z"/>
	<path class="st0" d="M23.898,35.697c0.034-0.146-0.032-0.282-0.168-0.335c-0.061-0.022-0.129-0.028-0.199-0.021
		c-0.223,0.031-0.432,0.204-0.48,0.399c-0.034,0.146,0.034,0.277,0.173,0.331c0.06,0.022,0.13,0.028,0.206,0.019
		C23.647,36.059,23.853,35.89,23.898,35.697z"/>
	<path class="st0" d="M22.806,35.824c0.027-0.126-0.029-0.236-0.148-0.281c-0.051-0.02-0.11-0.026-0.177-0.019
		c-0.205,0.024-0.401,0.182-0.439,0.354c-0.031,0.124,0.025,0.234,0.145,0.277c0.049,0.022,0.113,0.03,0.178,0.021
		C22.57,36.151,22.765,35.996,22.806,35.824z"/>
	<path class="st0" d="M21.699,35.939c0.023-0.106-0.026-0.199-0.133-0.237c-0.044-0.019-0.101-0.026-0.158-0.019
		c-0.194,0.021-0.38,0.166-0.415,0.326c-0.023,0.105,0.024,0.198,0.126,0.239c0.048,0.019,0.105,0.021,0.165,0.017
		C21.477,36.242,21.658,36.096,21.699,35.939z"/>
	<path class="st0" d="M20.59,36.054c0.033-0.155-0.091-0.269-0.283-0.25c-0.191,0.018-0.374,0.161-0.409,0.316
		c-0.03,0.156,0.096,0.265,0.285,0.246C20.376,36.347,20.555,36.209,20.59,36.054z"/>
	<path class="st0" d="M19.477,36.161c0.034-0.157-0.095-0.276-0.292-0.274c-0.197,0.001-0.385,0.131-0.415,0.289
		c-0.032,0.157,0.1,0.283,0.297,0.281C19.266,36.454,19.446,36.315,19.477,36.161z"/>
	<path class="st0" d="M18.336,36.175c0.03-0.156-0.107-0.289-0.307-0.29c-0.199,0-0.385,0.13-0.418,0.29
		c-0.027,0.161,0.109,0.288,0.306,0.287C18.119,36.462,18.303,36.334,18.336,36.175z"/>
	<path class="st0" d="M16.762,36.458c0.203,0.002,0.384-0.124,0.415-0.286c0.026-0.158-0.109-0.293-0.314-0.295
		c-0.202-0.002-0.383,0.128-0.413,0.289C16.421,36.328,16.563,36.457,16.762,36.458z"/>
	<path class="st0" d="M15.603,36.447c0.198,0.003,0.378-0.125,0.403-0.285c0.029-0.164-0.115-0.298-0.316-0.304
		c-0.2-0.002-0.384,0.124-0.409,0.29C15.259,36.312,15.401,36.445,15.603,36.447z"/>
	<path class="st0" d="M14.838,36.14c0.024-0.163-0.119-0.304-0.318-0.31c-0.204-0.005-0.385,0.128-0.409,0.294
		c-0.021,0.164,0.125,0.301,0.325,0.305C14.636,36.434,14.816,36.304,14.838,36.14z"/>
	<path class="st0" d="M13.344,35.797c-0.2-0.007-0.382,0.126-0.399,0.293c-0.023,0.169,0.125,0.307,0.325,0.313
		c0.201,0.004,0.379-0.124,0.4-0.293C13.694,35.945,13.546,35.805,13.344,35.797z"/>
	<path class="st0" d="M12.177,35.755c-0.2-0.009-0.378,0.126-0.395,0.296c-0.018,0.173,0.131,0.313,0.331,0.32
		c0.196,0.004,0.373-0.125,0.392-0.292C12.526,35.907,12.375,35.761,12.177,35.755z"/>
	<path class="st0" d="M11.017,35.706c-0.197-0.01-0.372,0.126-0.385,0.301c-0.014,0.173,0.132,0.318,0.328,0.327
		c0.199,0.007,0.369-0.126,0.387-0.299C11.364,35.864,11.216,35.713,11.017,35.706z"/>
	<path class="st0" d="M24.105,34.815c0.034-0.153-0.036-0.291-0.173-0.345c-0.059-0.021-0.126-0.028-0.195-0.019
		c-0.222,0.027-0.431,0.202-0.477,0.399c-0.032,0.15,0.034,0.287,0.174,0.342c0.057,0.023,0.127,0.032,0.2,0.02
		C23.853,35.186,24.059,35.008,24.105,34.815z"/>
	<path class="st0" d="M23.013,34.93c0.031-0.13-0.026-0.244-0.15-0.29c-0.052-0.02-0.109-0.027-0.17-0.021
		c-0.21,0.024-0.405,0.182-0.445,0.361c-0.029,0.128,0.028,0.243,0.148,0.29c0.051,0.02,0.114,0.028,0.176,0.02
		C22.779,35.267,22.97,35.109,23.013,34.93z"/>
	<path class="st0" d="M21.197,35.096c-0.027,0.116,0.024,0.214,0.131,0.253c0.048,0.018,0.102,0.025,0.158,0.02
		c0.194-0.022,0.379-0.168,0.414-0.332c0.029-0.114-0.023-0.211-0.132-0.253c-0.044-0.017-0.097-0.023-0.156-0.017
		C21.421,34.783,21.23,34.933,21.197,35.096z"/>
	<path class="st0" d="M20.79,35.138c0.034-0.16-0.095-0.28-0.288-0.263c-0.191,0.014-0.373,0.158-0.408,0.321
		c-0.035,0.165,0.095,0.28,0.286,0.264C20.575,35.443,20.758,35.298,20.79,35.138z"/>
	<path class="st0" d="M18.952,35.24c-0.032,0.164,0.101,0.298,0.301,0.297c0.2-0.002,0.381-0.144,0.416-0.309
		c0.031-0.162-0.099-0.287-0.299-0.286C19.173,34.941,18.983,35.076,18.952,35.24z"/>
	<path class="st0" d="M18.514,35.237c0.032-0.167-0.103-0.301-0.307-0.306c-0.2-0.002-0.392,0.132-0.421,0.299
		c-0.027,0.166,0.111,0.302,0.31,0.303C18.297,35.535,18.48,35.404,18.514,35.237z"/>
	<path class="st0" d="M17.342,35.222c0.03-0.165-0.113-0.306-0.315-0.309c-0.205-0.005-0.392,0.128-0.416,0.296
		c-0.031,0.17,0.113,0.307,0.313,0.309C17.128,35.523,17.315,35.39,17.342,35.222z"/>
	<path class="st0" d="M16.163,35.199c0.026-0.168-0.119-0.31-0.32-0.318c-0.205-0.006-0.39,0.128-0.418,0.3
		c-0.023,0.17,0.12,0.31,0.322,0.316C15.95,35.502,16.136,35.368,16.163,35.199z"/>
	<path class="st0" d="M14.568,35.464c0.203,0.007,0.387-0.124,0.411-0.297c0.027-0.173-0.12-0.316-0.325-0.327
		c-0.204-0.005-0.39,0.128-0.411,0.303C14.218,35.315,14.367,35.457,14.568,35.464z"/>
	<path class="st0" d="M13.469,34.794c-0.204-0.011-0.387,0.124-0.409,0.301c-0.019,0.177,0.128,0.321,0.329,0.33
		c0.203,0.006,0.384-0.126,0.405-0.298C13.818,34.951,13.67,34.801,13.469,34.794z"/>
	<path class="st0" d="M12.286,34.736c-0.201-0.01-0.378,0.126-0.4,0.304c-0.016,0.177,0.13,0.328,0.331,0.336
		c0.201,0.009,0.378-0.125,0.398-0.302C12.638,34.899,12.489,34.746,12.286,34.736z"/>
	<path class="st0" d="M11.117,34.672c-0.2-0.016-0.378,0.126-0.392,0.306c-0.019,0.181,0.131,0.335,0.329,0.344
		c0.198,0.01,0.375-0.127,0.392-0.305C11.465,34.839,11.316,34.681,11.117,34.672z"/>
	<path class="st0" d="M9.904,35.259c0.196,0.013,0.37-0.127,0.381-0.307c0.017-0.182-0.128-0.341-0.325-0.353
		c-0.195-0.015-0.371,0.127-0.386,0.309C9.564,35.092,9.709,35.249,9.904,35.259z"/>
	<path class="st0" d="M23.222,34.012c0.029-0.136-0.033-0.254-0.155-0.303c-0.051-0.019-0.106-0.026-0.166-0.021
		c-0.205,0.02-0.404,0.184-0.443,0.366c-0.029,0.136,0.028,0.254,0.154,0.302c0.05,0.019,0.106,0.028,0.17,0.021
		C22.987,34.356,23.179,34.195,23.222,34.012z"/>
	<path class="st0" d="M21.691,34.439c0.194-0.016,0.382-0.166,0.419-0.337c0.025-0.117-0.031-0.221-0.141-0.265
		c-0.047-0.016-0.096-0.023-0.152-0.019c-0.194,0.014-0.381,0.164-0.42,0.337c-0.022,0.116,0.031,0.222,0.145,0.264
		C21.586,34.436,21.636,34.444,21.691,34.439z"/>
	<path class="st0" d="M20.292,34.235c-0.037,0.168,0.094,0.294,0.289,0.281c0.189-0.014,0.374-0.16,0.411-0.33
		c0.033-0.167-0.093-0.292-0.289-0.28C20.51,33.917,20.325,34.066,20.292,34.235z"/>
	<path class="st0" d="M19.138,34.265c-0.031,0.171,0.103,0.31,0.303,0.311c0.2,0.002,0.384-0.144,0.419-0.316
		c0.033-0.17-0.1-0.303-0.299-0.304C19.36,33.953,19.171,34.092,19.138,34.265z"/>
	<path class="st0" d="M17.961,34.244c-0.029,0.173,0.111,0.316,0.311,0.317c0.204,0.005,0.392-0.131,0.422-0.303
		c0.033-0.173-0.104-0.317-0.31-0.321C18.182,33.934,17.992,34.073,17.961,34.244z"/>
	<path class="st0" d="M16.772,34.214c-0.027,0.176,0.112,0.322,0.319,0.326c0.202,0.007,0.394-0.13,0.423-0.305
		c0.03-0.173-0.111-0.321-0.315-0.328C16.991,33.9,16.803,34.038,16.772,34.214z"/>
	<path class="st0" d="M16.322,34.199c0.026-0.174-0.117-0.327-0.322-0.332c-0.207-0.011-0.396,0.128-0.424,0.305
		c-0.029,0.178,0.12,0.326,0.323,0.334C16.104,34.511,16.292,34.375,16.322,34.199z"/>
	<path class="st0" d="M15.126,34.153c0.028-0.177-0.124-0.33-0.329-0.339c-0.203-0.013-0.392,0.126-0.416,0.306
		c-0.024,0.181,0.121,0.331,0.326,0.341C14.915,34.468,15.098,34.334,15.126,34.153z"/>
	<path class="st0" d="M13.929,34.099c0.02-0.18-0.126-0.337-0.332-0.348c-0.205-0.012-0.39,0.126-0.413,0.309
		c-0.018,0.178,0.127,0.336,0.331,0.347C13.722,34.417,13.906,34.278,13.929,34.099z"/>
	<path class="st0" d="M12.405,33.677c-0.203-0.012-0.387,0.128-0.404,0.313c-0.023,0.185,0.13,0.342,0.331,0.353
		c0.204,0.011,0.386-0.125,0.405-0.309C12.76,33.848,12.613,33.69,12.405,33.677z"/>
	<path class="st0" d="M23.269,32.755c-0.049-0.017-0.103-0.025-0.157-0.02c-0.211,0.016-0.407,0.175-0.448,0.368
		c-0.028,0.14,0.031,0.264,0.164,0.313c0.045,0.02,0.103,0.025,0.163,0.018c0.203-0.014,0.4-0.176,0.44-0.364
		C23.462,32.93,23.394,32.807,23.269,32.755z"/>
	<path class="st0" d="M21.598,33.182c-0.024,0.123,0.038,0.232,0.152,0.28c0.046,0.015,0.094,0.022,0.145,0.019
		c0.192-0.014,0.382-0.164,0.42-0.339c0.025-0.124-0.034-0.235-0.149-0.279c-0.045-0.017-0.089-0.025-0.141-0.023
		C21.829,32.854,21.637,33.004,21.598,33.182z"/>
	<path class="st0" d="M20.486,33.24c-0.034,0.174,0.097,0.307,0.291,0.296c0.192-0.011,0.379-0.159,0.413-0.329
		c0.035-0.176-0.091-0.309-0.289-0.301C20.707,32.916,20.519,33.063,20.486,33.24z"/>
	<path class="st0" d="M19.326,33.253c-0.032,0.177,0.105,0.322,0.306,0.324c0.198,0.004,0.391-0.145,0.419-0.322
		c0.033-0.175-0.101-0.314-0.3-0.32C19.548,32.934,19.354,33.074,19.326,33.253z"/>
	<path class="st0" d="M18.137,33.226c-0.031,0.175,0.113,0.324,0.315,0.329c0.203,0.007,0.392-0.134,0.427-0.313
		c0.03-0.178-0.111-0.327-0.313-0.335C18.363,32.904,18.17,33.043,18.137,33.226z"/>
	<path class="st0" d="M16.94,33.183c-0.028,0.18,0.113,0.332,0.319,0.339c0.207,0.007,0.398-0.133,0.428-0.311
		c0.031-0.181-0.114-0.333-0.32-0.342C17.16,32.86,16.967,33,16.94,33.183z"/>
	<path class="st0" d="M16.481,33.163c0.031-0.18-0.115-0.338-0.323-0.348c-0.206-0.01-0.399,0.13-0.426,0.316
		c-0.027,0.181,0.119,0.337,0.327,0.346C16.265,33.485,16.454,33.346,16.481,33.163z"/>
	<path class="st0" d="M15.275,33.104c0.028-0.184-0.12-0.343-0.329-0.355c-0.21-0.012-0.398,0.13-0.42,0.314
		c-0.028,0.186,0.118,0.344,0.327,0.355C15.061,33.429,15.251,33.29,15.275,33.104z"/>
	<path class="st0" d="M14.068,33.037c0.023-0.186-0.126-0.351-0.334-0.364c-0.205-0.015-0.393,0.126-0.418,0.315
		c-0.023,0.187,0.127,0.35,0.333,0.36C13.855,33.364,14.042,33.224,14.068,33.037z"/>
	<path class="st0" d="M12.119,32.902c-0.019,0.19,0.13,0.356,0.332,0.37c0.206,0.014,0.392-0.127,0.414-0.317
		c0.023-0.188-0.126-0.356-0.329-0.373C12.327,32.567,12.145,32.71,12.119,32.902z"/>
	<path class="st0" d="M23.639,32.108c0.029-0.143-0.037-0.275-0.17-0.326c-0.046-0.017-0.096-0.024-0.15-0.023
		c-0.206,0.012-0.408,0.175-0.448,0.364c-0.028,0.147,0.035,0.276,0.169,0.331c0.048,0.017,0.1,0.023,0.155,0.018
		C23.4,32.459,23.599,32.301,23.639,32.108z"/>
	<path class="st0" d="M21.807,32.179c-0.027,0.131,0.033,0.247,0.152,0.295c0.041,0.016,0.094,0.024,0.141,0.017
		c0.196-0.006,0.382-0.159,0.42-0.335c0.026-0.13-0.036-0.245-0.156-0.294c-0.041-0.016-0.087-0.024-0.135-0.022
		C22.031,31.847,21.842,31.998,21.807,32.179z"/>
	<path class="st0" d="M20.683,32.213c-0.036,0.178,0.097,0.317,0.293,0.311c0.195-0.005,0.381-0.151,0.416-0.329
		c0.035-0.177-0.097-0.318-0.294-0.313C20.901,31.884,20.715,32.032,20.683,32.213z"/>
	<path class="st0" d="M19.512,32.207c-0.032,0.184,0.107,0.334,0.308,0.339c0.204,0.004,0.391-0.145,0.424-0.327
		c0.034-0.181-0.1-0.331-0.305-0.334C19.735,31.881,19.545,32.026,19.512,32.207z"/>
	<path class="st0" d="M18.748,31.849c-0.206-0.009-0.397,0.135-0.426,0.32c-0.031,0.184,0.11,0.339,0.313,0.344
		c0.205,0.008,0.398-0.133,0.431-0.317C19.096,32.013,18.955,31.856,18.748,31.849z"/>
	<path class="st0" d="M17.11,32.117c-0.029,0.186,0.115,0.343,0.321,0.354c0.21,0.009,0.402-0.134,0.431-0.317
		c0.031-0.187-0.113-0.346-0.322-0.357C17.333,31.788,17.14,31.93,17.11,32.117z"/>
	<path class="st0" d="M16.648,32.093c0.029-0.185-0.114-0.349-0.326-0.359c-0.21-0.014-0.402,0.129-0.427,0.317
		c-0.03,0.189,0.118,0.35,0.323,0.362C16.43,32.423,16.617,32.282,16.648,32.093z"/>
	<path class="st0" d="M14.674,31.973c-0.027,0.19,0.122,0.354,0.332,0.368c0.205,0.012,0.399-0.127,0.425-0.316
		c0.025-0.191-0.119-0.357-0.331-0.37C14.892,31.641,14.699,31.783,14.674,31.973z"/>
	<path class="st0" d="M13.788,32.259c0.21,0.015,0.399-0.128,0.424-0.318c0.025-0.192-0.122-0.361-0.333-0.379
		c-0.209-0.014-0.398,0.129-0.422,0.321C13.433,32.075,13.581,32.245,13.788,32.259z"/>
	<path class="st0" d="M23.849,31.126c0.028-0.147-0.04-0.284-0.179-0.338c-0.044-0.016-0.093-0.022-0.142-0.024
		c-0.209,0.007-0.411,0.169-0.45,0.364c-0.03,0.15,0.041,0.286,0.179,0.34c0.046,0.017,0.092,0.026,0.146,0.024
		C23.61,31.481,23.806,31.323,23.849,31.126z"/>
	<path class="st0" d="M22.56,30.841c-0.04-0.016-0.081-0.021-0.127-0.021c-0.2,0-0.388,0.151-0.424,0.335
		c-0.03,0.14,0.039,0.26,0.165,0.308c0.04,0.017,0.083,0.025,0.131,0.021c0.195-0.002,0.386-0.155,0.423-0.336
		C22.753,31.012,22.692,30.891,22.56,30.841z"/>
	<path class="st0" d="M21.296,30.827c-0.199-0.001-0.385,0.146-0.424,0.333c-0.03,0.183,0.104,0.33,0.3,0.329
		c0.198-0.003,0.385-0.15,0.42-0.33C21.627,30.978,21.496,30.83,21.296,30.827z"/>
	<path class="st0" d="M20.129,30.805c-0.206-0.005-0.4,0.141-0.431,0.328c-0.029,0.19,0.108,0.344,0.311,0.347
		c0.203,0.005,0.393-0.14,0.425-0.327C20.467,30.967,20.335,30.811,20.129,30.805z"/>
	<path class="st0" d="M18.499,31.086c-0.03,0.19,0.112,0.35,0.32,0.356c0.207,0.01,0.399-0.136,0.429-0.324
		c0.033-0.186-0.11-0.346-0.317-0.355C18.727,30.75,18.533,30.897,18.499,31.086z"/>
	<path class="st0" d="M17.717,30.699c-0.211-0.012-0.406,0.134-0.432,0.324c-0.033,0.191,0.111,0.354,0.322,0.366
		c0.208,0.011,0.403-0.136,0.434-0.325C18.072,30.874,17.929,30.712,17.717,30.699z"/>
	<path class="st0" d="M16.489,30.62c-0.21-0.012-0.404,0.132-0.434,0.327c-0.03,0.192,0.12,0.36,0.329,0.374
		c0.214,0.011,0.404-0.133,0.434-0.323C16.852,30.803,16.703,30.637,16.489,30.62z"/>
	<path class="st0" d="M15.593,30.912c0.026-0.192-0.122-0.363-0.332-0.38c-0.213-0.016-0.405,0.13-0.432,0.323
		c-0.026,0.196,0.118,0.365,0.329,0.381C15.372,31.251,15.563,31.107,15.593,30.912z"/>
	<path class="st0" d="M24.037,30.113c0.027-0.158-0.053-0.305-0.197-0.359c-0.044-0.016-0.086-0.026-0.131-0.024
		c-0.21-0.002-0.405,0.166-0.44,0.37c-0.025,0.161,0.055,0.308,0.201,0.361c0.039,0.017,0.085,0.026,0.133,0.026
		C23.814,30.481,24.004,30.319,24.037,30.113z"/>
	<path class="st0" d="M22.384,30.429c0.037,0.014,0.078,0.024,0.122,0.022c0.198,0.001,0.382-0.154,0.414-0.34
		c0.023-0.147-0.049-0.28-0.182-0.332c-0.036-0.014-0.08-0.02-0.121-0.022c-0.199,0-0.385,0.151-0.42,0.343
		C22.176,30.245,22.247,30.379,22.384,30.429z"/>
	<path class="st0" d="M21.368,30.426c0.199,0.004,0.383-0.145,0.417-0.333c0.029-0.186-0.105-0.345-0.303-0.351
		c-0.197-0.006-0.386,0.144-0.418,0.332C21.033,30.264,21.171,30.423,21.368,30.426z"/>
	<path class="st0" d="M20.196,30.396c0.206,0.005,0.395-0.143,0.428-0.334c0.033-0.189-0.104-0.351-0.308-0.361
		c-0.205-0.01-0.397,0.139-0.429,0.331C19.852,30.226,19.994,30.388,20.196,30.396z"/>
	<path class="st0" d="M22.567,29.357c0.038,0.014,0.074,0.022,0.117,0.023c0.193,0.005,0.379-0.148,0.41-0.339
		c0.024-0.151-0.051-0.29-0.187-0.344c-0.037-0.012-0.073-0.02-0.111-0.023c-0.198-0.006-0.387,0.148-0.417,0.341
		C22.356,29.165,22.429,29.305,22.567,29.357z"/>
	<path class="st0" d="M21.548,29.334c0.201,0.005,0.383-0.142,0.417-0.331c0.027-0.19-0.102-0.353-0.3-0.363
		c-0.198-0.009-0.381,0.138-0.415,0.331C21.217,29.163,21.354,29.325,21.548,29.334z"/>
	<path class="st0" d="M20.385,29.28c0.205,0.011,0.39-0.138,0.426-0.333c0.032-0.194-0.106-0.36-0.308-0.374
		c-0.206-0.013-0.4,0.135-0.427,0.33C20.039,29.102,20.178,29.269,20.385,29.28z"/>
	<path class="st0" d="M22.748,28.281c0.032,0.016,0.07,0.023,0.109,0.023c0.201,0.012,0.392-0.144,0.422-0.344
		c0.024-0.163-0.056-0.312-0.206-0.369c-0.029-0.014-0.068-0.02-0.103-0.022c-0.203-0.013-0.396,0.142-0.428,0.345
		C22.514,28.078,22.597,28.226,22.748,28.281z"/>
	<path class="st0" d="M21.732,28.222c0.195,0.012,0.381-0.138,0.412-0.329c0.031-0.193-0.102-0.359-0.3-0.373
		c-0.193-0.014-0.381,0.134-0.41,0.329C21.402,28.043,21.537,28.211,21.732,28.222z"/>
	<path class="st0" d="M20.572,28.147c0.203,0.015,0.395-0.134,0.423-0.329c0.031-0.196-0.105-0.368-0.31-0.386
		c-0.205-0.019-0.397,0.13-0.429,0.328C20.225,27.959,20.366,28.132,20.572,28.147z"/>
	<path class="st0" d="M18.145,27.949c0.207,0.018,0.403-0.13,0.437-0.334c0.029-0.203-0.115-0.384-0.328-0.407
		c-0.211-0.022-0.409,0.129-0.44,0.334C17.785,27.747,17.931,27.93,18.145,27.949z"/>
	<path class="st0" d="M16.905,27.833c0.214,0.021,0.411-0.13,0.442-0.337c0.027-0.207-0.117-0.393-0.33-0.415
		c-0.214-0.024-0.412,0.128-0.442,0.337C16.544,27.625,16.691,27.812,16.905,27.833z"/>
	<path class="st0" d="M13.193,27.428c0.208,0.026,0.403-0.126,0.434-0.34c0.029-0.213-0.117-0.409-0.326-0.436
		c-0.212-0.026-0.408,0.128-0.435,0.344C12.836,27.211,12.98,27.403,13.193,27.428z"/>
	<path class="st0" d="M10.784,27.121c0.201,0.026,0.39-0.123,0.418-0.339c0.028-0.217-0.116-0.417-0.317-0.444
		c-0.203-0.026-0.39,0.128-0.418,0.344C10.439,26.897,10.582,27.093,10.784,27.121z"/>
	<path class="st0" d="M21.913,27.095c0.194,0.016,0.376-0.127,0.405-0.321c0.028-0.195-0.103-0.365-0.297-0.385
		c-0.193-0.018-0.38,0.125-0.407,0.321C21.581,26.91,21.717,27.08,21.913,27.095z"/>
	<path class="st0" d="M20.753,26.999c0.207,0.019,0.394-0.127,0.422-0.326c0.032-0.197-0.105-0.375-0.307-0.395
		c-0.207-0.022-0.398,0.122-0.431,0.324C20.405,26.802,20.547,26.983,20.753,26.999z"/>
	<path class="st0" d="M19.546,26.886c0.214,0.018,0.408-0.129,0.437-0.331c0.029-0.202-0.115-0.384-0.325-0.406
		c-0.208-0.025-0.403,0.124-0.431,0.328C19.193,26.683,19.34,26.863,19.546,26.886z"/>
	<path class="st0" d="M18.325,26.76c0.208,0.023,0.409-0.129,0.436-0.332c0.03-0.205-0.114-0.392-0.326-0.416
		c-0.21-0.022-0.41,0.125-0.444,0.332C17.966,26.552,18.112,26.737,18.325,26.76z"/>
	<path class="st0" d="M17.085,26.628c0.212,0.022,0.412-0.128,0.442-0.337c0.032-0.209-0.117-0.397-0.33-0.424
		c-0.217-0.023-0.413,0.125-0.443,0.335C16.724,26.415,16.872,26.603,17.085,26.628z"/>
	<path class="st0" d="M13.364,26.186c0.212,0.026,0.405-0.124,0.438-0.342c0.027-0.214-0.12-0.412-0.33-0.44
		c-0.212-0.027-0.405,0.125-0.438,0.344C13.007,25.962,13.153,26.16,13.364,26.186z"/>
	<path class="st0" d="M18.502,25.561c0.21,0.027,0.407-0.122,0.439-0.327c0.031-0.209-0.115-0.398-0.327-0.425
		c-0.209-0.03-0.407,0.12-0.438,0.327C18.144,25.346,18.288,25.537,18.502,25.561z"/>
	<path class="st0" d="M17.263,25.411c0.214,0.026,0.41-0.122,0.443-0.333c0.029-0.211-0.12-0.402-0.328-0.431
		c-0.216-0.028-0.415,0.12-0.448,0.331C16.901,25.19,17.049,25.386,17.263,25.411z"/>
	<path class="st0" d="M16.134,24.482c-0.216-0.026-0.416,0.123-0.448,0.338c-0.032,0.213,0.118,0.41,0.332,0.437
		c0.212,0.025,0.415-0.125,0.442-0.337C16.494,24.707,16.344,24.512,16.134,24.482z"/>
	<path class="st0" d="M15.868,23.575c-0.032,0.217,0.116,0.414,0.33,0.444c0.213,0.028,0.412-0.119,0.445-0.334
		c0.028-0.214-0.117-0.413-0.332-0.442C16.1,23.211,15.901,23.358,15.868,23.575z"/>
	<path class="st0" d="M13.03,23.175c0.034-0.233-0.092-0.459-0.305-0.542c-0.032-0.011-0.068-0.02-0.102-0.027
		c-0.126-0.018-0.255,0.017-0.362,0.1c-0.099,0.079-0.167,0.199-0.186,0.33c-0.033,0.236,0.091,0.458,0.304,0.54
		c0.029,0.012,0.066,0.02,0.102,0.027C12.744,23.64,12.99,23.448,13.03,23.175z"/>
	<path class="st0" d="M11.773,22.993c0.032-0.209-0.083-0.415-0.27-0.486c-0.025-0.012-0.057-0.017-0.087-0.021
		c-0.104-0.018-0.216,0.011-0.303,0.078c-0.097,0.071-0.165,0.185-0.181,0.309c-0.031,0.21,0.086,0.414,0.268,0.486
		c0.026,0.011,0.057,0.018,0.087,0.022C11.521,23.414,11.737,23.24,11.773,22.993z"/>
	<path class="st0" d="M10.546,22.814c0.032-0.22-0.1-0.421-0.29-0.45c-0.195-0.028-0.371,0.128-0.405,0.35
		c-0.034,0.221,0.096,0.421,0.288,0.449C10.332,23.19,10.515,23.036,10.546,22.814z"/>
	<path class="st0" d="M9.038,22.999c0.185,0.029,0.364-0.128,0.395-0.346c0.031-0.221-0.095-0.421-0.28-0.45
		c-0.185-0.026-0.36,0.13-0.391,0.35C8.728,22.773,8.853,22.971,9.038,22.999z"/>
	<path class="st0" d="M7.981,22.84c0.179,0.026,0.35-0.127,0.381-0.348c0.032-0.218-0.09-0.415-0.267-0.443
		c-0.179-0.025-0.343,0.129-0.378,0.349C7.688,22.615,7.805,22.813,7.981,22.84z"/>
	<path class="st0" d="M15.371,21.737c-0.037-0.014-0.07-0.023-0.106-0.029c-0.128-0.019-0.258,0.014-0.361,0.093
		c-0.11,0.078-0.18,0.196-0.199,0.329c-0.035,0.23,0.096,0.455,0.307,0.538c0.034,0.014,0.072,0.022,0.108,0.028
		c0.128,0.019,0.26-0.016,0.365-0.094c0.106-0.079,0.176-0.195,0.191-0.326C15.715,22.046,15.58,21.821,15.371,21.737z"/>
	<path class="st0" d="M14.443,22.089c0.033-0.23-0.096-0.459-0.309-0.541c-0.031-0.014-0.067-0.022-0.102-0.026
		c-0.128-0.02-0.253,0.013-0.356,0.09c-0.11,0.08-0.182,0.199-0.201,0.336c-0.035,0.227,0.094,0.456,0.307,0.538
		c0.034,0.013,0.07,0.021,0.105,0.025C14.151,22.552,14.402,22.361,14.443,22.089z"/>
	<path class="st0" d="M12.562,22.306c0.035,0.013,0.066,0.023,0.104,0.025c0.263,0.039,0.51-0.151,0.548-0.425
		c0.038-0.233-0.093-0.461-0.304-0.544c-0.031-0.013-0.066-0.02-0.099-0.026c-0.125-0.017-0.248,0.013-0.349,0.09
		c-0.111,0.08-0.182,0.202-0.204,0.34C12.225,21.999,12.355,22.224,12.562,22.306z"/>
	<path class="st0" d="M11.384,22.083c0.028,0.013,0.061,0.017,0.088,0.024c0.233,0.035,0.449-0.139,0.487-0.386
		c0.033-0.212-0.08-0.417-0.268-0.489c-0.026-0.011-0.057-0.018-0.089-0.02c-0.23-0.036-0.447,0.138-0.482,0.385
		C11.088,21.808,11.2,22.011,11.384,22.083z"/>
	<path class="st0" d="M10.324,21.886c0.192,0.029,0.377-0.127,0.406-0.344c0.033-0.221-0.095-0.422-0.288-0.45
		c-0.192-0.029-0.371,0.126-0.41,0.348C10.002,21.66,10.132,21.86,10.324,21.886z"/>
	<path class="st0" d="M9.617,21.381c0.033-0.22-0.09-0.422-0.276-0.449c-0.187-0.026-0.36,0.131-0.395,0.35
		c-0.033,0.219,0.09,0.417,0.277,0.445C9.407,21.754,9.588,21.598,9.617,21.381z"/>
	<path class="st0" d="M8.547,21.226c0.033-0.218-0.089-0.417-0.263-0.445c-0.177-0.024-0.348,0.133-0.38,0.353
		c-0.03,0.217,0.085,0.415,0.259,0.441C8.341,21.602,8.514,21.445,8.547,21.226z"/>
	<path class="st0" d="M7.157,21.427c0.17,0.027,0.332-0.13,0.366-0.348c0.032-0.217-0.082-0.415-0.25-0.436
		c-0.17-0.024-0.33,0.132-0.363,0.351C6.88,21.21,6.99,21.403,7.157,21.427z"/>
	<path class="st0" d="M12.755,21.038c0.03,0.012,0.061,0.022,0.094,0.028c0.127,0.018,0.253-0.014,0.357-0.089
		c0.106-0.079,0.178-0.198,0.197-0.333c0.038-0.235-0.091-0.461-0.304-0.546c-0.03-0.01-0.066-0.02-0.099-0.023
		c-0.122-0.019-0.247,0.012-0.351,0.087c-0.108,0.079-0.182,0.2-0.199,0.336C12.416,20.727,12.543,20.957,12.755,21.038z"/>
	<path class="st0" d="M12.15,20.451c0.033-0.211-0.082-0.415-0.268-0.488c-0.027-0.011-0.054-0.018-0.084-0.023
		c-0.23-0.035-0.451,0.137-0.486,0.384c-0.034,0.21,0.078,0.415,0.264,0.487c0.03,0.011,0.056,0.018,0.086,0.023
		C11.894,20.868,12.109,20.697,12.15,20.451z"/>
	<path class="st0" d="M10.924,20.267c0.036-0.218-0.097-0.417-0.288-0.445c-0.192-0.028-0.377,0.128-0.409,0.345
		c-0.033,0.22,0.094,0.418,0.286,0.446C10.706,20.64,10.889,20.486,10.924,20.267z"/>
	<path class="st0" d="M9.411,20.458c0.185,0.026,0.363-0.13,0.398-0.349c0.034-0.22-0.089-0.418-0.276-0.443
		c-0.187-0.026-0.361,0.13-0.394,0.347C9.106,20.232,9.226,20.432,9.411,20.458z"/>
	<path class="st0" d="M8.738,19.958c0.03-0.217-0.088-0.415-0.269-0.438c-0.177-0.023-0.347,0.136-0.379,0.351
		c-0.03,0.217,0.081,0.413,0.262,0.439C8.531,20.335,8.702,20.176,8.738,19.958z"/>
	<path class="st0" d="M7.711,19.82c0.031-0.215-0.079-0.411-0.251-0.432c-0.168-0.022-0.328,0.135-0.359,0.351
		c-0.034,0.217,0.071,0.41,0.239,0.434C7.512,20.193,7.678,20.038,7.711,19.82z"/>
	<path class="st0" d="M6.39,20.046c0.156,0.019,0.317-0.137,0.348-0.353c0.032-0.214-0.071-0.407-0.231-0.426
		c-0.161-0.017-0.312,0.139-0.346,0.353C6.131,19.834,6.229,20.026,6.39,20.046z"/>
	<path class="st0" d="M5.5,19.932c0.146,0.018,0.296-0.14,0.324-0.352c0.033-0.212-0.065-0.401-0.209-0.418
		c-0.148-0.015-0.288,0.141-0.321,0.354C5.265,19.726,5.352,19.912,5.5,19.932z"/>
	<path class="st0" d="M14.507,19.039c-0.03-0.013-0.063-0.021-0.095-0.026c-0.128-0.02-0.256,0.009-0.359,0.084
		c-0.107,0.078-0.18,0.194-0.198,0.33c-0.037,0.231,0.092,0.461,0.306,0.543c0.031,0.011,0.063,0.02,0.096,0.026
		c0.13,0.021,0.258-0.011,0.363-0.087c0.104-0.078,0.176-0.196,0.196-0.328C14.852,19.35,14.72,19.123,14.507,19.039z"/>
	<path class="st0" d="M13.296,18.84c-0.034-0.011-0.066-0.02-0.1-0.024c-0.122-0.021-0.249,0.01-0.351,0.083
		c-0.108,0.082-0.179,0.199-0.202,0.335c-0.034,0.231,0.093,0.461,0.302,0.543c0.033,0.012,0.066,0.02,0.097,0.025
		c0.128,0.02,0.251-0.013,0.355-0.086c0.108-0.079,0.181-0.2,0.199-0.333C13.632,19.151,13.503,18.923,13.296,18.84z"/>
	<path class="st0" d="M11.769,19.544c0.03,0.012,0.059,0.018,0.085,0.025c0.23,0.035,0.452-0.137,0.492-0.383
		c0.029-0.208-0.082-0.411-0.268-0.485c-0.027-0.009-0.056-0.018-0.086-0.022c-0.227-0.035-0.447,0.136-0.486,0.381
		C11.476,19.268,11.586,19.474,11.769,19.544z"/>
	<path class="st0" d="M11.121,19.001c0.034-0.217-0.094-0.416-0.289-0.442c-0.192-0.029-0.374,0.127-0.406,0.341
		c-0.039,0.22,0.09,0.42,0.284,0.445C10.9,19.374,11.089,19.22,11.121,19.001z"/>
	<path class="st0" d="M10.007,18.845c0.034-0.219-0.091-0.416-0.278-0.442c-0.185-0.026-0.362,0.13-0.398,0.349
		c-0.035,0.217,0.088,0.412,0.272,0.438C9.793,19.217,9.97,19.061,10.007,18.845z"/>
	<path class="st0" d="M8.929,18.698c0.035-0.217-0.082-0.412-0.265-0.432c-0.177-0.023-0.346,0.133-0.379,0.35
		c-0.035,0.216,0.08,0.411,0.256,0.433C8.722,19.071,8.898,18.915,8.929,18.698z"/>
	<path class="st0" d="M7.534,18.919c0.167,0.021,0.332-0.136,0.366-0.353c0.035-0.217-0.079-0.408-0.249-0.427
		c-0.169-0.02-0.331,0.138-0.362,0.352C7.254,18.707,7.365,18.897,7.534,18.919z"/>
	<path class="st0" d="M6.924,18.447c0.033-0.211-0.073-0.401-0.233-0.42c-0.157-0.02-0.309,0.143-0.342,0.355
		c-0.033,0.214,0.067,0.4,0.226,0.419C6.736,18.822,6.893,18.663,6.924,18.447z"/>
	<path class="st0" d="M6.013,18.346c0.032-0.214-0.066-0.397-0.212-0.412c-0.15-0.015-0.292,0.145-0.326,0.355
		c-0.029,0.212,0.061,0.396,0.209,0.411C5.832,18.718,5.98,18.558,6.013,18.346z"/>
	<path class="st0" d="M15.006,18.34c0.035-0.229-0.096-0.459-0.306-0.543c-0.034-0.01-0.063-0.019-0.098-0.024
		c-0.124-0.025-0.255,0.007-0.357,0.081c-0.109,0.079-0.177,0.194-0.196,0.326c-0.04,0.232,0.092,0.459,0.307,0.542
		c0.029,0.014,0.062,0.023,0.095,0.025c0.125,0.023,0.255-0.008,0.36-0.082C14.916,18.586,14.985,18.471,15.006,18.34z"/>
	<path class="st0" d="M13.793,18.133c0.033-0.229-0.093-0.458-0.306-0.539c-0.029-0.012-0.06-0.021-0.094-0.025
		c-0.124-0.021-0.244,0.009-0.35,0.084c-0.109,0.079-0.179,0.194-0.203,0.329c-0.034,0.232,0.093,0.458,0.306,0.54
		c0.029,0.012,0.057,0.022,0.091,0.026c0.126,0.021,0.252-0.011,0.354-0.083C13.7,18.386,13.77,18.269,13.793,18.133z"/>
	<path class="st0" d="M12.279,17.453c-0.027-0.013-0.054-0.018-0.082-0.023c-0.23-0.038-0.448,0.134-0.487,0.373
		c-0.037,0.21,0.076,0.413,0.263,0.484c0.026,0.011,0.053,0.018,0.081,0.024c0.231,0.037,0.451-0.133,0.489-0.374
		C12.575,17.725,12.466,17.523,12.279,17.453z"/>
	<path class="st0" d="M10.909,18.086c0.191,0.028,0.379-0.125,0.415-0.341c0.035-0.214-0.094-0.411-0.288-0.44
		c-0.196-0.026-0.379,0.126-0.412,0.342C10.591,17.864,10.713,18.061,10.909,18.086z"/>
	<path class="st0" d="M10.206,17.59c0.034-0.217-0.09-0.411-0.276-0.437c-0.189-0.025-0.365,0.13-0.399,0.345
		c-0.034,0.215,0.086,0.41,0.272,0.437C9.991,17.958,10.172,17.805,10.206,17.59z"/>
	<path class="st0" d="M8.739,17.794c0.18,0.023,0.352-0.132,0.387-0.348c0.035-0.214-0.081-0.407-0.261-0.43
		c-0.182-0.022-0.351,0.136-0.385,0.35C8.444,17.578,8.563,17.773,8.739,17.794z"/>
	<path class="st0" d="M8.096,17.318c0.034-0.212-0.078-0.404-0.25-0.422c-0.172-0.02-0.329,0.137-0.366,0.352
		c-0.033,0.214,0.076,0.403,0.243,0.423C7.893,17.691,8.061,17.534,8.096,17.318z"/>
	<path class="st0" d="M6.767,17.562c0.157,0.018,0.319-0.141,0.351-0.354c0.035-0.214-0.074-0.402-0.237-0.416
		c-0.154-0.018-0.31,0.142-0.341,0.356C6.504,17.361,6.605,17.546,6.767,17.562z"/>
	<path class="st0" d="M6.198,17.116c0.034-0.211-0.063-0.394-0.211-0.407c-0.148-0.014-0.292,0.149-0.324,0.359
		c-0.03,0.209,0.059,0.392,0.207,0.405C6.018,17.485,6.166,17.329,6.198,17.116z"/>
	<path class="st0" d="M5.042,17.404c0.135,0.009,0.274-0.151,0.307-0.36c0.031-0.211-0.055-0.387-0.192-0.398
		c-0.133-0.011-0.268,0.153-0.301,0.361C4.825,17.215,4.908,17.392,5.042,17.404z"/>
	<path class="st0" d="M4.293,17.351c0.12,0.008,0.248-0.155,0.281-0.361c0.03-0.207-0.048-0.382-0.169-0.387
		c-0.122-0.005-0.245,0.159-0.273,0.363C4.103,17.175,4.172,17.345,4.293,17.351z"/>
	<path class="st0" d="M3.737,16.584c-0.111,0.001-0.217,0.164-0.244,0.367c-0.03,0.202,0.027,0.367,0.136,0.37
		c0.107,0.004,0.22-0.159,0.254-0.362C3.908,16.756,3.842,16.587,3.737,16.584z"/>
	<path class="st0" d="M14.241,16.948c-0.039,0.231,0.095,0.456,0.305,0.539c0.031,0.012,0.06,0.02,0.094,0.024
		c0.129,0.024,0.255-0.005,0.36-0.083c0.108-0.075,0.174-0.186,0.195-0.316c0.037-0.23-0.091-0.458-0.31-0.54
		c-0.028-0.011-0.058-0.02-0.088-0.026c-0.125-0.023-0.255,0.006-0.36,0.08C14.333,16.701,14.26,16.816,14.241,16.948z"/>
	<path class="st0" d="M13.988,16.902c0.037-0.228-0.09-0.458-0.302-0.539c-0.031-0.011-0.063-0.02-0.093-0.026
		c-0.122-0.022-0.249,0.008-0.351,0.08c-0.11,0.079-0.179,0.195-0.202,0.326c-0.036,0.231,0.089,0.456,0.303,0.539
		c0.029,0.011,0.061,0.02,0.093,0.024c0.123,0.021,0.249-0.01,0.355-0.083C13.898,17.147,13.967,17.033,13.988,16.902z"/>
	<path class="st0" d="M12.483,16.216c-0.026-0.01-0.054-0.018-0.082-0.022c-0.226-0.038-0.446,0.128-0.483,0.37
		c-0.038,0.205,0.073,0.406,0.257,0.479c0.026,0.01,0.055,0.018,0.08,0.023c0.234,0.035,0.45-0.13,0.491-0.369
		C12.779,16.492,12.67,16.288,12.483,16.216z"/>
	<path class="st0" d="M11.533,16.504c0.034-0.213-0.096-0.408-0.288-0.435c-0.195-0.029-0.378,0.12-0.417,0.334
		c-0.036,0.214,0.091,0.408,0.287,0.436C11.307,16.868,11.495,16.719,11.533,16.504z"/>
	<path class="st0" d="M9.731,16.257c-0.035,0.212,0.088,0.404,0.276,0.43c0.184,0.026,0.368-0.128,0.404-0.341
		c0.037-0.216-0.092-0.407-0.277-0.432C9.946,15.888,9.768,16.042,9.731,16.257z"/>
	<path class="st0" d="M8.678,16.124c-0.035,0.214,0.079,0.405,0.259,0.424c0.182,0.023,0.357-0.133,0.393-0.344
		c0.035-0.213-0.087-0.404-0.267-0.427C8.885,15.756,8.714,15.91,8.678,16.124z"/>
	<path class="st0" d="M8.296,16.079c0.03-0.211-0.083-0.399-0.253-0.418c-0.169-0.02-0.333,0.139-0.366,0.35
		c-0.036,0.213,0.071,0.398,0.245,0.417C8.092,16.449,8.259,16.294,8.296,16.079z"/>
	<path class="st0" d="M7.309,15.977c0.036-0.211-0.07-0.399-0.229-0.412c-0.163-0.015-0.317,0.144-0.349,0.357
		c-0.035,0.21,0.065,0.391,0.226,0.409C7.118,16.346,7.277,16.188,7.309,15.977z"/>
	<path class="st0" d="M5.849,15.852c-0.032,0.207,0.058,0.387,0.211,0.398c0.146,0.012,0.294-0.148,0.329-0.357
		c0.033-0.212-0.064-0.392-0.215-0.403C6.023,15.48,5.881,15.641,5.849,15.852z"/>
	<path class="st0" d="M5.037,15.803c-0.028,0.206,0.053,0.381,0.187,0.388c0.136,0.01,0.276-0.152,0.31-0.363
		c0.031-0.206-0.055-0.383-0.193-0.391C5.206,15.431,5.071,15.594,5.037,15.803z"/>
	<path class="st0" d="M4.752,15.792c0.032-0.207-0.048-0.377-0.166-0.379c-0.125-0.003-0.245,0.161-0.278,0.366
		c-0.032,0.204,0.04,0.374,0.166,0.377C4.596,16.162,4.725,15.996,4.752,15.792z"/>
	<path class="st0" d="M3.909,15.408c-0.108,0.002-0.216,0.169-0.246,0.371c-0.029,0.202,0.029,0.364,0.135,0.365
		c0.109,0,0.227-0.165,0.256-0.367C4.083,15.572,4.015,15.408,3.909,15.408z"/>
	<path class="st0" d="M14.434,15.731c-0.036,0.229,0.094,0.455,0.308,0.537c0.029,0.011,0.061,0.02,0.09,0.025
		c0.129,0.025,0.258-0.003,0.363-0.079c0.104-0.073,0.173-0.185,0.191-0.312c0.038-0.226-0.094-0.45-0.308-0.535
		c-0.027-0.011-0.059-0.019-0.089-0.023c-0.125-0.026-0.252,0.002-0.36,0.076C14.525,15.493,14.455,15.606,14.434,15.731z"/>
	<path class="st0" d="M13.883,15.151c-0.027-0.011-0.059-0.019-0.09-0.025c-0.123-0.02-0.249,0.009-0.35,0.081
		c-0.107,0.074-0.175,0.186-0.201,0.318c-0.037,0.225,0.089,0.451,0.3,0.532c0.03,0.013,0.059,0.019,0.094,0.026
		c0.121,0.021,0.248-0.008,0.351-0.082c0.107-0.076,0.176-0.188,0.198-0.316C14.223,15.456,14.097,15.233,13.883,15.151z"/>
	<path class="st0" d="M12.124,15.34c-0.034,0.205,0.074,0.404,0.257,0.474c0.026,0.013,0.055,0.019,0.083,0.023
		c0.231,0.037,0.446-0.126,0.486-0.362c0.035-0.204-0.073-0.403-0.26-0.473c-0.026-0.011-0.051-0.02-0.081-0.022
		C12.384,14.942,12.164,15.105,12.124,15.34z"/>
	<path class="st0" d="M11.039,15.179c-0.039,0.209,0.089,0.404,0.284,0.432c0.193,0.028,0.384-0.12,0.421-0.328
		c0.032-0.209-0.097-0.402-0.289-0.431C11.258,14.823,11.074,14.968,11.039,15.179z"/>
	<path class="st0" d="M10.617,15.119c0.035-0.211-0.089-0.399-0.276-0.428c-0.191-0.025-0.366,0.125-0.406,0.338
		c-0.033,0.209,0.088,0.398,0.277,0.423C10.401,15.478,10.58,15.328,10.617,15.119z"/>
	<path class="st0" d="M9.532,14.974c0.039-0.21-0.085-0.398-0.265-0.419c-0.18-0.023-0.352,0.13-0.39,0.342
		c-0.031,0.21,0.082,0.398,0.263,0.419C9.32,15.34,9.497,15.188,9.532,14.974z"/>
	<path class="st0" d="M8.491,14.854c0.036-0.212-0.075-0.396-0.249-0.414c-0.173-0.018-0.336,0.139-0.371,0.348
		c-0.034,0.211,0.074,0.395,0.246,0.414C8.287,15.22,8.461,15.063,8.491,14.854z"/>
	<path class="st0" d="M6.924,14.701c-0.036,0.209,0.065,0.391,0.227,0.404c0.162,0.017,0.318-0.143,0.357-0.353
		c0.032-0.208-0.074-0.39-0.235-0.406C7.108,14.333,6.954,14.492,6.924,14.701z"/>
	<path class="st0" d="M6.58,14.675c0.033-0.207-0.067-0.386-0.216-0.397c-0.151-0.008-0.293,0.152-0.329,0.363
		c-0.029,0.206,0.058,0.384,0.209,0.394C6.395,15.044,6.55,14.884,6.58,14.675z"/>
	<path class="st0" d="M5.72,14.625c0.031-0.208-0.057-0.384-0.194-0.388c-0.139-0.004-0.272,0.161-0.302,0.365
		c-0.034,0.207,0.049,0.379,0.185,0.385C5.546,14.993,5.686,14.832,5.72,14.625z"/>
	<path class="st0" d="M4.934,14.596c0.029-0.207-0.049-0.374-0.174-0.375c-0.125-0.001-0.245,0.166-0.275,0.372
		c-0.03,0.204,0.041,0.37,0.164,0.372C4.771,14.967,4.902,14.801,4.934,14.596z"/>
	<path class="st0" d="M4.229,14.596c0.03-0.206-0.037-0.366-0.147-0.362c-0.111,0.002-0.22,0.174-0.249,0.375
		c-0.029,0.202,0.03,0.362,0.14,0.359C4.084,14.964,4.198,14.799,4.229,14.596z"/>
	<path class="st0" d="M15.269,14.207c-0.03-0.012-0.057-0.019-0.088-0.025c-0.127-0.028-0.258,0.002-0.36,0.074
		c-0.102,0.069-0.167,0.175-0.19,0.296c-0.037,0.221,0.091,0.441,0.303,0.523c0.028,0.014,0.059,0.022,0.088,0.026
		c0.131,0.023,0.26-0.001,0.364-0.075c0.103-0.073,0.168-0.176,0.188-0.296C15.614,14.51,15.48,14.291,15.269,14.207z"/>
	<path class="st0" d="M14.084,13.98c-0.031-0.01-0.056-0.021-0.086-0.026c-0.123-0.022-0.252,0.004-0.355,0.076
		c-0.104,0.072-0.174,0.181-0.193,0.303c-0.042,0.224,0.086,0.442,0.295,0.526c0.029,0.011,0.058,0.02,0.09,0.024
		c0.125,0.024,0.255-0.005,0.359-0.08c0.103-0.069,0.169-0.176,0.193-0.301C14.422,14.282,14.295,14.061,14.084,13.98z"/>
	<path class="st0" d="M12.338,14.141c-0.042,0.202,0.068,0.398,0.256,0.468c0.022,0.012,0.049,0.019,0.078,0.025
		c0.227,0.037,0.443-0.12,0.484-0.351c0.036-0.198-0.07-0.395-0.258-0.465c-0.025-0.011-0.049-0.019-0.077-0.025
		C12.595,13.754,12.377,13.91,12.338,14.141z"/>
	<path class="st0" d="M11.256,13.979c-0.04,0.206,0.084,0.393,0.28,0.421c0.196,0.029,0.381-0.113,0.42-0.32
		c0.037-0.201-0.089-0.392-0.283-0.418C11.478,13.633,11.293,13.777,11.256,13.979z"/>
	<path class="st0" d="M10.837,13.92c0.037-0.201-0.08-0.385-0.268-0.411c-0.188-0.025-0.37,0.121-0.408,0.323
		c-0.044,0.204,0.072,0.387,0.263,0.412C10.607,14.27,10.798,14.125,10.837,13.92z"/>
	<path class="st0" d="M9.105,13.704c-0.044,0.202,0.065,0.382,0.243,0.403c0.181,0.021,0.365-0.123,0.406-0.325
		c0.04-0.205-0.073-0.382-0.251-0.405C9.322,13.355,9.144,13.502,9.105,13.704z"/>
	<path class="st0" d="M8.095,13.599c-0.043,0.201,0.06,0.377,0.231,0.395c0.172,0.017,0.348-0.131,0.39-0.334
		c0.042-0.201-0.066-0.377-0.239-0.393C8.306,13.25,8.134,13.399,8.095,13.599z"/>
	<path class="st0" d="M7.138,13.517c-0.04,0.2,0.055,0.372,0.216,0.385c0.164,0.013,0.33-0.137,0.373-0.337
		c0.041-0.199-0.057-0.375-0.22-0.387C7.343,13.165,7.182,13.318,7.138,13.517z"/>
	<path class="st0" d="M6.794,13.492c0.042-0.201-0.052-0.372-0.201-0.382c-0.154-0.007-0.306,0.148-0.344,0.348
		c-0.044,0.201,0.042,0.369,0.195,0.378C6.595,13.845,6.755,13.692,6.794,13.492z"/>
	<path class="st0" d="M5.425,13.423c-0.036,0.202,0.04,0.367,0.179,0.372c0.135,0.005,0.284-0.151,0.325-0.352
		c0.041-0.202-0.047-0.368-0.187-0.372C5.602,13.065,5.46,13.224,5.425,13.423z"/>
	<path class="st0" d="M4.671,13.418c-0.032,0.2,0.038,0.365,0.162,0.363c0.126,0.001,0.261-0.164,0.299-0.361
		c0.036-0.201-0.039-0.366-0.171-0.366C4.833,13.052,4.705,13.218,4.671,13.418z"/>
	<path class="st0" d="M4.41,13.423c0.033-0.203-0.037-0.361-0.149-0.359c-0.114,0.003-0.226,0.172-0.254,0.373
		c-0.031,0.203,0.028,0.363,0.142,0.357C4.256,13.789,4.378,13.624,4.41,13.423z"/>
	<path class="st0" d="M12.885,13.458c0.227,0.04,0.438-0.108,0.484-0.334c0.042-0.224-0.112-0.444-0.333-0.486
		c-0.106-0.02-0.218,0.002-0.308,0.065c-0.091,0.063-0.154,0.158-0.173,0.269c-0.039,0.199,0.07,0.393,0.256,0.464
		C12.833,13.445,12.857,13.452,12.885,13.458z"/>
	<path class="st0" d="M11.896,12.5c-0.189-0.029-0.376,0.113-0.415,0.312c-0.039,0.199,0.084,0.383,0.276,0.409
		c0.194,0.028,0.38-0.114,0.419-0.314C12.211,12.707,12.088,12.527,11.896,12.5z"/>
	<path class="st0" d="M10.392,12.67c-0.038,0.198,0.077,0.379,0.263,0.404c0.187,0.024,0.374-0.118,0.411-0.318
		c0.04-0.199-0.077-0.38-0.266-0.403C10.618,12.329,10.434,12.472,10.392,12.67z"/>
	<path class="st0" d="M9.341,12.548c-0.041,0.199,0.07,0.376,0.248,0.396c0.181,0.021,0.361-0.124,0.404-0.322
		c0.04-0.198-0.074-0.375-0.25-0.397C9.563,12.207,9.383,12.349,9.341,12.548z"/>
	<path class="st0" d="M8.338,12.444c-0.044,0.199,0.062,0.372,0.231,0.39c0.173,0.017,0.346-0.13,0.389-0.326
		c0.039-0.197-0.064-0.375-0.237-0.392C8.551,12.101,8.38,12.248,8.338,12.444z"/>
	<path class="st0" d="M7.97,12.412c0.042-0.197-0.057-0.367-0.222-0.381c-0.163-0.015-0.324,0.135-0.365,0.333
		c-0.042,0.199,0.05,0.369,0.215,0.38C7.758,12.759,7.926,12.61,7.97,12.412z"/>
	<path class="st0" d="M6.482,12.303c-0.042,0.2,0.047,0.367,0.198,0.375c0.155,0.011,0.315-0.142,0.352-0.339
		c0.042-0.197-0.051-0.368-0.203-0.377C6.675,11.953,6.522,12.106,6.482,12.303z"/>
	<path class="st0" d="M5.639,12.267c-0.036,0.199,0.043,0.365,0.187,0.368c0.143,0.006,0.292-0.147,0.332-0.349
		c0.038-0.196-0.05-0.362-0.191-0.37C5.822,11.911,5.679,12.069,5.639,12.267z"/>
	<path class="st0" d="M4.874,12.254c-0.037,0.2,0.036,0.365,0.162,0.367c0.131,0,0.267-0.158,0.307-0.361
		c0.039-0.198-0.045-0.363-0.175-0.367C5.04,11.892,4.906,12.056,4.874,12.254z"/>
	<path class="st0" d="M13.58,11.99c0.039-0.214-0.101-0.431-0.326-0.478c-0.115-0.023-0.223-0.002-0.313,0.059
		c-0.089,0.059-0.153,0.152-0.173,0.259c-0.038,0.196,0.068,0.389,0.259,0.461c0.02,0.009,0.045,0.016,0.068,0.02
		c0.11,0.023,0.22-0.002,0.315-0.063C13.5,12.188,13.557,12.096,13.58,11.99z"/>
	<path class="st0" d="M11.708,11.67c-0.039,0.196,0.083,0.375,0.274,0.398c0.187,0.029,0.374-0.109,0.414-0.303
		c0.036-0.196-0.087-0.374-0.276-0.399C11.932,11.341,11.751,11.474,11.708,11.67z"/>
	<path class="st0" d="M10.631,11.534c-0.039,0.191,0.077,0.368,0.257,0.393c0.186,0.024,0.371-0.116,0.41-0.311
		c0.04-0.193-0.077-0.37-0.26-0.394C10.852,11.2,10.672,11.338,10.631,11.534z"/>
	<path class="st0" d="M9.59,11.41c-0.044,0.195,0.067,0.368,0.243,0.39c0.181,0.021,0.355-0.122,0.4-0.316
		c0.042-0.193-0.07-0.366-0.247-0.388C9.806,11.076,9.629,11.219,9.59,11.41z"/>
	<path class="st0" d="M8.968,10.988c-0.173-0.017-0.343,0.125-0.385,0.32c-0.042,0.195,0.061,0.366,0.231,0.383
		c0.17,0.017,0.346-0.127,0.39-0.322C9.249,11.175,9.141,11.006,8.968,10.988z"/>
	<path class="st0" d="M7.624,11.224C7.583,11.42,7.676,11.589,7.843,11.6c0.16,0.017,0.33-0.132,0.37-0.325
		c0.043-0.195-0.055-0.367-0.221-0.38C7.829,10.882,7.666,11.03,7.624,11.224z"/>
	<path class="st0" d="M6.715,11.161c-0.04,0.194,0.05,0.362,0.204,0.373c0.153,0.01,0.314-0.14,0.354-0.337
		c0.043-0.196-0.053-0.364-0.205-0.375C6.911,10.812,6.756,10.965,6.715,11.161z"/>
	<path class="st0" d="M5.862,11.118c-0.038,0.197,0.046,0.362,0.19,0.368c0.14,0.007,0.292-0.148,0.333-0.344
		c0.039-0.196-0.049-0.362-0.195-0.37C6.047,10.763,5.898,10.919,5.862,11.118z"/>
	<path class="st0" d="M5.373,10.74c-0.134-0.005-0.27,0.155-0.302,0.356c-0.035,0.2,0.043,0.362,0.173,0.365
		c0.136,0.003,0.275-0.156,0.312-0.354C5.591,10.909,5.51,10.745,5.373,10.74z"/>
	<path class="st0" d="M11.939,10.56c-0.039,0.19,0.081,0.362,0.269,0.389c0.185,0.024,0.371-0.107,0.411-0.297
		c0.039-0.189-0.085-0.359-0.271-0.387C12.162,10.241,11.981,10.372,11.939,10.56z"/>
	<path class="st0" d="M10.871,10.422c-0.043,0.189,0.073,0.361,0.256,0.384c0.181,0.024,0.364-0.11,0.405-0.3
		c0.043-0.19-0.075-0.36-0.257-0.384C11.091,10.1,10.911,10.231,10.871,10.422z"/>
	<path class="st0" d="M10.228,9.993c-0.176-0.021-0.354,0.116-0.397,0.306c-0.041,0.192,0.067,0.36,0.246,0.381
		c0.179,0.02,0.358-0.117,0.394-0.306C10.517,10.184,10.404,10.014,10.228,9.993z"/>
	<path class="st0" d="M8.831,10.19c-0.042,0.192,0.06,0.359,0.23,0.378c0.173,0.02,0.348-0.122,0.389-0.314
		c0.044-0.189-0.064-0.358-0.236-0.375C9.045,9.861,8.872,10.001,8.831,10.19z"/>
	<path class="st0" d="M7.866,10.102c-0.039,0.192,0.056,0.36,0.22,0.373c0.165,0.015,0.334-0.127,0.376-0.318
		c0.044-0.193-0.057-0.361-0.225-0.375C8.073,9.766,7.91,9.909,7.866,10.102z"/>
	<path class="st0" d="M6.95,10.029c-0.038,0.194,0.049,0.359,0.206,0.372c0.153,0.011,0.316-0.137,0.36-0.33
		c0.041-0.192-0.054-0.36-0.209-0.374C7.147,9.688,6.989,9.836,6.95,10.029z"/>
	<path class="st0" d="M6.418,9.636c-0.15-0.009-0.298,0.142-0.337,0.34c-0.038,0.196,0.049,0.36,0.196,0.368
		c0.146,0.008,0.299-0.143,0.336-0.335C6.652,9.812,6.565,9.645,6.418,9.636z"/>
	<path class="st0" d="M13.209,9.652c-0.043,0.19,0.067,0.379,0.253,0.453c0.024,0.004,0.045,0.011,0.061,0.018
		c0.111,0.024,0.226,0.006,0.317-0.056c0.084-0.054,0.141-0.137,0.162-0.233c0.04-0.205-0.098-0.414-0.321-0.465
		c-0.111-0.027-0.221-0.009-0.31,0.048C13.285,9.473,13.227,9.555,13.209,9.652z"/>
	<path class="st0" d="M12.575,9.204c-0.184-0.025-0.364,0.097-0.405,0.283c-0.04,0.181,0.076,0.352,0.266,0.377
		c0.183,0.028,0.364-0.102,0.404-0.284C12.882,9.398,12.761,9.231,12.575,9.204z"/>
	<path class="st0" d="M11.511,9.053c-0.181-0.024-0.36,0.105-0.4,0.287c-0.043,0.186,0.073,0.353,0.252,0.378
		c0.185,0.023,0.363-0.108,0.406-0.291C11.808,9.245,11.692,9.08,11.511,9.053z"/>
	<path class="st0" d="M10.078,9.211c-0.043,0.187,0.066,0.352,0.24,0.373c0.178,0.023,0.358-0.11,0.398-0.295
		c0.044-0.184-0.068-0.352-0.245-0.374C10.298,8.893,10.12,9.026,10.078,9.211z"/>
	<path class="st0" d="M9.078,9.095C9.033,9.284,9.134,9.452,9.308,9.468c0.173,0.019,0.344-0.116,0.39-0.303
		C9.74,8.978,9.633,8.815,9.463,8.793C9.289,8.774,9.12,8.909,9.078,9.095z"/>
	<path class="st0" d="M8.113,8.993C8.069,9.186,8.168,9.351,8.329,9.368c0.166,0.015,0.337-0.126,0.377-0.314
		c0.044-0.186-0.06-0.352-0.223-0.369C8.32,8.666,8.153,8.805,8.113,8.993z"/>
	<path class="st0" d="M7.545,8.59C7.384,8.575,7.224,8.719,7.184,8.91c-0.041,0.192,0.051,0.358,0.21,0.371
		c0.156,0.014,0.322-0.13,0.361-0.321C7.798,8.77,7.702,8.605,7.545,8.59z"/>
	<path class="st0" d="M13.899,8.359c-0.11-0.028-0.227-0.012-0.315,0.045c-0.081,0.049-0.139,0.13-0.159,0.22
		c-0.036,0.18,0.071,0.371,0.259,0.444c0.019,0.008,0.037,0.011,0.055,0.017c0.112,0.026,0.226,0.009,0.318-0.049
		c0.081-0.05,0.133-0.128,0.154-0.221C14.253,8.621,14.113,8.414,13.899,8.359z"/>
	<path class="st0" d="M12.401,8.447c-0.039,0.175,0.078,0.34,0.26,0.366c0.183,0.031,0.366-0.091,0.404-0.266
		c0.036-0.174-0.083-0.337-0.261-0.367C12.62,8.153,12.442,8.272,12.401,8.447z"/>
	<path class="st0" d="M11.353,8.295C11.311,8.472,11.42,8.637,11.6,8.663c0.18,0.025,0.363-0.1,0.404-0.277
		c0.038-0.174-0.076-0.339-0.255-0.365C11.57,7.996,11.392,8.117,11.353,8.295z"/>
	<path class="st0" d="M10.324,8.151c-0.042,0.181,0.065,0.346,0.24,0.371c0.173,0.023,0.354-0.104,0.395-0.283
		c0.041-0.18-0.066-0.344-0.242-0.367C10.542,7.846,10.367,7.974,10.324,8.151z"/>
	<path class="st0" d="M9.325,8.024c-0.044,0.182,0.058,0.347,0.231,0.37c0.17,0.021,0.347-0.114,0.387-0.29
		C9.984,7.92,9.881,7.758,9.71,7.735C9.538,7.71,9.366,7.841,9.325,8.024z"/>
	<path class="st0" d="M8.727,7.61c-0.165-0.021-0.33,0.111-0.373,0.298C8.312,8.094,8.411,8.259,8.575,8.28
		c0.166,0.015,0.336-0.119,0.38-0.302C8.999,7.795,8.895,7.63,8.727,7.61z"/>
	<path class="st0" d="M14.683,7.921c-0.041,0.197,0.087,0.408,0.303,0.491c0.015,0.006,0.037,0.01,0.055,0.016
		c0.127,0.035,0.259,0.017,0.36-0.046c0.089-0.055,0.15-0.137,0.168-0.233c0.046-0.218-0.109-0.438-0.354-0.504
		c-0.128-0.035-0.257-0.022-0.36,0.043C14.767,7.74,14.706,7.822,14.683,7.921z"/>
	<path class="st0" d="M13.643,7.641c-0.036,0.175,0.076,0.362,0.261,0.436c0.014,0.006,0.032,0.012,0.046,0.015
		c0.113,0.029,0.231,0.015,0.323-0.044c0.074-0.048,0.129-0.12,0.149-0.206c0.039-0.187-0.096-0.388-0.309-0.445
		c-0.11-0.031-0.226-0.017-0.317,0.04C13.717,7.484,13.665,7.555,13.643,7.641z"/>
	<path class="st0" d="M13.033,7.204c-0.182-0.031-0.361,0.079-0.398,0.246c-0.042,0.168,0.072,0.331,0.249,0.359
		c0.187,0.029,0.366-0.083,0.403-0.249C13.326,7.394,13.211,7.235,13.033,7.204z"/>
	<path class="st0" d="M11.589,7.283c-0.038,0.171,0.07,0.334,0.249,0.361c0.18,0.03,0.359-0.09,0.395-0.257
		c0.046-0.169-0.068-0.33-0.245-0.359C11.808,6.998,11.634,7.113,11.589,7.283z"/>
	<path class="st0" d="M10.571,7.126c-0.041,0.173,0.061,0.338,0.237,0.363c0.176,0.026,0.352-0.094,0.395-0.265
		c0.041-0.173-0.065-0.334-0.24-0.363C10.79,6.832,10.614,6.95,10.571,7.126z"/>
	<path class="st0" d="M9.958,6.703C9.787,6.677,9.614,6.799,9.572,6.977C9.528,7.156,9.631,7.322,9.804,7.344
		c0.167,0.024,0.342-0.1,0.387-0.275C10.231,6.894,10.128,6.73,9.958,6.703z"/>
	<path class="st0" d="M15.183,7.479c0.014,0.008,0.032,0.014,0.051,0.018c0.129,0.034,0.261,0.02,0.364-0.042
		c0.085-0.051,0.142-0.13,0.16-0.22c0.044-0.204-0.107-0.423-0.348-0.491c-0.128-0.038-0.261-0.025-0.363,0.037
		c-0.082,0.048-0.139,0.127-0.16,0.22C14.844,7.19,14.972,7.399,15.183,7.479z"/>
	<path class="st0" d="M14.118,7.133c0.018,0.006,0.034,0.01,0.049,0.013c0.113,0.032,0.225,0.019,0.318-0.035
		c0.075-0.044,0.126-0.112,0.144-0.192c0.043-0.179-0.094-0.374-0.304-0.434c-0.111-0.031-0.227-0.021-0.32,0.033
		c-0.073,0.043-0.125,0.111-0.142,0.19C13.821,6.878,13.933,7.061,14.118,7.133z"/>
	<path class="st0" d="M13.119,6.85c0.176,0.03,0.355-0.072,0.392-0.23c0.039-0.158-0.075-0.312-0.254-0.345
		c-0.178-0.036-0.355,0.065-0.393,0.225C12.824,6.66,12.936,6.819,13.119,6.85z"/>
	<path class="st0" d="M12.224,6.078c-0.175-0.036-0.354,0.07-0.394,0.234c-0.04,0.164,0.069,0.322,0.247,0.353
		c0.176,0.033,0.354-0.076,0.393-0.235C12.512,6.264,12.401,6.11,12.224,6.078z"/>
	<path class="st0" d="M11.205,5.886c-0.173-0.031-0.346,0.077-0.389,0.246c-0.044,0.169,0.061,0.329,0.239,0.357
		c0.174,0.031,0.35-0.082,0.388-0.246C11.484,6.078,11.377,5.92,11.205,5.886z"/>
	<path class="st0" d="M15.383,6.603c0.015,0.005,0.029,0.009,0.044,0.014c0.13,0.04,0.261,0.027,0.365-0.034
		c0.083-0.048,0.135-0.12,0.155-0.204c0.042-0.195-0.107-0.407-0.34-0.481c-0.132-0.039-0.264-0.028-0.366,0.03
		c-0.082,0.046-0.133,0.119-0.158,0.207C15.041,6.319,15.173,6.519,15.383,6.603z"/>
	<path class="st0" d="M14.337,6.241c0.012,0.006,0.026,0.008,0.039,0.014c0.115,0.032,0.23,0.022,0.32-0.031
		c0.073-0.041,0.118-0.103,0.138-0.175c0.04-0.173-0.092-0.36-0.296-0.423c-0.115-0.034-0.232-0.024-0.321,0.029
		c-0.068,0.036-0.118,0.098-0.136,0.173C14.036,5.99,14.151,6.169,14.337,6.241z"/>
	<path class="st0" d="M13.344,5.938c0.176,0.037,0.352-0.057,0.388-0.205c0.039-0.145-0.072-0.297-0.25-0.336
		c-0.175-0.039-0.349,0.049-0.39,0.2C13.052,5.749,13.165,5.903,13.344,5.938z"/>
</g>
<path class="st1" d="M92.166,32.201l-0.03-4.204l4.197-0.03c0.768-0.005,1.481-0.354,1.947-0.911
	c0.003-0.004,0.007-0.008,0.01-0.012c0.077-0.093,0.143-0.194,0.205-0.298c0.027-0.047,0.052-0.095,0.077-0.143
	c0.037-0.074,0.071-0.15,0.1-0.228c0.029-0.077,0.052-0.157,0.072-0.237c0.017-0.067,0.034-0.133,0.045-0.202
	c0.013-0.077,0.017-0.156,0.022-0.234c0.006-0.1,0.009-0.199,0.004-0.296c-0.004-0.076-0.013-0.151-0.024-0.226
	c-0.014-0.093-0.033-0.184-0.057-0.273c-0.02-0.071-0.041-0.141-0.067-0.209c-0.032-0.086-0.07-0.169-0.112-0.25
	c-0.033-0.064-0.066-0.128-0.104-0.188c-0.049-0.077-0.104-0.15-0.161-0.221c-0.044-0.055-0.087-0.11-0.135-0.161
	c-0.064-0.067-0.135-0.127-0.206-0.187c-0.053-0.044-0.103-0.09-0.16-0.13c-0.079-0.055-0.166-0.101-0.251-0.147
	c-0.058-0.031-0.113-0.066-0.173-0.092c-0.099-0.043-0.205-0.072-0.311-0.102c-0.054-0.015-0.105-0.037-0.161-0.049
	c-0.164-0.034-0.333-0.053-0.508-0.052l-4.282,0.031l-0.03-4.201c0-0.031-0.004-0.06-0.005-0.091L91.964,4.766
	c0-0.027-0.007-0.052-0.009-0.079c-0.052-1.291-1.157-2.363-2.459-2.353l-0.261,0.002c-0.674,0.005-1.305,0.269-1.803,0.742
	c-0.166,0.158-0.317,0.339-0.45,0.541L73.759,23.393l0,0v0L60.248,3.805c-0.509-0.647-1.045-1.027-1.646-1.174
	c-0.2-0.049-0.407-0.072-0.623-0.071l-0.133,0.001c0,0-0.934-0.002-1.881-0.002c-0.21,0-0.422,0-0.624,0c-0.202,0-0.394,0-0.567,0
	c-0.259,0-0.475,0.001-0.612,0.002c-0.504,0.004-0.966,0.155-1.346,0.414S52.138,3.6,51.961,4.033
	c-0.117,0.288-0.181,0.607-0.178,0.942l0.199,27.696L29.048,3.994c-0.158-0.2-0.322-0.374-0.492-0.523
	c-0.512-0.446-1.083-0.663-1.73-0.659l-0.417,0.003c-1.295,0.009-2.377,1.083-2.423,2.366c-0.001,0.035-0.01,0.067-0.01,0.102
	l0.17,23.572l0.002,0.279l0.013,1.743l0.004,0.521l0.002,0.282l0.005,0.751l0,0l0.001,0.147l0.005,0.756l0.002,0.26l0.004,0.488
	l0.009,1.28l0.004,0.538l0.001,0.189l0.005,0.713l0.001,0.091l0,0l0.005,0.657l0.002,0.238l0.003,0.406l0.002,0.285
	c-0.046,0.232-0.123,0.445-0.215,0.649c-0.012,0.026-0.015,0.058-0.028,0.084c-0.011,0.022-0.03,0.039-0.042,0.06
	c-0.024,0.045-0.041,0.096-0.067,0.139c-0.004-0.006-0.014-0.009-0.019-0.015c-0.044,0.062-0.08,0.129-0.13,0.186l-0.113,0.13
	c-0.076,0.087-0.163,0.162-0.251,0.237c0.014,0.001,0.025,0.006,0.039,0.006c-0.033,0.026-0.079,0.041-0.114,0.065
	c-0.119,0.09-0.248,0.166-0.388,0.221c-0.002,0.001-0.004,0.001-0.006,0.002c-0.42,0.164-0.879,0.244-1.345,0.29l-0.733,0.049
	c-0.12,0.005-0.239,0.011-0.358,0.015l-0.652,0.018c-0.007,0-0.013,0-0.02-0.001c-0.12-0.003-0.241-0.004-0.363-0.005l-0.62-0.007
	c-0.301-0.006-0.6-0.018-0.894-0.057c-0.552-0.073-1.104-0.146-1.655-0.22v0l0,0l-0.529-0.127c0,0,0,0.001,0,0.002
	c-0.548-0.134-1.09-0.278-1.627-0.438h0c0,0,0,0,0,0l-0.433-0.13c-0.27-0.086-0.539-0.177-0.807-0.276
	c-0.764-0.28-1.498-0.651-2.216-1.058c-0.855-0.484-1.683-1.027-2.447-1.642c-0.469-0.377-0.917-0.774-1.342-1.184
	c-2.615-2.521-4.38-5.714-5.203-9.242c-0.125-0.537-0.224-1.076-0.297-1.617s-0.121-1.083-0.144-1.625
	c-0.075-1.771,0.128-3.538,0.553-5.258c0.179-0.724,0.401-1.437,0.661-2.14c0.126-0.341,0.26-0.678,0.405-1.013
	c0.149-0.346,0.295-0.693,0.464-1.031c1.04-2.088,2.565-3.912,4.292-5.463c1.548-1.378,3.308-2.382,5.18-3.245
	c-1.359,0.583-2.665,1.219-3.89,2.057c-1.09,0.746-2.075,1.605-2.986,2.547c-0.304,0.314-0.599,0.637-0.887,0.969
	c-0.286,0.329-0.56,0.672-0.823,1.028c-0.787,1.067-1.464,2.246-2.009,3.483c-0.726,1.649-1.217,3.402-1.417,5.131
	c-0.052,0.451-0.091,0.904-0.117,1.358c-0.179,3.178,0.31,6.403,1.699,9.292c0.828,1.723,1.817,3.323,3.097,4.756
	c0.767,0.859,1.617,1.684,2.534,2.422s1.903,1.388,2.944,1.898c0.271,0.133,0.543,0.267,0.818,0.399
	c0.824,0.395,1.668,0.767,2.545,1.004c0.594,0.16,1.182,0.3,1.775,0.419s1.189,0.218,1.799,0.297
	c0.264,0.035,0.545,0.058,0.83,0.074c0.853,0.047,1.729,0.023,2.21,0.015c0.215-0.003,0.986-0.036,1.82-0.042c0,0,0.001,0,0.001,0
	c0,0,0,0,0.001,0c0.08-0.001,0.126-0.001,0.126-0.001s3.935-0.003,3.929-0.005c1.29-0.066,2.277-1.101,2.267-2.407l-0.204-28.376
	l23.409,29.25c0.323,0.398,1.068,1.32,2.223,1.312l3.491-0.025c0.004,0,0.009,0.001,0.014,0.001c0.004,0,0.01-0.002,0.014-0.002
	l0.155-0.001c0.051,0,0.096-0.023,0.145-0.03c0.148-0.02,0.292-0.053,0.43-0.097c0.413-0.134,0.774-0.374,1.05-0.689
	c0.092-0.105,0.175-0.219,0.247-0.34c0.217-0.363,0.339-0.791,0.336-1.254L60.13,12.108l11.568,16.575
	c0.318,0.473,0.685,0.758,1.046,0.924c0.361,0.167,0.715,0.214,1.008,0.212c0.424-0.003,0.808-0.104,1.151-0.3
	c0.342-0.197,0.642-0.489,0.897-0.877l11.318-16.728l0.081,11.272l-4.201,0.03c-0.763,0.006-1.472,0.351-1.936,0.903
	c-0.009,0.01-0.017,0.021-0.025,0.031c-0.072,0.088-0.134,0.183-0.192,0.281c-0.03,0.051-0.058,0.103-0.083,0.156
	c-0.035,0.071-0.067,0.143-0.095,0.218c-0.029,0.079-0.053,0.16-0.074,0.243c-0.017,0.066-0.033,0.131-0.044,0.199
	c-0.013,0.077-0.017,0.156-0.022,0.235c-0.006,0.1-0.009,0.199-0.003,0.296c0.004,0.076,0.013,0.151,0.024,0.225
	c0.014,0.093,0.033,0.185,0.058,0.274c0.02,0.071,0.041,0.141,0.067,0.209c0.032,0.086,0.071,0.169,0.112,0.25
	c0.033,0.064,0.066,0.128,0.104,0.188c0.049,0.078,0.104,0.15,0.162,0.221c0.044,0.055,0.087,0.11,0.135,0.161
	c0.064,0.067,0.136,0.127,0.208,0.187c0.052,0.044,0.103,0.09,0.159,0.129c0.08,0.056,0.167,0.101,0.253,0.147
	c0.057,0.031,0.112,0.065,0.172,0.091c0.1,0.043,0.206,0.073,0.312,0.102c0.054,0.015,0.105,0.037,0.16,0.048
	c0.164,0.034,0.334,0.053,0.508,0.052l4.28-0.031l0.079,10.896c0.005,0.709,0.295,1.381,0.78,1.854
	c0.101,0.096,0.208,0.187,0.324,0.265c0.003,0.002,0.007,0.004,0.011,0.006c0.123,0.081,0.253,0.152,0.389,0.21
	c0.028,0.012,0.058,0.02,0.087,0.031c0.102,0.04,0.207,0.072,0.314,0.098c0.138,0.032,0.275,0.048,0.411,0.056
	c0.043,0.003,0.084,0.012,0.127,0.012c0.18,0,0.357-0.019,0.527-0.058c0.04-0.009,0.076-0.027,0.115-0.038
	c0.129-0.036,0.255-0.078,0.375-0.134c0.056-0.026,0.107-0.06,0.161-0.09c0.096-0.054,0.19-0.111,0.278-0.178
	c0.053-0.04,0.103-0.084,0.153-0.129c0.079-0.07,0.154-0.144,0.223-0.223c0.045-0.051,0.088-0.103,0.129-0.157
	c0.064-0.085,0.12-0.175,0.172-0.268c0.032-0.057,0.066-0.113,0.094-0.173c0.049-0.105,0.085-0.216,0.119-0.328
	c0.016-0.054,0.038-0.106,0.05-0.162c0.038-0.171,0.061-0.346,0.06-0.527l-0.048-6.706C92.163,32.261,92.166,32.232,92.166,32.201z"
	/>
<path class="st0" d="M92.166,32.201l-0.03-4.204l4.197-0.03c0.768-0.005,1.481-0.354,1.947-0.911
	c0.003-0.004,0.007-0.008,0.01-0.012c0.077-0.093,0.143-0.194,0.205-0.298c0.027-0.047,0.052-0.095,0.077-0.143
	c0.037-0.074,0.071-0.15,0.1-0.228c0.029-0.077,0.052-0.157,0.072-0.237c0.017-0.067,0.034-0.133,0.045-0.202
	c0.013-0.077,0.017-0.156,0.022-0.234c0.006-0.1,0.009-0.199,0.004-0.296c-0.004-0.076-0.013-0.151-0.024-0.226
	c-0.014-0.093-0.033-0.184-0.057-0.273c-0.02-0.071-0.041-0.141-0.067-0.209c-0.032-0.086-0.07-0.169-0.112-0.25
	c-0.033-0.064-0.066-0.128-0.104-0.188c-0.049-0.077-0.104-0.15-0.161-0.221c-0.044-0.055-0.087-0.11-0.135-0.161
	c-0.064-0.067-0.135-0.127-0.206-0.187c-0.053-0.044-0.103-0.09-0.16-0.13c-0.079-0.055-0.166-0.101-0.251-0.147
	c-0.058-0.031-0.113-0.066-0.173-0.092c-0.099-0.043-0.205-0.072-0.311-0.102c-0.054-0.015-0.105-0.037-0.161-0.049
	c-0.164-0.034-0.333-0.053-0.508-0.052l-4.282,0.031l-0.03-4.201c0-0.031-0.004-0.06-0.005-0.091L91.964,4.766
	c0-0.027-0.007-0.052-0.009-0.079c-0.052-1.291-1.157-2.363-2.459-2.353l-0.261,0.002c-0.674,0.005-1.305,0.269-1.803,0.742
	c-0.166,0.158-0.317,0.339-0.45,0.541L73.759,23.393l0,0v0L60.248,3.805c-0.509-0.647-1.045-1.027-1.646-1.174
	c-0.2-0.049-0.407-0.072-0.623-0.071l-0.133,0.001c0,0-0.934-0.002-1.881-0.002c-0.21,0-0.422,0-0.624,0c-0.202,0-0.394,0-0.567,0
	c-0.259,0-0.475,0.001-0.612,0.002c-0.504,0.004-0.966,0.155-1.346,0.414S52.138,3.6,51.961,4.033
	c-0.117,0.288-0.181,0.607-0.178,0.942l0.199,27.696L29.048,3.994c-0.158-0.2-0.322-0.374-0.492-0.523
	c-0.512-0.446-1.083-0.663-1.73-0.659l-0.417,0.003c-1.295,0.009-2.377,1.083-2.423,2.366c-0.001,0.035-0.01,0.067-0.01,0.102
	l0.17,23.572l0.002,0.279l0.013,1.743l0.004,0.521l0.002,0.282l0.005,0.751l0,0l0.001,0.147l0.005,0.756l0.002,0.26l0.004,0.488
	l0.009,1.28l0.004,0.538l0.001,0.189l0.005,0.713l0.001,0.091l0,0l0.005,0.657l0.002,0.238l0.003,0.406l0.002,0.285
	c-0.046,0.232-0.123,0.445-0.215,0.649c-0.012,0.026-0.015,0.058-0.028,0.084c-0.011,0.022-0.03,0.039-0.042,0.06
	c-0.024,0.045-0.041,0.096-0.067,0.139c-0.004-0.006-0.014-0.009-0.019-0.015c-0.044,0.062-0.08,0.129-0.13,0.186l-0.113,0.13
	c-0.076,0.087-0.163,0.162-0.251,0.237c0.014,0.001,0.025,0.006,0.039,0.006c-0.033,0.026-0.079,0.041-0.114,0.065
	c-0.119,0.09-0.248,0.166-0.388,0.221c-0.002,0.001-0.004,0.001-0.006,0.002c-0.42,0.164-0.879,0.244-1.345,0.29l-0.733,0.049
	c-0.12,0.005-0.239,0.011-0.358,0.015l-0.652,0.018c-0.007,0-0.013,0-0.02-0.001c-0.12-0.003-0.241-0.004-0.363-0.005l-0.62-0.007
	c-0.301-0.006-0.6-0.018-0.894-0.057c-0.552-0.073-1.104-0.146-1.655-0.22v0l0,0l-0.529-0.127c0,0,0,0.001,0,0.002
	c-0.548-0.134-1.09-0.278-1.627-0.438h0c0,0,0,0,0,0l-0.433-0.13c-0.27-0.086-0.539-0.177-0.807-0.276
	c-0.764-0.28-1.498-0.651-2.216-1.058c-0.855-0.484-1.683-1.027-2.447-1.642c-0.469-0.377-0.917-0.774-1.342-1.184
	c-2.615-2.521-4.38-5.714-5.203-9.242c-0.125-0.537-0.224-1.076-0.297-1.617s-0.121-1.083-0.144-1.625
	c-0.075-1.771,0.128-3.538,0.553-5.258c0.179-0.724,0.401-1.437,0.661-2.14c0.126-0.341,0.26-0.678,0.405-1.013
	c0.149-0.346,0.295-0.693,0.464-1.031c1.04-2.088,2.565-3.912,4.292-5.463c1.548-1.378,3.308-2.382,5.18-3.245
	c-1.359,0.583-2.665,1.219-3.89,2.057c-1.09,0.746-2.075,1.605-2.986,2.547c-0.304,0.314-0.599,0.637-0.887,0.969
	c-0.286,0.329-0.56,0.672-0.823,1.028c-0.787,1.067-1.464,2.246-2.009,3.483c-0.726,1.649-1.217,3.402-1.417,5.131
	c-0.052,0.451-0.091,0.904-0.117,1.358c-0.179,3.178,0.31,6.403,1.699,9.292c0.828,1.723,1.817,3.323,3.097,4.756
	c0.767,0.859,1.617,1.684,2.534,2.422s1.903,1.388,2.944,1.898c0.271,0.133,0.543,0.267,0.818,0.399
	c0.824,0.395,1.668,0.767,2.545,1.004c0.594,0.16,1.182,0.3,1.775,0.419s1.189,0.218,1.799,0.297
	c0.264,0.035,0.545,0.058,0.83,0.074c0.853,0.047,1.729,0.023,2.21,0.015c0.215-0.003,0.986-0.036,1.82-0.042c0,0,0.001,0,0.001,0
	c0,0,0,0,0.001,0c0.08-0.001,0.126-0.001,0.126-0.001s3.935-0.003,3.929-0.005c1.29-0.066,2.277-1.101,2.267-2.407l-0.204-28.376
	l23.409,29.25c0.323,0.398,1.068,1.32,2.223,1.312l3.491-0.025c0.004,0,0.009,0.001,0.014,0.001c0.004,0,0.01-0.002,0.014-0.002
	l0.155-0.001c0.051,0,0.096-0.023,0.145-0.03c0.148-0.02,0.292-0.053,0.43-0.097c0.413-0.134,0.774-0.374,1.05-0.689
	c0.092-0.105,0.175-0.219,0.247-0.34c0.217-0.363,0.339-0.791,0.336-1.254L60.13,12.108l11.568,16.575
	c0.318,0.473,0.685,0.758,1.046,0.924c0.361,0.167,0.715,0.214,1.008,0.212c0.424-0.003,0.808-0.104,1.151-0.3
	c0.342-0.197,0.642-0.489,0.897-0.877l11.318-16.728l0.081,11.272l-4.201,0.03c-0.763,0.006-1.472,0.351-1.936,0.903
	c-0.009,0.01-0.017,0.021-0.025,0.031c-0.072,0.088-0.134,0.183-0.192,0.281c-0.03,0.051-0.058,0.103-0.083,0.156
	c-0.035,0.071-0.067,0.143-0.095,0.218c-0.029,0.079-0.053,0.16-0.074,0.243c-0.017,0.066-0.033,0.131-0.044,0.199
	c-0.013,0.077-0.017,0.156-0.022,0.235c-0.006,0.1-0.009,0.199-0.003,0.296c0.004,0.076,0.013,0.151,0.024,0.225
	c0.014,0.093,0.033,0.185,0.058,0.274c0.02,0.071,0.041,0.141,0.067,0.209c0.032,0.086,0.071,0.169,0.112,0.25
	c0.033,0.064,0.066,0.128,0.104,0.188c0.049,0.078,0.104,0.15,0.162,0.221c0.044,0.055,0.087,0.11,0.135,0.161
	c0.064,0.067,0.136,0.127,0.208,0.187c0.052,0.044,0.103,0.09,0.159,0.129c0.08,0.056,0.167,0.101,0.253,0.147
	c0.057,0.031,0.112,0.065,0.172,0.091c0.1,0.043,0.206,0.073,0.312,0.102c0.054,0.015,0.105,0.037,0.16,0.048
	c0.164,0.034,0.334,0.053,0.508,0.052l4.28-0.031l0.079,10.896c0.005,0.709,0.295,1.381,0.78,1.854
	c0.101,0.096,0.208,0.187,0.324,0.265c0.003,0.002,0.007,0.004,0.011,0.006c0.123,0.081,0.253,0.152,0.389,0.21
	c0.028,0.012,0.058,0.02,0.087,0.031c0.102,0.04,0.207,0.072,0.314,0.098c0.138,0.032,0.275,0.048,0.411,0.056
	c0.043,0.003,0.084,0.012,0.127,0.012c0.18,0,0.357-0.019,0.527-0.058c0.04-0.009,0.076-0.027,0.115-0.038
	c0.129-0.036,0.255-0.078,0.375-0.134c0.056-0.026,0.107-0.06,0.161-0.09c0.096-0.054,0.19-0.111,0.278-0.178
	c0.053-0.04,0.103-0.084,0.153-0.129c0.079-0.07,0.154-0.144,0.223-0.223c0.045-0.051,0.088-0.103,0.129-0.157
	c0.064-0.085,0.12-0.175,0.172-0.268c0.032-0.057,0.066-0.113,0.094-0.173c0.049-0.105,0.085-0.216,0.119-0.328
	c0.016-0.054,0.038-0.106,0.05-0.162c0.038-0.171,0.061-0.346,0.06-0.527l-0.048-6.706C92.163,32.261,92.166,32.232,92.166,32.201z"
	/>
<g>
	<path class="st2" d="M27.928,39.54l-0.219-30.36c-0.002-0.013-0.008-0.024-0.008-0.037c0-0.013,0.006-0.025,0.007-0.037
		c0.018-0.2,0.18-0.358,0.384-0.36c0.106-0.001,0.202,0.041,0.273,0.109c0.01,0.009,0.016,0.021,0.025,0.031l24.68,30.839
		c0.42,0.52,0.841,0.907,1.365,0.904l1.103-0.008l-0.02-2.812l0.006,0l-0.236-32.73l-0.006,0l-0.01-1.429
		c-0.472,0-0.887,0-1.103,0.002c-0.732,0.005-1.304,0.585-1.298,1.316l0.214,29.712c0,0.003,0.002,0.006,0.002,0.01
		c0,0.003-0.001,0.006-0.001,0.01c-0.004,0.213-0.175,0.386-0.39,0.388c-0.097,0.001-0.184-0.038-0.253-0.096
		c-0.041-0.035-0.075-0.076-0.099-0.125L28.198,4.675C27.829,4.207,27.41,3.896,26.834,3.9l-0.417,0.003
		c-0.732,0.005-1.356,0.637-1.351,1.368l0.247,34.287c0.005,0.732,0.585,1.303,1.316,1.298
		C27.361,40.851,27.933,40.272,27.928,39.54z"/>
	<path class="st2" d="M81.553,25.649c0.005,0.76,0.63,1.375,1.392,1.369l5.328-0.038l0.038,5.249c0.006,0.774,0.639,1.4,1.413,1.395
		c0.775-0.006,1.4-0.641,1.394-1.415l-0.038-5.249l5.329-0.038c0.762-0.005,1.376-0.629,1.37-1.389
		c-0.005-0.759-0.628-1.373-1.39-1.367l-5.329,0.038l-0.038-5.247c-0.006-0.776-0.639-1.403-1.414-1.397
		c-0.774,0.006-1.399,0.642-1.393,1.417l0.038,5.247l-5.328,0.038C82.164,24.267,81.548,24.889,81.553,25.649z"/>
</g>
</svg>
