<?xml version="1.0" encoding="utf-8"?>
<!-- Generator: Adobe Illustrator 23.0.2, SVG Export Plug-In . SVG Version: 6.00 Build 0)  -->
<svg version="1.1" id="Layer_1" xmlns="http://www.w3.org/2000/svg" xmlns:xlink="http://www.w3.org/1999/xlink" x="0px" y="0px"
	 viewBox="0 0 1920 1080" style="enable-background:new 0 0 1920 1080;" xml:space="preserve">
<style type="text/css">
	.st0{fill:#1CA8AB;}
</style>
<path class="st0" d="M569.03,659.14c0-2.99,2.37-5.45,5.45-5.45h1.15c2.64,0,4.13,1.32,5.62,3.17l30.76,39.81v-37.79
	c0-2.9,2.37-5.27,5.27-5.27c2.99,0,5.36,2.37,5.36,5.27v51.67c0,2.99-2.28,5.36-5.27,5.36h-0.44c-2.55,0-4.13-1.32-5.63-3.25
	l-31.63-40.95v39.02c0,2.9-2.37,5.27-5.27,5.27c-2.99,0-5.36-2.37-5.36-5.27V659.14z"/>
<path class="st0" d="M638.46,710.11v-50.62c0-3.08,2.37-5.45,5.45-5.45h35.77c2.64,0,4.84,2.19,4.84,4.83c0,2.72-2.2,4.84-4.84,4.84
	h-30.41v15.99h26.45c2.64,0,4.84,2.2,4.84,4.92c0,2.64-2.2,4.74-4.84,4.74h-26.45v16.53h30.85c2.64,0,4.83,2.2,4.83,4.83
	c0,2.72-2.2,4.83-4.83,4.83h-36.21C640.83,715.55,638.46,713.18,638.46,710.11z"/>
<path class="st0" d="M693.56,660.98c-0.26-0.61-0.44-1.41-0.44-2.11c0-2.99,2.55-5.27,5.54-5.27c2.64,0,4.66,1.67,5.36,3.96
	l14.15,42.27l13.88-42.09c0.88-2.55,2.72-4.31,5.45-4.31h0.79c2.73,0,4.66,1.76,5.45,4.31l13.89,42.09l14.15-42.36
	c0.79-2.2,2.64-3.87,5.27-3.87c2.9,0,5.36,2.29,5.36,5.19c0,0.7-0.26,1.59-0.53,2.2l-18.19,50.97c-0.97,2.72-2.99,4.48-5.63,4.48
	h-1.05c-2.64,0-4.57-1.66-5.54-4.48l-13.71-40.16l-13.71,40.16c-0.97,2.82-2.99,4.48-5.62,4.48h-1.06c-2.64,0-4.57-1.66-5.62-4.48
	L693.56,660.98z"/>
<path class="st0" d="M820.29,659.14c0-2.99,2.37-5.45,5.45-5.45h1.15c2.37,0,3.95,1.23,5.01,2.9l18.63,29.18l18.72-29.27
	c1.15-1.85,2.73-2.81,4.93-2.81h1.14c3.08,0,5.45,2.46,5.45,5.45v51.5c0,2.99-2.37,5.36-5.45,5.36c-2.9,0-5.36-2.46-5.36-5.36
	v-36.91l-15.03,22.58c-1.14,1.75-2.55,2.81-4.57,2.81c-1.93,0-3.34-1.06-4.48-2.81l-14.94-22.41v36.82c0,2.99-2.37,5.27-5.36,5.27
	c-2.99,0-5.27-2.29-5.27-5.27V659.14z"/>
<path class="st0" d="M893.06,708.52l22.85-50.97c1.23-2.72,3.43-4.4,6.51-4.4h0.53c3.07,0,5.18,1.67,6.41,4.4l22.85,50.97
	c0.43,0.79,0.61,1.58,0.61,2.29c0,2.9-2.2,5.19-5.1,5.19c-2.55,0-4.3-1.5-5.27-3.78l-5.01-11.52h-29.88l-5.18,11.87
	c-0.88,2.2-2.72,3.43-5.01,3.43c-2.81,0-5.01-2.2-5.01-5.01C892.36,710.2,892.62,709.4,893.06,708.52z M933.31,691.12l-10.81-24.87
	l-10.81,24.87H933.31z"/>
<path class="st0" d="M964.51,659.48c0-3.08,2.37-5.45,5.44-5.45h18.81c14.41,0,23.38,8.17,23.38,20.56v0.18
	c0,13.8-11.08,21.01-24.62,21.01h-12.21v14.85c0,2.99-2.37,5.36-5.37,5.36c-3.07,0-5.44-2.37-5.44-5.36V659.48z M987.89,686.03
	c8.17,0,13.27-4.57,13.27-10.98v-0.18c0-7.21-5.19-10.98-13.27-10.98h-12.57v22.15H987.89z"/>
<path class="st0" d="M1021.63,708.7c-1.23-0.88-2.11-2.37-2.11-4.13c0-2.8,2.29-5.01,5.09-5.01c1.5,0,2.46,0.44,3.16,0.97
	c5.1,4.04,10.55,6.33,17.23,6.33c6.68,0,10.9-3.16,10.9-7.73v-0.18c0-4.4-2.46-6.77-13.88-9.4c-13.1-3.17-20.48-7.03-20.48-18.37
	V671c0-10.54,8.79-17.84,21.01-17.84c7.73,0,13.97,2.02,19.51,5.71c1.23,0.7,2.37,2.2,2.37,4.31c0,2.81-2.29,5.01-5.09,5.01
	c-1.06,0-1.94-0.26-2.81-0.79c-4.75-3.08-9.31-4.65-14.15-4.65c-6.32,0-10.02,3.25-10.02,7.29v0.17c0,4.75,2.81,6.86,14.68,9.67
	c13.01,3.17,19.68,7.82,19.68,18.02v0.17c0,11.51-9.05,18.37-21.97,18.37C1036.4,716.43,1028.49,713.8,1021.63,708.7z"/>
<path class="st0" d="M1105.83,659.48c0-3.08,2.37-5.45,5.45-5.45h18.81c14.41,0,23.38,8.17,23.38,20.56v0.18
	c0,13.8-11.08,21.01-24.61,21.01h-12.22v14.85c0,2.99-2.37,5.36-5.36,5.36c-3.07,0-5.45-2.37-5.45-5.36V659.48z M1129.2,686.03
	c8.17,0,13.27-4.57,13.27-10.98v-0.18c0-7.21-5.19-10.98-13.27-10.98h-12.57v22.15H1129.2z"/>
<path class="st0" d="M1164.53,658.96c0-2.99,2.37-5.36,5.44-5.36c2.99,0,5.37,2.37,5.37,5.36v46.75h27.86c2.72,0,4.92,2.2,4.92,4.92
	c0,2.72-2.2,4.92-4.92,4.92h-33.22c-3.07,0-5.44-2.37-5.44-5.45V658.96z"/>
<path class="st0" d="M1216.22,689.45v-30.49c0-2.99,2.37-5.36,5.44-5.36c2.99,0,5.36,2.37,5.36,5.36v30.06
	c0,11.42,5.89,17.49,15.56,17.49c9.58,0,15.46-5.71,15.46-17.05v-30.49c0-2.99,2.37-5.36,5.46-5.36c2.99,0,5.36,2.37,5.36,5.36
	v29.97c0,18.37-10.37,27.59-26.46,27.59C1226.41,716.52,1216.22,707.3,1216.22,689.45z"/>
<path class="st0" d="M1282.12,708.7c-1.23-0.88-2.11-2.37-2.11-4.13c0-2.8,2.29-5.01,5.1-5.01c1.5,0,2.46,0.44,3.16,0.97
	c5.1,4.04,10.55,6.33,17.23,6.33c6.68,0,10.9-3.16,10.9-7.73v-0.18c0-4.4-2.46-6.77-13.89-9.4c-13.09-3.17-20.47-7.03-20.47-18.37
	V671c0-10.54,8.79-17.84,21-17.84c7.73,0,13.97,2.02,19.51,5.71c1.23,0.7,2.37,2.2,2.37,4.31c0,2.81-2.29,5.01-5.1,5.01
	c-1.05,0-1.94-0.26-2.81-0.79c-4.74-3.08-9.31-4.65-14.15-4.65c-6.33,0-10.02,3.25-10.02,7.29v0.17c0,4.75,2.81,6.86,14.68,9.67
	c13.01,3.17,19.68,7.82,19.68,18.02v0.17c0,11.51-9.05,18.37-21.97,18.37C1296.89,716.43,1288.98,713.8,1282.12,708.7z"/>
<path class="st0" d="M733.47,591.64c0.46,0.18,1.02,0.26,1.61,0.2c1.74-0.12,3.32-1.21,3.69-2.5c0.3-1-0.2-1.95-1.24-2.34
	c-0.47-0.19-1.01-0.26-1.62-0.2c-1.7,0.17-3.31,1.28-3.68,2.55C731.96,590.31,732.42,591.23,733.47,591.64z"/>
<path class="st0" d="M725.47,591.9c0.39,0.17,0.91,0.24,1.48,0.18c1.54-0.11,3.05-1.09,3.35-2.16c0.2-0.77-0.16-1.48-0.99-1.81
	c-0.41-0.17-0.92-0.21-1.47-0.17c-1.57,0.14-3.05,1.1-3.37,2.2C724.26,590.89,724.64,591.59,725.47,591.9z"/>
<path class="st0" d="M717.41,592.24c0.38,0.16,0.85,0.21,1.39,0.19c1.45-0.12,2.83-0.96,3.09-1.91c0.17-0.61-0.15-1.15-0.81-1.41
	c-0.38-0.15-0.84-0.2-1.36-0.15c-1.44,0.13-2.82,1-3.07,1.92C716.44,591.49,716.73,591.99,717.41,592.24z"/>
<path class="st0" d="M710.62,592.94c1.41-0.11,2.74-0.89,2.98-1.76c0.28-0.9-0.68-1.53-2.08-1.42c-1.42,0.13-2.76,0.96-3,1.82
	C708.28,592.44,709.2,593.04,710.62,592.94z"/>
<path class="st0" d="M702.43,593.48c1.4-0.05,2.74-0.81,2.98-1.65c0.25-0.88-0.71-1.5-2.14-1.45c-1.43,0.05-2.77,0.81-2.99,1.67
	C700.04,592.92,701,593.54,702.43,593.48z"/>
<path class="st0" d="M694.16,593.81c1.45-0.07,2.77-0.78,2.98-1.64c0.2-0.87-0.77-1.56-2.21-1.5c-1.42,0.04-2.76,0.81-2.95,1.69
	C691.79,593.23,692.76,593.87,694.16,593.81z"/>
<path class="st0" d="M743.11,585.21c0.46,0.18,1.01,0.25,1.6,0.18c1.73-0.2,3.32-1.35,3.65-2.72c0.28-1.03-0.23-2-1.23-2.4
	c-0.47-0.19-1.03-0.23-1.6-0.17c-1.71,0.21-3.31,1.4-3.68,2.73C741.6,583.85,742.09,584.8,743.11,585.21z"/>
<path class="st0" d="M740.36,583.57c0.25-1.02-0.22-1.97-1.25-2.38c-0.48-0.17-1.02-0.25-1.63-0.17c-1.69,0.19-3.34,1.36-3.69,2.69
	c-0.26,0.99,0.23,1.93,1.23,2.32c0.47,0.2,1.04,0.26,1.64,0.2C738.41,586.06,740.02,584.91,740.36,583.57z"/>
<path class="st0" d="M731.88,584.32c0.23-0.8-0.13-1.55-1-1.86c-0.41-0.18-0.91-0.21-1.47-0.16c-1.59,0.17-3.04,1.19-3.35,2.32
	c-0.23,0.8,0.16,1.52,0.99,1.85c0.4,0.17,0.91,0.22,1.46,0.17C730.09,586.49,731.56,585.48,731.88,584.32z"/>
<path class="st0" d="M723.43,585.07c0.18-0.64-0.14-1.21-0.81-1.48c-0.42-0.15-0.86-0.21-1.35-0.15c-1.47,0.15-2.87,1.06-3.16,2.08
	c-0.16,0.64,0.15,1.18,0.84,1.44c0.36,0.15,0.85,0.21,1.34,0.17C721.79,587,723.16,586.07,723.43,585.07z"/>
<path class="st0" d="M715.11,585.85c0.25-0.96-0.71-1.63-2.13-1.49c-1.41,0.13-2.78,1.03-3.03,1.96c-0.24,0.94,0.7,1.59,2.12,1.46
	C713.48,587.66,714.84,586.81,715.11,585.85z"/>
<path class="st0" d="M706.82,586.62c0.23-0.94-0.73-1.61-2.15-1.59c-1.46,0.04-2.84,0.87-3.07,1.8c-0.23,0.96,0.76,1.65,2.2,1.61
	C705.22,588.39,706.58,587.55,706.82,586.62z"/>
<path class="st0" d="M698.4,586.92c0.25-0.93-0.75-1.68-2.23-1.66c-1.47,0.04-2.81,0.87-3,1.82c-0.22,0.95,0.78,1.65,2.22,1.61
	C696.85,588.64,698.17,587.87,698.4,586.92z"/>
<path class="st0" d="M686.99,588.93c1.46-0.05,2.79-0.83,2.99-1.79c0.18-0.96-0.84-1.72-2.29-1.7c-1.47,0.04-2.79,0.85-3,1.82
	C684.52,588.22,685.54,588.96,686.99,588.93z"/>
<path class="st0" d="M678.59,589.14c1.44-0.04,2.72-0.84,2.93-1.81c0.15-0.97-0.85-1.76-2.33-1.73c-1.49,0.03-2.78,0.85-2.95,1.85
	C676.08,588.43,677.13,589.17,678.59,589.14z"/>
<path class="st0" d="M741.94,577.58c0.29-1.06-0.22-2.02-1.23-2.43c-0.46-0.18-1.03-0.24-1.62-0.16c-1.7,0.2-3.32,1.44-3.68,2.78
	c-0.27,1.04,0.21,1.99,1.24,2.41c0.47,0.17,1.03,0.22,1.63,0.15C739.98,580.16,741.56,578.96,741.94,577.58z"/>
<path class="st0" d="M733.45,578.45c0.25-0.85-0.14-1.6-0.96-1.95c-0.43-0.16-0.94-0.2-1.48-0.14c-1.57,0.18-3.07,1.26-3.37,2.46
	c-0.24,0.84,0.16,1.58,1.02,1.91c0.37,0.15,0.88,0.23,1.43,0.17C731.69,580.71,733.16,579.63,733.45,578.45z"/>
<path class="st0" d="M725,579.28c0.18-0.69-0.14-1.3-0.85-1.57c-0.38-0.15-0.83-0.2-1.32-0.15c-1.47,0.17-2.9,1.16-3.18,2.23
	c-0.16,0.69,0.15,1.27,0.86,1.54c0.36,0.15,0.83,0.19,1.33,0.15C723.33,581.32,724.72,580.36,725,579.28z"/>
<path class="st0" d="M716.61,580.14c0.28-1.03-0.66-1.75-2.12-1.6c-1.44,0.16-2.83,1.11-3.07,2.11c-0.24,1.01,0.69,1.72,2.14,1.57
	C714.97,582.08,716.35,581.16,716.61,580.14z"/>
<path class="st0" d="M708.25,580.97c0.26-1-0.72-1.75-2.17-1.73c-1.49,0.04-2.89,0.91-3.12,1.93c-0.24,1.03,0.76,1.79,2.23,1.76
	C706.63,582.89,708.01,581.98,708.25,580.97z"/>
<path class="st0" d="M699.73,581.22c0.22-1.02-0.78-1.84-2.27-1.81c-1.45,0.01-2.85,0.88-3.05,1.9c-0.23,1.04,0.8,1.81,2.26,1.79
	C698.11,583.07,699.49,582.26,699.73,581.22z"/>
<path class="st0" d="M691.14,581.38c0.22-1.04-0.84-1.89-2.32-1.87c-1.48,0.02-2.82,0.88-3.03,1.93c-0.19,1.04,0.83,1.86,2.32,1.83
	C689.57,583.24,690.94,582.41,691.14,581.38z"/>
<path class="st0" d="M662.39,583.55c1.47-0.01,2.76-0.87,2.9-1.96c0.15-1.09-0.96-1.99-2.44-1.99c-1.49,0-2.77,0.9-2.93,2
	C659.8,582.7,660.91,583.55,662.39,583.55z"/>
<path class="st0" d="M742.31,568.89c-0.45-0.19-1.02-0.24-1.62-0.17c-1.69,0.21-3.32,1.48-3.67,2.88c-0.29,1.09,0.2,2.04,1.24,2.47
	c0.45,0.17,1.02,0.24,1.63,0.15c1.7-0.21,3.31-1.47,3.66-2.86C743.83,570.29,743.32,569.3,742.31,568.89z"/>
<path class="st0" d="M730.24,574.69c0.44,0.15,0.92,0.21,1.47,0.14c1.57-0.18,3.07-1.31,3.38-2.56c0.22-0.86-0.18-1.66-1.02-2.01
	c-0.42-0.15-0.9-0.21-1.43-0.13c-1.59,0.18-3.09,1.32-3.41,2.56C729.02,573.57,729.41,574.35,730.24,574.69z"/>
<path class="st0" d="M722.09,575.34c0.39,0.14,0.83,0.2,1.34,0.14c1.46-0.16,2.87-1.19,3.16-2.3c0.19-0.74-0.15-1.38-0.88-1.67
	c-0.38-0.14-0.84-0.19-1.32-0.14c-1.48,0.18-2.91,1.22-3.19,2.33C721.03,574.42,721.39,575.03,722.09,575.34z"/>
<path class="st0" d="M712.91,574.59c-0.26,1.07,0.68,1.84,2.13,1.68c1.46-0.15,2.84-1.12,3.11-2.21c0.26-1.09-0.7-1.85-2.14-1.7
	C714.57,572.49,713.18,573.51,712.91,574.59z"/>
<path class="st0" d="M709.72,574.91c0.23-1.08-0.73-1.88-2.22-1.86c-1.49,0.01-2.88,0.93-3.15,2.01c-0.24,1.09,0.78,1.94,2.24,1.91
	C708.06,576.94,709.48,575.99,709.72,574.91z"/>
<path class="st0" d="M701.08,575.11c0.24-1.1-0.78-1.98-2.27-1.98c-1.51-0.01-2.92,0.91-3.13,2.02c-0.24,1.09,0.79,1.97,2.27,1.93
	C699.44,577.08,700.85,576.2,701.08,575.11z"/>
<path class="st0" d="M663.64,572.94c-1.5-0.02-2.86,0.93-2.96,2.1c-0.18,1.17,0.95,2.11,2.47,2.12c1.47,0.02,2.82-0.91,2.93-2.06
	C666.26,573.93,665.15,572.97,663.64,572.94z"/>
<path class="st0" d="M654.87,572.79c-1.5-0.04-2.82,0.93-2.92,2.1c-0.15,1.2,1.01,2.16,2.47,2.19c1.51,0.01,2.82-0.92,2.94-2.1
	C657.48,573.82,656.38,572.82,654.87,572.79z"/>
<path class="st0" d="M745.17,564.95c0.28-1.11-0.24-2.13-1.26-2.54c-0.47-0.18-1-0.24-1.59-0.15c-1.72,0.21-3.33,1.51-3.66,2.96
	c-0.28,1.1,0.2,2.1,1.25,2.51c0.48,0.17,1.02,0.23,1.61,0.16C743.22,567.66,744.82,566.35,745.17,564.95z"/>
<path class="st0" d="M736.73,565.88c0.22-0.92-0.2-1.73-1.09-2.08c-0.39-0.16-0.85-0.22-1.37-0.17c-1.62,0.21-3.11,1.36-3.43,2.66
	c-0.24,0.91,0.2,1.72,1.05,2.07c0.42,0.16,0.91,0.21,1.42,0.15C734.93,568.32,736.38,567.17,736.73,565.88z"/>
<path class="st0" d="M728.2,566.76c0.17-0.78-0.17-1.47-0.94-1.76c-0.34-0.15-0.81-0.19-1.28-0.15c-1.47,0.17-2.9,1.25-3.18,2.42
	c-0.18,0.76,0.16,1.44,0.92,1.76c0.37,0.12,0.82,0.18,1.31,0.11C726.49,569,727.92,567.92,728.2,566.76z"/>
<path class="st0" d="M719.71,567.63c0.25-1.14-0.69-1.96-2.15-1.82c-1.47,0.14-2.87,1.19-3.12,2.34c-0.28,1.16,0.7,1.94,2.14,1.78
	C718.05,569.78,719.44,568.76,719.71,567.63z"/>
<path class="st0" d="M705.8,568.57c-0.25,1.18,0.74,2.08,2.25,2.05c1.5,0.01,2.88-1.03,3.15-2.17c0.26-1.15-0.74-1.99-2.24-1.99
	C707.45,566.47,706.02,567.43,705.8,568.57z"/>
<path class="st0" d="M696.99,568.59c-0.22,1.16,0.82,2.09,2.32,2.08c1.51,0.01,2.91-0.93,3.16-2.08c0.26-1.16-0.77-2.12-2.31-2.12
	C698.63,566.47,697.24,567.42,696.99,568.59z"/>
<path class="st0" d="M693.66,568.57c0.24-1.18-0.83-2.14-2.36-2.16c-1.53-0.02-2.96,0.95-3.16,2.13c-0.21,1.18,0.85,2.14,2.37,2.13
	C692,570.67,693.45,569.74,693.66,568.57z"/>
<path class="st0" d="M684.77,568.5c0.2-1.18-0.86-2.18-2.39-2.21c-1.54-0.02-2.95,0.96-3.14,2.14c-0.18,1.2,0.91,2.16,2.43,2.17
	C683.18,570.63,684.56,569.7,684.77,568.5z"/>
<path class="st0" d="M672.8,570.5c1.53,0.02,2.9-0.93,3.08-2.13c0.2-1.22-0.91-2.23-2.43-2.27c-1.54-0.02-2.93,0.95-3.09,2.16
	C670.19,569.49,671.27,570.49,672.8,570.5z"/>
<path class="st0" d="M664.52,565.9c-1.55-0.04-2.91,0.93-3.04,2.17c-0.14,1.22,0.96,2.24,2.47,2.28c1.53,0.02,2.9-0.93,3.03-2.14
	C667.15,566.98,666.05,565.94,664.52,565.9z"/>
<path class="st0" d="M655.63,565.62c-1.53-0.05-2.86,0.94-2.99,2.2c-0.13,1.25,1,2.28,2.51,2.33c1.5,0.04,2.84-0.93,2.99-2.16
	C658.27,566.73,657.13,565.67,655.63,565.62z"/>
<path class="st0" d="M746.8,558.31c0.27-1.12-0.23-2.17-1.28-2.59c-0.47-0.17-0.99-0.23-1.53-0.17c-1.72,0.23-3.34,1.55-3.72,3.05
	c-0.27,1.12,0.25,2.14,1.31,2.56c0.46,0.17,1,0.23,1.58,0.16C744.84,561.09,746.44,559.8,746.8,558.31z"/>
<path class="st0" d="M738.38,559.23c0.21-0.97-0.21-1.82-1.12-2.17c-0.39-0.15-0.85-0.21-1.36-0.15c-1.59,0.17-3.1,1.38-3.4,2.71
	c-0.25,0.96,0.18,1.8,1.1,2.14c0.37,0.17,0.87,0.24,1.37,0.17C736.54,561.74,738.05,560.55,738.38,559.23z"/>
<path class="st0" d="M729.84,560.06c0.18-0.82-0.19-1.53-1.01-1.83c-0.34-0.15-0.77-0.21-1.22-0.15c-1.5,0.15-2.94,1.26-3.22,2.49
	c-0.18,0.81,0.18,1.53,0.96,1.85c0.37,0.15,0.81,0.17,1.27,0.14C728.11,562.38,729.51,561.27,729.84,560.06z"/>
<path class="st0" d="M721.28,560.88c0.26-1.19-0.69-2.08-2.16-1.94c-1.47,0.13-2.89,1.22-3.17,2.42c-0.24,1.2,0.72,2.05,2.18,1.91
	C719.62,563.12,721,562.07,721.28,560.88z"/>
<path class="st0" d="M712.7,561.64c0.27-1.21-0.72-2.13-2.24-2.13c-1.52-0.01-2.98,0.99-3.21,2.2c-0.26,1.21,0.76,2.18,2.28,2.18
	C711.05,563.89,712.45,562.83,712.7,561.64z"/>
<path class="st0" d="M703.9,561.69c0.24-1.2-0.81-2.23-2.35-2.26c-1.53-0.01-2.97,0.98-3.24,2.21c-0.22,1.24,0.82,2.23,2.34,2.23
	C702.22,563.89,703.64,562.91,703.9,561.69z"/>
<path class="st0" d="M691.76,563.78c1.57,0.02,2.97-0.94,3.21-2.18c0.21-1.22-0.83-2.27-2.4-2.29c-1.56-0.03-2.96,0.97-3.2,2.2
	C689.14,562.76,690.23,563.76,691.76,563.78z"/>
<path class="st0" d="M682.82,563.63c1.53,0.04,2.92-0.94,3.13-2.17c0.23-1.26-0.87-2.3-2.42-2.36c-1.54-0.03-2.97,0.94-3.17,2.21
	C680.19,562.57,681.27,563.61,682.82,563.63z"/>
<path class="st0" d="M676.95,561.22c0.19-1.26-0.9-2.35-2.44-2.41c-1.57-0.05-2.97,0.96-3.17,2.24c-0.17,1.26,0.95,2.33,2.48,2.37
	C675.37,563.47,676.77,562.49,676.95,561.22z"/>
<path class="st0" d="M665.46,558.5c-1.54-0.07-2.95,0.95-3.09,2.24c-0.18,1.3,0.95,2.37,2.49,2.43c1.55,0.04,2.93-0.93,3.1-2.23
	C668.14,559.66,667.01,558.57,665.46,558.5z"/>
<path class="st0" d="M656.47,558.11c-1.54-0.08-2.92,0.95-3.06,2.26c-0.15,1.33,0.99,2.42,2.53,2.48c1.51,0.04,2.88-0.94,3.03-2.23
	C659.14,559.3,657.99,558.17,656.47,558.11z"/>
<path class="st0" d="M647.53,557.66c-1.52-0.09-2.87,0.95-2.99,2.3c-0.12,1.34,1,2.46,2.51,2.53c1.53,0.07,2.85-0.95,3-2.28
	C650.19,558.9,649.06,557.73,647.53,557.66z"/>
<path class="st0" d="M748.44,551.53c0.27-1.18-0.26-2.24-1.31-2.67c-0.46-0.17-0.97-0.22-1.5-0.15c-1.72,0.2-3.34,1.53-3.7,3.05
	c-0.26,1.15,0.25,2.21,1.32,2.65c0.44,0.18,0.98,0.26,1.54,0.17C746.48,554.37,748.08,553.01,748.44,551.53z"/>
<path class="st0" d="M740.02,552.36c0.25-1-0.19-1.88-1.14-2.24c-0.4-0.16-0.84-0.21-1.31-0.17c-1.62,0.17-3.13,1.38-3.45,2.76
	c-0.23,0.99,0.2,1.88,1.13,2.24c0.39,0.16,0.88,0.22,1.35,0.17C738.19,554.94,739.68,553.73,740.02,552.36z"/>
<path class="st0" d="M726.01,553.53c-0.21,0.9,0.17,1.65,0.99,1.96c0.37,0.14,0.79,0.2,1.22,0.16c1.5-0.16,2.93-1.28,3.21-2.53
	c0.23-0.88-0.17-1.63-1-1.96c-0.34-0.14-0.75-0.18-1.2-0.14C727.76,551.13,726.28,552.27,726.01,553.53z"/>
<path class="st0" d="M722.88,553.83c0.27-1.23-0.72-2.16-2.21-2.04c-1.47,0.1-2.88,1.2-3.16,2.45c-0.28,1.27,0.72,2.16,2.19,2.05
	C721.2,556.17,722.62,555.06,722.88,553.83z"/>
<path class="st0" d="M708.7,554.52c-0.26,1.26,0.77,2.3,2.3,2.31c1.54-0.01,2.95-1.09,3.22-2.36c0.25-1.25-0.75-2.21-2.29-2.22
	C710.42,552.23,708.95,553.25,708.7,554.52z"/>
<path class="st0" d="M705.33,554.47c0.25-1.28-0.78-2.33-2.35-2.37c-1.54-0.03-3.03,1-3.26,2.28c-0.22,1.28,0.84,2.33,2.37,2.35
	C703.64,556.76,705.06,555.75,705.33,554.47z"/>
<path class="st0" d="M696.3,554.29c0.24-1.27-0.85-2.36-2.41-2.4c-1.58-0.05-3.02,0.97-3.22,2.26c-0.25,1.31,0.85,2.37,2.4,2.4
	C694.63,556.59,696.08,555.58,696.3,554.29z"/>
<path class="st0" d="M687.21,554.05c0.21-1.29-0.9-2.39-2.45-2.47c-1.58-0.06-3.01,0.97-3.24,2.29c-0.18,1.31,0.91,2.4,2.46,2.45
	C685.55,556.37,686.99,555.35,687.21,554.05z"/>
<path class="st0" d="M674.9,556c1.56,0.07,2.99-0.93,3.19-2.27c0.22-1.33-0.91-2.45-2.49-2.53c-1.57-0.05-3.01,0.97-3.18,2.31
	C672.21,554.83,673.36,555.94,674.9,556z"/>
<path class="st0" d="M666.47,550.77c-1.57-0.1-2.99,0.94-3.17,2.3c-0.16,1.36,0.97,2.48,2.52,2.56c1.56,0.06,2.97-0.95,3.13-2.27
	C669.15,552,668.02,550.84,666.47,550.77z"/>
<path class="st0" d="M657.36,550.26c-1.55-0.09-2.92,0.95-3.1,2.32c-0.13,1.37,0.99,2.53,2.53,2.61c1.55,0.08,2.92-0.94,3.08-2.31
	C660.06,551.54,658.92,550.35,657.36,550.26z"/>
<path class="st0" d="M648.35,549.7c-1.54-0.13-2.92,0.95-3.04,2.33c-0.16,1.4,0.99,2.59,2.51,2.67c1.53,0.09,2.9-0.96,3.04-2.33
	C651.02,551.01,649.89,549.79,648.35,549.7z"/>
<path class="st0" d="M638.97,554.16c1.51,0.11,2.86-0.96,2.96-2.34c0.14-1.4-0.97-2.64-2.48-2.74c-1.5-0.12-2.87,0.96-2.99,2.36
	C636.36,552.85,637.47,554.07,638.97,554.16z"/>
<path class="st0" d="M741.68,545.29c0.23-1.04-0.24-1.96-1.18-2.34c-0.39-0.15-0.82-0.21-1.28-0.17c-1.58,0.14-3.12,1.4-3.43,2.8
	c-0.23,1.04,0.2,1.96,1.17,2.33c0.39,0.15,0.81,0.23,1.31,0.17C739.85,547.93,741.34,546.7,741.68,545.29z"/>
<path class="st0" d="M729.86,548.5c1.49-0.11,2.95-1.26,3.25-2.57c0.2-0.9-0.23-1.7-1.07-2.05c-0.36-0.12-0.74-0.18-1.17-0.15
	c-1.5,0.1-2.94,1.24-3.26,2.57c-0.18,0.9,0.23,1.71,1.1,2.04C729.05,548.47,729.44,548.53,729.86,548.5z"/>
<path class="st0" d="M719.09,546.85c-0.29,1.29,0.71,2.27,2.21,2.18c1.46-0.1,2.89-1.21,3.18-2.52c0.27-1.28-0.7-2.26-2.21-2.17
	C720.78,544.41,719.35,545.54,719.09,546.85z"/>
<path class="st0" d="M710.19,547.01c-0.25,1.32,0.77,2.39,2.32,2.42c1.54,0.02,2.97-1.09,3.25-2.41c0.27-1.31-0.75-2.34-2.29-2.36
	C711.92,544.62,710.45,545.68,710.19,547.01z"/>
<path class="st0" d="M701.12,546.79c-0.23,1.33,0.84,2.44,2.38,2.46c1.57,0.05,3.03-0.99,3.27-2.32c0.27-1.33-0.78-2.45-2.37-2.49
	C702.84,544.41,701.37,545.47,701.12,546.79z"/>
<path class="st0" d="M691.96,546.49c-0.22,1.35,0.84,2.49,2.44,2.53c1.56,0.07,3.04-0.98,3.27-2.33c0.24-1.34-0.83-2.48-2.41-2.55
	C693.67,544.08,692.21,545.13,691.96,546.49z"/>
<path class="st0" d="M688.5,546.35c0.21-1.34-0.88-2.52-2.46-2.58c-1.6-0.09-3.06,0.97-3.28,2.33c-0.23,1.37,0.91,2.52,2.47,2.59
	C686.79,548.74,688.25,547.7,688.5,546.35z"/>
<path class="st0" d="M679.28,545.93c0.22-1.37-0.94-2.55-2.51-2.63c-1.57-0.11-3.02,0.95-3.22,2.33c-0.2,1.39,0.91,2.56,2.5,2.65
	C677.63,548.34,679.05,547.32,679.28,545.93z"/>
<path class="st0" d="M670.05,545.44c0.17-1.38-0.96-2.61-2.54-2.7c-1.58-0.1-3.01,0.95-3.2,2.36c-0.15,1.37,0.96,2.59,2.53,2.69
	C668.44,547.88,669.87,546.82,670.05,545.44z"/>
<path class="st0" d="M658.33,542.1c-1.56-0.11-2.99,0.96-3.13,2.39c-0.18,1.42,0.98,2.64,2.53,2.74c1.57,0.1,2.98-0.94,3.14-2.36
	C661.06,543.45,659.93,542.22,658.33,542.1z"/>
<path class="st0" d="M742.11,535.6c-0.37-0.13-0.79-0.2-1.21-0.17c-1.63,0.11-3.15,1.33-3.48,2.81c-0.22,1.07,0.22,2.04,1.24,2.42
	c0.34,0.16,0.8,0.2,1.25,0.15c1.57-0.09,3.09-1.34,3.41-2.78C743.59,536.96,743.07,536.01,742.11,535.6z"/>
<path class="st0" d="M729.21,538.8c-0.19,0.95,0.28,1.79,1.16,2.17c0.35,0.12,0.72,0.18,1.12,0.15c1.48-0.1,2.95-1.25,3.26-2.59
	c0.2-0.96-0.25-1.82-1.13-2.16c-0.34-0.13-0.68-0.2-1.09-0.18C731.01,536.29,729.52,537.43,729.21,538.8z"/>
<path class="st0" d="M720.64,539.19c-0.27,1.34,0.73,2.37,2.23,2.3c1.48-0.07,2.93-1.21,3.2-2.51c0.28-1.35-0.69-2.39-2.21-2.34
	C722.36,536.7,720.9,537.82,720.64,539.19z"/>
<path class="st0" d="M711.69,539.22c-0.26,1.36,0.79,2.49,2.34,2.52c1.53,0.04,3.02-1.09,3.24-2.46c0.26-1.35-0.76-2.43-2.29-2.48
	C713.42,536.77,711.93,537.84,711.69,539.22z"/>
<path class="st0" d="M702.54,538.95c-0.25,1.35,0.85,2.51,2.41,2.55c1.56,0.07,3.03-1.01,3.31-2.39c0.24-1.37-0.84-2.52-2.4-2.6
	C704.29,536.48,702.8,537.54,702.54,538.95z"/>
<path class="st0" d="M693.31,538.55c-0.23,1.39,0.85,2.56,2.44,2.63c1.6,0.07,3.07-1,3.31-2.37c0.25-1.4-0.86-2.57-2.45-2.65
	C695.03,536.07,693.53,537.14,693.31,538.55z"/>
<path class="st0" d="M689.78,538.37c0.25-1.39-0.87-2.61-2.47-2.7c-1.59-0.09-3.08,0.98-3.3,2.41c-0.22,1.4,0.9,2.61,2.5,2.68
	C688.09,540.84,689.56,539.78,689.78,538.37z"/>
<path class="st0" d="M680.49,537.85c0.23-1.41-0.9-2.65-2.52-2.75c-1.62-0.1-3.07,0.98-3.25,2.4c-0.23,1.43,0.89,2.66,2.5,2.75
	C678.81,540.34,680.29,539.28,680.49,537.85z"/>
<path class="st0" d="M671.19,537.27c0.19-1.43-0.95-2.71-2.55-2.83c-1.58-0.12-3.04,0.95-3.24,2.4c-0.18,1.44,0.96,2.7,2.55,2.8
	C669.52,539.77,670.97,538.7,671.19,537.27z"/>
<path class="st0" d="M656.17,536.12c-0.16,1.47,0.98,2.75,2.53,2.87c1.59,0.12,3.02-0.96,3.21-2.42c0.18-1.45-0.95-2.75-2.52-2.9
	C657.79,533.55,656.38,534.64,656.17,536.12z"/>
<path class="st0" d="M745,530.64c0.23-1.1-0.27-2.12-1.29-2.52c-0.35-0.14-0.74-0.19-1.15-0.18c-1.59,0.08-3.15,1.33-3.48,2.78
	c-0.22,1.13,0.26,2.13,1.28,2.56c0.37,0.13,0.77,0.18,1.2,0.15C743.14,533.33,744.68,532.12,745,530.64z"/>
<path class="st0" d="M730.88,531.09c-0.22,1.01,0.24,1.91,1.16,2.29c0.32,0.12,0.72,0.19,1.09,0.14c1.51-0.04,2.96-1.21,3.26-2.56
	c0.2-1-0.26-1.89-1.18-2.27c-0.31-0.12-0.67-0.19-1.04-0.18C732.63,528.53,731.16,529.69,730.88,531.09z"/>
<path class="st0" d="M722.21,531.28c-0.29,1.37,0.73,2.45,2.24,2.42c1.5-0.03,2.95-1.15,3.22-2.51c0.28-1.36-0.73-2.46-2.25-2.43
	C723.91,528.76,722.47,529.89,722.21,531.28z"/>
<path class="st0" d="M713.19,531.17c-0.26,1.41,0.8,2.58,2.35,2.63c1.57,0.04,3.02-1.1,3.28-2.49c0.27-1.39-0.75-2.55-2.34-2.59
	C714.93,528.67,713.45,529.78,713.19,531.17z"/>
<path class="st0" d="M707.32,528.37c-1.59-0.08-3.07,1.02-3.3,2.44c-0.25,1.42,0.83,2.62,2.39,2.67c1.58,0.07,3.07-1,3.34-2.42
	C709.99,529.66,708.92,528.44,707.32,528.37z"/>
<path class="st0" d="M694.68,530.35c-0.24,1.43,0.87,2.65,2.46,2.74c1.61,0.08,3.1-1.01,3.34-2.42c0.25-1.44-0.85-2.67-2.46-2.77
	C696.42,527.82,694.92,528.91,694.68,530.35z"/>
<path class="st0" d="M691.13,530.14c0.23-1.42-0.86-2.7-2.49-2.78c-1.62-0.12-3.1,0.97-3.31,2.42c-0.24,1.45,0.89,2.7,2.47,2.81
	C689.42,532.67,690.87,531.59,691.13,530.14z"/>
<path class="st0" d="M675.92,529.1c-0.22,1.47,0.92,2.74,2.54,2.86c1.58,0.11,3.08-0.96,3.29-2.41c0.2-1.47-0.9-2.75-2.53-2.87
	C677.62,526.55,676.12,527.64,675.92,529.1z"/>
<path class="st0" d="M669.07,531.25c1.61,0.13,3.08-0.96,3.28-2.43c0.2-1.48-0.92-2.79-2.55-2.94c-1.61-0.12-3.08,0.97-3.27,2.45
	C666.35,529.82,667.48,531.13,669.07,531.25z"/>
<path class="st0" d="M746.68,523.08c0.23-1.13-0.29-2.19-1.36-2.62c-0.34-0.12-0.71-0.17-1.09-0.2c-1.61,0.04-3.18,1.28-3.49,2.78
	c-0.24,1.16,0.3,2.21,1.36,2.63c0.35,0.13,0.71,0.21,1.12,0.2C744.81,525.8,746.33,524.6,746.68,523.08z"/>
<path class="st0" d="M736.76,520.81c-0.31-0.12-0.63-0.17-0.98-0.17c-1.54-0.01-2.99,1.14-3.29,2.56c-0.24,1.08,0.29,2.01,1.25,2.38
	c0.31,0.14,0.64,0.2,1.01,0.17c1.5-0.01,2.98-1.18,3.28-2.56C738.23,522.14,737.77,521.21,736.76,520.81z"/>
<path class="st0" d="M727.02,520.63c-1.53-0.02-2.98,1.1-3.29,2.54c-0.24,1.41,0.78,2.55,2.29,2.55c1.53-0.01,2.97-1.13,3.25-2.52
	C729.56,521.82,728.56,520.67,727.02,520.63z"/>
<path class="st0" d="M718.02,520.4c-1.59-0.05-3.09,1.07-3.34,2.51c-0.24,1.46,0.81,2.66,2.38,2.69c1.56,0.05,3.04-1.06,3.3-2.49
	C720.62,521.67,719.61,520.46,718.02,520.4z"/>
<path class="st0" d="M705.44,522.47c-0.24,1.46,0.84,2.71,2.44,2.76c1.59,0.09,3.08-1.03,3.32-2.48c0.27-1.43-0.83-2.67-2.42-2.75
	C707.22,519.9,705.71,521.03,705.44,522.47z"/>
<path class="st0" d="M699.44,519.45c-1.62-0.1-3.13,1.01-3.35,2.48c-0.26,1.47,0.84,2.74,2.46,2.84c1.61,0.1,3.12-1.03,3.37-2.48
	C702.17,520.82,701.07,519.56,699.44,519.45z"/>
<path class="st0" d="M689.98,518.78c-1.61-0.1-3.12,1-3.36,2.49c-0.24,1.48,0.91,2.78,2.52,2.9c1.65,0.09,3.12-1,3.37-2.46
	C692.76,520.2,691.63,518.92,689.98,518.78z"/>
<path class="st0" d="M683.06,520.97c0.21-1.48-0.92-2.8-2.53-2.95c-1.64-0.14-3.13,0.98-3.35,2.46c-0.21,1.51,0.89,2.82,2.52,2.96
	C681.33,523.57,682.81,522.47,683.06,520.97z"/>
<path class="st0" d="M748.18,515.29c0.22-1.22-0.39-2.35-1.5-2.78c-0.34-0.12-0.66-0.21-1.01-0.19c-1.62-0.02-3.13,1.26-3.41,2.83
	c-0.2,1.24,0.41,2.37,1.53,2.8c0.3,0.14,0.66,0.2,1.03,0.21C746.44,518.11,747.91,516.87,748.18,515.29z"/>
<path class="st0" d="M735.42,517.63c0.29,0.11,0.6,0.19,0.94,0.18c1.53,0.02,2.96-1.16,3.21-2.6c0.18-1.13-0.36-2.16-1.38-2.57
	c-0.28-0.11-0.62-0.16-0.93-0.18c-1.53-0.01-2.97,1.14-3.26,2.62C733.83,516.2,734.37,517.23,735.42,517.63z"/>
<path class="st0" d="M727.59,517.55c1.53,0.04,2.96-1.1,3.24-2.54c0.23-1.43-0.79-2.67-2.32-2.72c-1.52-0.05-2.99,1.09-3.24,2.53
	C725.02,516.28,726.07,517.52,727.59,517.55z"/>
<path class="st0" d="M718.56,517.25c1.59,0.05,3.05-1.08,3.32-2.55c0.26-1.45-0.78-2.71-2.35-2.8c-1.58-0.09-3.07,1.05-3.32,2.53
	C715.92,515.92,717,517.18,718.56,517.25z"/>
<path class="st0" d="M736.89,509.38c0.29,0.11,0.57,0.17,0.9,0.18c1.48,0.05,2.93-1.12,3.18-2.59c0.19-1.16-0.38-2.24-1.42-2.66
	c-0.28-0.09-0.56-0.16-0.85-0.18c-1.52-0.06-2.99,1.12-3.23,2.61C735.27,507.89,735.83,508.97,736.89,509.38z"/>
<path class="st0" d="M729.04,509.14c1.55,0.05,2.96-1.07,3.23-2.53c0.22-1.47-0.77-2.72-2.29-2.81c-1.53-0.08-2.95,1.04-3.21,2.53
	C726.5,507.81,727.54,509.06,729.04,509.14z"/>
<path class="st0" d="M720.08,508.67c1.58,0.1,3.02-1.04,3.3-2.54c0.26-1.49-0.8-2.78-2.35-2.9c-1.59-0.11-3.09,1.02-3.31,2.52
	C717.42,507.27,718.49,508.57,720.08,508.67z"/>
<path class="st0" d="M738.35,501.1c0.25,0.12,0.54,0.18,0.84,0.18c1.55,0.1,3.03-1.09,3.27-2.63c0.2-1.26-0.42-2.4-1.57-2.86
	c-0.22-0.11-0.53-0.16-0.79-0.17c-1.57-0.11-3.06,1.07-3.32,2.64C736.56,499.52,737.18,500.66,738.35,501.1z"/>
<path class="st0" d="M730.52,500.58c1.5,0.1,2.94-1.04,3.19-2.51c0.25-1.48-0.76-2.77-2.29-2.89c-1.48-0.12-2.94,1.01-3.18,2.51
	C727.99,499.19,729.02,500.49,730.52,500.58z"/>
<path class="st0" d="M721.58,499.94c1.56,0.13,3.05-1.01,3.28-2.51c0.25-1.51-0.79-2.84-2.37-2.99c-1.58-0.15-3.07,0.98-3.32,2.51
	C718.92,498.47,719.99,499.82,721.58,499.94z"/>
<path class="st0" d="M702.89,498.28c1.6,0.15,3.12-0.98,3.39-2.55c0.23-1.56-0.87-2.97-2.51-3.15c-1.63-0.18-3.16,0.97-3.41,2.55
	C700.13,496.7,701.24,498.12,702.89,498.28z"/>
<path class="st0" d="M693.34,497.32c1.64,0.17,3.17-0.98,3.43-2.57c0.22-1.59-0.88-3.03-2.52-3.22c-1.64-0.2-3.18,0.97-3.43,2.58
	C690.57,495.7,691.69,497.14,693.34,497.32z"/>
<path class="st0" d="M664.75,493.99c1.6,0.21,3.12-0.95,3.36-2.59c0.24-1.64-0.88-3.16-2.49-3.38c-1.63-0.21-3.15,0.96-3.37,2.62
	C662.02,492.29,663.11,493.78,664.75,493.99z"/>
<path class="st0" d="M646.21,491.49c1.55,0.21,3.01-0.93,3.24-2.59c0.23-1.67-0.87-3.22-2.42-3.44c-1.56-0.21-3.01,0.96-3.24,2.63
	C643.56,489.75,644.65,491.26,646.21,491.49z"/>
<path class="st0" d="M731.98,491.91c1.5,0.14,2.9-0.96,3.14-2.45c0.23-1.5-0.77-2.82-2.27-2.99c-1.49-0.15-2.93,0.94-3.16,2.45
	C729.43,490.46,730.47,491.78,731.98,491.91z"/>
<path class="st0" d="M723.04,491.1c1.6,0.16,3.04-0.96,3.27-2.49c0.26-1.52-0.79-2.9-2.34-3.06c-1.59-0.18-3.08,0.92-3.34,2.48
	C720.37,489.57,721.46,490.97,723.04,491.1z"/>
<path class="st0" d="M713.75,490.17c1.65,0.15,3.15-0.97,3.38-2.52c0.24-1.56-0.87-2.97-2.48-3.15c-1.6-0.2-3.11,0.93-3.34,2.5
	C711.04,488.58,712.16,489.98,713.75,490.17z"/>
<path class="st0" d="M704.35,489.12c1.6,0.19,3.16-0.97,3.38-2.53c0.25-1.58-0.86-3.03-2.49-3.22c-1.62-0.18-3.16,0.94-3.44,2.53
	C701.59,487.5,702.7,488.93,704.35,489.12z"/>
<path class="st0" d="M694.79,488.04c1.63,0.18,3.18-0.96,3.42-2.58c0.26-1.61-0.88-3.06-2.52-3.28c-1.67-0.19-3.19,0.94-3.43,2.56
	C692.02,486.38,693.16,487.84,694.79,488.04z"/>
<path class="st0" d="M666.14,484.43c1.63,0.21,3.13-0.93,3.39-2.61c0.22-1.65-0.91-3.18-2.52-3.41c-1.63-0.22-3.13,0.94-3.4,2.62
	C663.4,482.68,664.52,484.22,666.14,484.43z"/>
<path class="st0" d="M705.78,479.89c1.62,0.22,3.14-0.91,3.4-2.5c0.25-1.61-0.87-3.07-2.5-3.29c-1.61-0.24-3.15,0.9-3.4,2.49
	C703.03,478.22,704.13,479.7,705.78,479.89z"/>
<path class="st0" d="M696.24,478.67c1.64,0.21,3.17-0.92,3.43-2.54c0.24-1.63-0.9-3.1-2.51-3.34c-1.66-0.23-3.21,0.9-3.47,2.53
	C693.46,476.95,694.59,478.46,696.24,478.67z"/>
<path class="st0" d="M687.59,471.45c-1.66-0.21-3.21,0.93-3.47,2.58c-0.26,1.64,0.88,3.16,2.53,3.39c1.63,0.21,3.2-0.94,3.43-2.58
	C690.34,473.2,689.2,471.69,687.59,471.45z"/>
<path class="st0" d="M685.58,464.44c-0.26,1.67,0.87,3.19,2.52,3.44c1.64,0.23,3.18-0.89,3.45-2.55c0.23-1.64-0.88-3.19-2.53-3.42
	C687.39,461.65,685.85,462.77,685.58,464.44z"/>
<path class="st0" d="M663.74,461.2c0.27-1.79-0.69-3.54-2.32-4.19c-0.25-0.09-0.52-0.15-0.79-0.21c-0.97-0.14-1.97,0.12-2.8,0.75
	c-0.77,0.61-1.3,1.53-1.45,2.53c-0.26,1.82,0.68,3.53,2.31,4.18c0.22,0.1,0.5,0.15,0.78,0.21
	C661.5,464.77,663.41,463.31,663.74,461.2z"/>
<path class="st0" d="M654.06,459.73c0.26-1.61-0.61-3.21-2.05-3.76c-0.19-0.1-0.44-0.13-0.67-0.17c-0.8-0.14-1.66,0.07-2.34,0.58
	c-0.75,0.54-1.28,1.41-1.41,2.37c-0.25,1.62,0.64,3.19,2.04,3.76c0.2,0.09,0.44,0.14,0.67,0.18
	C652.09,462.96,653.76,461.63,654.06,459.73z"/>
<path class="st0" d="M644.61,458.29c0.26-1.69-0.75-3.25-2.21-3.48c-1.5-0.23-2.87,0.97-3.14,2.67c-0.27,1.7,0.72,3.25,2.19,3.48
	C642.94,461.17,644.36,460,644.61,458.29z"/>
<path class="st0" d="M632.98,459.62c1.42,0.23,2.81-0.97,3.07-2.64c0.25-1.7-0.71-3.25-2.13-3.48c-1.43-0.21-2.78,0.99-3.03,2.68
	C630.6,457.86,631.55,459.4,632.98,459.62z"/>
<path class="st0" d="M624.84,458.34c1.38,0.21,2.7-0.96,2.96-2.66c0.26-1.68-0.67-3.21-2.03-3.43c-1.38-0.2-2.65,0.97-2.93,2.67
	C622.59,456.59,623.48,458.12,624.84,458.34z"/>
<path class="st0" d="M681.86,450.25c-0.28-0.11-0.54-0.18-0.81-0.23c-0.99-0.15-1.99,0.1-2.78,0.69c-0.85,0.59-1.4,1.5-1.55,2.52
	c-0.29,1.77,0.72,3.51,2.34,4.16c0.26,0.11,0.55,0.17,0.83,0.22c0.98,0.15,2.01-0.11,2.82-0.71c0.82-0.6,1.37-1.5,1.49-2.51
	C684.49,452.65,683.47,450.91,681.86,450.25z"/>
<path class="st0" d="M674.68,452.91c0.27-1.77-0.72-3.54-2.35-4.19c-0.24-0.11-0.52-0.17-0.79-0.21c-0.98-0.16-1.95,0.08-2.75,0.67
	c-0.85,0.61-1.42,1.53-1.57,2.58c-0.28,1.75,0.7,3.52,2.33,4.17c0.26,0.1,0.54,0.17,0.81,0.2
	C672.41,456.46,674.36,455.01,674.68,452.91z"/>
<path class="st0" d="M660.18,454.48c0.27,0.1,0.5,0.18,0.8,0.2c2.02,0.31,3.94-1.13,4.25-3.24c0.31-1.79-0.69-3.56-2.31-4.21
	c-0.24-0.1-0.5-0.15-0.76-0.21c-0.96-0.14-1.91,0.09-2.7,0.67c-0.86,0.61-1.42,1.54-1.59,2.61
	C657.59,452.09,658.58,453.84,660.18,454.48z"/>
<path class="st0" d="M651.11,452.69c0.22,0.1,0.47,0.14,0.67,0.19c1.79,0.28,3.47-1.04,3.78-2.94c0.27-1.63-0.59-3.22-2.04-3.78
	c-0.2-0.08-0.44-0.14-0.68-0.16c-1.77-0.29-3.45,1.04-3.74,2.94C648.84,450.56,649.69,452.13,651.11,452.69z"/>
<path class="st0" d="M642.95,451.12c1.48,0.24,2.91-0.96,3.15-2.63c0.27-1.7-0.71-3.26-2.19-3.48c-1.48-0.24-2.87,0.95-3.18,2.66
	C640.48,449.36,641.47,450.91,642.95,451.12z"/>
<path class="st0" d="M637.53,447.19c0.27-1.69-0.67-3.26-2.1-3.47c-1.44-0.21-2.78,0.99-3.06,2.68c-0.27,1.69,0.67,3.22,2.11,3.44
	C635.89,450.05,637.29,448.86,637.53,447.19z"/>
<path class="st0" d="M629.29,445.93c0.26-1.68-0.66-3.22-2-3.44c-1.37-0.2-2.69,1.01-2.95,2.7c-0.24,1.67,0.64,3.21,1.97,3.41
	C627.68,448.82,629.02,447.62,629.29,445.93z"/>
<path class="st0" d="M618.57,447.41c1.31,0.21,2.57-0.99,2.84-2.66c0.26-1.67-0.61-3.2-1.91-3.37c-1.31-0.2-2.55,1-2.82,2.68
	C616.44,445.72,617.28,447.21,618.57,447.41z"/>
<path class="st0" d="M661.74,444.72c0.23,0.1,0.47,0.17,0.72,0.22c0.98,0.15,1.95-0.1,2.76-0.67c0.83-0.61,1.39-1.52,1.53-2.56
	c0.31-1.81-0.68-3.56-2.31-4.23c-0.23-0.08-0.5-0.15-0.76-0.18c-0.94-0.15-1.9,0.08-2.71,0.65c-0.83,0.61-1.41,1.53-1.56,2.58
	C659.14,442.31,660.1,444.08,661.74,444.72z"/>
<path class="st0" d="M657.1,440.16c0.27-1.62-0.61-3.21-2.04-3.78c-0.2-0.08-0.42-0.14-0.64-0.18c-1.77-0.29-3.48,1.03-3.77,2.93
	c-0.28,1.62,0.58,3.2,2.01,3.77c0.23,0.08,0.43,0.14,0.66,0.18C655.11,443.36,656.77,442.06,657.1,440.16z"/>
<path class="st0" d="M647.67,438.67c0.29-1.68-0.73-3.22-2.2-3.44c-1.48-0.23-2.91,0.96-3.17,2.64c-0.26,1.69,0.7,3.23,2.18,3.45
	C645.96,441.54,647.38,440.36,647.67,438.67z"/>
<path class="st0" d="M635.99,440.06c1.42,0.21,2.81-0.98,3.09-2.67c0.27-1.69-0.66-3.23-2.1-3.43c-1.44-0.21-2.79,0.99-3.05,2.65
	C633.66,438.31,634.57,439.85,635.99,440.06z"/>
<path class="st0" d="M630.84,436.17c0.24-1.67-0.66-3.2-2.05-3.39c-1.37-0.18-2.68,1.03-2.94,2.69c-0.25,1.67,0.6,3.19,1.99,3.4
	C629.22,439.06,630.54,437.85,630.84,436.17z"/>
<path class="st0" d="M622.93,435.05c0.25-1.66-0.59-3.17-1.91-3.34c-1.29-0.18-2.53,1.02-2.79,2.68c-0.27,1.67,0.52,3.16,1.82,3.36
	C621.37,437.91,622.66,436.73,622.93,435.05z"/>
<path class="st0" d="M612.73,436.72c1.2,0.15,2.45-1.04,2.7-2.7c0.26-1.65-0.52-3.14-1.75-3.3c-1.24-0.14-2.41,1.05-2.69,2.7
	C610.75,435.07,611.49,436.55,612.73,436.72z"/>
<path class="st0" d="M605.88,435.79c1.12,0.15,2.29-1.06,2.52-2.7c0.27-1.64-0.48-3.1-1.59-3.23c-1.14-0.12-2.23,1.07-2.49,2.71
	C604.08,434.19,604.74,435.63,605.88,435.79z"/>
<path class="st0" d="M675.35,429.41c-0.23-0.1-0.48-0.17-0.73-0.2c-0.99-0.16-1.97,0.06-2.77,0.63c-0.83,0.59-1.4,1.48-1.54,2.53
	c-0.3,1.78,0.68,3.56,2.33,4.2c0.23,0.09,0.49,0.15,0.74,0.2c1,0.17,1.99-0.07,2.8-0.65c0.81-0.6,1.37-1.5,1.53-2.52
	C677.99,431.82,676.98,430.07,675.35,429.41z"/>
<path class="st0" d="M666.02,427.81c-0.26-0.08-0.51-0.16-0.77-0.19c-0.94-0.17-1.92,0.06-2.71,0.62c-0.84,0.63-1.39,1.53-1.58,2.57
	c-0.27,1.78,0.69,3.56,2.3,4.2c0.25,0.1,0.51,0.15,0.75,0.2c0.98,0.16,1.94-0.08,2.74-0.64c0.84-0.61,1.4-1.53,1.55-2.56
	C668.6,430.22,667.62,428.46,666.02,427.81z"/>
<path class="st0" d="M654.22,433.15c0.23,0.09,0.45,0.15,0.65,0.2c1.77,0.28,3.49-1.03,3.81-2.92c0.23-1.6-0.61-3.18-2.04-3.75
	c-0.21-0.07-0.43-0.14-0.66-0.18c-1.75-0.28-3.45,1.02-3.77,2.91C651.98,431.01,652.81,432.6,654.22,433.15z"/>
<path class="st0" d="M649.26,428.93c0.28-1.67-0.7-3.21-2.21-3.43c-1.48-0.23-2.89,0.96-3.15,2.61c-0.31,1.69,0.67,3.24,2.16,3.44
	C647.53,431.79,648.99,430.61,649.26,428.93z"/>
<path class="st0" d="M640.68,427.67c0.27-1.68-0.68-3.21-2.12-3.42c-1.42-0.21-2.8,0.99-3.09,2.67c-0.28,1.67,0.65,3.18,2.07,3.39
	C639.01,430.52,640.38,429.33,640.68,427.67z"/>
<path class="st0" d="M632.38,426.47c0.28-1.67-0.61-3.18-2.02-3.35c-1.36-0.19-2.68,1-2.94,2.67c-0.28,1.66,0.59,3.17,1.95,3.35
	C630.76,429.34,632.13,428.14,632.38,426.47z"/>
<path class="st0" d="M621.61,428.09c1.29,0.17,2.57-1.03,2.84-2.7c0.28-1.67-0.59-3.15-1.89-3.31c-1.3-0.16-2.56,1.04-2.81,2.69
	C619.47,426.44,620.31,427.92,621.61,428.09z"/>
<path class="st0" d="M616.94,424.43c0.26-1.63-0.54-3.1-1.77-3.25c-1.21-0.16-2.39,1.08-2.65,2.72c-0.27,1.64,0.49,3.09,1.72,3.24
	C615.47,427.31,616.69,426.09,616.94,424.43z"/>
<path class="st0" d="M609.92,423.6c0.26-1.64-0.49-3.06-1.61-3.19c-1.15-0.12-2.26,1.1-2.53,2.72c-0.24,1.63,0.45,3.06,1.58,3.18
	C608.51,426.45,609.66,425.23,609.92,423.6z"/>
<path class="st0" d="M679.23,424.05c0.28-1.77-0.71-3.54-2.33-4.2c-0.26-0.08-0.49-0.15-0.76-0.19c-0.96-0.2-1.96,0.04-2.75,0.6
	c-0.84,0.61-1.38,1.48-1.53,2.5c-0.32,1.79,0.69,3.54,2.33,4.19c0.22,0.11,0.47,0.18,0.73,0.2c0.96,0.18,1.96-0.04,2.78-0.61
	C678.52,425.94,679.06,425.06,679.23,424.05z"/>
<path class="st0" d="M669.89,422.39c0.27-1.76-0.69-3.54-2.33-4.17c-0.23-0.09-0.46-0.17-0.72-0.2c-0.96-0.17-1.88,0.05-2.7,0.63
	c-0.84,0.61-1.39,1.48-1.58,2.52c-0.27,1.78,0.69,3.54,2.33,4.18c0.23,0.1,0.44,0.17,0.7,0.2c0.97,0.17,1.94-0.07,2.74-0.62
	C669.16,424.33,669.71,423.44,669.89,422.39z"/>
<path class="st0" d="M658.26,417.06c-0.21-0.1-0.42-0.15-0.63-0.18c-1.77-0.3-3.46,1.01-3.77,2.85c-0.3,1.62,0.56,3.19,2,3.75
	c0.2,0.08,0.41,0.14,0.62,0.19c1.77,0.3,3.48-1,3.79-2.86C660.53,419.18,659.7,417.61,658.26,417.06z"/>
<path class="st0" d="M647.67,421.86c1.47,0.23,2.93-0.94,3.22-2.6c0.28-1.64-0.7-3.17-2.2-3.41c-1.51-0.21-2.93,0.95-3.19,2.62
	C645.23,420.13,646.16,421.66,647.67,421.86z"/>
<path class="st0" d="M642.28,418c0.27-1.67-0.67-3.17-2.1-3.38c-1.45-0.2-2.82,0.99-3.09,2.64c-0.27,1.65,0.64,3.17,2.07,3.39
	C640.6,420.83,642,419.66,642.28,418z"/>
<path class="st0" d="M630.96,419.49c1.39,0.19,2.72-0.99,3-2.66c0.28-1.64-0.6-3.14-1.99-3.33c-1.4-0.18-2.72,1.03-2.99,2.68
	C628.7,417.81,629.6,419.32,630.96,419.49z"/>
<path class="st0" d="M626.03,415.79c0.27-1.63-0.58-3.12-1.9-3.26c-1.32-0.16-2.55,1.04-2.84,2.69c-0.27,1.64,0.56,3.11,1.85,3.27
	C624.45,418.66,625.75,417.45,626.03,415.79z"/>
<path class="st0" d="M615.78,417.6c1.21,0.15,2.46-1.07,2.72-2.71c0.28-1.65-0.55-3.1-1.8-3.22c-1.19-0.15-2.4,1.08-2.65,2.73
	C613.76,416.03,614.53,417.46,615.78,417.6z"/>
<path class="st0" d="M611.42,414.12c0.27-1.62-0.46-3.04-1.6-3.15c-1.14-0.12-2.26,1.13-2.52,2.75c-0.24,1.61,0.43,3.02,1.58,3.13
	C610.01,416.96,611.16,415.77,611.42,414.12z"/>
<path class="st0" d="M602.49,416.28c1.04,0.08,2.12-1.15,2.38-2.76c0.25-1.63-0.4-2.99-1.46-3.08c-1.03-0.09-2.07,1.16-2.34,2.77
	C600.83,414.82,601.46,416.19,602.49,416.28z"/>
<path class="st0" d="M596.72,415.84c0.92,0.07,1.92-1.18,2.18-2.77c0.24-1.6-0.35-2.94-1.28-2.99c-0.94-0.05-1.89,1.21-2.13,2.78
	C595.27,414.47,595.79,415.78,596.72,415.84z"/>
<path class="st0" d="M592.48,409.89c-0.85,0-1.68,1.25-1.9,2.82c-0.24,1.55,0.18,2.83,1.02,2.86c0.82,0.04,1.71-1.22,1.98-2.77
	C593.79,411.22,593.29,409.92,592.48,409.89z"/>
<path class="st0" d="M673.41,413.28c-0.31,1.77,0.7,3.52,2.32,4.17c0.24,0.1,0.46,0.16,0.72,0.19c0.99,0.19,1.96-0.02,2.78-0.62
	c0.84-0.57,1.35-1.42,1.52-2.42c0.3-1.77-0.68-3.54-2.36-4.18c-0.22-0.08-0.44-0.16-0.68-0.21c-0.96-0.18-1.96,0.03-2.78,0.59
	C674.14,411.38,673.56,412.27,673.41,413.28z"/>
<path class="st0" d="M671.47,412.91c0.3-1.76-0.66-3.53-2.3-4.17c-0.24-0.09-0.48-0.16-0.72-0.2c-0.94-0.18-1.92,0.05-2.71,0.6
	c-0.85,0.6-1.39,1.49-1.57,2.5c-0.29,1.77,0.66,3.52,2.31,4.17c0.23,0.08,0.47,0.15,0.71,0.19c0.94,0.17,1.92-0.07,2.74-0.62
	C670.76,414.79,671.29,413.92,671.47,412.91z"/>
<path class="st0" d="M659.9,407.54c-0.2-0.08-0.41-0.14-0.63-0.18c-1.74-0.3-3.45,0.96-3.75,2.82c-0.3,1.58,0.54,3.13,1.95,3.7
	c0.2,0.08,0.42,0.14,0.61,0.18c1.8,0.28,3.48-0.97,3.81-2.81C662.17,409.68,661.34,408.1,659.9,407.54z"/>
<path class="st0" d="M652.56,409.71c0.27-1.64-0.72-3.15-2.2-3.37c-1.5-0.23-2.92,0.91-3.23,2.55c-0.29,1.64,0.68,3.15,2.19,3.38
	C650.8,412.5,652.27,411.36,652.56,409.71z"/>
<path class="st0" d="M638.69,407.7c-0.28,1.63,0.65,3.12,2.1,3.33c1.42,0.21,2.84-0.97,3.13-2.61c0.29-1.66-0.68-3.14-2.11-3.35
	C640.37,404.88,638.99,406.05,638.69,407.7z"/>
<path class="st0" d="M630.59,406.62c-0.28,1.65,0.59,3.13,1.97,3.29c1.4,0.18,2.76-1.01,3.05-2.63c0.28-1.64-0.65-3.12-2.03-3.3
	C632.2,403.8,630.87,404.97,630.59,406.62z"/>
<path class="st0" d="M627.64,406.26c0.24-1.63-0.62-3.08-1.93-3.23c-1.3-0.16-2.57,1.05-2.84,2.68c-0.29,1.64,0.53,3.07,1.86,3.23
	C626.05,409.09,627.35,407.91,627.64,406.26z"/>
<path class="st0" d="M620.04,405.41c0.29-1.62-0.52-3.08-1.74-3.19c-1.26-0.13-2.45,1.09-2.71,2.73c-0.28,1.61,0.48,3.02,1.72,3.16
	C618.55,408.24,619.78,407.04,620.04,405.41z"/>
<path class="st0" d="M608.8,404.37c-0.26,1.59,0.43,2.99,1.6,3.08c1.12,0.1,2.28-1.12,2.55-2.73c0.26-1.63-0.47-3.02-1.63-3.12
	C610.16,401.51,609.05,402.74,608.8,404.37z"/>
<path class="st0" d="M602.54,403.95c-0.23,1.58,0.39,2.94,1.42,3c1.04,0.08,2.13-1.16,2.41-2.78c0.25-1.59-0.4-2.96-1.47-3.02
	C603.86,401.09,602.82,402.33,602.54,403.95z"/>
<path class="st0" d="M600.34,403.84c0.26-1.59-0.35-2.91-1.26-2.93c-0.96-0.03-1.9,1.23-2.16,2.81c-0.26,1.57,0.29,2.88,1.26,2.91
	C599.12,406.68,600.12,405.41,600.34,403.84z"/>
<path class="st0" d="M593.87,400.84c-0.83,0.01-1.67,1.29-1.92,2.85c-0.23,1.55,0.2,2.81,1.02,2.82c0.84,0,1.76-1.26,1.99-2.81
	C595.2,402.11,594.69,400.84,593.87,400.84z"/>
<path class="st0" d="M674.97,403.91c-0.29,1.76,0.7,3.51,2.34,4.16c0.22,0.09,0.47,0.15,0.69,0.2c0.99,0.2,1.99-0.01,2.8-0.59
	c0.81-0.56,1.34-1.41,1.49-2.39c0.3-1.74-0.7-3.47-2.34-4.14c-0.21-0.08-0.46-0.15-0.68-0.18c-0.96-0.21-1.94,0-2.78,0.57
	C675.69,402.08,675.14,402.95,674.97,403.91z"/>
<path class="st0" d="M670.76,399.41c-0.21-0.09-0.45-0.15-0.69-0.2c-0.95-0.16-1.92,0.06-2.7,0.61c-0.83,0.56-1.36,1.42-1.57,2.44
	c-0.3,1.73,0.66,3.48,2.28,4.12c0.23,0.1,0.46,0.15,0.72,0.21c0.93,0.17,1.91-0.04,2.71-0.61c0.83-0.58,1.37-1.44,1.55-2.42
	C673.36,401.78,672.4,400.05,670.76,399.41z"/>
<path class="st0" d="M657.19,400.77c-0.27,1.58,0.55,3.12,1.95,3.67c0.2,0.1,0.42,0.15,0.64,0.18c1.77,0.3,3.44-0.95,3.77-2.76
	c0.28-1.57-0.54-3.11-1.98-3.66c-0.2-0.09-0.39-0.16-0.62-0.17C659.22,397.72,657.51,398.96,657.19,400.77z"/>
<path class="st0" d="M648.83,399.46c-0.31,1.61,0.66,3.12,2.16,3.34c1.48,0.23,2.97-0.9,3.26-2.5c0.26-1.61-0.72-3.11-2.2-3.34
	C650.54,396.74,649.12,397.84,648.83,399.46z"/>
<path class="st0" d="M645.58,398.98c0.28-1.62-0.67-3.08-2.1-3.31c-1.47-0.2-2.83,0.94-3.15,2.58c-0.26,1.61,0.66,3.07,2.11,3.27
	C643.9,401.74,645.29,400.59,645.58,398.98z"/>
<path class="st0" d="M637.23,397.81c0.31-1.61-0.63-3.07-2.02-3.24c-1.39-0.19-2.72,0.98-3.03,2.61c-0.25,1.62,0.61,3.07,2,3.24
	C635.58,400.61,636.95,399.45,637.23,397.81z"/>
<path class="st0" d="M629.22,396.82c0.29-1.63-0.56-3.06-1.9-3.21c-1.33-0.15-2.59,1.05-2.88,2.66c-0.27,1.63,0.55,3.05,1.88,3.21
	C627.62,399.63,628.97,398.43,629.22,396.82z"/>
<path class="st0" d="M617.15,395.56c-0.29,1.61,0.48,3.02,1.73,3.13c1.25,0.14,2.46-1.08,2.77-2.7c0.26-1.6-0.55-3.01-1.79-3.14
	C618.58,392.73,617.39,393.94,617.15,395.56z"/>
<path class="st0" d="M614.5,395.34c0.26-1.59-0.5-2.98-1.64-3.07c-1.16-0.07-2.27,1.15-2.56,2.78c-0.24,1.58,0.43,2.96,1.59,3.05
	C613.05,398.17,614.26,396.95,614.5,395.34z"/>
<path class="st0" d="M607.87,394.9c0.25-1.6-0.42-2.96-1.48-3c-1.07-0.04-2.1,1.23-2.34,2.79c-0.27,1.59,0.36,2.92,1.4,2.98
	C606.51,397.73,607.6,396.5,607.87,394.9z"/>
<path class="st0" d="M601.82,394.64c0.24-1.59-0.36-2.89-1.32-2.9c-0.96-0.02-1.89,1.27-2.14,2.85c-0.24,1.57,0.3,2.85,1.25,2.88
	C600.54,397.49,601.56,396.21,601.82,394.64z"/>
<path class="st0" d="M596.39,394.6c0.25-1.59-0.26-2.82-1.11-2.8c-0.85,0.01-1.7,1.33-1.94,2.87c-0.24,1.55,0.21,2.79,1.06,2.78
	C595.24,397.43,596.13,396.16,596.39,394.6z"/>
<path class="st0" d="M681.49,392.21c-0.23-0.09-0.44-0.15-0.68-0.2c-0.98-0.22-1.99,0-2.78,0.55c-0.79,0.53-1.3,1.34-1.48,2.27
	c-0.3,1.7,0.68,3.41,2.31,4.05c0.22,0.11,0.45,0.17,0.68,0.2c1.01,0.19,2,0.01,2.81-0.55c0.8-0.56,1.3-1.35,1.47-2.27
	C684.13,394.57,683.11,392.87,681.49,392.21z"/>
<path class="st0" d="M672.37,390.39c-0.24-0.08-0.43-0.17-0.67-0.21c-0.95-0.18-1.94,0.02-2.74,0.56c-0.81,0.55-1.35,1.39-1.5,2.33
	c-0.33,1.73,0.64,3.41,2.24,4.07c0.22,0.09,0.45,0.16,0.69,0.19c0.96,0.19,1.96-0.02,2.77-0.6c0.8-0.53,1.31-1.35,1.5-2.31
	C674.96,392.74,673.99,391.04,672.37,390.39z"/>
<path class="st0" d="M658.9,391.54c-0.33,1.55,0.5,3.07,1.95,3.62c0.17,0.09,0.38,0.15,0.6,0.2c1.75,0.3,3.42-0.9,3.75-2.68
	c0.29-1.52-0.52-3.05-1.96-3.6c-0.19-0.08-0.38-0.15-0.59-0.2C660.91,388.57,659.22,389.76,658.9,391.54z"/>
<path class="st0" d="M650.57,390.23c-0.32,1.58,0.63,3.04,2.13,3.26c1.51,0.24,2.94-0.85,3.26-2.45c0.3-1.55-0.66-3.03-2.15-3.24
	C652.3,387.58,650.87,388.68,650.57,390.23z"/>
<path class="st0" d="M647.34,389.75c0.3-1.55-0.6-2.97-2.04-3.18c-1.45-0.2-2.86,0.91-3.16,2.47c-0.35,1.57,0.54,2.98,2,3.19
	C645.56,392.44,647.04,391.33,647.34,389.75z"/>
<path class="st0" d="M634.01,387.99c-0.35,1.56,0.48,2.95,1.85,3.12c1.39,0.18,2.82-0.93,3.15-2.48c0.32-1.58-0.54-2.95-1.91-3.13
	C635.71,385.32,634.32,386.44,634.01,387.99z"/>
<path class="st0" d="M626.23,387.13c-0.34,1.55,0.45,2.91,1.76,3.06c1.32,0.14,2.69-0.99,3.03-2.55c0.34-1.54-0.49-2.91-1.82-3.04
	C627.88,384.45,626.55,385.59,626.23,387.13z"/>
<path class="st0" d="M618.86,386.44c-0.32,1.54,0.4,2.87,1.64,2.98c1.26,0.11,2.55-1.04,2.89-2.58c0.33-1.53-0.42-2.9-1.67-2.99
	C620.46,383.74,619.22,384.91,618.86,386.44z"/>
<path class="st0" d="M616.21,386.23c0.33-1.54-0.38-2.87-1.53-2.96c-1.19-0.07-2.37,1.12-2.67,2.66c-0.35,1.54,0.3,2.84,1.48,2.92
	C614.66,388.94,615.9,387.77,616.21,386.23z"/>
<path class="st0" d="M605.66,385.62c-0.29,1.56,0.29,2.83,1.36,2.87c1.04,0.05,2.2-1.15,2.53-2.69c0.32-1.56-0.34-2.84-1.42-2.88
	C607.05,382.87,605.95,384.09,605.66,385.62z"/>
<path class="st0" d="M599.85,385.54c-0.26,1.54,0.27,2.81,1.23,2.81c0.97,0.01,2.02-1.25,2.32-2.77c0.29-1.55-0.28-2.83-1.3-2.83
	C601.12,382.73,600.13,384,599.85,385.54z"/>
<path class="st0" d="M597.84,385.57c0.26-1.56-0.27-2.78-1.13-2.77c-0.88,0.02-1.75,1.31-1.98,2.86c-0.25,1.56,0.2,2.8,1.07,2.76
	C596.63,388.38,597.58,387.12,597.84,385.57z"/>
<path class="st0" d="M663.16,386.3c1.75,0.32,3.38-0.81,3.75-2.55c0.34-1.73-0.84-3.43-2.54-3.76c-0.82-0.16-1.68,0-2.38,0.48
	c-0.71,0.48-1.19,1.21-1.35,2.06c-0.31,1.53,0.52,3.03,1.95,3.59C662.76,386.2,662.94,386.26,663.16,386.3z"/>
<path class="st0" d="M655.59,378.87c-1.46-0.23-2.91,0.85-3.21,2.38c-0.31,1.53,0.63,2.96,2.1,3.17c1.49,0.23,2.93-0.85,3.25-2.4
	C658.01,380.48,657.06,379.09,655.59,378.87z"/>
<path class="st0" d="M643.99,380.09c-0.3,1.52,0.57,2.92,2.01,3.13c1.44,0.2,2.89-0.89,3.18-2.43c0.32-1.53-0.58-2.94-2.02-3.12
	C645.75,377.48,644.32,378.57,643.99,380.09z"/>
<path class="st0" d="M635.9,379.09c-0.32,1.53,0.52,2.9,1.89,3.07c1.4,0.17,2.79-0.93,3.13-2.46c0.32-1.53-0.55-2.89-1.9-3.07
	C637.62,376.48,636.23,377.57,635.9,379.09z"/>
<path class="st0" d="M628.17,378.24c-0.35,1.53,0.45,2.87,1.76,3.02c1.33,0.14,2.67-0.99,3.02-2.49c0.31-1.52-0.47-2.89-1.8-3.03
	C629.83,375.6,628.51,376.73,628.17,378.24z"/>
<path class="st0" d="M625.34,377.97c0.34-1.51-0.42-2.83-1.69-2.95c-1.25-0.12-2.51,1.02-2.83,2.55c-0.34,1.53,0.37,2.84,1.63,2.94
	C623.68,380.64,624.99,379.5,625.34,377.97z"/>
<path class="st0" d="M613.88,377.05c-0.34,1.54,0.34,2.83,1.5,2.9c1.19,0.1,2.44-1.08,2.73-2.59c0.33-1.52-0.37-2.84-1.54-2.91
	C615.38,374.36,614.19,375.54,613.88,377.05z"/>
<path class="st0" d="M607.38,376.73c-0.29,1.53,0.31,2.81,1.42,2.84c1.1,0.05,2.26-1.12,2.58-2.67c0.3-1.51-0.36-2.8-1.45-2.86
	C608.81,373.99,607.7,375.2,607.38,376.73z"/>
<path class="st0" d="M601.48,376.58c-0.3,1.54,0.26,2.81,1.23,2.83c1.01,0.01,2.07-1.2,2.38-2.77c0.31-1.52-0.33-2.8-1.33-2.83
	C602.78,373.8,601.74,375.06,601.48,376.58z"/>
<path class="st0" d="M668.59,375.03c0.31-1.65-0.75-3.33-2.48-3.7c-0.88-0.18-1.72-0.03-2.41,0.44c-0.69,0.45-1.19,1.16-1.35,1.99
	c-0.3,1.51,0.5,3,1.97,3.57c0.16,0.07,0.35,0.13,0.52,0.15c0.84,0.18,1.7,0,2.43-0.47C667.96,376.55,668.41,375.85,668.59,375.03z"
	/>
<path class="st0" d="M654.19,372.46c-0.31,1.5,0.62,2.89,2.09,3.08c1.44,0.23,2.88-0.82,3.21-2.32c0.29-1.5-0.65-2.89-2.1-3.09
	C655.93,369.94,654.53,370.96,654.19,372.46z"/>
<path class="st0" d="M645.89,371.35c-0.31,1.47,0.57,2.84,1.96,3.04c1.43,0.2,2.86-0.87,3.18-2.37c0.32-1.48-0.57-2.85-1.98-3.05
	C647.61,368.79,646.22,369.85,645.89,371.35z"/>
<path class="st0" d="M637.88,370.34c-0.35,1.5,0.5,2.84,1.85,3.02c1.39,0.17,2.74-0.92,3.1-2.41c0.34-1.49-0.52-2.83-1.88-3
	C639.56,367.78,638.19,368.87,637.88,370.34z"/>
<path class="st0" d="M633.11,367.05c-1.33-0.14-2.65,0.94-2.98,2.45c-0.33,1.5,0.45,2.83,1.76,2.97c1.31,0.14,2.67-0.96,3.02-2.46
	C635.26,368.51,634.44,367.2,633.11,367.05z"/>
<path class="st0" d="M622.74,368.8c-0.33,1.5,0.38,2.81,1.67,2.91c1.23,0.14,2.55-1,2.87-2.48c0.34-1.5-0.4-2.83-1.69-2.94
	C624.33,366.17,623.07,367.3,622.74,368.8z"/>
<path class="st0" d="M615.73,368.26c-0.32,1.5,0.37,2.79,1.55,2.88c1.18,0.08,2.43-1.07,2.75-2.58c0.34-1.51-0.39-2.81-1.56-2.9
	C617.26,365.58,616.06,366.75,615.73,368.26z"/>
<path class="st0" d="M609.16,367.88c-0.3,1.51,0.34,2.79,1.45,2.85c1.08,0.06,2.26-1.12,2.58-2.64c0.31-1.51-0.36-2.8-1.48-2.86
	C610.61,365.16,609.45,366.35,609.16,367.88z"/>
<path class="st0" d="M605.41,364.94c-1.03-0.05-2.09,1.18-2.35,2.72c-0.28,1.54,0.31,2.8,1.31,2.83c1.04,0.03,2.13-1.19,2.42-2.71
	C607.08,366.26,606.47,364.99,605.41,364.94z"/>
<path class="st0" d="M656.03,363.92c-0.31,1.46,0.61,2.8,2.05,3.02c1.43,0.2,2.87-0.8,3.18-2.26c0.31-1.45-0.63-2.78-2.07-3
	C657.77,361.47,656.36,362.47,656.03,363.92z"/>
<path class="st0" d="M647.8,362.8c-0.34,1.45,0.55,2.79,1.95,2.97c1.4,0.19,2.81-0.83,3.13-2.29c0.34-1.46-0.56-2.78-1.96-2.97
	C649.52,360.33,648.12,361.33,647.8,362.8z"/>
<path class="st0" d="M642.87,359.46c-1.36-0.17-2.73,0.88-3.07,2.33c-0.33,1.48,0.5,2.78,1.87,2.95c1.38,0.17,2.76-0.88,3.05-2.34
	C645.09,360.94,644.23,359.63,642.87,359.46z"/>
<path class="st0" d="M632.09,360.9c-0.33,1.48,0.44,2.77,1.75,2.93c1.33,0.16,2.69-0.92,3.01-2.4c0.35-1.45-0.47-2.76-1.8-2.9
	C633.76,358.37,632.42,359.44,632.09,360.9z"/>
<path class="st0" d="M624.66,360.16c-0.31,1.48,0.41,2.78,1.67,2.88c1.27,0.12,2.58-0.96,2.91-2.43c0.35-1.49-0.42-2.79-1.71-2.9
	C626.28,357.59,625.02,358.68,624.66,360.16z"/>
<path class="st0" d="M617.6,359.55c-0.3,1.49,0.36,2.77,1.56,2.88c1.18,0.09,2.44-1.04,2.79-2.52c0.33-1.48-0.39-2.78-1.59-2.89
	C619.14,356.93,617.92,358.07,617.6,359.55z"/>
<path class="st0" d="M613.53,356.49c-1.16-0.08-2.3,1.08-2.61,2.6c-0.31,1.51,0.36,2.78,1.49,2.84c1.13,0.07,2.32-1.09,2.61-2.56
	C615.32,357.86,614.66,356.57,613.53,356.49z"/>
<path class="st0" d="M665.87,356.99c-0.34,1.46,0.5,2.92,1.92,3.51c0.18,0.04,0.34,0.09,0.47,0.15c0.85,0.19,1.74,0.06,2.45-0.41
	c0.65-0.41,1.1-1.05,1.26-1.79c0.32-1.58-0.74-3.19-2.45-3.6c-0.85-0.21-1.71-0.08-2.39,0.36
	C666.46,355.61,666.01,356.24,665.87,356.99z"/>
<path class="st0" d="M661.01,353.5c-1.42-0.2-2.81,0.72-3.13,2.15c-0.32,1.39,0.57,2.72,2.03,2.92c1.41,0.22,2.81-0.77,3.13-2.17
	C663.36,355.01,662.44,353.72,661.01,353.5z"/>
<path class="st0" d="M652.81,352.28c-1.39-0.19-2.78,0.79-3.1,2.19c-0.34,1.43,0.54,2.72,1.92,2.93c1.42,0.18,2.8-0.81,3.15-2.22
	C655.09,353.78,654.21,352.5,652.81,352.28z"/>
<path class="st0" d="M641.76,353.42c-0.34,1.44,0.49,2.72,1.83,2.89c1.37,0.18,2.76-0.83,3.09-2.25c0.35-1.41-0.5-2.72-1.86-2.9
	C643.47,350.98,642.1,351.99,641.76,353.42z"/>
<path class="st0" d="M634.06,352.47c-0.36,1.45,0.41,2.76,1.75,2.89c1.33,0.15,2.66-0.87,3.02-2.31c0.34-1.44-0.47-2.71-1.79-2.88
	C635.71,350,634.39,351.04,634.06,352.47z"/>
<path class="st0" d="M626.63,351.63c-0.35,1.48,0.4,2.76,1.65,2.9c1.28,0.12,2.61-0.95,2.93-2.4c0.35-1.43-0.45-2.71-1.7-2.86
	C628.24,349.12,626.95,350.19,626.63,351.63z"/>
<path class="st0" d="M622.27,348.5c-1.24-0.12-2.48,0.97-2.8,2.45c-0.33,1.48,0.37,2.76,1.6,2.87c1.21,0.11,2.49-0.99,2.8-2.46
	C624.21,349.9,623.48,348.62,622.27,348.5z"/>
<path class="st0" d="M671.25,347.07c-0.84-0.22-1.75-0.11-2.43,0.33c-0.63,0.38-1.08,0.99-1.24,1.69c-0.29,1.38,0.53,2.86,1.97,3.44
	c0.14,0.06,0.28,0.09,0.42,0.13c0.86,0.21,1.74,0.08,2.45-0.36c0.63-0.38,1.04-0.98,1.2-1.69
	C673.96,349.11,672.9,347.5,671.25,347.07z"/>
<path class="st0" d="M659.7,347.66c-0.31,1.35,0.58,2.62,1.99,2.84c1.41,0.25,2.83-0.68,3.13-2.03c0.28-1.34-0.62-2.6-1.99-2.84
	C661.41,345.41,660.03,346.31,659.7,347.66z"/>
<path class="st0" d="M651.63,346.43c-0.33,1.36,0.5,2.64,1.89,2.85c1.39,0.2,2.8-0.75,3.13-2.11c0.31-1.34-0.57-2.62-1.94-2.83
	C653.32,344.14,651.95,345.06,651.63,346.43z"/>
<path class="st0" d="M643.72,345.27c-0.33,1.39,0.48,2.67,1.83,2.87c1.34,0.19,2.73-0.78,3.06-2.16c0.33-1.38-0.49-2.65-1.85-2.84
	C645.41,342.93,644.06,343.9,643.72,345.27z"/>
<path class="st0" d="M636.02,344.23c-0.35,1.4,0.43,2.68,1.76,2.87c1.31,0.17,2.68-0.86,3-2.21c0.33-1.41-0.45-2.67-1.77-2.86
	C637.68,341.82,636.35,342.82,636.02,344.23z"/>
<path class="st0" d="M631.44,341c-1.27-0.17-2.55,0.84-2.89,2.28c-0.33,1.44,0.42,2.71,1.68,2.88c1.28,0.12,2.6-0.9,2.94-2.31
	C633.52,342.44,632.73,341.17,631.44,341z"/>
<path class="st0" d="M677.32,343.73c-0.32,1.52,0.64,3.15,2.31,3.8c0.12,0.04,0.29,0.08,0.42,0.13c0.98,0.27,1.99,0.15,2.78-0.34
	c0.69-0.42,1.17-1.04,1.31-1.79c0.37-1.67-0.82-3.38-2.7-3.9c-0.99-0.27-1.98-0.18-2.78,0.31
	C677.98,342.34,677.5,342.97,677.32,343.73z"/>
<path class="st0" d="M669.32,341.52c-0.29,1.35,0.56,2.8,1.99,3.38c0.1,0.05,0.24,0.1,0.36,0.12c0.87,0.23,1.78,0.13,2.49-0.32
	c0.57-0.36,1-0.92,1.16-1.58c0.31-1.44-0.72-3-2.36-3.45c-0.85-0.24-1.74-0.14-2.45,0.29C669.9,340.31,669.5,340.86,669.32,341.52z"
	/>
<path class="st0" d="M664.65,338.11c-1.4-0.25-2.78,0.59-3.08,1.88c-0.34,1.29,0.53,2.56,1.9,2.78c1.44,0.23,2.83-0.62,3.12-1.9
	C666.89,339.6,666.02,338.37,664.65,338.11z"/>
<path class="st0" d="M653.51,338.64c-0.3,1.31,0.52,2.58,1.9,2.79c1.38,0.24,2.78-0.67,3.06-1.96c0.36-1.3-0.51-2.54-1.87-2.78
	C655.21,336.46,653.87,337.33,653.51,338.64z"/>
<path class="st0" d="M645.67,337.38c-0.33,1.33,0.45,2.61,1.8,2.81c1.35,0.21,2.72-0.71,3.06-2.02c0.33-1.33-0.48-2.58-1.83-2.81
	C647.38,335.12,646.01,336.02,645.67,337.38z"/>
<path class="st0" d="M640.97,334.08c-1.32-0.21-2.66,0.73-2.99,2.09c-0.35,1.38,0.43,2.66,1.77,2.84c1.28,0.19,2.64-0.75,3-2.1
	C643.07,335.57,642.28,334.3,640.97,334.08z"/>
<path class="st0" d="M681.2,340.36c0.11,0.06,0.25,0.11,0.39,0.14c0.99,0.27,2.01,0.17,2.8-0.3c0.66-0.39,1.1-0.99,1.24-1.69
	c0.35-1.57-0.8-3.27-2.66-3.81c-0.98-0.3-2.01-0.21-2.8,0.26c-0.64,0.37-1.08,0.97-1.25,1.68
	C678.6,338.11,679.57,339.73,681.2,340.36z"/>
<path class="st0" d="M673.01,337.63c0.14,0.05,0.26,0.08,0.38,0.11c0.87,0.26,1.73,0.16,2.45-0.26c0.58-0.34,0.97-0.85,1.12-1.47
	c0.34-1.37-0.7-2.88-2.32-3.36c-0.85-0.24-1.75-0.17-2.47,0.24c-0.57,0.33-0.97,0.85-1.1,1.45
	C670.74,335.65,671.59,337.06,673.01,337.63z"/>
<path class="st0" d="M665.33,335.39c1.36,0.24,2.74-0.53,3.04-1.75c0.31-1.21-0.56-2.41-1.94-2.67c-1.37-0.28-2.74,0.48-3.04,1.71
	C663.07,333.91,663.92,335.14,665.33,335.39z"/>
<path class="st0" d="M658.47,329.39c-1.35-0.29-2.73,0.52-3.05,1.78c-0.32,1.26,0.51,2.49,1.88,2.73c1.36,0.26,2.73-0.57,3.05-1.79
	C660.68,330.84,659.84,329.65,658.47,329.39z"/>
<path class="st0" d="M650.63,327.86c-1.33-0.25-2.67,0.58-3.01,1.88c-0.35,1.3,0.45,2.54,1.82,2.77c1.34,0.25,2.7-0.61,3-1.88
	C652.77,329.35,651.96,328.13,650.63,327.86z"/>
<path class="st0" d="M682.79,333.61c0.11,0.04,0.23,0.07,0.34,0.11c1,0.31,2.01,0.23,2.81-0.24c0.64-0.37,1.05-0.92,1.21-1.57
	c0.34-1.5-0.8-3.15-2.59-3.72c-1.01-0.31-2.04-0.23-2.83,0.21c-0.64,0.35-1.03,0.91-1.23,1.59
	C680.17,331.41,681.17,332.96,682.79,333.61z"/>
<path class="st0" d="M674.75,330.77c0.09,0.04,0.2,0.07,0.3,0.11c0.89,0.25,1.77,0.18,2.47-0.22c0.56-0.31,0.92-0.79,1.07-1.34
	c0.31-1.33-0.69-2.78-2.26-3.28c-0.88-0.27-1.79-0.2-2.48,0.2c-0.53,0.27-0.91,0.75-1.06,1.33
	C672.45,328.82,673.32,330.2,674.75,330.77z"/>
<path class="st0" d="M667.11,328.38c1.35,0.29,2.72-0.42,3-1.56c0.31-1.12-0.54-2.29-1.91-2.6c-1.35-0.31-2.69,0.36-3.02,1.52
	C664.87,326.9,665.73,328.09,667.11,328.38z"/>
<path class="st0" d="M1306.37,465.49h-33.01V433.1c0-0.24-0.03-0.47-0.04-0.7V323.77c0-10.22-8.64-18.87-18.88-18.87h-2.01
	c-6.93,0-13.29,3.56-17.44,9.77l-103,151.67l-103.05-151.72c-5.18-6.68-10.77-9.72-17.41-9.72h-1.03c0,0-22.74-0.2-28.39-0.2
	c-10.36,0-18.47,8.11-18.47,18.47v213.46L788.49,314.35c-4.83-6.2-10.41-9.23-17.06-9.23h-3.21c-10.24,0-18.88,8.64-18.88,18.86
	v181.7c-0.26-0.58-0.71-1.06-1.32-1.31c-0.32-0.11-0.63-0.17-0.94-0.2c-1.63-0.04-3.14,1.21-3.43,2.83
	c-0.2,1.26,0.41,2.43,1.58,2.88c0.28,0.11,0.64,0.17,0.97,0.18c1.37,0.04,2.65-0.95,3.15-2.24v13.43c-0.36,0.44-0.65,0.93-0.76,1.47
	c-0.23,1.01,0.08,1.95,0.76,2.55v2.18c-1.19,0.51-2.18,1.56-2.43,2.76c-0.3,1.27,0.3,2.43,1.45,2.89c0.3,0.12,0.64,0.13,0.98,0.14
	v1.27c-0.14,0-0.25-0.06-0.39-0.05c-1.71,0.12-3.34,1.5-3.7,3.09c-0.26,1.23,0.27,2.38,1.41,2.82c0.44,0.16,0.9,0.23,1.42,0.17
	c0.43-0.04,0.85-0.16,1.26-0.34v2.01c-0.18-0.15-0.39-0.28-0.62-0.37c-0.4-0.17-0.89-0.23-1.44-0.17c-1.7,0.17-3.31,1.51-3.68,3.06
	c-0.29,1.21,0.28,2.32,1.36,2.75c0.44,0.17,0.94,0.23,1.47,0.16c1.13-0.12,2.2-0.79,2.91-1.67v9.87c-0.52,0.5-0.92,1.09-1.07,1.72
	c-0.26,1.05,0.17,1.98,1.07,2.43v1.45c-1.31,0.5-2.42,1.56-2.69,2.71c-0.29,1.11,0.22,2.08,1.23,2.51c0.44,0.16,0.94,0.22,1.46,0.15
	v0.83c-0.22-0.01-0.44-0.01-0.68,0.02c-1.69,0.23-3.26,1.53-3.62,2.91c-0.26,1.1,0.2,2.05,1.24,2.46c0.46,0.18,1.01,0.25,1.59,0.18
	c0.51-0.07,1-0.27,1.46-0.51v1.83c-0.19-0.16-0.41-0.29-0.67-0.39c-0.46-0.18-1-0.25-1.58-0.18c-1.69,0.24-3.28,1.48-3.65,2.86
	c-0.27,1.05,0.21,2,1.25,2.39c0.47,0.21,1.02,0.26,1.61,0.18c1.22-0.15,2.36-0.84,3.04-1.73v2.2c-0.54,2.62-1.45,5.05-2.77,7.17
	c-0.23-0.34-0.56-0.63-1.01-0.8c-0.46-0.18-1-0.26-1.59-0.19c-1.7,0.17-3.32,1.31-3.67,2.61c-0.29,0.99,0.23,1.94,1.26,2.34
	c0.38,0.16,0.83,0.22,1.31,0.2c-1.14,0.88-2.44,1.62-3.93,2.19c-3.25,1.24-6.78,1.83-10.38,2.16c0.06-0.11,0.16-0.21,0.19-0.32
	c0.2-0.74-0.18-1.43-0.99-1.75c-0.41-0.17-0.91-0.24-1.48-0.18c-1.58,0.1-3.05,0.98-3.35,2.01c-0.06,0.2-0.06,0.4-0.03,0.58
	c-0.93,0.04-1.85,0.07-2.76,0.09c0.08-0.11,0.18-0.22,0.21-0.34c0.17-0.56-0.14-1.07-0.78-1.34c-0.39-0.15-0.86-0.22-1.38-0.19
	c-1.45,0.1-2.83,0.88-3.05,1.75c-0.02,0.08-0.02,0.15-0.03,0.22c-0.05,0-0.1,0-0.15-0.01c-0.92-0.03-1.86-0.05-2.8-0.06
	c0.18-0.79-0.73-1.34-2.09-1.25c-1.14,0.07-2.18,0.57-2.69,1.16c-2.32-0.06-4.63-0.17-6.88-0.49c-4.25-0.6-8.5-1.19-12.74-1.78
	c0.56-0.3,0.96-0.71,1.05-1.17c0.2-0.87-0.79-1.58-2.21-1.53c-1.47,0.05-2.78,0.84-2.91,1.7c0,0,0,0.01,0,0.01
	c-4.21-1.06-8.38-2.2-12.52-3.46c0.99-0.28,1.75-0.92,1.86-1.67c0.13-1-0.92-1.8-2.39-1.77c-1.47,0.01-2.78,0.87-2.9,1.86
	c-0.03,0.2,0.03,0.37,0.09,0.54c-2.07-0.68-4.14-1.4-6.2-2.17c-17.15-6.43-33.05-17.52-46.07-30.26
	c-20.01-19.58-33.44-44.28-39.58-71.51c-7.49-33.15-1.91-67.55,13.36-97.67c8.13-16.03,19.99-30.01,33.38-41.86
	c12.01-10.54,25.63-18.17,40.1-24.72c-10.51,4.42-20.61,9.25-30.09,15.64c-11.25,7.59-21.09,16.72-30.05,26.88
	c-17.76,20.14-30,47.44-33.28,74.07c-3.41,27.78-0.45,56.63,11.6,82.17c6.29,13.33,13.82,25.71,23.61,36.83
	c11.73,13.33,26,25.62,41.98,33.59c8.31,4.15,16.84,8.5,25.84,11c9.13,2.53,18.11,4.44,27.5,5.72c8.12,1.13,18.47,0.9,23.42,0.85
	c1.66-0.01,37.99,0,44.42,0c0,0,0.01,0,0.01,0c0,0,0,0,0.01,0c0.61,0,0.97,0,0.97,0s-0.07-0.03-0.11-0.04
	c9.94-0.44,17.61-8.36,17.61-18.43V369.53l178.79,226.73c2.47,3.09,8.16,10.23,17.06,10.23h26.91c0.03,0,0.07,0.01,0.11,0.01
	c0.03,0,0.08-0.01,0.11-0.01h1.19c0.39,0,0.74-0.17,1.12-0.23c9.16-1.16,16.03-8.7,16.03-18.23V378.61l88.23,128.38
	c4.85,7.32,11.25,8.87,15.77,8.87c6.54,0,11.87-3.02,15.85-8.96l88.15-128.29v86.88h-32.99c-10.32,0-18.72,8.38-18.72,18.67
	c0,10.31,8.4,18.69,18.72,18.69h32.99v84.79c0,10.23,8.64,18.87,18.87,18.87c10.24,0,18.88-8.64,18.88-18.87v-51.68
	c0.01-0.24,0.04-0.47,0.04-0.7v-32.4h33.01c10.31,0,18.7-8.38,18.7-18.69C1325.07,473.86,1316.67,465.49,1306.37,465.49z
	 M990.66,576.42h-0.05v21.67h-8.5c-4.04,0-7.26-3.01-10.47-7.04l-188.5-239.04c-0.07-0.08-0.12-0.17-0.19-0.24
	c-0.55-0.53-1.28-0.85-2.1-0.85c-1.58,0-2.83,1.21-2.98,2.75c-0.01,0.1-0.06,0.18-0.06,0.29c0,0.1,0.05,0.18,0.06,0.29v234
	c0,5.64-4.44,10.07-10.08,10.07c-5.64,0-10.07-4.43-10.07-10.07V323.97c0-5.64,4.85-10.47,10.49-10.47h3.21
	c4.44,0,7.65,2.42,10.47,6.04L966.3,553.57c0.18,0.38,0.45,0.7,0.76,0.97c0.53,0.45,1.2,0.75,1.95,0.75c1.66,0,2.99-1.32,3.03-2.97
	c0-0.03,0.01-0.05,0.01-0.07s-0.01-0.05-0.01-0.07v-229c0-5.64,4.44-10.07,10.08-10.07c1.67,0,4.86,0.02,8.5,0.05v11.01h0.05V576.42
	z M1306.37,494.79h-41.07v40.46c0,5.97-4.85,10.83-10.82,10.83c-5.97,0-10.82-4.86-10.82-10.83v-40.46h-41.07
	c-5.88,0-10.66-4.77-10.66-10.63c0-5.85,4.78-10.61,10.66-10.61h41.07V433.1c0-5.98,4.85-10.85,10.82-10.85
	c5.97,0,10.82,4.87,10.82,10.85v40.44h41.07c5.87,0,10.64,4.76,10.64,10.61C1317.01,490.01,1312.24,494.79,1306.37,494.79z"/>
<g>
	<path class="st0" d="M562,751.46V743c0-0.83,0.66-1.49,1.51-1.49c0.83,0,1.49,0.66,1.49,1.49v8.34c0,3.17,1.63,4.85,4.32,4.85
		c2.65,0,4.29-1.59,4.29-4.73V743c0-0.83,0.66-1.49,1.51-1.49c0.83,0,1.49,0.66,1.49,1.49v8.32c0,5.1-2.88,7.66-7.34,7.66
		C564.83,758.97,562,756.41,562,751.46z"/>
	<path class="st0" d="M580.74,743.04c0-0.83,0.66-1.51,1.51-1.51h0.32c0.73,0,1.14,0.36,1.56,0.88l8.53,11.05v-10.49
		c0-0.8,0.66-1.46,1.47-1.46c0.83,0,1.49,0.66,1.49,1.46v14.34c0,0.83-0.64,1.49-1.47,1.49h-0.12c-0.71,0-1.15-0.37-1.56-0.91
		l-8.79-11.36v10.83c0,0.8-0.66,1.46-1.46,1.46c-0.83,0-1.49-0.66-1.49-1.46V743.04z"/>
	<path class="st0" d="M600.19,743c0-0.83,0.66-1.49,1.51-1.49c0.82,0,1.49,0.66,1.49,1.49v14.34c0,0.83-0.66,1.49-1.49,1.49
		c-0.85,0-1.51-0.66-1.51-1.49V743z"/>
	<path class="st0" d="M612.71,757.73l-5.98-14.04c-0.1-0.22-0.17-0.44-0.17-0.71c0-0.8,0.66-1.46,1.51-1.46
		c0.78,0,1.3,0.44,1.54,1.07l4.93,12.31l5-12.42c0.2-0.51,0.73-0.97,1.44-0.97c0.83,0,1.49,0.63,1.49,1.44
		c0,0.22-0.07,0.46-0.15,0.64l-6,14.14c-0.31,0.76-0.87,1.22-1.73,1.22h-0.17C613.59,758.95,613.03,758.48,612.71,757.73z"/>
	<path class="st0" d="M625.65,757.19v-14.05c0-0.85,0.66-1.51,1.51-1.51h9.93c0.73,0,1.34,0.61,1.34,1.35
		c0,0.75-0.61,1.34-1.34,1.34h-8.44v4.44h7.34c0.73,0,1.34,0.61,1.34,1.37c0,0.73-0.61,1.31-1.34,1.31h-7.34v4.59h8.56
		c0.73,0,1.34,0.61,1.34,1.34c0,0.75-0.61,1.34-1.34,1.34h-10.04C626.31,758.7,625.65,758.04,625.65,757.19z"/>
	<path class="st0" d="M642,743.14c0-0.85,0.66-1.51,1.51-1.51h6.1c2.15,0,3.83,0.64,4.93,1.71c0.9,0.93,1.41,2.2,1.41,3.68v0.05
		c0,2.73-1.58,4.39-3.88,5.1l3.27,4.12c0.29,0.37,0.49,0.68,0.49,1.15c0,0.83-0.71,1.39-1.44,1.39c-0.68,0-1.12-0.32-1.46-0.78
		l-4.15-5.29h-3.78v4.59c0,0.83-0.65,1.49-1.48,1.49c-0.85,0-1.51-0.66-1.51-1.49V743.14z M649.39,750.1c2.15,0,3.51-1.12,3.51-2.86
		v-0.05c0-1.83-1.32-2.83-3.54-2.83h-4.37v5.73H649.39z"/>
	<path class="st0" d="M659.2,756.8c-0.34-0.24-0.59-0.66-0.59-1.15c0-0.78,0.63-1.39,1.41-1.39c0.42,0,0.68,0.12,0.88,0.27
		c1.41,1.12,2.93,1.76,4.78,1.76c1.86,0,3.03-0.88,3.03-2.15v-0.05c0-1.22-0.68-1.88-3.86-2.61c-3.63-0.88-5.68-1.95-5.68-5.1v-0.05
		c0-2.93,2.44-4.95,5.83-4.95c2.15,0,3.88,0.56,5.42,1.59c0.34,0.19,0.65,0.61,0.65,1.19c0,0.78-0.63,1.39-1.41,1.39
		c-0.29,0-0.53-0.07-0.78-0.22c-1.32-0.85-2.59-1.29-3.93-1.29c-1.76,0-2.78,0.9-2.78,2.02v0.05c0,1.32,0.78,1.9,4.08,2.69
		c3.61,0.88,5.46,2.17,5.46,5v0.05c0,3.19-2.51,5.1-6.1,5.1C663.29,758.95,661.1,758.22,659.2,756.8z"/>
	<path class="st0" d="M675.43,743c0-0.83,0.65-1.49,1.51-1.49c0.83,0,1.49,0.66,1.49,1.49v14.34c0,0.83-0.66,1.49-1.49,1.49
		c-0.85,0-1.51-0.66-1.51-1.49V743z"/>
	<path class="st0" d="M687.19,744.41h-4.14c-0.78,0-1.39-0.63-1.39-1.39c0-0.76,0.61-1.39,1.39-1.39h11.34
		c0.75,0,1.37,0.64,1.37,1.39c0,0.76-0.61,1.39-1.37,1.39h-4.17v12.93c0,0.83-0.68,1.49-1.51,1.49s-1.51-0.66-1.51-1.49V744.41z"/>
	<path class="st0" d="M703.61,752.07l-5.88-8.07c-0.2-0.29-0.34-0.64-0.34-1.05c0-0.8,0.66-1.44,1.51-1.44c0.66,0,1.1,0.36,1.46,0.9
		l4.76,6.85l4.83-6.88c0.37-0.54,0.81-0.9,1.44-0.9c0.88,0,1.46,0.66,1.46,1.46c0,0.41-0.2,0.78-0.42,1.07l-5.83,7.98v5.34
		c0,0.83-0.65,1.49-1.51,1.49c-0.83,0-1.49-0.66-1.49-1.49V752.07z"/>
	<path class="st0" d="M722.36,750.22v-0.05c0-4.81,3.7-8.83,8.95-8.83c5.24,0,8.9,3.98,8.9,8.78v0.05c0,4.81-3.7,8.83-8.95,8.83
		C726.02,759,722.36,755.02,722.36,750.22z M737.06,750.22v-0.05c0-3.32-2.42-6.07-5.81-6.07c-3.39,0-5.75,2.71-5.75,6.03v0.05
		c0,3.32,2.41,6.05,5.81,6.05C734.7,756.21,737.06,753.54,737.06,750.22z"/>
	<path class="st0" d="M743.85,743.14c0-0.85,0.66-1.51,1.51-1.51h9.95c0.76,0,1.37,0.61,1.37,1.37c0,0.76-0.61,1.36-1.37,1.36h-8.46
		v4.66h7.37c0.75,0,1.37,0.61,1.37,1.36c0,0.76-0.61,1.37-1.37,1.37h-7.37v5.59c0,0.83-0.66,1.49-1.49,1.49
		c-0.85,0-1.51-0.66-1.51-1.49V743.14z"/>
	<path class="st0" d="M767.19,743c0-0.83,0.65-1.49,1.51-1.49c0.82,0,1.48,0.66,1.48,1.49v7.22l8.1-8.15
		c0.34-0.37,0.71-0.56,1.25-0.56c0.83,0,1.39,0.66,1.39,1.39c0,0.46-0.2,0.81-0.53,1.12l-5.32,5.12l5.75,7.15
		c0.24,0.32,0.42,0.61,0.42,1.07c0,0.83-0.65,1.46-1.51,1.46c-0.59,0-0.96-0.29-1.27-0.71l-5.49-7l-2.78,2.68v3.54
		c0,0.83-0.66,1.49-1.48,1.49c-0.86,0-1.51-0.66-1.51-1.49V743z"/>
	<path class="st0" d="M784.59,757.19v-14.05c0-0.85,0.65-1.51,1.51-1.51h9.93c0.73,0,1.34,0.61,1.34,1.35
		c0,0.75-0.61,1.34-1.34,1.34h-8.44v4.44h7.34c0.73,0,1.34,0.61,1.34,1.37c0,0.73-0.61,1.31-1.34,1.31h-7.34v4.59h8.56
		c0.73,0,1.35,0.61,1.35,1.34c0,0.75-0.62,1.34-1.35,1.34H786.1C785.24,758.7,784.59,758.04,784.59,757.19z"/>
	<path class="st0" d="M800.94,743.04c0-0.83,0.66-1.51,1.51-1.51h0.32c0.73,0,1.15,0.36,1.56,0.88l8.53,11.05v-10.49
		c0-0.8,0.66-1.46,1.47-1.46c0.83,0,1.49,0.66,1.49,1.46v14.34c0,0.83-0.64,1.49-1.47,1.49h-0.12c-0.71,0-1.15-0.37-1.56-0.91
		l-8.79-11.36v10.83c0,0.8-0.66,1.46-1.46,1.46c-0.83,0-1.49-0.66-1.49-1.46V743.04z"/>
	<path class="st0" d="M824.41,744.41h-4.14c-0.78,0-1.4-0.63-1.4-1.39c0-0.76,0.61-1.39,1.4-1.39h11.34c0.75,0,1.37,0.64,1.37,1.39
		c0,0.76-0.61,1.39-1.37,1.39h-4.17v12.93c0,0.83-0.68,1.49-1.51,1.49c-0.82,0-1.51-0.66-1.51-1.49V744.41z"/>
	<path class="st0" d="M835.76,751.46V743c0-0.83,0.66-1.49,1.51-1.49c0.82,0,1.48,0.66,1.48,1.49v8.34c0,3.17,1.64,4.85,4.32,4.85
		c2.66,0,4.3-1.59,4.3-4.73V743c0-0.83,0.65-1.49,1.51-1.49c0.83,0,1.48,0.66,1.48,1.49v8.32c0,5.1-2.88,7.66-7.34,7.66
		C838.59,758.97,835.76,756.41,835.76,751.46z"/>
	<path class="st0" d="M853.75,750.22v-0.05c0-4.85,3.63-8.83,8.8-8.83c2.64,0,4.36,0.78,5.85,1.92c0.32,0.25,0.58,0.66,0.58,1.2
		c0,0.83-0.65,1.46-1.48,1.46c-0.42,0-0.71-0.15-0.9-0.29c-1.17-0.95-2.43-1.54-4.07-1.54c-3.24,0-5.63,2.68-5.63,6.03v0.05
		c0,3.34,2.36,6.05,5.63,6.05c1.8,0,3.02-0.58,4.27-1.63c0.22-0.19,0.53-0.34,0.9-0.34c0.75,0,1.41,0.63,1.41,1.39
		c0,0.46-0.22,0.83-0.49,1.07c-1.61,1.41-3.44,2.29-6.19,2.29C857.45,759,853.75,755.12,853.75,750.22z"/>
	<path class="st0" d="M872.51,743c0-0.83,0.66-1.49,1.51-1.49c0.83,0,1.49,0.66,1.49,1.49v7.22l8.1-8.15
		c0.34-0.37,0.71-0.56,1.24-0.56c0.83,0,1.39,0.66,1.39,1.39c0,0.46-0.2,0.81-0.53,1.12l-5.32,5.12l5.76,7.15
		c0.24,0.32,0.42,0.61,0.42,1.07c0,0.83-0.66,1.46-1.51,1.46c-0.59,0-0.95-0.29-1.27-0.71l-5.48-7l-2.78,2.68v3.54
		c0,0.83-0.66,1.49-1.49,1.49c-0.85,0-1.51-0.66-1.51-1.49V743z"/>
	<path class="st0" d="M894.16,752.07l-5.88-8.07c-0.2-0.29-0.34-0.64-0.34-1.05c0-0.8,0.66-1.44,1.51-1.44c0.66,0,1.1,0.36,1.47,0.9
		l4.76,6.85l4.83-6.88c0.37-0.54,0.81-0.9,1.44-0.9c0.88,0,1.46,0.66,1.46,1.46c0,0.41-0.19,0.78-0.41,1.07l-5.83,7.98v5.34
		c0,0.83-0.66,1.49-1.51,1.49c-0.82,0-1.49-0.66-1.49-1.49V752.07z"/>
	<path class="st0" d="M914,750.14v-0.05c0-1.9,1.59-3.44,3.47-3.44c1.85,0,3.44,1.54,3.44,3.44v0.05c0,1.9-1.56,3.42-3.44,3.42
		C915.56,753.56,914,752.05,914,750.14z"/>
	<path class="st0" d="M932.21,750.22v-0.05c0-4.85,3.63-8.83,8.8-8.83c2.64,0,4.37,0.78,5.86,1.92c0.31,0.25,0.58,0.66,0.58,1.2
		c0,0.83-0.66,1.46-1.49,1.46c-0.41,0-0.71-0.15-0.9-0.29c-1.17-0.95-2.44-1.54-4.07-1.54c-3.24,0-5.63,2.68-5.63,6.03v0.05
		c0,3.34,2.37,6.05,5.63,6.05c1.8,0,3.03-0.58,4.27-1.63c0.22-0.19,0.53-0.34,0.9-0.34c0.76,0,1.41,0.63,1.41,1.39
		c0,0.46-0.22,0.83-0.48,1.07c-1.61,1.41-3.44,2.29-6.2,2.29C935.91,759,932.21,755.12,932.21,750.22z"/>
	<path class="st0" d="M949.73,750.22v-0.05c0-4.81,3.7-8.83,8.95-8.83c5.24,0,8.9,3.98,8.9,8.78v0.05c0,4.81-3.7,8.83-8.95,8.83
		C953.39,759,949.73,755.02,949.73,750.22z M964.44,750.22v-0.05c0-3.32-2.41-6.07-5.81-6.07c-3.39,0-5.75,2.71-5.75,6.03v0.05
		c0,3.32,2.41,6.05,5.81,6.05C962.07,756.21,964.44,753.54,964.44,750.22z"/>
	<path class="st0" d="M971.23,743c0-0.83,0.66-1.49,1.51-1.49c0.83,0,1.49,0.66,1.49,1.49v12.97h7.73c0.75,0,1.37,0.61,1.37,1.37
		c0,0.75-0.61,1.36-1.37,1.36h-9.22c-0.85,0-1.51-0.66-1.51-1.51V743z"/>
	<path class="st0" d="M986.33,743c0-0.83,0.66-1.49,1.51-1.49c0.83,0,1.48,0.66,1.48,1.49v12.97h7.73c0.75,0,1.37,0.61,1.37,1.37
		c0,0.75-0.61,1.36-1.37,1.36h-9.22c-0.85,0-1.51-0.66-1.51-1.51V743z"/>
	<path class="st0" d="M1001.44,757.19v-14.05c0-0.85,0.65-1.51,1.51-1.51h9.93c0.73,0,1.34,0.61,1.34,1.35
		c0,0.75-0.61,1.34-1.34,1.34h-8.44v4.44h7.34c0.74,0,1.34,0.61,1.34,1.37c0,0.73-0.61,1.31-1.34,1.31h-7.34v4.59h8.56
		c0.73,0,1.34,0.61,1.34,1.34c0,0.75-0.61,1.34-1.34,1.34h-10.04C1002.09,758.7,1001.44,758.04,1001.44,757.19z"/>
	<path class="st0" d="M1017.04,750.22v-0.05c0-4.78,3.66-8.83,8.8-8.83c2.56,0,4.27,0.61,5.83,1.73c0.29,0.22,0.61,0.64,0.61,1.22
		c0,0.8-0.66,1.49-1.49,1.49c-0.39,0-0.68-0.17-0.93-0.34c-1.1-0.8-2.29-1.34-4.15-1.34c-3.15,0-5.53,2.76-5.53,6.03v0.05
		c0,3.51,2.32,6.1,5.81,6.1c1.61,0,3.07-0.51,4.12-1.29v-3.19h-3.37c-0.73,0-1.34-0.56-1.34-1.29c0-0.74,0.61-1.32,1.34-1.32h4.76
		c0.85,0,1.51,0.66,1.51,1.51v4.56c0,0.85-0.34,1.46-1.05,1.9c-1.46,0.97-3.51,1.86-6.07,1.86
		C1020.55,759,1017.04,755.19,1017.04,750.22z"/>
	<path class="st0" d="M1036.92,757.19v-14.05c0-0.85,0.66-1.51,1.51-1.51h9.93c0.74,0,1.34,0.61,1.34,1.35
		c0,0.75-0.61,1.34-1.34,1.34h-8.44v4.44h7.34c0.74,0,1.34,0.61,1.34,1.37c0,0.73-0.61,1.31-1.34,1.31h-7.34v4.59h8.55
		c0.74,0,1.35,0.61,1.35,1.34c0,0.75-0.61,1.34-1.35,1.34h-10.04C1037.58,758.7,1036.92,758.04,1036.92,757.19z"/>
	<path class="st0" d="M1059.84,750.22v-0.05c0-4.81,3.7-8.83,8.95-8.83c5.24,0,8.9,3.98,8.9,8.78v0.05c0,4.81-3.7,8.83-8.95,8.83
		C1063.5,759,1059.84,755.02,1059.84,750.22z M1074.55,750.22v-0.05c0-3.32-2.41-6.07-5.81-6.07c-3.39,0-5.76,2.71-5.76,6.03v0.05
		c0,3.32,2.42,6.05,5.81,6.05C1072.18,756.21,1074.55,753.54,1074.55,750.22z"/>
	<path class="st0" d="M1081.34,743.14c0-0.85,0.65-1.51,1.51-1.51h9.96c0.75,0,1.37,0.61,1.37,1.37c0,0.76-0.61,1.36-1.37,1.36
		h-8.47v4.66h7.37c0.75,0,1.37,0.61,1.37,1.36c0,0.76-0.61,1.37-1.37,1.37h-7.37v5.59c0,0.83-0.66,1.49-1.49,1.49
		c-0.85,0-1.51-0.66-1.51-1.49V743.14z"/>
	<path class="st0" d="M1103.69,756.76l6.34-14.15c0.34-0.76,0.96-1.22,1.8-1.22h0.15c0.85,0,1.44,0.46,1.78,1.22l6.34,14.15
		c0.12,0.22,0.17,0.44,0.17,0.63c0,0.8-0.61,1.44-1.41,1.44c-0.71,0-1.2-0.42-1.47-1.05l-1.39-3.2h-8.29l-1.44,3.29
		c-0.25,0.61-0.76,0.96-1.4,0.96c-0.78,0-1.39-0.61-1.39-1.39C1103.5,757.22,1103.57,757,1103.69,756.76z M1114.86,751.93l-3-6.91
		l-3,6.91H1114.86z"/>
	<path class="st0" d="M1123.53,743.14c0-0.85,0.66-1.51,1.51-1.51h6.1c2.15,0,3.83,0.64,4.93,1.71c0.9,0.93,1.41,2.2,1.41,3.68v0.05
		c0,2.73-1.58,4.39-3.88,5.1l3.26,4.12c0.3,0.37,0.49,0.68,0.49,1.15c0,0.83-0.71,1.39-1.44,1.39c-0.68,0-1.12-0.32-1.46-0.78
		l-4.15-5.29h-3.78v4.59c0,0.83-0.66,1.49-1.49,1.49c-0.85,0-1.51-0.66-1.51-1.49V743.14z M1130.92,750.1
		c2.15,0,3.51-1.12,3.51-2.86v-0.05c0-1.83-1.32-2.83-3.54-2.83h-4.36v5.73H1130.92z"/>
	<path class="st0" d="M1145.29,744.41h-4.14c-0.78,0-1.4-0.63-1.4-1.39c0-0.76,0.62-1.39,1.4-1.39h11.34c0.75,0,1.37,0.64,1.37,1.39
		c0,0.76-0.61,1.39-1.37,1.39h-4.17v12.93c0,0.83-0.68,1.49-1.51,1.49c-0.83,0-1.51-0.66-1.51-1.49V744.41z"/>
	<path class="st0" d="M1156.11,756.8c-0.34-0.24-0.59-0.66-0.59-1.15c0-0.78,0.64-1.39,1.42-1.39c0.41,0,0.68,0.12,0.88,0.27
		c1.41,1.12,2.93,1.76,4.78,1.76c1.85,0,3.03-0.88,3.03-2.15v-0.05c0-1.22-0.68-1.88-3.86-2.61c-3.63-0.88-5.68-1.95-5.68-5.1v-0.05
		c0-2.93,2.44-4.95,5.83-4.95c2.15,0,3.88,0.56,5.41,1.59c0.34,0.19,0.66,0.61,0.66,1.19c0,0.78-0.64,1.39-1.42,1.39
		c-0.28,0-0.53-0.07-0.78-0.22c-1.32-0.85-2.58-1.29-3.92-1.29c-1.76,0-2.78,0.9-2.78,2.02v0.05c0,1.32,0.78,1.9,4.08,2.69
		c3.6,0.88,5.46,2.17,5.46,5v0.05c0,3.19-2.51,5.1-6.1,5.1C1160.2,758.95,1158.01,758.22,1156.11,756.8z"/>
	<path class="st0" d="M1190.88,758.48l-1.79-1.8c-1.44,1.39-3.17,2.27-5.27,2.27c-3.19,0-5.59-1.93-5.59-4.88v-0.05
		c0-2.2,1.29-3.78,3.64-4.78c-0.98-1.24-1.42-2.32-1.42-3.56v-0.05c0-2.29,1.85-4.29,4.9-4.29c2.71,0,4.54,1.83,4.54,4.12v0.05
		c0,2.24-1.49,3.59-3.73,4.44l2.9,2.95c0.51-0.73,0.98-1.56,1.42-2.43c0.12-0.27,0.51-0.71,1.12-0.71c0.71,0,1.29,0.59,1.29,1.27
		c0,0.22-0.07,0.47-0.17,0.66c-0.56,1.05-1.19,2.07-1.85,3l1.9,1.91c0.29,0.29,0.46,0.58,0.46,1.02c0,0.76-0.56,1.34-1.32,1.34
		C1191.49,758.95,1191.2,758.8,1190.88,758.48z M1187.37,754.95l-3.81-3.88c-1.61,0.71-2.29,1.76-2.29,2.85v0.05
		c0,1.44,1.2,2.49,2.86,2.49C1185.32,756.46,1186.39,755.88,1187.37,754.95z M1187.25,745.68v-0.05c0-1.15-0.81-1.93-1.93-1.93
		c-1.22,0-2.05,0.85-2.05,2.05v0.05c0,0.85,0.34,1.49,1.29,2.54C1186.32,747.7,1187.25,746.92,1187.25,745.68z"/>
	<path class="st0" d="M1203.36,756.8c-0.34-0.24-0.59-0.66-0.59-1.15c0-0.78,0.64-1.39,1.42-1.39c0.42,0,0.68,0.12,0.88,0.27
		c1.41,1.12,2.93,1.76,4.78,1.76c1.86,0,3.03-0.88,3.03-2.15v-0.05c0-1.22-0.68-1.88-3.86-2.61c-3.63-0.88-5.68-1.95-5.68-5.1v-0.05
		c0-2.93,2.43-4.95,5.82-4.95c2.15,0,3.88,0.56,5.41,1.59c0.34,0.19,0.66,0.61,0.66,1.19c0,0.78-0.63,1.39-1.41,1.39
		c-0.29,0-0.53-0.07-0.78-0.22c-1.32-0.85-2.59-1.29-3.93-1.29c-1.76,0-2.78,0.9-2.78,2.02v0.05c0,1.32,0.78,1.9,4.07,2.69
		c3.61,0.88,5.46,2.17,5.46,5v0.05c0,3.19-2.51,5.1-6.1,5.1C1207.45,758.95,1205.26,758.22,1203.36,756.8z"/>
	<path class="st0" d="M1218.66,750.22v-0.05c0-4.85,3.63-8.83,8.8-8.83c2.64,0,4.37,0.78,5.85,1.92c0.32,0.25,0.59,0.66,0.59,1.2
		c0,0.83-0.66,1.46-1.48,1.46c-0.42,0-0.71-0.15-0.91-0.29c-1.17-0.95-2.43-1.54-4.07-1.54c-3.24,0-5.63,2.68-5.63,6.03v0.05
		c0,3.34,2.37,6.05,5.63,6.05c1.81,0,3.03-0.58,4.27-1.63c0.22-0.19,0.54-0.34,0.9-0.34c0.75,0,1.42,0.63,1.42,1.39
		c0,0.46-0.22,0.83-0.49,1.07c-1.61,1.41-3.44,2.29-6.2,2.29C1222.37,759,1218.66,755.12,1218.66,750.22z"/>
	<path class="st0" d="M1237.59,743c0-0.83,0.66-1.49,1.51-1.49c0.83,0,1.49,0.66,1.49,1.49v14.34c0,0.83-0.66,1.49-1.49,1.49
		c-0.85,0-1.51-0.66-1.51-1.49V743z"/>
	<path class="st0" d="M1245.16,757.19v-14.05c0-0.85,0.65-1.51,1.51-1.51h9.93c0.73,0,1.34,0.61,1.34,1.35
		c0,0.75-0.61,1.34-1.34,1.34h-8.44v4.44h7.34c0.73,0,1.34,0.61,1.34,1.37c0,0.73-0.61,1.31-1.34,1.31h-7.34v4.59h8.56
		c0.73,0,1.34,0.61,1.34,1.34c0,0.75-0.61,1.34-1.34,1.34h-10.05C1245.82,758.7,1245.16,758.04,1245.16,757.19z"/>
	<path class="st0" d="M1261.51,743.04c0-0.83,0.66-1.51,1.51-1.51h0.31c0.73,0,1.15,0.36,1.56,0.88l8.54,11.05v-10.49
		c0-0.8,0.66-1.46,1.47-1.46c0.83,0,1.48,0.66,1.48,1.46v14.34c0,0.83-0.63,1.49-1.46,1.49h-0.12c-0.71,0-1.15-0.37-1.56-0.91
		l-8.78-11.36v10.83c0,0.8-0.66,1.46-1.46,1.46c-0.83,0-1.49-0.66-1.49-1.46V743.04z"/>
	<path class="st0" d="M1280.04,750.22v-0.05c0-4.85,3.63-8.83,8.8-8.83c2.64,0,4.36,0.78,5.85,1.92c0.32,0.25,0.59,0.66,0.59,1.2
		c0,0.83-0.66,1.46-1.49,1.46c-0.42,0-0.71-0.15-0.9-0.29c-1.17-0.95-2.44-1.54-4.07-1.54c-3.25,0-5.64,2.68-5.64,6.03v0.05
		c0,3.34,2.37,6.05,5.64,6.05c1.8,0,3.02-0.58,4.27-1.63c0.22-0.19,0.53-0.34,0.9-0.34c0.75,0,1.41,0.63,1.41,1.39
		c0,0.46-0.22,0.83-0.49,1.07c-1.61,1.41-3.44,2.29-6.2,2.29C1283.74,759,1280.04,755.12,1280.04,750.22z"/>
	<path class="st0" d="M1298.8,757.19v-14.05c0-0.85,0.66-1.51,1.51-1.51h9.93c0.73,0,1.34,0.61,1.34,1.35
		c0,0.75-0.61,1.34-1.34,1.34h-8.44v4.44h7.34c0.73,0,1.34,0.61,1.34,1.37c0,0.73-0.61,1.31-1.34,1.31h-7.34v4.59h8.56
		c0.74,0,1.34,0.61,1.34,1.34c0,0.75-0.61,1.34-1.34,1.34h-10.04C1299.46,758.7,1298.8,758.04,1298.8,757.19z"/>
	<path class="st0" d="M1314.71,756.8c-0.34-0.24-0.58-0.66-0.58-1.15c0-0.78,0.63-1.39,1.41-1.39c0.42,0,0.68,0.12,0.88,0.27
		c1.41,1.12,2.93,1.76,4.78,1.76c1.86,0,3.03-0.88,3.03-2.15v-0.05c0-1.22-0.68-1.88-3.85-2.61c-3.63-0.88-5.69-1.95-5.69-5.1v-0.05
		c0-2.93,2.44-4.95,5.84-4.95c2.14,0,3.88,0.56,5.41,1.59c0.34,0.19,0.65,0.61,0.65,1.19c0,0.78-0.63,1.39-1.41,1.39
		c-0.29,0-0.54-0.07-0.78-0.22c-1.32-0.85-2.59-1.29-3.93-1.29c-1.76,0-2.78,0.9-2.78,2.02v0.05c0,1.32,0.78,1.9,4.07,2.69
		c3.61,0.88,5.46,2.17,5.46,5v0.05c0,3.19-2.51,5.1-6.1,5.1C1318.81,758.95,1316.62,758.22,1314.71,756.8z"/>
</g>
</svg>
