<?xml version="1.0" encoding="utf-8"?>
<!-- Generator: Adobe Illustrator 23.0.2, SVG Export Plug-In . SVG Version: 6.00 Build 0)  -->
<svg version="1.1" id="Layer_1" xmlns="http://www.w3.org/2000/svg" xmlns:xlink="http://www.w3.org/1999/xlink" x="0px" y="0px"
	 viewBox="0 0 99 43" style="enable-background:new 0 0 99 43;" xml:space="preserve">
<style type="text/css">
	.st0{opacity:0.6;}
	.st1{fill:#666666;}
</style>
<g class="st0">
	<path class="st1" d="M16.714,32.049c0.049,0.011,0.116,0.016,0.195,0.012c0.228-0.008,0.483-0.076,0.595-0.157
		c0.088-0.063,0.073-0.123-0.04-0.147c-0.05-0.012-0.115-0.016-0.195-0.013c-0.225,0.01-0.485,0.08-0.596,0.16
		C16.589,31.966,16.601,32.024,16.714,32.049z"/>
	<path class="st1" d="M15.684,32.066c0.04,0.011,0.103,0.015,0.179,0.012c0.201-0.007,0.442-0.068,0.534-0.136
		c0.065-0.049,0.055-0.093-0.034-0.114c-0.044-0.01-0.106-0.013-0.178-0.011c-0.206,0.009-0.443,0.069-0.539,0.138
		C15.582,32.003,15.595,32.046,15.684,32.066z"/>
	<path class="st1" d="M14.643,32.087c0.04,0.01,0.097,0.013,0.166,0.012c0.191-0.008,0.407-0.06,0.489-0.12
		c0.052-0.038,0.038-0.072-0.032-0.088c-0.04-0.009-0.097-0.013-0.165-0.01c-0.189,0.008-0.408,0.063-0.488,0.121
		C14.559,32.04,14.57,32.071,14.643,32.087z"/>
	<path class="st1" d="M13.746,32.131c0.184-0.007,0.393-0.056,0.467-0.111c0.081-0.057-0.01-0.096-0.192-0.089
		c-0.188,0.008-0.399,0.06-0.473,0.114C13.473,32.1,13.56,32.137,13.746,32.131z"/>
	<path class="st1" d="M12.677,32.165c0.181-0.003,0.389-0.051,0.462-0.104c0.076-0.055-0.015-0.094-0.199-0.091
		c-0.184,0.003-0.392,0.051-0.465,0.105C12.403,32.13,12.493,32.169,12.677,32.165z"/>
	<path class="st1" d="M11.61,32.186c0.188-0.004,0.391-0.049,0.462-0.103c0.069-0.055-0.019-0.098-0.205-0.094
		c-0.183,0.003-0.391,0.051-0.46,0.106C11.338,32.15,11.43,32.19,11.61,32.186z"/>
	<path class="st1" d="M18.263,31.645c0.049,0.012,0.116,0.016,0.194,0.012c0.23-0.012,0.49-0.085,0.601-0.171
		c0.088-0.065,0.072-0.126-0.035-0.151c-0.05-0.012-0.12-0.014-0.195-0.01c-0.228,0.013-0.49,0.088-0.605,0.172
		C18.14,31.559,18.154,31.619,18.263,31.645z"/>
	<path class="st1" d="M17.996,31.542c0.083-0.064,0.072-0.124-0.038-0.15c-0.052-0.011-0.116-0.016-0.199-0.011
		c-0.225,0.012-0.492,0.085-0.604,0.169c-0.083,0.062-0.069,0.121,0.04,0.146c0.05,0.013,0.12,0.016,0.198,0.012
		C17.624,31.698,17.886,31.626,17.996,31.542z"/>
	<path class="st1" d="M16.881,31.589c0.07-0.05,0.062-0.097-0.033-0.117c-0.043-0.011-0.104-0.013-0.179-0.01
		c-0.21,0.01-0.446,0.075-0.543,0.146c-0.07,0.05-0.057,0.096,0.032,0.117c0.043,0.01,0.104,0.014,0.177,0.01
		C16.544,31.726,16.782,31.662,16.881,31.589z"/>
	<path class="st1" d="M15.77,31.636c0.055-0.04,0.043-0.076-0.029-0.093c-0.045-0.009-0.099-0.013-0.164-0.009
		c-0.194,0.009-0.418,0.067-0.506,0.131c-0.053,0.04-0.041,0.074,0.034,0.091c0.039,0.009,0.097,0.013,0.161,0.011
		C15.464,31.758,15.685,31.699,15.77,31.636z"/>
	<path class="st1" d="M14.674,31.686c0.081-0.06-0.007-0.103-0.196-0.094c-0.186,0.008-0.405,0.065-0.484,0.124
		c-0.078,0.059,0.008,0.1,0.195,0.092C14.376,31.799,14.591,31.746,14.674,31.686z"/>
	<path class="st1" d="M13.581,31.734c0.077-0.059-0.012-0.101-0.193-0.1c-0.188,0.003-0.405,0.055-0.481,0.113
		c-0.077,0.06,0.013,0.104,0.198,0.102C13.289,31.845,13.505,31.792,13.581,31.734z"/>
	<path class="st1" d="M12.498,31.752c0.078-0.058-0.011-0.106-0.199-0.105c-0.188,0.002-0.402,0.055-0.473,0.114
		c-0.076,0.06,0.015,0.104,0.2,0.102C12.214,31.861,12.42,31.812,12.498,31.752z"/>
	<path class="st1" d="M10.946,31.879c0.188-0.003,0.396-0.052,0.47-0.112c0.071-0.06-0.02-0.108-0.205-0.107
		c-0.188,0.002-0.398,0.054-0.473,0.115C10.668,31.835,10.76,31.881,10.946,31.879z"/>
	<path class="st1" d="M9.868,31.892c0.185-0.003,0.388-0.053,0.463-0.114c0.069-0.061-0.02-0.111-0.209-0.109
		c-0.191,0.002-0.397,0.054-0.468,0.117C9.585,31.848,9.681,31.894,9.868,31.892z"/>
	<path class="st1" d="M18.499,31.165c0.09-0.066,0.074-0.127-0.034-0.153c-0.049-0.011-0.118-0.015-0.198-0.01
		c-0.226,0.013-0.494,0.09-0.609,0.175c-0.087,0.066-0.074,0.125,0.036,0.152c0.051,0.01,0.119,0.014,0.2,0.01
		C18.121,31.327,18.382,31.252,18.499,31.165z"/>
	<path class="st1" d="M17.378,31.22c0.075-0.053,0.063-0.101-0.024-0.122c-0.046-0.01-0.11-0.013-0.182-0.009
		c-0.208,0.011-0.453,0.079-0.552,0.155c-0.072,0.053-0.059,0.1,0.033,0.12c0.039,0.01,0.1,0.015,0.174,0.01
		C17.039,31.362,17.281,31.294,17.378,31.22z"/>
	<path class="st1" d="M16.262,31.272c0.058-0.044,0.048-0.082-0.028-0.099c-0.04-0.01-0.096-0.012-0.16-0.01
		c-0.195,0.01-0.427,0.073-0.516,0.14c-0.055,0.043-0.045,0.08,0.032,0.097c0.038,0.01,0.095,0.012,0.161,0.009
		C15.947,31.4,16.172,31.34,16.262,31.272z"/>
	<path class="st1" d="M15.152,31.326c0.087-0.065,0.004-0.11-0.188-0.101c-0.191,0.01-0.416,0.07-0.497,0.133
		c-0.081,0.063,0.002,0.108,0.193,0.099C14.847,31.448,15.069,31.39,15.152,31.326z"/>
	<path class="st1" d="M14.049,31.378c0.084-0.063-0.003-0.11-0.188-0.109c-0.191,0.003-0.413,0.057-0.494,0.121
		c-0.082,0.065,0.006,0.113,0.194,0.111C13.747,31.499,13.968,31.442,14.049,31.378z"/>
	<path class="st1" d="M12.954,31.394c0.08-0.064-0.006-0.116-0.197-0.114c-0.185,0.001-0.406,0.056-0.484,0.119
		c-0.082,0.065,0.01,0.114,0.197,0.113C12.655,31.51,12.871,31.459,12.954,31.394z"/>
	<path class="st1" d="M11.856,31.404c0.081-0.066-0.011-0.119-0.2-0.118c-0.189,0.001-0.403,0.056-0.482,0.121
		c-0.077,0.065,0.011,0.117,0.202,0.115C11.562,31.521,11.778,31.469,11.856,31.404z"/>
	<path class="st1" d="M8.093,31.541c0.188-0.001,0.395-0.055,0.467-0.123c0.073-0.068-0.021-0.125-0.209-0.125
		c-0.189,0-0.397,0.056-0.473,0.126C7.807,31.487,7.905,31.541,8.093,31.541z"/>
	<path class="st1" d="M18.986,30.619c-0.048-0.012-0.118-0.015-0.197-0.01c-0.225,0.013-0.496,0.093-0.611,0.181
		c-0.092,0.068-0.078,0.128,0.033,0.155c0.049,0.011,0.118,0.015,0.199,0.009c0.226-0.013,0.494-0.092,0.609-0.18
		C19.108,30.706,19.094,30.645,18.986,30.619z"/>
	<path class="st1" d="M17.159,30.984c0.048,0.01,0.106,0.013,0.179,0.009c0.208-0.012,0.457-0.083,0.558-0.161
		c0.071-0.054,0.061-0.105-0.028-0.127c-0.046-0.01-0.103-0.013-0.175-0.008c-0.211,0.012-0.459,0.083-0.562,0.161
		C17.061,30.913,17.071,30.962,17.159,30.984z"/>
	<path class="st1" d="M16.092,31.024c0.042,0.009,0.096,0.013,0.163,0.009c0.194-0.01,0.425-0.075,0.518-0.145
		c0.062-0.046,0.05-0.087-0.027-0.105c-0.041-0.009-0.097-0.012-0.161-0.009c-0.197,0.012-0.431,0.077-0.523,0.147
		C16.004,30.966,16.018,31.004,16.092,31.024z"/>
	<path class="st1" d="M14.964,30.977c-0.087,0.068-0.007,0.116,0.186,0.106c0.193-0.009,0.418-0.071,0.507-0.139
		c0.088-0.068,0.005-0.116-0.186-0.107C15.28,30.845,15.052,30.909,14.964,30.977z"/>
	<path class="st1" d="M14.542,30.997c0.084-0.068,0.002-0.118-0.188-0.117c-0.19,0.001-0.413,0.059-0.502,0.127
		c-0.085,0.068,0.001,0.122,0.188,0.12C14.228,31.125,14.457,31.065,14.542,30.997z"/>
	<path class="st1" d="M13.435,31.01c0.086-0.069,0.001-0.125-0.189-0.124c-0.192,0-0.417,0.058-0.5,0.127
		c-0.086,0.069,0.001,0.124,0.191,0.121C13.127,31.134,13.35,31.078,13.435,31.01z"/>
	<path class="st1" d="M8.788,30.873c-0.19-0.001-0.41,0.058-0.482,0.132c-0.082,0.074,0.014,0.133,0.207,0.133
		c0.185,0.002,0.404-0.057,0.477-0.13C9.07,30.935,8.978,30.875,8.788,30.873z"/>
	<path class="st1" d="M7.682,30.864c-0.188-0.003-0.405,0.059-0.476,0.132c-0.079,0.075,0.019,0.136,0.203,0.138
		c0.191,0.001,0.404-0.058,0.48-0.132C7.961,30.928,7.872,30.866,7.682,30.864z"/>
	<path class="st1" d="M19.548,30.37c0.092-0.07,0.077-0.134-0.032-0.16c-0.051-0.011-0.115-0.015-0.194-0.01
		c-0.229,0.013-0.499,0.095-0.615,0.186c-0.091,0.069-0.08,0.132,0.032,0.158c0.052,0.011,0.118,0.015,0.197,0.01
		C19.164,30.541,19.434,30.459,19.548,30.37z"/>
	<path class="st1" d="M18.429,30.429c0.075-0.058,0.063-0.109-0.033-0.131c-0.041-0.01-0.097-0.014-0.165-0.011
		c-0.217,0.013-0.464,0.085-0.569,0.167c-0.076,0.057-0.062,0.108,0.029,0.13c0.045,0.01,0.104,0.013,0.173,0.009
		C18.077,30.583,18.32,30.51,18.429,30.429z"/>
	<path class="st1" d="M17.301,30.485c0.061-0.049,0.053-0.093-0.031-0.111c-0.035-0.01-0.093-0.012-0.155-0.009
		c-0.195,0.01-0.432,0.078-0.527,0.152c-0.061,0.048-0.052,0.091,0.029,0.111c0.041,0.007,0.095,0.011,0.16,0.007
		C16.971,30.625,17.207,30.557,17.301,30.485z"/>
	<path class="st1" d="M16.179,30.539c0.089-0.072,0.011-0.123-0.182-0.115c-0.194,0.009-0.425,0.075-0.515,0.147
		c-0.094,0.073-0.009,0.122,0.182,0.112C15.859,30.675,16.087,30.611,16.179,30.539z"/>
	<path class="st1" d="M14.364,30.598c-0.091,0.074-0.011,0.131,0.182,0.129c0.19,0,0.418-0.065,0.51-0.136
		c0.092-0.072,0.006-0.125-0.184-0.125C14.68,30.466,14.45,30.527,14.364,30.598z"/>
	<path class="st1" d="M13.245,30.599c-0.087,0.073-0.001,0.131,0.189,0.131c0.191,0,0.417-0.058,0.506-0.131
		c0.091-0.073,0.009-0.133-0.186-0.133C13.56,30.466,13.335,30.526,13.245,30.599z"/>
	<path class="st1" d="M12.822,30.598c0.09-0.074,0.003-0.135-0.191-0.136c-0.193-0.001-0.423,0.06-0.508,0.134
		c-0.086,0.074,0,0.135,0.194,0.134C12.506,30.73,12.736,30.672,12.822,30.598z"/>
	<path class="st1" d="M11.697,30.594c0.085-0.074,0.001-0.137-0.192-0.139c-0.195-0.001-0.423,0.06-0.507,0.135
		c-0.083,0.075,0.006,0.136,0.199,0.137C11.387,30.728,11.609,30.669,11.697,30.594z"/>
	<path class="st1" d="M10.075,30.72c0.193,0.002,0.416-0.059,0.498-0.134c0.087-0.077-0.003-0.14-0.193-0.143
		c-0.194-0.001-0.42,0.06-0.502,0.136C9.794,30.656,9.881,30.719,10.075,30.72z"/>
	<path class="st1" d="M9.255,30.43c-0.195-0.002-0.416,0.059-0.496,0.137c-0.079,0.077,0.009,0.141,0.199,0.143
		c0.193,0.001,0.415-0.059,0.493-0.135C9.536,30.498,9.448,30.433,9.255,30.43z"/>
	<path class="st1" d="M8.14,30.413c-0.192-0.003-0.411,0.059-0.491,0.138c-0.08,0.079,0.012,0.143,0.202,0.146
		c0.189,0.003,0.408-0.058,0.489-0.136C8.42,30.482,8.328,30.416,8.14,30.413z"/>
	<path class="st1" d="M20.091,29.953c0.091-0.071,0.081-0.137-0.032-0.163c-0.051-0.011-0.114-0.014-0.186-0.011
		c-0.23,0.014-0.502,0.097-0.627,0.192c-0.091,0.071-0.076,0.134,0.037,0.161c0.05,0.011,0.115,0.014,0.193,0.01
		C19.702,30.128,19.97,30.047,20.091,29.953z"/>
	<path class="st1" d="M18.975,30.011c0.076-0.061,0.065-0.115-0.033-0.137c-0.042-0.01-0.097-0.013-0.165-0.01
		c-0.21,0.011-0.464,0.087-0.569,0.17c-0.08,0.06-0.068,0.114,0.032,0.135c0.039,0.011,0.098,0.015,0.165,0.011
		C18.614,30.169,18.866,30.094,18.975,30.011z"/>
	<path class="st1" d="M17.848,30.063c0.065-0.052,0.053-0.096-0.036-0.115c-0.035-0.009-0.088-0.013-0.147-0.01
		c-0.198,0.01-0.436,0.079-0.534,0.156c-0.064,0.051-0.055,0.096,0.029,0.116c0.039,0.009,0.094,0.01,0.154,0.009
		C17.511,30.209,17.745,30.139,17.848,30.063z"/>
	<path class="st1" d="M16.719,30.115c0.093-0.075,0.018-0.131-0.177-0.122c-0.193,0.008-0.428,0.077-0.524,0.152
		c-0.091,0.075-0.011,0.129,0.181,0.12C16.395,30.256,16.624,30.19,16.719,30.115z"/>
	<path class="st1" d="M15.591,30.162c0.096-0.076,0.016-0.134-0.177-0.134c-0.193,0-0.428,0.062-0.52,0.139
		c-0.094,0.076-0.014,0.137,0.179,0.137C15.268,30.304,15.499,30.237,15.591,30.162z"/>
	<path class="st1" d="M14.471,30.165c0.091-0.075,0.01-0.14-0.184-0.142c-0.194-0.001-0.427,0.062-0.523,0.139
		c-0.091,0.078-0.008,0.14,0.185,0.14C14.146,30.304,14.376,30.242,14.471,30.165z"/>
	<path class="st1" d="M12.822,30.297c0.198,0.001,0.424-0.059,0.518-0.137c0.088-0.077,0.01-0.143-0.19-0.144
		c-0.196-0.002-0.425,0.061-0.518,0.139C12.541,30.233,12.629,30.296,12.822,30.297z"/>
	<path class="st1" d="M11.695,30.288c0.192,0.002,0.419-0.059,0.507-0.137c0.094-0.08,0.006-0.145-0.188-0.148
		c-0.195-0.002-0.424,0.059-0.514,0.139C11.414,30.221,11.499,30.286,11.695,30.288z"/>
	<path class="st1" d="M11.07,30.136c0.088-0.079,0.005-0.148-0.188-0.152c-0.197-0.003-0.426,0.06-0.516,0.141
		c-0.086,0.08,0.003,0.146,0.196,0.149C10.757,30.278,10.984,30.216,11.07,30.136z"/>
	<path class="st1" d="M9.748,29.965c-0.193-0.004-0.423,0.06-0.506,0.141c-0.089,0.082,0.001,0.149,0.193,0.153
		c0.195,0.003,0.419-0.059,0.506-0.14C10.031,30.038,9.942,29.969,9.748,29.965z"/>
	<path class="st1" d="M8.626,29.94C8.435,29.935,8.207,30,8.123,30.082c-0.086,0.084,0.003,0.152,0.196,0.156
		c0.19,0.003,0.413-0.059,0.498-0.14C8.906,30.015,8.817,29.944,8.626,29.94z"/>
	<path class="st1" d="M7.513,29.912c-0.189-0.006-0.413,0.06-0.495,0.145c-0.083,0.084,0.003,0.155,0.191,0.159
		c0.191,0.004,0.41-0.06,0.496-0.143C7.788,29.99,7.704,29.916,7.513,29.912z"/>
	<path class="st1" d="M20.642,29.526c0.094-0.074,0.08-0.141-0.032-0.168c-0.05-0.01-0.112-0.014-0.183-0.01
		c-0.228,0.012-0.501,0.096-0.624,0.192c-0.091,0.072-0.081,0.139,0.034,0.167c0.047,0.011,0.112,0.016,0.188,0.01
		C20.249,29.705,20.521,29.619,20.642,29.526z"/>
	<path class="st1" d="M19.53,29.578c0.082-0.063,0.071-0.118-0.031-0.141c-0.042-0.01-0.096-0.013-0.157-0.011
		c-0.215,0.011-0.467,0.087-0.578,0.174c-0.079,0.062-0.069,0.118,0.03,0.141c0.041,0.01,0.1,0.014,0.164,0.01
		C19.168,29.741,19.418,29.665,19.53,29.578z"/>
	<path class="st1" d="M17.692,29.652c-0.072,0.056-0.062,0.104,0.027,0.123c0.04,0.009,0.09,0.012,0.147,0.01
		c0.198-0.01,0.437-0.08,0.535-0.159c0.074-0.055,0.061-0.102-0.028-0.123c-0.036-0.009-0.085-0.012-0.145-0.009
		C18.035,29.501,17.789,29.573,17.692,29.652z"/>
	<path class="st1" d="M17.279,29.671c0.097-0.078,0.018-0.136-0.177-0.128c-0.191,0.006-0.427,0.075-0.526,0.154
		c-0.099,0.08-0.018,0.136,0.174,0.129C16.947,29.819,17.184,29.749,17.279,29.671z"/>
	<path class="st1" d="M15.443,29.714c-0.096,0.08-0.019,0.145,0.176,0.145c0.196,0,0.43-0.069,0.528-0.148
		c0.095-0.078,0.017-0.139-0.178-0.14C15.777,29.57,15.538,29.635,15.443,29.714z"/>
	<path class="st1" d="M15.016,29.711c0.097-0.081,0.018-0.146-0.179-0.149c-0.195-0.002-0.435,0.063-0.53,0.143
		c-0.092,0.08-0.012,0.147,0.182,0.148C14.687,29.855,14.918,29.792,15.016,29.711z"/>
	<path class="st1" d="M13.879,29.7c0.094-0.08,0.011-0.149-0.185-0.151c-0.198-0.003-0.433,0.061-0.524,0.142
		c-0.098,0.082-0.011,0.149,0.183,0.151C13.551,29.845,13.786,29.781,13.879,29.7z"/>
	<path class="st1" d="M12.737,29.685c0.092-0.081,0.007-0.15-0.186-0.155c-0.198-0.004-0.431,0.061-0.528,0.144
		c-0.089,0.082-0.006,0.151,0.189,0.154C12.409,29.831,12.644,29.767,12.737,29.685z"/>
	<path class="st1" d="M11.075,29.808c0.195,0.004,0.426-0.059,0.519-0.143c0.095-0.084,0.008-0.154-0.188-0.159
		c-0.197-0.003-0.432,0.061-0.521,0.145C10.792,29.734,10.882,29.804,11.075,29.808z"/>
	<path class="st1" d="M10.268,29.479c-0.195-0.006-0.427,0.059-0.518,0.144c-0.089,0.086-0.002,0.156,0.191,0.161
		c0.195,0.004,0.425-0.06,0.513-0.143C10.546,29.556,10.461,29.483,10.268,29.479z"/>
	<path class="st1" d="M9.136,29.447c-0.192-0.006-0.419,0.06-0.511,0.146c-0.086,0.086-0.003,0.159,0.19,0.164
		c0.192,0.005,0.419-0.059,0.508-0.145C9.415,29.527,9.33,29.452,9.136,29.447z"/>
	<path class="st1" d="M8.02,29.412c-0.189-0.008-0.419,0.06-0.504,0.147c-0.091,0.088-0.005,0.163,0.184,0.168
		c0.189,0.006,0.417-0.06,0.504-0.146C8.293,29.494,8.211,29.417,8.02,29.412z"/>
	<path class="st1" d="M6.603,29.692c0.187,0.007,0.411-0.06,0.494-0.148c0.089-0.088,0.01-0.166-0.177-0.173
		c-0.184-0.008-0.413,0.06-0.499,0.149C6.337,29.61,6.417,29.686,6.603,29.692z"/>
	<path class="st1" d="M20.098,29.134c0.082-0.066,0.068-0.123-0.032-0.148c-0.042-0.009-0.094-0.013-0.153-0.011
		c-0.208,0.009-0.467,0.088-0.577,0.176c-0.082,0.066-0.073,0.123,0.031,0.147c0.042,0.009,0.092,0.014,0.158,0.011
		C19.733,29.3,19.984,29.223,20.098,29.134z"/>
	<path class="st1" d="M18.434,29.336c0.195-0.007,0.439-0.079,0.543-0.162c0.07-0.057,0.057-0.107-0.033-0.129
		c-0.04-0.008-0.085-0.012-0.141-0.01c-0.195,0.006-0.437,0.078-0.544,0.162c-0.068,0.056-0.058,0.108,0.037,0.128
		C18.334,29.334,18.379,29.338,18.434,29.336z"/>
	<path class="st1" d="M17.149,29.232c-0.102,0.081-0.025,0.143,0.171,0.137c0.19-0.006,0.429-0.076,0.532-0.158
		c0.099-0.081,0.025-0.142-0.171-0.137C17.488,29.078,17.249,29.15,17.149,29.232z"/>
	<path class="st1" d="M16.011,29.242c-0.098,0.083-0.022,0.15,0.172,0.152c0.194,0.001,0.432-0.068,0.534-0.152
		c0.1-0.082,0.022-0.147-0.171-0.148C16.352,29.092,16.112,29.159,16.011,29.242z"/>
	<path class="st1" d="M14.871,29.228c-0.097,0.084-0.017,0.153,0.178,0.155c0.197,0.003,0.435-0.062,0.532-0.146
		c0.101-0.084,0.024-0.154-0.175-0.157C15.21,29.078,14.969,29.145,14.871,29.228z"/>
	<path class="st1" d="M13.722,29.209c-0.096,0.085-0.019,0.156,0.183,0.159c0.195,0.004,0.436-0.062,0.533-0.146
		c0.098-0.084,0.019-0.156-0.178-0.16C14.06,29.058,13.822,29.124,13.722,29.209z"/>
	<path class="st1" d="M13.289,29.201c0.095-0.084,0.015-0.159-0.183-0.162c-0.198-0.006-0.437,0.061-0.535,0.146
		c-0.099,0.086-0.012,0.159,0.183,0.163C12.952,29.351,13.19,29.286,13.289,29.201z"/>
	<path class="st1" d="M12.139,29.174c0.097-0.086,0.009-0.16-0.186-0.165c-0.193-0.007-0.432,0.06-0.527,0.147
		c-0.095,0.088-0.013,0.161,0.183,0.167C11.808,29.326,12.04,29.262,12.139,29.174z"/>
	<path class="st1" d="M10.992,29.143c0.091-0.087,0.01-0.164-0.186-0.17c-0.195-0.006-0.431,0.06-0.525,0.148
		c-0.088,0.086-0.009,0.163,0.185,0.169C10.664,29.297,10.899,29.23,10.992,29.143z"/>
	<path class="st1" d="M9.672,28.934c-0.193-0.007-0.428,0.06-0.519,0.15c-0.095,0.09-0.009,0.166,0.183,0.172
		c0.195,0.006,0.426-0.059,0.518-0.149C9.95,29.018,9.87,28.941,9.672,28.934z"/>
	<path class="st1" d="M20.642,28.525c-0.041-0.008-0.09-0.013-0.145-0.01c-0.212,0.007-0.467,0.084-0.584,0.177
		c-0.083,0.068-0.075,0.128,0.036,0.152c0.036,0.01,0.091,0.012,0.152,0.009c0.204-0.006,0.46-0.084,0.574-0.175
		C20.762,28.61,20.744,28.55,20.642,28.525z"/>
	<path class="st1" d="M18.842,28.726c-0.072,0.06-0.055,0.112,0.038,0.136c0.038,0.007,0.083,0.011,0.134,0.01
		c0.193-0.006,0.438-0.078,0.545-0.163c0.073-0.06,0.06-0.114-0.035-0.136c-0.037-0.008-0.077-0.012-0.129-0.012
		C19.198,28.568,18.951,28.64,18.842,28.726z"/>
	<path class="st1" d="M17.734,28.75c-0.102,0.084-0.027,0.149,0.167,0.145c0.192-0.004,0.433-0.076,0.533-0.158
		c0.104-0.085,0.034-0.15-0.162-0.147C18.077,28.594,17.836,28.664,17.734,28.75z"/>
	<path class="st1" d="M16.596,28.752c-0.101,0.085-0.025,0.156,0.17,0.158c0.192,0.003,0.439-0.069,0.536-0.155
		c0.102-0.085,0.026-0.153-0.166-0.156C16.939,28.598,16.695,28.665,16.596,28.752z"/>
	<path class="st1" d="M15.446,28.735c-0.1,0.085-0.018,0.158,0.178,0.161c0.195,0.004,0.436-0.063,0.541-0.15
		c0.099-0.086,0.021-0.159-0.173-0.164C15.794,28.58,15.551,28.646,15.446,28.735z"/>
	<path class="st1" d="M14.295,28.71c-0.099,0.087-0.021,0.161,0.177,0.165c0.2,0.004,0.441-0.063,0.541-0.149
		c0.102-0.088,0.021-0.162-0.177-0.167C14.638,28.554,14.394,28.621,14.295,28.71z"/>
	<path class="st1" d="M13.855,28.699c0.102-0.087,0.022-0.164-0.177-0.17c-0.198-0.006-0.441,0.062-0.541,0.152
		c-0.098,0.088-0.017,0.164,0.182,0.169C13.516,28.854,13.756,28.787,13.855,28.699z"/>
	<path class="st1" d="M12.701,28.666c0.1-0.089,0.019-0.167-0.181-0.173c-0.201-0.006-0.44,0.062-0.534,0.151
		c-0.101,0.09-0.021,0.167,0.178,0.173C12.363,28.823,12.603,28.756,12.701,28.666z"/>
	<path class="st1" d="M11.549,28.629c0.096-0.09,0.016-0.171-0.181-0.178c-0.194-0.008-0.434,0.06-0.533,0.151
		c-0.096,0.09-0.014,0.17,0.182,0.176C11.211,28.787,11.449,28.72,11.549,28.629z"/>
	<path class="st1" d="M9.7,28.557c-0.094,0.092-0.014,0.173,0.177,0.18c0.196,0.007,0.433-0.06,0.53-0.152
		c0.097-0.091,0.019-0.173-0.173-0.182C10.036,28.395,9.801,28.464,9.7,28.557z"/>
	<path class="st1" d="M21.26,28.212c0.085-0.069,0.073-0.133-0.037-0.159c-0.038-0.009-0.085-0.012-0.137-0.012
		c-0.206,0.005-0.468,0.084-0.582,0.175c-0.086,0.071-0.075,0.134,0.034,0.161c0.041,0.008,0.088,0.012,0.144,0.009
		C20.888,28.382,21.145,28.305,21.26,28.212z"/>
	<path class="st1" d="M19.444,28.24c-0.079,0.063-0.066,0.12,0.032,0.144c0.034,0.008,0.082,0.012,0.131,0.009
		c0.194-0.002,0.436-0.076,0.543-0.161c0.076-0.063,0.062-0.119-0.036-0.143c-0.034-0.008-0.076-0.012-0.123-0.011
		C19.795,28.08,19.55,28.153,19.444,28.24z"/>
	<path class="st1" d="M18.333,28.253c-0.106,0.086-0.031,0.154,0.162,0.152c0.192-0.002,0.432-0.072,0.536-0.158
		c0.104-0.086,0.031-0.155-0.163-0.153C18.676,28.094,18.436,28.165,18.333,28.253z"/>
	<path class="st1" d="M17.192,28.246c-0.104,0.089-0.028,0.162,0.166,0.165c0.197,0.003,0.439-0.069,0.543-0.157
		c0.105-0.087,0.033-0.161-0.166-0.163C17.54,28.089,17.296,28.158,17.192,28.246z"/>
	<path class="st1" d="M16.588,28.07c-0.198-0.005-0.441,0.064-0.543,0.153c-0.104,0.089-0.027,0.165,0.169,0.168
		c0.197,0.004,0.441-0.063,0.546-0.152C16.863,28.15,16.788,28.074,16.588,28.07z"/>
	<path class="st1" d="M14.883,28.194c-0.102,0.09-0.024,0.167,0.174,0.173c0.201,0.005,0.445-0.063,0.547-0.152
		c0.104-0.09,0.027-0.168-0.173-0.174C15.231,28.035,14.986,28.103,14.883,28.194z"/>
	<path class="st1" d="M14.442,28.181c0.101-0.09,0.027-0.17-0.176-0.175c-0.199-0.007-0.444,0.061-0.542,0.152
		c-0.104,0.091-0.023,0.17,0.171,0.177C14.098,28.34,14.337,28.272,14.442,28.181z"/>
	<path class="st1" d="M12.563,28.115c-0.102,0.092-0.021,0.172,0.178,0.18c0.195,0.007,0.44-0.06,0.54-0.152
		c0.1-0.093,0.025-0.173-0.176-0.18C12.907,27.955,12.662,28.024,12.563,28.115z"/>
	<path class="st1" d="M11.584,28.251c0.198,0.008,0.44-0.06,0.54-0.153c0.1-0.093,0.024-0.176-0.175-0.185
		c-0.199-0.007-0.44,0.061-0.539,0.154C11.311,28.161,11.388,28.243,11.584,28.251z"/>
	<path class="st1" d="M21.855,27.737c0.086-0.071,0.074-0.138-0.04-0.165c-0.037-0.008-0.082-0.011-0.129-0.012
		c-0.206,0.003-0.468,0.081-0.584,0.175c-0.089,0.073-0.073,0.139,0.04,0.165c0.038,0.008,0.079,0.013,0.133,0.012
		C21.481,27.908,21.735,27.832,21.855,27.737z"/>
	<path class="st1" d="M20.71,27.594c-0.033-0.008-0.071-0.01-0.116-0.01c-0.195-0.001-0.438,0.072-0.547,0.161
		c-0.085,0.068-0.065,0.126,0.039,0.15c0.032,0.009,0.071,0.012,0.12,0.011c0.191,0,0.438-0.074,0.546-0.161
		C20.83,27.678,20.818,27.619,20.71,27.594z"/>
	<path class="st1" d="M19.481,27.583c-0.194-0.001-0.434,0.069-0.546,0.16c-0.102,0.089-0.03,0.16,0.162,0.161
		c0.194-0.001,0.435-0.071,0.54-0.158C19.744,27.658,19.675,27.585,19.481,27.583z"/>
	<path class="st1" d="M18.351,27.568c-0.199-0.003-0.446,0.067-0.551,0.158c-0.104,0.092-0.031,0.167,0.166,0.17
		c0.196,0.003,0.439-0.066,0.545-0.157C18.616,27.648,18.549,27.572,18.351,27.568z"/>
	<path class="st1" d="M16.648,27.699c-0.105,0.092-0.03,0.17,0.171,0.174c0.198,0.006,0.444-0.065,0.547-0.156
		c0.106-0.09,0.029-0.168-0.169-0.173C17.003,27.537,16.756,27.608,16.648,27.699z"/>
	<path class="st1" d="M16.038,27.509c-0.201-0.006-0.449,0.063-0.551,0.156c-0.108,0.093-0.032,0.172,0.169,0.178
		c0.199,0.006,0.448-0.065,0.553-0.156C16.315,27.594,16.24,27.515,16.038,27.509z"/>
	<path class="st1" d="M14.871,27.466c-0.2-0.006-0.447,0.063-0.553,0.157c-0.106,0.093-0.025,0.175,0.173,0.182
		c0.205,0.006,0.447-0.063,0.552-0.155C15.152,27.556,15.073,27.475,14.871,27.466z"/>
	<path class="st1" d="M13.88,27.604c0.102-0.093,0.025-0.176-0.173-0.186c-0.201-0.009-0.447,0.062-0.55,0.155
		c-0.103,0.095-0.03,0.177,0.17,0.186C13.53,27.768,13.773,27.699,13.88,27.604z"/>
	<path class="st1" d="M22.44,27.246c0.089-0.077,0.069-0.148-0.05-0.175c-0.037-0.008-0.074-0.013-0.119-0.012
		c-0.205-0.001-0.461,0.079-0.576,0.178c-0.088,0.078-0.068,0.149,0.053,0.176c0.031,0.009,0.073,0.013,0.12,0.013
		C22.076,27.424,22.326,27.346,22.44,27.246z"/>
	<path class="st1" d="M20.7,27.394c0.031,0.007,0.067,0.012,0.111,0.011c0.193,0.001,0.434-0.073,0.539-0.164
		c0.08-0.071,0.063-0.136-0.046-0.162c-0.03-0.007-0.07-0.01-0.109-0.011c-0.194-0.001-0.435,0.072-0.546,0.165
		C20.571,27.304,20.587,27.369,20.7,27.394z"/>
	<path class="st1" d="M19.71,27.389c0.192,0.003,0.432-0.069,0.539-0.16c0.102-0.09,0.034-0.168-0.157-0.171
		c-0.19-0.003-0.434,0.068-0.54,0.159C19.448,27.309,19.519,27.387,19.71,27.389z"/>
	<path class="st1" d="M18.578,27.37c0.199,0.003,0.442-0.068,0.55-0.161c0.107-0.091,0.038-0.171-0.158-0.176
		c-0.196-0.006-0.443,0.066-0.55,0.159C18.31,27.286,18.384,27.366,18.578,27.37z"/>
	<path class="st1" d="M21.304,26.875c0.032,0.007,0.064,0.011,0.105,0.012c0.186,0.003,0.429-0.07,0.534-0.163
		c0.083-0.073,0.065-0.141-0.047-0.167c-0.031-0.006-0.064-0.01-0.099-0.012c-0.19-0.004-0.436,0.07-0.542,0.164
		C21.174,26.781,21.19,26.849,21.304,26.875z"/>
	<path class="st1" d="M20.319,26.86c0.194,0.003,0.43-0.068,0.538-0.159c0.102-0.092,0.04-0.171-0.149-0.177
		c-0.19-0.005-0.427,0.066-0.536,0.159C20.064,26.776,20.133,26.855,20.319,26.86z"/>
	<path class="st1" d="M19.204,26.83c0.196,0.006,0.436-0.065,0.548-0.16c0.108-0.094,0.039-0.175-0.152-0.182
		c-0.196-0.007-0.444,0.064-0.548,0.159C18.938,26.742,19.007,26.824,19.204,26.83z"/>
	<path class="st1" d="M21.908,26.354c0.025,0.008,0.06,0.011,0.097,0.012c0.192,0.006,0.439-0.068,0.548-0.165
		c0.088-0.079,0.069-0.151-0.055-0.18c-0.023-0.007-0.059-0.01-0.092-0.011c-0.193-0.007-0.443,0.068-0.555,0.166
		C21.76,26.255,21.782,26.327,21.908,26.354z"/>
	<path class="st1" d="M20.939,26.322c0.186,0.006,0.426-0.065,0.532-0.158c0.107-0.093,0.043-0.174-0.145-0.182
		c-0.183-0.007-0.425,0.063-0.531,0.158C20.689,26.234,20.753,26.316,20.939,26.322z"/>
	<path class="st1" d="M19.837,26.281c0.192,0.008,0.439-0.063,0.543-0.158c0.108-0.095,0.043-0.179-0.149-0.188
		c-0.192-0.01-0.439,0.062-0.549,0.158C19.572,26.189,19.641,26.273,19.837,26.281z"/>
	<path class="st1" d="M17.546,26.177c0.195,0.009,0.445-0.062,0.56-0.161c0.108-0.098,0.04-0.187-0.159-0.198
		c-0.198-0.011-0.45,0.061-0.562,0.161C17.274,26.078,17.344,26.167,17.546,26.177z"/>
	<path class="st1" d="M16.382,26.116c0.2,0.011,0.453-0.062,0.565-0.162c0.109-0.1,0.042-0.191-0.158-0.202
		c-0.199-0.012-0.453,0.061-0.565,0.162C16.112,26.014,16.181,26.105,16.382,26.116z"/>
	<path class="st1" d="M12.918,25.907c0.193,0.013,0.444-0.06,0.558-0.163c0.113-0.103,0.048-0.199-0.146-0.212
		c-0.196-0.013-0.449,0.06-0.561,0.165C12.656,25.8,12.72,25.894,12.918,25.907z"/>
	<path class="st1" d="M10.689,25.749c0.186,0.013,0.429-0.058,0.542-0.163c0.114-0.105,0.052-0.203-0.134-0.217
		c-0.188-0.013-0.431,0.06-0.545,0.165C10.44,25.64,10.503,25.735,10.689,25.749z"/>
	<path class="st1" d="M21.563,25.776c0.183,0.009,0.417-0.06,0.523-0.154c0.105-0.094,0.044-0.177-0.137-0.188
		c-0.182-0.009-0.42,0.059-0.525,0.154C21.313,25.685,21.377,25.768,21.563,25.776z"/>
	<path class="st1" d="M20.468,25.725c0.195,0.01,0.435-0.06,0.542-0.156c0.109-0.096,0.046-0.182-0.143-0.193
		c-0.193-0.012-0.437,0.058-0.55,0.156C20.207,25.629,20.274,25.717,20.468,25.725z"/>
	<path class="st1" d="M19.335,25.667c0.202,0.009,0.45-0.061,0.557-0.159c0.109-0.098,0.04-0.187-0.157-0.198
		c-0.193-0.013-0.443,0.059-0.551,0.158C19.071,25.567,19.143,25.655,19.335,25.667z"/>
	<path class="st1" d="M18.193,25.601c0.194,0.012,0.45-0.061,0.557-0.159c0.111-0.099,0.044-0.19-0.153-0.203
		c-0.197-0.012-0.449,0.059-0.565,0.159C17.925,25.499,17.994,25.589,18.193,25.601z"/>
	<path class="st1" d="M17.035,25.533c0.198,0.011,0.453-0.06,0.565-0.162c0.114-0.101,0.043-0.193-0.155-0.206
		c-0.203-0.012-0.453,0.059-0.565,0.161C16.767,25.428,16.837,25.52,17.035,25.533z"/>
	<path class="st1" d="M13.577,25.305c0.196,0.013,0.445-0.059,0.563-0.164c0.112-0.104,0.046-0.2-0.148-0.214
		c-0.196-0.014-0.445,0.059-0.564,0.165C13.318,25.196,13.382,25.292,13.577,25.305z"/>
	<path class="st1" d="M18.842,25.02c0.195,0.014,0.445-0.057,0.558-0.157c0.113-0.101,0.045-0.193-0.151-0.207
		c-0.192-0.015-0.445,0.057-0.557,0.157C18.577,24.915,18.642,25.008,18.842,25.02z"/>
	<path class="st1" d="M17.692,24.943c0.198,0.013,0.449-0.058,0.564-0.16c0.112-0.102,0.042-0.195-0.15-0.21
		c-0.199-0.015-0.453,0.057-0.569,0.159C17.425,24.835,17.492,24.93,17.692,24.943z"/>
	<path class="st1" d="M16.957,24.489c-0.201-0.013-0.455,0.058-0.571,0.162c-0.115,0.103-0.048,0.199,0.15,0.213
		c0.196,0.013,0.455-0.059,0.566-0.162C17.219,24.599,17.151,24.504,16.957,24.489z"/>
	<path class="st1" d="M17.057,24.048c-0.117,0.105-0.05,0.201,0.146,0.217c0.197,0.015,0.45-0.056,0.567-0.161
		c0.112-0.103,0.049-0.201-0.149-0.215C17.427,23.873,17.175,23.943,17.057,24.048z"/>
	<path class="st1" d="M14.446,23.844c0.125-0.113,0.092-0.223-0.083-0.264c-0.027-0.006-0.059-0.01-0.089-0.013
		c-0.116-0.009-0.256,0.007-0.393,0.047c-0.128,0.038-0.242,0.096-0.312,0.159c-0.125,0.114-0.092,0.222,0.083,0.263
		c0.023,0.006,0.056,0.01,0.089,0.013C13.981,24.069,14.298,23.977,14.446,23.844z"/>
	<path class="st1" d="M13.291,23.752c0.114-0.101,0.084-0.202-0.07-0.237c-0.019-0.006-0.05-0.008-0.076-0.01
		c-0.095-0.009-0.215,0.004-0.327,0.037c-0.123,0.034-0.234,0.089-0.299,0.149c-0.114,0.102-0.08,0.201,0.07,0.236
		c0.02,0.006,0.048,0.009,0.076,0.011C12.877,23.955,13.157,23.872,13.291,23.752z"/>
	<path class="st1" d="M12.163,23.661c0.119-0.106,0.069-0.205-0.105-0.219c-0.179-0.014-0.413,0.061-0.534,0.168
		c-0.12,0.107-0.073,0.205,0.103,0.219C11.805,23.842,12.045,23.768,12.163,23.661z"/>
	<path class="st1" d="M10.619,23.745c0.169,0.015,0.406-0.061,0.523-0.166c0.118-0.107,0.074-0.205-0.095-0.219
		c-0.171-0.013-0.403,0.062-0.52,0.168C10.405,23.634,10.448,23.731,10.619,23.745z"/>
	<path class="st1" d="M9.65,23.664c0.164,0.013,0.392-0.06,0.51-0.167c0.117-0.106,0.077-0.202-0.085-0.216
		c-0.165-0.013-0.386,0.061-0.507,0.168C9.452,23.554,9.488,23.65,9.65,23.664z"/>
	<path class="st1" d="M17.301,23.156c-0.03-0.007-0.06-0.011-0.092-0.015c-0.118-0.01-0.257,0.006-0.389,0.044
		c-0.138,0.037-0.254,0.094-0.324,0.159c-0.126,0.111-0.086,0.221,0.087,0.262c0.028,0.007,0.061,0.011,0.094,0.014
		c0.117,0.01,0.26-0.007,0.394-0.044c0.135-0.038,0.249-0.094,0.316-0.158C17.514,23.307,17.472,23.197,17.301,23.156z"/>
	<path class="st1" d="M16.255,23.323c0.123-0.111,0.088-0.223-0.087-0.263c-0.024-0.007-0.057-0.011-0.089-0.013
		c-0.117-0.01-0.252,0.005-0.383,0.042c-0.139,0.038-0.257,0.096-0.33,0.162c-0.124,0.11-0.089,0.221,0.086,0.262
		c0.028,0.006,0.06,0.01,0.092,0.013C15.787,23.546,16.108,23.455,16.255,23.323z"/>
	<path class="st1" d="M14.333,23.422c0.029,0.006,0.055,0.011,0.092,0.013c0.241,0.02,0.557-0.071,0.704-0.204
		c0.13-0.113,0.092-0.224-0.081-0.265c-0.025-0.006-0.056-0.01-0.086-0.013c-0.116-0.009-0.248,0.006-0.377,0.042
		c-0.14,0.038-0.258,0.097-0.334,0.164C14.125,23.271,14.163,23.381,14.333,23.422z"/>
	<path class="st1" d="M13.271,23.309c0.022,0.006,0.052,0.009,0.076,0.012c0.214,0.018,0.493-0.066,0.628-0.185
		c0.116-0.103,0.087-0.202-0.068-0.238c-0.021-0.005-0.049-0.009-0.079-0.01c-0.21-0.018-0.491,0.065-0.624,0.185
		C13.091,23.175,13.12,23.274,13.271,23.309z"/>
	<path class="st1" d="M12.314,23.21c0.176,0.015,0.419-0.06,0.533-0.165c0.12-0.107,0.074-0.205-0.103-0.219
		c-0.176-0.015-0.413,0.06-0.538,0.167C12.09,23.099,12.137,23.197,12.314,23.21z"/>
	<path class="st1" d="M11.825,22.963c0.119-0.106,0.079-0.205-0.091-0.218c-0.172-0.013-0.403,0.062-0.524,0.168
		c-0.119,0.106-0.077,0.202,0.094,0.217C11.472,23.143,11.71,23.068,11.825,22.963z"/>
	<path class="st1" d="M10.842,22.884c0.118-0.106,0.078-0.202-0.081-0.217c-0.164-0.012-0.392,0.063-0.511,0.17
		c-0.115,0.105-0.081,0.202,0.078,0.215C10.491,23.065,10.722,22.99,10.842,22.884z"/>
	<path class="st1" d="M9.405,22.976c0.155,0.013,0.376-0.062,0.496-0.167c0.118-0.105,0.084-0.201-0.072-0.212
		c-0.156-0.012-0.374,0.063-0.494,0.169C9.22,22.87,9.251,22.964,9.405,22.976z"/>
	<path class="st1" d="M15.024,22.807c0.025,0.006,0.051,0.011,0.081,0.014c0.117,0.009,0.252-0.006,0.384-0.042
		c0.135-0.038,0.253-0.096,0.324-0.161c0.131-0.114,0.094-0.224-0.08-0.266c-0.025-0.005-0.056-0.01-0.088-0.012
		c-0.112-0.01-0.246,0.005-0.377,0.041c-0.137,0.038-0.256,0.096-0.328,0.162C14.816,22.656,14.849,22.767,15.024,22.807z"/>
	<path class="st1" d="M14.665,22.521c0.116-0.102,0.085-0.202-0.068-0.237c-0.022-0.005-0.046-0.009-0.073-0.011
		c-0.211-0.018-0.495,0.065-0.627,0.184c-0.117,0.102-0.089,0.201,0.065,0.237c0.025,0.005,0.047,0.009,0.074,0.012
		C14.251,22.722,14.528,22.64,14.665,22.521z"/>
	<path class="st1" d="M13.543,22.427c0.121-0.106,0.07-0.202-0.105-0.217c-0.176-0.014-0.418,0.061-0.536,0.166
		c-0.119,0.106-0.074,0.203,0.103,0.217C13.181,22.608,13.421,22.533,13.543,22.427z"/>
	<path class="st1" d="M11.989,22.515c0.17,0.013,0.406-0.062,0.527-0.168c0.12-0.106,0.079-0.203-0.094-0.216
		c-0.172-0.013-0.404,0.062-0.522,0.167C11.782,22.404,11.82,22.501,11.989,22.515z"/>
	<path class="st1" d="M11.531,22.27c0.115-0.105,0.078-0.201-0.089-0.213c-0.164-0.012-0.392,0.065-0.509,0.169
		c-0.116,0.105-0.085,0.201,0.082,0.214C11.179,22.452,11.409,22.375,11.531,22.27z"/>
	<path class="st1" d="M10.583,22.199c0.115-0.104,0.085-0.199-0.074-0.21c-0.155-0.011-0.374,0.064-0.49,0.169
		c-0.119,0.105-0.094,0.199,0.061,0.211C10.241,22.379,10.465,22.305,10.583,22.199z"/>
	<path class="st1" d="M9.204,22.304c0.145,0.01,0.364-0.065,0.479-0.17c0.116-0.104,0.092-0.197-0.056-0.207
		c-0.151-0.009-0.359,0.066-0.478,0.17C9.036,22.201,9.054,22.294,9.204,22.304z"/>
	<path class="st1" d="M8.38,22.246c0.135,0.009,0.345-0.067,0.456-0.17c0.117-0.103,0.096-0.195-0.039-0.203
		c-0.138-0.008-0.337,0.067-0.453,0.171C8.232,22.145,8.244,22.236,8.38,22.246z"/>
	<path class="st1" d="M17.527,21.844c-0.024-0.006-0.053-0.01-0.083-0.013c-0.117-0.01-0.254,0.004-0.384,0.04
		c-0.135,0.037-0.252,0.093-0.324,0.159c-0.128,0.112-0.093,0.224,0.083,0.264c0.025,0.005,0.054,0.01,0.083,0.013
		c0.118,0.01,0.256-0.005,0.389-0.041c0.133-0.038,0.249-0.094,0.322-0.159C17.74,21.996,17.701,21.886,17.527,21.844z"/>
	<path class="st1" d="M16.423,21.744c-0.029-0.005-0.056-0.01-0.088-0.012c-0.111-0.011-0.247,0.004-0.376,0.039
		c-0.138,0.039-0.254,0.096-0.331,0.162c-0.125,0.112-0.092,0.224,0.08,0.264c0.027,0.006,0.057,0.01,0.085,0.013
		c0.117,0.01,0.25-0.005,0.38-0.04c0.137-0.038,0.256-0.096,0.326-0.161C16.628,21.896,16.593,21.785,16.423,21.744z"/>
	<path class="st1" d="M14.654,22.08c0.025,0.006,0.05,0.009,0.073,0.012c0.211,0.018,0.495-0.065,0.632-0.184
		c0.111-0.101,0.083-0.2-0.069-0.236c-0.023-0.005-0.047-0.009-0.075-0.011c-0.207-0.018-0.49,0.064-0.626,0.183
		C14.477,21.945,14.503,22.045,14.654,22.08z"/>
	<path class="st1" d="M14.236,21.814c0.12-0.105,0.074-0.202-0.107-0.215c-0.176-0.015-0.416,0.06-0.532,0.164
		c-0.125,0.106-0.079,0.204,0.101,0.217C13.873,21.994,14.118,21.92,14.236,21.814z"/>
	<path class="st1" d="M13.211,21.735c0.12-0.106,0.076-0.202-0.096-0.215c-0.17-0.013-0.405,0.062-0.527,0.168
		c-0.12,0.105-0.078,0.2,0.092,0.213C12.854,21.914,13.089,21.839,13.211,21.735z"/>
	<path class="st1" d="M12.217,21.659c0.12-0.105,0.083-0.2-0.087-0.211c-0.163-0.012-0.391,0.063-0.508,0.168
		c-0.119,0.104-0.085,0.199,0.078,0.211C11.867,21.84,12.101,21.765,12.217,21.659z"/>
	<path class="st1" d="M10.767,21.762c0.155,0.011,0.378-0.065,0.498-0.17c0.12-0.105,0.084-0.198-0.073-0.208
		c-0.157-0.01-0.378,0.066-0.493,0.169C10.578,21.658,10.611,21.751,10.767,21.762z"/>
	<path class="st1" d="M10.359,21.531c0.116-0.102,0.087-0.195-0.061-0.204c-0.145-0.01-0.359,0.068-0.474,0.171
		c-0.117,0.103-0.094,0.194,0.054,0.204C10.027,21.712,10.243,21.636,10.359,21.531z"/>
	<path class="st1" d="M9.509,21.479c0.116-0.103,0.093-0.193-0.043-0.201c-0.14-0.008-0.342,0.069-0.459,0.171
		c-0.113,0.103-0.097,0.192,0.041,0.2C9.185,21.659,9.393,21.582,9.509,21.479z"/>
	<path class="st1" d="M18.291,21.507c0.125-0.111,0.088-0.223-0.084-0.264c-0.029-0.005-0.054-0.009-0.087-0.012
		c-0.111-0.013-0.252,0.002-0.38,0.038c-0.138,0.038-0.25,0.093-0.321,0.157c-0.131,0.112-0.092,0.223,0.085,0.264
		c0.022,0.007,0.051,0.011,0.083,0.013c0.113,0.012,0.251-0.003,0.384-0.038C18.106,21.626,18.219,21.571,18.291,21.507z"/>
	<path class="st1" d="M17.188,21.403c0.123-0.111,0.091-0.222-0.085-0.263c-0.024-0.006-0.05-0.01-0.082-0.012
		c-0.113-0.01-0.242,0.003-0.375,0.04c-0.138,0.038-0.251,0.093-0.329,0.159c-0.125,0.112-0.091,0.223,0.084,0.263
		c0.024,0.006,0.047,0.011,0.079,0.013c0.115,0.011,0.25-0.005,0.379-0.039C16.998,21.525,17.112,21.469,17.188,21.403z"/>
	<path class="st1" d="M15.981,21.068c-0.021-0.006-0.045-0.009-0.071-0.012c-0.21-0.019-0.491,0.063-0.623,0.179
		c-0.119,0.102-0.09,0.201,0.065,0.236c0.021,0.005,0.045,0.009,0.069,0.012c0.21,0.019,0.493-0.063,0.626-0.18
		C16.162,21.201,16.136,21.102,15.981,21.068z"/>
	<path class="st1" d="M14.393,21.37c0.175,0.014,0.42-0.059,0.54-0.164c0.119-0.103,0.071-0.2-0.107-0.214
		c-0.181-0.013-0.42,0.06-0.538,0.164C14.17,21.261,14.211,21.357,14.393,21.37z"/>
	<path class="st1" d="M13.902,21.127c0.119-0.105,0.075-0.2-0.096-0.213c-0.175-0.013-0.408,0.062-0.526,0.166
		c-0.118,0.104-0.079,0.199,0.092,0.213C13.547,21.305,13.784,21.231,13.902,21.127z"/>
	<path class="st1" d="M12.39,21.22c0.167,0.012,0.396-0.063,0.516-0.167c0.119-0.103,0.082-0.198-0.084-0.209
		c-0.169-0.011-0.397,0.065-0.515,0.168C12.188,21.115,12.226,21.21,12.39,21.22z"/>
	<path class="st1" d="M11.951,20.988c0.117-0.103,0.084-0.196-0.077-0.205c-0.16-0.01-0.376,0.065-0.497,0.169
		c-0.117,0.103-0.085,0.195,0.07,0.206C11.605,21.168,11.83,21.092,11.951,20.988z"/>
	<path class="st1" d="M10.557,21.102c0.146,0.009,0.367-0.067,0.483-0.17c0.119-0.104,0.087-0.195-0.067-0.203
		c-0.143-0.009-0.359,0.068-0.474,0.172C10.379,21.003,10.405,21.093,10.557,21.102z"/>
	<path class="st1" d="M10.178,20.883c0.117-0.102,0.095-0.191-0.045-0.198c-0.138-0.007-0.344,0.071-0.459,0.173
		c-0.112,0.101-0.098,0.19,0.042,0.197C9.856,21.062,10.062,20.986,10.178,20.883z"/>
	<path class="st1" d="M8.935,21.019c0.128,0.005,0.327-0.072,0.442-0.174c0.114-0.102,0.1-0.188-0.03-0.193
		c-0.126-0.006-0.322,0.073-0.437,0.174C8.798,20.926,8.809,21.013,8.935,21.019z"/>
	<path class="st1" d="M8.225,20.991c0.114,0.004,0.304-0.074,0.417-0.174c0.112-0.1,0.105-0.185-0.012-0.188
		c-0.117-0.003-0.302,0.076-0.411,0.175C8.109,20.904,8.109,20.987,8.225,20.991z"/>
	<path class="st1" d="M7.987,20.616c-0.108,0-0.277,0.079-0.384,0.177c-0.109,0.098-0.12,0.178-0.014,0.18
		c0.103,0.002,0.278-0.077,0.392-0.174C8.085,20.701,8.088,20.618,7.987,20.616z"/>
	<path class="st1" d="M18.096,20.83c-0.13,0.112-0.088,0.221,0.084,0.263c0.026,0.006,0.05,0.01,0.082,0.012
		c0.116,0.012,0.251-0.001,0.384-0.039c0.135-0.036,0.243-0.09,0.315-0.152c0.127-0.111,0.093-0.222-0.088-0.263
		c-0.023-0.005-0.048-0.01-0.076-0.013c-0.113-0.012-0.251,0.002-0.383,0.037C18.284,20.711,18.166,20.766,18.096,20.83z"/>
	<path class="st1" d="M17.867,20.807c0.126-0.111,0.094-0.222-0.081-0.262c-0.026-0.006-0.053-0.01-0.081-0.013
		c-0.111-0.011-0.247,0.003-0.375,0.038c-0.139,0.038-0.252,0.094-0.326,0.157c-0.127,0.112-0.094,0.221,0.082,0.263
		c0.024,0.005,0.052,0.01,0.081,0.012c0.111,0.01,0.247-0.004,0.38-0.039C17.682,20.925,17.794,20.87,17.867,20.807z"/>
	<path class="st1" d="M16.669,20.469c-0.021-0.005-0.045-0.009-0.071-0.011c-0.206-0.019-0.486,0.061-0.618,0.178
		c-0.118,0.099-0.09,0.197,0.061,0.233c0.021,0.005,0.046,0.009,0.069,0.011c0.215,0.018,0.491-0.061,0.626-0.177
		C16.849,20.604,16.824,20.504,16.669,20.469z"/>
	<path class="st1" d="M15.628,20.605c0.117-0.103,0.068-0.198-0.109-0.212c-0.179-0.015-0.416,0.057-0.54,0.161
		c-0.12,0.103-0.073,0.198,0.108,0.212C15.263,20.781,15.506,20.709,15.628,20.605z"/>
	<path class="st1" d="M13.967,20.479c-0.118,0.102-0.075,0.196,0.099,0.209c0.17,0.013,0.41-0.061,0.53-0.164
		c0.121-0.104,0.072-0.198-0.099-0.211C14.323,20.301,14.088,20.375,13.967,20.479z"/>
	<path class="st1" d="M12.993,20.411c-0.119,0.104-0.083,0.197,0.084,0.207c0.169,0.012,0.401-0.063,0.52-0.166
		c0.119-0.103,0.075-0.196-0.091-0.208C13.34,20.233,13.112,20.307,12.993,20.411z"/>
	<path class="st1" d="M12.637,20.388c0.113-0.102,0.077-0.194-0.082-0.203c-0.157-0.01-0.38,0.066-0.496,0.169
		c-0.119,0.103-0.088,0.193,0.074,0.203C12.291,20.566,12.516,20.492,12.637,20.388z"/>
	<path class="st1" d="M11.714,20.335c0.119-0.102,0.09-0.194-0.06-0.201c-0.153-0.008-0.366,0.069-0.482,0.172
		c-0.117,0.102-0.091,0.19,0.059,0.199C11.381,20.513,11.599,20.437,11.714,20.335z"/>
	<path class="st1" d="M10.338,20.269c-0.113,0.1-0.097,0.188,0.048,0.194c0.138,0.006,0.346-0.071,0.462-0.172
		c0.116-0.102,0.092-0.19-0.05-0.196C10.655,20.09,10.453,20.167,10.338,20.269z"/>
	<path class="st1" d="M9.565,20.243c-0.109,0.1-0.099,0.185,0.028,0.189c0.128,0.005,0.33-0.073,0.446-0.175
		c0.112-0.1,0.098-0.186-0.034-0.19C9.877,20.063,9.682,20.141,9.565,20.243z"/>
	<path class="st1" d="M9.291,20.236c0.113-0.1,0.102-0.183-0.012-0.184c-0.121-0.002-0.303,0.077-0.416,0.177
		c-0.112,0.099-0.109,0.181,0.012,0.183C8.992,20.415,9.184,20.335,9.291,20.236z"/>
	<path class="st1" d="M8.621,20.047c-0.107,0.001-0.278,0.081-0.388,0.179c-0.108,0.098-0.116,0.177-0.013,0.178
		c0.106,0,0.287-0.079,0.395-0.177C8.725,20.127,8.724,20.047,8.621,20.047z"/>
	<path class="st1" d="M18.766,20.24c-0.126,0.111-0.088,0.221,0.088,0.261c0.024,0.006,0.052,0.01,0.078,0.012
		c0.116,0.013,0.253-0.001,0.385-0.037c0.131-0.035,0.242-0.089,0.311-0.15c0.126-0.109,0.087-0.218-0.088-0.261
		c-0.023-0.005-0.051-0.009-0.077-0.012c-0.112-0.013-0.247,0-0.382,0.036C18.951,20.125,18.837,20.18,18.766,20.24z"/>
	<path class="st1" d="M18.459,19.957c-0.022-0.006-0.05-0.01-0.078-0.013c-0.112-0.01-0.246,0.004-0.374,0.038
		c-0.133,0.035-0.245,0.09-0.322,0.153c-0.125,0.109-0.091,0.219,0.081,0.259c0.024,0.006,0.051,0.009,0.081,0.013
		c0.11,0.011,0.245-0.003,0.375-0.038c0.134-0.036,0.247-0.091,0.319-0.152C18.67,20.107,18.635,19.998,18.459,19.957z"/>
	<path class="st1" d="M16.667,20.043c-0.114,0.099-0.088,0.196,0.063,0.231c0.02,0.006,0.046,0.01,0.071,0.012
		c0.21,0.019,0.485-0.06,0.618-0.174c0.115-0.099,0.089-0.196-0.067-0.23c-0.021-0.006-0.041-0.01-0.07-0.011
		C17.079,19.851,16.799,19.929,16.667,20.043z"/>
	<path class="st1" d="M15.671,19.961c-0.12,0.101-0.073,0.196,0.106,0.21c0.177,0.014,0.423-0.057,0.541-0.157
		c0.114-0.101,0.065-0.195-0.111-0.21C16.026,19.789,15.79,19.859,15.671,19.961z"/>
	<path class="st1" d="M15.283,19.931c0.118-0.102,0.071-0.194-0.1-0.208c-0.176-0.013-0.407,0.059-0.53,0.162
		c-0.115,0.101-0.072,0.193,0.103,0.206C14.93,20.104,15.164,20.032,15.283,19.931z"/>
	<path class="st1" d="M14.282,19.857c0.121-0.102,0.075-0.193-0.093-0.204c-0.167-0.012-0.395,0.062-0.517,0.164
		c-0.114,0.102-0.077,0.193,0.09,0.204C13.93,20.033,14.162,19.96,14.282,19.857z"/>
	<path class="st1" d="M13.313,19.795c0.119-0.103,0.084-0.192-0.079-0.202c-0.161-0.009-0.383,0.066-0.5,0.167
		c-0.117,0.102-0.084,0.192,0.076,0.202C12.969,19.971,13.2,19.896,13.313,19.795z"/>
	<path class="st1" d="M11.844,19.715c-0.118,0.101-0.091,0.19,0.062,0.197c0.151,0.009,0.367-0.068,0.489-0.17
		c0.113-0.101,0.083-0.189-0.069-0.198C12.169,19.537,11.957,19.614,11.844,19.715z"/>
	<path class="st1" d="M11.519,19.701c0.114-0.1,0.088-0.187-0.053-0.193c-0.144-0.004-0.346,0.072-0.465,0.175
		c-0.11,0.1-0.095,0.186,0.048,0.192C11.191,19.879,11.406,19.802,11.519,19.701z"/>
	<path class="st1" d="M10.699,19.674c0.113-0.101,0.096-0.186-0.036-0.189c-0.134-0.003-0.329,0.077-0.439,0.176
		c-0.115,0.1-0.102,0.184,0.028,0.187C10.383,19.852,10.583,19.774,10.699,19.674z"/>
	<path class="st1" d="M9.943,19.657c0.111-0.1,0.101-0.182-0.021-0.183c-0.121-0.001-0.305,0.08-0.416,0.179
		c-0.11,0.099-0.106,0.179,0.013,0.181C9.637,19.836,9.831,19.756,9.943,19.657z"/>
	<path class="st1" d="M9.255,19.655c0.111-0.1,0.109-0.177,0-0.176c-0.109,0.001-0.284,0.084-0.392,0.181
		c-0.109,0.098-0.114,0.176-0.005,0.175C8.967,19.833,9.144,19.753,9.255,19.655z"/>
	<path class="st1" d="M20.187,19.504c-0.025-0.006-0.048-0.009-0.076-0.012c-0.113-0.014-0.253,0-0.381,0.035
		c-0.127,0.033-0.233,0.084-0.302,0.143c-0.123,0.107-0.086,0.214,0.089,0.255c0.022,0.007,0.049,0.011,0.076,0.013
		c0.118,0.012,0.254,0.001,0.385-0.035c0.13-0.035,0.234-0.085,0.301-0.143C20.402,19.653,20.358,19.546,20.187,19.504z"/>
	<path class="st1" d="M19.119,19.39c-0.026-0.005-0.047-0.01-0.074-0.013c-0.112-0.011-0.247,0.001-0.376,0.035
		c-0.13,0.034-0.241,0.087-0.308,0.146c-0.13,0.109-0.091,0.214,0.079,0.256c0.024,0.006,0.049,0.01,0.078,0.012
		c0.113,0.012,0.25-0.001,0.382-0.038c0.128-0.033,0.235-0.085,0.308-0.145C19.33,19.538,19.293,19.431,19.119,19.39z"/>
	<path class="st1" d="M17.351,19.462c-0.121,0.098-0.091,0.193,0.065,0.228c0.017,0.006,0.041,0.009,0.066,0.012
		c0.207,0.019,0.48-0.057,0.611-0.168c0.114-0.096,0.088-0.192-0.067-0.226c-0.02-0.005-0.041-0.01-0.065-0.012
		C17.755,19.276,17.481,19.351,17.351,19.462z"/>
	<path class="st1" d="M16.359,19.38c-0.12,0.1-0.074,0.191,0.106,0.205c0.179,0.015,0.417-0.053,0.537-0.154
		c0.116-0.097,0.069-0.19-0.11-0.204C16.713,19.213,16.475,19.282,16.359,19.38z"/>
	<path class="st1" d="M15.973,19.35c0.116-0.097,0.074-0.187-0.099-0.2c-0.174-0.013-0.409,0.057-0.527,0.155
		c-0.123,0.099-0.082,0.188,0.093,0.201C15.611,19.519,15.854,19.449,15.973,19.35z"/>
	<path class="st1" d="M14.368,19.239c-0.123,0.098-0.088,0.186,0.078,0.196c0.168,0.011,0.405-0.058,0.525-0.156
		c0.121-0.099,0.08-0.185-0.085-0.197C14.719,19.071,14.486,19.142,14.368,19.239z"/>
	<path class="st1" d="M13.424,19.185c-0.121,0.097-0.091,0.183,0.069,0.192c0.161,0.009,0.392-0.062,0.514-0.161
		c0.121-0.097,0.085-0.183-0.077-0.191C13.768,19.016,13.542,19.088,13.424,19.185z"/>
	<path class="st1" d="M12.522,19.142c-0.118,0.097-0.094,0.181,0.058,0.187c0.155,0.007,0.377-0.065,0.497-0.162
		c0.119-0.096,0.093-0.182-0.061-0.188C12.862,18.972,12.645,19.045,12.522,19.142z"/>
	<path class="st1" d="M12.196,19.128c0.12-0.097,0.097-0.18-0.044-0.186c-0.148-0.004-0.357,0.071-0.473,0.167
		c-0.122,0.097-0.106,0.179,0.041,0.184C11.862,19.299,12.079,19.225,12.196,19.128z"/>
	<path class="st1" d="M10.887,19.09c-0.116,0.098-0.107,0.178,0.027,0.181c0.13,0.003,0.337-0.072,0.457-0.169
		c0.12-0.098,0.1-0.179-0.035-0.181C11.202,18.917,11.001,18.994,10.887,19.09z"/>
	<path class="st1" d="M10.153,19.085c-0.111,0.097-0.107,0.177,0.014,0.177c0.122,0.001,0.32-0.078,0.435-0.174
		c0.115-0.097,0.107-0.178-0.022-0.178C10.457,18.908,10.266,18.988,10.153,19.085z"/>
	<path class="st1" d="M9.896,19.087c0.112-0.098,0.107-0.175-0.003-0.174c-0.112,0.001-0.289,0.083-0.396,0.18
		c-0.111,0.098-0.117,0.176-0.003,0.174C9.601,19.264,9.785,19.184,9.896,19.087z"/>
	<path class="st1" d="M18.156,19.133c0.206,0.02,0.471-0.051,0.604-0.16c0.13-0.109,0.067-0.215-0.133-0.237
		c-0.096-0.01-0.213,0-0.327,0.03c-0.114,0.03-0.213,0.076-0.276,0.13c-0.117,0.096-0.087,0.191,0.066,0.226
		C18.11,19.127,18.13,19.13,18.156,19.133z"/>
	<path class="st1" d="M17.57,18.665c-0.173-0.015-0.412,0.054-0.529,0.15c-0.117,0.096-0.07,0.186,0.107,0.199
		c0.178,0.014,0.416-0.054,0.533-0.151C17.796,18.767,17.747,18.679,17.57,18.665z"/>
	<path class="st1" d="M16.035,18.742c-0.115,0.096-0.075,0.184,0.097,0.197c0.173,0.013,0.412-0.056,0.527-0.153
		c0.118-0.096,0.075-0.185-0.1-0.196C16.391,18.578,16.154,18.646,16.035,18.742z"/>
	<path class="st1" d="M15.057,18.679c-0.119,0.097-0.081,0.182,0.085,0.193c0.169,0.011,0.401-0.059,0.522-0.155
		c0.118-0.096,0.076-0.182-0.086-0.193C15.409,18.515,15.177,18.583,15.057,18.679z"/>
	<path class="st1" d="M14.119,18.626c-0.122,0.096-0.087,0.181,0.071,0.19c0.162,0.009,0.389-0.062,0.509-0.157
		c0.117-0.095,0.086-0.182-0.076-0.191C14.463,18.46,14.238,18.531,14.119,18.626z"/>
	<path class="st1" d="M13.773,18.609c0.119-0.095,0.09-0.178-0.066-0.186c-0.153-0.008-0.37,0.064-0.488,0.16
		c-0.12,0.096-0.097,0.179,0.059,0.185C13.428,18.776,13.651,18.705,13.773,18.609z"/>
	<path class="st1" d="M12.363,18.551c-0.12,0.097-0.099,0.178,0.044,0.183c0.146,0.006,0.364-0.068,0.478-0.163
		c0.119-0.096,0.096-0.178-0.049-0.183C12.69,18.382,12.48,18.456,12.363,18.551z"/>
	<path class="st1" d="M11.554,18.531c-0.114,0.096-0.103,0.177,0.037,0.179c0.137,0.003,0.344-0.07,0.463-0.168
		c0.115-0.095,0.095-0.176-0.04-0.18C11.874,18.358,11.672,18.434,11.554,18.531z"/>
	<path class="st1" d="M10.813,18.521c-0.116,0.097-0.11,0.177,0.013,0.178c0.128,0.001,0.323-0.076,0.443-0.174
		c0.117-0.096,0.1-0.176-0.025-0.178C11.119,18.347,10.923,18.425,10.813,18.521z"/>
	<path class="st1" d="M19.416,18.424c0.123-0.104,0.072-0.209-0.129-0.233c-0.103-0.012-0.217-0.002-0.329,0.028
		c-0.11,0.028-0.209,0.073-0.272,0.125c-0.115,0.095-0.088,0.189,0.07,0.224c0.016,0.004,0.038,0.008,0.058,0.01
		c0.098,0.011,0.216,0,0.332-0.03C19.259,18.519,19.352,18.475,19.416,18.424z"/>
	<path class="st1" d="M17.716,18.262c-0.115,0.095-0.068,0.182,0.11,0.194c0.172,0.015,0.408-0.052,0.524-0.146
		c0.113-0.095,0.063-0.182-0.111-0.194C18.065,18.103,17.835,18.167,17.716,18.262z"/>
	<path class="st1" d="M16.718,18.192c-0.114,0.093-0.071,0.179,0.096,0.191c0.172,0.012,0.408-0.055,0.524-0.149
		c0.116-0.093,0.072-0.179-0.097-0.192C17.066,18.031,16.836,18.098,16.718,18.192z"/>
	<path class="st1" d="M15.751,18.129c-0.12,0.094-0.081,0.179,0.083,0.19c0.168,0.011,0.395-0.058,0.516-0.152
		c0.118-0.094,0.076-0.178-0.087-0.189C16.094,17.968,15.865,18.036,15.751,18.129z"/>
	<path class="st1" d="M15.312,17.922c-0.162-0.009-0.384,0.059-0.503,0.154c-0.118,0.094-0.086,0.178,0.073,0.187
		c0.159,0.009,0.388-0.06,0.508-0.155C15.511,18.014,15.473,17.931,15.312,17.922z"/>
	<path class="st1" d="M13.906,18.032c-0.118,0.095-0.094,0.177,0.065,0.183c0.149,0.009,0.375-0.063,0.49-0.156
		c0.119-0.094,0.092-0.178-0.066-0.185C14.241,17.867,14.024,17.938,13.906,18.032z"/>
	<path class="st1" d="M13.043,17.998c-0.116,0.094-0.094,0.176,0.051,0.181c0.145,0.005,0.362-0.067,0.479-0.162
		c0.12-0.095,0.093-0.177-0.052-0.182C13.373,17.83,13.161,17.903,13.043,17.998z"/>
	<path class="st1" d="M12.228,17.974c-0.115,0.095-0.098,0.176,0.04,0.179c0.134,0.004,0.343-0.071,0.461-0.166
		c0.115-0.095,0.096-0.176-0.044-0.18C12.549,17.803,12.342,17.878,12.228,17.974z"/>
	<path class="st1" d="M11.9,17.789c-0.129-0.003-0.325,0.074-0.436,0.171c-0.113,0.097-0.102,0.176,0.024,0.178
		c0.131,0.002,0.33-0.075,0.444-0.17C12.046,17.872,12.032,17.792,11.9,17.789z"/>
	<path class="st1" d="M18.381,17.725c-0.114,0.092-0.064,0.176,0.109,0.19c0.171,0.012,0.405-0.051,0.519-0.142
		c0.113-0.091,0.06-0.175-0.111-0.189C18.726,17.571,18.496,17.634,18.381,17.725z"/>
	<path class="st1" d="M17.393,17.654c-0.117,0.091-0.072,0.176,0.098,0.187c0.167,0.012,0.399-0.052,0.514-0.144
		c0.117-0.092,0.069-0.175-0.099-0.187C17.736,17.499,17.508,17.562,17.393,17.654z"/>
	<path class="st1" d="M16.936,17.444c-0.164-0.011-0.391,0.055-0.508,0.147c-0.116,0.093-0.077,0.175,0.089,0.185
		c0.167,0.01,0.396-0.056,0.506-0.147C17.143,17.538,17.099,17.455,16.936,17.444z"/>
	<path class="st1" d="M15.493,17.535c-0.117,0.093-0.084,0.174,0.075,0.184c0.161,0.01,0.388-0.058,0.504-0.151
		c0.118-0.091,0.08-0.174-0.081-0.183C15.833,17.376,15.608,17.443,15.493,17.535z"/>
	<path class="st1" d="M14.586,17.488c-0.115,0.093-0.088,0.175,0.067,0.181c0.156,0.008,0.377-0.06,0.493-0.153
		c0.12-0.094,0.087-0.175-0.071-0.182C14.922,17.326,14.707,17.395,14.586,17.488z"/>
	<path class="st1" d="M13.721,17.45c-0.114,0.094-0.095,0.174,0.053,0.181c0.145,0.006,0.363-0.066,0.482-0.159
		c0.116-0.093,0.09-0.175-0.056-0.182C14.049,17.285,13.836,17.357,13.721,17.45z"/>
	<path class="st1" d="M13.358,17.258c-0.143-0.005-0.347,0.068-0.464,0.164c-0.115,0.095-0.095,0.175,0.045,0.179
		c0.14,0.004,0.349-0.068,0.461-0.161C13.517,17.344,13.498,17.263,13.358,17.258z"/>
	<path class="st1" d="M19.981,17.289c-0.118,0.092-0.084,0.184,0.067,0.22c0.022,0.002,0.039,0.006,0.052,0.009
		c0.098,0.012,0.218,0.004,0.332-0.026c0.104-0.026,0.192-0.066,0.251-0.112c0.12-0.099,0.068-0.201-0.129-0.226
		c-0.097-0.013-0.213-0.005-0.322,0.022C20.126,17.202,20.037,17.242,19.981,17.289z"/>
	<path class="st1" d="M19.54,17.069c-0.17-0.013-0.394,0.046-0.507,0.136c-0.111,0.087-0.065,0.171,0.11,0.184
		c0.167,0.014,0.395-0.048,0.507-0.136C19.763,17.165,19.711,17.083,19.54,17.069z"/>
	<path class="st1" d="M18.561,16.993c-0.167-0.012-0.393,0.049-0.504,0.138c-0.115,0.09-0.069,0.171,0.096,0.184
		c0.172,0.012,0.397-0.051,0.512-0.139C18.775,17.087,18.727,17.006,18.561,16.993z"/>
	<path class="st1" d="M17.099,17.065c-0.116,0.09-0.075,0.171,0.087,0.182c0.165,0.012,0.393-0.052,0.506-0.142
		c0.116-0.089,0.073-0.171-0.09-0.182C17.44,16.911,17.214,16.975,17.099,17.065z"/>
	<path class="st1" d="M16.17,17.004c-0.119,0.091-0.087,0.173,0.076,0.182c0.161,0.01,0.382-0.055,0.501-0.145
		c0.116-0.091,0.076-0.17-0.081-0.181C16.503,16.85,16.284,16.914,16.17,17.004z"/>
	<path class="st1" d="M15.267,16.952c-0.119,0.093-0.088,0.173,0.063,0.182c0.156,0.008,0.379-0.06,0.493-0.151
		c0.117-0.09,0.081-0.171-0.071-0.18C15.599,16.794,15.381,16.861,15.267,16.952z"/>
	<path class="st1" d="M14.873,16.755c-0.151-0.008-0.365,0.061-0.479,0.154c-0.116,0.093-0.092,0.174,0.058,0.18
		c0.147,0.007,0.366-0.062,0.48-0.155C15.048,16.843,15.02,16.763,14.873,16.755z"/>
	<path class="st1" d="M21.167,16.665c-0.096-0.014-0.216-0.007-0.325,0.021c-0.099,0.024-0.187,0.062-0.243,0.106
		c-0.106,0.087-0.078,0.18,0.077,0.216c0.015,0.004,0.032,0.005,0.047,0.008c0.099,0.013,0.217,0.005,0.33-0.023
		c0.099-0.024,0.181-0.062,0.238-0.106C21.408,16.793,21.354,16.692,21.167,16.665z"/>
	<path class="st1" d="M19.67,16.702c-0.108,0.085-0.059,0.165,0.109,0.178c0.166,0.016,0.394-0.043,0.5-0.128
		c0.104-0.084,0.053-0.164-0.109-0.179C20,16.56,19.78,16.617,19.67,16.702z"/>
	<path class="st1" d="M18.707,16.625c-0.11,0.086-0.07,0.166,0.096,0.179c0.166,0.013,0.394-0.047,0.504-0.133
		c0.107-0.084,0.06-0.165-0.104-0.178C19.037,16.481,18.816,16.538,18.707,16.625z"/>
	<path class="st1" d="M17.76,16.552c-0.113,0.088-0.074,0.168,0.087,0.181c0.16,0.012,0.386-0.049,0.497-0.136
		c0.111-0.087,0.072-0.167-0.091-0.179C18.093,16.404,17.872,16.465,17.76,16.552z"/>
	<path class="st1" d="M16.835,16.486c-0.115,0.088-0.081,0.169,0.078,0.18c0.157,0.011,0.383-0.054,0.493-0.139
		c0.113-0.089,0.077-0.168-0.081-0.18C17.167,16.335,16.948,16.398,16.835,16.486z"/>
	<path class="st1" d="M16.416,16.283c-0.153-0.011-0.366,0.053-0.482,0.143c-0.115,0.09-0.084,0.171,0.068,0.181
		c0.156,0.008,0.375-0.057,0.491-0.145C16.607,16.374,16.571,16.294,16.416,16.283z"/>
	<path class="st1" d="M22.106,16.455c-0.118,0.096-0.077,0.198,0.101,0.239c0.012,0.003,0.032,0.005,0.047,0.008
		c0.11,0.017,0.246,0.009,0.37-0.021c0.109-0.027,0.201-0.066,0.257-0.113c0.131-0.105,0.067-0.213-0.146-0.246
		c-0.111-0.017-0.243-0.011-0.368,0.019C22.26,16.367,22.168,16.407,22.106,16.455z"/>
	<path class="st1" d="M21.202,16.316c-0.105,0.085-0.07,0.176,0.082,0.212c0.011,0.003,0.026,0.006,0.039,0.007
		c0.099,0.014,0.219,0.008,0.333-0.02c0.091-0.023,0.173-0.058,0.227-0.099c0.112-0.09,0.061-0.189-0.125-0.217
		c-0.095-0.015-0.214-0.009-0.326,0.018C21.337,16.24,21.257,16.274,21.202,16.316z"/>
	<path class="st1" d="M20.78,16.102c-0.165-0.016-0.383,0.037-0.486,0.118c-0.108,0.081-0.061,0.161,0.101,0.175
		c0.171,0.015,0.39-0.039,0.493-0.119C20.99,16.195,20.941,16.117,20.78,16.102z"/>
	<path class="st1" d="M19.339,16.135c-0.104,0.083-0.064,0.162,0.101,0.176c0.164,0.015,0.386-0.042,0.488-0.123
		c0.112-0.082,0.064-0.16-0.097-0.175C19.665,15.998,19.45,16.052,19.339,16.135z"/>
	<path class="st1" d="M18.407,16.055c-0.109,0.084-0.075,0.164,0.087,0.177c0.161,0.013,0.381-0.044,0.491-0.127
		c0.109-0.084,0.069-0.162-0.09-0.177C18.738,15.913,18.519,15.97,18.407,16.055z"/>
	<path class="st1" d="M17.977,15.848c-0.157-0.013-0.374,0.046-0.485,0.132c-0.114,0.087-0.079,0.167,0.081,0.179
		c0.153,0.012,0.374-0.047,0.487-0.132C18.167,15.941,18.131,15.862,17.977,15.848z"/>
	<path class="st1" d="M22.769,16.243c0.011,0.004,0.026,0.007,0.043,0.009c0.112,0.017,0.247,0.01,0.371-0.019
		c0.103-0.024,0.19-0.063,0.243-0.106c0.123-0.099,0.063-0.206-0.145-0.239c-0.11-0.019-0.245-0.013-0.369,0.017
		c-0.099,0.023-0.186,0.061-0.243,0.106C22.553,16.101,22.595,16.203,22.769,16.243z"/>
	<path class="st1" d="M21.867,16.071c0.015,0.003,0.029,0.005,0.042,0.007c0.098,0.016,0.212,0.01,0.325-0.016
		c0.091-0.021,0.167-0.054,0.217-0.093c0.113-0.086,0.056-0.181-0.124-0.211c-0.096-0.015-0.213-0.011-0.326,0.015
		c-0.088,0.021-0.166,0.053-0.214,0.091C21.678,15.947,21.715,16.035,21.867,16.071z"/>
	<path class="st1" d="M21.004,15.93c0.16,0.015,0.375-0.034,0.474-0.11c0.101-0.076,0.051-0.152-0.112-0.168
		c-0.16-0.018-0.372,0.03-0.472,0.108C20.792,15.837,20.838,15.914,21.004,15.93z"/>
	<path class="st1" d="M20.437,15.553c-0.157-0.018-0.373,0.033-0.477,0.112c-0.104,0.079-0.06,0.156,0.101,0.172
		c0.159,0.017,0.376-0.036,0.477-0.113C20.643,15.644,20.597,15.569,20.437,15.553z"/>
	<path class="st1" d="M19.518,15.456c-0.156-0.016-0.368,0.036-0.477,0.118c-0.11,0.082-0.071,0.16,0.092,0.174
		c0.157,0.016,0.374-0.038,0.476-0.118C19.714,15.55,19.672,15.474,19.518,15.456z"/>
	<path class="st1" d="M23.312,15.819c0.012,0.003,0.025,0.004,0.038,0.007c0.111,0.02,0.243,0.014,0.37-0.015
		c0.1-0.023,0.18-0.058,0.232-0.099c0.119-0.094,0.057-0.198-0.141-0.234c-0.113-0.019-0.247-0.015-0.37,0.013
		c-0.098,0.022-0.177,0.057-0.236,0.1C23.09,15.68,23.14,15.777,23.312,15.819z"/>
	<path class="st1" d="M22.434,15.639c0.009,0.003,0.022,0.004,0.033,0.007c0.1,0.016,0.216,0.012,0.325-0.014
		c0.088-0.02,0.156-0.05,0.204-0.084c0.107-0.084,0.053-0.175-0.121-0.206c-0.099-0.017-0.217-0.012-0.325,0.013
		c-0.081,0.017-0.154,0.047-0.202,0.083C22.24,15.517,22.281,15.604,22.434,15.639z"/>
	<path class="st1" d="M21.585,15.489c0.157,0.018,0.366-0.026,0.46-0.098c0.096-0.07,0.047-0.144-0.111-0.164
		c-0.155-0.02-0.36,0.023-0.46,0.095C21.375,15.396,21.424,15.471,21.585,15.489z"/>
	<path class="st1" d="M95.861,24.114h-4.193l1.636-2.037c0.012-0.015,0.02-0.029,0.031-0.044l5.488-6.833
		c0.516-0.643-0.145-1.187-1.446-1.187h-0.256c-0.88,0-1.868,0.224-2.709,0.614l-20.746,9.541l-5.425-9.544
		c-0.321-0.42-0.877-0.611-1.721-0.611h-0.13c0,0-2.879-0.013-3.596-0.013c-1.317,0-2.757,0.51-3.28,1.162L48.731,28.589
		l-11.02-13.983c-0.3-0.39-0.856-0.581-1.701-0.581h-0.408c-1.301,0-2.835,0.543-3.351,1.186l-9.18,11.43
		c-0.004-0.037-0.036-0.067-0.102-0.082c-0.035-0.007-0.071-0.011-0.11-0.012c-0.204-0.003-0.459,0.076-0.579,0.178
		c-0.089,0.079-0.071,0.153,0.055,0.181c0.03,0.007,0.072,0.011,0.115,0.011c0.172,0.002,0.385-0.06,0.513-0.141l-0.679,0.845
		c-0.068,0.028-0.129,0.058-0.171,0.092c-0.081,0.064-0.088,0.122-0.032,0.16l-0.11,0.137c-0.177,0.032-0.355,0.098-0.448,0.173
		c-0.102,0.08-0.085,0.153,0.038,0.182c0.032,0.007,0.075,0.008,0.117,0.009l-0.064,0.08c-0.017,0-0.029-0.004-0.047-0.003
		c-0.223,0.008-0.499,0.094-0.625,0.194c-0.096,0.078-0.086,0.15,0.037,0.177c0.048,0.01,0.102,0.014,0.172,0.011
		c0.057-0.002,0.117-0.01,0.177-0.022l-0.101,0.126c-0.016-0.009-0.035-0.018-0.06-0.024c-0.043-0.011-0.102-0.015-0.175-0.011
		c-0.224,0.01-0.497,0.095-0.622,0.193c-0.099,0.076-0.081,0.146,0.034,0.173c0.047,0.011,0.108,0.015,0.178,0.01
		c0.15-0.008,0.319-0.05,0.454-0.105l-0.499,0.621c-0.091,0.032-0.172,0.069-0.223,0.108c-0.086,0.066-0.078,0.124,0.014,0.153
		l-0.073,0.091c-0.191,0.031-0.386,0.098-0.479,0.171c-0.093,0.07-0.077,0.131,0.03,0.158c0.047,0.01,0.108,0.014,0.177,0.01
		l-0.042,0.052c-0.027-0.001-0.055-0.001-0.087,0.001c-0.226,0.014-0.492,0.096-0.606,0.183c-0.088,0.069-0.078,0.129,0.033,0.155
		c0.049,0.011,0.116,0.016,0.193,0.011c0.068-0.005,0.14-0.017,0.211-0.032l-0.093,0.115c-0.016-0.01-0.038-0.018-0.066-0.024
		c-0.049-0.011-0.114-0.016-0.192-0.011c-0.227,0.015-0.492,0.093-0.608,0.18c-0.087,0.066-0.074,0.126,0.038,0.15
		c0.05,0.013,0.116,0.016,0.196,0.011c0.162-0.009,0.342-0.053,0.474-0.109l-0.111,0.138c-0.201,0.165-0.439,0.318-0.714,0.451
		c-0.012-0.021-0.04-0.04-0.088-0.051c-0.05-0.012-0.115-0.016-0.192-0.012c-0.225,0.011-0.488,0.082-0.598,0.164
		c-0.087,0.062-0.069,0.122,0.042,0.147c0.04,0.01,0.094,0.014,0.156,0.013c-0.19,0.055-0.392,0.102-0.609,0.138
		c-0.475,0.078-0.954,0.115-1.427,0.136c0.013-0.007,0.03-0.013,0.041-0.02c0.063-0.047,0.05-0.09-0.037-0.11
		c-0.043-0.011-0.104-0.015-0.178-0.012c-0.206,0.006-0.437,0.062-0.527,0.126c-0.018,0.013-0.028,0.025-0.033,0.037
		c-0.119,0.002-0.238,0.004-0.355,0.006c0.016-0.007,0.033-0.014,0.044-0.021c0.05-0.035,0.036-0.067-0.032-0.084
		c-0.042-0.01-0.098-0.014-0.165-0.012c-0.19,0.006-0.404,0.056-0.476,0.11c-0.007,0.005-0.01,0.009-0.014,0.014
		c-0.006,0-0.013,0-0.019,0c-0.116-0.002-0.234-0.003-0.352-0.004c0.063-0.05-0.025-0.084-0.203-0.079
		c-0.148,0.004-0.306,0.036-0.4,0.073c-0.291-0.004-0.579-0.011-0.85-0.031c-0.51-0.038-1.02-0.075-1.529-0.112
		c0.086-0.019,0.158-0.045,0.193-0.074c0.07-0.055-0.021-0.099-0.204-0.096c-0.189,0.003-0.395,0.053-0.455,0.107c0,0,0,0,0,0.001
		c-0.482-0.067-0.954-0.138-1.415-0.218c0.14-0.018,0.268-0.058,0.321-0.105c0.067-0.063-0.026-0.114-0.214-0.111
		c-0.187,0-0.397,0.055-0.462,0.117c-0.013,0.012-0.015,0.023-0.016,0.034c-0.229-0.043-0.456-0.088-0.678-0.136
		c-1.853-0.405-3.313-1.102-4.323-1.904C2,28.559,1.542,27.004,2.137,25.292c0.724-2.086,3.17-4.249,6.632-6.144
		c1.843-1.009,4.055-1.888,6.355-2.633c2.057-0.663,4.174-1.143,6.343-1.555c-1.558,0.278-3.085,0.582-4.612,0.984
		c-1.813,0.477-3.524,1.052-5.175,1.691c-3.274,1.267-6.208,2.984-7.97,4.659c-1.837,1.748-2.918,3.562-2.678,5.169
		c0.125,0.838,0.457,1.617,1.138,2.317c0.817,0.838,2.008,1.612,3.635,2.113c0.846,0.261,1.709,0.535,2.726,0.692
		c1.032,0.159,2.077,0.279,3.204,0.36c0.975,0.071,2.301,0.056,2.932,0.054c0.211-0.001,4.826,0,5.643,0c0,0,0.001,0,0.001,0
		c0,0,0,0,0.001,0c0.078,0,0.123,0,0.123,0s-0.007-0.002-0.012-0.003c1.285-0.028,2.659-0.526,3.168-1.159l11.05-13.758
		L45.899,32.34c0.158,0.194,0.52,0.644,1.65,0.644h3.418c0.004,0,0.008,0.001,0.013,0.001c0.004,0,0.01-0.001,0.014-0.001h0.152
		c0.05,0,0.103-0.011,0.153-0.014c1.222-0.073,2.476-0.547,2.958-1.147l10.581-13.174l4.721,8.076
		c0.246,0.46,0.981,0.558,1.554,0.558c0.83,0,1.66-0.19,2.466-0.563l17.679-8.07l-4.389,5.465h-4.19
		c-1.311,0-2.801,0.527-3.321,1.174c-0.521,0.648,0.123,1.175,1.433,1.175h4.19l-4.284,5.333c-0.517,0.644,0.144,1.187,1.443,1.187
		c1.301,0,2.835-0.543,3.352-1.187l2.611-3.251c0.013-0.015,0.028-0.029,0.04-0.044l1.637-2.038h4.193
		c1.309,0,2.799-0.527,3.319-1.175C97.813,24.641,97.17,24.114,95.861,24.114z M50.154,31.092h-0.006l-1.095,1.363h-1.08
		c-0.513,0-0.77-0.189-0.974-0.443L35.131,16.976c-0.005-0.005-0.006-0.011-0.012-0.015c-0.043-0.033-0.119-0.054-0.223-0.054
		c-0.2,0-0.421,0.076-0.518,0.173c-0.006,0.006-0.017,0.012-0.022,0.018c-0.005,0.006-0.003,0.012-0.007,0.018l-11.822,14.72
		c-0.285,0.355-1.073,0.634-1.789,0.634c-0.716,0-1.056-0.279-0.771-0.634l13.351-16.623c0.285-0.355,1.145-0.659,1.861-0.659h0.408
		c0.564,0,0.85,0.152,1.025,0.38l11.602,14.721c0.004,0.024,0.021,0.044,0.048,0.061c0.045,0.028,0.114,0.047,0.209,0.047
		c0.21,0,0.446-0.083,0.534-0.187c0.001-0.002,0.004-0.003,0.005-0.005c0.001-0.002,0.001-0.003,0.002-0.005l11.57-14.405
		c0.285-0.355,1.073-0.634,1.789-0.634c0.212,0,0.617,0.001,1.077,0.003l-0.556,0.693h0.006L50.154,31.092z M94.381,25.957h-5.217
		l-2.044,2.545c-0.301,0.375-1.163,0.681-1.922,0.681c-0.758,0-1.128-0.306-0.827-0.681l2.044-2.545h-5.217
		c-0.747,0-1.112-0.3-0.816-0.669c0.296-0.368,1.143-0.668,1.89-0.668h5.217l2.043-2.544c0.302-0.376,1.164-0.682,1.922-0.682
		c0.759,0,1.129,0.306,0.827,0.682l-2.043,2.544h5.217c0.746,0,1.111,0.299,0.815,0.668C95.973,25.657,95.127,25.957,94.381,25.957z
		"/>
</g>
</svg>
