<?xml version="1.0" encoding="utf-8"?>
<!-- Generator: Adobe Illustrator 23.0.2, SVG Export Plug-In . SVG Version: 6.00 Build 0)  -->
<svg version="1.1" id="Capa_1" xmlns="http://www.w3.org/2000/svg" xmlns:xlink="http://www.w3.org/1999/xlink" x="0px" y="0px"
	 viewBox="0 0 512 512" style="enable-background:new 0 0 512 512;" xml:space="preserve">
<style type="text/css">
	.st0{fill:#E18A0D;}
	.st1{fill:#F1BE76;}
	.st2{fill:#95BCBC;}
	.st3{fill:#1AAAAC;}
	.st4{fill:url(#SVGID_1_);}
	.st5{fill:#FFFFFF;}
</style>
<rect x="360.75" y="449.96" class="st0" width="100.76" height="33.28"/>
<rect x="395.22" y="52.35" class="st1" width="33.5" height="399.62"/>
<rect x="397.33" y="27.55" class="st0" width="30.2" height="23.45"/>
<polygon class="st2" points="213.89,317.38 149.71,318.38 211.9,365.27 "/>
<polygon class="st0" points="394.13,317.72 147.72,317.05 148.05,293.11 393.46,293.11 "/>
<polygon class="st0" points="208.7,365.82 45.7,365.93 53.41,342.2 182.31,342.2 "/>
<polygon class="st0" points="44.14,104.44 146.72,104.44 146.07,125.06 53.61,125.06 "/>
<rect x="147.38" y="53.01" class="st0" width="245.42" height="24.62"/>
<polygon class="st3" points="148.06,127.5 53.68,127.5 94.91,235.91 53.01,340.99 173.99,340.99 145.71,315.72 "/>
<rect x="147.38" y="76.29" class="st3" width="245.42" height="215.83"/>
<path d="M345.4,487c-1.38,0-2.5-1.12-2.5-2.5s1.12-2.5,2.5-2.5h14.07v-30.63c0-1.38,1.12-2.5,2.5-2.5h30.63V319.92H215.37v47.25
	c0,0.09-0.02,0.18-0.03,0.27c-0.03,0.17-0.04,0.26-0.07,0.34l-0.02,0.09c-0.02,0.06-0.04,0.12-0.07,0.18l-0.05,0.11
	c-0.03,0.06-0.07,0.14-0.12,0.23c-0.14,0.22-0.28,0.39-0.43,0.54c-0.12,0.1-0.19,0.17-0.27,0.22l-0.08,0.06
	c-0.07,0.04-0.14,0.08-0.21,0.12l-0.02,0.01c-0.12,0.06-0.18,0.08-0.25,0.11c-0.14,0.05-0.21,0.07-0.27,0.08l-0.09,0.02
	c-0.07,0.01-0.27,0.04-0.27,0.04l-0.06,0.01c-0.06,0-0.12,0.01-0.19,0.01H44.07c-0.82,0-1.59-0.4-2.05-1.07
	c-0.47-0.68-0.57-1.54-0.29-2.3L91.1,234.59L41.73,102.93c-0.29-0.77-0.18-1.63,0.29-2.3c0.47-0.67,1.23-1.08,2.05-1.08H144.1v-47.2
	c0-1.38,1.12-2.5,2.5-2.5h246V27.5c0-1.38,1.12-2.5,2.5-2.5h33.13c1.38,0,2.5,1.12,2.5,2.5v421.37h30.63c1.38,0,2.5,1.12,2.5,2.5
	V482h14.07c1.38,0,2.5,1.12,2.5,2.5s-1.12,2.5-2.5,2.5H345.4z M364.47,482h94.4v-28.13h-94.4V482z M397.6,448.87h28.13V54.85H397.6
	v237.88V448.87z M47.67,364.62h157.69l-26.47-19.85H55.12L47.67,364.62z M210.37,362.12v-42.2H154.1L210.37,362.12z M96.11,233.71
	c0.21,0.57,0.21,1.19,0,1.76L56.99,339.77h115.24l-27.03-20.27c-0.06-0.05-0.22-0.18-0.22-0.18l-0.12-0.11l-0.19-0.2l-0.15-0.2
	l-0.12-0.19l-0.1-0.21l-0.09-0.23l-0.06-0.23l-0.04-0.22l-0.02-0.27l-0.01-0.18V129.4H56.99L96.11,233.71z M149.1,314.92h243.5
	v-19.85H149.1V314.92z M149.1,290.07h243.5V79.7H149.1v47.35V290.07z M55.12,124.4h88.98v-19.85H47.67L55.12,124.4z M149.1,74.7
	h243.5V54.85H149.1V74.7z M397.6,49.85h28.13V30H397.6V49.85z"/>
<radialGradient id="SVGID_1_" cx="255.4952" cy="141.3778" r="110.1889" gradientUnits="userSpaceOnUse">
	<stop  offset="0" style="stop-color:#BAE5E6"/>
	<stop  offset="1" style="stop-color:#1AAAAC"/>
</radialGradient>
<circle class="st4" cx="274.1" cy="185.46" r="94.52"/>
<g>
	<path class="st5" d="M318.27,233.42c-0.17,0.82,0.19,1.58,0.95,1.87c0.29,0.1,0.6,0.15,0.95,0.11c0.29-0.03,0.57-0.11,0.84-0.24
		l-0.03-3.88l0,0.09c-0.09,0-0.17-0.04-0.26-0.03C319.58,231.44,318.5,232.36,318.27,233.42z"/>
	<path class="st5" d="M320.41,223.53c-0.15,0.68,0.06,1.3,0.52,1.69l-0.02-2.67C320.68,222.85,320.49,223.17,320.41,223.53z"/>
	<path class="st5" d="M320.37,246.72c-0.16,0.7,0.12,1.32,0.73,1.61l0.01,0.97l-0.01-0.97l-0.02-2.76l-0.05-6.57l0.05,6.57
		C320.74,245.91,320.47,246.3,320.37,246.72z"/>
	<path class="st5" d="M319.33,251.12c-0.19,0.74,0.16,1.39,0.83,1.66c0.29,0.11,0.62,0.14,0.97,0.1l0,0.08l-0.03-3.66
		C320.24,249.64,319.5,250.35,319.33,251.12z"/>
	<path class="st5" d="M319.34,228.52c-0.19,0.85,0.21,1.62,0.98,1.92c0.2,0.08,0.43,0.08,0.65,0.09l-0.03-3.86
		C320.15,227.02,319.5,227.72,319.34,228.52z"/>
	<path class="st5" d="M317.2,238.2c-0.19,0.81,0.2,1.54,0.92,1.83c0.29,0.11,0.63,0.15,0.98,0.1c0.75-0.09,1.46-0.54,1.93-1.12
		l-0.02-2.51c-0.12-0.1-0.26-0.19-0.42-0.25c-0.27-0.11-0.6-0.15-0.96-0.11C318.51,236.26,317.44,237.16,317.2,238.2z"/>
	<path class="st5" d="M318.12,214.99c0.19,0.07,0.42,0.11,0.65,0.11c0.91,0.02,1.76-0.65,2.08-1.5l-0.01-1.43
		c-0.18-0.39-0.47-0.7-0.89-0.87c-0.21-0.07-0.42-0.11-0.63-0.13c-1.08-0.02-2.08,0.82-2.27,1.9
		C316.92,213.92,317.34,214.7,318.12,214.99z"/>
	<path class="st5" d="M320.02,90.68c-0.01,0.17-0.05,0.33-0.05,0.51v0.01C319.97,91.02,320.01,90.86,320.02,90.68z"/>
	<path class="st5" d="M316.08,269.01c0.2,0.08,0.43,0.09,0.67,0.1c0.45-0.38,0.9-0.77,1.29-1.21l0.58-0.67
		c0.26-0.29,0.44-0.64,0.67-0.96c-0.15-0.18-0.32-0.36-0.58-0.45c-0.31-0.12-0.67-0.17-1.06-0.12c-1.13,0.12-2.21,0.89-2.43,1.75
		C315.04,268.12,315.39,268.75,316.08,269.01z"/>
	<path class="st5" d="M318.09,261.16c0.32,0.14,0.68,0.17,1.07,0.11c0.81-0.1,1.57-0.57,2.02-1.16l-0.02-2.08
		c-0.13-0.11-0.28-0.19-0.45-0.26c-0.31-0.12-0.67-0.16-1.05-0.11c-1.13,0.17-2.18,1-2.42,1.92
		C317.08,260.27,317.4,260.9,318.09,261.16z"/>
	<path class="st5" d="M318.29,255.4c-0.16,0.73,0.15,1.37,0.84,1.63c0.31,0.12,0.67,0.16,1.06,0.11c0.34-0.05,0.66-0.18,0.97-0.35
		l-0.02-3.37c-0.15-0.01-0.29-0.01-0.45,0.02C319.56,253.61,318.52,254.48,318.29,255.4z"/>
	<path class="st5" d="M320.09,264.9c-0.11,0.25-0.23,0.5-0.36,0.74c0.06-0.11,0.16-0.2,0.22-0.31
		C320.01,265.2,320.03,265.04,320.09,264.9z"/>
	<path class="st5" d="M266.98,267.49l2.22,0.67c0,0,0,0,0,0c0.66-0.19,1.16-0.62,1.23-1.12c0.08-0.66-0.62-1.2-1.6-1.17
		c-0.98,0.01-1.85,0.59-1.92,1.26C266.9,267.26,266.94,267.37,266.98,267.49c-1.39-0.44-2.77-0.91-4.14-1.42
		C264.21,266.58,265.59,267.04,266.98,267.49z"/>
	<path class="st5" d="M280.27,271.04c0.37-0.2,0.64-0.48,0.69-0.79c0.13-0.58-0.53-1.05-1.48-1.01c-0.98,0.04-1.85,0.57-1.93,1.14
		L280.27,271.04L280.27,271.04z"/>
	<path class="st5" d="M295.13,271.67c-0.76,0.05-1.45,0.39-1.78,0.79l3.18,0.03C296.65,271.97,296.04,271.61,295.13,271.67z"/>
	<path class="st5" d="M307.57,271.89c0.13-0.5-0.13-0.95-0.66-1.16c-0.27-0.11-0.61-0.16-0.99-0.12c-1.05,0.07-2.03,0.67-2.22,1.35
		c-0.04,0.14-0.04,0.27-0.02,0.39l3.76-0.25C307.49,272.03,307.55,271.97,307.57,271.89z"/>
	<path class="st5" d="M301.99,272.21c0.11-0.38-0.1-0.71-0.53-0.89c-0.26-0.1-0.57-0.14-0.92-0.12c-0.97,0.07-1.88,0.6-2.03,1.18
		c-0.02,0.05-0.01,0.1-0.02,0.15l3.35-0.09C301.9,272.36,301.96,272.29,301.99,272.21z"/>
	<path class="st5" d="M316.36,269.48c-0.62,0.43-1.25,0.85-2.02,1.14c0.01,0,0.02-0.01,0.03-0.01
		C315.09,270.33,315.75,269.94,316.36,269.48z"/>
	<path class="st5" d="M310.69,269.49c0.31,0.12,0.68,0.17,1.07,0.12c1.16-0.09,2.21-0.82,2.44-1.68c0.19-0.67-0.14-1.3-0.84-1.55
		c-0.31-0.12-0.67-0.17-1.08-0.13c-1.13,0.12-2.2,0.87-2.44,1.71C309.68,268.62,309.99,269.23,310.69,269.49z"/>
	<path class="st5" d="M305.37,269.71c0.26,0.11,0.6,0.15,0.99,0.12c1.03-0.08,2.02-0.74,2.22-1.45c0.13-0.51-0.11-0.99-0.67-1.2
		c-0.28-0.11-0.62-0.14-0.98-0.11c-1.04,0.1-2.02,0.75-2.23,1.48C304.56,269.04,304.81,269.5,305.37,269.71z"/>
	<path class="st5" d="M300,269.97c0.25,0.1,0.57,0.14,0.92,0.12c0.97-0.09,1.88-0.65,2.05-1.28c0.11-0.4-0.11-0.76-0.55-0.93
		c-0.25-0.1-0.56-0.13-0.91-0.1c-0.96,0.09-1.87,0.68-2.04,1.3C299.35,269.47,299.55,269.8,300,269.97z"/>
	<path class="st5" d="M295.48,270.47c0.94-0.08,1.82-0.61,1.98-1.18c0.18-0.6-0.46-1.01-1.39-0.93c-0.95,0.09-1.83,0.65-1.99,1.22
		C293.92,270.15,294.54,270.54,295.48,270.47z"/>
	<path class="st5" d="M290.03,270.87c0.93-0.04,1.82-0.55,1.97-1.11c0.16-0.59-0.48-0.99-1.43-0.95c-0.95,0.04-1.84,0.55-1.99,1.13
		C288.44,270.51,289.08,270.92,290.03,270.87z"/>
	<path class="st5" d="M284.53,271.13c0.97-0.05,1.84-0.53,1.98-1.11c0.13-0.58-0.52-1.04-1.48-0.99c-0.95,0.03-1.83,0.55-1.95,1.14
		C282.94,270.75,283.6,271.18,284.53,271.13z"/>
	<path class="st5" d="M317.08,265.16c0.31,0.12,0.68,0.16,1.07,0.11c1.15-0.14,2.2-0.92,2.42-1.83c0.18-0.69-0.16-1.33-0.83-1.59
		c-0.31-0.12-0.69-0.15-1.07-0.1c-1.14,0.15-2.2,0.94-2.44,1.84C316.07,264.27,316.4,264.9,317.08,265.16z"/>
	<path class="st5" d="M315.24,264.09c0.16-0.68-0.16-1.31-0.84-1.58c-0.32-0.11-0.68-0.16-1.09-0.11c-1.13,0.13-2.21,0.92-2.44,1.81
		c-0.17,0.66,0.16,1.28,0.83,1.54c0.32,0.13,0.7,0.16,1.09,0.12C313.96,265.75,315.02,264.98,315.24,264.09z"/>
	<path class="st5" d="M309.6,264.63c0.15-0.53-0.09-1.03-0.67-1.23c-0.27-0.12-0.6-0.14-0.98-0.1c-1.05,0.12-2.02,0.81-2.22,1.56
		c-0.15,0.53,0.11,1.01,0.67,1.23c0.27,0.11,0.61,0.14,0.97,0.1C308.41,266.08,309.39,265.4,309.6,264.63z"/>
	<path class="st5" d="M303.97,265.17c0.12-0.42-0.1-0.8-0.55-0.98c-0.28-0.1-0.58-0.13-0.9-0.09c-0.98,0.11-1.9,0.72-2.09,1.4
		c-0.11,0.42,0.1,0.79,0.57,0.96c0.24,0.1,0.57,0.14,0.89,0.11C302.89,266.46,303.8,265.84,303.97,265.17z"/>
	<path class="st5" d="M298.44,265.73c0.16-0.64-0.48-1.08-1.43-0.98c-0.94,0.09-1.85,0.7-2.01,1.32c-0.16,0.63,0.47,1.06,1.42,0.96
		C297.36,266.94,298.26,266.37,298.44,265.73z"/>
	<path class="st5" d="M292.92,266.28c0.15-0.63-0.5-1.07-1.44-1.05c-0.97,0.03-1.89,0.59-2.04,1.21c-0.15,0.64,0.52,1.1,1.47,1.06
		C291.87,267.47,292.77,266.9,292.92,266.28z"/>
	<path class="st5" d="M287.32,266.52c0.16-0.62-0.51-1.11-1.49-1.1c-0.98,0.03-1.87,0.59-1.99,1.22c-0.14,0.63,0.53,1.1,1.48,1.06
		C286.29,267.67,287.16,267.15,287.32,266.52z"/>
	<path class="st5" d="M279.73,267.92c0.97-0.04,1.85-0.57,1.98-1.2c0.11-0.64-0.57-1.14-1.53-1.12c-0.98,0.03-1.86,0.58-1.99,1.23
		C278.08,267.45,278.76,267.94,279.73,267.92z"/>
	<path class="st5" d="M274.13,268.09c0.96-0.03,1.81-0.57,1.94-1.22c0.1-0.65-0.58-1.17-1.56-1.14c-0.99,0.03-1.85,0.58-1.96,1.25
		C272.46,267.63,273.16,268.12,274.13,268.09z"/>
	<path class="st5" d="M316.26,260.09c0.19-0.7-0.15-1.34-0.83-1.61c-0.31-0.12-0.68-0.15-1.08-0.1c-1.13,0.14-2.2,0.97-2.44,1.87
		c-0.18,0.7,0.15,1.32,0.84,1.6c0.31,0.11,0.68,0.14,1.09,0.09C314.97,261.82,316.02,261.01,316.26,260.09z"/>
	<path class="st5" d="M310.61,260.71c0.16-0.57-0.1-1.07-0.65-1.29c-0.29-0.1-0.63-0.13-0.99-0.08c-1.04,0.13-2.04,0.85-2.23,1.65
		c-0.15,0.56,0.12,1.05,0.69,1.27c0.25,0.1,0.59,0.15,0.96,0.1C309.45,262.23,310.43,261.5,310.61,260.71z"/>
	<path class="st5" d="M304.99,261.31c0.12-0.46-0.1-0.86-0.57-1.04c-0.25-0.1-0.56-0.13-0.88-0.1c-0.98,0.12-1.92,0.79-2.1,1.5
		c-0.1,0.46,0.11,0.85,0.58,1.02c0.24,0.1,0.55,0.12,0.88,0.09C303.89,262.67,304.81,262.03,304.99,261.31z"/>
	<path class="st5" d="M299.41,261.92c0.18-0.69-0.45-1.16-1.42-1.06c-0.96,0.11-1.88,0.75-2.04,1.42c-0.15,0.67,0.47,1.14,1.43,1.03
		C298.33,263.22,299.24,262.6,299.41,261.92z"/>
	<path class="st5" d="M293.85,262.51c0.17-0.67-0.48-1.16-1.45-1.14c-0.99,0.03-1.92,0.62-2.07,1.3c-0.16,0.68,0.51,1.19,1.49,1.16
		C292.78,263.79,293.69,263.19,293.85,262.51z"/>
	<path class="st5" d="M288.17,262.72c0.14-0.68-0.53-1.22-1.52-1.19c-0.96,0.01-1.89,0.6-2.02,1.28c-0.15,0.69,0.54,1.2,1.52,1.18
		C287.1,263.96,288.02,263.41,288.17,262.72z"/>
	<path class="st5" d="M282.46,262.86c0.14-0.7-0.57-1.25-1.55-1.23c-0.98,0.02-1.88,0.6-2.01,1.3c-0.12,0.69,0.56,1.24,1.55,1.21
		C281.42,264.11,282.33,263.55,282.46,262.86z"/>
	<path class="st5" d="M263.32,264.45c0.98-0.01,1.84-0.59,1.92-1.32c0.09-0.72-0.65-1.32-1.63-1.31c-0.99,0.01-1.84,0.61-1.94,1.35
		C261.59,263.89,262.34,264.46,263.32,264.45z"/>
	<path class="st5" d="M316.47,254.31c-0.3-0.12-0.68-0.15-1.08-0.1c-1.13,0.15-2.2,1-2.43,1.93c-0.19,0.72,0.14,1.36,0.84,1.64
		c0.3,0.11,0.68,0.15,1.09,0.09c1.13-0.15,2.19-0.99,2.42-1.92C317.48,255.23,317.14,254.57,316.47,254.31z"/>
	<path class="st5" d="M308.46,258.23c0.29,0.1,0.61,0.13,0.98,0.09c1.04-0.13,2.04-0.89,2.24-1.72c0.14-0.57-0.13-1.11-0.69-1.34
		c-0.28-0.1-0.6-0.14-0.95-0.08c-1.05,0.13-2.05,0.89-2.26,1.72C307.64,257.48,307.9,258,308.46,258.23z"/>
	<path class="st5" d="M303.04,258.69c0.26,0.09,0.56,0.13,0.89,0.08c0.97-0.11,1.91-0.8,2.1-1.55c0.12-0.49-0.11-0.92-0.59-1.11
		c-0.25-0.09-0.56-0.12-0.88-0.09c-0.98,0.13-1.93,0.83-2.11,1.57C302.33,258.09,302.56,258.49,303.04,258.69z"/>
	<path class="st5" d="M296.92,258.24c-0.17,0.72,0.46,1.22,1.43,1.11c0.97-0.11,1.89-0.76,2.06-1.49c0.17-0.72-0.47-1.23-1.44-1.12
		C298.01,256.83,297.09,257.52,296.92,258.24z"/>
	<path class="st5" d="M294.79,258.47c0.15-0.72-0.5-1.25-1.49-1.23c-0.99,0.02-1.91,0.63-2.09,1.36c-0.15,0.72,0.53,1.28,1.5,1.26
		C293.7,259.83,294.64,259.19,294.79,258.47z"/>
	<path class="st5" d="M289.05,258.64c0.15-0.73-0.53-1.32-1.52-1.31c-1.01,0-1.94,0.62-2.07,1.36c-0.16,0.73,0.54,1.31,1.52,1.27
		C287.96,259.96,288.89,259.37,289.05,258.64z"/>
	<path class="st5" d="M264.1,257.37c-1,0-1.9,0.63-1.96,1.41c-0.12,0.78,0.64,1.4,1.65,1.4c0.98,0.01,1.88-0.62,1.94-1.39
		C265.85,258.02,265.11,257.39,264.1,257.37z"/>
	<path class="st5" d="M258.27,257.32c-1-0.02-1.87,0.63-1.93,1.41c-0.09,0.8,0.68,1.43,1.65,1.45c1,0,1.87-0.63,1.95-1.41
		C260.01,257.99,259.27,257.33,258.27,257.32z"/>
	<path class="st5" d="M318.35,251.66c0.18-0.74-0.17-1.42-0.85-1.69c-0.31-0.12-0.67-0.15-1.06-0.1c-1.14,0.15-2.21,1.02-2.42,1.99
		c-0.18,0.74,0.14,1.39,0.84,1.67c0.32,0.11,0.68,0.15,1.07,0.1C317.07,253.48,318.13,252.6,318.35,251.66z"/>
	<path class="st5" d="M312.74,252.32c0.14-0.61-0.14-1.15-0.73-1.38c-0.26-0.1-0.57-0.14-0.91-0.11c-1.08,0.15-2.07,0.92-2.27,1.79
		c-0.15,0.61,0.14,1.15,0.71,1.37c0.28,0.1,0.6,0.14,0.95,0.09C311.55,253.96,312.51,253.19,312.74,252.32z"/>
	<path class="st5" d="M307.06,252.95c0.11-0.52-0.12-0.98-0.64-1.17c-0.23-0.1-0.54-0.12-0.85-0.09c-0.98,0.12-1.93,0.84-2.11,1.63
		c-0.11,0.51,0.12,0.96,0.62,1.17c0.25,0.08,0.54,0.11,0.87,0.07C305.93,254.45,306.88,253.72,307.06,252.95z"/>
	<path class="st5" d="M301.42,253.57c0.16-0.76-0.47-1.3-1.44-1.2c-0.98,0.1-1.91,0.8-2.07,1.57c-0.18,0.77,0.48,1.29,1.44,1.18
		C300.32,255.01,301.24,254.33,301.42,253.57z"/>
	<path class="st5" d="M292.15,254.26c-0.16,0.78,0.5,1.38,1.51,1.36c1,0,1.91-0.7,2.09-1.46c0.17-0.77-0.51-1.32-1.5-1.31
		C293.24,252.86,292.29,253.5,292.15,254.26z"/>
	<path class="st5" d="M286.29,254.32c-0.14,0.78,0.56,1.39,1.55,1.38c1,0,1.94-0.63,2.09-1.4c0.17-0.77-0.53-1.41-1.55-1.4
		C287.37,252.9,286.45,253.54,286.29,254.32z"/>
	<path class="st5" d="M284.07,254.32c0.16-0.78-0.56-1.42-1.58-1.43c-1.02,0-1.96,0.65-2.09,1.43c-0.13,0.78,0.58,1.42,1.59,1.41
		C282.98,255.73,283.94,255.1,284.07,254.32z"/>
	<path class="st5" d="M278.15,254.32c0.13-0.79-0.58-1.45-1.6-1.46c-1.03-0.01-1.96,0.65-2.08,1.44c-0.11,0.8,0.61,1.43,1.63,1.43
		C277.1,255.75,278.02,255.12,278.15,254.32z"/>
	<path class="st5" d="M270.19,255.71c1.02,0.01,1.93-0.63,2.04-1.43c0.13-0.81-0.62-1.48-1.63-1.5c-1.02-0.01-1.95,0.65-2.05,1.45
		C268.45,255.05,269.17,255.71,270.19,255.71z"/>
	<path class="st5" d="M264.65,252.68c-1.03-0.02-1.93,0.63-2.02,1.46c-0.09,0.81,0.65,1.49,1.66,1.51c1.02,0.01,1.92-0.63,2.01-1.44
		C266.41,253.39,265.68,252.7,264.65,252.68z"/>
	<path class="st5" d="M258.73,252.54c-1.02-0.03-1.9,0.64-1.98,1.48c-0.08,0.83,0.68,1.51,1.69,1.54c1,0.02,1.89-0.63,1.98-1.45
		C260.5,253.27,259.73,252.56,258.73,252.54z"/>
	<path class="st5" d="M319.41,247.24c0.17-0.75-0.16-1.45-0.86-1.72c-0.31-0.11-0.66-0.15-1.02-0.11c-1.15,0.16-2.22,1.05-2.46,2.05
		c-0.17,0.75,0.18,1.42,0.89,1.7c0.31,0.11,0.67,0.15,1.06,0.1C318.12,249.1,319.17,248.23,319.41,247.24z"/>
	<path class="st5" d="M313.8,247.89c0.14-0.65-0.15-1.21-0.76-1.44c-0.26-0.1-0.57-0.13-0.91-0.1c-1.05,0.12-2.06,0.93-2.25,1.82
		c-0.16,0.64,0.13,1.2,0.74,1.42c0.25,0.11,0.58,0.15,0.91,0.11C312.59,249.57,313.59,248.77,313.8,247.89z"/>
	<path class="st5" d="M308.12,248.48c0.12-0.55-0.13-1.02-0.68-1.22c-0.23-0.1-0.52-0.13-0.81-0.1c-1,0.11-1.95,0.85-2.13,1.67
		c-0.12,0.54,0.12,1.02,0.65,1.22c0.25,0.1,0.54,0.11,0.84,0.08C306.98,250.03,307.91,249.29,308.12,248.48z"/>
	<path class="st5" d="M302.43,249.07c0.17-0.8-0.47-1.38-1.45-1.28c-0.98,0.09-1.92,0.82-2.1,1.62c-0.15,0.8,0.49,1.36,1.46,1.26
		C301.33,250.57,302.25,249.87,302.43,249.07z"/>
	<path class="st5" d="M296.72,249.62c0.18-0.8-0.49-1.42-1.5-1.4c-1.01,0-1.98,0.67-2.13,1.48c-0.17,0.8,0.51,1.45,1.53,1.44
		C295.63,251.12,296.55,250.41,296.72,249.62z"/>
	<path class="st5" d="M290.86,249.69c0.15-0.8-0.55-1.48-1.57-1.49c-1.02,0-1.98,0.67-2.14,1.49c-0.14,0.83,0.56,1.48,1.57,1.47
		C289.75,251.17,290.69,250.51,290.86,249.69z"/>
	<path class="st5" d="M282.78,251.14c1.04,0.01,1.97-0.64,2.13-1.47c0.13-0.81-0.56-1.51-1.61-1.51c-1.04-0.01-1.97,0.66-2.12,1.48
		C281.03,250.48,281.76,251.14,282.78,251.14z"/>
	<path class="st5" d="M276.83,251.09c1.02,0.02,1.94-0.64,2.07-1.46c0.15-0.84-0.59-1.53-1.62-1.56c-1.03-0.01-1.97,0.64-2.1,1.49
		C275.07,250.39,275.8,251.08,276.83,251.09z"/>
	<path class="st5" d="M272.91,249.51c0.12-0.84-0.61-1.56-1.63-1.59c-1.05-0.02-1.97,0.65-2.1,1.51c-0.11,0.84,0.64,1.54,1.67,1.57
		C271.87,251.02,272.8,250.36,272.91,249.51z"/>
	<path class="st5" d="M265.24,247.75c-1.03-0.04-1.96,0.65-2.05,1.51c-0.12,0.87,0.64,1.58,1.67,1.6c1.03,0.02,1.94-0.63,2.05-1.5
		C267.03,248.51,266.28,247.79,265.24,247.75z"/>
	<path class="st5" d="M259.25,247.54c-1.02-0.04-1.94,0.65-2.03,1.52c-0.09,0.89,0.67,1.61,1.7,1.64c1.01,0.02,1.91-0.64,2.01-1.5
		C261.04,248.32,260.27,247.57,259.25,247.54z"/>
	<path class="st5" d="M253.3,247.28c-1.01-0.05-1.91,0.65-1.98,1.54c-0.07,0.89,0.68,1.63,1.68,1.68c1.02,0.04,1.89-0.65,1.99-1.53
		C255.08,248.1,254.32,247.32,253.3,247.28z"/>
	<path class="st5" d="M320.47,242.71c0.18-0.78-0.18-1.49-0.89-1.77c-0.31-0.11-0.65-0.14-1-0.1c-1.14,0.14-2.21,1.04-2.45,2.05
		c-0.17,0.77,0.17,1.47,0.89,1.76c0.29,0.12,0.65,0.17,1.03,0.1C319.18,244.61,320.23,243.7,320.47,242.71z"/>
	<path class="st5" d="M314.86,243.3c0.16-0.67-0.14-1.25-0.77-1.49c-0.27-0.1-0.56-0.14-0.87-0.11c-1.08,0.12-2.08,0.93-2.28,1.85
		c-0.15,0.66,0.14,1.25,0.76,1.49c0.26,0.1,0.58,0.14,0.9,0.1C313.66,245.03,314.64,244.22,314.86,243.3z"/>
	<path class="st5" d="M305.54,244.15c-0.14,0.6,0.12,1.1,0.67,1.3c0.25,0.09,0.52,0.13,0.81,0.1c1-0.11,1.94-0.86,2.12-1.7
		c0.15-0.59-0.12-1.08-0.68-1.3c-0.22-0.09-0.5-0.12-0.8-0.09C306.69,242.55,305.71,243.31,305.54,244.15z"/>
	<path class="st5" d="M303.46,244.37c0.18-0.82-0.49-1.44-1.48-1.35c-0.98,0.07-1.91,0.81-2.1,1.65c-0.18,0.85,0.49,1.44,1.47,1.36
		C302.35,245.94,303.29,245.19,303.46,244.37z"/>
	<path class="st5" d="M294.02,244.89c-0.16,0.84,0.52,1.53,1.54,1.53c1.03-0.01,1.96-0.74,2.13-1.58c0.16-0.83-0.51-1.47-1.53-1.47
		C295.15,243.36,294.18,244.05,294.02,244.89z"/>
	<path class="st5" d="M291.77,244.88c0.16-0.86-0.53-1.55-1.58-1.57c-1.03-0.01-2.01,0.68-2.16,1.53c-0.14,0.85,0.57,1.55,1.59,1.55
		C290.66,246.41,291.6,245.73,291.77,244.88z"/>
	<path class="st5" d="M285.76,244.8c0.15-0.85-0.58-1.57-1.61-1.59c-1.05-0.02-2.01,0.66-2.14,1.52c-0.16,0.87,0.58,1.58,1.61,1.59
		C284.66,246.34,285.62,245.66,285.76,244.8z"/>
	<path class="st5" d="M279.71,244.68c0.13-0.86-0.61-1.59-1.64-1.63c-1.05-0.03-2,0.66-2.15,1.54c-0.12,0.87,0.62,1.59,1.65,1.62
		C278.61,246.24,279.57,245.55,279.71,244.68z"/>
	<path class="st5" d="M271.52,246.04c1.04,0.04,1.98-0.64,2.11-1.53c0.14-0.89-0.62-1.62-1.67-1.68c-1.05-0.03-2,0.66-2.11,1.55
		C269.72,245.28,270.49,246.01,271.52,246.04z"/>
	<path class="st5" d="M265.88,242.6c-1.05-0.06-1.98,0.64-2.1,1.54c-0.1,0.91,0.66,1.65,1.69,1.69c1.04,0.03,1.97-0.65,2.08-1.53
		C267.67,243.41,266.92,242.64,265.88,242.6z"/>
	<path class="st5" d="M259.81,242.31c-1.03-0.05-1.94,0.65-2.05,1.56c-0.08,0.91,0.67,1.68,1.7,1.73c1.03,0.05,1.94-0.64,2.04-1.55
		C261.62,243.14,260.85,242.36,259.81,242.31z"/>
	<path class="st5" d="M253.81,241.98c-1.03-0.08-1.94,0.65-2.01,1.57c-0.1,0.93,0.67,1.72,1.69,1.77c1.02,0.05,1.93-0.65,2.01-1.56
		C255.6,242.83,254.83,242.03,253.81,241.98z"/>
	<path class="st5" d="M247.59,244.99c1.01,0.07,1.9-0.65,1.96-1.58c0.09-0.93-0.66-1.75-1.67-1.81c-1-0.08-1.91,0.65-1.98,1.59
		C245.84,244.13,246.59,244.94,247.59,244.99z"/>
	<path class="st5" d="M315.93,238.59c0.15-0.7-0.17-1.3-0.8-1.56c-0.26-0.1-0.55-0.13-0.85-0.11c-1.05,0.1-2.07,0.94-2.27,1.88
		c-0.15,0.7,0.15,1.3,0.79,1.55c0.26,0.1,0.54,0.15,0.87,0.11C314.73,240.36,315.72,239.53,315.93,238.59z"/>
	<path class="st5" d="M308.08,240.78c0.99-0.08,1.96-0.85,2.15-1.73c0.13-0.6-0.16-1.13-0.73-1.36c-0.24-0.08-0.49-0.12-0.78-0.1
		c-1,0.07-1.95,0.84-2.16,1.73c-0.11,0.6,0.16,1.14,0.75,1.35C307.54,240.77,307.8,240.81,308.08,240.78z"/>
	<path class="st5" d="M300.9,239.74c-0.19,0.86,0.48,1.51,1.48,1.44c0.97-0.07,1.92-0.82,2.11-1.69c0.17-0.86-0.48-1.5-1.48-1.44
		C302.02,238.1,301.07,238.87,300.9,239.74z"/>
	<path class="st5" d="M294.97,239.89c-0.16,0.88,0.53,1.59,1.56,1.6c1.02,0.01,1.97-0.74,2.15-1.62c0.17-0.87-0.51-1.55-1.53-1.56
		C296.12,238.29,295.14,239,294.97,239.89z"/>
	<path class="st5" d="M288.94,239.78c-0.15,0.89,0.57,1.62,1.59,1.63c1.05,0.02,2.01-0.67,2.16-1.56c0.17-0.89-0.53-1.62-1.59-1.65
		C290.07,238.19,289.1,238.9,288.94,239.78z"/>
	<path class="st5" d="M282.83,239.63c-0.14,0.9,0.57,1.65,1.64,1.67c1.04,0.04,2.02-0.67,2.17-1.57c0.15-0.89-0.57-1.65-1.62-1.68
		C283.96,238.02,282.99,238.72,282.83,239.63z"/>
	<path class="st5" d="M280.53,239.55c0.14-0.89-0.6-1.68-1.65-1.7c-1.06-0.06-2.03,0.66-2.17,1.57c-0.15,0.91,0.62,1.68,1.66,1.71
		C279.4,241.15,280.37,240.45,280.53,239.55z"/>
	<path class="st5" d="M274.39,239.31c0.14-0.91-0.64-1.69-1.69-1.74c-1.04-0.07-2.01,0.65-2.13,1.57c-0.12,0.93,0.62,1.7,1.67,1.75
		C273.3,240.93,274.24,240.24,274.39,239.31z"/>
	<path class="st5" d="M268.24,239.04c0.1-0.92-0.65-1.73-1.7-1.79c-1.05-0.06-2,0.65-2.12,1.58c-0.09,0.91,0.65,1.72,1.7,1.78
		C267.18,240.67,268.13,239.96,268.24,239.04z"/>
	<path class="st5" d="M260.42,236.87c-1.04-0.06-1.98,0.65-2.08,1.6c-0.12,0.95,0.66,1.75,1.7,1.81c1.05,0.06,1.98-0.64,2.08-1.59
		C262.24,237.75,261.49,236.94,260.42,236.87z"/>
	<path class="st5" d="M316.18,232.14c-0.25-0.09-0.53-0.13-0.81-0.1c-1.08,0.08-2.09,0.9-2.3,1.89c-0.14,0.72,0.16,1.35,0.84,1.61
		c0.23,0.11,0.53,0.13,0.83,0.09c1.04-0.07,2.05-0.9,2.26-1.87C317.17,233.04,316.82,232.41,316.18,232.14z"/>
	<path class="st5" d="M307.6,234.33c-0.12,0.63,0.19,1.19,0.78,1.44c0.23,0.08,0.48,0.12,0.74,0.1c0.99-0.07,1.96-0.84,2.16-1.74
		c0.13-0.64-0.17-1.21-0.77-1.43c-0.23-0.09-0.46-0.13-0.72-0.12C308.79,232.65,307.8,233.42,307.6,234.33z"/>
	<path class="st5" d="M301.89,234.63c-0.17,0.89,0.5,1.57,1.5,1.52c0.99-0.05,1.95-0.82,2.12-1.69c0.18-0.9-0.47-1.59-1.48-1.55
		C303.03,232.97,302.06,233.72,301.89,234.63z"/>
	<path class="st5" d="M295.94,234.69c-0.16,0.91,0.54,1.65,1.57,1.66c1.02,0.02,2.01-0.74,2.15-1.65c0.17-0.9-0.52-1.61-1.54-1.64
		C297.08,233.06,296.09,233.77,295.94,234.69z"/>
	<path class="st5" d="M289.84,234.56c-0.16,0.9,0.58,1.66,1.62,1.69c1.04,0.04,2.01-0.69,2.19-1.6c0.15-0.91-0.57-1.68-1.61-1.72
		C291,232.91,290.01,233.62,289.84,234.56z"/>
	<path class="st5" d="M283.7,234.33c-0.15,0.93,0.58,1.7,1.64,1.74c1.06,0.04,2.04-0.68,2.19-1.6c0.16-0.93-0.58-1.71-1.64-1.76
		C284.83,232.68,283.83,233.4,283.7,234.33z"/>
	<path class="st5" d="M281.34,234.23c0.16-0.93-0.59-1.74-1.66-1.79c-1.06-0.05-2.05,0.67-2.19,1.62c-0.14,0.93,0.61,1.73,1.68,1.77
		C280.23,235.89,281.2,235.17,281.34,234.23z"/>
	<path class="st5" d="M275.15,233.93c0.14-0.94-0.61-1.76-1.69-1.82c-1.08-0.06-2.04,0.67-2.15,1.61c-0.15,0.95,0.61,1.77,1.68,1.82
		C274.05,235.6,275.03,234.88,275.15,233.93z"/>
	<path class="st5" d="M268.96,233.59c0.12-0.95-0.65-1.8-1.71-1.87c-1.05-0.08-2.02,0.65-2.15,1.62c-0.12,0.96,0.65,1.79,1.71,1.85
		C267.86,235.26,268.82,234.54,268.96,233.59z"/>
	<path class="st5" d="M258.95,232.89c-0.1,0.98,0.67,1.83,1.7,1.9c1.06,0.07,2.01-0.65,2.13-1.62c0.12-0.97-0.65-1.83-1.69-1.92
		C260.02,231.18,259.09,231.91,258.95,232.89z"/>
	<path class="st5" d="M318.07,228.82c0.15-0.73-0.19-1.41-0.87-1.67c-0.23-0.09-0.5-0.12-0.77-0.12c-1.06,0.06-2.09,0.9-2.3,1.87
		c-0.14,0.76,0.18,1.42,0.87,1.7c0.25,0.09,0.51,0.12,0.8,0.09C316.85,230.62,317.87,229.81,318.07,228.82z"/>
	<path class="st5" d="M308.67,229.19c-0.14,0.67,0.17,1.27,0.78,1.52c0.21,0.08,0.48,0.12,0.73,0.09c1.01-0.03,1.96-0.82,2.16-1.72
		c0.13-0.66-0.18-1.26-0.8-1.51c-0.21-0.08-0.45-0.12-0.69-0.11C309.83,227.48,308.85,228.26,308.67,229.19z"/>
	<path class="st5" d="M302.91,229.36c-0.19,0.91,0.5,1.63,1.5,1.6c1-0.03,1.96-0.78,2.13-1.69c0.18-0.91-0.5-1.63-1.51-1.61
		C304.02,227.67,303.07,228.43,302.91,229.36z"/>
	<path class="st5" d="M296.9,229.33c-0.17,0.94,0.55,1.72,1.58,1.74c1.05,0.02,2.01-0.75,2.17-1.68c0.18-0.93-0.51-1.7-1.57-1.71
		C298.04,227.65,297.06,228.4,296.9,229.33z"/>
	<path class="st5" d="M292.97,227.49c-1.06-0.05-2.04,0.69-2.19,1.64c-0.16,0.95,0.56,1.74,1.61,1.76c1.05,0.04,2.04-0.68,2.21-1.62
		C294.76,228.33,294.04,227.53,292.97,227.49z"/>
	<path class="st5" d="M284.57,228.87c-0.15,0.95,0.59,1.76,1.65,1.81c1.08,0.04,2.06-0.69,2.21-1.63c0.16-0.96-0.58-1.77-1.65-1.83
		C285.71,227.18,284.72,227.91,284.57,228.87z"/>
	<path class="st5" d="M282.2,228.74c0.15-0.95-0.59-1.79-1.67-1.84c-1.08-0.07-2.06,0.66-2.19,1.62c-0.15,0.97,0.61,1.79,1.66,1.86
		C281.08,230.44,282.04,229.71,282.2,228.74z"/>
	<path class="st5" d="M272.07,228.13c-0.14,0.98,0.63,1.82,1.71,1.89c1.05,0.06,2.05-0.65,2.18-1.62c0.13-0.98-0.61-1.83-1.7-1.9
		C273.19,226.42,272.2,227.15,272.07,228.13z"/>
	<path class="st5" d="M267.52,229.59c1.08,0.08,2.05-0.66,2.17-1.63c0.13-0.99-0.62-1.85-1.71-1.94c-1.07-0.07-2.04,0.66-2.17,1.65
		C265.7,228.65,266.46,229.52,267.52,229.59z"/>
	<path class="st5" d="M319.16,223.78c0.14-0.76-0.2-1.46-0.92-1.74c-0.23-0.08-0.48-0.11-0.73-0.13c-1.07,0.04-2.11,0.87-2.31,1.87
		c-0.15,0.77,0.21,1.47,0.92,1.74c0.23,0.09,0.47,0.14,0.75,0.13C317.93,225.6,318.93,224.79,319.16,223.78z"/>
	<path class="st5" d="M312.54,222.31c-0.21-0.08-0.42-0.11-0.65-0.11c-1.02,0-1.99,0.77-2.18,1.72c-0.15,0.72,0.2,1.33,0.85,1.58
		c0.21,0.09,0.42,0.13,0.67,0.11c1-0.01,1.98-0.8,2.17-1.72C313.53,223.19,313.21,222.58,312.54,222.31z"/>
	<path class="st5" d="M306.05,222.24c-1.02,0-1.98,0.75-2.18,1.71c-0.15,0.94,0.53,1.69,1.54,1.69c1.02-0.02,1.97-0.77,2.15-1.69
		C307.75,223.02,307.08,222.26,306.05,222.24z"/>
	<path class="st5" d="M300.06,222.13c-1.06-0.02-2.05,0.73-2.21,1.68c-0.15,0.97,0.55,1.77,1.6,1.78c1.04,0.03,2.02-0.72,2.18-1.68
		C301.8,222.97,301.12,222.16,300.06,222.13z"/>
	<path class="st5" d="M291.7,223.57c-0.16,0.97,0.57,1.8,1.64,1.83c1.06,0.05,2.05-0.7,2.2-1.66c0.17-0.95-0.57-1.77-1.63-1.82
		C292.87,221.85,291.87,222.61,291.7,223.57z"/>
	<path class="st5" d="M287.68,221.59c-1.08-0.06-2.08,0.69-2.22,1.66c-0.17,0.98,0.57,1.82,1.65,1.88c1.07,0.06,2.07-0.7,2.23-1.67
		C289.51,222.49,288.77,221.65,287.68,221.59z"/>
	<path class="st5" d="M281.38,221.18c-1.08-0.06-2.07,0.68-2.23,1.68c-0.15,0.99,0.62,1.85,1.69,1.92c1.1,0.06,2.07-0.68,2.23-1.66
		C283.24,222.12,282.48,221.27,281.38,221.18z"/>
	<path class="st5" d="M276.78,222.68c0.14-0.99-0.63-1.86-1.7-1.95c-1.09-0.08-2.08,0.67-2.22,1.66c-0.14,1.01,0.6,1.87,1.69,1.96
		C275.65,224.42,276.63,223.68,276.78,222.68z"/>
	<path class="st5" d="M320.12,218.58c0.14-0.81-0.27-1.56-1.01-1.84c-0.23-0.08-0.44-0.14-0.67-0.12c-1.08-0.01-2.08,0.85-2.26,1.9
		c-0.13,0.83,0.28,1.58,1.03,1.85c0.2,0.09,0.44,0.13,0.68,0.13C318.97,220.47,319.95,219.64,320.12,218.58z"/>
	<path class="st5" d="M311.63,220.2c0.19,0.07,0.4,0.12,0.63,0.11c1.02,0,1.96-0.79,2.13-1.75c0.12-0.75-0.25-1.44-0.93-1.7
		c-0.19-0.07-0.41-0.1-0.62-0.11c-1.02,0-1.97,0.77-2.16,1.76C310.57,219.26,310.93,219.94,311.63,220.2z"/>
	<path class="st5" d="M306.42,220.19c1.02,0.02,1.97-0.75,2.14-1.71c0.15-0.95-0.54-1.77-1.55-1.8c-1.01-0.03-1.98,0.74-2.15,1.7
		C304.7,219.36,305.41,220.17,306.42,220.19z"/>
	<path class="st5" d="M300.4,220.03c1.06,0.03,2.03-0.73,2.2-1.72c0.17-0.97-0.53-1.8-1.58-1.85c-1.05-0.05-2.04,0.71-2.2,1.7
		C298.64,219.16,299.37,219.99,300.4,220.03z"/>
	<path class="st5" d="M312.57,214.7c0.19,0.07,0.38,0.11,0.6,0.12c0.99,0.02,1.95-0.76,2.1-1.74c0.12-0.78-0.26-1.49-0.96-1.76
		c-0.19-0.06-0.38-0.1-0.57-0.12c-1.01-0.03-1.99,0.76-2.14,1.75C311.49,213.72,311.87,214.43,312.57,214.7z"/>
	<path class="st5" d="M307.35,214.58c1.03,0.03,1.97-0.73,2.14-1.7c0.14-0.98-0.52-1.81-1.54-1.86c-1.02-0.05-1.96,0.71-2.13,1.7
		C305.65,213.7,306.35,214.54,307.35,214.58z"/>
	<path class="st5" d="M301.37,214.31c1.05,0.06,2-0.71,2.19-1.71c0.16-0.99-0.55-1.85-1.58-1.92c-1.06-0.07-2.05,0.69-2.19,1.7
		C299.6,213.39,300.31,214.25,301.37,214.31z"/>
	<path class="st5" d="M313.5,209.18c0.17,0.08,0.36,0.12,0.56,0.12c1.03,0.06,2.01-0.74,2.17-1.77c0.12-0.84-0.29-1.6-1.06-1.89
		c-0.15-0.07-0.35-0.1-0.53-0.11c-1.04-0.07-2.03,0.73-2.2,1.77C312.3,208.14,312.73,208.9,313.5,209.18z"/>
	<path class="st5" d="M308.29,208.87c1,0.06,1.95-0.71,2.11-1.69c0.16-0.99-0.52-1.84-1.54-1.91c-0.99-0.07-1.96,0.69-2.11,1.69
		C306.6,207.96,307.29,208.82,308.29,208.87z"/>
	<path class="st5" d="M302.34,208.49c1.04,0.08,2.03-0.69,2.17-1.69c0.16-1.01-0.54-1.89-1.59-1.98c-1.05-0.1-2.04,0.67-2.2,1.68
		C300.55,207.53,301.28,208.41,302.34,208.49z"/>
	<path class="st5" d="M289.88,207.47c1.06,0.09,2.07-0.67,2.24-1.72c0.15-1.04-0.59-1.97-1.68-2.09c-1.08-0.11-2.1,0.66-2.26,1.72
		C288.03,206.44,288.78,207.38,289.88,207.47z"/>
	<path class="st5" d="M283.52,206.88c1.1,0.11,2.11-0.67,2.27-1.73c0.14-1.06-0.6-2.02-1.7-2.13c-1.1-0.12-2.11,0.66-2.27,1.73
		C281.66,205.81,282.42,206.77,283.52,206.88z"/>
	<path class="st5" d="M264.46,204.8c1.07,0.13,2.07-0.65,2.22-1.74c0.15-1.09-0.6-2.1-1.67-2.24c-1.09-0.13-2.09,0.66-2.23,1.76
		C262.63,203.68,263.37,204.67,264.46,204.8z"/>
	<path class="st5" d="M252.1,203.22c1.03,0.13,2-0.63,2.15-1.74c0.15-1.11-0.6-2.14-1.63-2.28c-1.04-0.13-2,0.65-2.15,1.77
		C250.33,202.08,251.07,203.08,252.1,203.22z"/>
	<path class="st5" d="M309.22,203.09c1,0.08,1.93-0.65,2.08-1.65c0.14-1-0.53-1.87-1.52-1.98c-0.99-0.09-1.95,0.64-2.09,1.65
		C307.52,202.14,308.21,203.02,309.22,203.09z"/>
	<path class="st5" d="M303.26,202.6c1.06,0.1,2.02-0.65,2.17-1.67c0.16-1.01-0.54-1.93-1.58-2.03c-1.06-0.11-2.05,0.63-2.21,1.66
		C301.48,201.59,302.21,202.52,303.26,202.6z"/>
	<path class="st5" d="M297.07,202.02c1.1,0.09,2.09-0.66,2.24-1.7c0.15-1.04-0.59-1.97-1.67-2.08c-1.07-0.13-2.07,0.64-2.21,1.68
		C295.26,200.98,296.01,201.9,297.07,202.02z"/>
	<path class="st5" d="M290.81,201.37c1.07,0.12,2.1-0.66,2.24-1.7c0.16-1.05-0.59-2.01-1.67-2.13c-1.08-0.11-2.1,0.64-2.28,1.7
		C288.96,200.31,289.71,201.25,290.81,201.37z"/>
	<path class="st5" d="M284.44,200.7c1.09,0.11,2.12-0.66,2.27-1.73c0.16-1.07-0.6-2.04-1.7-2.17c-1.11-0.12-2.12,0.64-2.27,1.72
		C282.59,199.6,283.35,200.57,284.44,200.7z"/>
	<path class="st5" d="M265.34,198.43c1.09,0.13,2.08-0.64,2.25-1.76c0.14-1.1-0.62-2.11-1.69-2.26c-1.09-0.14-2.08,0.64-2.25,1.76
		C263.51,197.28,264.26,198.29,265.34,198.43z"/>
	<path class="st5" d="M291.71,195.22c1.08,0.14,2.09-0.62,2.25-1.68c0.16-1.07-0.59-2.04-1.68-2.18c-1.07-0.15-2.09,0.62-2.25,1.68
		C289.88,194.12,290.61,195.1,291.71,195.22z"/>
	<path class="st5" d="M285.36,194.45c1.1,0.13,2.11-0.63,2.27-1.71c0.15-1.08-0.62-2.06-1.68-2.21c-1.11-0.15-2.13,0.62-2.3,1.7
		C283.5,193.32,284.26,194.32,285.36,194.45z"/>
	<path class="st5" d="M279.56,189.68c-1.11-0.13-2.14,0.63-2.3,1.73c-0.16,1.09,0.6,2.1,1.7,2.24c1.09,0.13,2.13-0.64,2.27-1.73
		C281.4,190.84,280.64,189.83,279.56,189.68z"/>
	<path class="st5" d="M278.19,185.03c-0.16,1.11,0.6,2.12,1.69,2.28c1.09,0.15,2.12-0.61,2.28-1.72c0.14-1.1-0.6-2.12-1.7-2.27
		C279.38,183.16,278.36,183.91,278.19,185.03z"/>
	<path class="st5" d="M263.63,182.97c0.17-1.2-0.47-2.36-1.57-2.78c-0.17-0.06-0.35-0.1-0.52-0.14c-0.65-0.09-1.31,0.09-1.86,0.51
		c-0.51,0.41-0.86,1.02-0.95,1.69c-0.17,1.21,0.47,2.35,1.56,2.77c0.15,0.06,0.34,0.1,0.52,0.14
		C262.16,185.36,263.43,184.38,263.63,182.97z"/>
	<path class="st5" d="M257.18,182.04c0.17-1.07-0.42-2.13-1.38-2.5c-0.13-0.06-0.3-0.08-0.45-0.11c-0.54-0.09-1.11,0.06-1.56,0.4
		c-0.5,0.36-0.85,0.95-0.93,1.59c-0.16,1.08,0.44,2.12,1.38,2.49c0.13,0.06,0.29,0.09,0.45,0.12
		C255.88,184.2,256.99,183.31,257.18,182.04z"/>
	<path class="st5" d="M250.88,181.12c0.17-1.13-0.51-2.16-1.49-2.31c-1-0.14-1.91,0.66-2.08,1.79c-0.17,1.13,0.49,2.16,1.48,2.31
		C249.78,183.05,250.72,182.26,250.88,181.12z"/>
	<path class="st5" d="M243.14,182.07c0.95,0.15,1.87-0.66,2.03-1.77c0.16-1.13-0.49-2.16-1.44-2.31c-0.95-0.14-1.85,0.67-2,1.8
		C241.55,180.91,242.19,181.93,243.14,182.07z"/>
	<path class="st5" d="M237.72,181.25c0.92,0.14,1.79-0.65,1.96-1.79c0.16-1.12-0.46-2.13-1.37-2.27c-0.92-0.13-1.76,0.66-1.94,1.79
		C236.21,180.1,236.81,181.11,237.72,181.25z"/>
	<path class="st5" d="M275.65,175.6c-0.19-0.07-0.36-0.12-0.54-0.15c-0.66-0.1-1.32,0.07-1.85,0.48c-0.56,0.4-0.93,1.01-1.02,1.69
		c-0.18,1.18,0.49,2.33,1.58,2.76c0.17,0.07,0.37,0.11,0.55,0.14c0.66,0.1,1.34-0.08,1.87-0.48c0.54-0.4,0.9-1,0.98-1.68
		C277.41,177.18,276.72,176.02,275.65,175.6z"/>
	<path class="st5" d="M270.88,177.4c0.17-1.18-0.5-2.36-1.59-2.78c-0.16-0.07-0.34-0.11-0.52-0.13c-0.66-0.1-1.3,0.06-1.83,0.46
		c-0.56,0.41-0.94,1.02-1.03,1.73c-0.18,1.16,0.48,2.34,1.57,2.76c0.17,0.07,0.36,0.11,0.54,0.13
		C269.38,179.78,270.67,178.8,270.88,177.4z"/>
	<path class="st5" d="M261.23,178.51c0.18,0.07,0.34,0.12,0.53,0.13c1.35,0.2,2.62-0.77,2.81-2.18c0.2-1.2-0.48-2.36-1.56-2.79
		c-0.16-0.07-0.34-0.1-0.51-0.13c-0.64-0.09-1.27,0.07-1.79,0.46c-0.57,0.41-0.94,1.03-1.04,1.75
		C259.5,176.94,260.16,178.1,261.23,178.51z"/>
	<path class="st5" d="M255.18,177.37c0.14,0.07,0.31,0.09,0.45,0.12c1.2,0.18,2.3-0.71,2.5-1.98c0.17-1.09-0.41-2.14-1.37-2.51
		c-0.13-0.05-0.29-0.09-0.46-0.1c-1.18-0.19-2.3,0.71-2.48,1.97C253.66,175.96,254.24,177,255.18,177.37z"/>
	<path class="st5" d="M249.74,176.36c0.99,0.15,1.94-0.65,2.08-1.77c0.17-1.14-0.49-2.17-1.48-2.31c-0.99-0.15-1.91,0.65-2.1,1.79
		C248.09,175.2,248.75,176.22,249.74,176.36z"/>
	<path class="st5" d="M246.11,173.77c0.17-1.13-0.46-2.17-1.42-2.3c-0.96-0.13-1.85,0.67-2.02,1.8c-0.17,1.12,0.46,2.14,1.42,2.28
		C245.04,175.68,245.96,174.88,246.11,173.77z"/>
	<path class="st5" d="M240.62,172.97c0.17-1.12-0.46-2.14-1.35-2.28c-0.91-0.12-1.78,0.68-1.95,1.81c-0.15,1.11,0.44,2.13,1.33,2.26
		C239.56,174.9,240.45,174.09,240.62,172.97z"/>
	<path class="st5" d="M233.49,174c0.87,0.14,1.7-0.67,1.88-1.78c0.17-1.12-0.42-2.13-1.28-2.24c-0.87-0.12-1.69,0.68-1.86,1.8
		C232.07,172.89,232.63,173.88,233.49,174z"/>
	<path class="st5" d="M262.22,172c0.15,0.06,0.32,0.11,0.48,0.14c0.65,0.09,1.3-0.07,1.83-0.46c0.55-0.41,0.92-1.02,1.01-1.71
		c0.2-1.21-0.47-2.36-1.56-2.8c-0.15-0.05-0.34-0.1-0.51-0.12c-0.63-0.1-1.27,0.06-1.8,0.45c-0.55,0.41-0.93,1.03-1.02,1.72
		C260.48,170.41,261.13,171.59,262.22,172z"/>
	<path class="st5" d="M259.11,169c0.17-1.08-0.42-2.13-1.38-2.5c-0.14-0.05-0.28-0.09-0.43-0.12c-1.18-0.18-2.32,0.7-2.5,1.97
		c-0.18,1.08,0.4,2.13,1.35,2.5c0.15,0.05,0.29,0.09,0.44,0.12C257.8,171.13,258.9,170.26,259.11,169z"/>
	<path class="st5" d="M252.82,168.05c0.18-1.12-0.5-2.14-1.48-2.28c-0.99-0.14-1.93,0.66-2.1,1.77c-0.17,1.13,0.48,2.15,1.47,2.29
		C251.7,169.97,252.64,169.17,252.82,168.05z"/>
	<path class="st5" d="M245.05,169.03c0.95,0.14,1.87-0.67,2.04-1.79c0.17-1.13-0.46-2.15-1.42-2.27c-0.96-0.13-1.85,0.67-2.02,1.78
		C243.49,167.87,244.11,168.9,245.05,169.03z"/>
	<path class="st5" d="M241.6,166.47c0.15-1.11-0.45-2.13-1.38-2.25c-0.91-0.12-1.78,0.7-1.94,1.8c-0.16,1.11,0.42,2.12,1.34,2.25
		C240.54,168.4,241.42,167.58,241.6,166.47z"/>
	<path class="st5" d="M236.33,165.76c0.16-1.1-0.41-2.11-1.29-2.22c-0.86-0.11-1.68,0.69-1.84,1.8c-0.17,1.12,0.36,2.1,1.23,2.23
		C235.31,167.67,236.16,166.88,236.33,165.76z"/>
	<path class="st5" d="M229.55,166.92c0.8,0.1,1.63-0.7,1.79-1.81c0.16-1.1-0.36-2.09-1.18-2.19c-0.83-0.09-1.6,0.71-1.78,1.81
		C228.23,165.83,228.72,166.81,229.55,166.92z"/>
	<path class="st5" d="M224.99,166.33c0.75,0.09,1.52-0.72,1.66-1.81c0.17-1.09-0.33-2.06-1.07-2.14c-0.76-0.08-1.48,0.72-1.65,1.82
		C223.78,165.27,224.23,166.23,224.99,166.33z"/>
	<path class="st5" d="M271.21,161.75c-0.15-0.07-0.32-0.11-0.49-0.13c-0.66-0.1-1.31,0.05-1.84,0.43c-0.55,0.4-0.92,0.99-1.02,1.69
		c-0.19,1.19,0.47,2.36,1.57,2.79c0.16,0.06,0.32,0.1,0.49,0.13c0.66,0.11,1.32-0.06,1.86-0.44c0.53-0.4,0.9-1,1.01-1.69
		C272.98,163.34,272.3,162.18,271.21,161.75z"/>
	<path class="st5" d="M264.99,160.73c-0.18-0.05-0.34-0.1-0.51-0.12c-0.63-0.11-1.28,0.05-1.8,0.43c-0.55,0.42-0.92,1.02-1.04,1.72
		c-0.17,1.19,0.48,2.37,1.55,2.79c0.17,0.06,0.34,0.1,0.5,0.13c0.65,0.1,1.29-0.06,1.82-0.44c0.56-0.41,0.93-1.03,1.02-1.71
		C266.72,162.32,266.06,161.15,264.99,160.73z"/>
	<path class="st5" d="M257.16,164.34c0.15,0.06,0.3,0.09,0.44,0.13c1.18,0.18,2.32-0.7,2.53-1.96c0.15-1.07-0.42-2.11-1.38-2.49
		c-0.14-0.05-0.29-0.09-0.44-0.12c-1.16-0.18-2.3,0.7-2.5,1.96C255.66,162.93,256.22,163.98,257.16,164.34z"/>
	<path class="st5" d="M253.83,161.55c0.18-1.12-0.48-2.14-1.48-2.27c-0.99-0.15-1.92,0.65-2.08,1.75c-0.2,1.13,0.46,2.15,1.46,2.28
		C252.7,163.47,253.67,162.68,253.83,161.55z"/>
	<path class="st5" d="M248.12,160.75c0.17-1.12-0.47-2.14-1.43-2.27c-0.95-0.13-1.86,0.67-2.04,1.79c-0.18,1.11,0.45,2.12,1.4,2.25
		C247.02,162.66,247.92,161.86,248.12,160.75z"/>
	<path class="st5" d="M242.58,160c0.18-1.11-0.42-2.12-1.36-2.22c-0.91-0.12-1.78,0.68-1.94,1.79c-0.18,1.11,0.41,2.11,1.31,2.22
		C241.52,161.91,242.43,161.11,242.58,160z"/>
	<path class="st5" d="M235.42,161.13c0.86,0.11,1.7-0.7,1.88-1.81c0.18-1.11-0.41-2.09-1.28-2.19c-0.87-0.1-1.7,0.71-1.86,1.8
		C233.99,160.04,234.55,161.02,235.42,161.13z"/>
	<path class="st5" d="M232.29,158.71c0.17-1.08-0.38-2.06-1.2-2.15c-0.8-0.1-1.59,0.73-1.75,1.82c-0.17,1.1,0.34,2.06,1.16,2.15
		C231.33,160.63,232.13,159.82,232.29,158.71z"/>
	<path class="st5" d="M227.61,158.19c0.17-1.1-0.34-2.04-1.09-2.12c-0.77-0.08-1.5,0.74-1.67,1.82c-0.15,1.09,0.32,2.03,1.07,2.11
		C226.69,160.1,227.45,159.28,227.61,158.19z"/>
	<path class="st5" d="M273.77,158.16c0.18-1.18-0.49-2.35-1.57-2.79c-0.17-0.05-0.32-0.1-0.5-0.12c-0.64-0.13-1.31,0.04-1.83,0.41
		c-0.56,0.41-0.91,0.99-1.01,1.67c-0.21,1.19,0.47,2.35,1.57,2.78c0.15,0.07,0.32,0.12,0.49,0.13c0.64,0.12,1.31-0.04,1.85-0.42
		C273.31,159.42,273.66,158.83,273.77,158.16z"/>
	<path class="st5" d="M267.54,157.1c0.17-1.18-0.48-2.35-1.57-2.77c-0.15-0.06-0.31-0.11-0.48-0.13c-0.64-0.11-1.25,0.04-1.8,0.43
		c-0.56,0.41-0.92,0.99-1.04,1.69c-0.17,1.19,0.48,2.35,1.57,2.77c0.15,0.06,0.29,0.11,0.47,0.13c0.65,0.11,1.29-0.06,1.82-0.43
		C267.07,158.4,267.43,157.8,267.54,157.1z"/>
	<path class="st5" d="M259.77,153.61c-0.14-0.07-0.28-0.09-0.42-0.12c-1.18-0.19-2.3,0.69-2.5,1.92c-0.19,1.08,0.39,2.12,1.35,2.48
		c0.13,0.05,0.27,0.09,0.41,0.12c1.18,0.19,2.32-0.68,2.51-1.92C261.3,155.01,260.74,153.97,259.77,153.61z"/>
	<path class="st5" d="M252.75,156.86c0.98,0.15,1.95-0.64,2.13-1.75c0.18-1.1-0.48-2.11-1.48-2.26c-1.01-0.14-1.94,0.64-2.11,1.76
		C251.11,155.72,251.74,156.73,252.75,156.86z"/>
	<path class="st5" d="M249.13,154.31c0.17-1.11-0.46-2.11-1.42-2.24c-0.97-0.13-1.87,0.67-2.05,1.77c-0.17,1.1,0.44,2.11,1.39,2.25
		C248.03,156.2,248.96,155.42,249.13,154.31z"/>
	<path class="st5" d="M241.61,155.36c0.93,0.12,1.81-0.68,1.99-1.79c0.18-1.1-0.41-2.09-1.34-2.21c-0.93-0.11-1.8,0.7-1.98,1.8
		C240.1,154.25,240.7,155.25,241.61,155.36z"/>
	<path class="st5" d="M238.31,152.91c0.17-1.09-0.4-2.07-1.28-2.16c-0.88-0.1-1.69,0.7-1.88,1.8c-0.17,1.1,0.39,2.07,1.25,2.17
		C237.27,154.83,238.13,154.02,238.31,152.91z"/>
	<path class="st5" d="M231.49,154.17c0.81,0.09,1.64-0.72,1.8-1.82c0.18-1.1-0.38-2.06-1.22-2.14c-0.79-0.09-1.59,0.73-1.75,1.83
		C230.14,153.14,230.66,154.08,231.49,154.17z"/>
	<path class="st5" d="M228.57,151.88c0.17-1.08-0.32-2.02-1.08-2.09c-0.76-0.07-1.5,0.76-1.66,1.84c-0.15,1.07,0.3,2.01,1.06,2.08
		C227.64,153.77,228.4,152.97,228.57,151.88z"/>
	<path class="st5" d="M222.63,153.36c0.69,0.05,1.41-0.77,1.57-1.85c0.16-1.08-0.28-1.99-0.99-2.04c-0.68-0.05-1.37,0.78-1.54,1.85
		C221.52,152.39,221.95,153.3,222.63,153.36z"/>
	<path class="st5" d="M218.79,153.09c0.61,0.04,1.28-0.79,1.44-1.85c0.15-1.06-0.25-1.96-0.87-1.98c-0.62-0.03-1.26,0.82-1.4,1.86
		C217.81,152.18,218.17,153.06,218.79,153.09z"/>
	<path class="st5" d="M215.94,149.15c-0.57,0-1.11,0.84-1.25,1.88c-0.15,1.03,0.14,1.88,0.7,1.9c0.55,0.02,1.13-0.82,1.31-1.86
		C216.81,150.03,216.48,149.16,215.94,149.15z"/>
	<path class="st5" d="M269.84,151.02c-0.2,1.18,0.49,2.34,1.57,2.77c0.16,0.06,0.31,0.1,0.48,0.12c0.66,0.12,1.31-0.03,1.85-0.42
		c0.55-0.38,0.89-0.96,1-1.62c0.19-1.18-0.47-2.35-1.59-2.77c-0.14-0.05-0.3-0.1-0.45-0.13c-0.64-0.12-1.31,0.03-1.85,0.41
		C270.32,149.75,269.94,150.34,269.84,151.02z"/>
	<path class="st5" d="M268.55,150.78c0.19-1.17-0.46-2.35-1.55-2.76c-0.16-0.06-0.32-0.1-0.48-0.13c-0.63-0.11-1.28,0.04-1.8,0.41
		c-0.56,0.41-0.92,1-1.04,1.67c-0.19,1.18,0.46,2.34,1.56,2.77c0.15,0.05,0.31,0.1,0.48,0.12c0.63,0.11,1.28-0.05,1.82-0.43
		C268.08,152.04,268.44,151.45,268.55,150.78z"/>
	<path class="st5" d="M260.82,147.26c-0.13-0.05-0.28-0.09-0.42-0.11c-1.16-0.19-2.29,0.66-2.48,1.9c-0.19,1.05,0.37,2.08,1.32,2.46
		c0.13,0.05,0.28,0.09,0.41,0.12c1.2,0.18,2.31-0.66,2.52-1.89C262.34,148.68,261.78,147.63,260.82,147.26z"/>
	<path class="st5" d="M255.94,148.74c0.17-1.09-0.49-2.09-1.48-2.23c-1-0.15-1.94,0.62-2.14,1.72c-0.19,1.1,0.47,2.09,1.47,2.24
		C254.78,150.6,255.75,149.84,255.94,148.74z"/>
	<path class="st5" d="M246.7,147.47c-0.18,1.09,0.45,2.08,1.42,2.21c0.95,0.13,1.89-0.66,2.07-1.75c0.19-1.11-0.47-2.09-1.42-2.22
		C247.8,145.58,246.89,146.37,246.7,147.47z"/>
	<path class="st5" d="M241.3,146.79c-0.18,1.1,0.41,2.08,1.33,2.18c0.93,0.12,1.83-0.68,2.02-1.77c0.18-1.09-0.45-2.07-1.37-2.19
		C242.36,144.9,241.48,145.69,241.3,146.79z"/>
	<path class="st5" d="M239.33,146.56c0.15-1.08-0.43-2.05-1.3-2.14c-0.87-0.1-1.71,0.71-1.88,1.8c-0.18,1.09,0.37,2.04,1.26,2.14
		C238.29,148.46,239.14,147.66,239.33,146.56z"/>
	<path class="st5" d="M234.27,146.03c0.19-1.08-0.36-2.05-1.17-2.11c-0.84-0.08-1.63,0.74-1.79,1.83c-0.18,1.08,0.33,2.01,1.16,2.1
		C233.29,147.93,234.1,147.12,234.27,146.03z"/>
	<path class="st5" d="M226.78,145.39c-0.16,1.06,0.3,1.99,1.08,2.04c0.75,0.06,1.51-0.76,1.69-1.83c0.17-1.09-0.33-2.01-1.1-2.07
		C227.67,143.48,226.94,144.31,226.78,145.39z"/>
	<path class="st5" d="M222.61,145.14c-0.14,1.06,0.27,1.95,0.96,1.99c0.7,0.05,1.42-0.78,1.59-1.86c0.16-1.06-0.28-1.97-0.99-2.01
		C223.48,143.23,222.79,144.07,222.61,145.14z"/>
	<path class="st5" d="M221.14,145.08c0.16-1.06-0.25-1.94-0.85-1.95c-0.64-0.02-1.26,0.83-1.43,1.88c-0.16,1.05,0.21,1.92,0.85,1.93
		C220.34,146.98,221.01,146.13,221.14,145.08z"/>
	<path class="st5" d="M216.82,143.11c-0.56,0.01-1.11,0.87-1.26,1.91c-0.15,1.03,0.15,1.87,0.69,1.87c0.56,0,1.16-0.85,1.31-1.88
		C217.71,143.96,217.37,143.11,216.82,143.11z"/>
	<path class="st5" d="M270.83,144.77c-0.19,1.18,0.48,2.33,1.58,2.76c0.15,0.06,0.31,0.1,0.46,0.13c0.66,0.13,1.33-0.02,1.86-0.4
		c0.53-0.38,0.89-0.95,0.98-1.6c0.19-1.16-0.48-2.31-1.58-2.75c-0.14-0.05-0.31-0.1-0.46-0.12c-0.64-0.13-1.29,0.01-1.85,0.39
		C271.3,143.55,270.94,144.13,270.83,144.77z"/>
	<path class="st5" d="M268.01,141.79c-0.14-0.06-0.3-0.1-0.46-0.13c-0.63-0.1-1.28,0.05-1.8,0.42c-0.55,0.38-0.9,0.96-1.03,1.63
		c-0.19,1.15,0.46,2.31,1.54,2.73c0.15,0.07,0.31,0.1,0.48,0.13c0.62,0.11,1.27-0.04,1.8-0.42c0.55-0.39,0.9-0.97,1.02-1.62
		C269.75,143.36,269.1,142.21,268.01,141.79z"/>
	<path class="st5" d="M258.98,142.76c-0.17,1.05,0.38,2.07,1.32,2.43c0.13,0.06,0.28,0.1,0.42,0.12c1.18,0.19,2.29-0.65,2.5-1.86
		c0.18-1.05-0.37-2.07-1.34-2.43c-0.13-0.06-0.26-0.1-0.41-0.11C260.32,140.72,259.19,141.56,258.98,142.76z"/>
	<path class="st5" d="M253.41,141.94c-0.2,1.07,0.46,2.07,1.45,2.22c0.99,0.14,1.97-0.62,2.16-1.68c0.17-1.07-0.5-2.07-1.48-2.21
		C254.53,140.11,253.59,140.85,253.41,141.94z"/>
	<path class="st5" d="M251.24,141.63c0.18-1.08-0.46-2.05-1.42-2.2c-0.98-0.13-1.88,0.64-2.08,1.73c-0.17,1.07,0.45,2.04,1.42,2.17
		C250.14,143.47,251.05,142.7,251.24,141.63z"/>
	<path class="st5" d="M245.68,140.89c0.2-1.08-0.43-2.04-1.36-2.15c-0.93-0.12-1.81,0.67-2,1.75c-0.16,1.08,0.42,2.04,1.35,2.15
		C244.59,142.76,245.5,141.98,245.68,140.89z"/>
	<path class="st5" d="M240.34,140.27c0.19-1.09-0.39-2.03-1.28-2.13c-0.89-0.09-1.72,0.71-1.9,1.78c-0.17,1.08,0.38,2.03,1.26,2.13
		C239.29,142.15,240.18,141.34,240.34,140.27z"/>
	<path class="st5" d="M232.29,139.49c-0.19,1.07,0.33,2.01,1.17,2.07c0.83,0.09,1.63-0.73,1.83-1.81c0.16-1.07-0.38-2-1.21-2.08
		C233.24,137.6,232.45,138.41,232.29,139.49z"/>
	<path class="st5" d="M230.53,139.35c0.17-1.06-0.34-1.98-1.11-2.04c-0.77-0.04-1.5,0.78-1.69,1.86c-0.15,1.06,0.3,1.97,1.07,2.02
		C229.58,141.25,230.37,140.43,230.53,139.35z"/>
	<path class="st5" d="M226.11,139.09c0.16-1.07-0.29-1.97-1-1.99c-0.71-0.02-1.4,0.83-1.55,1.87c-0.17,1.06,0.25,1.94,0.95,1.98
		C225.22,140.98,225.94,140.16,226.11,139.09z"/>
	<path class="st5" d="M222.08,138.95c0.15-1.06-0.25-1.92-0.89-1.93c-0.64-0.01-1.25,0.85-1.41,1.91c-0.15,1.04,0.21,1.9,0.84,1.91
		C221.24,140.85,221.92,140,222.08,138.95z"/>
	<path class="st5" d="M218.46,138.95c0.16-1.06-0.19-1.88-0.75-1.86c-0.57,0.01-1.13,0.89-1.28,1.92c-0.15,1.03,0.15,1.86,0.72,1.84
		C217.72,140.84,218.3,139.99,218.46,138.95z"/>
	<path class="st5" d="M275.12,136.95c-0.15-0.06-0.29-0.1-0.45-0.13c-0.65-0.14-1.32,0.01-1.85,0.38c-0.52,0.36-0.86,0.9-0.97,1.52
		c-0.19,1.13,0.47,2.27,1.56,2.68c0.14,0.07,0.3,0.11,0.45,0.13c0.67,0.12,1.33,0,1.87-0.38c0.53-0.38,0.86-0.9,0.97-1.52
		C276.89,138.5,276.2,137.38,275.12,136.95z"/>
	<path class="st5" d="M269.04,135.78c-0.16-0.05-0.29-0.11-0.44-0.14c-0.63-0.11-1.29,0.02-1.82,0.39
		c-0.53,0.37-0.89,0.93-0.99,1.56c-0.21,1.15,0.44,2.27,1.51,2.7c0.15,0.06,0.3,0.1,0.46,0.12c0.64,0.12,1.31-0.02,1.84-0.41
		c0.53-0.36,0.87-0.9,0.99-1.54C270.77,137.33,270.12,136.2,269.04,135.78z"/>
	<path class="st5" d="M260.08,136.61c-0.21,1.04,0.35,2.04,1.31,2.4c0.12,0.06,0.25,0.1,0.4,0.13c1.17,0.19,2.27-0.62,2.48-1.8
		c0.19-1.02-0.36-2.03-1.32-2.39c-0.13-0.05-0.25-0.1-0.39-0.13C261.4,134.62,260.28,135.43,260.08,136.61z"/>
	<path class="st5" d="M254.52,135.78c-0.2,1.06,0.43,2.02,1.44,2.16c1,0.15,1.96-0.58,2.16-1.64c0.19-1.03-0.46-2.01-1.45-2.14
		C255.66,134,254.71,134.74,254.52,135.78z"/>
	<path class="st5" d="M252.37,135.48c0.19-1.03-0.41-1.98-1.38-2.11c-0.97-0.13-1.9,0.62-2.09,1.66c-0.22,1.05,0.37,1.98,1.35,2.11
		C251.2,137.27,252.18,136.53,252.37,135.48z"/>
	<path class="st5" d="M243.48,134.37c-0.23,1.04,0.33,1.96,1.25,2.07c0.93,0.11,1.87-0.63,2.08-1.67c0.21-1.05-0.37-1.96-1.29-2.08
		C244.6,132.58,243.69,133.33,243.48,134.37z"/>
	<path class="st5" d="M238.3,133.83c-0.22,1.03,0.31,1.94,1.18,2.03c0.88,0.09,1.79-0.67,2-1.71c0.22-1.03-0.34-1.93-1.22-2.02
		C239.38,132.04,238.5,132.8,238.3,133.83z"/>
	<path class="st5" d="M233.39,133.41c-0.2,1.03,0.28,1.91,1.11,1.98c0.84,0.06,1.69-0.7,1.91-1.73c0.21-1.02-0.29-1.93-1.13-1.98
		C234.44,131.6,233.62,132.39,233.39,133.41z"/>
	<path class="st5" d="M231.63,133.28c0.21-1.03-0.27-1.91-1.03-1.96c-0.79-0.04-1.57,0.76-1.76,1.78c-0.23,1.03,0.21,1.89,1,1.94
		C230.6,135.09,231.43,134.31,231.63,133.28z"/>
	<path class="st5" d="M224.6,132.92c-0.19,1.04,0.2,1.88,0.92,1.91c0.69,0.03,1.46-0.77,1.67-1.8c0.21-1.04-0.24-1.89-0.96-1.91
		C225.51,131.09,224.78,131.9,224.6,132.92z"/>
	<path class="st5" d="M220.73,132.9c-0.16,1.03,0.2,1.87,0.83,1.86c0.64,0,1.34-0.84,1.53-1.85c0.18-1.03-0.2-1.88-0.88-1.88
		C221.56,131.02,220.91,131.87,220.73,132.9z"/>
	<path class="st5" d="M219.39,132.93c0.17-1.04-0.19-1.85-0.76-1.84c-0.58,0.02-1.16,0.88-1.3,1.91c-0.16,1.04,0.14,1.86,0.73,1.83
		C218.6,134.81,219.22,133.96,219.39,132.93z"/>
	<path class="st5" d="M262.88,133.1c1.16,0.2,2.25-0.55,2.48-1.71c0.22-1.15-0.57-2.28-1.71-2.49c-0.55-0.1-1.12,0.01-1.58,0.33
		c-0.47,0.32-0.79,0.81-0.89,1.38c-0.2,1.02,0.36,2.02,1.32,2.38C262.62,133.04,262.74,133.08,262.88,133.1z"/>
	<path class="st5" d="M257.81,128.19c-0.97-0.15-1.93,0.58-2.13,1.6c-0.2,1.02,0.43,1.97,1.41,2.1c0.99,0.14,1.95-0.58,2.15-1.61
		C259.43,129.25,258.79,128.33,257.81,128.19z"/>
	<path class="st5" d="M250.09,129.06c-0.19,1.02,0.39,1.94,1.35,2.07c0.96,0.13,1.92-0.61,2.11-1.63c0.21-1.02-0.4-1.95-1.36-2.07
		C251.25,127.31,250.3,128.04,250.09,129.06z"/>
	<path class="st5" d="M244.7,128.43c-0.21,1.02,0.36,1.93,1.27,2.03c0.93,0.11,1.85-0.63,2.08-1.65c0.21-1.02-0.38-1.92-1.28-2.04
		C245.84,126.69,244.91,127.41,244.7,128.43z"/>
	<path class="st5" d="M239.55,127.9c-0.23,1.02,0.32,1.91,1.19,2c0.89,0.09,1.78-0.67,2-1.67c0.2-1.01-0.33-1.92-1.21-2.01
		C240.64,126.14,239.77,126.89,239.55,127.9z"/>
	<path class="st5" d="M237.66,127.74c0.22-1.01-0.29-1.88-1.14-1.96c-0.83-0.08-1.66,0.69-1.87,1.71c-0.22,1.02,0.26,1.89,1.1,1.95
		C236.57,129.52,237.44,128.75,237.66,127.74z"/>
	<path class="st5" d="M230.03,127.18c-0.22,1.03,0.24,1.88,1.01,1.93c0.79,0.06,1.62-0.73,1.81-1.74c0.21-1.01-0.26-1.89-1.04-1.93
		C231.02,125.38,230.23,126.17,230.03,127.18z"/>
	<path class="st5" d="M225.7,127c-0.18,1.02,0.22,1.87,0.96,1.89c0.73,0.03,1.5-0.76,1.7-1.79c0.19-1.01-0.25-1.86-0.98-1.9
		C226.64,125.17,225.9,125.98,225.7,127z"/>
	<path class="st5" d="M221.77,126.92c-0.19,1.03,0.18,1.87,0.83,1.88c0.67,0,1.37-0.81,1.57-1.85c0.2-1.02-0.23-1.86-0.9-1.88
		C222.62,125.07,221.94,125.91,221.77,126.92z"/>
	<path class="st5" d="M266.45,125.57c0.2-1.1-0.52-2.21-1.67-2.45c-0.59-0.12-1.15-0.01-1.6,0.3c-0.46,0.3-0.79,0.78-0.89,1.33
		c-0.19,1.01,0.35,2,1.33,2.37c0.11,0.05,0.23,0.08,0.35,0.1c0.56,0.12,1.13-0.01,1.61-0.32
		C266.04,126.59,266.34,126.12,266.45,125.57z"/>
	<path class="st5" d="M256.85,123.93c-0.2,1,0.42,1.92,1.41,2.04c0.96,0.15,1.92-0.56,2.12-1.56c0.19-1-0.45-1.92-1.41-2.05
		C258,122.24,257.07,122.92,256.85,123.93z"/>
	<path class="st5" d="M251.32,123.23c-0.2,0.98,0.39,1.89,1.32,2.01c0.95,0.12,1.9-0.59,2.11-1.59c0.21-0.99-0.39-1.9-1.33-2.02
		C252.45,121.52,251.53,122.23,251.32,123.23z"/>
	<path class="st5" d="M245.97,122.6c-0.22,1,0.34,1.89,1.25,2c0.93,0.11,1.82-0.63,2.05-1.62c0.22-0.99-0.36-1.88-1.27-1.99
		C247.08,120.88,246.18,121.61,245.97,122.6z"/>
	<path class="st5" d="M242.78,120.43c-0.89-0.09-1.76,0.64-1.97,1.64c-0.21,1,0.31,1.88,1.18,1.97c0.87,0.09,1.77-0.65,2-1.65
		C244.22,121.39,243.67,120.52,242.78,120.43z"/>
	<path class="st5" d="M235.89,121.64c-0.21,1,0.26,1.87,1.12,1.93c0.82,0.09,1.7-0.68,1.9-1.67c0.22-1-0.28-1.88-1.14-1.95
		C236.94,119.88,236.1,120.64,235.89,121.64z"/>
	<path class="st5" d="M231.22,121.32c-0.21,1,0.26,1.86,1.05,1.91c0.78,0.05,1.61-0.72,1.82-1.73c0.22-1.01-0.27-1.87-1.05-1.92
		C232.23,119.53,231.43,120.31,231.22,121.32z"/>
	<path class="st5" d="M226.84,121.1c-0.19,1.01,0.24,1.86,0.98,1.89c0.72,0.03,1.5-0.76,1.71-1.77c0.2-1.01-0.25-1.86-1-1.9
		C227.79,119.28,227.03,120.08,226.84,121.1z"/>
	<path class="st5" d="M224.33,119.15c-0.69-0.03-1.39,0.8-1.55,1.83c-0.18,1.02,0.22,1.86,0.89,1.88c0.7,0.02,1.41-0.8,1.6-1.81
		C225.45,120.02,225.04,119.18,224.33,119.15z"/>
	<path class="st5" d="M258.03,118.23c-0.2,0.97,0.42,1.86,1.38,2c0.95,0.12,1.91-0.55,2.11-1.52c0.2-0.97-0.43-1.84-1.39-1.99
		C259.18,116.59,258.24,117.27,258.03,118.23z"/>
	<path class="st5" d="M252.55,117.52c-0.22,0.97,0.38,1.86,1.31,1.97c0.93,0.12,1.87-0.57,2.08-1.54c0.22-0.98-0.38-1.85-1.32-1.97
		C253.68,115.87,252.76,116.54,252.55,117.52z"/>
	<path class="st5" d="M249.25,115.32c-0.9-0.11-1.82,0.6-2.04,1.57c-0.21,0.98,0.34,1.85,1.26,1.95c0.92,0.1,1.84-0.6,2.02-1.57
		C250.73,116.3,250.15,115.43,249.25,115.32z"/>
	<path class="st5" d="M242.08,116.33c-0.21,0.99,0.31,1.84,1.18,1.94c0.89,0.1,1.79-0.63,1.99-1.61c0.23-0.97-0.33-1.84-1.21-1.92
		C243.18,114.64,242.29,115.36,242.08,116.33z"/>
	<path class="st5" d="M237.13,115.88c-0.2,0.99,0.29,1.85,1.13,1.91c0.85,0.08,1.71-0.65,1.93-1.63c0.23-0.99-0.29-1.85-1.15-1.92
		C238.19,114.16,237.36,114.89,237.13,115.88z"/>
	<path class="st5" d="M232.42,115.51c-0.19,1,0.25,1.84,1.06,1.91c0.79,0.06,1.62-0.71,1.85-1.69c0.21-0.99-0.28-1.85-1.08-1.92
		C233.44,113.76,232.63,114.52,232.42,115.51z"/>
	<path class="st5" d="M229.7,113.49c-0.77-0.05-1.53,0.73-1.73,1.74c-0.2,1.01,0.25,1.85,1,1.89c0.75,0.04,1.54-0.73,1.72-1.72
		C230.9,114.39,230.45,113.54,229.7,113.49z"/>
	<path class="st5" d="M264.55,113.57c-0.22,0.97,0.35,1.94,1.3,2.32c0.12,0.02,0.23,0.06,0.31,0.09c0.57,0.12,1.16,0.03,1.63-0.29
		c0.43-0.28,0.72-0.71,0.83-1.2c0.21-1.05-0.51-2.12-1.65-2.39c-0.57-0.14-1.14-0.05-1.59,0.25
		C264.94,112.65,264.64,113.07,264.55,113.57z"/>
	<path class="st5" d="M261.3,111.27c-0.95-0.13-1.87,0.5-2.08,1.45c-0.21,0.93,0.39,1.81,1.37,1.93c0.94,0.14,1.87-0.52,2.07-1.46
		C262.87,112.27,262.25,111.41,261.3,111.27z"/>
	<path class="st5" d="M255.84,110.5c-0.93-0.12-1.85,0.54-2.05,1.47c-0.22,0.95,0.37,1.81,1.29,1.94c0.95,0.12,1.86-0.55,2.08-1.49
		C257.36,111.48,256.77,110.64,255.84,110.5z"/>
	<path class="st5" d="M248.48,111.31c-0.22,0.96,0.34,1.81,1.23,1.92c0.92,0.12,1.84-0.57,2.04-1.51c0.22-0.94-0.35-1.81-1.25-1.92
		C249.61,109.68,248.7,110.36,248.48,111.31z"/>
	<path class="st5" d="M243.35,110.71c-0.23,0.97,0.29,1.83,1.18,1.92c0.89,0.1,1.77-0.59,2-1.55c0.22-0.96-0.33-1.8-1.2-1.91
		C244.43,109.06,243.56,109.76,243.35,110.71z"/>
	<path class="st5" d="M238.39,110.19c-0.22,0.99,0.28,1.83,1.11,1.92c0.85,0.08,1.73-0.64,1.94-1.61c0.23-0.95-0.31-1.8-1.14-1.89
		C239.46,108.51,238.6,109.23,238.39,110.19z"/>
	<path class="st5" d="M235.48,108.12c-0.83-0.08-1.65,0.66-1.85,1.64c-0.21,0.99,0.26,1.84,1.08,1.9c0.8,0.07,1.65-0.67,1.85-1.65
		C236.78,109.05,236.29,108.2,235.48,108.12z"/>
	<path class="st5" d="M268.09,106.94c-0.56-0.14-1.16-0.06-1.62,0.23c-0.42,0.25-0.71,0.67-0.82,1.13c-0.19,0.92,0.37,1.9,1.33,2.28
		c0.1,0.04,0.19,0.06,0.28,0.09c0.58,0.13,1.16,0.05,1.63-0.25c0.42-0.26,0.68-0.66,0.79-1.13
		C269.9,108.28,269.19,107.22,268.09,106.94z"/>
	<path class="st5" d="M260.4,107.39c-0.2,0.9,0.4,1.74,1.34,1.88c0.94,0.16,1.88-0.47,2.07-1.37c0.18-0.89-0.42-1.73-1.34-1.88
		C261.53,105.88,260.61,106.49,260.4,107.39z"/>
	<path class="st5" d="M255.02,106.61c-0.21,0.91,0.34,1.76,1.27,1.89c0.93,0.13,1.86-0.51,2.07-1.42c0.2-0.89-0.39-1.74-1.31-1.87
		C256.14,105.07,255.22,105.69,255.02,106.61z"/>
	<path class="st5" d="M249.74,105.87c-0.21,0.93,0.33,1.78,1.23,1.9c0.89,0.12,1.81-0.53,2.03-1.45c0.21-0.92-0.34-1.76-1.24-1.88
		C250.86,104.31,249.96,104.96,249.74,105.87z"/>
	<path class="st5" d="M244.61,105.22c-0.23,0.93,0.3,1.78,1.18,1.9c0.87,0.11,1.78-0.58,1.99-1.49c0.21-0.94-0.32-1.78-1.2-1.89
		C245.71,103.61,244.83,104.28,244.61,105.22z"/>
	<path class="st5" d="M241.55,103.09c-0.85-0.11-1.69,0.57-1.91,1.53c-0.21,0.96,0.29,1.8,1.13,1.91c0.85,0.08,1.73-0.61,1.95-1.55
		C242.94,104.04,242.41,103.19,241.55,103.09z"/>
	<path class="st5" d="M272.11,104.69c-0.21,1.01,0.44,2.09,1.55,2.52c0.08,0.03,0.19,0.05,0.28,0.08c0.65,0.18,1.33,0.09,1.85-0.24
		c0.46-0.28,0.77-0.7,0.86-1.2c0.24-1.12-0.56-2.25-1.82-2.59c-0.66-0.18-1.32-0.11-1.85,0.22
		C272.54,103.76,272.23,104.18,272.11,104.69z"/>
	<path class="st5" d="M266.78,103.25c-0.19,0.9,0.39,1.86,1.34,2.24c0.07,0.03,0.16,0.06,0.24,0.08c0.58,0.15,1.18,0.08,1.66-0.22
		c0.38-0.24,0.66-0.62,0.76-1.06c0.2-0.96-0.49-1.99-1.59-2.29c-0.56-0.16-1.16-0.09-1.63,0.21
		C267.16,102.45,266.89,102.81,266.78,103.25z"/>
	<path class="st5" d="M263.64,101.01c-0.93-0.16-1.85,0.4-2.04,1.26c-0.22,0.86,0.37,1.7,1.28,1.84c0.96,0.15,1.88-0.42,2.07-1.28
		C265.15,101.99,264.56,101.17,263.64,101.01z"/>
	<path class="st5" d="M256.23,101.41c-0.19,0.88,0.36,1.71,1.28,1.85c0.92,0.15,1.84-0.46,2.03-1.32c0.24-0.87-0.35-1.69-1.26-1.84
		C257.36,99.95,256.47,100.54,256.23,101.41z"/>
	<path class="st5" d="M251.01,100.61c-0.21,0.89,0.31,1.74,1.22,1.86c0.9,0.13,1.81-0.48,2.03-1.36c0.21-0.89-0.33-1.72-1.23-1.86
		C252.13,99.1,251.23,99.71,251.01,100.61z"/>
	<path class="st5" d="M247.86,98.44c-0.88-0.13-1.77,0.5-1.98,1.41c-0.23,0.92,0.3,1.77,1.19,1.88c0.85,0.12,1.76-0.51,1.99-1.41
		C249.26,99.42,248.73,98.58,247.86,98.44z"/>
	<path class="st5" d="M274.68,102.42c0.07,0.04,0.17,0.07,0.26,0.09c0.66,0.18,1.34,0.1,1.87-0.21c0.44-0.26,0.73-0.67,0.82-1.13
		c0.22-1.05-0.55-2.17-1.79-2.52c-0.66-0.19-1.34-0.13-1.86,0.19c-0.42,0.25-0.71,0.65-0.82,1.13
		C272.94,100.94,273.59,102.01,274.68,102.42z"/>
	<path class="st5" d="M269.21,100.64c0.09,0.03,0.17,0.05,0.25,0.07c0.58,0.17,1.15,0.1,1.63-0.18c0.39-0.23,0.64-0.57,0.74-0.99
		c0.22-0.92-0.48-1.92-1.56-2.23c-0.57-0.16-1.16-0.11-1.64,0.17c-0.38,0.22-0.64,0.57-0.73,0.97
		C267.69,99.34,268.26,100.27,269.21,100.64z"/>
	<path class="st5" d="M264.09,99.19c0.9,0.16,1.82-0.37,2.01-1.18c0.2-0.81-0.38-1.6-1.31-1.77c-0.91-0.18-1.82,0.33-2.02,1.15
		C262.57,98.21,263.15,99.03,264.09,99.19z"/>
	<path class="st5" d="M259.49,95.23c-0.9-0.19-1.82,0.36-2.02,1.2c-0.21,0.84,0.35,1.65,1.27,1.81c0.9,0.17,1.82-0.39,2.02-1.21
		C260.97,96.18,260.4,95.39,259.49,95.23z"/>
	<path class="st5" d="M254.26,94.24c-0.89-0.16-1.78,0.4-1.99,1.26c-0.23,0.87,0.31,1.69,1.23,1.83c0.89,0.16,1.8-0.42,1.99-1.26
		C255.7,95.23,255.15,94.42,254.26,94.24z"/>
	<path class="st5" d="M275.71,97.92c0.08,0.03,0.15,0.05,0.23,0.07c0.67,0.2,1.34,0.14,1.87-0.18c0.43-0.25,0.7-0.62,0.79-1.05
		c0.22-1-0.55-2.09-1.75-2.47c-0.68-0.2-1.36-0.15-1.88,0.16c-0.42,0.24-0.68,0.61-0.81,1.06
		C273.95,96.47,274.63,97.49,275.71,97.92z"/>
	<path class="st5" d="M270.34,96.07c0.06,0.03,0.13,0.04,0.2,0.07c0.59,0.16,1.18,0.11,1.64-0.16c0.37-0.21,0.61-0.53,0.71-0.9
		c0.2-0.89-0.47-1.85-1.52-2.17c-0.59-0.18-1.19-0.12-1.65,0.15c-0.35,0.18-0.6,0.5-0.7,0.89C268.79,94.78,269.38,95.7,270.34,96.07
		z"/>
	<path class="st5" d="M265.24,94.51c0.9,0.19,1.81-0.29,1.99-1.05c0.2-0.75-0.37-1.52-1.28-1.72c-0.9-0.2-1.79,0.25-2,1.02
		C263.74,93.54,264.32,94.33,265.24,94.51z"/>
</g>
</svg>
