<?xml version="1.0" encoding="utf-8"?>
<!-- Generator: Adobe Illustrator 23.0.2, SVG Export Plug-In . SVG Version: 6.00 Build 0)  -->
<svg version="1.1" id="Layer_1" xmlns="http://www.w3.org/2000/svg" xmlns:xlink="http://www.w3.org/1999/xlink" x="0px" y="0px"
	 viewBox="0 0 400 400" style="enable-background:new 0 0 400 400;" xml:space="preserve">
<style type="text/css">
	.st0{fill:#424243;}
	.st1{fill:#63666A;}
	.st2{fill:#15397F;}
	.st3{fill:#C7C9C8;}
	.st4{fill:#0033A0;}
	.st5{fill:#FFFFFF;}
</style>
<path class="st0" d="M266.6,304.34h-5.83l5.92-5.13c0.27-0.23,0.02-0.42-0.55-0.42h-12.7l81.45-70.57c0.27-0.23,0.02-0.42-0.55-0.42
	H320.6c-0.57,0-1.25,0.19-1.52,0.42l-4.32,3.74H212.78c-0.57,0-1.25,0.19-1.52,0.42l-9.12,7.91h-41.47c-0.34,0-0.74,0.07-1.06,0.18
	c-0.32,0.11-0.53,0.26-0.56,0.39l-4.98,22.05l-45.92,22.05c-0.27,0.13-0.39,0.27-0.33,0.39c0.06,0.11,0.3,0.18,0.64,0.18h69.98
	c0.03,0,0.05,0,0.08,0l0.03,0c0,0,0.09,0,0.12-0.01l0.04,0c0.03,0,0.06-0.01,0.13-0.01c0.03,0,0.06-0.01,0.12-0.02l0.01,0
	c0.04-0.01,0.07-0.01,0.11-0.02l0.05-0.01c0.04-0.01,0.08-0.02,0.15-0.04c0.09-0.03,0.18-0.05,0.28-0.09
	c0.04-0.01,0.07-0.03,0.1-0.04l0.04-0.02c0.02-0.01,0.04-0.02,0.06-0.03l0.03-0.02c0.03-0.01,0.05-0.03,0.1-0.06
	c0.02-0.02,0.04-0.03,0.06-0.05l9.13-7.91h73.47l-24.93,21.6h-12.7c-0.57,0-1.25,0.19-1.52,0.42l-5.92,5.13h-5.83
	c-0.57,0-1.25,0.19-1.52,0.42c-0.27,0.23-0.02,0.42,0.55,0.42h54.94c0.57,0,1.25-0.19,1.52-0.42
	C267.42,304.53,267.17,304.34,266.6,304.34z"/>
<rect x="215.77" y="289.29" class="st1" width="44.17" height="14.59"/>
<polygon class="st2" points="151.39,231.17 123.25,231.61 150.51,252.16 "/>
<polygon class="st1" points="230.4,231.32 122.38,231.02 122.52,220.53 230.11,220.53 "/>
<polygon class="st1" points="149.11,252.4 77.66,252.45 81.04,242.05 137.54,242.05 "/>
<rect x="230.87" y="114.99" class="st3" width="14.68" height="175.18"/>
<rect x="231.8" y="104.12" class="st1" width="13.24" height="10.28"/>
<polygon class="st1" points="76.97,137.82 121.94,137.82 121.66,146.86 81.13,146.86 "/>
<rect x="122.23" y="115.28" class="st1" width="107.58" height="10.79"/>
<polygon class="st4" points="122.53,147.93 81.16,147.93 99.23,195.46 80.86,241.52 133.89,241.52 121.5,230.44 "/>
<rect x="122.23" y="125.48" class="st4" width="107.58" height="94.61"/>
<path d="M209.04,305.52c-0.6,0-1.1-0.49-1.1-1.1s0.49-1.1,1.1-1.1h6.17V289.9c0-0.6,0.49-1.1,1.1-1.1h13.43v-56.53h-77.69V253
	c0,0.04-0.01,0.08-0.01,0.12c-0.01,0.07-0.02,0.11-0.03,0.15l-0.01,0.04c-0.01,0.03-0.02,0.05-0.03,0.08l-0.02,0.05
	c-0.01,0.03-0.03,0.06-0.05,0.1c-0.06,0.1-0.12,0.17-0.19,0.24c-0.05,0.05-0.08,0.07-0.12,0.1l-0.04,0.03
	c-0.03,0.02-0.06,0.04-0.09,0.05l-0.01,0c-0.05,0.02-0.08,0.04-0.11,0.05c-0.06,0.02-0.09,0.03-0.12,0.04l-0.04,0.01
	c-0.03,0.01-0.12,0.02-0.12,0.02l-0.03,0c-0.03,0-0.05,0-0.08,0h-74c-0.36,0-0.7-0.18-0.9-0.47c-0.21-0.3-0.25-0.67-0.13-1.01
	l21.64-57.71l-21.64-57.71c-0.13-0.34-0.08-0.71,0.13-1.01c0.2-0.3,0.54-0.47,0.9-0.47h43.85v-20.69c0-0.6,0.49-1.1,1.1-1.1h107.84
	v-9.8c0-0.6,0.49-1.1,1.1-1.1h14.53c0.6,0,1.1,0.49,1.1,1.1v184.71h13.43c0.6,0,1.1,0.49,1.1,1.1v13.43h6.17c0.6,0,1.1,0.49,1.1,1.1
	s-0.49,1.1-1.1,1.1H209.04z M217.39,303.33h41.38V291h-41.38V303.33z M231.92,288.81h12.33V116.08h-12.33v104.28V288.81z
	 M78.52,251.88h69.13l-11.6-8.7H81.79L78.52,251.88z M149.84,250.78v-18.5h-24.67L149.84,250.78z M99.76,194.49
	c0.09,0.25,0.09,0.52,0,0.77l-17.15,45.72h50.52l-11.85-8.89c-0.03-0.02-0.09-0.08-0.09-0.08l-0.05-0.05l-0.08-0.09l-0.07-0.09
	l-0.05-0.08l-0.05-0.09l-0.04-0.1l-0.03-0.1l-0.02-0.1l-0.01-0.12l0-0.08v-82.36H82.61L99.76,194.49z M122.98,230.09h106.74v-8.7
	H122.98V230.09z M122.98,219.2h106.74v-92.22H122.98v20.76V219.2z M81.79,146.58h39.01v-8.7H78.52L81.79,146.58z M122.98,124.79
	h106.74v-8.7H122.98V124.79z M231.92,113.89h12.33v-8.7h-12.33V113.89z"/>
<g>
	<path class="st5" d="M140.88,149.04c-1.51,0-2.96,0-4.41,0c-0.1-0.34-0.13-11.26-0.04-11.96c8.96,0,17.92,0,26.92,0
		c0,3.97,0,7.94,0,11.95c-1.48,0-2.95,0-4.4,0c-0.1,0.35-0.13,9.8-0.05,10.41c0.31,0.09,17.34,0.11,17.87,0.02
		c0-3.45,0-6.91,0-10.41c-1.47,0-2.92,0-4.4,0c0-4.01,0-7.98,0-11.97c8.97,0,17.92,0,26.9,0c0,3.97,0,7.92,0,11.94
		c-0.48,0.05-0.97,0.01-1.46,0.02c-0.5,0.01-0.99,0-1.49,0c-0.49,0-0.99,0-1.47,0c-0.09,0.35-0.12,9.88-0.03,10.47
		c2.65,0,5.31,0,7.97,0c2.65,0,5.3,0,7.95,0c2.66,0,5.32,0,8.01,0c0,4,0,7.96,0,11.96c-0.16,0.01-0.31,0.02-0.47,0.02
		c-2.14,0-4.28,0.01-6.42-0.01c-0.4,0-0.69,0.1-0.98,0.4c-3.09,3.11-6.19,6.21-9.29,9.31c-0.12,0.12-0.28,0.21-0.44,0.32
		c0.18,0.19,0.28,0.3,0.38,0.4c3.38,3.38,6.76,6.75,10.13,10.14c0.26,0.26,0.52,0.36,0.88,0.35c1.89-0.02,3.79-0.01,5.68-0.01
		c0.16,0,0.32,0,0.46,0c0.03,0.03,0.04,0.04,0.05,0.06c0.01,0.01,0.03,0.02,0.03,0.03c0.01,0.09,0.02,0.17,0.02,0.26
		c0,3.83,0,7.66-0.01,11.49c0,0.04-0.02,0.08-0.04,0.15c-9.46,0-18.91,0-28.42,0c0-0.19,0-0.36,0-0.53c0-2.88-0.01-5.77,0.01-8.65
		c0-0.34-0.1-0.57-0.34-0.8c-1.56-1.55-3.12-3.1-4.67-4.66c-0.17-0.17-0.34-0.28-0.6-0.28c-2.5,0.01-5.01,0.01-7.51,0.01
		c-0.1,0-0.2,0.01-0.33,0.02c0,0.95,0,1.89,0,2.89c0.47,0.05,0.96,0.02,1.45,0.02c0.48,0.01,0.96,0,1.44,0c0.49,0,0.99,0,1.47,0
		c0.11,0.32,0.14,11.39,0.04,11.99c-8.96,0-17.92,0-26.91,0c0-3.99,0-7.96,0-11.97c1.48,0,2.95,0,4.4,0
		c0.11-0.34,0.13-12.87,0.03-13.43c-0.16,0-0.33,0-0.5,0c-3.16,0-6.32,0-9.48,0.01c-0.3,0-0.51-0.08-0.73-0.3
		c-2.3-2.31-4.61-4.62-6.92-6.92c-0.21-0.21-0.29-0.43-0.29-0.73c0.01-7.12,0.01-14.24,0.01-21.37
		C140.88,149.48,140.88,149.3,140.88,149.04z M142.41,147.54c0,0.25,0,0.44,0,0.62c0,7.37,0,14.74-0.01,22.11
		c0,0.32,0.09,0.54,0.31,0.76c2.04,2.02,4.07,4.05,6.09,6.09c0.25,0.25,0.49,0.34,0.84,0.34c3.41-0.01,6.82-0.01,10.23-0.01
		c0.17,0,0.34,0.01,0.5,0.02c0.09,0.62,0.06,16.14-0.03,16.49c-1.45,0-2.92,0-4.41,0c0,2.99,0,5.93,0,8.89c7.97,0,15.92,0,23.85,0
		c0.1-0.65,0.06-8.57-0.04-8.91c-1.45,0-2.92,0-4.39,0c0-2.01,0-3.98,0-5.98c0.16-0.01,0.28-0.02,0.41-0.02c3.25,0,6.5,0,9.74-0.01
		c0.28,0,0.46,0.11,0.64,0.29c1.79,1.8,3.58,3.59,5.38,5.37c0.21,0.21,0.3,0.42,0.3,0.72c-0.01,2.67-0.01,5.33-0.01,8
		c0,0.17,0,0.34,0,0.49c0.07,0.04,0.1,0.07,0.12,0.07c8.27,0.01,16.54,0.01,24.81,0.02c0.13,0,0.26-0.01,0.39-0.02
		c0.01,0,0.02-0.01,0.03-0.02c0.01-0.01,0.02-0.02,0.03-0.03c0-2.94,0-5.87,0-8.85c-0.19,0-0.34,0-0.5,0c-1.7,0-3.41,0-5.11,0
		c-0.23,0-0.41-0.06-0.57-0.23c-3.96-3.97-7.93-7.93-11.89-11.9c-0.08-0.08-0.14-0.17-0.21-0.26c0.07-0.08,0.11-0.13,0.16-0.19
		c3.74-3.74,7.48-7.48,11.21-11.22c0.17-0.17,0.34-0.23,0.58-0.23c1.94,0.01,3.87,0,5.81,0c0.17,0,0.34,0,0.5,0
		c0.1-0.55,0.08-8.58-0.03-8.94c-7.93,0-15.87,0-23.83,0c0-4.51,0-8.97,0-13.48c1.49,0,2.96,0,4.41,0c0.09-0.66,0.06-8.62-0.03-8.94
		c-7.93,0-15.86,0-23.8,0c0,2.99,0,5.95,0,8.96c1.49,0,2.95,0,4.43,0c0,4.51,0,8.97,0,13.43c-0.75,0.09-20.62,0.05-20.93-0.03
		c0-4.45,0-8.9,0-13.4c1.49,0,2.95,0,4.43,0c0-3.01,0-5.97,0-8.93c-0.52-0.1-23.54-0.07-23.85,0.02c-0.09,0.8-0.05,8.58,0.06,8.92
		C139.46,147.54,140.9,147.54,142.41,147.54z"/>
	<path class="st5" d="M193.3,201.39c0-1.98,0-3.95,0-5.95c0.7,0,1.38,0,2.14,0c-0.12-0.15-0.17-0.24-0.24-0.32
		c-2.82-2.82-5.64-5.64-8.46-8.47c-0.14-0.14-0.28-0.23-0.49-0.23c-4.03,0.01-8.07,0-12.1,0.01c-0.07,0-0.14,0.01-0.21,0.02
		c-0.09,0.33-0.13,8.22-0.04,8.97c1.45,0.01,2.92,0,4.37,0.01c0.09,0.34,0.12,5.28,0.04,5.98c-6.96,0-13.93,0-20.92,0
		c0-1.98,0-3.95,0-5.98c1.48,0,2.94,0,4.43,0c0-9,0-17.94,0-26.94c-1.48,0-2.95,0-4.43,0c0-2.02,0-3.99,0-5.99
		c6.98,0,13.94,0,20.89,0c0.09,0.31,0.12,5.17,0.04,5.98c-0.48,0.03-0.97,0.01-1.46,0.01c-0.48,0-0.96,0-1.44,0
		c-0.49,0-0.99,0-1.47,0c-0.1,0.34-0.12,8.38-0.03,8.94c0.13,0.01,0.28,0.02,0.42,0.02c3.93,0,7.86,0,11.8,0.01
		c0.29,0,0.49-0.09,0.69-0.29c2.76-2.78,5.54-5.54,8.31-8.31c0.09-0.09,0.17-0.19,0.32-0.35c-0.75,0-1.43,0-2.13,0c0-2.03,0-4,0-6
		c7.47,0,14.93,0,22.42,0c0,1.99,0,3.96,0,5.98c-0.18,0-0.34,0-0.49,0c-1.69,0-3.38,0-5.07,0c-0.25,0-0.44,0.06-0.62,0.24
		c-4.2,4.21-8.4,8.41-12.6,12.61c-0.07,0.07-0.14,0.15-0.22,0.24c0.09,0.1,0.18,0.2,0.27,0.29c4.43,4.43,8.86,8.86,13.28,13.29
		c0.19,0.19,0.38,0.28,0.65,0.27c1.43-0.01,2.85-0.01,4.28-0.01c0.16,0,0.32,0,0.47,0c0.1,0.33,0.13,5.13,0.05,5.94
		C215.43,201.45,193.96,201.48,193.3,201.39z"/>
	<path class="st5" d="M143.89,146.03c-1.51,0-2.96,0-4.41,0c-0.11-0.33-0.14-5.13-0.06-5.94c0.31-0.09,20.46-0.11,20.96-0.02
		c0,1.96,0,3.92,0,5.94c-0.49,0.04-0.98,0.01-1.46,0.02c-0.5,0-0.99,0-1.49,0c-0.49,0-0.99,0-1.51,0c0,7.97,0,15.9,0,23.89
		c0.48,0.03,0.97,0.01,1.46,0.01c0.5,0,0.99,0,1.49,0c0.49,0,0.98,0,1.51,0c0,2.03,0,4.02,0,6.04c-0.13,0.01-0.26,0.03-0.38,0.03
		c-3.25,0-6.5,0-9.74,0.01c-0.23,0-0.41-0.06-0.58-0.23c-1.84-1.85-3.68-3.69-5.53-5.53c-0.2-0.2-0.24-0.41-0.24-0.66
		c0-6.96,0-13.92,0-20.88c0-0.73,0-1.46,0-2.18C143.91,146.38,143.9,146.23,143.89,146.03z"/>
	<path class="st5" d="M196.3,140.05c0,1.99,0,3.95,0,5.96c-1.49,0.05-2.97-0.01-4.49,0.03c0,0.22,0,0.4,0,0.59
		c0,7.62,0,15.23,0.01,22.85c0,0.36-0.09,0.62-0.35,0.88c-1.8,1.78-3.59,3.58-5.38,5.37c-0.17,0.17-0.34,0.28-0.6,0.28
		c-3.26-0.01-6.52-0.01-9.79-0.01c-0.1,0-0.2-0.01-0.3-0.02c-0.1-0.31-0.13-5.49-0.02-6.04c1.46,0,2.92,0,4.37,0
		c0.1-0.36,0.12-23.43,0.02-23.91c-1.45,0-2.92,0-4.37,0c-0.1-0.35-0.12-5.38-0.04-5.99C182.32,140.05,189.29,140.05,196.3,140.05z"
		/>
</g>
</svg>
