<?xml version="1.0" encoding="utf-8"?>
<!-- Generator: Adobe Illustrator 22.0.1, SVG Export Plug-In . SVG Version: 6.00 Build 0)  -->
<!DOCTYPE svg PUBLIC "-//W3C//DTD SVG 1.1//EN" "http://www.w3.org/Graphics/SVG/1.1/DTD/svg11.dtd">
<svg version="1.1" id="Layer_1" xmlns="http://www.w3.org/2000/svg" xmlns:xlink="http://www.w3.org/1999/xlink" x="0px" y="0px"
	 viewBox="0 0 40 40" style="enable-background:new 0 0 40 40;" xml:space="preserve">
<style type="text/css">
	.st0{fill:#231F20;}
	.st1{fill:#FFCC57;}
</style>
<g>
	<g>
		<path class="st0" d="M36.9,2.7c-0.7-0.7-1.5-1-2.5-1H5.8c-1,0-1.8,0.4-2.5,1.1c-0.7,0.7-1,1.5-1,2.5v28.6c0,1,0.4,1.8,1.1,2.5
			c0.7,0.7,1.5,1,2.5,1h28.6c1,0,1.8-0.4,2.6-1.1c0.7-0.7,1-1.5,1-2.5V5.3C38,4.3,37.6,3.5,36.9,2.7z"/>
		<path class="st1" d="M34.9,4.8c-0.6-0.6-1.3-0.9-2.2-0.9H7.6c-0.9,0-1.6,0.3-2.2,0.9C4.7,5.4,4.4,6.2,4.4,7.1v25.1
			c0,0.9,0.3,1.6,0.9,2.2c0.6,0.6,1.3,0.9,2.2,0.9h25.1c0.9,0,1.6-0.3,2.2-0.9c0.6-0.6,0.9-1.3,0.9-2.2V7.1
			C35.8,6.2,35.5,5.4,34.9,4.8z"/>
		<g>
			<path d="M18.1,12.1l-2.2,4.5c-0.2,0.5-1.2,0.2-1.8,0l-0.4-0.2c-0.5-0.3-0.6-0.5-0.4-1l3-4.2c0.2-0.6,0.5-0.6,1-0.4l0.4,0.2
				C18.3,11.4,18.3,11.5,18.1,12.1z"/>
			<path d="M24.4,9.4c0,1.1-0.8,1.9-1.9,1.9c-1,0-1.9-0.8-1.9-1.8c0-1,0.8-1.9,1.8-1.9C23.5,7.6,24.4,8.4,24.4,9.4z"/>
			<path d="M19.4,23.5l1.6,3.5c0,0-2.1,3.4-2.3,3.9c-0.2,0.5,0.6,0.8,1.1,0c0.5-0.9,1.7-2.5,1.7-2.5s0.3,1.9,0.7,2.6
				c0.4,0.8,1.8,0.6,1.6-0.5c-0.2-0.9-1.1-4.3-1.1-4.3l3.7-6.3c0,0,0.2,0.1,0.7,0.2c0.5,0.1,0.7-0.4,0.2-0.8
				c-0.2-0.1-3.2-1.8-3.8-2.7c-0.6-1-0.9-2.8-0.9-2.8c-0.1-0.6-0.6-1.8-1.9-2c-0.6-0.2-1.4-0.2-2,0.8l-2.4,4.8
				c-0.5,1.2-0.4,2.7,0.5,3.6c0,0-3.1,8.9-3.3,9.6c0,0.8,0.8,1.2,1.4,0.6c0.3-0.7,3.9-8,3.9-8L19.4,23.5z M20.2,19.7l1.2-2.6
				c0,0,0.7,1.1,1.3,1.5c0.6,0.5,2.8,1.1,2.8,1.1l-3.1,5.3C21.8,22.4,21,20.5,20.2,19.7z"/>
		</g>
	</g>
</g>
</svg>
